<?xml version="1.0" encoding="UTF-8" standalone="no"?>
<!DOCTYPE svg PUBLIC "-//W3C//DTD SVG 1.1//EN"
 "http://www.w3.org/Graphics/SVG/1.1/DTD/svg11.dtd">
<!-- Generated by graphviz version 2.43.0 (0)
 -->
<!-- Title: fk20_poly2toeplitz_coefficients Pages: 1 -->
<svg width="201pt" height="66pt"
 viewBox="0.00 0.00 201.00 66.00" xmlns="http://www.w3.org/2000/svg" xmlns:xlink="http://www.w3.org/1999/xlink">
<g id="graph0" class="graph" transform="scale(1 1) rotate(0) translate(4 62)">
<title>fk20_poly2toeplitz_coefficients</title>
<polygon fill="white" stroke="transparent" points="-4,4 -4,-62 197,-62 197,4 -4,4"/>
<!-- Node1 -->
<g id="node1" class="node">
<title>Node1</title>
<g id="a_node1"><a xlink:title="polynomial &#45;&gt; toeplitz_coefficients">
<polygon fill="#bfbfbf" stroke="black" points="0,-14 0,-44 107,-44 107,-14 0,-14"/>
<text text-anchor="start" x="8" y="-32" font-family="Helvetica,sans-Serif" font-size="10.00">fk20_poly2toeplitz</text>
<text text-anchor="middle" x="53.5" y="-21" font-family="Helvetica,sans-Serif" font-size="10.00">_coefficients</text>
</a>
</g>
</g>
<!-- Node2 -->
<g id="node2" class="node">
<title>Node2</title>
<g id="a_node2"><a xlink:href="fr_8cuh.html#a8abf9d8ad4b633144fcc0c6956d14056" target="_top" xlink:title="Copy from x into z.">
<polygon fill="white" stroke="black" points="144.5,-38.5 144.5,-57.5 191.5,-57.5 191.5,-38.5 144.5,-38.5"/>
<text text-anchor="middle" x="168" y="-45.5" font-family="Helvetica,sans-Serif" font-size="10.00">fr_cpy</text>
</a>
</g>
</g>
<!-- Node1&#45;&gt;Node2 -->
<g id="edge1" class="edge">
<title>Node1&#45;&gt;Node2</title>
<path fill="none" stroke="midnightblue" d="M107.13,-37.89C116.48,-39.47 125.96,-41.07 134.54,-42.52"/>
<polygon fill="midnightblue" stroke="midnightblue" points="134.05,-45.98 144.49,-44.2 135.21,-39.08 134.05,-45.98"/>
</g>
<!-- Node3 -->
<g id="node3" class="node">
<title>Node3</title>
<g id="a_node3"><a xlink:href="fr_8cu.html#a85755704aa98538278cd4df6411f06fa" target="_top" xlink:title="Sets the value of z to zero.">
<polygon fill="white" stroke="black" points="143,-0.5 143,-19.5 193,-19.5 193,-0.5 143,-0.5"/>
<text text-anchor="middle" x="168" y="-7.5" font-family="Helvetica,sans-Serif" font-size="10.00">fr_zero</text>
</a>
</g>
</g>
<!-- Node1&#45;&gt;Node3 -->
<g id="edge2" class="edge">
<title>Node1&#45;&gt;Node3</title>
<path fill="none" stroke="midnightblue" d="M107.13,-20.11C115.79,-18.65 124.58,-17.16 132.65,-15.8"/>
<polygon fill="midnightblue" stroke="midnightblue" points="133.5,-19.21 142.78,-14.09 132.34,-12.31 133.5,-19.21"/>
</g>
</g>
</svg>
