<?xml version="1.0" encoding="UTF-8" standalone="no"?>
<!DOCTYPE svg PUBLIC "-//W3C//DTD SVG 1.1//EN"
 "http://www.w3.org/Graphics/SVG/1.1/DTD/svg11.dtd">
<!-- Generated by graphviz version 2.43.0 (0)
 -->
<!-- Title: fk20_poly2toeplitz_coefficients_fft.cu Pages: 1 -->
<svg width="190pt" height="263pt"
 viewBox="0.00 0.00 190.00 263.00" xmlns="http://www.w3.org/2000/svg" xmlns:xlink="http://www.w3.org/1999/xlink">
<g id="graph0" class="graph" transform="scale(1 1) rotate(0) translate(4 259)">
<title>fk20_poly2toeplitz_coefficients_fft.cu</title>
<polygon fill="white" stroke="transparent" points="-4,4 -4,-259 186,-259 186,4 -4,4"/>
<!-- Node1 -->
<g id="node1" class="node">
<title>Node1</title>
<g id="a_node1"><a xlink:title=" ">
<polygon fill="#bfbfbf" stroke="black" points="44,-224.5 44,-254.5 152,-254.5 152,-224.5 44,-224.5"/>
<text text-anchor="start" x="52" y="-242.5" font-family="Helvetica,sans-Serif" font-size="10.00">fk20_poly2toeplitz</text>
<text text-anchor="middle" x="98" y="-231.5" font-family="Helvetica,sans-Serif" font-size="10.00">_coefficients_fft.cu</text>
</a>
</g>
</g>
<!-- Node2 -->
<g id="node2" class="node">
<title>Node2</title>
<g id="a_node2"><a xlink:title=" ">
<polygon fill="white" stroke="#bfbfbf" points="0,-168.5 0,-187.5 50,-187.5 50,-168.5 0,-168.5"/>
<text text-anchor="middle" x="25" y="-175.5" font-family="Helvetica,sans-Serif" font-size="10.00">stdio.h</text>
</a>
</g>
</g>
<!-- Node1&#45;&gt;Node2 -->
<g id="edge1" class="edge">
<title>Node1&#45;&gt;Node2</title>
<path fill="none" stroke="midnightblue" d="M80.7,-224.4C69.55,-215.31 55.05,-203.49 43.64,-194.19"/>
<polygon fill="midnightblue" stroke="midnightblue" points="45.58,-191.26 35.62,-187.66 41.16,-196.69 45.58,-191.26"/>
</g>
<!-- Node3 -->
<g id="node3" class="node">
<title>Node3</title>
<g id="a_node3"><a xlink:href="fr_8cuh.html" target="_top" xlink:title=" ">
<polygon fill="white" stroke="black" points="138,-56.5 138,-75.5 182,-75.5 182,-56.5 138,-56.5"/>
<text text-anchor="middle" x="160" y="-63.5" font-family="Helvetica,sans-Serif" font-size="10.00">fr.cuh</text>
</a>
</g>
</g>
<!-- Node1&#45;&gt;Node3 -->
<g id="edge2" class="edge">
<title>Node1&#45;&gt;Node3</title>
<path fill="none" stroke="midnightblue" d="M111.98,-224.25C120.51,-214.74 130.91,-201.54 137,-188 152.3,-153.99 157.43,-110.17 159.14,-85.69"/>
<polygon fill="midnightblue" stroke="midnightblue" points="162.64,-85.81 159.73,-75.62 155.65,-85.4 162.64,-85.81"/>
</g>
<!-- Node5 -->
<g id="node5" class="node">
<title>Node5</title>
<g id="a_node5"><a xlink:href="fk20_8cuh.html" target="_top" xlink:title=" ">
<polygon fill="white" stroke="black" points="68.5,-168.5 68.5,-187.5 127.5,-187.5 127.5,-168.5 68.5,-168.5"/>
<text text-anchor="middle" x="98" y="-175.5" font-family="Helvetica,sans-Serif" font-size="10.00">fk20.cuh</text>
</a>
</g>
</g>
<!-- Node1&#45;&gt;Node5 -->
<g id="edge4" class="edge">
<title>Node1&#45;&gt;Node5</title>
<path fill="none" stroke="midnightblue" d="M98,-224.4C98,-216.47 98,-206.46 98,-197.86"/>
<polygon fill="midnightblue" stroke="midnightblue" points="101.5,-197.66 98,-187.66 94.5,-197.66 101.5,-197.66"/>
</g>
<!-- Node4 -->
<g id="node4" class="node">
<title>Node4</title>
<g id="a_node4"><a xlink:title=" ">
<polygon fill="white" stroke="#bfbfbf" points="43.5,-0.5 43.5,-19.5 96.5,-19.5 96.5,-0.5 43.5,-0.5"/>
<text text-anchor="middle" x="70" y="-7.5" font-family="Helvetica,sans-Serif" font-size="10.00">stdint.h</text>
</a>
</g>
</g>
<!-- Node3&#45;&gt;Node4 -->
<g id="edge3" class="edge">
<title>Node3&#45;&gt;Node4</title>
<path fill="none" stroke="midnightblue" d="M145.54,-56.32C131.5,-47.9 109.95,-34.97 93.46,-25.07"/>
<polygon fill="midnightblue" stroke="midnightblue" points="94.8,-21.8 84.42,-19.65 91.2,-27.8 94.8,-21.8"/>
</g>
<!-- Node5&#45;&gt;Node3 -->
<g id="edge6" class="edge">
<title>Node5&#45;&gt;Node3</title>
<path fill="none" stroke="midnightblue" d="M102.87,-168.37C113.05,-150.3 136.79,-108.18 150.24,-84.31"/>
<polygon fill="midnightblue" stroke="midnightblue" points="153.3,-86.02 155.16,-75.59 147.2,-82.58 153.3,-86.02"/>
</g>
<!-- Node5&#45;&gt;Node4 -->
<g id="edge5" class="edge">
<title>Node5&#45;&gt;Node4</title>
<path fill="none" stroke="midnightblue" d="M83.05,-168.47C71.07,-160.7 55.13,-148 48,-132 32.65,-97.53 48.98,-52.98 60.57,-28.7"/>
<polygon fill="midnightblue" stroke="midnightblue" points="63.76,-30.13 65.13,-19.62 57.51,-26.98 63.76,-30.13"/>
</g>
<!-- Node6 -->
<g id="node6" class="node">
<title>Node6</title>
<g id="a_node6"><a xlink:href="g1_8cuh.html" target="_top" xlink:title=" ">
<polygon fill="white" stroke="black" points="57.5,-112.5 57.5,-131.5 106.5,-131.5 106.5,-112.5 57.5,-112.5"/>
<text text-anchor="middle" x="82" y="-119.5" font-family="Helvetica,sans-Serif" font-size="10.00">g1.cuh</text>
</a>
</g>
</g>
<!-- Node5&#45;&gt;Node6 -->
<g id="edge7" class="edge">
<title>Node5&#45;&gt;Node6</title>
<path fill="none" stroke="midnightblue" d="M95.36,-168.08C93.21,-160.85 90.12,-150.41 87.45,-141.4"/>
<polygon fill="midnightblue" stroke="midnightblue" points="90.79,-140.34 84.59,-131.75 84.08,-142.33 90.79,-140.34"/>
</g>
<!-- Node6&#45;&gt;Node3 -->
<g id="edge11" class="edge">
<title>Node6&#45;&gt;Node3</title>
<path fill="none" stroke="midnightblue" d="M94.53,-112.32C106.59,-103.98 125.03,-91.21 139.27,-81.35"/>
<polygon fill="midnightblue" stroke="midnightblue" points="141.27,-84.22 147.5,-75.65 137.28,-78.47 141.27,-84.22"/>
</g>
<!-- Node6&#45;&gt;Node4 -->
<g id="edge8" class="edge">
<title>Node6&#45;&gt;Node4</title>
<path fill="none" stroke="midnightblue" d="M77.12,-112.37C72.44,-103.55 65.69,-89.3 63,-76 59.9,-60.69 62.16,-43.04 64.91,-30.01"/>
<polygon fill="midnightblue" stroke="midnightblue" points="68.4,-30.45 67.33,-19.91 61.59,-28.82 68.4,-30.45"/>
</g>
<!-- Node7 -->
<g id="node7" class="node">
<title>Node7</title>
<g id="a_node7"><a xlink:href="fp_8cuh.html" target="_top" xlink:title=" ">
<polygon fill="white" stroke="black" points="72.5,-56.5 72.5,-75.5 119.5,-75.5 119.5,-56.5 72.5,-56.5"/>
<text text-anchor="middle" x="96" y="-63.5" font-family="Helvetica,sans-Serif" font-size="10.00">fp.cuh</text>
</a>
</g>
</g>
<!-- Node6&#45;&gt;Node7 -->
<g id="edge9" class="edge">
<title>Node6&#45;&gt;Node7</title>
<path fill="none" stroke="midnightblue" d="M84.31,-112.08C86.17,-104.93 88.84,-94.64 91.15,-85.69"/>
<polygon fill="midnightblue" stroke="midnightblue" points="94.61,-86.31 93.73,-75.75 87.83,-84.55 94.61,-86.31"/>
</g>
<!-- Node7&#45;&gt;Node4 -->
<g id="edge10" class="edge">
<title>Node7&#45;&gt;Node4</title>
<path fill="none" stroke="midnightblue" d="M91.71,-56.08C88.15,-48.69 82.98,-37.95 78.58,-28.81"/>
<polygon fill="midnightblue" stroke="midnightblue" points="81.71,-27.24 74.21,-19.75 75.4,-30.28 81.71,-27.24"/>
</g>
</g>
</svg>
