<?xml version="1.0" encoding="UTF-8" standalone="no"?>
<!DOCTYPE svg PUBLIC "-//W3C//DTD SVG 1.1//EN"
 "http://www.w3.org/Graphics/SVG/1.1/DTD/svg11.dtd">
<!-- Generated by graphviz version 2.43.0 (0)
 -->
<!-- Title: fk20_poly2h_fft.cu Pages: 1 -->
<svg width="278pt" height="252pt"
 viewBox="0.00 0.00 277.50 252.00" xmlns="http://www.w3.org/2000/svg" xmlns:xlink="http://www.w3.org/1999/xlink">
<g id="graph0" class="graph" transform="scale(1 1) rotate(0) translate(4 248)">
<title>fk20_poly2h_fft.cu</title>
<polygon fill="white" stroke="transparent" points="-4,4 -4,-248 273.5,-248 273.5,4 -4,4"/>
<!-- Node1 -->
<g id="node1" class="node">
<title>Node1</title>
<g id="a_node1"><a xlink:title=" ">
<polygon fill="#bfbfbf" stroke="black" points="90.5,-224.5 90.5,-243.5 197.5,-243.5 197.5,-224.5 90.5,-224.5"/>
<text text-anchor="middle" x="144" y="-231.5" font-family="Helvetica,sans-Serif" font-size="10.00">fk20_poly2h_fft.cu</text>
</a>
</g>
</g>
<!-- Node2 -->
<g id="node2" class="node">
<title>Node2</title>
<g id="a_node2"><a xlink:title=" ">
<polygon fill="white" stroke="#bfbfbf" points="0,-168.5 0,-187.5 48,-187.5 48,-168.5 0,-168.5"/>
<text text-anchor="middle" x="24" y="-175.5" font-family="Helvetica,sans-Serif" font-size="10.00">time.h</text>
</a>
</g>
</g>
<!-- Node1&#45;&gt;Node2 -->
<g id="edge1" class="edge">
<title>Node1&#45;&gt;Node2</title>
<path fill="none" stroke="midnightblue" d="M124.99,-224.44C105.41,-215.64 74.69,-201.81 52.27,-191.72"/>
<polygon fill="midnightblue" stroke="midnightblue" points="53.48,-188.43 42.93,-187.52 50.61,-194.81 53.48,-188.43"/>
</g>
<!-- Node3 -->
<g id="node3" class="node">
<title>Node3</title>
<g id="a_node3"><a xlink:title=" ">
<polygon fill="white" stroke="#bfbfbf" points="66,-168.5 66,-187.5 116,-187.5 116,-168.5 66,-168.5"/>
<text text-anchor="middle" x="91" y="-175.5" font-family="Helvetica,sans-Serif" font-size="10.00">stdio.h</text>
</a>
</g>
</g>
<!-- Node1&#45;&gt;Node3 -->
<g id="edge2" class="edge">
<title>Node1&#45;&gt;Node3</title>
<path fill="none" stroke="midnightblue" d="M135.25,-224.08C127.53,-216.22 116.1,-204.57 106.78,-195.08"/>
<polygon fill="midnightblue" stroke="midnightblue" points="109.09,-192.44 99.59,-187.75 104.1,-197.34 109.09,-192.44"/>
</g>
<!-- Node4 -->
<g id="node4" class="node">
<title>Node4</title>
<g id="a_node4"><a xlink:href="fr_8cuh.html" target="_top" xlink:title=" ">
<polygon fill="white" stroke="black" points="179,-56.5 179,-75.5 223,-75.5 223,-56.5 179,-56.5"/>
<text text-anchor="middle" x="201" y="-63.5" font-family="Helvetica,sans-Serif" font-size="10.00">fr.cuh</text>
</a>
</g>
</g>
<!-- Node1&#45;&gt;Node4 -->
<g id="edge3" class="edge">
<title>Node1&#45;&gt;Node4</title>
<path fill="none" stroke="midnightblue" d="M147.06,-224.08C156.08,-197.83 182.61,-120.55 194.78,-85.12"/>
<polygon fill="midnightblue" stroke="midnightblue" points="198.12,-86.16 198.06,-75.57 191.5,-83.89 198.12,-86.16"/>
</g>
<!-- Node6 -->
<g id="node6" class="node">
<title>Node6</title>
<g id="a_node6"><a xlink:href="g1_8cuh.html" target="_top" xlink:title=" ">
<polygon fill="white" stroke="black" points="104.5,-112.5 104.5,-131.5 153.5,-131.5 153.5,-112.5 104.5,-112.5"/>
<text text-anchor="middle" x="129" y="-119.5" font-family="Helvetica,sans-Serif" font-size="10.00">g1.cuh</text>
</a>
</g>
</g>
<!-- Node1&#45;&gt;Node6 -->
<g id="edge5" class="edge">
<title>Node1&#45;&gt;Node6</title>
<path fill="none" stroke="midnightblue" d="M142.82,-224.37C140.4,-206.62 134.82,-165.67 131.54,-141.6"/>
<polygon fill="midnightblue" stroke="midnightblue" points="134.99,-141.03 130.17,-131.59 128.05,-141.97 134.99,-141.03"/>
</g>
<!-- Node8 -->
<g id="node8" class="node">
<title>Node8</title>
<g id="a_node8"><a xlink:href="fk20_8cuh.html" target="_top" xlink:title=" ">
<polygon fill="white" stroke="black" points="210.5,-168.5 210.5,-187.5 269.5,-187.5 269.5,-168.5 210.5,-168.5"/>
<text text-anchor="middle" x="240" y="-175.5" font-family="Helvetica,sans-Serif" font-size="10.00">fk20.cuh</text>
</a>
</g>
</g>
<!-- Node1&#45;&gt;Node8 -->
<g id="edge10" class="edge">
<title>Node1&#45;&gt;Node8</title>
<path fill="none" stroke="midnightblue" d="M159.42,-224.32C174.54,-215.82 197.82,-202.73 215.47,-192.8"/>
<polygon fill="midnightblue" stroke="midnightblue" points="217.61,-195.61 224.61,-187.65 214.18,-189.51 217.61,-195.61"/>
</g>
<!-- Node5 -->
<g id="node5" class="node">
<title>Node5</title>
<g id="a_node5"><a xlink:title=" ">
<polygon fill="white" stroke="#bfbfbf" points="142.5,-0.5 142.5,-19.5 195.5,-19.5 195.5,-0.5 142.5,-0.5"/>
<text text-anchor="middle" x="169" y="-7.5" font-family="Helvetica,sans-Serif" font-size="10.00">stdint.h</text>
</a>
</g>
</g>
<!-- Node4&#45;&gt;Node5 -->
<g id="edge4" class="edge">
<title>Node4&#45;&gt;Node5</title>
<path fill="none" stroke="midnightblue" d="M195.72,-56.08C191.29,-48.61 184.84,-37.72 179.38,-28.52"/>
<polygon fill="midnightblue" stroke="midnightblue" points="182.29,-26.57 174.19,-19.75 176.27,-30.14 182.29,-26.57"/>
</g>
<!-- Node6&#45;&gt;Node4 -->
<g id="edge9" class="edge">
<title>Node6&#45;&gt;Node4</title>
<path fill="none" stroke="midnightblue" d="M140.57,-112.32C151.42,-104.18 167.88,-91.84 180.88,-82.09"/>
<polygon fill="midnightblue" stroke="midnightblue" points="183.32,-84.63 189.22,-75.83 179.12,-79.03 183.32,-84.63"/>
</g>
<!-- Node6&#45;&gt;Node5 -->
<g id="edge6" class="edge">
<title>Node6&#45;&gt;Node5</title>
<path fill="none" stroke="midnightblue" d="M121.03,-112.31C110.36,-99.58 93.9,-75.28 104,-56 111.28,-42.11 125.01,-31.65 137.98,-24.33"/>
<polygon fill="midnightblue" stroke="midnightblue" points="139.93,-27.27 147.19,-19.55 136.7,-21.05 139.93,-27.27"/>
</g>
<!-- Node7 -->
<g id="node7" class="node">
<title>Node7</title>
<g id="a_node7"><a xlink:href="fp_8cuh.html" target="_top" xlink:title=" ">
<polygon fill="white" stroke="black" points="113.5,-56.5 113.5,-75.5 160.5,-75.5 160.5,-56.5 113.5,-56.5"/>
<text text-anchor="middle" x="137" y="-63.5" font-family="Helvetica,sans-Serif" font-size="10.00">fp.cuh</text>
</a>
</g>
</g>
<!-- Node6&#45;&gt;Node7 -->
<g id="edge7" class="edge">
<title>Node6&#45;&gt;Node7</title>
<path fill="none" stroke="midnightblue" d="M130.32,-112.08C131.38,-104.93 132.91,-94.64 134.23,-85.69"/>
<polygon fill="midnightblue" stroke="midnightblue" points="137.7,-86.16 135.7,-75.75 130.78,-85.13 137.7,-86.16"/>
</g>
<!-- Node7&#45;&gt;Node5 -->
<g id="edge8" class="edge">
<title>Node7&#45;&gt;Node5</title>
<path fill="none" stroke="midnightblue" d="M142.28,-56.08C146.71,-48.61 153.16,-37.72 158.62,-28.52"/>
<polygon fill="midnightblue" stroke="midnightblue" points="161.73,-30.14 163.81,-19.75 155.71,-26.57 161.73,-30.14"/>
</g>
<!-- Node8&#45;&gt;Node4 -->
<g id="edge12" class="edge">
<title>Node8&#45;&gt;Node4</title>
<path fill="none" stroke="midnightblue" d="M236.94,-168.37C230.62,-150.54 216,-109.3 207.48,-85.27"/>
<polygon fill="midnightblue" stroke="midnightblue" points="210.69,-83.85 204.05,-75.59 204.09,-86.19 210.69,-83.85"/>
</g>
<!-- Node8&#45;&gt;Node5 -->
<g id="edge11" class="edge">
<title>Node8&#45;&gt;Node5</title>
<path fill="none" stroke="midnightblue" d="M241.79,-168.39C245.64,-147.54 252.8,-93.33 232,-56 224.42,-42.39 210.79,-31.89 198.15,-24.46"/>
<polygon fill="midnightblue" stroke="midnightblue" points="199.67,-21.3 189.22,-19.59 196.32,-27.45 199.67,-21.3"/>
</g>
<!-- Node8&#45;&gt;Node6 -->
<g id="edge13" class="edge">
<title>Node8&#45;&gt;Node6</title>
<path fill="none" stroke="midnightblue" d="M222.17,-168.32C204.28,-159.62 176.52,-146.12 155.95,-136.11"/>
<polygon fill="midnightblue" stroke="midnightblue" points="157.31,-132.88 146.79,-131.65 154.25,-139.18 157.31,-132.88"/>
</g>
</g>
</svg>
