<?xml version="1.0" encoding="UTF-8" standalone="no"?>
<!DOCTYPE svg PUBLIC "-//W3C//DTD SVG 1.1//EN"
 "http://www.w3.org/Graphics/SVG/1.1/DTD/svg11.dtd">
<!-- Generated by graphviz version 2.43.0 (0)
 -->
<!-- Title: fk20_testvector.cu Pages: 1 -->
<svg width="148pt" height="196pt"
 viewBox="0.00 0.00 147.50 196.00" xmlns="http://www.w3.org/2000/svg" xmlns:xlink="http://www.w3.org/1999/xlink">
<g id="graph0" class="graph" transform="scale(1 1) rotate(0) translate(4 192)">
<title>fk20_testvector.cu</title>
<polygon fill="white" stroke="transparent" points="-4,4 -4,-192 143.5,-192 143.5,4 -4,4"/>
<!-- Node1 -->
<g id="node1" class="node">
<title>Node1</title>
<g id="a_node1"><a xlink:title=" ">
<polygon fill="#bfbfbf" stroke="black" points="0,-168.5 0,-187.5 107,-187.5 107,-168.5 0,-168.5"/>
<text text-anchor="middle" x="53.5" y="-175.5" font-family="Helvetica,sans-Serif" font-size="10.00">fk20_testvector.cu</text>
</a>
</g>
</g>
<!-- Node2 -->
<g id="node2" class="node">
<title>Node2</title>
<g id="a_node2"><a xlink:href="g1_8cuh.html" target="_top" xlink:title=" ">
<polygon fill="white" stroke="black" points="29,-112.5 29,-131.5 78,-131.5 78,-112.5 29,-112.5"/>
<text text-anchor="middle" x="53.5" y="-119.5" font-family="Helvetica,sans-Serif" font-size="10.00">g1.cuh</text>
</a>
</g>
</g>
<!-- Node1&#45;&gt;Node2 -->
<g id="edge1" class="edge">
<title>Node1&#45;&gt;Node2</title>
<path fill="none" stroke="midnightblue" d="M53.5,-168.08C53.5,-161.01 53.5,-150.86 53.5,-141.99"/>
<polygon fill="midnightblue" stroke="midnightblue" points="57,-141.75 53.5,-131.75 50,-141.75 57,-141.75"/>
</g>
<!-- Node3 -->
<g id="node3" class="node">
<title>Node3</title>
<g id="a_node3"><a xlink:title=" ">
<polygon fill="white" stroke="#bfbfbf" points="27,-0.5 27,-19.5 80,-19.5 80,-0.5 27,-0.5"/>
<text text-anchor="middle" x="53.5" y="-7.5" font-family="Helvetica,sans-Serif" font-size="10.00">stdint.h</text>
</a>
</g>
</g>
<!-- Node2&#45;&gt;Node3 -->
<g id="edge2" class="edge">
<title>Node2&#45;&gt;Node3</title>
<path fill="none" stroke="midnightblue" d="M44.48,-112.34C36.43,-103.93 25.2,-90.36 20.5,-76 14.82,-58.64 26.04,-40.18 36.91,-27.39"/>
<polygon fill="midnightblue" stroke="midnightblue" points="39.63,-29.61 43.82,-19.87 34.47,-24.87 39.63,-29.61"/>
</g>
<!-- Node4 -->
<g id="node4" class="node">
<title>Node4</title>
<g id="a_node4"><a xlink:href="fp_8cuh.html" target="_top" xlink:title=" ">
<polygon fill="white" stroke="black" points="30,-56.5 30,-75.5 77,-75.5 77,-56.5 30,-56.5"/>
<text text-anchor="middle" x="53.5" y="-63.5" font-family="Helvetica,sans-Serif" font-size="10.00">fp.cuh</text>
</a>
</g>
</g>
<!-- Node2&#45;&gt;Node4 -->
<g id="edge3" class="edge">
<title>Node2&#45;&gt;Node4</title>
<path fill="none" stroke="midnightblue" d="M53.5,-112.08C53.5,-105.01 53.5,-94.86 53.5,-85.99"/>
<polygon fill="midnightblue" stroke="midnightblue" points="57,-85.75 53.5,-75.75 50,-85.75 57,-85.75"/>
</g>
<!-- Node5 -->
<g id="node5" class="node">
<title>Node5</title>
<g id="a_node5"><a xlink:href="fr_8cuh.html" target="_top" xlink:title=" ">
<polygon fill="white" stroke="black" points="95.5,-56.5 95.5,-75.5 139.5,-75.5 139.5,-56.5 95.5,-56.5"/>
<text text-anchor="middle" x="117.5" y="-63.5" font-family="Helvetica,sans-Serif" font-size="10.00">fr.cuh</text>
</a>
</g>
</g>
<!-- Node2&#45;&gt;Node5 -->
<g id="edge5" class="edge">
<title>Node2&#45;&gt;Node5</title>
<path fill="none" stroke="midnightblue" d="M63.78,-112.32C73.34,-104.26 87.78,-92.08 99.28,-82.37"/>
<polygon fill="midnightblue" stroke="midnightblue" points="101.64,-84.96 107.03,-75.83 97.13,-79.61 101.64,-84.96"/>
</g>
<!-- Node4&#45;&gt;Node3 -->
<g id="edge4" class="edge">
<title>Node4&#45;&gt;Node3</title>
<path fill="none" stroke="midnightblue" d="M53.5,-56.08C53.5,-49.01 53.5,-38.86 53.5,-29.99"/>
<polygon fill="midnightblue" stroke="midnightblue" points="57,-29.75 53.5,-19.75 50,-29.75 57,-29.75"/>
</g>
<!-- Node5&#45;&gt;Node3 -->
<g id="edge6" class="edge">
<title>Node5&#45;&gt;Node3</title>
<path fill="none" stroke="midnightblue" d="M107.22,-56.32C97.66,-48.26 83.22,-36.08 71.72,-26.37"/>
<polygon fill="midnightblue" stroke="midnightblue" points="73.87,-23.61 63.97,-19.83 69.36,-28.96 73.87,-23.61"/>
</g>
</g>
</svg>
