<?xml version="1.0" encoding="UTF-8" standalone="no"?>
<!DOCTYPE svg PUBLIC "-//W3C//DTD SVG 1.1//EN"
 "http://www.w3.org/Graphics/SVG/1.1/DTD/svg11.dtd">
<!-- Generated by graphviz version 2.43.0 (0)
 -->
<!-- Title: fk20_poly2hext_fft.cu Pages: 1 -->
<svg width="177pt" height="252pt"
 viewBox="0.00 0.00 176.89 252.00" xmlns="http://www.w3.org/2000/svg" xmlns:xlink="http://www.w3.org/1999/xlink">
<g id="graph0" class="graph" transform="scale(1 1) rotate(0) translate(4 248)">
<title>fk20_poly2hext_fft.cu</title>
<polygon fill="white" stroke="transparent" points="-4,4 -4,-248 172.89,-248 172.89,4 -4,4"/>
<!-- Node1 -->
<g id="node1" class="node">
<title>Node1</title>
<g id="a_node1"><a xlink:title=" ">
<polygon fill="#bfbfbf" stroke="black" points="20.39,-224.5 20.39,-243.5 142.39,-243.5 142.39,-224.5 20.39,-224.5"/>
<text text-anchor="middle" x="81.39" y="-231.5" font-family="Helvetica,sans-Serif" font-size="10.00">fk20_poly2hext_fft.cu</text>
</a>
</g>
</g>
<!-- Node2 -->
<g id="node2" class="node">
<title>Node2</title>
<g id="a_node2"><a xlink:href="fr_8cuh.html" target="_top" xlink:title=" ">
<polygon fill="white" stroke="black" points="78.39,-56.5 78.39,-75.5 122.39,-75.5 122.39,-56.5 78.39,-56.5"/>
<text text-anchor="middle" x="100.39" y="-63.5" font-family="Helvetica,sans-Serif" font-size="10.00">fr.cuh</text>
</a>
</g>
</g>
<!-- Node1&#45;&gt;Node2 -->
<g id="edge1" class="edge">
<title>Node1&#45;&gt;Node2</title>
<path fill="none" stroke="midnightblue" d="M82.41,-224.08C85.4,-197.95 94.19,-121.21 98.26,-85.58"/>
<polygon fill="midnightblue" stroke="midnightblue" points="101.75,-85.9 99.41,-75.57 94.79,-85.11 101.75,-85.9"/>
</g>
<!-- Node4 -->
<g id="node4" class="node">
<title>Node4</title>
<g id="a_node4"><a xlink:href="g1_8cuh.html" target="_top" xlink:title=" ">
<polygon fill="white" stroke="black" points="3.89,-112.5 3.89,-131.5 52.89,-131.5 52.89,-112.5 3.89,-112.5"/>
<text text-anchor="middle" x="28.39" y="-119.5" font-family="Helvetica,sans-Serif" font-size="10.00">g1.cuh</text>
</a>
</g>
</g>
<!-- Node1&#45;&gt;Node4 -->
<g id="edge3" class="edge">
<title>Node1&#45;&gt;Node4</title>
<path fill="none" stroke="midnightblue" d="M77.23,-224.37C68.56,-206.38 48.41,-164.55 36.88,-140.63"/>
<polygon fill="midnightblue" stroke="midnightblue" points="40.02,-139.08 32.53,-131.59 33.72,-142.12 40.02,-139.08"/>
</g>
<!-- Node6 -->
<g id="node6" class="node">
<title>Node6</title>
<g id="a_node6"><a xlink:href="fk20_8cuh.html" target="_top" xlink:title=" ">
<polygon fill="white" stroke="black" points="109.89,-168.5 109.89,-187.5 168.89,-187.5 168.89,-168.5 109.89,-168.5"/>
<text text-anchor="middle" x="139.39" y="-175.5" font-family="Helvetica,sans-Serif" font-size="10.00">fk20.cuh</text>
</a>
</g>
</g>
<!-- Node1&#45;&gt;Node6 -->
<g id="edge8" class="edge">
<title>Node1&#45;&gt;Node6</title>
<path fill="none" stroke="midnightblue" d="M90.71,-224.32C99.28,-216.34 112.2,-204.31 122.58,-194.65"/>
<polygon fill="midnightblue" stroke="midnightblue" points="124.97,-197.21 129.9,-187.83 120.2,-192.09 124.97,-197.21"/>
</g>
<!-- Node3 -->
<g id="node3" class="node">
<title>Node3</title>
<g id="a_node3"><a xlink:title=" ">
<polygon fill="white" stroke="#bfbfbf" points="41.89,-0.5 41.89,-19.5 94.89,-19.5 94.89,-0.5 41.89,-0.5"/>
<text text-anchor="middle" x="68.39" y="-7.5" font-family="Helvetica,sans-Serif" font-size="10.00">stdint.h</text>
</a>
</g>
</g>
<!-- Node2&#45;&gt;Node3 -->
<g id="edge2" class="edge">
<title>Node2&#45;&gt;Node3</title>
<path fill="none" stroke="midnightblue" d="M95.11,-56.08C90.68,-48.61 84.23,-37.72 78.77,-28.52"/>
<polygon fill="midnightblue" stroke="midnightblue" points="81.68,-26.57 73.58,-19.75 75.66,-30.14 81.68,-26.57"/>
</g>
<!-- Node4&#45;&gt;Node2 -->
<g id="edge7" class="edge">
<title>Node4&#45;&gt;Node2</title>
<path fill="none" stroke="midnightblue" d="M39.96,-112.32C50.81,-104.18 67.27,-91.84 80.27,-82.09"/>
<polygon fill="midnightblue" stroke="midnightblue" points="82.71,-84.63 88.61,-75.83 78.51,-79.03 82.71,-84.63"/>
</g>
<!-- Node4&#45;&gt;Node3 -->
<g id="edge4" class="edge">
<title>Node4&#45;&gt;Node3</title>
<path fill="none" stroke="midnightblue" d="M20.42,-112.31C9.75,-99.58 -6.71,-75.28 3.39,-56 10.67,-42.11 24.4,-31.65 37.37,-24.33"/>
<polygon fill="midnightblue" stroke="midnightblue" points="39.32,-27.27 46.58,-19.55 36.09,-21.05 39.32,-27.27"/>
</g>
<!-- Node5 -->
<g id="node5" class="node">
<title>Node5</title>
<g id="a_node5"><a xlink:href="fp_8cuh.html" target="_top" xlink:title=" ">
<polygon fill="white" stroke="black" points="12.89,-56.5 12.89,-75.5 59.89,-75.5 59.89,-56.5 12.89,-56.5"/>
<text text-anchor="middle" x="36.39" y="-63.5" font-family="Helvetica,sans-Serif" font-size="10.00">fp.cuh</text>
</a>
</g>
</g>
<!-- Node4&#45;&gt;Node5 -->
<g id="edge5" class="edge">
<title>Node4&#45;&gt;Node5</title>
<path fill="none" stroke="midnightblue" d="M29.71,-112.08C30.77,-104.93 32.3,-94.64 33.62,-85.69"/>
<polygon fill="midnightblue" stroke="midnightblue" points="37.09,-86.16 35.09,-75.75 30.17,-85.13 37.09,-86.16"/>
</g>
<!-- Node5&#45;&gt;Node3 -->
<g id="edge6" class="edge">
<title>Node5&#45;&gt;Node3</title>
<path fill="none" stroke="midnightblue" d="M41.67,-56.08C46.1,-48.61 52.55,-37.72 58.01,-28.52"/>
<polygon fill="midnightblue" stroke="midnightblue" points="61.12,-30.14 63.2,-19.75 55.1,-26.57 61.12,-30.14"/>
</g>
<!-- Node6&#45;&gt;Node2 -->
<g id="edge10" class="edge">
<title>Node6&#45;&gt;Node2</title>
<path fill="none" stroke="midnightblue" d="M136.33,-168.37C130.01,-150.54 115.39,-109.3 106.87,-85.27"/>
<polygon fill="midnightblue" stroke="midnightblue" points="110.08,-83.85 103.44,-75.59 103.48,-86.19 110.08,-83.85"/>
</g>
<!-- Node6&#45;&gt;Node3 -->
<g id="edge9" class="edge">
<title>Node6&#45;&gt;Node3</title>
<path fill="none" stroke="midnightblue" d="M141.18,-168.39C145.03,-147.54 152.19,-93.33 131.39,-56 123.81,-42.39 110.18,-31.89 97.54,-24.46"/>
<polygon fill="midnightblue" stroke="midnightblue" points="99.06,-21.3 88.61,-19.59 95.71,-27.45 99.06,-21.3"/>
</g>
<!-- Node6&#45;&gt;Node4 -->
<g id="edge11" class="edge">
<title>Node6&#45;&gt;Node4</title>
<path fill="none" stroke="midnightblue" d="M121.56,-168.32C103.67,-159.62 75.91,-146.12 55.34,-136.11"/>
<polygon fill="midnightblue" stroke="midnightblue" points="56.7,-132.88 46.18,-131.65 53.64,-139.18 56.7,-132.88"/>
</g>
</g>
</svg>
