<?xml version="1.0" encoding="UTF-8" standalone="no"?>
<!DOCTYPE svg PUBLIC "-//W3C//DTD SVG 1.1//EN"
 "http://www.w3.org/Graphics/SVG/1.1/DTD/svg11.dtd">
<!-- Generated by graphviz version 2.43.0 (0)
 -->
<!-- Title: fk20_poly2h_fft Pages: 1 -->
<!--zoomable 370 -->
<svg id="main" version="1.1" xmlns="http://www.w3.org/2000/svg" xmlns:xlink="http://www.w3.org/1999/xlink" xml:space="preserve" onload="init(evt)">
<style type="text/css"><![CDATA[
.edge:hover path { stroke: red; }
.edge:hover polygon { stroke: red; fill: red; }
]]></style>
<script type="text/javascript"><![CDATA[
var edges = document.getElementsByTagName('g');
if (edges && edges.length) {
  for (var i=0;i<edges.length;i++) {
    if (edges[i].id.substr(0,4)=='edge') {
      edges[i].setAttribute('class','edge');
    }
  }
}
]]></script>
        <defs>
                <circle id="rim" cx="0" cy="0" r="7"/>
                <circle id="rim2" cx="0" cy="0" r="3.5"/>
                <g id="zoomPlus">
                        <use xlink:href="#rim" fill="#404040">
                                <set attributeName="fill" to="#808080" begin="zoomplus.mouseover" end="zoomplus.mouseout"/>
                        </use>
                        <path d="M-4,0h8M0,-4v8" fill="none" stroke="white" stroke-width="1.5" pointer-events="none"/>
                </g>
                <g id="zoomMin">
                        <use xlink:href="#rim" fill="#404040">
                                <set attributeName="fill" to="#808080" begin="zoomminus.mouseover" end="zoomminus.mouseout"/>
                        </use>
                        <path d="M-4,0h8" fill="none" stroke="white" stroke-width="1.5" pointer-events="none"/>
                </g>
                <g id="dirArrow">
                        <path fill="none" stroke="white" stroke-width="1.5" d="M0,-3.0v7 M-2.5,-0.5L0,-3.0L2.5,-0.5"/>
                </g>
               <g id="resetDef">
                       <use xlink:href="#rim2" fill="#404040">
                               <set attributeName="fill" to="#808080" begin="reset.mouseover" end="reset.mouseout"/>
                       </use>
               </g>
        </defs>

<script type="text/javascript">
var viewWidth = 838;
var viewHeight = 370;
var sectionId = 'dynsection-7';
</script>
<script xlink:href="svgpan.js"/>
<svg id="graph" class="graph">
<g id="viewport">
<title>fk20_poly2h_fft</title>
<polygon fill="white" stroke="transparent" points="-4,4 -4,-366 834,-366 834,4 -4,4"/>
<!-- Node1 -->
<g id="node1" class="node">
<title>Node1</title>
<g id="a_node1"><a xlink:title="polynomial + xext_fft &#45;&gt; h_fft This function is a wrapper for the full FK20 computation,...">
<polygon fill="#bfbfbf" stroke="black" points="0,-228.5 0,-247.5 92,-247.5 92,-228.5 0,-228.5"/>
<text text-anchor="middle" x="46" y="-235.5" font-family="Helvetica,sans-Serif" font-size="10.00">fk20_poly2h_fft</text>
</a>
</g>
</g>
<!-- Node2 -->
<g id="node2" class="node">
<title>Node2</title>
<g id="a_node2"><a xlink:href="fr_8cuh.html#abf810ba4f2672a8d319e6cdbfc8ba68e" target="_top" xlink:title="wrapper for fr_fft: FFT for fr_t[512]">
<polygon fill="white" stroke="black" points="133,-285.5 133,-304.5 218,-304.5 218,-285.5 133,-285.5"/>
<text text-anchor="middle" x="175.5" y="-292.5" font-family="Helvetica,sans-Serif" font-size="10.00">fr_fft_wrapper</text>
</a>
</g>
</g>
<!-- Node1&#45;&gt;Node2 -->
<g id="edge1" class="edge">
<title>Node1&#45;&gt;Node2</title>
<path fill="none" stroke="midnightblue" d="M68.34,-247.54C89.03,-256.79 120.61,-270.91 143.96,-281.35"/>
<polygon fill="midnightblue" stroke="midnightblue" points="142.53,-284.54 153.09,-285.43 145.39,-278.15 142.53,-284.54"/>
</g>
<!-- Node7 -->
<g id="node7" class="node">
<title>Node7</title>
<g id="a_node7"><a xlink:href="g1_8cuh.html#a2541358351ce3857143d05acd83cf14f" target="_top" xlink:title="wrapper for g1p_fft: FFT for arrays of g1p_t with length 512">
<polygon fill="white" stroke="black" points="128,-190.5 128,-209.5 223,-209.5 223,-190.5 128,-190.5"/>
<text text-anchor="middle" x="175.5" y="-197.5" font-family="Helvetica,sans-Serif" font-size="10.00">g1p_fft_wrapper</text>
</a>
</g>
</g>
<!-- Node1&#45;&gt;Node7 -->
<g id="edge6" class="edge">
<title>Node1&#45;&gt;Node7</title>
<path fill="none" stroke="midnightblue" d="M79.17,-228.41C95.33,-223.6 115.11,-217.7 132.45,-212.53"/>
<polygon fill="midnightblue" stroke="midnightblue" points="133.75,-215.8 142.34,-209.59 131.75,-209.09 133.75,-215.8"/>
</g>
<!-- Node25 -->
<g id="node25" class="node">
<title>Node25</title>
<g id="a_node25"><a xlink:href="g1_8cuh.html#aa99a1625656fd85f384889a39bf8067f" target="_top" xlink:title="wrapper for g1p_ift: inverse FFT for arrays of g1p_t with length 512">
<polygon fill="white" stroke="black" points="128,-228.5 128,-247.5 223,-247.5 223,-228.5 128,-228.5"/>
<text text-anchor="middle" x="175.5" y="-235.5" font-family="Helvetica,sans-Serif" font-size="10.00">g1p_ift_wrapper</text>
</a>
</g>
</g>
<!-- Node1&#45;&gt;Node25 -->
<g id="edge29" class="edge">
<title>Node1&#45;&gt;Node25</title>
<path fill="none" stroke="midnightblue" d="M92.31,-238C100.45,-238 109.03,-238 117.46,-238"/>
<polygon fill="midnightblue" stroke="midnightblue" points="117.61,-241.5 127.61,-238 117.61,-234.5 117.61,-241.5"/>
</g>
<!-- Node3 -->
<g id="node3" class="node">
<title>Node3</title>
<g id="a_node3"><a xlink:href="fr__fft_8cu.html#aea5631ea87a7bab0cbc4e01740c416f6" target="_top" xlink:title="FFT over Fr.">
<polygon fill="white" stroke="black" points="264,-294.5 264,-313.5 304,-313.5 304,-294.5 264,-294.5"/>
<text text-anchor="middle" x="284" y="-301.5" font-family="Helvetica,sans-Serif" font-size="10.00">fr_fft</text>
</a>
</g>
</g>
<!-- Node2&#45;&gt;Node3 -->
<g id="edge2" class="edge">
<title>Node2&#45;&gt;Node3</title>
<path fill="none" stroke="midnightblue" d="M218.29,-298.53C230.09,-299.53 242.68,-300.59 253.58,-301.51"/>
<polygon fill="midnightblue" stroke="midnightblue" points="253.58,-305.03 263.84,-302.38 254.17,-298.05 253.58,-305.03"/>
</g>
<!-- Node4 -->
<g id="node4" class="node">
<title>Node4</title>
<g id="a_node4"><a xlink:href="fr_8cuh.html#a7f0553970ddea3d8c8823910fdea2d5c" target="_top" xlink:title="Computes the sum and the difference of the arguments, storing back into the arguments: (x,...">
<polygon fill="white" stroke="black" points="350,-342.5 350,-361.5 415,-361.5 415,-342.5 350,-342.5"/>
<text text-anchor="middle" x="382.5" y="-349.5" font-family="Helvetica,sans-Serif" font-size="10.00">fr_addsub</text>
</a>
</g>
</g>
<!-- Node3&#45;&gt;Node4 -->
<g id="edge3" class="edge">
<title>Node3&#45;&gt;Node4</title>
<path fill="none" stroke="midnightblue" d="M304.07,-313.48C317.98,-320.41 337.09,-329.91 352.85,-337.75"/>
<polygon fill="midnightblue" stroke="midnightblue" points="351.63,-341.05 362.14,-342.37 354.75,-334.78 351.63,-341.05"/>
</g>
<!-- Node5 -->
<g id="node5" class="node">
<title>Node5</title>
<g id="a_node5"><a xlink:href="fr_8cuh.html#a8abf9d8ad4b633144fcc0c6956d14056" target="_top" xlink:title="Copy from x into z.">
<polygon fill="white" stroke="black" points="359,-304.5 359,-323.5 406,-323.5 406,-304.5 359,-304.5"/>
<text text-anchor="middle" x="382.5" y="-311.5" font-family="Helvetica,sans-Serif" font-size="10.00">fr_cpy</text>
</a>
</g>
</g>
<!-- Node3&#45;&gt;Node5 -->
<g id="edge4" class="edge">
<title>Node3&#45;&gt;Node5</title>
<path fill="none" stroke="midnightblue" d="M304.07,-305.98C316.71,-307.29 333.63,-309.04 348.43,-310.57"/>
<polygon fill="midnightblue" stroke="midnightblue" points="348.43,-314.09 358.74,-311.64 349.15,-307.13 348.43,-314.09"/>
</g>
<!-- Node6 -->
<g id="node6" class="node">
<title>Node6</title>
<g id="a_node6"><a xlink:href="fr_8cuh.html#abaa90fa0475f5ddc32a4aee93de4e33b" target="_top" xlink:title="Multiply two residues module r z and x, stores back into z.">
<polygon fill="white" stroke="black" points="358.5,-266.5 358.5,-285.5 406.5,-285.5 406.5,-266.5 358.5,-266.5"/>
<text text-anchor="middle" x="382.5" y="-273.5" font-family="Helvetica,sans-Serif" font-size="10.00">fr_mul</text>
</a>
</g>
</g>
<!-- Node3&#45;&gt;Node6 -->
<g id="edge5" class="edge">
<title>Node3&#45;&gt;Node6</title>
<path fill="none" stroke="midnightblue" d="M304.07,-298.47C316.74,-294.79 333.72,-289.86 348.55,-285.56"/>
<polygon fill="midnightblue" stroke="midnightblue" points="349.76,-288.85 358.39,-282.71 347.81,-282.13 349.76,-288.85"/>
</g>
<!-- Node8 -->
<g id="node8" class="node">
<title>Node8</title>
<g id="a_node8"><a xlink:href="g1p__fft_8cu.html#a7381959ac0f320fc9e64af9dfef6250b" target="_top" xlink:title="FFT of size 512 over G1 with projective coordinates. Input and output arrays may overlap....">
<polygon fill="white" stroke="black" points="259,-190.5 259,-209.5 309,-209.5 309,-190.5 259,-190.5"/>
<text text-anchor="middle" x="284" y="-197.5" font-family="Helvetica,sans-Serif" font-size="10.00">g1p_fft</text>
</a>
</g>
</g>
<!-- Node7&#45;&gt;Node8 -->
<g id="edge7" class="edge">
<title>Node7&#45;&gt;Node8</title>
<path fill="none" stroke="midnightblue" d="M223.21,-200C231.76,-200 240.54,-200 248.65,-200"/>
<polygon fill="midnightblue" stroke="midnightblue" points="248.84,-203.5 258.84,-200 248.84,-196.5 248.84,-203.5"/>
</g>
<!-- Node9 -->
<g id="node9" class="node">
<title>Node9</title>
<g id="a_node9"><a xlink:href="g1_8cuh.html#a0f32bdb263c5864d6fd46a567e9e1f96" target="_top" xlink:title="Stores the sum and difference of p and q into p and q. Projective p and q, p,q ← p+q,...">
<polygon fill="white" stroke="black" points="345,-228.5 345,-247.5 420,-247.5 420,-228.5 345,-228.5"/>
<text text-anchor="middle" x="382.5" y="-235.5" font-family="Helvetica,sans-Serif" font-size="10.00">g1p_addsub</text>
</a>
</g>
</g>
<!-- Node8&#45;&gt;Node9 -->
<g id="edge8" class="edge">
<title>Node8&#45;&gt;Node9</title>
<path fill="none" stroke="midnightblue" d="M309.35,-209.59C321.01,-214.18 335.16,-219.75 347.82,-224.74"/>
<polygon fill="midnightblue" stroke="midnightblue" points="346.57,-228.01 357.16,-228.41 349.13,-221.49 346.57,-228.01"/>
</g>
<!-- Node10 -->
<g id="node10" class="node">
<title>Node10</title>
<g id="a_node10"><a xlink:href="g1_8cuh.html#a9d6fd1daf56b90adb23fc5ac3705d6fb" target="_top" xlink:title="Copy from q into p.">
<polygon fill="white" stroke="black" points="354,-190.5 354,-209.5 411,-209.5 411,-190.5 354,-190.5"/>
<text text-anchor="middle" x="382.5" y="-197.5" font-family="Helvetica,sans-Serif" font-size="10.00">g1p_cpy</text>
</a>
</g>
</g>
<!-- Node8&#45;&gt;Node10 -->
<g id="edge9" class="edge">
<title>Node8&#45;&gt;Node10</title>
<path fill="none" stroke="midnightblue" d="M309.35,-200C319.7,-200 332,-200 343.5,-200"/>
<polygon fill="midnightblue" stroke="midnightblue" points="343.74,-203.5 353.74,-200 343.74,-196.5 343.74,-203.5"/>
</g>
<!-- Node11 -->
<g id="node11" class="node">
<title>Node11</title>
<g id="a_node11"><a xlink:href="g1_8cuh.html#a98781687d03d5e738745dcb61e0fc1f8" target="_top" xlink:title="p ← k·p Point multiplication by scalar, in projective coordinates. That result is stored back into p.">
<polygon fill="white" stroke="black" points="353,-152.5 353,-171.5 412,-171.5 412,-152.5 353,-152.5"/>
<text text-anchor="middle" x="382.5" y="-159.5" font-family="Helvetica,sans-Serif" font-size="10.00">g1p_mul</text>
</a>
</g>
</g>
<!-- Node8&#45;&gt;Node11 -->
<g id="edge10" class="edge">
<title>Node8&#45;&gt;Node11</title>
<path fill="none" stroke="midnightblue" d="M309.35,-190.41C321.01,-185.82 335.16,-180.25 347.82,-175.26"/>
<polygon fill="midnightblue" stroke="midnightblue" points="349.13,-178.51 357.16,-171.59 346.57,-171.99 349.13,-178.51"/>
</g>
<!-- Node12 -->
<g id="node12" class="node">
<title>Node12</title>
<g id="a_node12"><a xlink:href="fp_8cu.html#a38ff11c3699e6c472a5b310a4d0962ea" target="_top" xlink:title="Sets z to zero.">
<polygon fill="white" stroke="black" points="466,-171.5 466,-190.5 519,-190.5 519,-171.5 466,-171.5"/>
<text text-anchor="middle" x="492.5" y="-178.5" font-family="Helvetica,sans-Serif" font-size="10.00">fp_zero</text>
</a>
</g>
</g>
<!-- Node11&#45;&gt;Node12 -->
<g id="edge11" class="edge">
<title>Node11&#45;&gt;Node12</title>
<path fill="none" stroke="midnightblue" d="M412.16,-167.04C425.53,-169.39 441.59,-172.22 455.75,-174.71"/>
<polygon fill="midnightblue" stroke="midnightblue" points="455.21,-178.17 465.66,-176.45 456.42,-171.28 455.21,-178.17"/>
</g>
<!-- Node13 -->
<g id="node13" class="node">
<title>Node13</title>
<g id="a_node13"><a xlink:href="g1_8cuh.html#ac5e28dd7ae9a2d9f751792ffa5688346" target="_top" xlink:title="Check if the value stored in p is a valid point on the G1 curve.">
<polygon fill="white" stroke="black" points="456,-133.5 456,-152.5 529,-152.5 529,-133.5 456,-133.5"/>
<text text-anchor="middle" x="492.5" y="-140.5" font-family="Helvetica,sans-Serif" font-size="10.00">g1p_isPoint</text>
</a>
</g>
</g>
<!-- Node11&#45;&gt;Node13 -->
<g id="edge12" class="edge">
<title>Node11&#45;&gt;Node13</title>
<path fill="none" stroke="midnightblue" d="M412.16,-156.96C422.5,-155.14 434.45,-153.04 445.88,-151.03"/>
<polygon fill="midnightblue" stroke="midnightblue" points="446.5,-154.47 455.74,-149.29 445.29,-147.58 446.5,-154.47"/>
</g>
<!-- Node14 -->
<g id="node14" class="node">
<title>Node14</title>
<g id="a_node14"><a xlink:href="fp_8cuh.html#a38d4eadff7890b835dceb28d2adb7358" target="_top" xlink:title="Computes the sum of two residues x and y modulo p and stores it in z. Device only function.">
<polygon fill="white" stroke="black" points="570.5,-266.5 570.5,-285.5 620.5,-285.5 620.5,-266.5 570.5,-266.5"/>
<text text-anchor="middle" x="595.5" y="-273.5" font-family="Helvetica,sans-Serif" font-size="10.00">fp_add</text>
</a>
</g>
</g>
<!-- Node13&#45;&gt;Node14 -->
<g id="edge13" class="edge">
<title>Node13&#45;&gt;Node14</title>
<path fill="none" stroke="midnightblue" d="M516.95,-152.52C521.37,-155.11 525.64,-158.25 529,-162 557.73,-194.1 539.47,-217.3 565,-252 567,-254.71 569.37,-257.3 571.88,-259.7"/>
<polygon fill="midnightblue" stroke="midnightblue" points="569.76,-262.48 579.65,-266.28 574.29,-257.15 569.76,-262.48"/>
</g>
<!-- Node15 -->
<g id="node15" class="node">
<title>Node15</title>
<g id="a_node15"><a xlink:href="fp_8cuh.html#aa84fc3bc6fd35779512d8f14938df96d" target="_top" xlink:title="Copy from x into z.">
<polygon fill="white" stroke="black" points="770,-190.5 770,-209.5 819,-209.5 819,-190.5 770,-190.5"/>
<text text-anchor="middle" x="794.5" y="-197.5" font-family="Helvetica,sans-Serif" font-size="10.00">fp_cpy</text>
</a>
</g>
</g>
<!-- Node13&#45;&gt;Node15 -->
<g id="edge14" class="edge">
<title>Node13&#45;&gt;Node15</title>
<path fill="none" stroke="midnightblue" d="M515.7,-152.6C520.4,-155.24 525.11,-158.38 529,-162 550.93,-182.41 538.76,-204.54 565,-219 627.68,-253.55 715.04,-230.19 761.48,-213.23"/>
<polygon fill="midnightblue" stroke="midnightblue" points="762.9,-216.43 771.02,-209.62 760.43,-209.89 762.9,-216.43"/>
</g>
<!-- Node16 -->
<g id="node16" class="node">
<title>Node16</title>
<g id="a_node16"><a xlink:href="fp_8cuh.html#ade1abe61dfb7cbe9b00d78a38dda4bd3" target="_top" xlink:title="Compares two residues modulo p.">
<polygon fill="white" stroke="black" points="573.5,-114.5 573.5,-133.5 617.5,-133.5 617.5,-114.5 573.5,-114.5"/>
<text text-anchor="middle" x="595.5" y="-121.5" font-family="Helvetica,sans-Serif" font-size="10.00">fp_eq</text>
</a>
</g>
</g>
<!-- Node13&#45;&gt;Node16 -->
<g id="edge15" class="edge">
<title>Node13&#45;&gt;Node16</title>
<path fill="none" stroke="midnightblue" d="M529.11,-136.3C540.3,-134.2 552.56,-131.89 563.41,-129.85"/>
<polygon fill="midnightblue" stroke="midnightblue" points="564.12,-133.28 573.3,-127.99 562.83,-126.4 564.12,-133.28"/>
</g>
<!-- Node17 -->
<g id="node17" class="node">
<title>Node17</title>
<g id="a_node17"><a xlink:href="fp_8cuh.html#a45eab81e60385635ab4732360f94ec91" target="_top" xlink:title="Checks if the residue x modulo p is congruent to zero.">
<polygon fill="white" stroke="black" points="662,-152.5 662,-171.5 723,-171.5 723,-152.5 662,-152.5"/>
<text text-anchor="middle" x="692.5" y="-159.5" font-family="Helvetica,sans-Serif" font-size="10.00">fp_iszero</text>
</a>
</g>
</g>
<!-- Node13&#45;&gt;Node17 -->
<g id="edge20" class="edge">
<title>Node13&#45;&gt;Node17</title>
<path fill="none" stroke="midnightblue" d="M529.36,-146.44C563.84,-149.75 615.87,-154.74 651.64,-158.18"/>
<polygon fill="midnightblue" stroke="midnightblue" points="651.44,-161.67 661.73,-159.14 652.11,-154.7 651.44,-161.67"/>
</g>
<!-- Node20 -->
<g id="node20" class="node">
<title>Node20</title>
<g id="a_node20"><a xlink:href="fp_8cuh.html#a9f82a12248e7c53ac9d166e25e083bba" target="_top" xlink:title="Multiplies two Fp residues x and y, stores in z.">
<polygon fill="white" stroke="black" points="570.5,-76.5 570.5,-95.5 620.5,-95.5 620.5,-76.5 570.5,-76.5"/>
<text text-anchor="middle" x="595.5" y="-83.5" font-family="Helvetica,sans-Serif" font-size="10.00">fp_mul</text>
</a>
</g>
</g>
<!-- Node13&#45;&gt;Node20 -->
<g id="edge21" class="edge">
<title>Node13&#45;&gt;Node20</title>
<path fill="none" stroke="midnightblue" d="M510.63,-133.33C526.54,-124.35 550.46,-110.86 568.68,-100.57"/>
<polygon fill="midnightblue" stroke="midnightblue" points="570.63,-103.49 577.62,-95.53 567.19,-97.39 570.63,-103.49"/>
</g>
<!-- Node21 -->
<g id="node21" class="node">
<title>Node21</title>
<g id="a_node21"><a xlink:href="fp_8cuh.html#a74e253977f8412787ed920e5a07de414" target="_top" xlink:title="Computes the square of the residue x modulo p and stores it in z.">
<polygon fill="white" stroke="black" points="572,-38.5 572,-57.5 619,-57.5 619,-38.5 572,-38.5"/>
<text text-anchor="middle" x="595.5" y="-45.5" font-family="Helvetica,sans-Serif" font-size="10.00">fp_sqr</text>
</a>
</g>
</g>
<!-- Node13&#45;&gt;Node21 -->
<g id="edge22" class="edge">
<title>Node13&#45;&gt;Node21</title>
<path fill="none" stroke="midnightblue" d="M501.21,-133.41C513.65,-118.26 539.38,-88.32 565,-67 566.51,-65.74 568.11,-64.5 569.75,-63.29"/>
<polygon fill="midnightblue" stroke="midnightblue" points="571.81,-66.12 578.08,-57.57 567.85,-60.35 571.81,-66.12"/>
</g>
<!-- Node22 -->
<g id="node22" class="node">
<title>Node22</title>
<g id="a_node22"><a xlink:href="fp_8cuh.html#a6fe5404e5c3813ab6944ed160eea3adb" target="_top" xlink:title="Multiplies x by 4 and stores the result into z.">
<polygon fill="white" stroke="black" points="573.5,-0.5 573.5,-19.5 617.5,-19.5 617.5,-0.5 573.5,-0.5"/>
<text text-anchor="middle" x="595.5" y="-7.5" font-family="Helvetica,sans-Serif" font-size="10.00">fp_x4</text>
</a>
</g>
</g>
<!-- Node13&#45;&gt;Node22 -->
<g id="edge23" class="edge">
<title>Node13&#45;&gt;Node22</title>
<path fill="none" stroke="midnightblue" d="M497.7,-133.48C507.24,-112.61 532.32,-62.07 565,-29 566.07,-27.92 567.21,-26.86 568.4,-25.85"/>
<polygon fill="midnightblue" stroke="midnightblue" points="570.76,-28.45 576.7,-19.68 566.59,-22.84 570.76,-28.45"/>
</g>
<!-- Node23 -->
<g id="node23" class="node">
<title>Node23</title>
<g id="a_node23"><a xlink:href="g1p__ispoint_8cu.html#aefda685f50e444161695d95042c312d5" target="_top" xlink:title="Check if the value stored in p is the the/any point at infinity. This implementation uses (0,...">
<polygon fill="white" stroke="black" points="565,-190.5 565,-209.5 626,-209.5 626,-190.5 565,-190.5"/>
<text text-anchor="middle" x="595.5" y="-197.5" font-family="Helvetica,sans-Serif" font-size="10.00">g1p_isInf</text>
</a>
</g>
</g>
<!-- Node13&#45;&gt;Node23 -->
<g id="edge24" class="edge">
<title>Node13&#45;&gt;Node23</title>
<path fill="none" stroke="midnightblue" d="M511.62,-152.55C517.22,-155.53 523.38,-158.87 529,-162 542.54,-169.55 557.51,-178.21 569.71,-185.35"/>
<polygon fill="midnightblue" stroke="midnightblue" points="568.04,-188.43 578.44,-190.48 571.59,-182.39 568.04,-188.43"/>
</g>
<!-- Node16&#45;&gt;Node17 -->
<g id="edge16" class="edge">
<title>Node16&#45;&gt;Node17</title>
<path fill="none" stroke="midnightblue" d="M617.58,-132.43C629.46,-137.18 644.57,-143.23 658.02,-148.61"/>
<polygon fill="midnightblue" stroke="midnightblue" points="656.88,-151.92 667.46,-152.38 659.48,-145.42 656.88,-151.92"/>
</g>
<!-- Node19 -->
<g id="node19" class="node">
<title>Node19</title>
<g id="a_node19"><a xlink:href="fp_8cuh.html#aff96ec3f32ad9c0419911604d5fefe44" target="_top" xlink:title="Calculates the difference of two residues modulo p and stores it into z.">
<polygon fill="white" stroke="black" points="668,-114.5 668,-133.5 717,-133.5 717,-114.5 668,-114.5"/>
<text text-anchor="middle" x="692.5" y="-121.5" font-family="Helvetica,sans-Serif" font-size="10.00">fp_sub</text>
</a>
</g>
</g>
<!-- Node16&#45;&gt;Node19 -->
<g id="edge19" class="edge">
<title>Node16&#45;&gt;Node19</title>
<path fill="none" stroke="midnightblue" d="M617.58,-124C629.32,-124 644.2,-124 657.53,-124"/>
<polygon fill="midnightblue" stroke="midnightblue" points="657.8,-127.5 667.8,-124 657.8,-120.5 657.8,-127.5"/>
</g>
<!-- Node17&#45;&gt;Node15 -->
<g id="edge17" class="edge">
<title>Node17&#45;&gt;Node15</title>
<path fill="none" stroke="midnightblue" d="M718.73,-171.59C731.4,-176.4 746.9,-182.29 760.49,-187.46"/>
<polygon fill="midnightblue" stroke="midnightblue" points="759.4,-190.79 769.99,-191.07 761.89,-184.24 759.4,-190.79"/>
</g>
<!-- Node18 -->
<g id="node18" class="node">
<title>Node18</title>
<g id="a_node18"><a xlink:href="fp_8cuh.html#a89b41553cb5af629dd8ac33b71d03ee1" target="_top" xlink:title="Narrow reduction of a residue modulo p, reducing to the canonical representation.">
<polygon fill="white" stroke="black" points="759,-152.5 759,-171.5 830,-171.5 830,-152.5 759,-152.5"/>
<text text-anchor="middle" x="794.5" y="-159.5" font-family="Helvetica,sans-Serif" font-size="10.00">fp_reduce6</text>
</a>
</g>
</g>
<!-- Node17&#45;&gt;Node18 -->
<g id="edge18" class="edge">
<title>Node17&#45;&gt;Node18</title>
<path fill="none" stroke="midnightblue" d="M723.23,-162C731.17,-162 739.93,-162 748.5,-162"/>
<polygon fill="midnightblue" stroke="midnightblue" points="748.78,-165.5 758.78,-162 748.78,-158.5 748.78,-165.5"/>
</g>
<!-- Node23&#45;&gt;Node17 -->
<g id="edge28" class="edge">
<title>Node23&#45;&gt;Node17</title>
<path fill="none" stroke="midnightblue" d="M620.47,-190.41C631.84,-185.87 645.6,-180.36 657.98,-175.41"/>
<polygon fill="midnightblue" stroke="midnightblue" points="659.55,-178.55 667.54,-171.59 656.95,-172.05 659.55,-178.55"/>
</g>
<!-- Node24 -->
<g id="node24" class="node">
<title>Node24</title>
<g id="a_node24"><a xlink:href="fp_8cuh.html#acf26ba4d56d7ff54adc93a6e1bcaeab1" target="_top" xlink:title="Checks if the residue x modulo p is congruent to one.">
<polygon fill="white" stroke="black" points="663.5,-190.5 663.5,-209.5 721.5,-209.5 721.5,-190.5 663.5,-190.5"/>
<text text-anchor="middle" x="692.5" y="-197.5" font-family="Helvetica,sans-Serif" font-size="10.00">fp_isone</text>
</a>
</g>
</g>
<!-- Node23&#45;&gt;Node24 -->
<g id="edge25" class="edge">
<title>Node23&#45;&gt;Node24</title>
<path fill="none" stroke="midnightblue" d="M626.04,-200C634.57,-200 644.01,-200 653.01,-200"/>
<polygon fill="midnightblue" stroke="midnightblue" points="653.28,-203.5 663.28,-200 653.28,-196.5 653.28,-203.5"/>
</g>
<!-- Node24&#45;&gt;Node15 -->
<g id="edge26" class="edge">
<title>Node24&#45;&gt;Node15</title>
<path fill="none" stroke="midnightblue" d="M721.62,-200C733.54,-200 747.52,-200 759.96,-200"/>
<polygon fill="midnightblue" stroke="midnightblue" points="759.98,-203.5 769.98,-200 759.98,-196.5 759.98,-203.5"/>
</g>
<!-- Node24&#45;&gt;Node18 -->
<g id="edge27" class="edge">
<title>Node24&#45;&gt;Node18</title>
<path fill="none" stroke="midnightblue" d="M718.73,-190.41C730.81,-185.82 745.47,-180.25 758.6,-175.26"/>
<polygon fill="midnightblue" stroke="midnightblue" points="760.17,-178.41 768.27,-171.59 757.68,-171.87 760.17,-178.41"/>
</g>
<!-- Node26 -->
<g id="node26" class="node">
<title>Node26</title>
<g id="a_node26"><a xlink:href="g1p__fft_8cu.html#a07141ff993bd6fc7da467a63b5c319ca" target="_top" xlink:title="Inverse FFT of size 512 over G1 with projective coordinates. Input and output arrays may overlap....">
<polygon fill="white" stroke="black" points="259,-228.5 259,-247.5 309,-247.5 309,-228.5 259,-228.5"/>
<text text-anchor="middle" x="284" y="-235.5" font-family="Helvetica,sans-Serif" font-size="10.00">g1p_ift</text>
</a>
</g>
</g>
<!-- Node25&#45;&gt;Node26 -->
<g id="edge30" class="edge">
<title>Node25&#45;&gt;Node26</title>
<path fill="none" stroke="midnightblue" d="M223.21,-238C231.76,-238 240.54,-238 248.65,-238"/>
<polygon fill="midnightblue" stroke="midnightblue" points="248.84,-241.5 258.84,-238 248.84,-234.5 248.84,-241.5"/>
</g>
<!-- Node26&#45;&gt;Node9 -->
<g id="edge31" class="edge">
<title>Node26&#45;&gt;Node9</title>
<path fill="none" stroke="midnightblue" d="M309.35,-238C317.06,-238 325.85,-238 334.58,-238"/>
<polygon fill="midnightblue" stroke="midnightblue" points="334.74,-241.5 344.74,-238 334.74,-234.5 334.74,-241.5"/>
</g>
<!-- Node26&#45;&gt;Node10 -->
<g id="edge32" class="edge">
<title>Node26&#45;&gt;Node10</title>
<path fill="none" stroke="midnightblue" d="M309.35,-228.41C321.01,-223.82 335.16,-218.25 347.82,-213.26"/>
<polygon fill="midnightblue" stroke="midnightblue" points="349.13,-216.51 357.16,-209.59 346.57,-209.99 349.13,-216.51"/>
</g>
<!-- Node26&#45;&gt;Node11 -->
<g id="edge33" class="edge">
<title>Node26&#45;&gt;Node11</title>
<path fill="none" stroke="midnightblue" d="M297.98,-228.27C301.64,-225.39 305.55,-222.16 309,-219 326.16,-203.3 326.43,-195.01 345,-181 347.05,-179.46 349.24,-177.97 351.49,-176.56"/>
<polygon fill="midnightblue" stroke="midnightblue" points="353.37,-179.52 360.32,-171.51 349.9,-173.44 353.37,-179.52"/>
</g>
</g>
</svg>
        <g id="navigator" transform="translate(0 0)" fill="#404254">
                <rect fill="#f2f5e9" fill-opacity="0.5" stroke="#606060" stroke-width=".5" x="0" y="0" width="60" height="60"/>
                <use id="zoomplus" xlink:href="#zoomPlus" x="17" y="9" onmousedown="handleZoom(evt,'in')"/>
                <use id="zoomminus" xlink:href="#zoomMin" x="42" y="9" onmousedown="handleZoom(evt,'out')"/>
                <use id="reset" xlink:href="#resetDef" x="30" y="36" onmousedown="handleReset()"/>
                <g id="arrowUp" xlink:href="#dirArrow" transform="translate(30 24)" onmousedown="handlePan(0,-1)">
                  <use xlink:href="#rim" fill="#404040">
                        <set attributeName="fill" to="#808080" begin="arrowUp.mouseover" end="arrowUp.mouseout"/>
                  </use>
                  <path fill="none" stroke="white" stroke-width="1.5" d="M0,-3.0v7 M-2.5,-0.5L0,-3.0L2.5,-0.5"/>
                </g>
                <g id="arrowRight" xlink:href="#dirArrow" transform="rotate(90) translate(36 -43)" onmousedown="handlePan(1,0)">
                  <use xlink:href="#rim" fill="#404040">
                        <set attributeName="fill" to="#808080" begin="arrowRight.mouseover" end="arrowRight.mouseout"/>
                  </use>
                  <path fill="none" stroke="white" stroke-width="1.5" d="M0,-3.0v7 M-2.5,-0.5L0,-3.0L2.5,-0.5"/>
                </g>
                <g id="arrowDown" xlink:href="#dirArrow" transform="rotate(180) translate(-30 -48)" onmousedown="handlePan(0,1)">
                  <use xlink:href="#rim" fill="#404040">
                        <set attributeName="fill" to="#808080" begin="arrowDown.mouseover" end="arrowDown.mouseout"/>
                  </use>
                  <path fill="none" stroke="white" stroke-width="1.5" d="M0,-3.0v7 M-2.5,-0.5L0,-3.0L2.5,-0.5"/>
                </g>
                <g id="arrowLeft" xlink:href="#dirArrow" transform="rotate(270) translate(-36 17)" onmousedown="handlePan(-1,0)">
                  <use xlink:href="#rim" fill="#404040">
                        <set attributeName="fill" to="#808080" begin="arrowLeft.mouseover" end="arrowLeft.mouseout"/>
                  </use>
                  <path fill="none" stroke="white" stroke-width="1.5" d="M0,-3.0v7 M-2.5,-0.5L0,-3.0L2.5,-0.5"/>
                </g>
        </g>
        <svg viewBox="0 0 15 15" width="100%" height="30px" preserveAspectRatio="xMaxYMin meet">
         <g id="arrow_out" transform="scale(0.3 0.3)">
          <a xlink:href="fk20_8cuh_a428f2dcc8b77723e4def6f684f790ceb_cgraph_org.svg" target="_base">
           <rect id="button" ry="5" rx="5" y="6" x="6" height="38" width="38"
                fill="#f2f5e9" fill-opacity="0.5" stroke="#606060" stroke-width="1.0"/>
           <path id="arrow"
             d="M 11.500037,31.436501 C 11.940474,20.09759 22.043105,11.32322 32.158766,21.979434 L 37.068811,17.246167 C 37.068811,17.246167 37.088388,32 37.088388,32 L 22.160133,31.978069 C 22.160133,31.978069 26.997745,27.140456 26.997745,27.140456 C 18.528582,18.264221 13.291696,25.230495 11.500037,31.436501 z"
             style="fill:#404040;"/>
          </a>
         </g>
        </svg>
</svg>
