<?xml version="1.0" encoding="UTF-8" standalone="no"?>
<!DOCTYPE svg PUBLIC "-//W3C//DTD SVG 1.1//EN"
 "http://www.w3.org/Graphics/SVG/1.1/DTD/svg11.dtd">
<!-- Generated by graphviz version 2.43.0 (0)
 -->
<!-- Title: fk20_hext_fft2h_fft Pages: 1 -->
<svg width="727pt" height="294pt"
 viewBox="0.00 0.00 727.00 294.00" xmlns="http://www.w3.org/2000/svg" xmlns:xlink="http://www.w3.org/1999/xlink">
<g id="graph0" class="graph" transform="scale(1 1) rotate(0) translate(4 290)">
<title>fk20_hext_fft2h_fft</title>
<polygon fill="white" stroke="transparent" points="-4,4 -4,-290 723,-290 723,4 -4,4"/>
<!-- Node1 -->
<g id="node1" class="node">
<title>Node1</title>
<g id="a_node1"><a xlink:title="hext_fft &#45;&gt; h_fft">
<polygon fill="#bfbfbf" stroke="black" points="0,-171.5 0,-190.5 109,-190.5 109,-171.5 0,-171.5"/>
<text text-anchor="middle" x="54.5" y="-178.5" font-family="Helvetica,sans-Serif" font-size="10.00">fk20_hext_fft2h_fft</text>
</a>
</g>
</g>
<!-- Node2 -->
<g id="node2" class="node">
<title>Node2</title>
<g id="a_node2"><a xlink:href="g1_8cuh.html#a7381959ac0f320fc9e64af9dfef6250b" target="_top" xlink:title="FFT of size 512 over G1 with projective coordinates. Input and output arrays may overlap....">
<polygon fill="white" stroke="black" points="146.5,-171.5 146.5,-190.5 196.5,-190.5 196.5,-171.5 146.5,-171.5"/>
<text text-anchor="middle" x="171.5" y="-178.5" font-family="Helvetica,sans-Serif" font-size="10.00">g1p_fft</text>
</a>
</g>
</g>
<!-- Node1&#45;&gt;Node2 -->
<g id="edge1" class="edge">
<title>Node1&#45;&gt;Node2</title>
<path fill="none" stroke="midnightblue" d="M109.3,-181C118.42,-181 127.67,-181 136.12,-181"/>
<polygon fill="midnightblue" stroke="midnightblue" points="136.33,-184.5 146.33,-181 136.33,-177.5 136.33,-184.5"/>
</g>
<!-- Node19 -->
<g id="node19" class="node">
<title>Node19</title>
<g id="a_node19"><a xlink:href="g1_8cuh.html#a07141ff993bd6fc7da467a63b5c319ca" target="_top" xlink:title="Inverse FFT of size 512 over G1 with projective coordinates. Input and output arrays may overlap....">
<polygon fill="white" stroke="black" points="146.5,-209.5 146.5,-228.5 196.5,-228.5 196.5,-209.5 146.5,-209.5"/>
<text text-anchor="middle" x="171.5" y="-216.5" font-family="Helvetica,sans-Serif" font-size="10.00">g1p_ift</text>
</a>
</g>
</g>
<!-- Node1&#45;&gt;Node19 -->
<g id="edge23" class="edge">
<title>Node1&#45;&gt;Node19</title>
<path fill="none" stroke="midnightblue" d="M84.52,-190.59C100.28,-195.8 119.86,-202.27 136.35,-207.71"/>
<polygon fill="midnightblue" stroke="midnightblue" points="135.56,-211.14 146.16,-210.96 137.76,-204.49 135.56,-211.14"/>
</g>
<!-- Node20 -->
<g id="node20" class="node">
<title>Node20</title>
<g id="a_node20"><a xlink:href="g1_8cuh.html#a15fe76c5e38260582200a074d6507f2c" target="_top" xlink:title="Set p to the point&#45;at&#45;infinity (0,1,0)">
<polygon fill="white" stroke="black" points="145,-133.5 145,-152.5 198,-152.5 198,-133.5 145,-133.5"/>
<text text-anchor="middle" x="171.5" y="-140.5" font-family="Helvetica,sans-Serif" font-size="10.00">g1p_inf</text>
</a>
</g>
</g>
<!-- Node1&#45;&gt;Node20 -->
<g id="edge27" class="edge">
<title>Node1&#45;&gt;Node20</title>
<path fill="none" stroke="midnightblue" d="M84.52,-171.41C99.84,-166.35 118.76,-160.1 134.96,-154.74"/>
<polygon fill="midnightblue" stroke="midnightblue" points="136.23,-158.01 144.63,-151.55 134.04,-151.36 136.23,-158.01"/>
</g>
<!-- Node3 -->
<g id="node3" class="node">
<title>Node3</title>
<g id="a_node3"><a xlink:href="g1_8cuh.html#a0f32bdb263c5864d6fd46a567e9e1f96" target="_top" xlink:title="Stores the sum and difference of p and q into p and q. Projective p and q, p,q ← p+q,...">
<polygon fill="white" stroke="black" points="234,-228.5 234,-247.5 309,-247.5 309,-228.5 234,-228.5"/>
<text text-anchor="middle" x="271.5" y="-235.5" font-family="Helvetica,sans-Serif" font-size="10.00">g1p_addsub</text>
</a>
</g>
</g>
<!-- Node2&#45;&gt;Node3 -->
<g id="edge2" class="edge">
<title>Node2&#45;&gt;Node3</title>
<path fill="none" stroke="midnightblue" d="M187.48,-190.68C199.82,-198.56 217.85,-209.82 234,-219 236.71,-220.54 239.55,-222.1 242.41,-223.64"/>
<polygon fill="midnightblue" stroke="midnightblue" points="240.94,-226.82 251.41,-228.4 244.21,-220.63 240.94,-226.82"/>
</g>
<!-- Node4 -->
<g id="node4" class="node">
<title>Node4</title>
<g id="a_node4"><a xlink:href="g1_8cuh.html#a9d6fd1daf56b90adb23fc5ac3705d6fb" target="_top" xlink:title="Copy from q into p.">
<polygon fill="white" stroke="black" points="243,-190.5 243,-209.5 300,-209.5 300,-190.5 243,-190.5"/>
<text text-anchor="middle" x="271.5" y="-197.5" font-family="Helvetica,sans-Serif" font-size="10.00">g1p_cpy</text>
</a>
</g>
</g>
<!-- Node2&#45;&gt;Node4 -->
<g id="edge3" class="edge">
<title>Node2&#45;&gt;Node4</title>
<path fill="none" stroke="midnightblue" d="M196.72,-185.7C207.62,-187.81 220.73,-190.35 232.86,-192.7"/>
<polygon fill="midnightblue" stroke="midnightblue" points="232.26,-196.15 242.74,-194.62 233.59,-189.28 232.26,-196.15"/>
</g>
<!-- Node5 -->
<g id="node5" class="node">
<title>Node5</title>
<g id="a_node5"><a xlink:href="g1_8cuh.html#a98781687d03d5e738745dcb61e0fc1f8" target="_top" xlink:title="p ← k·p Point multiplication by scalar, in projective coordinates. That result is stored back into p.">
<polygon fill="white" stroke="black" points="242,-152.5 242,-171.5 301,-171.5 301,-152.5 242,-152.5"/>
<text text-anchor="middle" x="271.5" y="-159.5" font-family="Helvetica,sans-Serif" font-size="10.00">g1p_mul</text>
</a>
</g>
</g>
<!-- Node2&#45;&gt;Node5 -->
<g id="edge4" class="edge">
<title>Node2&#45;&gt;Node5</title>
<path fill="none" stroke="midnightblue" d="M196.72,-176.3C207.25,-174.26 219.84,-171.82 231.61,-169.54"/>
<polygon fill="midnightblue" stroke="midnightblue" points="232.53,-172.93 241.68,-167.59 231.19,-166.06 232.53,-172.93"/>
</g>
<!-- Node6 -->
<g id="node6" class="node">
<title>Node6</title>
<g id="a_node6"><a xlink:href="fp_8cu.html#a38ff11c3699e6c472a5b310a4d0962ea" target="_top" xlink:title="Sets z to zero.">
<polygon fill="white" stroke="black" points="355,-171.5 355,-190.5 408,-190.5 408,-171.5 355,-171.5"/>
<text text-anchor="middle" x="381.5" y="-178.5" font-family="Helvetica,sans-Serif" font-size="10.00">fp_zero</text>
</a>
</g>
</g>
<!-- Node5&#45;&gt;Node6 -->
<g id="edge5" class="edge">
<title>Node5&#45;&gt;Node6</title>
<path fill="none" stroke="midnightblue" d="M301.16,-167.04C314.53,-169.39 330.59,-172.22 344.75,-174.71"/>
<polygon fill="midnightblue" stroke="midnightblue" points="344.21,-178.17 354.66,-176.45 345.42,-171.28 344.21,-178.17"/>
</g>
<!-- Node7 -->
<g id="node7" class="node">
<title>Node7</title>
<g id="a_node7"><a xlink:href="g1_8cuh.html#ac5e28dd7ae9a2d9f751792ffa5688346" target="_top" xlink:title="Check if the value stored in p is a valid point on the G1 curve.">
<polygon fill="white" stroke="black" points="345,-133.5 345,-152.5 418,-152.5 418,-133.5 345,-133.5"/>
<text text-anchor="middle" x="381.5" y="-140.5" font-family="Helvetica,sans-Serif" font-size="10.00">g1p_isPoint</text>
</a>
</g>
</g>
<!-- Node5&#45;&gt;Node7 -->
<g id="edge6" class="edge">
<title>Node5&#45;&gt;Node7</title>
<path fill="none" stroke="midnightblue" d="M301.16,-156.96C311.5,-155.14 323.45,-153.04 334.88,-151.03"/>
<polygon fill="midnightblue" stroke="midnightblue" points="335.5,-154.47 344.74,-149.29 334.29,-147.58 335.5,-154.47"/>
</g>
<!-- Node8 -->
<g id="node8" class="node">
<title>Node8</title>
<g id="a_node8"><a xlink:href="fp_8cuh.html#a38d4eadff7890b835dceb28d2adb7358" target="_top" xlink:title="Computes the sum of two residues x and y modulo p and stores it in z. Device only function.">
<polygon fill="white" stroke="black" points="459.5,-266.5 459.5,-285.5 509.5,-285.5 509.5,-266.5 459.5,-266.5"/>
<text text-anchor="middle" x="484.5" y="-273.5" font-family="Helvetica,sans-Serif" font-size="10.00">fp_add</text>
</a>
</g>
</g>
<!-- Node7&#45;&gt;Node8 -->
<g id="edge7" class="edge">
<title>Node7&#45;&gt;Node8</title>
<path fill="none" stroke="midnightblue" d="M405.95,-152.52C410.37,-155.11 414.64,-158.25 418,-162 446.73,-194.1 428.47,-217.3 454,-252 456,-254.71 458.37,-257.3 460.88,-259.7"/>
<polygon fill="midnightblue" stroke="midnightblue" points="458.76,-262.48 468.65,-266.28 463.29,-257.15 458.76,-262.48"/>
</g>
<!-- Node9 -->
<g id="node9" class="node">
<title>Node9</title>
<g id="a_node9"><a xlink:href="fp_8cuh.html#aa84fc3bc6fd35779512d8f14938df96d" target="_top" xlink:title="Copy from x into z.">
<polygon fill="white" stroke="black" points="659,-190.5 659,-209.5 708,-209.5 708,-190.5 659,-190.5"/>
<text text-anchor="middle" x="683.5" y="-197.5" font-family="Helvetica,sans-Serif" font-size="10.00">fp_cpy</text>
</a>
</g>
</g>
<!-- Node7&#45;&gt;Node9 -->
<g id="edge8" class="edge">
<title>Node7&#45;&gt;Node9</title>
<path fill="none" stroke="midnightblue" d="M404.7,-152.6C409.4,-155.24 414.11,-158.38 418,-162 439.93,-182.41 427.76,-204.54 454,-219 516.68,-253.55 604.04,-230.19 650.48,-213.23"/>
<polygon fill="midnightblue" stroke="midnightblue" points="651.9,-216.43 660.02,-209.62 649.43,-209.89 651.9,-216.43"/>
</g>
<!-- Node10 -->
<g id="node10" class="node">
<title>Node10</title>
<g id="a_node10"><a xlink:href="fp_8cuh.html#ade1abe61dfb7cbe9b00d78a38dda4bd3" target="_top" xlink:title="Compares two residues modulo p.">
<polygon fill="white" stroke="black" points="462.5,-114.5 462.5,-133.5 506.5,-133.5 506.5,-114.5 462.5,-114.5"/>
<text text-anchor="middle" x="484.5" y="-121.5" font-family="Helvetica,sans-Serif" font-size="10.00">fp_eq</text>
</a>
</g>
</g>
<!-- Node7&#45;&gt;Node10 -->
<g id="edge9" class="edge">
<title>Node7&#45;&gt;Node10</title>
<path fill="none" stroke="midnightblue" d="M418.11,-136.3C429.3,-134.2 441.56,-131.89 452.41,-129.85"/>
<polygon fill="midnightblue" stroke="midnightblue" points="453.12,-133.28 462.3,-127.99 451.83,-126.4 453.12,-133.28"/>
</g>
<!-- Node11 -->
<g id="node11" class="node">
<title>Node11</title>
<g id="a_node11"><a xlink:href="fp_8cuh.html#a45eab81e60385635ab4732360f94ec91" target="_top" xlink:title="Checks if the residue x modulo p is congruent to zero.">
<polygon fill="white" stroke="black" points="551,-152.5 551,-171.5 612,-171.5 612,-152.5 551,-152.5"/>
<text text-anchor="middle" x="581.5" y="-159.5" font-family="Helvetica,sans-Serif" font-size="10.00">fp_iszero</text>
</a>
</g>
</g>
<!-- Node7&#45;&gt;Node11 -->
<g id="edge14" class="edge">
<title>Node7&#45;&gt;Node11</title>
<path fill="none" stroke="midnightblue" d="M418.36,-146.44C452.84,-149.75 504.87,-154.74 540.64,-158.18"/>
<polygon fill="midnightblue" stroke="midnightblue" points="540.44,-161.67 550.73,-159.14 541.11,-154.7 540.44,-161.67"/>
</g>
<!-- Node14 -->
<g id="node14" class="node">
<title>Node14</title>
<g id="a_node14"><a xlink:href="fp_8cuh.html#a9f82a12248e7c53ac9d166e25e083bba" target="_top" xlink:title="Multiplies two Fp residues x and y, stores in z.">
<polygon fill="white" stroke="black" points="459.5,-76.5 459.5,-95.5 509.5,-95.5 509.5,-76.5 459.5,-76.5"/>
<text text-anchor="middle" x="484.5" y="-83.5" font-family="Helvetica,sans-Serif" font-size="10.00">fp_mul</text>
</a>
</g>
</g>
<!-- Node7&#45;&gt;Node14 -->
<g id="edge15" class="edge">
<title>Node7&#45;&gt;Node14</title>
<path fill="none" stroke="midnightblue" d="M399.63,-133.33C415.54,-124.35 439.46,-110.86 457.68,-100.57"/>
<polygon fill="midnightblue" stroke="midnightblue" points="459.63,-103.49 466.62,-95.53 456.19,-97.39 459.63,-103.49"/>
</g>
<!-- Node15 -->
<g id="node15" class="node">
<title>Node15</title>
<g id="a_node15"><a xlink:href="fp_8cuh.html#a74e253977f8412787ed920e5a07de414" target="_top" xlink:title="Computes the square of the residue x modulo p and stores it in z.">
<polygon fill="white" stroke="black" points="461,-38.5 461,-57.5 508,-57.5 508,-38.5 461,-38.5"/>
<text text-anchor="middle" x="484.5" y="-45.5" font-family="Helvetica,sans-Serif" font-size="10.00">fp_sqr</text>
</a>
</g>
</g>
<!-- Node7&#45;&gt;Node15 -->
<g id="edge16" class="edge">
<title>Node7&#45;&gt;Node15</title>
<path fill="none" stroke="midnightblue" d="M390.21,-133.41C402.65,-118.26 428.38,-88.32 454,-67 455.51,-65.74 457.11,-64.5 458.75,-63.29"/>
<polygon fill="midnightblue" stroke="midnightblue" points="460.81,-66.12 467.08,-57.57 456.85,-60.35 460.81,-66.12"/>
</g>
<!-- Node16 -->
<g id="node16" class="node">
<title>Node16</title>
<g id="a_node16"><a xlink:href="fp_8cuh.html#a6fe5404e5c3813ab6944ed160eea3adb" target="_top" xlink:title="Multiplies x by 4 and stores the result into z.">
<polygon fill="white" stroke="black" points="462.5,-0.5 462.5,-19.5 506.5,-19.5 506.5,-0.5 462.5,-0.5"/>
<text text-anchor="middle" x="484.5" y="-7.5" font-family="Helvetica,sans-Serif" font-size="10.00">fp_x4</text>
</a>
</g>
</g>
<!-- Node7&#45;&gt;Node16 -->
<g id="edge17" class="edge">
<title>Node7&#45;&gt;Node16</title>
<path fill="none" stroke="midnightblue" d="M386.7,-133.48C396.24,-112.61 421.32,-62.07 454,-29 455.07,-27.92 456.21,-26.86 457.4,-25.85"/>
<polygon fill="midnightblue" stroke="midnightblue" points="459.76,-28.45 465.7,-19.68 455.59,-22.84 459.76,-28.45"/>
</g>
<!-- Node17 -->
<g id="node17" class="node">
<title>Node17</title>
<g id="a_node17"><a xlink:href="g1p__ispoint_8cu.html#aefda685f50e444161695d95042c312d5" target="_top" xlink:title="Check if the value stored in p is the the/any point at infinity. This implementation uses (0,...">
<polygon fill="white" stroke="black" points="454,-190.5 454,-209.5 515,-209.5 515,-190.5 454,-190.5"/>
<text text-anchor="middle" x="484.5" y="-197.5" font-family="Helvetica,sans-Serif" font-size="10.00">g1p_isInf</text>
</a>
</g>
</g>
<!-- Node7&#45;&gt;Node17 -->
<g id="edge18" class="edge">
<title>Node7&#45;&gt;Node17</title>
<path fill="none" stroke="midnightblue" d="M400.62,-152.55C406.22,-155.53 412.38,-158.87 418,-162 431.54,-169.55 446.51,-178.21 458.71,-185.35"/>
<polygon fill="midnightblue" stroke="midnightblue" points="457.04,-188.43 467.44,-190.48 460.59,-182.39 457.04,-188.43"/>
</g>
<!-- Node10&#45;&gt;Node11 -->
<g id="edge10" class="edge">
<title>Node10&#45;&gt;Node11</title>
<path fill="none" stroke="midnightblue" d="M506.58,-132.43C518.46,-137.18 533.57,-143.23 547.02,-148.61"/>
<polygon fill="midnightblue" stroke="midnightblue" points="545.88,-151.92 556.46,-152.38 548.48,-145.42 545.88,-151.92"/>
</g>
<!-- Node13 -->
<g id="node13" class="node">
<title>Node13</title>
<g id="a_node13"><a xlink:href="fp_8cuh.html#aff96ec3f32ad9c0419911604d5fefe44" target="_top" xlink:title="Calculates the difference of two residues modulo p and stores it into z.">
<polygon fill="white" stroke="black" points="557,-114.5 557,-133.5 606,-133.5 606,-114.5 557,-114.5"/>
<text text-anchor="middle" x="581.5" y="-121.5" font-family="Helvetica,sans-Serif" font-size="10.00">fp_sub</text>
</a>
</g>
</g>
<!-- Node10&#45;&gt;Node13 -->
<g id="edge13" class="edge">
<title>Node10&#45;&gt;Node13</title>
<path fill="none" stroke="midnightblue" d="M506.58,-124C518.32,-124 533.2,-124 546.53,-124"/>
<polygon fill="midnightblue" stroke="midnightblue" points="546.8,-127.5 556.8,-124 546.8,-120.5 546.8,-127.5"/>
</g>
<!-- Node11&#45;&gt;Node9 -->
<g id="edge11" class="edge">
<title>Node11&#45;&gt;Node9</title>
<path fill="none" stroke="midnightblue" d="M607.73,-171.59C620.4,-176.4 635.9,-182.29 649.49,-187.46"/>
<polygon fill="midnightblue" stroke="midnightblue" points="648.4,-190.79 658.99,-191.07 650.89,-184.24 648.4,-190.79"/>
</g>
<!-- Node12 -->
<g id="node12" class="node">
<title>Node12</title>
<g id="a_node12"><a xlink:href="fp_8cuh.html#a89b41553cb5af629dd8ac33b71d03ee1" target="_top" xlink:title="Narrow reduction of a residue modulo p, reducing to the canonical representation.">
<polygon fill="white" stroke="black" points="648,-152.5 648,-171.5 719,-171.5 719,-152.5 648,-152.5"/>
<text text-anchor="middle" x="683.5" y="-159.5" font-family="Helvetica,sans-Serif" font-size="10.00">fp_reduce6</text>
</a>
</g>
</g>
<!-- Node11&#45;&gt;Node12 -->
<g id="edge12" class="edge">
<title>Node11&#45;&gt;Node12</title>
<path fill="none" stroke="midnightblue" d="M612.23,-162C620.17,-162 628.93,-162 637.5,-162"/>
<polygon fill="midnightblue" stroke="midnightblue" points="637.78,-165.5 647.78,-162 637.78,-158.5 637.78,-165.5"/>
</g>
<!-- Node17&#45;&gt;Node11 -->
<g id="edge22" class="edge">
<title>Node17&#45;&gt;Node11</title>
<path fill="none" stroke="midnightblue" d="M509.47,-190.41C520.84,-185.87 534.6,-180.36 546.98,-175.41"/>
<polygon fill="midnightblue" stroke="midnightblue" points="548.55,-178.55 556.54,-171.59 545.95,-172.05 548.55,-178.55"/>
</g>
<!-- Node18 -->
<g id="node18" class="node">
<title>Node18</title>
<g id="a_node18"><a xlink:href="fp_8cuh.html#acf26ba4d56d7ff54adc93a6e1bcaeab1" target="_top" xlink:title="Checks if the residue x modulo p is congruent to one.">
<polygon fill="white" stroke="black" points="552.5,-190.5 552.5,-209.5 610.5,-209.5 610.5,-190.5 552.5,-190.5"/>
<text text-anchor="middle" x="581.5" y="-197.5" font-family="Helvetica,sans-Serif" font-size="10.00">fp_isone</text>
</a>
</g>
</g>
<!-- Node17&#45;&gt;Node18 -->
<g id="edge19" class="edge">
<title>Node17&#45;&gt;Node18</title>
<path fill="none" stroke="midnightblue" d="M515.04,-200C523.57,-200 533.01,-200 542.01,-200"/>
<polygon fill="midnightblue" stroke="midnightblue" points="542.28,-203.5 552.28,-200 542.28,-196.5 542.28,-203.5"/>
</g>
<!-- Node18&#45;&gt;Node9 -->
<g id="edge20" class="edge">
<title>Node18&#45;&gt;Node9</title>
<path fill="none" stroke="midnightblue" d="M610.62,-200C622.54,-200 636.52,-200 648.96,-200"/>
<polygon fill="midnightblue" stroke="midnightblue" points="648.98,-203.5 658.98,-200 648.98,-196.5 648.98,-203.5"/>
</g>
<!-- Node18&#45;&gt;Node12 -->
<g id="edge21" class="edge">
<title>Node18&#45;&gt;Node12</title>
<path fill="none" stroke="midnightblue" d="M607.73,-190.41C619.81,-185.82 634.47,-180.25 647.6,-175.26"/>
<polygon fill="midnightblue" stroke="midnightblue" points="649.17,-178.41 657.27,-171.59 646.68,-171.87 649.17,-178.41"/>
</g>
<!-- Node19&#45;&gt;Node3 -->
<g id="edge24" class="edge">
<title>Node19&#45;&gt;Node3</title>
<path fill="none" stroke="midnightblue" d="M196.72,-223.7C204.97,-225.29 214.48,-227.14 223.87,-228.96"/>
<polygon fill="midnightblue" stroke="midnightblue" points="223.47,-232.45 233.95,-230.91 224.8,-225.58 223.47,-232.45"/>
</g>
<!-- Node19&#45;&gt;Node4 -->
<g id="edge25" class="edge">
<title>Node19&#45;&gt;Node4</title>
<path fill="none" stroke="midnightblue" d="M196.72,-214.3C207.62,-212.19 220.73,-209.65 232.86,-207.3"/>
<polygon fill="midnightblue" stroke="midnightblue" points="233.59,-210.72 242.74,-205.38 232.26,-203.85 233.59,-210.72"/>
</g>
<!-- Node19&#45;&gt;Node5 -->
<g id="edge26" class="edge">
<title>Node19&#45;&gt;Node5</title>
<path fill="none" stroke="midnightblue" d="M187.48,-209.32C199.82,-201.44 217.85,-190.18 234,-181 236.71,-179.46 239.55,-177.9 242.41,-176.36"/>
<polygon fill="midnightblue" stroke="midnightblue" points="244.21,-179.37 251.41,-171.6 240.94,-173.18 244.21,-179.37"/>
</g>
</g>
</svg>
