<?xml version="1.0" encoding="UTF-8" standalone="no"?>
<!DOCTYPE svg PUBLIC "-//W3C//DTD SVG 1.1//EN"
 "http://www.w3.org/Graphics/SVG/1.1/DTD/svg11.dtd">
<!-- Generated by graphviz version 2.43.0 (0)
 -->
<!-- Title: preBenchTest Pages: 1 -->
<!--zoomable 370 -->
<svg id="main" version="1.1" xmlns="http://www.w3.org/2000/svg" xmlns:xlink="http://www.w3.org/1999/xlink" xml:space="preserve" onload="init(evt)">
<style type="text/css"><![CDATA[
.edge:hover path { stroke: red; }
.edge:hover polygon { stroke: red; fill: red; }
]]></style>
<script type="text/javascript"><![CDATA[
var edges = document.getElementsByTagName('g');
if (edges && edges.length) {
  for (var i=0;i<edges.length;i++) {
    if (edges[i].id.substr(0,4)=='edge') {
      edges[i].setAttribute('class','edge');
    }
  }
}
]]></script>
        <defs>
                <circle id="rim" cx="0" cy="0" r="7"/>
                <circle id="rim2" cx="0" cy="0" r="3.5"/>
                <g id="zoomPlus">
                        <use xlink:href="#rim" fill="#404040">
                                <set attributeName="fill" to="#808080" begin="zoomplus.mouseover" end="zoomplus.mouseout"/>
                        </use>
                        <path d="M-4,0h8M0,-4v8" fill="none" stroke="white" stroke-width="1.5" pointer-events="none"/>
                </g>
                <g id="zoomMin">
                        <use xlink:href="#rim" fill="#404040">
                                <set attributeName="fill" to="#808080" begin="zoomminus.mouseover" end="zoomminus.mouseout"/>
                        </use>
                        <path d="M-4,0h8" fill="none" stroke="white" stroke-width="1.5" pointer-events="none"/>
                </g>
                <g id="dirArrow">
                        <path fill="none" stroke="white" stroke-width="1.5" d="M0,-3.0v7 M-2.5,-0.5L0,-3.0L2.5,-0.5"/>
                </g>
               <g id="resetDef">
                       <use xlink:href="#rim2" fill="#404040">
                               <set attributeName="fill" to="#808080" begin="reset.mouseover" end="reset.mouseout"/>
                       </use>
               </g>
        </defs>

<script type="text/javascript">
var viewWidth = 828;
var viewHeight = 370;
var sectionId = 'dynsection-1';
</script>
<script xlink:href="svgpan.js"/>
<svg id="graph" class="graph">
<g id="viewport">
<title>preBenchTest</title>
<polygon fill="white" stroke="transparent" points="-4,4 -4,-366 824,-366 824,4 -4,4"/>
<!-- Node1 -->
<g id="node1" class="node">
<title>Node1</title>
<g id="a_node1"><a xlink:title="Executes a test of FK20 with one block for each row. At the end, compare if the calculated h_fft is t...">
<polygon fill="#bfbfbf" stroke="black" points="0,-228.5 0,-247.5 82,-247.5 82,-228.5 0,-228.5"/>
<text text-anchor="middle" x="41" y="-235.5" font-family="Helvetica,sans-Serif" font-size="10.00">preBenchTest</text>
</a>
</g>
</g>
<!-- Node2 -->
<g id="node2" class="node">
<title>Node2</title>
<g id="a_node2"><a xlink:href="fr_8cuh.html#abf810ba4f2672a8d319e6cdbfc8ba68e" target="_top" xlink:title="wrapper for fr_fft: FFT for fr_t[512]">
<polygon fill="white" stroke="black" points="123,-285.5 123,-304.5 208,-304.5 208,-285.5 123,-285.5"/>
<text text-anchor="middle" x="165.5" y="-292.5" font-family="Helvetica,sans-Serif" font-size="10.00">fr_fft_wrapper</text>
</a>
</g>
</g>
<!-- Node1&#45;&gt;Node2 -->
<g id="edge1" class="edge">
<title>Node1&#45;&gt;Node2</title>
<path fill="none" stroke="midnightblue" d="M62.5,-247.54C82.29,-256.75 112.46,-270.78 134.86,-281.21"/>
<polygon fill="midnightblue" stroke="midnightblue" points="133.39,-284.38 143.93,-285.43 136.34,-278.04 133.39,-284.38"/>
</g>
<!-- Node7 -->
<g id="node7" class="node">
<title>Node7</title>
<g id="a_node7"><a xlink:href="g1_8cuh.html#a2541358351ce3857143d05acd83cf14f" target="_top" xlink:title="wrapper for g1p_fft: FFT for arrays of g1p_t with length 512">
<polygon fill="white" stroke="black" points="118,-190.5 118,-209.5 213,-209.5 213,-190.5 118,-190.5"/>
<text text-anchor="middle" x="165.5" y="-197.5" font-family="Helvetica,sans-Serif" font-size="10.00">g1p_fft_wrapper</text>
</a>
</g>
</g>
<!-- Node1&#45;&gt;Node7 -->
<g id="edge6" class="edge">
<title>Node1&#45;&gt;Node7</title>
<path fill="none" stroke="midnightblue" d="M72.91,-228.41C88.29,-223.64 107.08,-217.81 123.63,-212.68"/>
<polygon fill="midnightblue" stroke="midnightblue" points="125.08,-215.89 133.6,-209.59 123.01,-209.21 125.08,-215.89"/>
</g>
<!-- Node25 -->
<g id="node25" class="node">
<title>Node25</title>
<g id="a_node25"><a xlink:href="g1_8cuh.html#aa99a1625656fd85f384889a39bf8067f" target="_top" xlink:title="wrapper for g1p_ift: inverse FFT for arrays of g1p_t with length 512">
<polygon fill="white" stroke="black" points="118,-228.5 118,-247.5 213,-247.5 213,-228.5 118,-228.5"/>
<text text-anchor="middle" x="165.5" y="-235.5" font-family="Helvetica,sans-Serif" font-size="10.00">g1p_ift_wrapper</text>
</a>
</g>
</g>
<!-- Node1&#45;&gt;Node25 -->
<g id="edge29" class="edge">
<title>Node1&#45;&gt;Node25</title>
<path fill="none" stroke="midnightblue" d="M82.11,-238C90.34,-238 99.14,-238 107.82,-238"/>
<polygon fill="midnightblue" stroke="midnightblue" points="107.92,-241.5 117.92,-238 107.91,-234.5 107.92,-241.5"/>
</g>
<!-- Node3 -->
<g id="node3" class="node">
<title>Node3</title>
<g id="a_node3"><a xlink:href="fr__fft_8cu.html#aea5631ea87a7bab0cbc4e01740c416f6" target="_top" xlink:title="FFT over Fr.">
<polygon fill="white" stroke="black" points="254,-294.5 254,-313.5 294,-313.5 294,-294.5 254,-294.5"/>
<text text-anchor="middle" x="274" y="-301.5" font-family="Helvetica,sans-Serif" font-size="10.00">fr_fft</text>
</a>
</g>
</g>
<!-- Node2&#45;&gt;Node3 -->
<g id="edge2" class="edge">
<title>Node2&#45;&gt;Node3</title>
<path fill="none" stroke="midnightblue" d="M208.29,-298.53C220.09,-299.53 232.68,-300.59 243.58,-301.51"/>
<polygon fill="midnightblue" stroke="midnightblue" points="243.58,-305.03 253.84,-302.38 244.17,-298.05 243.58,-305.03"/>
</g>
<!-- Node4 -->
<g id="node4" class="node">
<title>Node4</title>
<g id="a_node4"><a xlink:href="fr_8cuh.html#a7f0553970ddea3d8c8823910fdea2d5c" target="_top" xlink:title="Computes the sum and the difference of the arguments, storing back into the arguments: (x,...">
<polygon fill="white" stroke="black" points="340,-342.5 340,-361.5 405,-361.5 405,-342.5 340,-342.5"/>
<text text-anchor="middle" x="372.5" y="-349.5" font-family="Helvetica,sans-Serif" font-size="10.00">fr_addsub</text>
</a>
</g>
</g>
<!-- Node3&#45;&gt;Node4 -->
<g id="edge3" class="edge">
<title>Node3&#45;&gt;Node4</title>
<path fill="none" stroke="midnightblue" d="M294.07,-313.48C307.98,-320.41 327.09,-329.91 342.85,-337.75"/>
<polygon fill="midnightblue" stroke="midnightblue" points="341.63,-341.05 352.14,-342.37 344.75,-334.78 341.63,-341.05"/>
</g>
<!-- Node5 -->
<g id="node5" class="node">
<title>Node5</title>
<g id="a_node5"><a xlink:href="fr_8cuh.html#a8abf9d8ad4b633144fcc0c6956d14056" target="_top" xlink:title="Copy from x into z.">
<polygon fill="white" stroke="black" points="349,-304.5 349,-323.5 396,-323.5 396,-304.5 349,-304.5"/>
<text text-anchor="middle" x="372.5" y="-311.5" font-family="Helvetica,sans-Serif" font-size="10.00">fr_cpy</text>
</a>
</g>
</g>
<!-- Node3&#45;&gt;Node5 -->
<g id="edge4" class="edge">
<title>Node3&#45;&gt;Node5</title>
<path fill="none" stroke="midnightblue" d="M294.07,-305.98C306.71,-307.29 323.63,-309.04 338.43,-310.57"/>
<polygon fill="midnightblue" stroke="midnightblue" points="338.43,-314.09 348.74,-311.64 339.15,-307.13 338.43,-314.09"/>
</g>
<!-- Node6 -->
<g id="node6" class="node">
<title>Node6</title>
<g id="a_node6"><a xlink:href="fr_8cuh.html#abaa90fa0475f5ddc32a4aee93de4e33b" target="_top" xlink:title="Multiply two residues module r z and x, stores back into z.">
<polygon fill="white" stroke="black" points="348.5,-266.5 348.5,-285.5 396.5,-285.5 396.5,-266.5 348.5,-266.5"/>
<text text-anchor="middle" x="372.5" y="-273.5" font-family="Helvetica,sans-Serif" font-size="10.00">fr_mul</text>
</a>
</g>
</g>
<!-- Node3&#45;&gt;Node6 -->
<g id="edge5" class="edge">
<title>Node3&#45;&gt;Node6</title>
<path fill="none" stroke="midnightblue" d="M294.07,-298.47C306.74,-294.79 323.72,-289.86 338.55,-285.56"/>
<polygon fill="midnightblue" stroke="midnightblue" points="339.76,-288.85 348.39,-282.71 337.81,-282.13 339.76,-288.85"/>
</g>
<!-- Node8 -->
<g id="node8" class="node">
<title>Node8</title>
<g id="a_node8"><a xlink:href="g1p__fft_8cu.html#a7381959ac0f320fc9e64af9dfef6250b" target="_top" xlink:title="FFT of size 512 over G1 with projective coordinates. Input and output arrays may overlap....">
<polygon fill="white" stroke="black" points="249,-190.5 249,-209.5 299,-209.5 299,-190.5 249,-190.5"/>
<text text-anchor="middle" x="274" y="-197.5" font-family="Helvetica,sans-Serif" font-size="10.00">g1p_fft</text>
</a>
</g>
</g>
<!-- Node7&#45;&gt;Node8 -->
<g id="edge7" class="edge">
<title>Node7&#45;&gt;Node8</title>
<path fill="none" stroke="midnightblue" d="M213.21,-200C221.76,-200 230.54,-200 238.65,-200"/>
<polygon fill="midnightblue" stroke="midnightblue" points="238.84,-203.5 248.84,-200 238.84,-196.5 238.84,-203.5"/>
</g>
<!-- Node9 -->
<g id="node9" class="node">
<title>Node9</title>
<g id="a_node9"><a xlink:href="g1_8cuh.html#a0f32bdb263c5864d6fd46a567e9e1f96" target="_top" xlink:title="Stores the sum and difference of p and q into p and q. Projective p and q, p,q ← p+q,...">
<polygon fill="white" stroke="black" points="335,-228.5 335,-247.5 410,-247.5 410,-228.5 335,-228.5"/>
<text text-anchor="middle" x="372.5" y="-235.5" font-family="Helvetica,sans-Serif" font-size="10.00">g1p_addsub</text>
</a>
</g>
</g>
<!-- Node8&#45;&gt;Node9 -->
<g id="edge8" class="edge">
<title>Node8&#45;&gt;Node9</title>
<path fill="none" stroke="midnightblue" d="M299.35,-209.59C311.01,-214.18 325.16,-219.75 337.82,-224.74"/>
<polygon fill="midnightblue" stroke="midnightblue" points="336.57,-228.01 347.16,-228.41 339.13,-221.49 336.57,-228.01"/>
</g>
<!-- Node10 -->
<g id="node10" class="node">
<title>Node10</title>
<g id="a_node10"><a xlink:href="g1_8cuh.html#a9d6fd1daf56b90adb23fc5ac3705d6fb" target="_top" xlink:title="Copy from q into p.">
<polygon fill="white" stroke="black" points="344,-190.5 344,-209.5 401,-209.5 401,-190.5 344,-190.5"/>
<text text-anchor="middle" x="372.5" y="-197.5" font-family="Helvetica,sans-Serif" font-size="10.00">g1p_cpy</text>
</a>
</g>
</g>
<!-- Node8&#45;&gt;Node10 -->
<g id="edge9" class="edge">
<title>Node8&#45;&gt;Node10</title>
<path fill="none" stroke="midnightblue" d="M299.35,-200C309.7,-200 322,-200 333.5,-200"/>
<polygon fill="midnightblue" stroke="midnightblue" points="333.74,-203.5 343.74,-200 333.74,-196.5 333.74,-203.5"/>
</g>
<!-- Node11 -->
<g id="node11" class="node">
<title>Node11</title>
<g id="a_node11"><a xlink:href="g1_8cuh.html#a98781687d03d5e738745dcb61e0fc1f8" target="_top" xlink:title="p ← k·p Point multiplication by scalar, in projective coordinates. That result is stored back into p.">
<polygon fill="white" stroke="black" points="343,-152.5 343,-171.5 402,-171.5 402,-152.5 343,-152.5"/>
<text text-anchor="middle" x="372.5" y="-159.5" font-family="Helvetica,sans-Serif" font-size="10.00">g1p_mul</text>
</a>
</g>
</g>
<!-- Node8&#45;&gt;Node11 -->
<g id="edge10" class="edge">
<title>Node8&#45;&gt;Node11</title>
<path fill="none" stroke="midnightblue" d="M299.35,-190.41C311.01,-185.82 325.16,-180.25 337.82,-175.26"/>
<polygon fill="midnightblue" stroke="midnightblue" points="339.13,-178.51 347.16,-171.59 336.57,-171.99 339.13,-178.51"/>
</g>
<!-- Node12 -->
<g id="node12" class="node">
<title>Node12</title>
<g id="a_node12"><a xlink:href="fp_8cu.html#a38ff11c3699e6c472a5b310a4d0962ea" target="_top" xlink:title="Sets z to zero.">
<polygon fill="white" stroke="black" points="456,-171.5 456,-190.5 509,-190.5 509,-171.5 456,-171.5"/>
<text text-anchor="middle" x="482.5" y="-178.5" font-family="Helvetica,sans-Serif" font-size="10.00">fp_zero</text>
</a>
</g>
</g>
<!-- Node11&#45;&gt;Node12 -->
<g id="edge11" class="edge">
<title>Node11&#45;&gt;Node12</title>
<path fill="none" stroke="midnightblue" d="M402.16,-167.04C415.53,-169.39 431.59,-172.22 445.75,-174.71"/>
<polygon fill="midnightblue" stroke="midnightblue" points="445.21,-178.17 455.66,-176.45 446.42,-171.28 445.21,-178.17"/>
</g>
<!-- Node13 -->
<g id="node13" class="node">
<title>Node13</title>
<g id="a_node13"><a xlink:href="g1_8cuh.html#ac5e28dd7ae9a2d9f751792ffa5688346" target="_top" xlink:title="Check if the value stored in p is a valid point on the G1 curve.">
<polygon fill="white" stroke="black" points="446,-133.5 446,-152.5 519,-152.5 519,-133.5 446,-133.5"/>
<text text-anchor="middle" x="482.5" y="-140.5" font-family="Helvetica,sans-Serif" font-size="10.00">g1p_isPoint</text>
</a>
</g>
</g>
<!-- Node11&#45;&gt;Node13 -->
<g id="edge12" class="edge">
<title>Node11&#45;&gt;Node13</title>
<path fill="none" stroke="midnightblue" d="M402.16,-156.96C412.5,-155.14 424.45,-153.04 435.88,-151.03"/>
<polygon fill="midnightblue" stroke="midnightblue" points="436.5,-154.47 445.74,-149.29 435.29,-147.58 436.5,-154.47"/>
</g>
<!-- Node14 -->
<g id="node14" class="node">
<title>Node14</title>
<g id="a_node14"><a xlink:href="fp_8cuh.html#a38d4eadff7890b835dceb28d2adb7358" target="_top" xlink:title="Computes the sum of two residues x and y modulo p and stores it in z. Device only function.">
<polygon fill="white" stroke="black" points="560.5,-266.5 560.5,-285.5 610.5,-285.5 610.5,-266.5 560.5,-266.5"/>
<text text-anchor="middle" x="585.5" y="-273.5" font-family="Helvetica,sans-Serif" font-size="10.00">fp_add</text>
</a>
</g>
</g>
<!-- Node13&#45;&gt;Node14 -->
<g id="edge13" class="edge">
<title>Node13&#45;&gt;Node14</title>
<path fill="none" stroke="midnightblue" d="M506.95,-152.52C511.37,-155.11 515.64,-158.25 519,-162 547.73,-194.1 529.47,-217.3 555,-252 557,-254.71 559.37,-257.3 561.88,-259.7"/>
<polygon fill="midnightblue" stroke="midnightblue" points="559.76,-262.48 569.65,-266.28 564.29,-257.15 559.76,-262.48"/>
</g>
<!-- Node15 -->
<g id="node15" class="node">
<title>Node15</title>
<g id="a_node15"><a xlink:href="fp_8cuh.html#aa84fc3bc6fd35779512d8f14938df96d" target="_top" xlink:title="Copy from x into z.">
<polygon fill="white" stroke="black" points="760,-190.5 760,-209.5 809,-209.5 809,-190.5 760,-190.5"/>
<text text-anchor="middle" x="784.5" y="-197.5" font-family="Helvetica,sans-Serif" font-size="10.00">fp_cpy</text>
</a>
</g>
</g>
<!-- Node13&#45;&gt;Node15 -->
<g id="edge14" class="edge">
<title>Node13&#45;&gt;Node15</title>
<path fill="none" stroke="midnightblue" d="M505.7,-152.6C510.4,-155.24 515.11,-158.38 519,-162 540.93,-182.41 528.76,-204.54 555,-219 617.68,-253.55 705.04,-230.19 751.48,-213.23"/>
<polygon fill="midnightblue" stroke="midnightblue" points="752.9,-216.43 761.02,-209.62 750.43,-209.89 752.9,-216.43"/>
</g>
<!-- Node16 -->
<g id="node16" class="node">
<title>Node16</title>
<g id="a_node16"><a xlink:href="fp_8cuh.html#ade1abe61dfb7cbe9b00d78a38dda4bd3" target="_top" xlink:title="Compares two residues modulo p.">
<polygon fill="white" stroke="black" points="563.5,-114.5 563.5,-133.5 607.5,-133.5 607.5,-114.5 563.5,-114.5"/>
<text text-anchor="middle" x="585.5" y="-121.5" font-family="Helvetica,sans-Serif" font-size="10.00">fp_eq</text>
</a>
</g>
</g>
<!-- Node13&#45;&gt;Node16 -->
<g id="edge15" class="edge">
<title>Node13&#45;&gt;Node16</title>
<path fill="none" stroke="midnightblue" d="M519.11,-136.3C530.3,-134.2 542.56,-131.89 553.41,-129.85"/>
<polygon fill="midnightblue" stroke="midnightblue" points="554.12,-133.28 563.3,-127.99 552.83,-126.4 554.12,-133.28"/>
</g>
<!-- Node17 -->
<g id="node17" class="node">
<title>Node17</title>
<g id="a_node17"><a xlink:href="fp_8cuh.html#a45eab81e60385635ab4732360f94ec91" target="_top" xlink:title="Checks if the residue x modulo p is congruent to zero.">
<polygon fill="white" stroke="black" points="652,-152.5 652,-171.5 713,-171.5 713,-152.5 652,-152.5"/>
<text text-anchor="middle" x="682.5" y="-159.5" font-family="Helvetica,sans-Serif" font-size="10.00">fp_iszero</text>
</a>
</g>
</g>
<!-- Node13&#45;&gt;Node17 -->
<g id="edge20" class="edge">
<title>Node13&#45;&gt;Node17</title>
<path fill="none" stroke="midnightblue" d="M519.36,-146.44C553.84,-149.75 605.87,-154.74 641.64,-158.18"/>
<polygon fill="midnightblue" stroke="midnightblue" points="641.44,-161.67 651.73,-159.14 642.11,-154.7 641.44,-161.67"/>
</g>
<!-- Node20 -->
<g id="node20" class="node">
<title>Node20</title>
<g id="a_node20"><a xlink:href="fp_8cuh.html#a9f82a12248e7c53ac9d166e25e083bba" target="_top" xlink:title="Multiplies two Fp residues x and y, stores in z.">
<polygon fill="white" stroke="black" points="560.5,-76.5 560.5,-95.5 610.5,-95.5 610.5,-76.5 560.5,-76.5"/>
<text text-anchor="middle" x="585.5" y="-83.5" font-family="Helvetica,sans-Serif" font-size="10.00">fp_mul</text>
</a>
</g>
</g>
<!-- Node13&#45;&gt;Node20 -->
<g id="edge21" class="edge">
<title>Node13&#45;&gt;Node20</title>
<path fill="none" stroke="midnightblue" d="M500.63,-133.33C516.54,-124.35 540.46,-110.86 558.68,-100.57"/>
<polygon fill="midnightblue" stroke="midnightblue" points="560.63,-103.49 567.62,-95.53 557.19,-97.39 560.63,-103.49"/>
</g>
<!-- Node21 -->
<g id="node21" class="node">
<title>Node21</title>
<g id="a_node21"><a xlink:href="fp_8cuh.html#a74e253977f8412787ed920e5a07de414" target="_top" xlink:title="Computes the square of the residue x modulo p and stores it in z.">
<polygon fill="white" stroke="black" points="562,-38.5 562,-57.5 609,-57.5 609,-38.5 562,-38.5"/>
<text text-anchor="middle" x="585.5" y="-45.5" font-family="Helvetica,sans-Serif" font-size="10.00">fp_sqr</text>
</a>
</g>
</g>
<!-- Node13&#45;&gt;Node21 -->
<g id="edge22" class="edge">
<title>Node13&#45;&gt;Node21</title>
<path fill="none" stroke="midnightblue" d="M491.21,-133.41C503.65,-118.26 529.38,-88.32 555,-67 556.51,-65.74 558.11,-64.5 559.75,-63.29"/>
<polygon fill="midnightblue" stroke="midnightblue" points="561.81,-66.12 568.08,-57.57 557.85,-60.35 561.81,-66.12"/>
</g>
<!-- Node22 -->
<g id="node22" class="node">
<title>Node22</title>
<g id="a_node22"><a xlink:href="fp_8cuh.html#a6fe5404e5c3813ab6944ed160eea3adb" target="_top" xlink:title="Multiplies x by 4 and stores the result into z.">
<polygon fill="white" stroke="black" points="563.5,-0.5 563.5,-19.5 607.5,-19.5 607.5,-0.5 563.5,-0.5"/>
<text text-anchor="middle" x="585.5" y="-7.5" font-family="Helvetica,sans-Serif" font-size="10.00">fp_x4</text>
</a>
</g>
</g>
<!-- Node13&#45;&gt;Node22 -->
<g id="edge23" class="edge">
<title>Node13&#45;&gt;Node22</title>
<path fill="none" stroke="midnightblue" d="M487.7,-133.48C497.24,-112.61 522.32,-62.07 555,-29 556.07,-27.92 557.21,-26.86 558.4,-25.85"/>
<polygon fill="midnightblue" stroke="midnightblue" points="560.76,-28.45 566.7,-19.68 556.59,-22.84 560.76,-28.45"/>
</g>
<!-- Node23 -->
<g id="node23" class="node">
<title>Node23</title>
<g id="a_node23"><a xlink:href="g1p__ispoint_8cu.html#aefda685f50e444161695d95042c312d5" target="_top" xlink:title="Check if the value stored in p is the the/any point at infinity. This implementation uses (0,...">
<polygon fill="white" stroke="black" points="555,-190.5 555,-209.5 616,-209.5 616,-190.5 555,-190.5"/>
<text text-anchor="middle" x="585.5" y="-197.5" font-family="Helvetica,sans-Serif" font-size="10.00">g1p_isInf</text>
</a>
</g>
</g>
<!-- Node13&#45;&gt;Node23 -->
<g id="edge24" class="edge">
<title>Node13&#45;&gt;Node23</title>
<path fill="none" stroke="midnightblue" d="M501.62,-152.55C507.22,-155.53 513.38,-158.87 519,-162 532.54,-169.55 547.51,-178.21 559.71,-185.35"/>
<polygon fill="midnightblue" stroke="midnightblue" points="558.04,-188.43 568.44,-190.48 561.59,-182.39 558.04,-188.43"/>
</g>
<!-- Node16&#45;&gt;Node17 -->
<g id="edge16" class="edge">
<title>Node16&#45;&gt;Node17</title>
<path fill="none" stroke="midnightblue" d="M607.58,-132.43C619.46,-137.18 634.57,-143.23 648.02,-148.61"/>
<polygon fill="midnightblue" stroke="midnightblue" points="646.88,-151.92 657.46,-152.38 649.48,-145.42 646.88,-151.92"/>
</g>
<!-- Node19 -->
<g id="node19" class="node">
<title>Node19</title>
<g id="a_node19"><a xlink:href="fp_8cuh.html#aff96ec3f32ad9c0419911604d5fefe44" target="_top" xlink:title="Calculates the difference of two residues modulo p and stores it into z.">
<polygon fill="white" stroke="black" points="658,-114.5 658,-133.5 707,-133.5 707,-114.5 658,-114.5"/>
<text text-anchor="middle" x="682.5" y="-121.5" font-family="Helvetica,sans-Serif" font-size="10.00">fp_sub</text>
</a>
</g>
</g>
<!-- Node16&#45;&gt;Node19 -->
<g id="edge19" class="edge">
<title>Node16&#45;&gt;Node19</title>
<path fill="none" stroke="midnightblue" d="M607.58,-124C619.32,-124 634.2,-124 647.53,-124"/>
<polygon fill="midnightblue" stroke="midnightblue" points="647.8,-127.5 657.8,-124 647.8,-120.5 647.8,-127.5"/>
</g>
<!-- Node17&#45;&gt;Node15 -->
<g id="edge17" class="edge">
<title>Node17&#45;&gt;Node15</title>
<path fill="none" stroke="midnightblue" d="M708.73,-171.59C721.4,-176.4 736.9,-182.29 750.49,-187.46"/>
<polygon fill="midnightblue" stroke="midnightblue" points="749.4,-190.79 759.99,-191.07 751.89,-184.24 749.4,-190.79"/>
</g>
<!-- Node18 -->
<g id="node18" class="node">
<title>Node18</title>
<g id="a_node18"><a xlink:href="fp_8cuh.html#a89b41553cb5af629dd8ac33b71d03ee1" target="_top" xlink:title="Narrow reduction of a residue modulo p, reducing to the canonical representation.">
<polygon fill="white" stroke="black" points="749,-152.5 749,-171.5 820,-171.5 820,-152.5 749,-152.5"/>
<text text-anchor="middle" x="784.5" y="-159.5" font-family="Helvetica,sans-Serif" font-size="10.00">fp_reduce6</text>
</a>
</g>
</g>
<!-- Node17&#45;&gt;Node18 -->
<g id="edge18" class="edge">
<title>Node17&#45;&gt;Node18</title>
<path fill="none" stroke="midnightblue" d="M713.23,-162C721.17,-162 729.93,-162 738.5,-162"/>
<polygon fill="midnightblue" stroke="midnightblue" points="738.78,-165.5 748.78,-162 738.78,-158.5 738.78,-165.5"/>
</g>
<!-- Node23&#45;&gt;Node17 -->
<g id="edge28" class="edge">
<title>Node23&#45;&gt;Node17</title>
<path fill="none" stroke="midnightblue" d="M610.47,-190.41C621.84,-185.87 635.6,-180.36 647.98,-175.41"/>
<polygon fill="midnightblue" stroke="midnightblue" points="649.55,-178.55 657.54,-171.59 646.95,-172.05 649.55,-178.55"/>
</g>
<!-- Node24 -->
<g id="node24" class="node">
<title>Node24</title>
<g id="a_node24"><a xlink:href="fp_8cuh.html#acf26ba4d56d7ff54adc93a6e1bcaeab1" target="_top" xlink:title="Checks if the residue x modulo p is congruent to one.">
<polygon fill="white" stroke="black" points="653.5,-190.5 653.5,-209.5 711.5,-209.5 711.5,-190.5 653.5,-190.5"/>
<text text-anchor="middle" x="682.5" y="-197.5" font-family="Helvetica,sans-Serif" font-size="10.00">fp_isone</text>
</a>
</g>
</g>
<!-- Node23&#45;&gt;Node24 -->
<g id="edge25" class="edge">
<title>Node23&#45;&gt;Node24</title>
<path fill="none" stroke="midnightblue" d="M616.04,-200C624.57,-200 634.01,-200 643.01,-200"/>
<polygon fill="midnightblue" stroke="midnightblue" points="643.28,-203.5 653.28,-200 643.28,-196.5 643.28,-203.5"/>
</g>
<!-- Node24&#45;&gt;Node15 -->
<g id="edge26" class="edge">
<title>Node24&#45;&gt;Node15</title>
<path fill="none" stroke="midnightblue" d="M711.62,-200C723.54,-200 737.52,-200 749.96,-200"/>
<polygon fill="midnightblue" stroke="midnightblue" points="749.98,-203.5 759.98,-200 749.98,-196.5 749.98,-203.5"/>
</g>
<!-- Node24&#45;&gt;Node18 -->
<g id="edge27" class="edge">
<title>Node24&#45;&gt;Node18</title>
<path fill="none" stroke="midnightblue" d="M708.73,-190.41C720.81,-185.82 735.47,-180.25 748.6,-175.26"/>
<polygon fill="midnightblue" stroke="midnightblue" points="750.17,-178.41 758.27,-171.59 747.68,-171.87 750.17,-178.41"/>
</g>
<!-- Node26 -->
<g id="node26" class="node">
<title>Node26</title>
<g id="a_node26"><a xlink:href="g1p__fft_8cu.html#a07141ff993bd6fc7da467a63b5c319ca" target="_top" xlink:title="Inverse FFT of size 512 over G1 with projective coordinates. Input and output arrays may overlap....">
<polygon fill="white" stroke="black" points="249,-228.5 249,-247.5 299,-247.5 299,-228.5 249,-228.5"/>
<text text-anchor="middle" x="274" y="-235.5" font-family="Helvetica,sans-Serif" font-size="10.00">g1p_ift</text>
</a>
</g>
</g>
<!-- Node25&#45;&gt;Node26 -->
<g id="edge30" class="edge">
<title>Node25&#45;&gt;Node26</title>
<path fill="none" stroke="midnightblue" d="M213.21,-238C221.76,-238 230.54,-238 238.65,-238"/>
<polygon fill="midnightblue" stroke="midnightblue" points="238.84,-241.5 248.84,-238 238.84,-234.5 238.84,-241.5"/>
</g>
<!-- Node26&#45;&gt;Node9 -->
<g id="edge31" class="edge">
<title>Node26&#45;&gt;Node9</title>
<path fill="none" stroke="midnightblue" d="M299.35,-238C307.06,-238 315.85,-238 324.58,-238"/>
<polygon fill="midnightblue" stroke="midnightblue" points="324.74,-241.5 334.74,-238 324.74,-234.5 324.74,-241.5"/>
</g>
<!-- Node26&#45;&gt;Node10 -->
<g id="edge32" class="edge">
<title>Node26&#45;&gt;Node10</title>
<path fill="none" stroke="midnightblue" d="M299.35,-228.41C311.01,-223.82 325.16,-218.25 337.82,-213.26"/>
<polygon fill="midnightblue" stroke="midnightblue" points="339.13,-216.51 347.16,-209.59 336.57,-209.99 339.13,-216.51"/>
</g>
<!-- Node26&#45;&gt;Node11 -->
<g id="edge33" class="edge">
<title>Node26&#45;&gt;Node11</title>
<path fill="none" stroke="midnightblue" d="M287.98,-228.27C291.64,-225.39 295.55,-222.16 299,-219 316.16,-203.3 316.43,-195.01 335,-181 337.05,-179.46 339.24,-177.97 341.49,-176.56"/>
<polygon fill="midnightblue" stroke="midnightblue" points="343.37,-179.52 350.32,-171.51 339.9,-173.44 343.37,-179.52"/>
</g>
</g>
</svg>
        <g id="navigator" transform="translate(0 0)" fill="#404254">
                <rect fill="#f2f5e9" fill-opacity="0.5" stroke="#606060" stroke-width=".5" x="0" y="0" width="60" height="60"/>
                <use id="zoomplus" xlink:href="#zoomPlus" x="17" y="9" onmousedown="handleZoom(evt,'in')"/>
                <use id="zoomminus" xlink:href="#zoomMin" x="42" y="9" onmousedown="handleZoom(evt,'out')"/>
                <use id="reset" xlink:href="#resetDef" x="30" y="36" onmousedown="handleReset()"/>
                <g id="arrowUp" xlink:href="#dirArrow" transform="translate(30 24)" onmousedown="handlePan(0,-1)">
                  <use xlink:href="#rim" fill="#404040">
                        <set attributeName="fill" to="#808080" begin="arrowUp.mouseover" end="arrowUp.mouseout"/>
                  </use>
                  <path fill="none" stroke="white" stroke-width="1.5" d="M0,-3.0v7 M-2.5,-0.5L0,-3.0L2.5,-0.5"/>
                </g>
                <g id="arrowRight" xlink:href="#dirArrow" transform="rotate(90) translate(36 -43)" onmousedown="handlePan(1,0)">
                  <use xlink:href="#rim" fill="#404040">
                        <set attributeName="fill" to="#808080" begin="arrowRight.mouseover" end="arrowRight.mouseout"/>
                  </use>
                  <path fill="none" stroke="white" stroke-width="1.5" d="M0,-3.0v7 M-2.5,-0.5L0,-3.0L2.5,-0.5"/>
                </g>
                <g id="arrowDown" xlink:href="#dirArrow" transform="rotate(180) translate(-30 -48)" onmousedown="handlePan(0,1)">
                  <use xlink:href="#rim" fill="#404040">
                        <set attributeName="fill" to="#808080" begin="arrowDown.mouseover" end="arrowDown.mouseout"/>
                  </use>
                  <path fill="none" stroke="white" stroke-width="1.5" d="M0,-3.0v7 M-2.5,-0.5L0,-3.0L2.5,-0.5"/>
                </g>
                <g id="arrowLeft" xlink:href="#dirArrow" transform="rotate(270) translate(-36 17)" onmousedown="handlePan(-1,0)">
                  <use xlink:href="#rim" fill="#404040">
                        <set attributeName="fill" to="#808080" begin="arrowLeft.mouseover" end="arrowLeft.mouseout"/>
                  </use>
                  <path fill="none" stroke="white" stroke-width="1.5" d="M0,-3.0v7 M-2.5,-0.5L0,-3.0L2.5,-0.5"/>
                </g>
        </g>
        <svg viewBox="0 0 15 15" width="100%" height="30px" preserveAspectRatio="xMaxYMin meet">
         <g id="arrow_out" transform="scale(0.3 0.3)">
          <a xlink:href="fk20benchmark_8cu_a8cd0ecc09d4a9a4c418184789229b4f6_cgraph_org.svg" target="_base">
           <rect id="button" ry="5" rx="5" y="6" x="6" height="38" width="38"
                fill="#f2f5e9" fill-opacity="0.5" stroke="#606060" stroke-width="1.0"/>
           <path id="arrow"
             d="M 11.500037,31.436501 C 11.940474,20.09759 22.043105,11.32322 32.158766,21.979434 L 37.068811,17.246167 C 37.068811,17.246167 37.088388,32 37.088388,32 L 22.160133,31.978069 C 22.160133,31.978069 26.997745,27.140456 26.997745,27.140456 C 18.528582,18.264221 13.291696,25.230495 11.500037,31.436501 z"
             style="fill:#404040;"/>
          </a>
         </g>
        </svg>
</svg>
