<?xml version="1.0" encoding="UTF-8" standalone="no"?>
<!DOCTYPE svg PUBLIC "-//W3C//DTD SVG 1.1//EN"
 "http://www.w3.org/Graphics/SVG/1.1/DTD/svg11.dtd">
<!-- Generated by graphviz version 2.43.0 (0)
 -->
<!-- Title: fk20_hext_fft2h_fft Pages: 1 -->
<svg width="449pt" height="66pt"
 viewBox="0.00 0.00 449.00 66.00" xmlns="http://www.w3.org/2000/svg" xmlns:xlink="http://www.w3.org/1999/xlink">
<g id="graph0" class="graph" transform="scale(1 1) rotate(0) translate(4 62)">
<title>fk20_hext_fft2h_fft</title>
<polygon fill="white" stroke="transparent" points="-4,4 -4,-62 445,-62 445,4 -4,4"/>
<!-- Node1 -->
<g id="node1" class="node">
<title>Node1</title>
<g id="a_node1"><a xlink:title="hext_fft &#45;&gt; h_fft">
<polygon fill="#bfbfbf" stroke="black" points="332,-19.5 332,-38.5 441,-38.5 441,-19.5 332,-19.5"/>
<text text-anchor="middle" x="386.5" y="-26.5" font-family="Helvetica,sans-Serif" font-size="10.00">fk20_hext_fft2h_fft</text>
</a>
</g>
</g>
<!-- Node2 -->
<g id="node2" class="node">
<title>Node2</title>
<g id="a_node2"><a xlink:href="fk20test_8cuh.html#a6e91d377665333877b570b295e6ee017" target="_top" xlink:title="Test for fk20_hext_fft2h_fft: hext_fft &#45;&gt; h_fft.">
<polygon fill="white" stroke="black" points="202.5,-38.5 202.5,-57.5 284.5,-57.5 284.5,-38.5 202.5,-38.5"/>
<text text-anchor="middle" x="243.5" y="-45.5" font-family="Helvetica,sans-Serif" font-size="10.00">hext_fft2h_fft</text>
</a>
</g>
</g>
<!-- Node1&#45;&gt;Node2 -->
<g id="edge1" class="edge">
<title>Node1&#45;&gt;Node2</title>
<path fill="none" stroke="midnightblue" d="M321.82,-37.58C309.27,-39.27 296.42,-41 284.9,-42.56"/>
<polygon fill="midnightblue" stroke="midnightblue" points="322.35,-41.04 331.79,-36.24 321.41,-34.1 322.35,-41.04"/>
</g>
<!-- Node5 -->
<g id="node5" class="node">
<title>Node5</title>
<g id="a_node5"><a xlink:href="fk20__512test_8cu.html#adb9f3c1247f7f8e9273f99f4a545b57d" target="_top" xlink:title="Test for hext_fft2h_fft_512: hext_fft &#45;&gt; h_fft.">
<polygon fill="white" stroke="black" points="191,-0.5 191,-19.5 296,-19.5 296,-0.5 191,-0.5"/>
<text text-anchor="middle" x="243.5" y="-7.5" font-family="Helvetica,sans-Serif" font-size="10.00">hext_fft2h_fft_512</text>
</a>
</g>
</g>
<!-- Node1&#45;&gt;Node5 -->
<g id="edge4" class="edge">
<title>Node1&#45;&gt;Node5</title>
<path fill="none" stroke="midnightblue" d="M321.82,-20.42C313.24,-19.26 304.53,-18.09 296.2,-16.97"/>
<polygon fill="midnightblue" stroke="midnightblue" points="321.41,-23.9 331.79,-21.76 322.35,-16.96 321.41,-23.9"/>
</g>
<!-- Node3 -->
<g id="node3" class="node">
<title>Node3</title>
<g id="a_node3"><a xlink:href="fk20test_8cuh.html#a320efd4c0fb8e729400941e21ea983aa" target="_top" xlink:title=" ">
<polygon fill="white" stroke="black" points="77,-38.5 77,-57.5 155,-57.5 155,-38.5 77,-38.5"/>
<text text-anchor="middle" x="116" y="-45.5" font-family="Helvetica,sans-Serif" font-size="10.00">FK20TestFFT</text>
</a>
</g>
</g>
<!-- Node2&#45;&gt;Node3 -->
<g id="edge2" class="edge">
<title>Node2&#45;&gt;Node3</title>
<path fill="none" stroke="midnightblue" d="M192.31,-48C180.01,-48 167.04,-48 155.39,-48"/>
<polygon fill="midnightblue" stroke="midnightblue" points="192.45,-51.5 202.45,-48 192.45,-44.5 192.45,-51.5"/>
</g>
<!-- Node4 -->
<g id="node4" class="node">
<title>Node4</title>
<g id="a_node4"><a xlink:href="fk20test_8cu.html#ae66f6b31b5ad750f1fe042a706a4e3d4" target="_top" xlink:title=" ">
<polygon fill="white" stroke="black" points="0,-38.5 0,-57.5 41,-57.5 41,-38.5 0,-38.5"/>
<text text-anchor="middle" x="20.5" y="-45.5" font-family="Helvetica,sans-Serif" font-size="10.00">main</text>
</a>
</g>
</g>
<!-- Node3&#45;&gt;Node4 -->
<g id="edge3" class="edge">
<title>Node3&#45;&gt;Node4</title>
<path fill="none" stroke="midnightblue" d="M66.74,-48C57.63,-48 48.61,-48 41.04,-48"/>
<polygon fill="midnightblue" stroke="midnightblue" points="66.97,-51.5 76.97,-48 66.97,-44.5 66.97,-51.5"/>
</g>
</g>
</svg>
