<?xml version="1.0" encoding="UTF-8" standalone="no"?>
<!DOCTYPE svg PUBLIC "-//W3C//DTD SVG 1.1//EN"
 "http://www.w3.org/Graphics/SVG/1.1/DTD/svg11.dtd">
<!-- Generated by graphviz version 2.43.0 (0)
 -->
<!-- Title: fk20_h2h_fft Pages: 1 -->
<!--zoomable 294 -->
<svg id="main" version="1.1" xmlns="http://www.w3.org/2000/svg" xmlns:xlink="http://www.w3.org/1999/xlink" xml:space="preserve" onload="init(evt)">
<style type="text/css"><![CDATA[
.edge:hover path { stroke: red; }
.edge:hover polygon { stroke: red; fill: red; }
]]></style>
<script type="text/javascript"><![CDATA[
var edges = document.getElementsByTagName('g');
if (edges && edges.length) {
  for (var i=0;i<edges.length;i++) {
    if (edges[i].id.substr(0,4)=='edge') {
      edges[i].setAttribute('class','edge');
    }
  }
}
]]></script>
        <defs>
                <circle id="rim" cx="0" cy="0" r="7"/>
                <circle id="rim2" cx="0" cy="0" r="3.5"/>
                <g id="zoomPlus">
                        <use xlink:href="#rim" fill="#404040">
                                <set attributeName="fill" to="#808080" begin="zoomplus.mouseover" end="zoomplus.mouseout"/>
                        </use>
                        <path d="M-4,0h8M0,-4v8" fill="none" stroke="white" stroke-width="1.5" pointer-events="none"/>
                </g>
                <g id="zoomMin">
                        <use xlink:href="#rim" fill="#404040">
                                <set attributeName="fill" to="#808080" begin="zoomminus.mouseover" end="zoomminus.mouseout"/>
                        </use>
                        <path d="M-4,0h8" fill="none" stroke="white" stroke-width="1.5" pointer-events="none"/>
                </g>
                <g id="dirArrow">
                        <path fill="none" stroke="white" stroke-width="1.5" d="M0,-3.0v7 M-2.5,-0.5L0,-3.0L2.5,-0.5"/>
                </g>
               <g id="resetDef">
                       <use xlink:href="#rim2" fill="#404040">
                               <set attributeName="fill" to="#808080" begin="reset.mouseover" end="reset.mouseout"/>
                       </use>
               </g>
        </defs>

<script type="text/javascript">
var viewWidth = 692;
var viewHeight = 294;
var sectionId = 'dynsection-1';
</script>
<script xlink:href="svgpan.js"/>
<svg id="graph" class="graph">
<g id="viewport">
<title>fk20_h2h_fft</title>
<polygon fill="white" stroke="transparent" points="-4,4 -4,-290 688,-290 688,4 -4,4"/>
<!-- Node1 -->
<g id="node1" class="node">
<title>Node1</title>
<g id="a_node1"><a xlink:title="h &#45;&gt; h_fft">
<polygon fill="#bfbfbf" stroke="black" points="0,-190.5 0,-209.5 77,-209.5 77,-190.5 0,-190.5"/>
<text text-anchor="middle" x="38.5" y="-197.5" font-family="Helvetica,sans-Serif" font-size="10.00">fk20_h2h_fft</text>
</a>
</g>
</g>
<!-- Node2 -->
<g id="node2" class="node">
<title>Node2</title>
<g id="a_node2"><a xlink:href="g1_8cuh.html#a7381959ac0f320fc9e64af9dfef6250b" target="_top" xlink:title="FFT of size 512 over G1 with projective coordinates. Input and output arrays may overlap....">
<polygon fill="white" stroke="black" points="113,-190.5 113,-209.5 163,-209.5 163,-190.5 113,-190.5"/>
<text text-anchor="middle" x="138" y="-197.5" font-family="Helvetica,sans-Serif" font-size="10.00">g1p_fft</text>
</a>
</g>
</g>
<!-- Node1&#45;&gt;Node2 -->
<g id="edge1" class="edge">
<title>Node1&#45;&gt;Node2</title>
<path fill="none" stroke="midnightblue" d="M77.2,-200C85.64,-200 94.54,-200 102.83,-200"/>
<polygon fill="midnightblue" stroke="midnightblue" points="102.91,-203.5 112.91,-200 102.91,-196.5 102.91,-203.5"/>
</g>
<!-- Node3 -->
<g id="node3" class="node">
<title>Node3</title>
<g id="a_node3"><a xlink:href="g1_8cuh.html#a0f32bdb263c5864d6fd46a567e9e1f96" target="_top" xlink:title="Stores the sum and difference of p and q into p and q. Projective p and q, p,q ← p+q,...">
<polygon fill="white" stroke="black" points="199,-228.5 199,-247.5 274,-247.5 274,-228.5 199,-228.5"/>
<text text-anchor="middle" x="236.5" y="-235.5" font-family="Helvetica,sans-Serif" font-size="10.00">g1p_addsub</text>
</a>
</g>
</g>
<!-- Node2&#45;&gt;Node3 -->
<g id="edge2" class="edge">
<title>Node2&#45;&gt;Node3</title>
<path fill="none" stroke="midnightblue" d="M163.35,-209.59C175.01,-214.18 189.16,-219.75 201.82,-224.74"/>
<polygon fill="midnightblue" stroke="midnightblue" points="200.57,-228.01 211.16,-228.41 203.13,-221.49 200.57,-228.01"/>
</g>
<!-- Node4 -->
<g id="node4" class="node">
<title>Node4</title>
<g id="a_node4"><a xlink:href="g1_8cuh.html#a9d6fd1daf56b90adb23fc5ac3705d6fb" target="_top" xlink:title="Copy from q into p.">
<polygon fill="white" stroke="black" points="208,-190.5 208,-209.5 265,-209.5 265,-190.5 208,-190.5"/>
<text text-anchor="middle" x="236.5" y="-197.5" font-family="Helvetica,sans-Serif" font-size="10.00">g1p_cpy</text>
</a>
</g>
</g>
<!-- Node2&#45;&gt;Node4 -->
<g id="edge3" class="edge">
<title>Node2&#45;&gt;Node4</title>
<path fill="none" stroke="midnightblue" d="M163.35,-200C173.7,-200 186,-200 197.5,-200"/>
<polygon fill="midnightblue" stroke="midnightblue" points="197.74,-203.5 207.74,-200 197.74,-196.5 197.74,-203.5"/>
</g>
<!-- Node5 -->
<g id="node5" class="node">
<title>Node5</title>
<g id="a_node5"><a xlink:href="g1_8cuh.html#a98781687d03d5e738745dcb61e0fc1f8" target="_top" xlink:title="p ← k·p Point multiplication by scalar, in projective coordinates. That result is stored back into p.">
<polygon fill="white" stroke="black" points="207,-152.5 207,-171.5 266,-171.5 266,-152.5 207,-152.5"/>
<text text-anchor="middle" x="236.5" y="-159.5" font-family="Helvetica,sans-Serif" font-size="10.00">g1p_mul</text>
</a>
</g>
</g>
<!-- Node2&#45;&gt;Node5 -->
<g id="edge4" class="edge">
<title>Node2&#45;&gt;Node5</title>
<path fill="none" stroke="midnightblue" d="M163.35,-190.41C175.01,-185.82 189.16,-180.25 201.82,-175.26"/>
<polygon fill="midnightblue" stroke="midnightblue" points="203.13,-178.51 211.16,-171.59 200.57,-171.99 203.13,-178.51"/>
</g>
<!-- Node6 -->
<g id="node6" class="node">
<title>Node6</title>
<g id="a_node6"><a xlink:href="fp_8cu.html#a38ff11c3699e6c472a5b310a4d0962ea" target="_top" xlink:title="Sets z to zero.">
<polygon fill="white" stroke="black" points="320,-171.5 320,-190.5 373,-190.5 373,-171.5 320,-171.5"/>
<text text-anchor="middle" x="346.5" y="-178.5" font-family="Helvetica,sans-Serif" font-size="10.00">fp_zero</text>
</a>
</g>
</g>
<!-- Node5&#45;&gt;Node6 -->
<g id="edge5" class="edge">
<title>Node5&#45;&gt;Node6</title>
<path fill="none" stroke="midnightblue" d="M266.16,-167.04C279.53,-169.39 295.59,-172.22 309.75,-174.71"/>
<polygon fill="midnightblue" stroke="midnightblue" points="309.21,-178.17 319.66,-176.45 310.42,-171.28 309.21,-178.17"/>
</g>
<!-- Node7 -->
<g id="node7" class="node">
<title>Node7</title>
<g id="a_node7"><a xlink:href="g1_8cuh.html#ac5e28dd7ae9a2d9f751792ffa5688346" target="_top" xlink:title="Check if the value stored in p is a valid point on the G1 curve.">
<polygon fill="white" stroke="black" points="310,-133.5 310,-152.5 383,-152.5 383,-133.5 310,-133.5"/>
<text text-anchor="middle" x="346.5" y="-140.5" font-family="Helvetica,sans-Serif" font-size="10.00">g1p_isPoint</text>
</a>
</g>
</g>
<!-- Node5&#45;&gt;Node7 -->
<g id="edge6" class="edge">
<title>Node5&#45;&gt;Node7</title>
<path fill="none" stroke="midnightblue" d="M266.16,-156.96C276.5,-155.14 288.45,-153.04 299.88,-151.03"/>
<polygon fill="midnightblue" stroke="midnightblue" points="300.5,-154.47 309.74,-149.29 299.29,-147.58 300.5,-154.47"/>
</g>
<!-- Node8 -->
<g id="node8" class="node">
<title>Node8</title>
<g id="a_node8"><a xlink:href="fp_8cuh.html#a38d4eadff7890b835dceb28d2adb7358" target="_top" xlink:title="Computes the sum of two residues x and y modulo p and stores it in z. Device only function.">
<polygon fill="white" stroke="black" points="424.5,-266.5 424.5,-285.5 474.5,-285.5 474.5,-266.5 424.5,-266.5"/>
<text text-anchor="middle" x="449.5" y="-273.5" font-family="Helvetica,sans-Serif" font-size="10.00">fp_add</text>
</a>
</g>
</g>
<!-- Node7&#45;&gt;Node8 -->
<g id="edge7" class="edge">
<title>Node7&#45;&gt;Node8</title>
<path fill="none" stroke="midnightblue" d="M370.95,-152.52C375.37,-155.11 379.64,-158.25 383,-162 411.73,-194.1 393.47,-217.3 419,-252 421,-254.71 423.37,-257.3 425.88,-259.7"/>
<polygon fill="midnightblue" stroke="midnightblue" points="423.76,-262.48 433.65,-266.28 428.29,-257.15 423.76,-262.48"/>
</g>
<!-- Node9 -->
<g id="node9" class="node">
<title>Node9</title>
<g id="a_node9"><a xlink:href="fp_8cuh.html#aa84fc3bc6fd35779512d8f14938df96d" target="_top" xlink:title="Copy from x into z.">
<polygon fill="white" stroke="black" points="624,-190.5 624,-209.5 673,-209.5 673,-190.5 624,-190.5"/>
<text text-anchor="middle" x="648.5" y="-197.5" font-family="Helvetica,sans-Serif" font-size="10.00">fp_cpy</text>
</a>
</g>
</g>
<!-- Node7&#45;&gt;Node9 -->
<g id="edge8" class="edge">
<title>Node7&#45;&gt;Node9</title>
<path fill="none" stroke="midnightblue" d="M369.7,-152.6C374.4,-155.24 379.11,-158.38 383,-162 404.93,-182.41 392.76,-204.54 419,-219 481.68,-253.55 569.04,-230.19 615.48,-213.23"/>
<polygon fill="midnightblue" stroke="midnightblue" points="616.9,-216.43 625.02,-209.62 614.43,-209.89 616.9,-216.43"/>
</g>
<!-- Node10 -->
<g id="node10" class="node">
<title>Node10</title>
<g id="a_node10"><a xlink:href="fp_8cuh.html#ade1abe61dfb7cbe9b00d78a38dda4bd3" target="_top" xlink:title="Compares two residues modulo p.">
<polygon fill="white" stroke="black" points="427.5,-114.5 427.5,-133.5 471.5,-133.5 471.5,-114.5 427.5,-114.5"/>
<text text-anchor="middle" x="449.5" y="-121.5" font-family="Helvetica,sans-Serif" font-size="10.00">fp_eq</text>
</a>
</g>
</g>
<!-- Node7&#45;&gt;Node10 -->
<g id="edge9" class="edge">
<title>Node7&#45;&gt;Node10</title>
<path fill="none" stroke="midnightblue" d="M383.11,-136.3C394.3,-134.2 406.56,-131.89 417.41,-129.85"/>
<polygon fill="midnightblue" stroke="midnightblue" points="418.12,-133.28 427.3,-127.99 416.83,-126.4 418.12,-133.28"/>
</g>
<!-- Node11 -->
<g id="node11" class="node">
<title>Node11</title>
<g id="a_node11"><a xlink:href="fp_8cuh.html#a45eab81e60385635ab4732360f94ec91" target="_top" xlink:title="Checks if the residue x modulo p is congruent to zero.">
<polygon fill="white" stroke="black" points="516,-152.5 516,-171.5 577,-171.5 577,-152.5 516,-152.5"/>
<text text-anchor="middle" x="546.5" y="-159.5" font-family="Helvetica,sans-Serif" font-size="10.00">fp_iszero</text>
</a>
</g>
</g>
<!-- Node7&#45;&gt;Node11 -->
<g id="edge14" class="edge">
<title>Node7&#45;&gt;Node11</title>
<path fill="none" stroke="midnightblue" d="M383.36,-146.44C417.84,-149.75 469.87,-154.74 505.64,-158.18"/>
<polygon fill="midnightblue" stroke="midnightblue" points="505.44,-161.67 515.73,-159.14 506.11,-154.7 505.44,-161.67"/>
</g>
<!-- Node14 -->
<g id="node14" class="node">
<title>Node14</title>
<g id="a_node14"><a xlink:href="fp_8cuh.html#a9f82a12248e7c53ac9d166e25e083bba" target="_top" xlink:title="Multiplies two Fp residues x and y, stores in z.">
<polygon fill="white" stroke="black" points="424.5,-76.5 424.5,-95.5 474.5,-95.5 474.5,-76.5 424.5,-76.5"/>
<text text-anchor="middle" x="449.5" y="-83.5" font-family="Helvetica,sans-Serif" font-size="10.00">fp_mul</text>
</a>
</g>
</g>
<!-- Node7&#45;&gt;Node14 -->
<g id="edge15" class="edge">
<title>Node7&#45;&gt;Node14</title>
<path fill="none" stroke="midnightblue" d="M364.63,-133.33C380.54,-124.35 404.46,-110.86 422.68,-100.57"/>
<polygon fill="midnightblue" stroke="midnightblue" points="424.63,-103.49 431.62,-95.53 421.19,-97.39 424.63,-103.49"/>
</g>
<!-- Node15 -->
<g id="node15" class="node">
<title>Node15</title>
<g id="a_node15"><a xlink:href="fp_8cuh.html#a74e253977f8412787ed920e5a07de414" target="_top" xlink:title="Computes the square of the residue x modulo p and stores it in z.">
<polygon fill="white" stroke="black" points="426,-38.5 426,-57.5 473,-57.5 473,-38.5 426,-38.5"/>
<text text-anchor="middle" x="449.5" y="-45.5" font-family="Helvetica,sans-Serif" font-size="10.00">fp_sqr</text>
</a>
</g>
</g>
<!-- Node7&#45;&gt;Node15 -->
<g id="edge16" class="edge">
<title>Node7&#45;&gt;Node15</title>
<path fill="none" stroke="midnightblue" d="M355.21,-133.41C367.65,-118.26 393.38,-88.32 419,-67 420.51,-65.74 422.11,-64.5 423.75,-63.29"/>
<polygon fill="midnightblue" stroke="midnightblue" points="425.81,-66.12 432.08,-57.57 421.85,-60.35 425.81,-66.12"/>
</g>
<!-- Node16 -->
<g id="node16" class="node">
<title>Node16</title>
<g id="a_node16"><a xlink:href="fp_8cuh.html#a6fe5404e5c3813ab6944ed160eea3adb" target="_top" xlink:title="Multiplies x by 4 and stores the result into z.">
<polygon fill="white" stroke="black" points="427.5,-0.5 427.5,-19.5 471.5,-19.5 471.5,-0.5 427.5,-0.5"/>
<text text-anchor="middle" x="449.5" y="-7.5" font-family="Helvetica,sans-Serif" font-size="10.00">fp_x4</text>
</a>
</g>
</g>
<!-- Node7&#45;&gt;Node16 -->
<g id="edge17" class="edge">
<title>Node7&#45;&gt;Node16</title>
<path fill="none" stroke="midnightblue" d="M351.7,-133.48C361.24,-112.61 386.32,-62.07 419,-29 420.07,-27.92 421.21,-26.86 422.4,-25.85"/>
<polygon fill="midnightblue" stroke="midnightblue" points="424.76,-28.45 430.7,-19.68 420.59,-22.84 424.76,-28.45"/>
</g>
<!-- Node17 -->
<g id="node17" class="node">
<title>Node17</title>
<g id="a_node17"><a xlink:href="g1p__ispoint_8cu.html#aefda685f50e444161695d95042c312d5" target="_top" xlink:title="Check if the value stored in p is the the/any point at infinity. This implementation uses (0,...">
<polygon fill="white" stroke="black" points="419,-190.5 419,-209.5 480,-209.5 480,-190.5 419,-190.5"/>
<text text-anchor="middle" x="449.5" y="-197.5" font-family="Helvetica,sans-Serif" font-size="10.00">g1p_isInf</text>
</a>
</g>
</g>
<!-- Node7&#45;&gt;Node17 -->
<g id="edge18" class="edge">
<title>Node7&#45;&gt;Node17</title>
<path fill="none" stroke="midnightblue" d="M365.62,-152.55C371.22,-155.53 377.38,-158.87 383,-162 396.54,-169.55 411.51,-178.21 423.71,-185.35"/>
<polygon fill="midnightblue" stroke="midnightblue" points="422.04,-188.43 432.44,-190.48 425.59,-182.39 422.04,-188.43"/>
</g>
<!-- Node10&#45;&gt;Node11 -->
<g id="edge10" class="edge">
<title>Node10&#45;&gt;Node11</title>
<path fill="none" stroke="midnightblue" d="M471.58,-132.43C483.46,-137.18 498.57,-143.23 512.02,-148.61"/>
<polygon fill="midnightblue" stroke="midnightblue" points="510.88,-151.92 521.46,-152.38 513.48,-145.42 510.88,-151.92"/>
</g>
<!-- Node13 -->
<g id="node13" class="node">
<title>Node13</title>
<g id="a_node13"><a xlink:href="fp_8cuh.html#aff96ec3f32ad9c0419911604d5fefe44" target="_top" xlink:title="Calculates the difference of two residues modulo p and stores it into z.">
<polygon fill="white" stroke="black" points="522,-114.5 522,-133.5 571,-133.5 571,-114.5 522,-114.5"/>
<text text-anchor="middle" x="546.5" y="-121.5" font-family="Helvetica,sans-Serif" font-size="10.00">fp_sub</text>
</a>
</g>
</g>
<!-- Node10&#45;&gt;Node13 -->
<g id="edge13" class="edge">
<title>Node10&#45;&gt;Node13</title>
<path fill="none" stroke="midnightblue" d="M471.58,-124C483.32,-124 498.2,-124 511.53,-124"/>
<polygon fill="midnightblue" stroke="midnightblue" points="511.8,-127.5 521.8,-124 511.8,-120.5 511.8,-127.5"/>
</g>
<!-- Node11&#45;&gt;Node9 -->
<g id="edge11" class="edge">
<title>Node11&#45;&gt;Node9</title>
<path fill="none" stroke="midnightblue" d="M572.73,-171.59C585.4,-176.4 600.9,-182.29 614.49,-187.46"/>
<polygon fill="midnightblue" stroke="midnightblue" points="613.4,-190.79 623.99,-191.07 615.89,-184.24 613.4,-190.79"/>
</g>
<!-- Node12 -->
<g id="node12" class="node">
<title>Node12</title>
<g id="a_node12"><a xlink:href="fp_8cuh.html#a89b41553cb5af629dd8ac33b71d03ee1" target="_top" xlink:title="Narrow reduction of a residue modulo p, reducing to the canonical representation.">
<polygon fill="white" stroke="black" points="613,-152.5 613,-171.5 684,-171.5 684,-152.5 613,-152.5"/>
<text text-anchor="middle" x="648.5" y="-159.5" font-family="Helvetica,sans-Serif" font-size="10.00">fp_reduce6</text>
</a>
</g>
</g>
<!-- Node11&#45;&gt;Node12 -->
<g id="edge12" class="edge">
<title>Node11&#45;&gt;Node12</title>
<path fill="none" stroke="midnightblue" d="M577.23,-162C585.17,-162 593.93,-162 602.5,-162"/>
<polygon fill="midnightblue" stroke="midnightblue" points="602.78,-165.5 612.78,-162 602.78,-158.5 602.78,-165.5"/>
</g>
<!-- Node17&#45;&gt;Node11 -->
<g id="edge22" class="edge">
<title>Node17&#45;&gt;Node11</title>
<path fill="none" stroke="midnightblue" d="M474.47,-190.41C485.84,-185.87 499.6,-180.36 511.98,-175.41"/>
<polygon fill="midnightblue" stroke="midnightblue" points="513.55,-178.55 521.54,-171.59 510.95,-172.05 513.55,-178.55"/>
</g>
<!-- Node18 -->
<g id="node18" class="node">
<title>Node18</title>
<g id="a_node18"><a xlink:href="fp_8cuh.html#acf26ba4d56d7ff54adc93a6e1bcaeab1" target="_top" xlink:title="Checks if the residue x modulo p is congruent to one.">
<polygon fill="white" stroke="black" points="517.5,-190.5 517.5,-209.5 575.5,-209.5 575.5,-190.5 517.5,-190.5"/>
<text text-anchor="middle" x="546.5" y="-197.5" font-family="Helvetica,sans-Serif" font-size="10.00">fp_isone</text>
</a>
</g>
</g>
<!-- Node17&#45;&gt;Node18 -->
<g id="edge19" class="edge">
<title>Node17&#45;&gt;Node18</title>
<path fill="none" stroke="midnightblue" d="M480.04,-200C488.57,-200 498.01,-200 507.01,-200"/>
<polygon fill="midnightblue" stroke="midnightblue" points="507.28,-203.5 517.28,-200 507.28,-196.5 507.28,-203.5"/>
</g>
<!-- Node18&#45;&gt;Node9 -->
<g id="edge20" class="edge">
<title>Node18&#45;&gt;Node9</title>
<path fill="none" stroke="midnightblue" d="M575.62,-200C587.54,-200 601.52,-200 613.96,-200"/>
<polygon fill="midnightblue" stroke="midnightblue" points="613.98,-203.5 623.98,-200 613.98,-196.5 613.98,-203.5"/>
</g>
<!-- Node18&#45;&gt;Node12 -->
<g id="edge21" class="edge">
<title>Node18&#45;&gt;Node12</title>
<path fill="none" stroke="midnightblue" d="M572.73,-190.41C584.81,-185.82 599.47,-180.25 612.6,-175.26"/>
<polygon fill="midnightblue" stroke="midnightblue" points="614.17,-178.41 622.27,-171.59 611.68,-171.87 614.17,-178.41"/>
</g>
</g>
</svg>
        <g id="navigator" transform="translate(0 0)" fill="#404254">
                <rect fill="#f2f5e9" fill-opacity="0.5" stroke="#606060" stroke-width=".5" x="0" y="0" width="60" height="60"/>
                <use id="zoomplus" xlink:href="#zoomPlus" x="17" y="9" onmousedown="handleZoom(evt,'in')"/>
                <use id="zoomminus" xlink:href="#zoomMin" x="42" y="9" onmousedown="handleZoom(evt,'out')"/>
                <use id="reset" xlink:href="#resetDef" x="30" y="36" onmousedown="handleReset()"/>
                <g id="arrowUp" xlink:href="#dirArrow" transform="translate(30 24)" onmousedown="handlePan(0,-1)">
                  <use xlink:href="#rim" fill="#404040">
                        <set attributeName="fill" to="#808080" begin="arrowUp.mouseover" end="arrowUp.mouseout"/>
                  </use>
                  <path fill="none" stroke="white" stroke-width="1.5" d="M0,-3.0v7 M-2.5,-0.5L0,-3.0L2.5,-0.5"/>
                </g>
                <g id="arrowRight" xlink:href="#dirArrow" transform="rotate(90) translate(36 -43)" onmousedown="handlePan(1,0)">
                  <use xlink:href="#rim" fill="#404040">
                        <set attributeName="fill" to="#808080" begin="arrowRight.mouseover" end="arrowRight.mouseout"/>
                  </use>
                  <path fill="none" stroke="white" stroke-width="1.5" d="M0,-3.0v7 M-2.5,-0.5L0,-3.0L2.5,-0.5"/>
                </g>
                <g id="arrowDown" xlink:href="#dirArrow" transform="rotate(180) translate(-30 -48)" onmousedown="handlePan(0,1)">
                  <use xlink:href="#rim" fill="#404040">
                        <set attributeName="fill" to="#808080" begin="arrowDown.mouseover" end="arrowDown.mouseout"/>
                  </use>
                  <path fill="none" stroke="white" stroke-width="1.5" d="M0,-3.0v7 M-2.5,-0.5L0,-3.0L2.5,-0.5"/>
                </g>
                <g id="arrowLeft" xlink:href="#dirArrow" transform="rotate(270) translate(-36 17)" onmousedown="handlePan(-1,0)">
                  <use xlink:href="#rim" fill="#404040">
                        <set attributeName="fill" to="#808080" begin="arrowLeft.mouseover" end="arrowLeft.mouseout"/>
                  </use>
                  <path fill="none" stroke="white" stroke-width="1.5" d="M0,-3.0v7 M-2.5,-0.5L0,-3.0L2.5,-0.5"/>
                </g>
        </g>
        <svg viewBox="0 0 15 15" width="100%" height="30px" preserveAspectRatio="xMaxYMin meet">
         <g id="arrow_out" transform="scale(0.3 0.3)">
          <a xlink:href="fk20_8cu_ae57127876663f7b7e4870baa8e9c601e_cgraph_org.svg" target="_base">
           <rect id="button" ry="5" rx="5" y="6" x="6" height="38" width="38"
                fill="#f2f5e9" fill-opacity="0.5" stroke="#606060" stroke-width="1.0"/>
           <path id="arrow"
             d="M 11.500037,31.436501 C 11.940474,20.09759 22.043105,11.32322 32.158766,21.979434 L 37.068811,17.246167 C 37.068811,17.246167 37.088388,32 37.088388,32 L 22.160133,31.978069 C 22.160133,31.978069 26.997745,27.140456 26.997745,27.140456 C 18.528582,18.264221 13.291696,25.230495 11.500037,31.436501 z"
             style="fill:#404040;"/>
          </a>
         </g>
        </svg>
</svg>
