<?xml version="1.0" encoding="UTF-8" standalone="no"?>
<!DOCTYPE svg PUBLIC "-//W3C//DTD SVG 1.1//EN"
 "http://www.w3.org/Graphics/SVG/1.1/DTD/svg11.dtd">
<!-- Generated by graphviz version 2.43.0 (0)
 -->
<!-- Title: fk20.cuh Pages: 1 -->
<svg width="2132pt" height="95pt"
 viewBox="0.00 0.00 2132.00 95.00" xmlns="http://www.w3.org/2000/svg" xmlns:xlink="http://www.w3.org/1999/xlink">
<g id="graph0" class="graph" transform="scale(1 1) rotate(0) translate(4 91)">
<title>fk20.cuh</title>
<polygon fill="white" stroke="transparent" points="-4,4 -4,-91 2128,-91 2128,4 -4,4"/>
<!-- Node1 -->
<g id="node1" class="node">
<title>Node1</title>
<g id="a_node1"><a xlink:title=" ">
<polygon fill="#bfbfbf" stroke="black" points="1047,-67.5 1047,-86.5 1106,-86.5 1106,-67.5 1047,-67.5"/>
<text text-anchor="middle" x="1076.5" y="-74.5" font-family="Helvetica,sans-Serif" font-size="10.00">fk20.cuh</text>
</a>
</g>
</g>
<!-- Node2 -->
<g id="node2" class="node">
<title>Node2</title>
<g id="a_node2"><a xlink:href="fft_test_8cu.html" target="_top" xlink:title=" ">
<polygon fill="white" stroke="black" points="0,-6 0,-25 61,-25 61,-6 0,-6"/>
<text text-anchor="middle" x="30.5" y="-13" font-family="Helvetica,sans-Serif" font-size="10.00">fftTest.cu</text>
</a>
</g>
</g>
<!-- Node1&#45;&gt;Node2 -->
<g id="edge1" class="edge">
<title>Node1&#45;&gt;Node2</title>
<path fill="none" stroke="midnightblue" d="M1036.67,-75.87C873.95,-75.08 259.34,-69.54 69.5,-31 62.99,-29.68 56.12,-27.43 49.99,-25.1"/>
<polygon fill="midnightblue" stroke="midnightblue" points="1036.71,-79.37 1046.72,-75.91 1036.74,-72.37 1036.71,-79.37"/>
</g>
<!-- Node3 -->
<g id="node3" class="node">
<title>Node3</title>
<g id="a_node3"><a xlink:href="fk20_8cu.html" target="_top" xlink:title=" ">
<polygon fill="white" stroke="black" points="79,-6 79,-25 132,-25 132,-6 79,-6"/>
<text text-anchor="middle" x="105.5" y="-13" font-family="Helvetica,sans-Serif" font-size="10.00">fk20.cu</text>
</a>
</g>
</g>
<!-- Node1&#45;&gt;Node3 -->
<g id="edge2" class="edge">
<title>Node1&#45;&gt;Node3</title>
<path fill="none" stroke="midnightblue" d="M1036.94,-75.9C881.85,-75.25 315.28,-70.16 140.5,-31 134.6,-29.68 128.41,-27.43 122.92,-25.1"/>
<polygon fill="midnightblue" stroke="midnightblue" points="1036.96,-79.4 1046.97,-75.94 1036.98,-72.4 1036.96,-79.4"/>
</g>
<!-- Node4 -->
<g id="node4" class="node">
<title>Node4</title>
<g id="a_node4"><a xlink:href="fk20__512test_8cu.html" target="_top" xlink:title=" ">
<polygon fill="white" stroke="black" points="150,-6 150,-25 245,-25 245,-6 150,-6"/>
<text text-anchor="middle" x="197.5" y="-13" font-family="Helvetica,sans-Serif" font-size="10.00">fk20_512test.cu</text>
</a>
</g>
</g>
<!-- Node1&#45;&gt;Node4 -->
<g id="edge3" class="edge">
<title>Node1&#45;&gt;Node4</title>
<path fill="none" stroke="midnightblue" d="M1036.61,-76.61C917.09,-77.85 551.7,-77.29 253.5,-31 244.47,-29.6 234.78,-27.36 226.05,-25.06"/>
<polygon fill="midnightblue" stroke="midnightblue" points="1036.79,-80.11 1046.75,-76.5 1036.71,-73.11 1036.79,-80.11"/>
</g>
<!-- Node5 -->
<g id="node5" class="node">
<title>Node5</title>
<g id="a_node5"><a xlink:href="fk20__hext__fft2h__fft_8cu.html" target="_top" xlink:title=" ">
<polygon fill="white" stroke="black" points="263,-6 263,-25 386,-25 386,-6 263,-6"/>
<text text-anchor="middle" x="324.5" y="-13" font-family="Helvetica,sans-Serif" font-size="10.00">fk20_hext_fft2h_fft.cu</text>
</a>
</g>
</g>
<!-- Node1&#45;&gt;Node5 -->
<g id="edge4" class="edge">
<title>Node1&#45;&gt;Node5</title>
<path fill="none" stroke="midnightblue" d="M1036.59,-75.29C931.21,-73.01 636.91,-63.94 394.5,-31 383.56,-29.51 371.76,-27.31 361.03,-25.06"/>
<polygon fill="midnightblue" stroke="midnightblue" points="1036.7,-78.8 1046.77,-75.51 1036.85,-71.8 1036.7,-78.8"/>
</g>
<!-- Node6 -->
<g id="node6" class="node">
<title>Node6</title>
<g id="a_node6"><a xlink:href="fk20__msm_8cu.html" target="_top" xlink:title=" ">
<polygon fill="white" stroke="black" points="404,-6 404,-25 487,-25 487,-6 404,-6"/>
<text text-anchor="middle" x="445.5" y="-13" font-family="Helvetica,sans-Serif" font-size="10.00">fk20_msm.cu</text>
</a>
</g>
</g>
<!-- Node1&#45;&gt;Node6 -->
<g id="edge5" class="edge">
<title>Node1&#45;&gt;Node6</title>
<path fill="none" stroke="midnightblue" d="M1036.64,-75.72C941.99,-74.43 696.54,-67.54 495.5,-31 487.5,-29.55 478.94,-27.32 471.21,-25.05"/>
<polygon fill="midnightblue" stroke="midnightblue" points="1036.86,-79.22 1046.91,-75.84 1036.95,-72.22 1036.86,-79.22"/>
</g>
<!-- Node7 -->
<g id="node7" class="node">
<title>Node7</title>
<g id="a_node7"><a xlink:href="fk20__poly2h__fft_8cu.html" target="_top" xlink:title=" ">
<polygon fill="white" stroke="black" points="505,-6 505,-25 612,-25 612,-6 505,-6"/>
<text text-anchor="middle" x="558.5" y="-13" font-family="Helvetica,sans-Serif" font-size="10.00">fk20_poly2h_fft.cu</text>
</a>
</g>
</g>
<!-- Node1&#45;&gt;Node7 -->
<g id="edge6" class="edge">
<title>Node1&#45;&gt;Node7</title>
<path fill="none" stroke="midnightblue" d="M1036.74,-73.78C957.38,-68.97 773.87,-55.97 621.5,-31 611.86,-29.42 601.5,-27.24 592.02,-25.05"/>
<polygon fill="midnightblue" stroke="midnightblue" points="1036.6,-77.28 1046.79,-74.38 1037.01,-70.29 1036.6,-77.28"/>
</g>
<!-- Node8 -->
<g id="node8" class="node">
<title>Node8</title>
<g id="a_node8"><a xlink:href="fk20__poly2hext__fft_8cu.html" target="_top" xlink:title=" ">
<polygon fill="white" stroke="black" points="630.5,-6 630.5,-25 752.5,-25 752.5,-6 630.5,-6"/>
<text text-anchor="middle" x="691.5" y="-13" font-family="Helvetica,sans-Serif" font-size="10.00">fk20_poly2hext_fft.cu</text>
</a>
</g>
</g>
<!-- Node1&#45;&gt;Node8 -->
<g id="edge7" class="edge">
<title>Node1&#45;&gt;Node8</title>
<path fill="none" stroke="midnightblue" d="M1036.72,-71.13C976.84,-63.61 860.06,-48.23 761.5,-31 751.48,-29.25 740.69,-27.13 730.66,-25.06"/>
<polygon fill="midnightblue" stroke="midnightblue" points="1036.51,-74.63 1046.87,-72.39 1037.38,-67.68 1036.51,-74.63"/>
</g>
<!-- Node9 -->
<g id="node9" class="node">
<title>Node9</title>
<g id="a_node9"><a xlink:href="fk20__poly2toeplitz__coefficients_8cu.html" target="_top" xlink:title=" ">
<polygon fill="white" stroke="black" points="771,-0.5 771,-30.5 878,-30.5 878,-0.5 771,-0.5"/>
<text text-anchor="start" x="779" y="-18.5" font-family="Helvetica,sans-Serif" font-size="10.00">fk20_poly2toeplitz</text>
<text text-anchor="middle" x="824.5" y="-7.5" font-family="Helvetica,sans-Serif" font-size="10.00">_coefficients.cu</text>
</a>
</g>
</g>
<!-- Node1&#45;&gt;Node9 -->
<g id="edge8" class="edge">
<title>Node1&#45;&gt;Node9</title>
<path fill="none" stroke="midnightblue" d="M1036.83,-66.63C994.05,-56.53 925.69,-40.39 878.14,-29.17"/>
<polygon fill="midnightblue" stroke="midnightblue" points="1036.07,-70.05 1046.6,-68.94 1037.67,-63.24 1036.07,-70.05"/>
</g>
<!-- Node10 -->
<g id="node10" class="node">
<title>Node10</title>
<g id="a_node10"><a xlink:href="fk20__poly2toeplitz__coefficients__fft_8cu.html" target="_top" xlink:title=" ">
<polygon fill="white" stroke="black" points="896.5,-0.5 896.5,-30.5 1004.5,-30.5 1004.5,-0.5 896.5,-0.5"/>
<text text-anchor="start" x="904.5" y="-18.5" font-family="Helvetica,sans-Serif" font-size="10.00">fk20_poly2toeplitz</text>
<text text-anchor="middle" x="950.5" y="-7.5" font-family="Helvetica,sans-Serif" font-size="10.00">_coefficients_fft.cu</text>
</a>
</g>
</g>
<!-- Node1&#45;&gt;Node10 -->
<g id="edge9" class="edge">
<title>Node1&#45;&gt;Node10</title>
<path fill="none" stroke="midnightblue" d="M1049.39,-63.2C1029.03,-53.58 1001.16,-40.42 980.2,-30.52"/>
<polygon fill="midnightblue" stroke="midnightblue" points="1047.91,-66.37 1058.45,-67.48 1050.9,-60.04 1047.91,-66.37"/>
</g>
<!-- Node11 -->
<g id="node11" class="node">
<title>Node11</title>
<g id="a_node11"><a xlink:href="fk20benchmark_8cu.html" target="_top" xlink:title=" ">
<polygon fill="white" stroke="black" points="1023,-6 1023,-25 1130,-25 1130,-6 1023,-6"/>
<text text-anchor="middle" x="1076.5" y="-13" font-family="Helvetica,sans-Serif" font-size="10.00">fk20benchmark.cu</text>
</a>
</g>
</g>
<!-- Node1&#45;&gt;Node11 -->
<g id="edge10" class="edge">
<title>Node1&#45;&gt;Node11</title>
<path fill="none" stroke="midnightblue" d="M1076.5,-57.32C1076.5,-46.5 1076.5,-33.4 1076.5,-25.01"/>
<polygon fill="midnightblue" stroke="midnightblue" points="1073,-57.48 1076.5,-67.48 1080,-57.48 1073,-57.48"/>
</g>
<!-- Node12 -->
<g id="node12" class="node">
<title>Node12</title>
<g id="a_node12"><a xlink:href="fk20test_8cu.html" target="_top" xlink:title=" ">
<polygon fill="white" stroke="black" points="1148,-6 1148,-25 1219,-25 1219,-6 1148,-6"/>
<text text-anchor="middle" x="1183.5" y="-13" font-family="Helvetica,sans-Serif" font-size="10.00">fk20test.cu</text>
</a>
</g>
</g>
<!-- Node1&#45;&gt;Node12 -->
<g id="edge11" class="edge">
<title>Node1&#45;&gt;Node12</title>
<path fill="none" stroke="midnightblue" d="M1100.68,-62.56C1121.38,-51.04 1150.57,-34.81 1168.2,-25.01"/>
<polygon fill="midnightblue" stroke="midnightblue" points="1098.87,-59.56 1091.83,-67.48 1102.27,-65.67 1098.87,-59.56"/>
</g>
<!-- Node13 -->
<g id="node13" class="node">
<title>Node13</title>
<g id="a_node13"><a xlink:href="fk20test__fft_8cu.html" target="_top" xlink:title=" ">
<polygon fill="white" stroke="black" points="1237,-6 1237,-25 1324,-25 1324,-6 1237,-6"/>
<text text-anchor="middle" x="1280.5" y="-13" font-family="Helvetica,sans-Serif" font-size="10.00">fk20test_fft.cu</text>
</a>
</g>
</g>
<!-- Node1&#45;&gt;Node13 -->
<g id="edge12" class="edge">
<title>Node1&#45;&gt;Node13</title>
<path fill="none" stroke="midnightblue" d="M1115.58,-64.6C1155.22,-53.04 1215.68,-35.41 1251.33,-25.01"/>
<polygon fill="midnightblue" stroke="midnightblue" points="1114.35,-61.32 1105.73,-67.48 1116.31,-68.04 1114.35,-61.32"/>
</g>
<!-- Node14 -->
<g id="node14" class="node">
<title>Node14</title>
<g id="a_node14"><a xlink:href="fk20test__fft__rand_8cu.html" target="_top" xlink:title=" ">
<polygon fill="white" stroke="black" points="1342.5,-6 1342.5,-25 1456.5,-25 1456.5,-6 1342.5,-6"/>
<text text-anchor="middle" x="1399.5" y="-13" font-family="Helvetica,sans-Serif" font-size="10.00">fk20test_fft_rand.cu</text>
</a>
</g>
</g>
<!-- Node1&#45;&gt;Node14 -->
<g id="edge13" class="edge">
<title>Node1&#45;&gt;Node14</title>
<path fill="none" stroke="midnightblue" d="M1116.13,-69.6C1166.69,-61.32 1256.79,-46.13 1333.5,-31 1342.71,-29.18 1352.61,-27.09 1361.86,-25.06"/>
<polygon fill="midnightblue" stroke="midnightblue" points="1115.56,-66.15 1106.26,-71.22 1116.69,-73.06 1115.56,-66.15"/>
</g>
<!-- Node15 -->
<g id="node15" class="node">
<title>Node15</title>
<g id="a_node15"><a xlink:href="fk20test__kat_8cu.html" target="_top" xlink:title=" ">
<polygon fill="white" stroke="black" points="1474.5,-6 1474.5,-25 1566.5,-25 1566.5,-6 1474.5,-6"/>
<text text-anchor="middle" x="1520.5" y="-13" font-family="Helvetica,sans-Serif" font-size="10.00">fk20test_kat.cu</text>
</a>
</g>
</g>
<!-- Node1&#45;&gt;Node15 -->
<g id="edge14" class="edge">
<title>Node1&#45;&gt;Node15</title>
<path fill="none" stroke="midnightblue" d="M1116.76,-73.25C1187.69,-67.97 1339.36,-54.8 1465.5,-31 1473.94,-29.41 1483,-27.22 1491.28,-25.03"/>
<polygon fill="midnightblue" stroke="midnightblue" points="1116.21,-69.78 1106.49,-74 1116.72,-76.76 1116.21,-69.78"/>
</g>
<!-- Node16 -->
<g id="node16" class="node">
<title>Node16</title>
<g id="a_node16"><a xlink:href="fk20test__poly_8cu.html" target="_top" xlink:title=" ">
<polygon fill="white" stroke="black" points="1584.5,-6 1584.5,-25 1680.5,-25 1680.5,-6 1584.5,-6"/>
<text text-anchor="middle" x="1632.5" y="-13" font-family="Helvetica,sans-Serif" font-size="10.00">fk20test_poly.cu</text>
</a>
</g>
</g>
<!-- Node1&#45;&gt;Node16 -->
<g id="edge15" class="edge">
<title>Node1&#45;&gt;Node16</title>
<path fill="none" stroke="midnightblue" d="M1116.48,-74.55C1201.5,-71.01 1406.33,-59.96 1575.5,-31 1584.46,-29.47 1594.08,-27.25 1602.81,-25"/>
<polygon fill="midnightblue" stroke="midnightblue" points="1116.09,-71.07 1106.24,-74.97 1116.37,-78.06 1116.09,-71.07"/>
</g>
<!-- Node17 -->
<g id="node17" class="node">
<title>Node17</title>
<g id="a_node17"><a xlink:href="fk20test__poly2toeplitz__coefficients_8cu.html" target="_top" xlink:title=" ">
<polygon fill="white" stroke="black" points="1698.5,-0.5 1698.5,-30.5 1824.5,-30.5 1824.5,-0.5 1698.5,-0.5"/>
<text text-anchor="start" x="1706.5" y="-18.5" font-family="Helvetica,sans-Serif" font-size="10.00">fk20test_poly2toeplitz</text>
<text text-anchor="middle" x="1761.5" y="-7.5" font-family="Helvetica,sans-Serif" font-size="10.00">_coefficients.cu</text>
</a>
</g>
</g>
<!-- Node1&#45;&gt;Node17 -->
<g id="edge16" class="edge">
<title>Node1&#45;&gt;Node17</title>
<path fill="none" stroke="midnightblue" d="M1116.35,-74.81C1214.31,-71.49 1474.52,-60.42 1689.5,-31 1692.41,-30.6 1695.37,-30.16 1698.36,-29.68"/>
<polygon fill="midnightblue" stroke="midnightblue" points="1116.18,-71.31 1106.3,-75.14 1116.41,-78.31 1116.18,-71.31"/>
</g>
<!-- Node18 -->
<g id="node18" class="node">
<title>Node18</title>
<g id="a_node18"><a xlink:href="fk20test__poly2toeplitz__coefficients__fft_8cu.html" target="_top" xlink:title=" ">
<polygon fill="white" stroke="black" points="1842.5,-0.5 1842.5,-30.5 1968.5,-30.5 1968.5,-0.5 1842.5,-0.5"/>
<text text-anchor="start" x="1850.5" y="-18.5" font-family="Helvetica,sans-Serif" font-size="10.00">fk20test_poly2toeplitz</text>
<text text-anchor="middle" x="1905.5" y="-7.5" font-family="Helvetica,sans-Serif" font-size="10.00">_coefficients_fft.cu</text>
</a>
</g>
</g>
<!-- Node1&#45;&gt;Node18 -->
<g id="edge17" class="edge">
<title>Node1&#45;&gt;Node18</title>
<path fill="none" stroke="midnightblue" d="M1116.47,-75.58C1229.49,-73.98 1560.93,-66.37 1833.5,-31 1836.41,-30.62 1839.38,-30.2 1842.37,-29.73"/>
<polygon fill="midnightblue" stroke="midnightblue" points="1116.17,-72.09 1106.22,-75.72 1116.26,-79.08 1116.17,-72.09"/>
</g>
<!-- Node19 -->
<g id="node19" class="node">
<title>Node19</title>
<g id="a_node19"><a xlink:href="fr__fft_8cu.html" target="_top" xlink:title=" ">
<polygon fill="white" stroke="black" points="1986.5,-6 1986.5,-25 2040.5,-25 2040.5,-6 1986.5,-6"/>
<text text-anchor="middle" x="2013.5" y="-13" font-family="Helvetica,sans-Serif" font-size="10.00">fr_fft.cu</text>
</a>
</g>
</g>
<!-- Node1&#45;&gt;Node19 -->
<g id="edge18" class="edge">
<title>Node1&#45;&gt;Node19</title>
<path fill="none" stroke="midnightblue" d="M1116.53,-75.76C1268.53,-74.59 1809.82,-67.86 1977.5,-31 1983.55,-29.67 1989.91,-27.42 1995.56,-25.09"/>
<polygon fill="midnightblue" stroke="midnightblue" points="1116.24,-72.27 1106.27,-75.84 1116.29,-79.26 1116.24,-72.27"/>
</g>
<!-- Node20 -->
<g id="node20" class="node">
<title>Node20</title>
<g id="a_node20"><a xlink:href="g1p__fft_8cu.html" target="_top" xlink:title=" ">
<polygon fill="white" stroke="black" points="2059,-6 2059,-25 2124,-25 2124,-6 2059,-6"/>
<text text-anchor="middle" x="2091.5" y="-13" font-family="Helvetica,sans-Serif" font-size="10.00">g1p_fft.cu</text>
</a>
</g>
</g>
<!-- Node1&#45;&gt;Node20 -->
<g id="edge19" class="edge">
<title>Node1&#45;&gt;Node20</title>
<path fill="none" stroke="midnightblue" d="M1116.49,-75.67C1275.9,-74.13 1866.24,-66.11 2049.5,-31 2056.47,-29.66 2063.85,-27.42 2070.46,-25.08"/>
<polygon fill="midnightblue" stroke="midnightblue" points="1116.16,-72.17 1106.19,-75.77 1116.23,-79.17 1116.16,-72.17"/>
</g>
</g>
</svg>
