<?xml version="1.0" encoding="UTF-8" standalone="no"?>
<!DOCTYPE svg PUBLIC "-//W3C//DTD SVG 1.1//EN"
 "http://www.w3.org/Graphics/SVG/1.1/DTD/svg11.dtd">
<!-- Generated by graphviz version 2.43.0 (0)
 -->
<!-- Title: fk20.cuh Pages: 1 -->
<svg width="171pt" height="196pt"
 viewBox="0.00 0.00 170.86 196.00" xmlns="http://www.w3.org/2000/svg" xmlns:xlink="http://www.w3.org/1999/xlink">
<g id="graph0" class="graph" transform="scale(1 1) rotate(0) translate(4 192)">
<title>fk20.cuh</title>
<polygon fill="white" stroke="transparent" points="-4,4 -4,-192 166.86,-192 166.86,4 -4,4"/>
<!-- Node1 -->
<g id="node1" class="node">
<title>Node1</title>
<g id="a_node1"><a xlink:title=" ">
<polygon fill="#bfbfbf" stroke="black" points="4.86,-168.5 4.86,-187.5 63.86,-187.5 63.86,-168.5 4.86,-168.5"/>
<text text-anchor="middle" x="34.36" y="-175.5" font-family="Helvetica,sans-Serif" font-size="10.00">fk20.cuh</text>
</a>
</g>
</g>
<!-- Node2 -->
<g id="node2" class="node">
<title>Node2</title>
<g id="a_node2"><a xlink:title=" ">
<polygon fill="white" stroke="#bfbfbf" points="35.86,-0.5 35.86,-19.5 88.86,-19.5 88.86,-0.5 35.86,-0.5"/>
<text text-anchor="middle" x="62.36" y="-7.5" font-family="Helvetica,sans-Serif" font-size="10.00">stdint.h</text>
</a>
</g>
</g>
<!-- Node1&#45;&gt;Node2 -->
<g id="edge1" class="edge">
<title>Node1&#45;&gt;Node2</title>
<path fill="none" stroke="midnightblue" d="M28.64,-168.36C15.85,-147.91 -12.46,-95.28 6.36,-56 12.62,-42.95 24.7,-32.49 36.04,-24.95"/>
<polygon fill="midnightblue" stroke="midnightblue" points="38.17,-27.75 44.86,-19.54 34.51,-21.79 38.17,-27.75"/>
</g>
<!-- Node3 -->
<g id="node3" class="node">
<title>Node3</title>
<g id="a_node3"><a xlink:href="fr_8cuh.html" target="_top" xlink:title=" ">
<polygon fill="white" stroke="black" points="15.36,-56.5 15.36,-75.5 59.36,-75.5 59.36,-56.5 15.36,-56.5"/>
<text text-anchor="middle" x="37.36" y="-63.5" font-family="Helvetica,sans-Serif" font-size="10.00">fr.cuh</text>
</a>
</g>
</g>
<!-- Node1&#45;&gt;Node3 -->
<g id="edge2" class="edge">
<title>Node1&#45;&gt;Node3</title>
<path fill="none" stroke="midnightblue" d="M34.6,-168.37C35.08,-150.62 36.2,-109.67 36.86,-85.6"/>
<polygon fill="midnightblue" stroke="midnightblue" points="40.35,-85.68 37.13,-75.59 33.36,-85.49 40.35,-85.68"/>
</g>
<!-- Node4 -->
<g id="node4" class="node">
<title>Node4</title>
<g id="a_node4"><a xlink:href="g1_8cuh.html" target="_top" xlink:title=" ">
<polygon fill="white" stroke="black" points="62.86,-112.5 62.86,-131.5 111.86,-131.5 111.86,-112.5 62.86,-112.5"/>
<text text-anchor="middle" x="87.36" y="-119.5" font-family="Helvetica,sans-Serif" font-size="10.00">g1.cuh</text>
</a>
</g>
</g>
<!-- Node1&#45;&gt;Node4 -->
<g id="edge4" class="edge">
<title>Node1&#45;&gt;Node4</title>
<path fill="none" stroke="midnightblue" d="M43.11,-168.08C50.83,-160.22 62.27,-148.57 71.58,-139.08"/>
<polygon fill="midnightblue" stroke="midnightblue" points="74.27,-141.34 78.77,-131.75 69.27,-136.44 74.27,-141.34"/>
</g>
<!-- Node3&#45;&gt;Node2 -->
<g id="edge3" class="edge">
<title>Node3&#45;&gt;Node2</title>
<path fill="none" stroke="midnightblue" d="M41.49,-56.08C44.88,-48.77 49.78,-38.18 53.98,-29.1"/>
<polygon fill="midnightblue" stroke="midnightblue" points="57.29,-30.3 58.31,-19.75 50.93,-27.36 57.29,-30.3"/>
</g>
<!-- Node4&#45;&gt;Node2 -->
<g id="edge5" class="edge">
<title>Node4&#45;&gt;Node2</title>
<path fill="none" stroke="midnightblue" d="M85.4,-112.37C81.37,-94.62 72.06,-53.67 66.59,-29.6"/>
<polygon fill="midnightblue" stroke="midnightblue" points="69.94,-28.57 64.32,-19.59 63.12,-30.12 69.94,-28.57"/>
</g>
<!-- Node4&#45;&gt;Node3 -->
<g id="edge8" class="edge">
<title>Node4&#45;&gt;Node3</title>
<path fill="none" stroke="midnightblue" d="M79.11,-112.08C71.9,-104.3 61.25,-92.8 52.52,-83.37"/>
<polygon fill="midnightblue" stroke="midnightblue" points="54.83,-80.71 45.47,-75.75 49.69,-85.47 54.83,-80.71"/>
</g>
<!-- Node5 -->
<g id="node5" class="node">
<title>Node5</title>
<g id="a_node5"><a xlink:href="fp_8cuh.html" target="_top" xlink:title=" ">
<polygon fill="white" stroke="black" points="115.86,-56.5 115.86,-75.5 162.86,-75.5 162.86,-56.5 115.86,-56.5"/>
<text text-anchor="middle" x="139.36" y="-63.5" font-family="Helvetica,sans-Serif" font-size="10.00">fp.cuh</text>
</a>
</g>
</g>
<!-- Node4&#45;&gt;Node5 -->
<g id="edge6" class="edge">
<title>Node4&#45;&gt;Node5</title>
<path fill="none" stroke="midnightblue" d="M95.95,-112.08C103.52,-104.22 114.74,-92.57 123.88,-83.08"/>
<polygon fill="midnightblue" stroke="midnightblue" points="126.52,-85.38 130.94,-75.75 121.48,-80.53 126.52,-85.38"/>
</g>
<!-- Node5&#45;&gt;Node2 -->
<g id="edge7" class="edge">
<title>Node5&#45;&gt;Node2</title>
<path fill="none" stroke="midnightblue" d="M126.99,-56.32C115.2,-48.06 97.23,-35.45 83.23,-25.63"/>
<polygon fill="midnightblue" stroke="midnightblue" points="84.9,-22.53 74.7,-19.65 80.88,-28.26 84.9,-22.53"/>
</g>
</g>
</svg>
