<?xml version="1.0" encoding="UTF-8" standalone="no"?>
<!DOCTYPE svg PUBLIC "-//W3C//DTD SVG 1.1//EN"
 "http://www.w3.org/Graphics/SVG/1.1/DTD/svg11.dtd">
<!-- Generated by graphviz version 2.43.0 (0)
 -->
<!-- Title: fk20_poly2hext_fft Pages: 1 -->
<svg width="479pt" height="66pt"
 viewBox="0.00 0.00 479.00 66.00" xmlns="http://www.w3.org/2000/svg" xmlns:xlink="http://www.w3.org/1999/xlink">
<g id="graph0" class="graph" transform="scale(1 1) rotate(0) translate(4 62)">
<title>fk20_poly2hext_fft</title>
<polygon fill="white" stroke="transparent" points="-4,4 -4,-62 475,-62 475,4 -4,4"/>
<!-- Node1 -->
<g id="node1" class="node">
<title>Node1</title>
<g id="a_node1"><a xlink:title="polynomial + xext_fft &#45;&gt; hext_fft">
<polygon fill="#bfbfbf" stroke="black" points="363,-19.5 363,-38.5 471,-38.5 471,-19.5 363,-19.5"/>
<text text-anchor="middle" x="417" y="-26.5" font-family="Helvetica,sans-Serif" font-size="10.00">fk20_poly2hext_fft</text>
</a>
</g>
</g>
<!-- Node2 -->
<g id="node2" class="node">
<title>Node2</title>
<g id="a_node2"><a xlink:href="fk20__512test_8cu.html#abbe0cf86817b32d0d441285f9e314799" target="_top" xlink:title="Test for fk20_poly2hext_fft: polynomial &#45;&gt; hext_fft.">
<polygon fill="white" stroke="black" points="195.5,-38.5 195.5,-57.5 326.5,-57.5 326.5,-38.5 195.5,-38.5"/>
<text text-anchor="middle" x="261" y="-45.5" font-family="Helvetica,sans-Serif" font-size="10.00">fk20_poly2hext_fft_512</text>
</a>
</g>
</g>
<!-- Node1&#45;&gt;Node2 -->
<g id="edge1" class="edge">
<title>Node1&#45;&gt;Node2</title>
<path fill="none" stroke="midnightblue" d="M352.38,-36.85C343.92,-37.89 335.23,-38.97 326.74,-40.01"/>
<polygon fill="midnightblue" stroke="midnightblue" points="353.07,-40.29 362.57,-35.59 352.22,-33.34 353.07,-40.29"/>
</g>
<!-- Node4 -->
<g id="node4" class="node">
<title>Node4</title>
<g id="a_node4"><a xlink:href="fk20test_8cuh.html#a63bc14300c47fa5f3a7b3c057ce76338" target="_top" xlink:title="Test for fk20_poly2hext_fft: polynomial &#45;&gt; hext_fft.">
<polygon fill="white" stroke="black" points="195,-0.5 195,-19.5 327,-19.5 327,-0.5 195,-0.5"/>
<text text-anchor="middle" x="261" y="-7.5" font-family="Helvetica,sans-Serif" font-size="10.00">fk20_poly2hext_fft_test</text>
</a>
</g>
</g>
<!-- Node1&#45;&gt;Node4 -->
<g id="edge3" class="edge">
<title>Node1&#45;&gt;Node4</title>
<path fill="none" stroke="midnightblue" d="M352.46,-21.16C344.06,-20.12 335.44,-19.06 327.01,-18.02"/>
<polygon fill="midnightblue" stroke="midnightblue" points="352.22,-24.66 362.57,-22.41 353.07,-17.71 352.22,-24.66"/>
</g>
<!-- Node3 -->
<g id="node3" class="node">
<title>Node3</title>
<g id="a_node3"><a xlink:href="fk20__512test_8cu.html#a3c04138a5bfe5d72780bb7e82a18e627" target="_top" xlink:title="Executes a many&#45;row tests on FK20. Behavior is similar to fk20test.cu but using many GPU blocks,...">
<polygon fill="white" stroke="black" points="97.5,-38.5 97.5,-57.5 138.5,-57.5 138.5,-38.5 97.5,-38.5"/>
<text text-anchor="middle" x="118" y="-45.5" font-family="Helvetica,sans-Serif" font-size="10.00">main</text>
</a>
</g>
</g>
<!-- Node2&#45;&gt;Node3 -->
<g id="edge2" class="edge">
<title>Node2&#45;&gt;Node3</title>
<path fill="none" stroke="midnightblue" d="M185.14,-48C167.93,-48 151.07,-48 138.67,-48"/>
<polygon fill="midnightblue" stroke="midnightblue" points="185.28,-51.5 195.28,-48 185.28,-44.5 185.28,-51.5"/>
</g>
<!-- Node5 -->
<g id="node5" class="node">
<title>Node5</title>
<g id="a_node5"><a xlink:href="fk20test_8cuh.html#a3f978e98c96e45785d60ed0d96689521" target="_top" xlink:title=" ">
<polygon fill="white" stroke="black" points="77,-0.5 77,-19.5 159,-19.5 159,-0.5 77,-0.5"/>
<text text-anchor="middle" x="118" y="-7.5" font-family="Helvetica,sans-Serif" font-size="10.00">FK20TestPoly</text>
</a>
</g>
</g>
<!-- Node4&#45;&gt;Node5 -->
<g id="edge4" class="edge">
<title>Node4&#45;&gt;Node5</title>
<path fill="none" stroke="midnightblue" d="M184.62,-10C175.9,-10 167.29,-10 159.3,-10"/>
<polygon fill="midnightblue" stroke="midnightblue" points="184.87,-13.5 194.87,-10 184.87,-6.5 184.87,-13.5"/>
</g>
<!-- Node6 -->
<g id="node6" class="node">
<title>Node6</title>
<g id="a_node6"><a xlink:href="fk20test_8cu.html#ae66f6b31b5ad750f1fe042a706a4e3d4" target="_top" xlink:title=" ">
<polygon fill="white" stroke="black" points="0,-0.5 0,-19.5 41,-19.5 41,-0.5 0,-0.5"/>
<text text-anchor="middle" x="20.5" y="-7.5" font-family="Helvetica,sans-Serif" font-size="10.00">main</text>
</a>
</g>
</g>
<!-- Node5&#45;&gt;Node6 -->
<g id="edge5" class="edge">
<title>Node5&#45;&gt;Node6</title>
<path fill="none" stroke="midnightblue" d="M66.57,-10C57.52,-10 48.6,-10 41.11,-10"/>
<polygon fill="midnightblue" stroke="midnightblue" points="66.78,-13.5 76.78,-10 66.78,-6.5 66.78,-13.5"/>
</g>
</g>
</svg>
