<?xml version="1.0" encoding="UTF-8" standalone="no"?>
<!DOCTYPE svg PUBLIC "-//W3C//DTD SVG 1.1//EN"
 "http://www.w3.org/Graphics/SVG/1.1/DTD/svg11.dtd">
<!-- Generated by graphviz version 2.43.0 (0)
 -->
<!-- Title: fk20benchmark.cu Pages: 1 -->
<svg width="603pt" height="252pt"
 viewBox="0.00 0.00 603.00 252.00" xmlns="http://www.w3.org/2000/svg" xmlns:xlink="http://www.w3.org/1999/xlink">
<g id="graph0" class="graph" transform="scale(1 1) rotate(0) translate(4 248)">
<title>fk20benchmark.cu</title>
<polygon fill="white" stroke="transparent" points="-4,4 -4,-248 599,-248 599,4 -4,4"/>
<!-- Node1 -->
<g id="node1" class="node">
<title>Node1</title>
<g id="a_node1"><a xlink:title=" ">
<polygon fill="#bfbfbf" stroke="black" points="273.5,-224.5 273.5,-243.5 380.5,-243.5 380.5,-224.5 273.5,-224.5"/>
<text text-anchor="middle" x="327" y="-231.5" font-family="Helvetica,sans-Serif" font-size="10.00">fk20benchmark.cu</text>
</a>
</g>
</g>
<!-- Node2 -->
<g id="node2" class="node">
<title>Node2</title>
<g id="a_node2"><a xlink:title=" ">
<polygon fill="white" stroke="#bfbfbf" points="0,-168.5 0,-187.5 104,-187.5 104,-168.5 0,-168.5"/>
<text text-anchor="middle" x="52" y="-175.5" font-family="Helvetica,sans-Serif" font-size="10.00">bits/getopt_core.h</text>
</a>
</g>
</g>
<!-- Node1&#45;&gt;Node2 -->
<g id="edge1" class="edge">
<title>Node1&#45;&gt;Node2</title>
<path fill="none" stroke="midnightblue" d="M283.43,-224.44C235.15,-214.96 157.29,-199.67 105.39,-189.48"/>
<polygon fill="midnightblue" stroke="midnightblue" points="105.86,-186.01 95.37,-187.52 104.51,-192.88 105.86,-186.01"/>
</g>
<!-- Node3 -->
<g id="node3" class="node">
<title>Node3</title>
<g id="a_node3"><a xlink:title=" ">
<polygon fill="white" stroke="#bfbfbf" points="122,-168.5 122,-187.5 172,-187.5 172,-168.5 122,-168.5"/>
<text text-anchor="middle" x="147" y="-175.5" font-family="Helvetica,sans-Serif" font-size="10.00">cstring</text>
</a>
</g>
</g>
<!-- Node1&#45;&gt;Node3 -->
<g id="edge2" class="edge">
<title>Node1&#45;&gt;Node3</title>
<path fill="none" stroke="midnightblue" d="M298.48,-224.44C266.95,-214.98 216.13,-199.74 182.15,-189.55"/>
<polygon fill="midnightblue" stroke="midnightblue" points="182.78,-186.08 172.19,-186.56 180.77,-192.78 182.78,-186.08"/>
</g>
<!-- Node4 -->
<g id="node4" class="node">
<title>Node4</title>
<g id="a_node4"><a xlink:title=" ">
<polygon fill="white" stroke="#bfbfbf" points="153,-112.5 153,-131.5 203,-131.5 203,-112.5 153,-112.5"/>
<text text-anchor="middle" x="178" y="-119.5" font-family="Helvetica,sans-Serif" font-size="10.00">stdio.h</text>
</a>
</g>
</g>
<!-- Node1&#45;&gt;Node4 -->
<g id="edge3" class="edge">
<title>Node1&#45;&gt;Node4</title>
<path fill="none" stroke="midnightblue" d="M291.97,-224.36C269.26,-217.41 240.1,-205.83 219,-188 203.91,-175.25 192.56,-155.51 185.67,-141.12"/>
<polygon fill="midnightblue" stroke="midnightblue" points="188.76,-139.45 181.45,-131.77 182.38,-142.33 188.76,-139.45"/>
</g>
<!-- Node5 -->
<g id="node5" class="node">
<title>Node5</title>
<g id="a_node5"><a xlink:title=" ">
<polygon fill="white" stroke="#bfbfbf" points="328.5,-168.5 328.5,-187.5 381.5,-187.5 381.5,-168.5 328.5,-168.5"/>
<text text-anchor="middle" x="355" y="-175.5" font-family="Helvetica,sans-Serif" font-size="10.00">stdlib.h</text>
</a>
</g>
</g>
<!-- Node1&#45;&gt;Node5 -->
<g id="edge4" class="edge">
<title>Node1&#45;&gt;Node5</title>
<path fill="none" stroke="midnightblue" d="M331.62,-224.08C335.46,-216.69 341.02,-205.95 345.76,-196.81"/>
<polygon fill="midnightblue" stroke="midnightblue" points="348.97,-198.24 350.46,-187.75 342.75,-195.02 348.97,-198.24"/>
</g>
<!-- Node6 -->
<g id="node6" class="node">
<title>Node6</title>
<g id="a_node6"><a xlink:title=" ">
<polygon fill="white" stroke="#bfbfbf" points="400,-168.5 400,-187.5 448,-187.5 448,-168.5 400,-168.5"/>
<text text-anchor="middle" x="424" y="-175.5" font-family="Helvetica,sans-Serif" font-size="10.00">time.h</text>
</a>
</g>
</g>
<!-- Node1&#45;&gt;Node6 -->
<g id="edge5" class="edge">
<title>Node1&#45;&gt;Node6</title>
<path fill="none" stroke="midnightblue" d="M342.58,-224.32C358,-215.74 381.81,-202.49 399.71,-192.52"/>
<polygon fill="midnightblue" stroke="midnightblue" points="401.42,-195.58 408.45,-187.65 398.01,-189.46 401.42,-195.58"/>
</g>
<!-- Node7 -->
<g id="node7" class="node">
<title>Node7</title>
<g id="a_node7"><a xlink:title=" ">
<polygon fill="white" stroke="#bfbfbf" points="297,-112.5 297,-131.5 353,-131.5 353,-112.5 297,-112.5"/>
<text text-anchor="middle" x="325" y="-119.5" font-family="Helvetica,sans-Serif" font-size="10.00">unistd.h</text>
</a>
</g>
</g>
<!-- Node1&#45;&gt;Node7 -->
<g id="edge6" class="edge">
<title>Node1&#45;&gt;Node7</title>
<path fill="none" stroke="midnightblue" d="M325.01,-224.43C323.03,-215.42 320.13,-200.8 319,-188 317.63,-172.46 319.47,-154.83 321.46,-141.86"/>
<polygon fill="midnightblue" stroke="midnightblue" points="324.94,-142.28 323.17,-131.83 318.04,-141.1 324.94,-142.28"/>
</g>
<!-- Node8 -->
<g id="node8" class="node">
<title>Node8</title>
<g id="a_node8"><a xlink:href="fr_8cuh.html" target="_top" xlink:title=" ">
<polygon fill="white" stroke="black" points="551,-56.5 551,-75.5 595,-75.5 595,-56.5 551,-56.5"/>
<text text-anchor="middle" x="573" y="-63.5" font-family="Helvetica,sans-Serif" font-size="10.00">fr.cuh</text>
</a>
</g>
</g>
<!-- Node1&#45;&gt;Node8 -->
<g id="edge7" class="edge">
<title>Node1&#45;&gt;Node8</title>
<path fill="none" stroke="midnightblue" d="M380.72,-229.06C439.28,-223.62 527.76,-211.67 551,-188 577.71,-160.79 577.86,-112.67 575.51,-86.04"/>
<polygon fill="midnightblue" stroke="midnightblue" points="578.95,-85.33 574.38,-75.77 572,-86.1 578.95,-85.33"/>
</g>
<!-- Node10 -->
<g id="node10" class="node">
<title>Node10</title>
<g id="a_node10"><a xlink:href="fk20_8cuh.html" target="_top" xlink:title=" ">
<polygon fill="white" stroke="black" points="466.5,-168.5 466.5,-187.5 525.5,-187.5 525.5,-168.5 466.5,-168.5"/>
<text text-anchor="middle" x="496" y="-175.5" font-family="Helvetica,sans-Serif" font-size="10.00">fk20.cuh</text>
</a>
</g>
</g>
<!-- Node1&#45;&gt;Node10 -->
<g id="edge9" class="edge">
<title>Node1&#45;&gt;Node10</title>
<path fill="none" stroke="midnightblue" d="M353.78,-224.44C382.33,-215.32 427.73,-200.81 459.54,-190.65"/>
<polygon fill="midnightblue" stroke="midnightblue" points="460.89,-193.89 469.35,-187.52 458.76,-187.23 460.89,-193.89"/>
</g>
<!-- Node11 -->
<g id="node11" class="node">
<title>Node11</title>
<g id="a_node11"><a xlink:href="g1_8cuh.html" target="_top" xlink:title=" ">
<polygon fill="white" stroke="black" points="476.5,-112.5 476.5,-131.5 525.5,-131.5 525.5,-112.5 476.5,-112.5"/>
<text text-anchor="middle" x="501" y="-119.5" font-family="Helvetica,sans-Serif" font-size="10.00">g1.cuh</text>
</a>
</g>
</g>
<!-- Node1&#45;&gt;Node11 -->
<g id="edge17" class="edge">
<title>Node1&#45;&gt;Node11</title>
<path fill="none" stroke="midnightblue" d="M380.66,-228.9C435.72,-223.45 515.95,-211.61 535,-188 547.28,-172.78 532.59,-152.43 518.87,-138.58"/>
<polygon fill="midnightblue" stroke="midnightblue" points="521.2,-135.96 511.53,-131.63 516.39,-141.05 521.2,-135.96"/>
</g>
<!-- Node13 -->
<g id="node13" class="node">
<title>Node13</title>
<g id="a_node13"><a xlink:href="test_8h.html" target="_top" xlink:title=" ">
<polygon fill="white" stroke="black" points="228,-168.5 228,-187.5 272,-187.5 272,-168.5 228,-168.5"/>
<text text-anchor="middle" x="250" y="-175.5" font-family="Helvetica,sans-Serif" font-size="10.00">test.h</text>
</a>
</g>
</g>
<!-- Node1&#45;&gt;Node13 -->
<g id="edge18" class="edge">
<title>Node1&#45;&gt;Node13</title>
<path fill="none" stroke="midnightblue" d="M314.63,-224.32C302.84,-216.06 284.87,-203.45 270.86,-193.63"/>
<polygon fill="midnightblue" stroke="midnightblue" points="272.54,-190.53 262.34,-187.65 268.52,-196.26 272.54,-190.53"/>
</g>
<!-- Node9 -->
<g id="node9" class="node">
<title>Node9</title>
<g id="a_node9"><a xlink:title=" ">
<polygon fill="white" stroke="#bfbfbf" points="470.5,-0.5 470.5,-19.5 523.5,-19.5 523.5,-0.5 470.5,-0.5"/>
<text text-anchor="middle" x="497" y="-7.5" font-family="Helvetica,sans-Serif" font-size="10.00">stdint.h</text>
</a>
</g>
</g>
<!-- Node8&#45;&gt;Node9 -->
<g id="edge8" class="edge">
<title>Node8&#45;&gt;Node9</title>
<path fill="none" stroke="midnightblue" d="M560.79,-56.32C549.22,-48.11 531.62,-35.6 517.84,-25.81"/>
<polygon fill="midnightblue" stroke="midnightblue" points="519.61,-22.77 509.43,-19.83 515.56,-28.48 519.61,-22.77"/>
</g>
<!-- Node10&#45;&gt;Node8 -->
<g id="edge11" class="edge">
<title>Node10&#45;&gt;Node8</title>
<path fill="none" stroke="midnightblue" d="M504.28,-168.43C512.54,-159.66 525.37,-145.45 535,-132 545.92,-116.76 556.53,-98.19 563.75,-84.81"/>
<polygon fill="midnightblue" stroke="midnightblue" points="566.98,-86.2 568.56,-75.73 560.79,-82.93 566.98,-86.2"/>
</g>
<!-- Node10&#45;&gt;Node9 -->
<g id="edge10" class="edge">
<title>Node10&#45;&gt;Node9</title>
<path fill="none" stroke="midnightblue" d="M488.71,-168.28C475.35,-151.64 447.45,-113.66 438,-76 435.84,-67.38 434.06,-63.97 438,-56 444.6,-42.66 457.26,-32.19 469.17,-24.73"/>
<polygon fill="midnightblue" stroke="midnightblue" points="471.12,-27.64 478.02,-19.6 467.61,-21.59 471.12,-27.64"/>
</g>
<!-- Node10&#45;&gt;Node11 -->
<g id="edge12" class="edge">
<title>Node10&#45;&gt;Node11</title>
<path fill="none" stroke="midnightblue" d="M496.83,-168.08C497.48,-161.01 498.42,-150.86 499.24,-141.99"/>
<polygon fill="midnightblue" stroke="midnightblue" points="502.75,-142.03 500.19,-131.75 495.78,-141.39 502.75,-142.03"/>
</g>
<!-- Node11&#45;&gt;Node8 -->
<g id="edge16" class="edge">
<title>Node11&#45;&gt;Node8</title>
<path fill="none" stroke="midnightblue" d="M512.57,-112.32C523.42,-104.18 539.88,-91.84 552.88,-82.09"/>
<polygon fill="midnightblue" stroke="midnightblue" points="555.32,-84.63 561.22,-75.83 551.12,-79.03 555.32,-84.63"/>
</g>
<!-- Node11&#45;&gt;Node9 -->
<g id="edge13" class="edge">
<title>Node11&#45;&gt;Node9</title>
<path fill="none" stroke="midnightblue" d="M502.1,-112.16C503.49,-99.64 505.55,-76.05 504,-56 503.32,-47.22 501.91,-37.56 500.53,-29.45"/>
<polygon fill="midnightblue" stroke="midnightblue" points="503.97,-28.8 498.74,-19.58 497.08,-30.04 503.97,-28.8"/>
</g>
<!-- Node12 -->
<g id="node12" class="node">
<title>Node12</title>
<g id="a_node12"><a xlink:href="fp_8cuh.html" target="_top" xlink:title=" ">
<polygon fill="white" stroke="black" points="447.5,-56.5 447.5,-75.5 494.5,-75.5 494.5,-56.5 447.5,-56.5"/>
<text text-anchor="middle" x="471" y="-63.5" font-family="Helvetica,sans-Serif" font-size="10.00">fp.cuh</text>
</a>
</g>
</g>
<!-- Node11&#45;&gt;Node12 -->
<g id="edge14" class="edge">
<title>Node11&#45;&gt;Node12</title>
<path fill="none" stroke="midnightblue" d="M496.05,-112.08C491.9,-104.61 485.85,-93.72 480.73,-84.52"/>
<polygon fill="midnightblue" stroke="midnightblue" points="483.78,-82.79 475.86,-75.75 477.66,-86.19 483.78,-82.79"/>
</g>
<!-- Node12&#45;&gt;Node9 -->
<g id="edge15" class="edge">
<title>Node12&#45;&gt;Node9</title>
<path fill="none" stroke="midnightblue" d="M475.29,-56.08C478.85,-48.69 484.02,-37.95 488.42,-28.81"/>
<polygon fill="midnightblue" stroke="midnightblue" points="491.6,-30.28 492.79,-19.75 485.29,-27.24 491.6,-30.28"/>
</g>
<!-- Node13&#45;&gt;Node4 -->
<g id="edge19" class="edge">
<title>Node13&#45;&gt;Node4</title>
<path fill="none" stroke="midnightblue" d="M238.43,-168.32C227.58,-160.18 211.12,-147.84 198.12,-138.09"/>
<polygon fill="midnightblue" stroke="midnightblue" points="199.88,-135.03 189.78,-131.83 195.68,-140.63 199.88,-135.03"/>
</g>
<!-- Node13&#45;&gt;Node7 -->
<g id="edge20" class="edge">
<title>Node13&#45;&gt;Node7</title>
<path fill="none" stroke="midnightblue" d="M262.05,-168.32C273.46,-160.11 290.83,-147.6 304.43,-137.81"/>
<polygon fill="midnightblue" stroke="midnightblue" points="306.66,-140.52 312.73,-131.83 302.57,-134.84 306.66,-140.52"/>
</g>
<!-- Node14 -->
<g id="node14" class="node">
<title>Node14</title>
<g id="a_node14"><a xlink:title=" ">
<polygon fill="white" stroke="#bfbfbf" points="221,-112.5 221,-131.5 279,-131.5 279,-112.5 221,-112.5"/>
<text text-anchor="middle" x="250" y="-119.5" font-family="Helvetica,sans-Serif" font-size="10.00">memory</text>
</a>
</g>
</g>
<!-- Node13&#45;&gt;Node14 -->
<g id="edge21" class="edge">
<title>Node13&#45;&gt;Node14</title>
<path fill="none" stroke="midnightblue" d="M250,-168.08C250,-161.01 250,-150.86 250,-141.99"/>
<polygon fill="midnightblue" stroke="midnightblue" points="253.5,-141.75 250,-131.75 246.5,-141.75 253.5,-141.75"/>
</g>
</g>
</svg>
