<?xml version="1.0" encoding="UTF-8" standalone="no"?>
<!DOCTYPE svg PUBLIC "-//W3C//DTD SVG 1.1//EN"
 "http://www.w3.org/Graphics/SVG/1.1/DTD/svg11.dtd">
<!-- Generated by graphviz version 2.43.0 (0)
 -->
<!-- Title: fk20_msm Pages: 1 -->
<svg width="581pt" height="294pt"
 viewBox="0.00 0.00 581.00 294.00" xmlns="http://www.w3.org/2000/svg" xmlns:xlink="http://www.w3.org/1999/xlink">
<g id="graph0" class="graph" transform="scale(1 1) rotate(0) translate(4 290)">
<title>fk20_msm</title>
<polygon fill="white" stroke="transparent" points="-4,4 -4,-290 577,-290 577,4 -4,4"/>
<!-- Node1 -->
<g id="node1" class="node">
<title>Node1</title>
<g id="a_node1"><a xlink:title="toeplitz_coefficients_fft + xext_fft &#45;&gt; hext_fft">
<polygon fill="#bfbfbf" stroke="black" points="0,-209.5 0,-228.5 68,-228.5 68,-209.5 0,-209.5"/>
<text text-anchor="middle" x="34" y="-216.5" font-family="Helvetica,sans-Serif" font-size="10.00">fk20_msm</text>
</a>
</g>
</g>
<!-- Node2 -->
<g id="node2" class="node">
<title>Node2</title>
<g id="a_node2"><a xlink:href="g1_8cuh.html#a62f5e933b08ca744b5e8c60f09d397ec" target="_top" xlink:title="Computes the sum of two points q into p, using projective coordinates. and stores in p.">
<polygon fill="white" stroke="black" points="104.5,-266.5 104.5,-285.5 162.5,-285.5 162.5,-266.5 104.5,-266.5"/>
<text text-anchor="middle" x="133.5" y="-273.5" font-family="Helvetica,sans-Serif" font-size="10.00">g1p_add</text>
</a>
</g>
</g>
<!-- Node1&#45;&gt;Node2 -->
<g id="edge1" class="edge">
<title>Node1&#45;&gt;Node2</title>
<path fill="none" stroke="midnightblue" d="M51.54,-228.67C66.76,-237.57 89.56,-250.9 107.09,-261.14"/>
<polygon fill="midnightblue" stroke="midnightblue" points="105.81,-264.45 116.2,-266.47 109.34,-258.4 105.81,-264.45"/>
</g>
<!-- Node3 -->
<g id="node3" class="node">
<title>Node3</title>
<g id="a_node3"><a xlink:href="g1_8cuh.html#a9d6fd1daf56b90adb23fc5ac3705d6fb" target="_top" xlink:title="Copy from q into p.">
<polygon fill="white" stroke="black" points="105,-228.5 105,-247.5 162,-247.5 162,-228.5 105,-228.5"/>
<text text-anchor="middle" x="133.5" y="-235.5" font-family="Helvetica,sans-Serif" font-size="10.00">g1p_cpy</text>
</a>
</g>
</g>
<!-- Node1&#45;&gt;Node3 -->
<g id="edge2" class="edge">
<title>Node1&#45;&gt;Node3</title>
<path fill="none" stroke="midnightblue" d="M68.01,-225.43C76.59,-227.1 85.89,-228.92 94.69,-230.63"/>
<polygon fill="midnightblue" stroke="midnightblue" points="94.24,-234.11 104.72,-232.59 95.58,-227.24 94.24,-234.11"/>
</g>
<!-- Node4 -->
<g id="node4" class="node">
<title>Node4</title>
<g id="a_node4"><a xlink:href="g1_8cuh.html#a15fe76c5e38260582200a074d6507f2c" target="_top" xlink:title="Set p to the point&#45;at&#45;infinity (0,1,0)">
<polygon fill="white" stroke="black" points="107,-190.5 107,-209.5 160,-209.5 160,-190.5 107,-190.5"/>
<text text-anchor="middle" x="133.5" y="-197.5" font-family="Helvetica,sans-Serif" font-size="10.00">g1p_inf</text>
</a>
</g>
</g>
<!-- Node1&#45;&gt;Node4 -->
<g id="edge3" class="edge">
<title>Node1&#45;&gt;Node4</title>
<path fill="none" stroke="midnightblue" d="M68.01,-212.57C77.34,-210.75 87.53,-208.76 97,-206.92"/>
<polygon fill="midnightblue" stroke="midnightblue" points="97.78,-210.33 106.92,-204.98 96.44,-203.46 97.78,-210.33"/>
</g>
<!-- Node5 -->
<g id="node5" class="node">
<title>Node5</title>
<g id="a_node5"><a xlink:href="g1_8cuh.html#a98781687d03d5e738745dcb61e0fc1f8" target="_top" xlink:title="p ← k·p Point multiplication by scalar, in projective coordinates. That result is stored back into p.">
<polygon fill="white" stroke="black" points="104,-152.5 104,-171.5 163,-171.5 163,-152.5 104,-152.5"/>
<text text-anchor="middle" x="133.5" y="-159.5" font-family="Helvetica,sans-Serif" font-size="10.00">g1p_mul</text>
</a>
</g>
</g>
<!-- Node1&#45;&gt;Node5 -->
<g id="edge4" class="edge">
<title>Node1&#45;&gt;Node5</title>
<path fill="none" stroke="midnightblue" d="M51.54,-209.33C66.76,-200.43 89.56,-187.1 107.09,-176.86"/>
<polygon fill="midnightblue" stroke="midnightblue" points="109.34,-179.6 116.2,-171.53 105.81,-173.55 109.34,-179.6"/>
</g>
<!-- Node6 -->
<g id="node6" class="node">
<title>Node6</title>
<g id="a_node6"><a xlink:href="fp_8cu.html#a38ff11c3699e6c472a5b310a4d0962ea" target="_top" xlink:title="Sets z to zero.">
<polygon fill="white" stroke="black" points="209,-171.5 209,-190.5 262,-190.5 262,-171.5 209,-171.5"/>
<text text-anchor="middle" x="235.5" y="-178.5" font-family="Helvetica,sans-Serif" font-size="10.00">fp_zero</text>
</a>
</g>
</g>
<!-- Node5&#45;&gt;Node6 -->
<g id="edge5" class="edge">
<title>Node5&#45;&gt;Node6</title>
<path fill="none" stroke="midnightblue" d="M163.16,-167.44C174.32,-169.56 187.22,-172.02 198.96,-174.25"/>
<polygon fill="midnightblue" stroke="midnightblue" points="198.43,-177.71 208.91,-176.14 199.74,-170.83 198.43,-177.71"/>
</g>
<!-- Node7 -->
<g id="node7" class="node">
<title>Node7</title>
<g id="a_node7"><a xlink:href="g1_8cuh.html#ac5e28dd7ae9a2d9f751792ffa5688346" target="_top" xlink:title="Check if the value stored in p is a valid point on the G1 curve.">
<polygon fill="white" stroke="black" points="199,-133.5 199,-152.5 272,-152.5 272,-133.5 199,-133.5"/>
<text text-anchor="middle" x="235.5" y="-140.5" font-family="Helvetica,sans-Serif" font-size="10.00">g1p_isPoint</text>
</a>
</g>
</g>
<!-- Node5&#45;&gt;Node7 -->
<g id="edge6" class="edge">
<title>Node5&#45;&gt;Node7</title>
<path fill="none" stroke="midnightblue" d="M163.16,-156.56C171.12,-155.04 179.97,-153.36 188.66,-151.71"/>
<polygon fill="midnightblue" stroke="midnightblue" points="189.54,-155.1 198.72,-149.8 188.24,-148.23 189.54,-155.1"/>
</g>
<!-- Node8 -->
<g id="node8" class="node">
<title>Node8</title>
<g id="a_node8"><a xlink:href="fp_8cuh.html#a38d4eadff7890b835dceb28d2adb7358" target="_top" xlink:title="Computes the sum of two residues x and y modulo p and stores it in z. Device only function.">
<polygon fill="white" stroke="black" points="313.5,-266.5 313.5,-285.5 363.5,-285.5 363.5,-266.5 313.5,-266.5"/>
<text text-anchor="middle" x="338.5" y="-273.5" font-family="Helvetica,sans-Serif" font-size="10.00">fp_add</text>
</a>
</g>
</g>
<!-- Node7&#45;&gt;Node8 -->
<g id="edge7" class="edge">
<title>Node7&#45;&gt;Node8</title>
<path fill="none" stroke="midnightblue" d="M259.95,-152.52C264.37,-155.11 268.64,-158.25 272,-162 300.73,-194.1 282.47,-217.3 308,-252 310,-254.71 312.37,-257.3 314.88,-259.7"/>
<polygon fill="midnightblue" stroke="midnightblue" points="312.76,-262.48 322.65,-266.28 317.29,-257.15 312.76,-262.48"/>
</g>
<!-- Node9 -->
<g id="node9" class="node">
<title>Node9</title>
<g id="a_node9"><a xlink:href="fp_8cuh.html#aa84fc3bc6fd35779512d8f14938df96d" target="_top" xlink:title="Copy from x into z.">
<polygon fill="white" stroke="black" points="513,-190.5 513,-209.5 562,-209.5 562,-190.5 513,-190.5"/>
<text text-anchor="middle" x="537.5" y="-197.5" font-family="Helvetica,sans-Serif" font-size="10.00">fp_cpy</text>
</a>
</g>
</g>
<!-- Node7&#45;&gt;Node9 -->
<g id="edge8" class="edge">
<title>Node7&#45;&gt;Node9</title>
<path fill="none" stroke="midnightblue" d="M258.7,-152.6C263.4,-155.24 268.11,-158.38 272,-162 293.93,-182.41 281.76,-204.54 308,-219 370.68,-253.55 458.04,-230.19 504.48,-213.23"/>
<polygon fill="midnightblue" stroke="midnightblue" points="505.9,-216.43 514.02,-209.62 503.43,-209.89 505.9,-216.43"/>
</g>
<!-- Node10 -->
<g id="node10" class="node">
<title>Node10</title>
<g id="a_node10"><a xlink:href="fp_8cuh.html#ade1abe61dfb7cbe9b00d78a38dda4bd3" target="_top" xlink:title="Compares two residues modulo p.">
<polygon fill="white" stroke="black" points="316.5,-114.5 316.5,-133.5 360.5,-133.5 360.5,-114.5 316.5,-114.5"/>
<text text-anchor="middle" x="338.5" y="-121.5" font-family="Helvetica,sans-Serif" font-size="10.00">fp_eq</text>
</a>
</g>
</g>
<!-- Node7&#45;&gt;Node10 -->
<g id="edge9" class="edge">
<title>Node7&#45;&gt;Node10</title>
<path fill="none" stroke="midnightblue" d="M272.11,-136.3C283.3,-134.2 295.56,-131.89 306.41,-129.85"/>
<polygon fill="midnightblue" stroke="midnightblue" points="307.12,-133.28 316.3,-127.99 305.83,-126.4 307.12,-133.28"/>
</g>
<!-- Node11 -->
<g id="node11" class="node">
<title>Node11</title>
<g id="a_node11"><a xlink:href="fp_8cuh.html#a45eab81e60385635ab4732360f94ec91" target="_top" xlink:title="Checks if the residue x modulo p is congruent to zero.">
<polygon fill="white" stroke="black" points="405,-152.5 405,-171.5 466,-171.5 466,-152.5 405,-152.5"/>
<text text-anchor="middle" x="435.5" y="-159.5" font-family="Helvetica,sans-Serif" font-size="10.00">fp_iszero</text>
</a>
</g>
</g>
<!-- Node7&#45;&gt;Node11 -->
<g id="edge14" class="edge">
<title>Node7&#45;&gt;Node11</title>
<path fill="none" stroke="midnightblue" d="M272.36,-146.44C306.84,-149.75 358.87,-154.74 394.64,-158.18"/>
<polygon fill="midnightblue" stroke="midnightblue" points="394.44,-161.67 404.73,-159.14 395.11,-154.7 394.44,-161.67"/>
</g>
<!-- Node14 -->
<g id="node14" class="node">
<title>Node14</title>
<g id="a_node14"><a xlink:href="fp_8cuh.html#a9f82a12248e7c53ac9d166e25e083bba" target="_top" xlink:title="Multiplies two Fp residues x and y, stores in z.">
<polygon fill="white" stroke="black" points="313.5,-76.5 313.5,-95.5 363.5,-95.5 363.5,-76.5 313.5,-76.5"/>
<text text-anchor="middle" x="338.5" y="-83.5" font-family="Helvetica,sans-Serif" font-size="10.00">fp_mul</text>
</a>
</g>
</g>
<!-- Node7&#45;&gt;Node14 -->
<g id="edge15" class="edge">
<title>Node7&#45;&gt;Node14</title>
<path fill="none" stroke="midnightblue" d="M253.63,-133.33C269.54,-124.35 293.46,-110.86 311.68,-100.57"/>
<polygon fill="midnightblue" stroke="midnightblue" points="313.63,-103.49 320.62,-95.53 310.19,-97.39 313.63,-103.49"/>
</g>
<!-- Node15 -->
<g id="node15" class="node">
<title>Node15</title>
<g id="a_node15"><a xlink:href="fp_8cuh.html#a74e253977f8412787ed920e5a07de414" target="_top" xlink:title="Computes the square of the residue x modulo p and stores it in z.">
<polygon fill="white" stroke="black" points="315,-38.5 315,-57.5 362,-57.5 362,-38.5 315,-38.5"/>
<text text-anchor="middle" x="338.5" y="-45.5" font-family="Helvetica,sans-Serif" font-size="10.00">fp_sqr</text>
</a>
</g>
</g>
<!-- Node7&#45;&gt;Node15 -->
<g id="edge16" class="edge">
<title>Node7&#45;&gt;Node15</title>
<path fill="none" stroke="midnightblue" d="M244.21,-133.41C256.65,-118.26 282.38,-88.32 308,-67 309.51,-65.74 311.11,-64.5 312.75,-63.29"/>
<polygon fill="midnightblue" stroke="midnightblue" points="314.81,-66.12 321.08,-57.57 310.85,-60.35 314.81,-66.12"/>
</g>
<!-- Node16 -->
<g id="node16" class="node">
<title>Node16</title>
<g id="a_node16"><a xlink:href="fp_8cuh.html#a6fe5404e5c3813ab6944ed160eea3adb" target="_top" xlink:title="Multiplies x by 4 and stores the result into z.">
<polygon fill="white" stroke="black" points="316.5,-0.5 316.5,-19.5 360.5,-19.5 360.5,-0.5 316.5,-0.5"/>
<text text-anchor="middle" x="338.5" y="-7.5" font-family="Helvetica,sans-Serif" font-size="10.00">fp_x4</text>
</a>
</g>
</g>
<!-- Node7&#45;&gt;Node16 -->
<g id="edge17" class="edge">
<title>Node7&#45;&gt;Node16</title>
<path fill="none" stroke="midnightblue" d="M240.7,-133.48C250.24,-112.61 275.32,-62.07 308,-29 309.07,-27.92 310.21,-26.86 311.4,-25.85"/>
<polygon fill="midnightblue" stroke="midnightblue" points="313.76,-28.45 319.7,-19.68 309.59,-22.84 313.76,-28.45"/>
</g>
<!-- Node17 -->
<g id="node17" class="node">
<title>Node17</title>
<g id="a_node17"><a xlink:href="g1p__ispoint_8cu.html#aefda685f50e444161695d95042c312d5" target="_top" xlink:title="Check if the value stored in p is the the/any point at infinity. This implementation uses (0,...">
<polygon fill="white" stroke="black" points="308,-190.5 308,-209.5 369,-209.5 369,-190.5 308,-190.5"/>
<text text-anchor="middle" x="338.5" y="-197.5" font-family="Helvetica,sans-Serif" font-size="10.00">g1p_isInf</text>
</a>
</g>
</g>
<!-- Node7&#45;&gt;Node17 -->
<g id="edge18" class="edge">
<title>Node7&#45;&gt;Node17</title>
<path fill="none" stroke="midnightblue" d="M254.62,-152.55C260.22,-155.53 266.38,-158.87 272,-162 285.54,-169.55 300.51,-178.21 312.71,-185.35"/>
<polygon fill="midnightblue" stroke="midnightblue" points="311.04,-188.43 321.44,-190.48 314.59,-182.39 311.04,-188.43"/>
</g>
<!-- Node10&#45;&gt;Node11 -->
<g id="edge10" class="edge">
<title>Node10&#45;&gt;Node11</title>
<path fill="none" stroke="midnightblue" d="M360.58,-132.43C372.46,-137.18 387.57,-143.23 401.02,-148.61"/>
<polygon fill="midnightblue" stroke="midnightblue" points="399.88,-151.92 410.46,-152.38 402.48,-145.42 399.88,-151.92"/>
</g>
<!-- Node13 -->
<g id="node13" class="node">
<title>Node13</title>
<g id="a_node13"><a xlink:href="fp_8cuh.html#aff96ec3f32ad9c0419911604d5fefe44" target="_top" xlink:title="Calculates the difference of two residues modulo p and stores it into z.">
<polygon fill="white" stroke="black" points="411,-114.5 411,-133.5 460,-133.5 460,-114.5 411,-114.5"/>
<text text-anchor="middle" x="435.5" y="-121.5" font-family="Helvetica,sans-Serif" font-size="10.00">fp_sub</text>
</a>
</g>
</g>
<!-- Node10&#45;&gt;Node13 -->
<g id="edge13" class="edge">
<title>Node10&#45;&gt;Node13</title>
<path fill="none" stroke="midnightblue" d="M360.58,-124C372.32,-124 387.2,-124 400.53,-124"/>
<polygon fill="midnightblue" stroke="midnightblue" points="400.8,-127.5 410.8,-124 400.8,-120.5 400.8,-127.5"/>
</g>
<!-- Node11&#45;&gt;Node9 -->
<g id="edge11" class="edge">
<title>Node11&#45;&gt;Node9</title>
<path fill="none" stroke="midnightblue" d="M461.73,-171.59C474.4,-176.4 489.9,-182.29 503.49,-187.46"/>
<polygon fill="midnightblue" stroke="midnightblue" points="502.4,-190.79 512.99,-191.07 504.89,-184.24 502.4,-190.79"/>
</g>
<!-- Node12 -->
<g id="node12" class="node">
<title>Node12</title>
<g id="a_node12"><a xlink:href="fp_8cuh.html#a89b41553cb5af629dd8ac33b71d03ee1" target="_top" xlink:title="Narrow reduction of a residue modulo p, reducing to the canonical representation.">
<polygon fill="white" stroke="black" points="502,-152.5 502,-171.5 573,-171.5 573,-152.5 502,-152.5"/>
<text text-anchor="middle" x="537.5" y="-159.5" font-family="Helvetica,sans-Serif" font-size="10.00">fp_reduce6</text>
</a>
</g>
</g>
<!-- Node11&#45;&gt;Node12 -->
<g id="edge12" class="edge">
<title>Node11&#45;&gt;Node12</title>
<path fill="none" stroke="midnightblue" d="M466.23,-162C474.17,-162 482.93,-162 491.5,-162"/>
<polygon fill="midnightblue" stroke="midnightblue" points="491.78,-165.5 501.78,-162 491.78,-158.5 491.78,-165.5"/>
</g>
<!-- Node17&#45;&gt;Node11 -->
<g id="edge22" class="edge">
<title>Node17&#45;&gt;Node11</title>
<path fill="none" stroke="midnightblue" d="M363.47,-190.41C374.84,-185.87 388.6,-180.36 400.98,-175.41"/>
<polygon fill="midnightblue" stroke="midnightblue" points="402.55,-178.55 410.54,-171.59 399.95,-172.05 402.55,-178.55"/>
</g>
<!-- Node18 -->
<g id="node18" class="node">
<title>Node18</title>
<g id="a_node18"><a xlink:href="fp_8cuh.html#acf26ba4d56d7ff54adc93a6e1bcaeab1" target="_top" xlink:title="Checks if the residue x modulo p is congruent to one.">
<polygon fill="white" stroke="black" points="406.5,-190.5 406.5,-209.5 464.5,-209.5 464.5,-190.5 406.5,-190.5"/>
<text text-anchor="middle" x="435.5" y="-197.5" font-family="Helvetica,sans-Serif" font-size="10.00">fp_isone</text>
</a>
</g>
</g>
<!-- Node17&#45;&gt;Node18 -->
<g id="edge19" class="edge">
<title>Node17&#45;&gt;Node18</title>
<path fill="none" stroke="midnightblue" d="M369.04,-200C377.57,-200 387.01,-200 396.01,-200"/>
<polygon fill="midnightblue" stroke="midnightblue" points="396.28,-203.5 406.28,-200 396.28,-196.5 396.28,-203.5"/>
</g>
<!-- Node18&#45;&gt;Node9 -->
<g id="edge20" class="edge">
<title>Node18&#45;&gt;Node9</title>
<path fill="none" stroke="midnightblue" d="M464.62,-200C476.54,-200 490.52,-200 502.96,-200"/>
<polygon fill="midnightblue" stroke="midnightblue" points="502.98,-203.5 512.98,-200 502.98,-196.5 502.98,-203.5"/>
</g>
<!-- Node18&#45;&gt;Node12 -->
<g id="edge21" class="edge">
<title>Node18&#45;&gt;Node12</title>
<path fill="none" stroke="midnightblue" d="M461.73,-190.41C473.81,-185.82 488.47,-180.25 501.6,-175.26"/>
<polygon fill="midnightblue" stroke="midnightblue" points="503.17,-178.41 511.27,-171.59 500.68,-171.87 503.17,-178.41"/>
</g>
</g>
</svg>
