<?xml version="1.0" encoding="UTF-8" standalone="no"?>
<!DOCTYPE svg PUBLIC "-//W3C//DTD SVG 1.1//EN"
 "http://www.w3.org/Graphics/SVG/1.1/DTD/svg11.dtd">
<!-- Generated by graphviz version 2.43.0 (0)
 -->
<!-- Title: fk20_hext_fft2h_fft.cu Pages: 1 -->
<svg width="212pt" height="252pt"
 viewBox="0.00 0.00 211.50 252.00" xmlns="http://www.w3.org/2000/svg" xmlns:xlink="http://www.w3.org/1999/xlink">
<g id="graph0" class="graph" transform="scale(1 1) rotate(0) translate(4 248)">
<title>fk20_hext_fft2h_fft.cu</title>
<polygon fill="white" stroke="transparent" points="-4,4 -4,-248 207.5,-248 207.5,4 -4,4"/>
<!-- Node1 -->
<g id="node1" class="node">
<title>Node1</title>
<g id="a_node1"><a xlink:title=" ">
<polygon fill="#bfbfbf" stroke="black" points="35.5,-224.5 35.5,-243.5 158.5,-243.5 158.5,-224.5 35.5,-224.5"/>
<text text-anchor="middle" x="97" y="-231.5" font-family="Helvetica,sans-Serif" font-size="10.00">fk20_hext_fft2h_fft.cu</text>
</a>
</g>
</g>
<!-- Node2 -->
<g id="node2" class="node">
<title>Node2</title>
<g id="a_node2"><a xlink:title=" ">
<polygon fill="white" stroke="#bfbfbf" points="0,-168.5 0,-187.5 50,-187.5 50,-168.5 0,-168.5"/>
<text text-anchor="middle" x="25" y="-175.5" font-family="Helvetica,sans-Serif" font-size="10.00">stdio.h</text>
</a>
</g>
</g>
<!-- Node1&#45;&gt;Node2 -->
<g id="edge1" class="edge">
<title>Node1&#45;&gt;Node2</title>
<path fill="none" stroke="midnightblue" d="M85.43,-224.32C74.58,-216.18 58.12,-203.84 45.12,-194.09"/>
<polygon fill="midnightblue" stroke="midnightblue" points="46.88,-191.03 36.78,-187.83 42.68,-196.63 46.88,-191.03"/>
</g>
<!-- Node3 -->
<g id="node3" class="node">
<title>Node3</title>
<g id="a_node3"><a xlink:href="fr_8cuh.html" target="_top" xlink:title=" ">
<polygon fill="white" stroke="black" points="113,-56.5 113,-75.5 157,-75.5 157,-56.5 113,-56.5"/>
<text text-anchor="middle" x="135" y="-63.5" font-family="Helvetica,sans-Serif" font-size="10.00">fr.cuh</text>
</a>
</g>
</g>
<!-- Node1&#45;&gt;Node3 -->
<g id="edge2" class="edge">
<title>Node1&#45;&gt;Node3</title>
<path fill="none" stroke="midnightblue" d="M99.04,-224.08C105.02,-197.95 122.59,-121.21 130.75,-85.58"/>
<polygon fill="midnightblue" stroke="midnightblue" points="134.22,-86.1 133.04,-75.57 127.4,-84.53 134.22,-86.1"/>
</g>
<!-- Node5 -->
<g id="node5" class="node">
<title>Node5</title>
<g id="a_node5"><a xlink:href="g1_8cuh.html" target="_top" xlink:title=" ">
<polygon fill="white" stroke="black" points="38.5,-112.5 38.5,-131.5 87.5,-131.5 87.5,-112.5 38.5,-112.5"/>
<text text-anchor="middle" x="63" y="-119.5" font-family="Helvetica,sans-Serif" font-size="10.00">g1.cuh</text>
</a>
</g>
</g>
<!-- Node1&#45;&gt;Node5 -->
<g id="edge4" class="edge">
<title>Node1&#45;&gt;Node5</title>
<path fill="none" stroke="midnightblue" d="M94.33,-224.37C88.82,-206.54 76.07,-165.3 68.65,-141.27"/>
<polygon fill="midnightblue" stroke="midnightblue" points="71.95,-140.11 65.66,-131.59 65.26,-142.18 71.95,-140.11"/>
</g>
<!-- Node7 -->
<g id="node7" class="node">
<title>Node7</title>
<g id="a_node7"><a xlink:href="fk20_8cuh.html" target="_top" xlink:title=" ">
<polygon fill="white" stroke="black" points="144.5,-168.5 144.5,-187.5 203.5,-187.5 203.5,-168.5 144.5,-168.5"/>
<text text-anchor="middle" x="174" y="-175.5" font-family="Helvetica,sans-Serif" font-size="10.00">fk20.cuh</text>
</a>
</g>
</g>
<!-- Node1&#45;&gt;Node7 -->
<g id="edge9" class="edge">
<title>Node1&#45;&gt;Node7</title>
<path fill="none" stroke="midnightblue" d="M109.37,-224.32C121.16,-216.06 139.13,-203.45 153.14,-193.63"/>
<polygon fill="midnightblue" stroke="midnightblue" points="155.48,-196.26 161.66,-187.65 151.46,-190.53 155.48,-196.26"/>
</g>
<!-- Node4 -->
<g id="node4" class="node">
<title>Node4</title>
<g id="a_node4"><a xlink:title=" ">
<polygon fill="white" stroke="#bfbfbf" points="76.5,-0.5 76.5,-19.5 129.5,-19.5 129.5,-0.5 76.5,-0.5"/>
<text text-anchor="middle" x="103" y="-7.5" font-family="Helvetica,sans-Serif" font-size="10.00">stdint.h</text>
</a>
</g>
</g>
<!-- Node3&#45;&gt;Node4 -->
<g id="edge3" class="edge">
<title>Node3&#45;&gt;Node4</title>
<path fill="none" stroke="midnightblue" d="M129.72,-56.08C125.29,-48.61 118.84,-37.72 113.38,-28.52"/>
<polygon fill="midnightblue" stroke="midnightblue" points="116.29,-26.57 108.19,-19.75 110.27,-30.14 116.29,-26.57"/>
</g>
<!-- Node5&#45;&gt;Node3 -->
<g id="edge8" class="edge">
<title>Node5&#45;&gt;Node3</title>
<path fill="none" stroke="midnightblue" d="M74.57,-112.32C85.42,-104.18 101.88,-91.84 114.88,-82.09"/>
<polygon fill="midnightblue" stroke="midnightblue" points="117.32,-84.63 123.22,-75.83 113.12,-79.03 117.32,-84.63"/>
</g>
<!-- Node5&#45;&gt;Node4 -->
<g id="edge5" class="edge">
<title>Node5&#45;&gt;Node4</title>
<path fill="none" stroke="midnightblue" d="M55.03,-112.31C44.36,-99.58 27.9,-75.28 38,-56 45.28,-42.11 59.01,-31.65 71.98,-24.33"/>
<polygon fill="midnightblue" stroke="midnightblue" points="73.93,-27.27 81.19,-19.55 70.7,-21.05 73.93,-27.27"/>
</g>
<!-- Node6 -->
<g id="node6" class="node">
<title>Node6</title>
<g id="a_node6"><a xlink:href="fp_8cuh.html" target="_top" xlink:title=" ">
<polygon fill="white" stroke="black" points="47.5,-56.5 47.5,-75.5 94.5,-75.5 94.5,-56.5 47.5,-56.5"/>
<text text-anchor="middle" x="71" y="-63.5" font-family="Helvetica,sans-Serif" font-size="10.00">fp.cuh</text>
</a>
</g>
</g>
<!-- Node5&#45;&gt;Node6 -->
<g id="edge6" class="edge">
<title>Node5&#45;&gt;Node6</title>
<path fill="none" stroke="midnightblue" d="M64.32,-112.08C65.38,-104.93 66.91,-94.64 68.23,-85.69"/>
<polygon fill="midnightblue" stroke="midnightblue" points="71.7,-86.16 69.7,-75.75 64.78,-85.13 71.7,-86.16"/>
</g>
<!-- Node6&#45;&gt;Node4 -->
<g id="edge7" class="edge">
<title>Node6&#45;&gt;Node4</title>
<path fill="none" stroke="midnightblue" d="M76.28,-56.08C80.71,-48.61 87.16,-37.72 92.62,-28.52"/>
<polygon fill="midnightblue" stroke="midnightblue" points="95.73,-30.14 97.81,-19.75 89.71,-26.57 95.73,-30.14"/>
</g>
<!-- Node7&#45;&gt;Node3 -->
<g id="edge11" class="edge">
<title>Node7&#45;&gt;Node3</title>
<path fill="none" stroke="midnightblue" d="M170.94,-168.37C164.62,-150.54 150,-109.3 141.48,-85.27"/>
<polygon fill="midnightblue" stroke="midnightblue" points="144.69,-83.85 138.05,-75.59 138.09,-86.19 144.69,-83.85"/>
</g>
<!-- Node7&#45;&gt;Node4 -->
<g id="edge10" class="edge">
<title>Node7&#45;&gt;Node4</title>
<path fill="none" stroke="midnightblue" d="M175.79,-168.39C179.64,-147.54 186.8,-93.33 166,-56 158.42,-42.39 144.79,-31.89 132.15,-24.46"/>
<polygon fill="midnightblue" stroke="midnightblue" points="133.67,-21.3 123.22,-19.59 130.32,-27.45 133.67,-21.3"/>
</g>
<!-- Node7&#45;&gt;Node5 -->
<g id="edge12" class="edge">
<title>Node7&#45;&gt;Node5</title>
<path fill="none" stroke="midnightblue" d="M156.17,-168.32C138.28,-159.62 110.52,-146.12 89.95,-136.11"/>
<polygon fill="midnightblue" stroke="midnightblue" points="91.31,-132.88 80.79,-131.65 88.25,-139.18 91.31,-132.88"/>
</g>
</g>
</svg>
