<?xml version="1.0" encoding="UTF-8" standalone="no"?>
<!DOCTYPE svg PUBLIC "-//W3C//DTD SVG 1.1//EN"
 "http://www.w3.org/Graphics/SVG/1.1/DTD/svg11.dtd">
<!-- Generated by graphviz version 2.43.0 (0)
 -->
<!-- Title: fp_one Pages: 1 -->
<svg width="265pt" height="28pt"
 viewBox="0.00 0.00 265.00 28.00" xmlns="http://www.w3.org/2000/svg" xmlns:xlink="http://www.w3.org/1999/xlink">
<g id="graph0" class="graph" transform="scale(1 1) rotate(0) translate(4 24)">
<title>fp_one</title>
<polygon fill="white" stroke="transparent" points="-4,4 -4,-24 261,-24 261,4 -4,4"/>
<!-- Node1 -->
<g id="node1" class="node">
<title>Node1</title>
<g id="a_node1"><a xlink:title="Sets z to one.">
<polygon fill="#bfbfbf" stroke="black" points="207,-0.5 207,-19.5 257,-19.5 257,-0.5 207,-0.5"/>
<text text-anchor="middle" x="232" y="-7.5" font-family="Helvetica,sans-Serif" font-size="10.00">fp_one</text>
</a>
</g>
</g>
<!-- Node2 -->
<g id="node2" class="node">
<title>Node2</title>
<g id="a_node2"><a xlink:href="fptest__fibonacci_8cu.html#abda81ae89575b2d141b6b78699782167" target="_top" xlink:title="Test addition and subtraction in Fp using a fibonacci sequence (chain dependency) from 1 to ITERATION...">
<polygon fill="white" stroke="black" points="77,-0.5 77,-19.5 171,-19.5 171,-0.5 77,-0.5"/>
<text text-anchor="middle" x="124" y="-7.5" font-family="Helvetica,sans-Serif" font-size="10.00">FpTestFibonacci</text>
</a>
</g>
</g>
<!-- Node1&#45;&gt;Node2 -->
<g id="edge1" class="edge">
<title>Node1&#45;&gt;Node2</title>
<path fill="none" stroke="midnightblue" d="M196.69,-10C188.52,-10 179.68,-10 171.09,-10"/>
<polygon fill="midnightblue" stroke="midnightblue" points="196.95,-13.5 206.95,-10 196.95,-6.5 196.95,-13.5"/>
</g>
<!-- Node3 -->
<g id="node3" class="node">
<title>Node3</title>
<g id="a_node3"><a xlink:href="fptest_8cu.html#a3c04138a5bfe5d72780bb7e82a18e627" target="_top" xlink:title="Run tests on Fp functions.">
<polygon fill="white" stroke="black" points="0,-0.5 0,-19.5 41,-19.5 41,-0.5 0,-0.5"/>
<text text-anchor="middle" x="20.5" y="-7.5" font-family="Helvetica,sans-Serif" font-size="10.00">main</text>
</a>
</g>
</g>
<!-- Node2&#45;&gt;Node3 -->
<g id="edge2" class="edge">
<title>Node2&#45;&gt;Node3</title>
<path fill="none" stroke="midnightblue" d="M66.69,-10C57.49,-10 48.54,-10 41.06,-10"/>
<polygon fill="midnightblue" stroke="midnightblue" points="66.71,-13.5 76.71,-10 66.71,-6.5 66.71,-13.5"/>
</g>
</g>
</svg>
