<?xml version="1.0" encoding="UTF-8" standalone="no"?>
<!DOCTYPE svg PUBLIC "-//W3C//DTD SVG 1.1//EN"
 "http://www.w3.org/Graphics/SVG/1.1/DTD/svg11.dtd">
<!-- Generated by graphviz version 2.43.0 (0)
 -->
<!-- Title: fp_fromUint64 Pages: 1 -->
<svg width="303pt" height="104pt"
 viewBox="0.00 0.00 303.00 104.00" xmlns="http://www.w3.org/2000/svg" xmlns:xlink="http://www.w3.org/1999/xlink">
<g id="graph0" class="graph" transform="scale(1 1) rotate(0) translate(4 100)">
<title>fp_fromUint64</title>
<polygon fill="white" stroke="transparent" points="-4,4 -4,-100 299,-100 299,4 -4,4"/>
<!-- Node1 -->
<g id="node1" class="node">
<title>Node1</title>
<g id="a_node1"><a xlink:title="Converts uint64_t[6] to fp_t. After this operation, z represents x mod p.">
<polygon fill="#bfbfbf" stroke="black" points="208,-38.5 208,-57.5 295,-57.5 295,-38.5 208,-38.5"/>
<text text-anchor="middle" x="251.5" y="-45.5" font-family="Helvetica,sans-Serif" font-size="10.00">fp_fromUint64</text>
</a>
</g>
</g>
<!-- Node2 -->
<g id="node2" class="node">
<title>Node2</title>
<g id="a_node2"><a xlink:href="fptest__inv_8cu.html#a6f2303acedfea539e4906eb119ae0194" target="_top" xlink:title="Test for multiplicative inverse mod p in Fp.">
<polygon fill="white" stroke="black" points="93,-76.5 93,-95.5 156,-95.5 156,-76.5 93,-76.5"/>
<text text-anchor="middle" x="124.5" y="-83.5" font-family="Helvetica,sans-Serif" font-size="10.00">FpTestInv</text>
</a>
</g>
</g>
<!-- Node1&#45;&gt;Node2 -->
<g id="edge1" class="edge">
<title>Node1&#45;&gt;Node2</title>
<path fill="none" stroke="midnightblue" d="M209.11,-60.58C191.83,-65.83 172.12,-71.83 156.17,-76.68"/>
<polygon fill="midnightblue" stroke="midnightblue" points="210.41,-63.85 218.96,-57.59 208.37,-57.15 210.41,-63.85"/>
</g>
<!-- Node4 -->
<g id="node4" class="node">
<title>Node4</title>
<g id="a_node4"><a xlink:href="fptest__mul_8cu.html#a175206903f14095d2a9ab7d1c8d830af" target="_top" xlink:title="Multiplication test, comparing with the native uint64_t multiplication.">
<polygon fill="white" stroke="black" points="91.5,-38.5 91.5,-57.5 157.5,-57.5 157.5,-38.5 91.5,-38.5"/>
<text text-anchor="middle" x="124.5" y="-45.5" font-family="Helvetica,sans-Serif" font-size="10.00">FpTestMul</text>
</a>
</g>
</g>
<!-- Node1&#45;&gt;Node4 -->
<g id="edge3" class="edge">
<title>Node1&#45;&gt;Node4</title>
<path fill="none" stroke="midnightblue" d="M197.62,-48C184.06,-48 169.88,-48 157.72,-48"/>
<polygon fill="midnightblue" stroke="midnightblue" points="197.83,-51.5 207.83,-48 197.83,-44.5 197.83,-51.5"/>
</g>
<!-- Node5 -->
<g id="node5" class="node">
<title>Node5</title>
<g id="a_node5"><a xlink:href="g1p_8cu.html#a31fb75b21df2c5265f0c5829a58d8947" target="_top" xlink:title="Converts arrays of uint64_t into a G1 point. Each array must be uint64_t[6] This function does not va...">
<polygon fill="white" stroke="black" points="77,-0.5 77,-19.5 172,-19.5 172,-0.5 77,-0.5"/>
<text text-anchor="middle" x="124.5" y="-7.5" font-family="Helvetica,sans-Serif" font-size="10.00">g1p_fromUint64</text>
</a>
</g>
</g>
<!-- Node1&#45;&gt;Node5 -->
<g id="edge5" class="edge">
<title>Node1&#45;&gt;Node5</title>
<path fill="none" stroke="midnightblue" d="M209.27,-35.46C192.26,-30.3 172.87,-24.4 157.03,-19.59"/>
<polygon fill="midnightblue" stroke="midnightblue" points="208.37,-38.85 218.96,-38.41 210.41,-32.15 208.37,-38.85"/>
</g>
<!-- Node3 -->
<g id="node3" class="node">
<title>Node3</title>
<g id="a_node3"><a xlink:href="fptest_8cu.html#a3c04138a5bfe5d72780bb7e82a18e627" target="_top" xlink:title="Run tests on Fp functions.">
<polygon fill="white" stroke="black" points="0,-57.5 0,-76.5 41,-76.5 41,-57.5 0,-57.5"/>
<text text-anchor="middle" x="20.5" y="-64.5" font-family="Helvetica,sans-Serif" font-size="10.00">main</text>
</a>
</g>
</g>
<!-- Node2&#45;&gt;Node3 -->
<g id="edge2" class="edge">
<title>Node2&#45;&gt;Node3</title>
<path fill="none" stroke="midnightblue" d="M82.73,-78.41C68.4,-75.74 52.94,-72.86 41.14,-70.66"/>
<polygon fill="midnightblue" stroke="midnightblue" points="82.42,-81.91 92.9,-80.3 83.71,-75.03 82.42,-81.91"/>
</g>
<!-- Node4&#45;&gt;Node3 -->
<g id="edge4" class="edge">
<title>Node4&#45;&gt;Node3</title>
<path fill="none" stroke="midnightblue" d="M81.3,-55.86C67.36,-58.46 52.52,-61.22 41.11,-63.35"/>
<polygon fill="midnightblue" stroke="midnightblue" points="82.04,-59.28 91.23,-54.01 80.75,-52.4 82.04,-59.28"/>
</g>
</g>
</svg>
