<?xml version="1.0" encoding="UTF-8" standalone="no"?>
<!DOCTYPE svg PUBLIC "-//W3C//DTD SVG 1.1//EN"
 "http://www.w3.org/Graphics/SVG/1.1/DTD/svg11.dtd">
<!-- Generated by graphviz version 2.43.0 (0)
 -->
<!-- Title: fp_neq Pages: 1 -->
<svg width="305pt" height="370pt"
 viewBox="0.00 0.00 305.00 370.00" xmlns="http://www.w3.org/2000/svg" xmlns:xlink="http://www.w3.org/1999/xlink">
<g id="graph0" class="graph" transform="scale(1 1) rotate(0) translate(4 366)">
<title>fp_neq</title>
<polygon fill="white" stroke="transparent" points="-4,4 -4,-366 301,-366 301,4 -4,4"/>
<!-- Node1 -->
<g id="node1" class="node">
<title>Node1</title>
<g id="a_node1"><a xlink:title="Compares two fp_t residues.">
<polygon fill="#bfbfbf" stroke="black" points="247,-171.5 247,-190.5 297,-190.5 297,-171.5 247,-171.5"/>
<text text-anchor="middle" x="272" y="-178.5" font-family="Helvetica,sans-Serif" font-size="10.00">fp_neq</text>
</a>
</g>
</g>
<!-- Node2 -->
<g id="node2" class="node">
<title>Node2</title>
<g id="a_node2"><a xlink:href="fptest__add_8cu.html#abfc772410295adcd309501a61369756c" target="_top" xlink:title="Test for addition in Fp.">
<polygon fill="white" stroke="black" points="110.5,-342.5 110.5,-361.5 177.5,-361.5 177.5,-342.5 110.5,-342.5"/>
<text text-anchor="middle" x="144" y="-349.5" font-family="Helvetica,sans-Serif" font-size="10.00">FpTestAdd</text>
</a>
</g>
</g>
<!-- Node1&#45;&gt;Node2 -->
<g id="edge1" class="edge">
<title>Node1&#45;&gt;Node2</title>
<path fill="none" stroke="midnightblue" d="M268.76,-200.89C264.04,-233.31 250.07,-297.5 211,-333 201.91,-341.26 189.45,-345.95 177.8,-348.6"/>
<polygon fill="midnightblue" stroke="midnightblue" points="272.25,-201.21 270.07,-190.84 265.31,-200.31 272.25,-201.21"/>
</g>
<!-- Node4 -->
<g id="node4" class="node">
<title>Node4</title>
<g id="a_node4"><a xlink:href="fptest__cmp_8cu.html#ab50f86ef663e84179ddb39fdca3c6bfc" target="_top" xlink:title="Test for the comparison function in Fp; checks for inconsistencies in the following properties:">
<polygon fill="white" stroke="black" points="108.5,-304.5 108.5,-323.5 179.5,-323.5 179.5,-304.5 108.5,-304.5"/>
<text text-anchor="middle" x="144" y="-311.5" font-family="Helvetica,sans-Serif" font-size="10.00">FpTestCmp</text>
</a>
</g>
</g>
<!-- Node1&#45;&gt;Node4 -->
<g id="edge3" class="edge">
<title>Node1&#45;&gt;Node4</title>
<path fill="none" stroke="midnightblue" d="M265.91,-200.56C258.26,-226.04 241.37,-270.28 211,-295 202.12,-302.23 190.62,-306.71 179.71,-309.48"/>
<polygon fill="midnightblue" stroke="midnightblue" points="269.37,-201.17 268.71,-190.59 262.63,-199.27 269.37,-201.17"/>
</g>
<!-- Node5 -->
<g id="node5" class="node">
<title>Node5</title>
<g id="a_node5"><a xlink:href="fptest__add_8cu.html#acbe50a6524e6e4288042aa5596559ad7" target="_top" xlink:title="Test for the commutative property of addition in Fp.">
<polygon fill="white" stroke="black" points="77,-266.5 77,-285.5 211,-285.5 211,-266.5 77,-266.5"/>
<text text-anchor="middle" x="144" y="-273.5" font-family="Helvetica,sans-Serif" font-size="10.00">FpTestCommutativeAdd</text>
</a>
</g>
</g>
<!-- Node1&#45;&gt;Node5 -->
<g id="edge5" class="edge">
<title>Node1&#45;&gt;Node5</title>
<path fill="none" stroke="midnightblue" d="M260.88,-199.65C250.55,-216.98 232.93,-242.27 211,-257 205.26,-260.86 198.73,-263.94 192.07,-266.4"/>
<polygon fill="midnightblue" stroke="midnightblue" points="264.18,-200.93 266.1,-190.51 258.1,-197.46 264.18,-200.93"/>
</g>
<!-- Node6 -->
<g id="node6" class="node">
<title>Node6</title>
<g id="a_node6"><a xlink:href="fptest__mul_8cu.html#ae6923d3429ae184854b98376b366fb60" target="_top" xlink:title="Test for the commutative property of addition.">
<polygon fill="white" stroke="black" points="77.5,-228.5 77.5,-247.5 210.5,-247.5 210.5,-228.5 77.5,-228.5"/>
<text text-anchor="middle" x="144" y="-235.5" font-family="Helvetica,sans-Serif" font-size="10.00">FpTestCommutativeMul</text>
</a>
</g>
</g>
<!-- Node1&#45;&gt;Node6 -->
<g id="edge7" class="edge">
<title>Node1&#45;&gt;Node6</title>
<path fill="none" stroke="midnightblue" d="M250.04,-196.36C238.88,-203.98 224.67,-212.86 211,-219 202.84,-222.67 193.8,-225.82 185.09,-228.44"/>
<polygon fill="midnightblue" stroke="midnightblue" points="252.09,-199.19 258.26,-190.58 248.07,-193.46 252.09,-199.19"/>
</g>
<!-- Node7 -->
<g id="node7" class="node">
<title>Node7</title>
<g id="a_node7"><a xlink:href="fptest__fibonacci_8cu.html#abda81ae89575b2d141b6b78699782167" target="_top" xlink:title="Test addition and subtraction in Fp using a fibonacci sequence (chain dependency) from 1 to ITERATION...">
<polygon fill="white" stroke="black" points="97,-190.5 97,-209.5 191,-209.5 191,-190.5 97,-190.5"/>
<text text-anchor="middle" x="144" y="-197.5" font-family="Helvetica,sans-Serif" font-size="10.00">FpTestFibonacci</text>
</a>
</g>
</g>
<!-- Node1&#45;&gt;Node7 -->
<g id="edge9" class="edge">
<title>Node1&#45;&gt;Node7</title>
<path fill="none" stroke="midnightblue" d="M236.53,-186.2C222.54,-188.31 206.16,-190.78 191.16,-193.04"/>
<polygon fill="midnightblue" stroke="midnightblue" points="237.34,-189.62 246.71,-184.66 236.3,-182.69 237.34,-189.62"/>
</g>
<!-- Node8 -->
<g id="node8" class="node">
<title>Node8</title>
<g id="a_node8"><a xlink:href="fptest__mma_8cu.html#ab2e3e579feb073f06a10812dc57d94f7" target="_top" xlink:title="Test for multiply&#45;multiply&#45;add. Compare with current standalone implementation of multiplication adn ...">
<polygon fill="white" stroke="black" points="107.5,-152.5 107.5,-171.5 180.5,-171.5 180.5,-152.5 107.5,-152.5"/>
<text text-anchor="middle" x="144" y="-159.5" font-family="Helvetica,sans-Serif" font-size="10.00">FpTestMMA</text>
</a>
</g>
</g>
<!-- Node1&#45;&gt;Node8 -->
<g id="edge11" class="edge">
<title>Node1&#45;&gt;Node8</title>
<path fill="none" stroke="midnightblue" d="M236.45,-175.79C219.12,-173.18 198.15,-170.01 180.66,-167.38"/>
<polygon fill="midnightblue" stroke="midnightblue" points="236.3,-179.31 246.71,-177.34 237.34,-172.38 236.3,-179.31"/>
</g>
<!-- Node9 -->
<g id="node9" class="node">
<title>Node9</title>
<g id="a_node9"><a xlink:href="fptest__mulconst_8cu.html#a9cf3b3ea99e2b90e54dae275f3bf9424" target="_top" xlink:title="Test self consistency in multiplication by constant:">
<polygon fill="white" stroke="black" points="97,-114.5 97,-133.5 191,-133.5 191,-114.5 97,-114.5"/>
<text text-anchor="middle" x="144" y="-121.5" font-family="Helvetica,sans-Serif" font-size="10.00">FpTestMulConst</text>
</a>
</g>
</g>
<!-- Node1&#45;&gt;Node9 -->
<g id="edge13" class="edge">
<title>Node1&#45;&gt;Node9</title>
<path fill="none" stroke="midnightblue" d="M250.04,-165.64C238.88,-158.02 224.67,-149.14 211,-143 202.84,-139.33 193.8,-136.18 185.09,-133.56"/>
<polygon fill="midnightblue" stroke="midnightblue" points="248.07,-168.54 258.26,-171.42 252.09,-162.81 248.07,-168.54"/>
</g>
<!-- Node10 -->
<g id="node10" class="node">
<title>Node10</title>
<g id="a_node10"><a xlink:href="fptest__sqr_8cu.html#aab87718273605d36b6696eb2068abef0" target="_top" xlink:title="Test for squaring on Fp. Checks for self consistency:">
<polygon fill="white" stroke="black" points="112,-76.5 112,-95.5 176,-95.5 176,-76.5 112,-76.5"/>
<text text-anchor="middle" x="144" y="-83.5" font-family="Helvetica,sans-Serif" font-size="10.00">FpTestSqr</text>
</a>
</g>
</g>
<!-- Node1&#45;&gt;Node10 -->
<g id="edge15" class="edge">
<title>Node1&#45;&gt;Node10</title>
<path fill="none" stroke="midnightblue" d="M260.88,-162.35C250.55,-145.02 232.93,-119.73 211,-105 200.71,-98.09 187.88,-93.65 176.28,-90.83"/>
<polygon fill="midnightblue" stroke="midnightblue" points="258.1,-164.54 266.1,-171.49 264.18,-161.07 258.1,-164.54"/>
</g>
<!-- Node11 -->
<g id="node11" class="node">
<title>Node11</title>
<g id="a_node11"><a xlink:href="fptest__sqr_8cu.html#a1ee9909ec8b31c309f33b385db6d12cb" target="_top" xlink:title="Test for squaring on Fp. Checks for self consistency:">
<polygon fill="white" stroke="black" points="109,-38.5 109,-57.5 179,-57.5 179,-38.5 109,-38.5"/>
<text text-anchor="middle" x="144" y="-45.5" font-family="Helvetica,sans-Serif" font-size="10.00">FpTestSqr2</text>
</a>
</g>
</g>
<!-- Node1&#45;&gt;Node11 -->
<g id="edge17" class="edge">
<title>Node1&#45;&gt;Node11</title>
<path fill="none" stroke="midnightblue" d="M265.91,-161.44C258.26,-135.96 241.37,-91.72 211,-67 201.94,-59.62 190.14,-55.11 179.03,-52.35"/>
<polygon fill="midnightblue" stroke="midnightblue" points="262.63,-162.73 268.71,-171.41 269.37,-160.83 262.63,-162.73"/>
</g>
<!-- Node12 -->
<g id="node12" class="node">
<title>Node12</title>
<g id="a_node12"><a xlink:href="fptest__sub_8cu.html#aafc8d0db47deda034734d2a2020f4ada" target="_top" xlink:title="Test for subtraction in Fp.">
<polygon fill="white" stroke="black" points="111,-0.5 111,-19.5 177,-19.5 177,-0.5 111,-0.5"/>
<text text-anchor="middle" x="144" y="-7.5" font-family="Helvetica,sans-Serif" font-size="10.00">FpTestSub</text>
</a>
</g>
</g>
<!-- Node1&#45;&gt;Node12 -->
<g id="edge19" class="edge">
<title>Node1&#45;&gt;Node12</title>
<path fill="none" stroke="midnightblue" d="M268.76,-161.11C264.04,-128.69 250.07,-64.5 211,-29 201.73,-20.58 188.97,-15.87 177.13,-13.25"/>
<polygon fill="midnightblue" stroke="midnightblue" points="265.31,-161.69 270.07,-171.16 272.25,-160.79 265.31,-161.69"/>
</g>
<!-- Node3 -->
<g id="node3" class="node">
<title>Node3</title>
<g id="a_node3"><a xlink:href="fptest_8cu.html#a3c04138a5bfe5d72780bb7e82a18e627" target="_top" xlink:title="Run tests on Fp functions.">
<polygon fill="white" stroke="black" points="0,-171.5 0,-190.5 41,-190.5 41,-171.5 0,-171.5"/>
<text text-anchor="middle" x="20.5" y="-178.5" font-family="Helvetica,sans-Serif" font-size="10.00">main</text>
</a>
</g>
</g>
<!-- Node2&#45;&gt;Node3 -->
<g id="edge2" class="edge">
<title>Node2&#45;&gt;Node3</title>
<path fill="none" stroke="midnightblue" d="M100.68,-346.15C92.04,-343.32 83.59,-339.14 77,-333 34.26,-293.15 24.34,-217.71 22.11,-190.82"/>
<polygon fill="midnightblue" stroke="midnightblue" points="99.85,-349.55 110.42,-348.8 101.69,-342.8 99.85,-349.55"/>
</g>
<!-- Node4&#45;&gt;Node3 -->
<g id="edge4" class="edge">
<title>Node4&#45;&gt;Node3</title>
<path fill="none" stroke="midnightblue" d="M98.87,-306.87C90.99,-304.11 83.29,-300.29 77,-295 43.13,-266.53 28.23,-212.49 23.39,-190.58"/>
<polygon fill="midnightblue" stroke="midnightblue" points="97.91,-310.23 108.49,-309.73 99.9,-303.52 97.91,-310.23"/>
</g>
<!-- Node5&#45;&gt;Node3 -->
<g id="edge6" class="edge">
<title>Node5&#45;&gt;Node3</title>
<path fill="none" stroke="midnightblue" d="M86.16,-262.41C82.95,-260.81 79.87,-259.01 77,-257 51.83,-239.4 33.7,-206.66 25.84,-190.51"/>
<polygon fill="midnightblue" stroke="midnightblue" points="84.89,-265.68 95.46,-266.47 87.69,-259.26 84.89,-265.68"/>
</g>
<!-- Node6&#45;&gt;Node3 -->
<g id="edge8" class="edge">
<title>Node6&#45;&gt;Node3</title>
<path fill="none" stroke="midnightblue" d="M92.51,-225.29C87.18,-223.41 81.92,-221.32 77,-219 60.73,-211.33 43.95,-199.14 33.16,-190.64"/>
<polygon fill="midnightblue" stroke="midnightblue" points="91.52,-228.65 102.11,-228.44 93.7,-222 91.52,-228.65"/>
</g>
<!-- Node7&#45;&gt;Node3 -->
<g id="edge10" class="edge">
<title>Node7&#45;&gt;Node3</title>
<path fill="none" stroke="midnightblue" d="M86.62,-191.18C70.24,-188.62 53.44,-185.99 41,-184.05"/>
<polygon fill="midnightblue" stroke="midnightblue" points="86.3,-194.68 96.72,-192.76 87.38,-187.76 86.3,-194.68"/>
</g>
<!-- Node8&#45;&gt;Node3 -->
<g id="edge12" class="edge">
<title>Node8&#45;&gt;Node3</title>
<path fill="none" stroke="midnightblue" d="M97.31,-169.14C77.93,-172.18 56.37,-175.55 41.21,-177.92"/>
<polygon fill="midnightblue" stroke="midnightblue" points="97.86,-172.6 107.2,-167.6 96.78,-165.68 97.86,-172.6"/>
</g>
<!-- Node9&#45;&gt;Node3 -->
<g id="edge14" class="edge">
<title>Node9&#45;&gt;Node3</title>
<path fill="none" stroke="midnightblue" d="M92.51,-136.71C87.18,-138.59 81.92,-140.68 77,-143 60.73,-150.67 43.95,-162.86 33.16,-171.36"/>
<polygon fill="midnightblue" stroke="midnightblue" points="93.7,-140 102.11,-133.56 91.52,-133.35 93.7,-140"/>
</g>
<!-- Node10&#45;&gt;Node3 -->
<g id="edge16" class="edge">
<title>Node10&#45;&gt;Node3</title>
<path fill="none" stroke="midnightblue" d="M102.11,-93.24C93.33,-95.99 84.45,-99.79 77,-105 51.83,-122.6 33.7,-155.34 25.84,-171.49"/>
<polygon fill="midnightblue" stroke="midnightblue" points="103.2,-96.57 111.91,-90.55 101.34,-89.82 103.2,-96.57"/>
</g>
<!-- Node11&#45;&gt;Node3 -->
<g id="edge18" class="edge">
<title>Node11&#45;&gt;Node3</title>
<path fill="none" stroke="midnightblue" d="M99.11,-55.05C91.15,-57.81 83.36,-61.65 77,-67 43.13,-95.47 28.23,-149.51 23.39,-171.42"/>
<polygon fill="midnightblue" stroke="midnightblue" points="100.23,-58.37 108.83,-52.19 98.25,-51.65 100.23,-58.37"/>
</g>
<!-- Node12&#45;&gt;Node3 -->
<g id="edge20" class="edge">
<title>Node12&#45;&gt;Node3</title>
<path fill="none" stroke="midnightblue" d="M100.93,-15.77C92.2,-18.6 83.65,-22.8 77,-29 34.26,-68.85 24.34,-144.29 22.11,-171.18"/>
<polygon fill="midnightblue" stroke="midnightblue" points="102.01,-19.1 110.76,-13.12 100.19,-12.34 102.01,-19.1"/>
</g>
</g>
</svg>
