<?xml version="1.0" encoding="UTF-8" standalone="no"?>
<!DOCTYPE svg PUBLIC "-//W3C//DTD SVG 1.1//EN"
 "http://www.w3.org/Graphics/SVG/1.1/DTD/svg11.dtd">
<!-- Generated by graphviz version 2.43.0 (0)
 -->
<!-- Title: fp_print Pages: 1 -->
<svg width="309pt" height="294pt"
 viewBox="0.00 0.00 309.00 294.00" xmlns="http://www.w3.org/2000/svg" xmlns:xlink="http://www.w3.org/1999/xlink">
<g id="graph0" class="graph" transform="scale(1 1) rotate(0) translate(4 290)">
<title>fp_print</title>
<polygon fill="white" stroke="transparent" points="-4,4 -4,-290 305,-290 305,4 -4,4"/>
<!-- Node1 -->
<g id="node1" class="node">
<title>Node1</title>
<g id="a_node1"><a xlink:title="Prints the canonical representation of x to STDOUT.">
<polygon fill="#bfbfbf" stroke="black" points="247,-133.5 247,-152.5 301,-152.5 301,-133.5 247,-133.5"/>
<text text-anchor="middle" x="274" y="-140.5" font-family="Helvetica,sans-Serif" font-size="10.00">fp_print</text>
</a>
</g>
</g>
<!-- Node2 -->
<g id="node2" class="node">
<title>Node2</title>
<g id="a_node2"><a xlink:href="fptest__add_8cu.html#abfc772410295adcd309501a61369756c" target="_top" xlink:title="Test for addition in Fp.">
<polygon fill="white" stroke="black" points="110.5,-266.5 110.5,-285.5 177.5,-285.5 177.5,-266.5 110.5,-266.5"/>
<text text-anchor="middle" x="144" y="-273.5" font-family="Helvetica,sans-Serif" font-size="10.00">FpTestAdd</text>
</a>
</g>
</g>
<!-- Node1&#45;&gt;Node2 -->
<g id="edge1" class="edge">
<title>Node1&#45;&gt;Node2</title>
<path fill="none" stroke="midnightblue" d="M267.66,-162.22C259.6,-187.67 241.9,-232.19 211,-257 201.52,-264.61 189.11,-269.18 177.62,-271.91"/>
<polygon fill="midnightblue" stroke="midnightblue" points="271.03,-163.18 270.53,-152.6 264.32,-161.18 271.03,-163.18"/>
</g>
<!-- Node4 -->
<g id="node4" class="node">
<title>Node4</title>
<g id="a_node4"><a xlink:href="fptest__add_8cu.html#acbe50a6524e6e4288042aa5596559ad7" target="_top" xlink:title="Test for the commutative property of addition in Fp.">
<polygon fill="white" stroke="black" points="77,-228.5 77,-247.5 211,-247.5 211,-228.5 77,-228.5"/>
<text text-anchor="middle" x="144" y="-235.5" font-family="Helvetica,sans-Serif" font-size="10.00">FpTestCommutativeAdd</text>
</a>
</g>
</g>
<!-- Node1&#45;&gt;Node4 -->
<g id="edge3" class="edge">
<title>Node1&#45;&gt;Node4</title>
<path fill="none" stroke="midnightblue" d="M262.7,-161.16C251.95,-178.5 233.54,-204.12 211,-219 205.13,-222.88 198.46,-225.97 191.67,-228.45"/>
<polygon fill="midnightblue" stroke="midnightblue" points="265.75,-162.89 267.86,-152.51 259.73,-159.31 265.75,-162.89"/>
</g>
<!-- Node5 -->
<g id="node5" class="node">
<title>Node5</title>
<g id="a_node5"><a xlink:href="fptest__mul_8cu.html#ae6923d3429ae184854b98376b366fb60" target="_top" xlink:title="Test for the commutative property of addition.">
<polygon fill="white" stroke="black" points="77.5,-190.5 77.5,-209.5 210.5,-209.5 210.5,-190.5 77.5,-190.5"/>
<text text-anchor="middle" x="144" y="-197.5" font-family="Helvetica,sans-Serif" font-size="10.00">FpTestCommutativeMul</text>
</a>
</g>
</g>
<!-- Node1&#45;&gt;Node5 -->
<g id="edge5" class="edge">
<title>Node1&#45;&gt;Node5</title>
<path fill="none" stroke="midnightblue" d="M251.27,-158.32C239.72,-165.94 225.04,-174.81 211,-181 202.71,-184.65 193.52,-187.81 184.7,-190.45"/>
<polygon fill="midnightblue" stroke="midnightblue" points="253.47,-161.06 259.79,-152.56 249.54,-155.26 253.47,-161.06"/>
</g>
<!-- Node6 -->
<g id="node6" class="node">
<title>Node6</title>
<g id="a_node6"><a xlink:href="fptest__fibonacci_8cu.html#abda81ae89575b2d141b6b78699782167" target="_top" xlink:title="Test addition and subtraction in Fp using a fibonacci sequence (chain dependency) from 1 to ITERATION...">
<polygon fill="white" stroke="black" points="97,-152.5 97,-171.5 191,-171.5 191,-152.5 97,-152.5"/>
<text text-anchor="middle" x="144" y="-159.5" font-family="Helvetica,sans-Serif" font-size="10.00">FpTestFibonacci</text>
</a>
</g>
</g>
<!-- Node1&#45;&gt;Node6 -->
<g id="edge7" class="edge">
<title>Node1&#45;&gt;Node6</title>
<path fill="none" stroke="midnightblue" d="M236.89,-148.36C222.68,-150.47 206.18,-152.92 191.11,-155.15"/>
<polygon fill="midnightblue" stroke="midnightblue" points="237.41,-151.82 246.79,-146.89 236.38,-144.9 237.41,-151.82"/>
</g>
<!-- Node7 -->
<g id="node7" class="node">
<title>Node7</title>
<g id="a_node7"><a xlink:href="fptest__mulconst_8cu.html#a9cf3b3ea99e2b90e54dae275f3bf9424" target="_top" xlink:title="Test self consistency in multiplication by constant:">
<polygon fill="white" stroke="black" points="97,-114.5 97,-133.5 191,-133.5 191,-114.5 97,-114.5"/>
<text text-anchor="middle" x="144" y="-121.5" font-family="Helvetica,sans-Serif" font-size="10.00">FpTestMulConst</text>
</a>
</g>
</g>
<!-- Node1&#45;&gt;Node7 -->
<g id="edge9" class="edge">
<title>Node1&#45;&gt;Node7</title>
<path fill="none" stroke="midnightblue" d="M236.89,-137.64C222.68,-135.53 206.18,-133.08 191.11,-130.85"/>
<polygon fill="midnightblue" stroke="midnightblue" points="236.38,-141.1 246.79,-139.11 237.41,-134.18 236.38,-141.1"/>
</g>
<!-- Node8 -->
<g id="node8" class="node">
<title>Node8</title>
<g id="a_node8"><a xlink:href="fptest__sqr_8cu.html#aab87718273605d36b6696eb2068abef0" target="_top" xlink:title="Test for squaring on Fp. Checks for self consistency:">
<polygon fill="white" stroke="black" points="112,-76.5 112,-95.5 176,-95.5 176,-76.5 112,-76.5"/>
<text text-anchor="middle" x="144" y="-83.5" font-family="Helvetica,sans-Serif" font-size="10.00">FpTestSqr</text>
</a>
</g>
</g>
<!-- Node1&#45;&gt;Node8 -->
<g id="edge11" class="edge">
<title>Node1&#45;&gt;Node8</title>
<path fill="none" stroke="midnightblue" d="M251.27,-127.68C239.72,-120.06 225.04,-111.19 211,-105 199.98,-100.14 187.38,-96.16 176.17,-93.12"/>
<polygon fill="midnightblue" stroke="midnightblue" points="249.54,-130.74 259.79,-133.44 253.47,-124.94 249.54,-130.74"/>
</g>
<!-- Node9 -->
<g id="node9" class="node">
<title>Node9</title>
<g id="a_node9"><a xlink:href="fptest__sqr_8cu.html#a1ee9909ec8b31c309f33b385db6d12cb" target="_top" xlink:title="Test for squaring on Fp. Checks for self consistency:">
<polygon fill="white" stroke="black" points="109,-38.5 109,-57.5 179,-57.5 179,-38.5 109,-38.5"/>
<text text-anchor="middle" x="144" y="-45.5" font-family="Helvetica,sans-Serif" font-size="10.00">FpTestSqr2</text>
</a>
</g>
</g>
<!-- Node1&#45;&gt;Node9 -->
<g id="edge13" class="edge">
<title>Node1&#45;&gt;Node9</title>
<path fill="none" stroke="midnightblue" d="M262.7,-124.84C251.95,-107.5 233.54,-81.88 211,-67 201.55,-60.76 190.02,-56.53 179.26,-53.69"/>
<polygon fill="midnightblue" stroke="midnightblue" points="259.73,-126.69 267.86,-133.49 265.75,-123.11 259.73,-126.69"/>
</g>
<!-- Node10 -->
<g id="node10" class="node">
<title>Node10</title>
<g id="a_node10"><a xlink:href="fptest__sub_8cu.html#aafc8d0db47deda034734d2a2020f4ada" target="_top" xlink:title="Test for subtraction in Fp.">
<polygon fill="white" stroke="black" points="111,-0.5 111,-19.5 177,-19.5 177,-0.5 111,-0.5"/>
<text text-anchor="middle" x="144" y="-7.5" font-family="Helvetica,sans-Serif" font-size="10.00">FpTestSub</text>
</a>
</g>
</g>
<!-- Node1&#45;&gt;Node10 -->
<g id="edge15" class="edge">
<title>Node1&#45;&gt;Node10</title>
<path fill="none" stroke="midnightblue" d="M267.66,-123.78C259.6,-98.33 241.9,-53.81 211,-29 201.42,-21.31 188.87,-16.73 177.28,-14.01"/>
<polygon fill="midnightblue" stroke="midnightblue" points="264.32,-124.82 270.53,-133.4 271.03,-122.82 264.32,-124.82"/>
</g>
<!-- Node3 -->
<g id="node3" class="node">
<title>Node3</title>
<g id="a_node3"><a xlink:href="fptest_8cu.html#a3c04138a5bfe5d72780bb7e82a18e627" target="_top" xlink:title="Run tests on Fp functions.">
<polygon fill="white" stroke="black" points="0,-133.5 0,-152.5 41,-152.5 41,-133.5 0,-133.5"/>
<text text-anchor="middle" x="20.5" y="-140.5" font-family="Helvetica,sans-Serif" font-size="10.00">main</text>
</a>
</g>
</g>
<!-- Node2&#45;&gt;Node3 -->
<g id="edge2" class="edge">
<title>Node2&#45;&gt;Node3</title>
<path fill="none" stroke="midnightblue" d="M100.36,-269.38C91.96,-266.59 83.69,-262.62 77,-257 43.13,-228.53 28.23,-174.49 23.39,-152.58"/>
<polygon fill="midnightblue" stroke="midnightblue" points="99.62,-272.8 110.19,-272.14 101.51,-266.06 99.62,-272.8"/>
</g>
<!-- Node4&#45;&gt;Node3 -->
<g id="edge4" class="edge">
<title>Node4&#45;&gt;Node3</title>
<path fill="none" stroke="midnightblue" d="M86.16,-224.41C82.95,-222.81 79.87,-221.01 77,-219 51.83,-201.4 33.7,-168.66 25.84,-152.51"/>
<polygon fill="midnightblue" stroke="midnightblue" points="84.89,-227.68 95.46,-228.47 87.69,-221.26 84.89,-227.68"/>
</g>
<!-- Node5&#45;&gt;Node3 -->
<g id="edge6" class="edge">
<title>Node5&#45;&gt;Node3</title>
<path fill="none" stroke="midnightblue" d="M92.51,-187.29C87.18,-185.41 81.92,-183.32 77,-181 60.73,-173.33 43.95,-161.14 33.16,-152.64"/>
<polygon fill="midnightblue" stroke="midnightblue" points="91.52,-190.65 102.11,-190.44 93.7,-184 91.52,-190.65"/>
</g>
<!-- Node6&#45;&gt;Node3 -->
<g id="edge8" class="edge">
<title>Node6&#45;&gt;Node3</title>
<path fill="none" stroke="midnightblue" d="M86.62,-153.18C70.24,-150.62 53.44,-147.99 41,-146.05"/>
<polygon fill="midnightblue" stroke="midnightblue" points="86.3,-156.68 96.72,-154.76 87.38,-149.76 86.3,-156.68"/>
</g>
<!-- Node7&#45;&gt;Node3 -->
<g id="edge10" class="edge">
<title>Node7&#45;&gt;Node3</title>
<path fill="none" stroke="midnightblue" d="M86.62,-132.82C70.24,-135.38 53.44,-138.01 41,-139.95"/>
<polygon fill="midnightblue" stroke="midnightblue" points="87.38,-136.24 96.72,-131.24 86.3,-129.32 87.38,-136.24"/>
</g>
<!-- Node8&#45;&gt;Node3 -->
<g id="edge12" class="edge">
<title>Node8&#45;&gt;Node3</title>
<path fill="none" stroke="midnightblue" d="M101.97,-95.6C93.53,-98.19 84.83,-101.31 77,-105 60.73,-112.67 43.95,-124.86 33.16,-133.36"/>
<polygon fill="midnightblue" stroke="midnightblue" points="103.05,-98.93 111.69,-92.82 101.12,-92.21 103.05,-98.93"/>
</g>
<!-- Node9&#45;&gt;Node3 -->
<g id="edge14" class="edge">
<title>Node9&#45;&gt;Node3</title>
<path fill="none" stroke="midnightblue" d="M99.07,-56.23C91.3,-58.89 83.6,-62.39 77,-67 51.83,-84.6 33.7,-117.34 25.84,-133.49"/>
<polygon fill="midnightblue" stroke="midnightblue" points="100.3,-59.52 108.88,-53.3 98.29,-52.81 100.3,-59.52"/>
</g>
<!-- Node10&#45;&gt;Node3 -->
<g id="edge16" class="edge">
<title>Node10&#45;&gt;Node3</title>
<path fill="none" stroke="midnightblue" d="M101.13,-16.37C92.47,-19.17 83.9,-23.2 77,-29 43.13,-57.47 28.23,-111.51 23.39,-133.42"/>
<polygon fill="midnightblue" stroke="midnightblue" points="102.15,-19.72 110.87,-13.7 100.3,-12.97 102.15,-19.72"/>
</g>
</g>
</svg>
