<?xml version="1.0" encoding="UTF-8" standalone="no"?>
<!DOCTYPE svg PUBLIC "-//W3C//DTD SVG 1.1//EN"
 "http://www.w3.org/Graphics/SVG/1.1/DTD/svg11.dtd">
<!-- Generated by graphviz version 2.43.0 (0)
 -->
<!-- Title: fp_neq Pages: 1 -->
<svg width="342pt" height="85pt"
 viewBox="0.00 0.00 342.00 85.00" xmlns="http://www.w3.org/2000/svg" xmlns:xlink="http://www.w3.org/1999/xlink">
<g id="graph0" class="graph" transform="scale(1 1) rotate(0) translate(4 81)">
<title>fp_neq</title>
<polygon fill="white" stroke="transparent" points="-4,4 -4,-81 338,-81 338,4 -4,4"/>
<!-- Node1 -->
<g id="node1" class="node">
<title>Node1</title>
<g id="a_node1"><a xlink:title="Compares two fp_t residues.">
<polygon fill="#bfbfbf" stroke="black" points="0,-19.5 0,-38.5 50,-38.5 50,-19.5 0,-19.5"/>
<text text-anchor="middle" x="25" y="-26.5" font-family="Helvetica,sans-Serif" font-size="10.00">fp_neq</text>
</a>
</g>
</g>
<!-- Node2 -->
<g id="node2" class="node">
<title>Node2</title>
<g id="a_node2"><a xlink:href="fp_8cuh.html#ade1abe61dfb7cbe9b00d78a38dda4bd3" target="_top" xlink:title="Compares two residues modulo p.">
<polygon fill="white" stroke="black" points="86,-19.5 86,-38.5 130,-38.5 130,-19.5 86,-19.5"/>
<text text-anchor="middle" x="108" y="-26.5" font-family="Helvetica,sans-Serif" font-size="10.00">fp_eq</text>
</a>
</g>
</g>
<!-- Node1&#45;&gt;Node2 -->
<g id="edge1" class="edge">
<title>Node1&#45;&gt;Node2</title>
<path fill="none" stroke="midnightblue" d="M50.3,-29C58.23,-29 67.15,-29 75.53,-29"/>
<polygon fill="midnightblue" stroke="midnightblue" points="75.74,-32.5 85.74,-29 75.74,-25.5 75.74,-32.5"/>
</g>
<!-- Node3 -->
<g id="node3" class="node">
<title>Node3</title>
<g id="a_node3"><a xlink:href="fp_8cuh.html#a45eab81e60385635ab4732360f94ec91" target="_top" xlink:title="Checks if the residue x modulo p is congruent to zero.">
<polygon fill="white" stroke="black" points="166,-38.5 166,-57.5 227,-57.5 227,-38.5 166,-38.5"/>
<text text-anchor="middle" x="196.5" y="-45.5" font-family="Helvetica,sans-Serif" font-size="10.00">fp_iszero</text>
</a>
</g>
</g>
<!-- Node2&#45;&gt;Node3 -->
<g id="edge2" class="edge">
<title>Node2&#45;&gt;Node3</title>
<path fill="none" stroke="midnightblue" d="M130.38,-33.7C138.16,-35.41 147.22,-37.4 156.07,-39.34"/>
<polygon fill="midnightblue" stroke="midnightblue" points="155.36,-42.77 165.88,-41.49 156.86,-35.93 155.36,-42.77"/>
</g>
<!-- Node6 -->
<g id="node6" class="node">
<title>Node6</title>
<g id="a_node6"><a xlink:href="fp_8cuh.html#aff96ec3f32ad9c0419911604d5fefe44" target="_top" xlink:title="Calculates the difference of two residues modulo p and stores it into z.">
<polygon fill="white" stroke="black" points="172,-0.5 172,-19.5 221,-19.5 221,-0.5 172,-0.5"/>
<text text-anchor="middle" x="196.5" y="-7.5" font-family="Helvetica,sans-Serif" font-size="10.00">fp_sub</text>
</a>
</g>
</g>
<!-- Node2&#45;&gt;Node6 -->
<g id="edge5" class="edge">
<title>Node2&#45;&gt;Node6</title>
<path fill="none" stroke="midnightblue" d="M130.38,-24.3C139.94,-22.2 151.42,-19.68 162.07,-17.34"/>
<polygon fill="midnightblue" stroke="midnightblue" points="162.92,-20.74 171.93,-15.18 161.41,-13.9 162.92,-20.74"/>
</g>
<!-- Node4 -->
<g id="node4" class="node">
<title>Node4</title>
<g id="a_node4"><a xlink:href="fp_8cuh.html#aa84fc3bc6fd35779512d8f14938df96d" target="_top" xlink:title="Copy from x into z.">
<polygon fill="white" stroke="black" points="274,-57.5 274,-76.5 323,-76.5 323,-57.5 274,-57.5"/>
<text text-anchor="middle" x="298.5" y="-64.5" font-family="Helvetica,sans-Serif" font-size="10.00">fp_cpy</text>
</a>
</g>
</g>
<!-- Node3&#45;&gt;Node4 -->
<g id="edge3" class="edge">
<title>Node3&#45;&gt;Node4</title>
<path fill="none" stroke="midnightblue" d="M227.23,-53.65C238.72,-55.83 251.93,-58.34 263.77,-60.59"/>
<polygon fill="midnightblue" stroke="midnightblue" points="263.27,-64.06 273.74,-62.49 264.57,-57.18 263.27,-64.06"/>
</g>
<!-- Node5 -->
<g id="node5" class="node">
<title>Node5</title>
<g id="a_node5"><a xlink:href="fp_8cuh.html#a89b41553cb5af629dd8ac33b71d03ee1" target="_top" xlink:title="Narrow reduction of a residue modulo p, reducing to the canonical representation.">
<polygon fill="white" stroke="black" points="263,-19.5 263,-38.5 334,-38.5 334,-19.5 263,-19.5"/>
<text text-anchor="middle" x="298.5" y="-26.5" font-family="Helvetica,sans-Serif" font-size="10.00">fp_reduce6</text>
</a>
</g>
</g>
<!-- Node3&#45;&gt;Node5 -->
<g id="edge4" class="edge">
<title>Node3&#45;&gt;Node5</title>
<path fill="none" stroke="midnightblue" d="M227.23,-42.35C235.26,-40.83 244.13,-39.14 252.78,-37.5"/>
<polygon fill="midnightblue" stroke="midnightblue" points="253.61,-40.9 262.78,-35.6 252.3,-34.03 253.61,-40.9"/>
</g>
</g>
</svg>
