<?xml version="1.0" encoding="UTF-8" standalone="no"?>
<!DOCTYPE svg PUBLIC "-//W3C//DTD SVG 1.1//EN"
 "http://www.w3.org/Graphics/SVG/1.1/DTD/svg11.dtd">
<!-- Generated by graphviz version 2.43.0 (0)
 -->
<!-- Title: fp_x3 Pages: 1 -->
<svg width="259pt" height="142pt"
 viewBox="0.00 0.00 259.00 142.00" xmlns="http://www.w3.org/2000/svg" xmlns:xlink="http://www.w3.org/1999/xlink">
<g id="graph0" class="graph" transform="scale(1 1) rotate(0) translate(4 138)">
<title>fp_x3</title>
<polygon fill="white" stroke="transparent" points="-4,4 -4,-138 255,-138 255,4 -4,4"/>
<!-- Node1 -->
<g id="node1" class="node">
<title>Node1</title>
<g id="a_node1"><a xlink:title="Multiplies x by 3 and stores the result into z.">
<polygon fill="#bfbfbf" stroke="black" points="207,-57.5 207,-76.5 251,-76.5 251,-57.5 207,-57.5"/>
<text text-anchor="middle" x="229" y="-64.5" font-family="Helvetica,sans-Serif" font-size="10.00">fp_x3</text>
</a>
</g>
</g>
<!-- Node2 -->
<g id="node2" class="node">
<title>Node2</title>
<g id="a_node2"><a xlink:href="fptest__add_8cu.html#abfc772410295adcd309501a61369756c" target="_top" xlink:title="Test for addition in Fp.">
<polygon fill="white" stroke="black" points="90.5,-114.5 90.5,-133.5 157.5,-133.5 157.5,-114.5 90.5,-114.5"/>
<text text-anchor="middle" x="124" y="-121.5" font-family="Helvetica,sans-Serif" font-size="10.00">FpTestAdd</text>
</a>
</g>
</g>
<!-- Node1&#45;&gt;Node2 -->
<g id="edge1" class="edge">
<title>Node1&#45;&gt;Node2</title>
<path fill="none" stroke="midnightblue" d="M207.16,-82.33C196.63,-89.7 183.46,-98.36 171,-105 164.6,-108.41 157.44,-111.63 150.72,-114.42"/>
<polygon fill="midnightblue" stroke="midnightblue" points="209.21,-85.16 215.32,-76.51 205.15,-79.47 209.21,-85.16"/>
</g>
<!-- Node4 -->
<g id="node4" class="node">
<title>Node4</title>
<g id="a_node4"><a xlink:href="fptest__mulconst_8cu.html#a9cf3b3ea99e2b90e54dae275f3bf9424" target="_top" xlink:title="Test self consistency in multiplication by constant:">
<polygon fill="white" stroke="black" points="77,-76.5 77,-95.5 171,-95.5 171,-76.5 77,-76.5"/>
<text text-anchor="middle" x="124" y="-83.5" font-family="Helvetica,sans-Serif" font-size="10.00">FpTestMulConst</text>
</a>
</g>
</g>
<!-- Node1&#45;&gt;Node4 -->
<g id="edge3" class="edge">
<title>Node1&#45;&gt;Node4</title>
<path fill="none" stroke="midnightblue" d="M196.68,-72.78C188.69,-74.25 179.94,-75.87 171.37,-77.45"/>
<polygon fill="midnightblue" stroke="midnightblue" points="197.46,-76.19 206.66,-70.94 196.19,-69.31 197.46,-76.19"/>
</g>
<!-- Node5 -->
<g id="node5" class="node">
<title>Node5</title>
<g id="a_node5"><a xlink:href="fptest__sub_8cu.html#aafc8d0db47deda034734d2a2020f4ada" target="_top" xlink:title="Test for subtraction in Fp.">
<polygon fill="white" stroke="black" points="91,-38.5 91,-57.5 157,-57.5 157,-38.5 91,-38.5"/>
<text text-anchor="middle" x="124" y="-45.5" font-family="Helvetica,sans-Serif" font-size="10.00">FpTestSub</text>
</a>
</g>
</g>
<!-- Node1&#45;&gt;Node5 -->
<g id="edge5" class="edge">
<title>Node1&#45;&gt;Node5</title>
<path fill="none" stroke="midnightblue" d="M196.7,-61.23C184.22,-58.92 169.85,-56.27 157.28,-53.95"/>
<polygon fill="midnightblue" stroke="midnightblue" points="196.19,-64.69 206.66,-63.06 197.46,-57.81 196.19,-64.69"/>
</g>
<!-- Node6 -->
<g id="node6" class="node">
<title>Node6</title>
<g id="a_node6"><a xlink:href="g1_8cuh.html#a738cb164cdffd441d2aa86d5329cd0bc" target="_top" xlink:title="G1 point doubling, with write back: p=2*p.">
<polygon fill="white" stroke="black" points="96.5,-0.5 96.5,-19.5 151.5,-19.5 151.5,-0.5 96.5,-0.5"/>
<text text-anchor="middle" x="124" y="-7.5" font-family="Helvetica,sans-Serif" font-size="10.00">g1p_dbl</text>
</a>
</g>
</g>
<!-- Node1&#45;&gt;Node6 -->
<g id="edge7" class="edge">
<title>Node1&#45;&gt;Node6</title>
<path fill="none" stroke="midnightblue" d="M207.16,-51.67C196.63,-44.3 183.46,-35.64 171,-29 164.6,-25.59 157.44,-22.37 150.72,-19.58"/>
<polygon fill="midnightblue" stroke="midnightblue" points="205.15,-54.53 215.32,-57.49 209.21,-48.84 205.15,-54.53"/>
</g>
<!-- Node3 -->
<g id="node3" class="node">
<title>Node3</title>
<g id="a_node3"><a xlink:href="fptest_8cu.html#a3c04138a5bfe5d72780bb7e82a18e627" target="_top" xlink:title="Run tests on Fp functions.">
<polygon fill="white" stroke="black" points="0,-76.5 0,-95.5 41,-95.5 41,-76.5 0,-76.5"/>
<text text-anchor="middle" x="20.5" y="-83.5" font-family="Helvetica,sans-Serif" font-size="10.00">main</text>
</a>
</g>
</g>
<!-- Node2&#45;&gt;Node3 -->
<g id="edge2" class="edge">
<title>Node2&#45;&gt;Node3</title>
<path fill="none" stroke="midnightblue" d="M87.95,-110.88C72.24,-105 54.29,-98.28 41.02,-93.31"/>
<polygon fill="midnightblue" stroke="midnightblue" points="86.79,-114.18 97.39,-114.41 89.25,-107.63 86.79,-114.18"/>
</g>
<!-- Node4&#45;&gt;Node3 -->
<g id="edge4" class="edge">
<title>Node4&#45;&gt;Node3</title>
<path fill="none" stroke="midnightblue" d="M66.69,-86C57.49,-86 48.54,-86 41.06,-86"/>
<polygon fill="midnightblue" stroke="midnightblue" points="66.71,-89.5 76.71,-86 66.71,-82.5 66.71,-89.5"/>
</g>
<!-- Node5&#45;&gt;Node3 -->
<g id="edge6" class="edge">
<title>Node5&#45;&gt;Node3</title>
<path fill="none" stroke="midnightblue" d="M87.95,-61.12C72.24,-67 54.29,-73.72 41.02,-78.69"/>
<polygon fill="midnightblue" stroke="midnightblue" points="89.25,-64.37 97.39,-57.59 86.79,-57.82 89.25,-64.37"/>
</g>
</g>
</svg>
