<?xml version="1.0" encoding="UTF-8" standalone="no"?>
<!DOCTYPE svg PUBLIC "-//W3C//DTD SVG 1.1//EN"
 "http://www.w3.org/Graphics/SVG/1.1/DTD/svg11.dtd">
<!-- Generated by graphviz version 2.43.0 (0)
 -->
<!-- Title: fp_x12 Pages: 1 -->
<svg width="265pt" height="104pt"
 viewBox="0.00 0.00 265.00 104.00" xmlns="http://www.w3.org/2000/svg" xmlns:xlink="http://www.w3.org/1999/xlink">
<g id="graph0" class="graph" transform="scale(1 1) rotate(0) translate(4 100)">
<title>fp_x12</title>
<polygon fill="white" stroke="transparent" points="-4,4 -4,-100 261,-100 261,4 -4,4"/>
<!-- Node1 -->
<g id="node1" class="node">
<title>Node1</title>
<g id="a_node1"><a xlink:title="Multiplies the residue mod p x by 12 and stores the result into z.">
<polygon fill="#bfbfbf" stroke="black" points="207,-38.5 207,-57.5 257,-57.5 257,-38.5 207,-38.5"/>
<text text-anchor="middle" x="232" y="-45.5" font-family="Helvetica,sans-Serif" font-size="10.00">fp_x12</text>
</a>
</g>
</g>
<!-- Node2 -->
<g id="node2" class="node">
<title>Node2</title>
<g id="a_node2"><a xlink:href="fptest__mulconst_8cu.html#a9cf3b3ea99e2b90e54dae275f3bf9424" target="_top" xlink:title="Test self consistency in multiplication by constant:">
<polygon fill="white" stroke="black" points="77,-76.5 77,-95.5 171,-95.5 171,-76.5 77,-76.5"/>
<text text-anchor="middle" x="124" y="-83.5" font-family="Helvetica,sans-Serif" font-size="10.00">FpTestMulConst</text>
</a>
</g>
</g>
<!-- Node1&#45;&gt;Node2 -->
<g id="edge1" class="edge">
<title>Node1&#45;&gt;Node2</title>
<path fill="none" stroke="midnightblue" d="M197.17,-60.13C182.42,-65.42 165.38,-71.52 151.56,-76.48"/>
<polygon fill="midnightblue" stroke="midnightblue" points="198.71,-63.29 206.95,-56.62 196.35,-56.7 198.71,-63.29"/>
</g>
<!-- Node4 -->
<g id="node4" class="node">
<title>Node4</title>
<g id="a_node4"><a xlink:href="fptest__sqr_8cu.html#aab87718273605d36b6696eb2068abef0" target="_top" xlink:title="Test for squaring on Fp. Checks for self consistency:">
<polygon fill="white" stroke="black" points="92,-38.5 92,-57.5 156,-57.5 156,-38.5 92,-38.5"/>
<text text-anchor="middle" x="124" y="-45.5" font-family="Helvetica,sans-Serif" font-size="10.00">FpTestSqr</text>
</a>
</g>
</g>
<!-- Node1&#45;&gt;Node4 -->
<g id="edge3" class="edge">
<title>Node1&#45;&gt;Node4</title>
<path fill="none" stroke="midnightblue" d="M196.91,-48C183.84,-48 169,-48 156.21,-48"/>
<polygon fill="midnightblue" stroke="midnightblue" points="196.95,-51.5 206.95,-48 196.95,-44.5 196.95,-51.5"/>
</g>
<!-- Node5 -->
<g id="node5" class="node">
<title>Node5</title>
<g id="a_node5"><a xlink:href="g1_8cuh.html#a738cb164cdffd441d2aa86d5329cd0bc" target="_top" xlink:title="G1 point doubling, with write back: p=2*p.">
<polygon fill="white" stroke="black" points="96.5,-0.5 96.5,-19.5 151.5,-19.5 151.5,-0.5 96.5,-0.5"/>
<text text-anchor="middle" x="124" y="-7.5" font-family="Helvetica,sans-Serif" font-size="10.00">g1p_dbl</text>
</a>
</g>
</g>
<!-- Node1&#45;&gt;Node5 -->
<g id="edge5" class="edge">
<title>Node1&#45;&gt;Node5</title>
<path fill="none" stroke="midnightblue" d="M197.17,-35.87C182.42,-30.58 165.38,-24.48 151.56,-19.52"/>
<polygon fill="midnightblue" stroke="midnightblue" points="196.35,-39.3 206.95,-39.38 198.71,-32.71 196.35,-39.3"/>
</g>
<!-- Node3 -->
<g id="node3" class="node">
<title>Node3</title>
<g id="a_node3"><a xlink:href="fptest_8cu.html#a3c04138a5bfe5d72780bb7e82a18e627" target="_top" xlink:title="Run tests on Fp functions.">
<polygon fill="white" stroke="black" points="0,-57.5 0,-76.5 41,-76.5 41,-57.5 0,-57.5"/>
<text text-anchor="middle" x="20.5" y="-64.5" font-family="Helvetica,sans-Serif" font-size="10.00">main</text>
</a>
</g>
</g>
<!-- Node2&#45;&gt;Node3 -->
<g id="edge2" class="edge">
<title>Node2&#45;&gt;Node3</title>
<path fill="none" stroke="midnightblue" d="M66.69,-75.46C57.49,-73.74 48.54,-72.06 41.06,-70.66"/>
<polygon fill="midnightblue" stroke="midnightblue" points="66.23,-78.93 76.71,-77.33 67.52,-72.05 66.23,-78.93"/>
</g>
<!-- Node4&#45;&gt;Node3 -->
<g id="edge4" class="edge">
<title>Node4&#45;&gt;Node3</title>
<path fill="none" stroke="midnightblue" d="M81.98,-55.68C67.88,-58.32 52.74,-61.15 41.14,-63.32"/>
<polygon fill="midnightblue" stroke="midnightblue" points="82.81,-59.08 92,-53.8 81.52,-52.2 82.81,-59.08"/>
</g>
</g>
</svg>
