<?xml version="1.0" encoding="UTF-8" standalone="no"?>
<!DOCTYPE svg PUBLIC "-//W3C//DTD SVG 1.1//EN"
 "http://www.w3.org/Graphics/SVG/1.1/DTD/svg11.dtd">
<!-- Generated by graphviz version 2.43.0 (0)
 -->
<!-- Title: fp_x2 Pages: 1 -->
<svg width="259pt" height="218pt"
 viewBox="0.00 0.00 259.00 218.00" xmlns="http://www.w3.org/2000/svg" xmlns:xlink="http://www.w3.org/1999/xlink">
<g id="graph0" class="graph" transform="scale(1 1) rotate(0) translate(4 214)">
<title>fp_x2</title>
<polygon fill="white" stroke="transparent" points="-4,4 -4,-214 255,-214 255,4 -4,4"/>
<!-- Node1 -->
<g id="node1" class="node">
<title>Node1</title>
<g id="a_node1"><a xlink:title="Multiplies x by 2 and stores the result into z.">
<polygon fill="#bfbfbf" stroke="black" points="207,-95.5 207,-114.5 251,-114.5 251,-95.5 207,-95.5"/>
<text text-anchor="middle" x="229" y="-102.5" font-family="Helvetica,sans-Serif" font-size="10.00">fp_x2</text>
</a>
</g>
</g>
<!-- Node2 -->
<g id="node2" class="node">
<title>Node2</title>
<g id="a_node2"><a xlink:href="fptest__add_8cu.html#abfc772410295adcd309501a61369756c" target="_top" xlink:title="Test for addition in Fp.">
<polygon fill="white" stroke="black" points="90.5,-190.5 90.5,-209.5 157.5,-209.5 157.5,-190.5 90.5,-190.5"/>
<text text-anchor="middle" x="124" y="-197.5" font-family="Helvetica,sans-Serif" font-size="10.00">FpTestAdd</text>
</a>
</g>
</g>
<!-- Node1&#45;&gt;Node2 -->
<g id="edge1" class="edge">
<title>Node1&#45;&gt;Node2</title>
<path fill="none" stroke="midnightblue" d="M217.91,-123.68C207.94,-140.63 191.27,-165.29 171,-181 166.22,-184.71 160.61,-187.81 154.99,-190.35"/>
<polygon fill="midnightblue" stroke="midnightblue" points="221.1,-125.15 222.98,-114.72 215.01,-121.7 221.1,-125.15"/>
</g>
<!-- Node4 -->
<g id="node4" class="node">
<title>Node4</title>
<g id="a_node4"><a xlink:href="fptest__mulconst_8cu.html#a9cf3b3ea99e2b90e54dae275f3bf9424" target="_top" xlink:title="Test self consistency in multiplication by constant:">
<polygon fill="white" stroke="black" points="77,-152.5 77,-171.5 171,-171.5 171,-152.5 77,-152.5"/>
<text text-anchor="middle" x="124" y="-159.5" font-family="Helvetica,sans-Serif" font-size="10.00">FpTestMulConst</text>
</a>
</g>
</g>
<!-- Node1&#45;&gt;Node4 -->
<g id="edge3" class="edge">
<title>Node1&#45;&gt;Node4</title>
<path fill="none" stroke="midnightblue" d="M207.16,-120.33C196.63,-127.7 183.46,-136.36 171,-143 164.6,-146.41 157.44,-149.63 150.72,-152.42"/>
<polygon fill="midnightblue" stroke="midnightblue" points="209.21,-123.16 215.32,-114.51 205.15,-117.47 209.21,-123.16"/>
</g>
<!-- Node5 -->
<g id="node5" class="node">
<title>Node5</title>
<g id="a_node5"><a xlink:href="fptest__sqr_8cu.html#aab87718273605d36b6696eb2068abef0" target="_top" xlink:title="Test for squaring on Fp. Checks for self consistency:">
<polygon fill="white" stroke="black" points="92,-114.5 92,-133.5 156,-133.5 156,-114.5 92,-114.5"/>
<text text-anchor="middle" x="124" y="-121.5" font-family="Helvetica,sans-Serif" font-size="10.00">FpTestSqr</text>
</a>
</g>
</g>
<!-- Node1&#45;&gt;Node5 -->
<g id="edge5" class="edge">
<title>Node1&#45;&gt;Node5</title>
<path fill="none" stroke="midnightblue" d="M196.82,-110.75C183.92,-113.13 168.98,-115.89 156.09,-118.27"/>
<polygon fill="midnightblue" stroke="midnightblue" points="197.46,-114.19 206.66,-108.94 196.19,-107.31 197.46,-114.19"/>
</g>
<!-- Node6 -->
<g id="node6" class="node">
<title>Node6</title>
<g id="a_node6"><a xlink:href="fptest__sqr_8cu.html#a1ee9909ec8b31c309f33b385db6d12cb" target="_top" xlink:title="Test for squaring on Fp. Checks for self consistency:">
<polygon fill="white" stroke="black" points="89,-76.5 89,-95.5 159,-95.5 159,-76.5 89,-76.5"/>
<text text-anchor="middle" x="124" y="-83.5" font-family="Helvetica,sans-Serif" font-size="10.00">FpTestSqr2</text>
</a>
</g>
</g>
<!-- Node1&#45;&gt;Node6 -->
<g id="edge7" class="edge">
<title>Node1&#45;&gt;Node6</title>
<path fill="none" stroke="midnightblue" d="M196.77,-99.24C184.93,-97.06 171.39,-94.56 159.29,-92.33"/>
<polygon fill="midnightblue" stroke="midnightblue" points="196.19,-102.69 206.66,-101.06 197.46,-95.81 196.19,-102.69"/>
</g>
<!-- Node7 -->
<g id="node7" class="node">
<title>Node7</title>
<g id="a_node7"><a xlink:href="fptest__sub_8cu.html#aafc8d0db47deda034734d2a2020f4ada" target="_top" xlink:title="Test for subtraction in Fp.">
<polygon fill="white" stroke="black" points="91,-38.5 91,-57.5 157,-57.5 157,-38.5 91,-38.5"/>
<text text-anchor="middle" x="124" y="-45.5" font-family="Helvetica,sans-Serif" font-size="10.00">FpTestSub</text>
</a>
</g>
</g>
<!-- Node1&#45;&gt;Node7 -->
<g id="edge9" class="edge">
<title>Node1&#45;&gt;Node7</title>
<path fill="none" stroke="midnightblue" d="M207.16,-89.67C196.63,-82.3 183.46,-73.64 171,-67 164.6,-63.59 157.44,-60.37 150.72,-57.58"/>
<polygon fill="midnightblue" stroke="midnightblue" points="205.15,-92.53 215.32,-95.49 209.21,-86.84 205.15,-92.53"/>
</g>
<!-- Node8 -->
<g id="node8" class="node">
<title>Node8</title>
<g id="a_node8"><a xlink:href="g1_8cuh.html#a738cb164cdffd441d2aa86d5329cd0bc" target="_top" xlink:title="G1 point doubling, with write back: p=2*p.">
<polygon fill="white" stroke="black" points="96.5,-0.5 96.5,-19.5 151.5,-19.5 151.5,-0.5 96.5,-0.5"/>
<text text-anchor="middle" x="124" y="-7.5" font-family="Helvetica,sans-Serif" font-size="10.00">g1p_dbl</text>
</a>
</g>
</g>
<!-- Node1&#45;&gt;Node8 -->
<g id="edge11" class="edge">
<title>Node1&#45;&gt;Node8</title>
<path fill="none" stroke="midnightblue" d="M217.91,-86.32C207.94,-69.37 191.27,-44.71 171,-29 165.26,-24.55 158.34,-20.98 151.62,-18.18"/>
<polygon fill="midnightblue" stroke="midnightblue" points="215.01,-88.3 222.98,-95.28 221.1,-84.85 215.01,-88.3"/>
</g>
<!-- Node3 -->
<g id="node3" class="node">
<title>Node3</title>
<g id="a_node3"><a xlink:href="fptest_8cu.html#a3c04138a5bfe5d72780bb7e82a18e627" target="_top" xlink:title="Run tests on Fp functions.">
<polygon fill="white" stroke="black" points="0,-114.5 0,-133.5 41,-133.5 41,-114.5 0,-114.5"/>
<text text-anchor="middle" x="20.5" y="-121.5" font-family="Helvetica,sans-Serif" font-size="10.00">main</text>
</a>
</g>
</g>
<!-- Node2&#45;&gt;Node3 -->
<g id="edge2" class="edge">
<title>Node2&#45;&gt;Node3</title>
<path fill="none" stroke="midnightblue" d="M85.65,-186.14C82.64,-184.55 79.72,-182.84 77,-181 57.1,-167.53 38.61,-146.04 28.81,-133.65"/>
<polygon fill="midnightblue" stroke="midnightblue" points="84.29,-189.36 94.82,-190.49 87.29,-183.04 84.29,-189.36"/>
</g>
<!-- Node4&#45;&gt;Node3 -->
<g id="edge4" class="edge">
<title>Node4&#45;&gt;Node3</title>
<path fill="none" stroke="midnightblue" d="M87.95,-148.88C72.24,-143 54.29,-136.28 41.02,-131.31"/>
<polygon fill="midnightblue" stroke="midnightblue" points="86.79,-152.18 97.39,-152.41 89.25,-145.63 86.79,-152.18"/>
</g>
<!-- Node5&#45;&gt;Node3 -->
<g id="edge6" class="edge">
<title>Node5&#45;&gt;Node3</title>
<path fill="none" stroke="midnightblue" d="M81.98,-124C67.88,-124 52.74,-124 41.14,-124"/>
<polygon fill="midnightblue" stroke="midnightblue" points="82,-127.5 92,-124 82,-120.5 82,-127.5"/>
</g>
<!-- Node6&#45;&gt;Node3 -->
<g id="edge8" class="edge">
<title>Node6&#45;&gt;Node3</title>
<path fill="none" stroke="midnightblue" d="M87.95,-99.12C72.24,-105 54.29,-111.72 41.02,-116.69"/>
<polygon fill="midnightblue" stroke="midnightblue" points="89.25,-102.37 97.39,-95.59 86.79,-95.82 89.25,-102.37"/>
</g>
<!-- Node7&#45;&gt;Node3 -->
<g id="edge10" class="edge">
<title>Node7&#45;&gt;Node3</title>
<path fill="none" stroke="midnightblue" d="M85.65,-61.86C82.64,-63.45 79.72,-65.16 77,-67 57.1,-80.47 38.61,-101.96 28.81,-114.35"/>
<polygon fill="midnightblue" stroke="midnightblue" points="87.29,-64.96 94.82,-57.51 84.29,-58.64 87.29,-64.96"/>
</g>
</g>
</svg>
