<?xml version="1.0" encoding="UTF-8" standalone="no"?>
<!DOCTYPE svg PUBLIC "-//W3C//DTD SVG 1.1//EN"
 "http://www.w3.org/Graphics/SVG/1.1/DTD/svg11.dtd">
<!-- Generated by graphviz version 2.43.0 (0)
 -->
<!-- Title: fp_mul.cuh Pages: 1 -->
<svg width="340pt" height="84pt"
 viewBox="0.00 0.00 340.00 84.00" xmlns="http://www.w3.org/2000/svg" xmlns:xlink="http://www.w3.org/1999/xlink">
<g id="graph0" class="graph" transform="scale(1 1) rotate(0) translate(4 80)">
<title>fp_mul.cuh</title>
<polygon fill="white" stroke="transparent" points="-4,4 -4,-80 336,-80 336,4 -4,4"/>
<!-- Node1 -->
<g id="node1" class="node">
<title>Node1</title>
<g id="a_node1"><a xlink:title=" ">
<polygon fill="#bfbfbf" stroke="black" points="129,-56.5 129,-75.5 200,-75.5 200,-56.5 129,-56.5"/>
<text text-anchor="middle" x="164.5" y="-63.5" font-family="Helvetica,sans-Serif" font-size="10.00">fp_mul.cuh</text>
</a>
</g>
</g>
<!-- Node2 -->
<g id="node2" class="node">
<title>Node2</title>
<g id="a_node2"><a xlink:href="fp__mma_8cu.html" target="_top" xlink:title=" ">
<polygon fill="white" stroke="black" points="0,-0.5 0,-19.5 71,-19.5 71,-0.5 0,-0.5"/>
<text text-anchor="middle" x="35.5" y="-7.5" font-family="Helvetica,sans-Serif" font-size="10.00">fp_mma.cu</text>
</a>
</g>
</g>
<!-- Node1&#45;&gt;Node2 -->
<g id="edge1" class="edge">
<title>Node1&#45;&gt;Node2</title>
<path fill="none" stroke="midnightblue" d="M134.65,-52.5C110.46,-42.38 77.04,-28.39 55.84,-19.52"/>
<polygon fill="midnightblue" stroke="midnightblue" points="133.48,-55.81 144.06,-56.44 136.19,-49.35 133.48,-55.81"/>
</g>
<!-- Node3 -->
<g id="node3" class="node">
<title>Node3</title>
<g id="a_node3"><a xlink:href="fp__mul_8cu.html" target="_top" xlink:title=" ">
<polygon fill="white" stroke="black" points="89,-0.5 89,-19.5 154,-19.5 154,-0.5 89,-0.5"/>
<text text-anchor="middle" x="121.5" y="-7.5" font-family="Helvetica,sans-Serif" font-size="10.00">fp_mul.cu</text>
</a>
</g>
</g>
<!-- Node1&#45;&gt;Node3 -->
<g id="edge2" class="edge">
<title>Node1&#45;&gt;Node3</title>
<path fill="none" stroke="midnightblue" d="M151.08,-48.14C143.59,-38.74 134.56,-27.4 128.47,-19.75"/>
<polygon fill="midnightblue" stroke="midnightblue" points="148.43,-50.44 157.4,-56.08 153.91,-46.08 148.43,-50.44"/>
</g>
<!-- Node4 -->
<g id="node4" class="node">
<title>Node4</title>
<g id="a_node4"><a xlink:href="g1p__add_8cu.html" target="_top" xlink:title=" ">
<polygon fill="white" stroke="black" points="172.5,-0.5 172.5,-19.5 244.5,-19.5 244.5,-0.5 172.5,-0.5"/>
<text text-anchor="middle" x="208.5" y="-7.5" font-family="Helvetica,sans-Serif" font-size="10.00">g1p_add.cu</text>
</a>
</g>
</g>
<!-- Node1&#45;&gt;Node4 -->
<g id="edge3" class="edge">
<title>Node1&#45;&gt;Node4</title>
<path fill="none" stroke="midnightblue" d="M178.23,-48.14C185.9,-38.74 195.13,-27.4 201.37,-19.75"/>
<polygon fill="midnightblue" stroke="midnightblue" points="175.37,-46.12 171.77,-56.08 180.8,-50.54 175.37,-46.12"/>
</g>
<!-- Node5 -->
<g id="node5" class="node">
<title>Node5</title>
<g id="a_node5"><a xlink:href="g1p__dbl_8cu.html" target="_top" xlink:title=" ">
<polygon fill="white" stroke="black" points="263,-0.5 263,-19.5 332,-19.5 332,-0.5 263,-0.5"/>
<text text-anchor="middle" x="297.5" y="-7.5" font-family="Helvetica,sans-Serif" font-size="10.00">g1p_dbl.cu</text>
</a>
</g>
</g>
<!-- Node1&#45;&gt;Node5 -->
<g id="edge4" class="edge">
<title>Node1&#45;&gt;Node5</title>
<path fill="none" stroke="midnightblue" d="M194.95,-52.64C219.91,-42.5 254.58,-28.43 276.52,-19.52"/>
<polygon fill="midnightblue" stroke="midnightblue" points="193.52,-49.44 185.57,-56.44 196.16,-55.92 193.52,-49.44"/>
</g>
</g>
</svg>
