<?xml version="1.0" encoding="UTF-8" standalone="no"?>
<!DOCTYPE svg PUBLIC "-//W3C//DTD SVG 1.1//EN"
 "http://www.w3.org/Graphics/SVG/1.1/DTD/svg11.dtd">
<!-- Generated by graphviz version 2.43.0 (0)
 -->
<!-- Title: fp_x12.cuh Pages: 1 -->
<svg width="250pt" height="84pt"
 viewBox="0.00 0.00 249.50 84.00" xmlns="http://www.w3.org/2000/svg" xmlns:xlink="http://www.w3.org/1999/xlink">
<g id="graph0" class="graph" transform="scale(1 1) rotate(0) translate(4 80)">
<title>fp_x12.cuh</title>
<polygon fill="white" stroke="transparent" points="-4,4 -4,-80 245.5,-80 245.5,4 -4,4"/>
<!-- Node1 -->
<g id="node1" class="node">
<title>Node1</title>
<g id="a_node1"><a xlink:title=" ">
<polygon fill="#bfbfbf" stroke="black" points="83,-56.5 83,-75.5 153,-75.5 153,-56.5 83,-56.5"/>
<text text-anchor="middle" x="118" y="-63.5" font-family="Helvetica,sans-Serif" font-size="10.00">fp_x12.cuh</text>
</a>
</g>
</g>
<!-- Node2 -->
<g id="node2" class="node">
<title>Node2</title>
<g id="a_node2"><a xlink:href="fp__x12_8cu.html" target="_top" xlink:title=" ">
<polygon fill="white" stroke="black" points="0,-0.5 0,-19.5 64,-19.5 64,-0.5 0,-0.5"/>
<text text-anchor="middle" x="32" y="-7.5" font-family="Helvetica,sans-Serif" font-size="10.00">fp_x12.cu</text>
</a>
</g>
</g>
<!-- Node1&#45;&gt;Node2 -->
<g id="edge1" class="edge">
<title>Node1&#45;&gt;Node2</title>
<path fill="none" stroke="midnightblue" d="M95.55,-50.9C79.78,-41 59.19,-28.07 45.78,-19.65"/>
<polygon fill="midnightblue" stroke="midnightblue" points="93.85,-53.97 104.18,-56.32 97.57,-48.04 93.85,-53.97"/>
</g>
<!-- Node3 -->
<g id="node3" class="node">
<title>Node3</title>
<g id="a_node3"><a xlink:href="g1p__add_8cu.html" target="_top" xlink:title=" ">
<polygon fill="white" stroke="black" points="82,-0.5 82,-19.5 154,-19.5 154,-0.5 82,-0.5"/>
<text text-anchor="middle" x="118" y="-7.5" font-family="Helvetica,sans-Serif" font-size="10.00">g1p_add.cu</text>
</a>
</g>
</g>
<!-- Node1&#45;&gt;Node3 -->
<g id="edge2" class="edge">
<title>Node1&#45;&gt;Node3</title>
<path fill="none" stroke="midnightblue" d="M118,-45.8C118,-36.91 118,-26.78 118,-19.75"/>
<polygon fill="midnightblue" stroke="midnightblue" points="114.5,-46.08 118,-56.08 121.5,-46.08 114.5,-46.08"/>
</g>
<!-- Node4 -->
<g id="node4" class="node">
<title>Node4</title>
<g id="a_node4"><a xlink:href="g1p__dbl_8cu.html" target="_top" xlink:title=" ">
<polygon fill="white" stroke="black" points="172.5,-0.5 172.5,-19.5 241.5,-19.5 241.5,-0.5 172.5,-0.5"/>
<text text-anchor="middle" x="207" y="-7.5" font-family="Helvetica,sans-Serif" font-size="10.00">g1p_dbl.cu</text>
</a>
</g>
</g>
<!-- Node1&#45;&gt;Node4 -->
<g id="edge3" class="edge">
<title>Node1&#45;&gt;Node4</title>
<path fill="none" stroke="midnightblue" d="M141.24,-50.9C157.56,-41 178.87,-28.07 192.74,-19.65"/>
<polygon fill="midnightblue" stroke="midnightblue" points="139.03,-48.14 132.3,-56.32 142.66,-54.13 139.03,-48.14"/>
</g>
</g>
</svg>
