<?xml version="1.0" encoding="UTF-8" standalone="no"?>
<!DOCTYPE svg PUBLIC "-//W3C//DTD SVG 1.1//EN"
 "http://www.w3.org/Graphics/SVG/1.1/DTD/svg11.dtd">
<!-- Generated by graphviz version 2.43.0 (0)
 -->
<!-- Title: FpTestCommutativeAdd Pages: 1 -->
<svg width="512pt" height="180pt"
 viewBox="0.00 0.00 512.00 180.00" xmlns="http://www.w3.org/2000/svg" xmlns:xlink="http://www.w3.org/1999/xlink">
<g id="graph0" class="graph" transform="scale(1 1) rotate(0) translate(4 176)">
<title>FpTestCommutativeAdd</title>
<polygon fill="white" stroke="transparent" points="-4,4 -4,-176 508,-176 508,4 -4,4"/>
<!-- Node1 -->
<g id="node1" class="node">
<title>Node1</title>
<g id="a_node1"><a xlink:title="Test for the commutative property of addition in Fp.">
<polygon fill="#bfbfbf" stroke="black" points="0,-95.5 0,-114.5 134,-114.5 134,-95.5 0,-95.5"/>
<text text-anchor="middle" x="67" y="-102.5" font-family="Helvetica,sans-Serif" font-size="10.00">FpTestCommutativeAdd</text>
</a>
</g>
</g>
<!-- Node2 -->
<g id="node2" class="node">
<title>Node2</title>
<g id="a_node2"><a xlink:href="fp_8cuh.html#a38d4eadff7890b835dceb28d2adb7358" target="_top" xlink:title="Computes the sum of two residues x and y modulo p and stores it in z. Device only function.">
<polygon fill="white" stroke="black" points="170,-152.5 170,-171.5 220,-171.5 220,-152.5 170,-152.5"/>
<text text-anchor="middle" x="195" y="-159.5" font-family="Helvetica,sans-Serif" font-size="10.00">fp_add</text>
</a>
</g>
</g>
<!-- Node1&#45;&gt;Node2 -->
<g id="edge1" class="edge">
<title>Node1&#45;&gt;Node2</title>
<path fill="none" stroke="midnightblue" d="M89.09,-114.54C109.44,-123.75 140.47,-137.78 163.51,-148.21"/>
<polygon fill="midnightblue" stroke="midnightblue" points="162.29,-151.5 172.84,-152.43 165.17,-145.12 162.29,-151.5"/>
</g>
<!-- Node3 -->
<g id="node3" class="node">
<title>Node3</title>
<g id="a_node3"><a xlink:href="fp_8cuh.html#aa84fc3bc6fd35779512d8f14938df96d" target="_top" xlink:title="Copy from x into z.">
<polygon fill="white" stroke="black" points="444,-76.5 444,-95.5 493,-95.5 493,-76.5 444,-76.5"/>
<text text-anchor="middle" x="468.5" y="-83.5" font-family="Helvetica,sans-Serif" font-size="10.00">fp_cpy</text>
</a>
</g>
</g>
<!-- Node1&#45;&gt;Node3 -->
<g id="edge2" class="edge">
<title>Node1&#45;&gt;Node3</title>
<path fill="none" stroke="midnightblue" d="M134.19,-110.08C200.87,-114.01 306.54,-116.98 397,-105 409.34,-103.37 422.59,-100.19 434.24,-96.89"/>
<polygon fill="midnightblue" stroke="midnightblue" points="435.4,-100.2 443.99,-94 433.41,-93.49 435.4,-100.2"/>
</g>
<!-- Node4 -->
<g id="node4" class="node">
<title>Node4</title>
<g id="a_node4"><a xlink:href="fp_8cuh.html#a0c4a481946542c2d262b361c9e3700ef" target="_top" xlink:title="Compares two fp_t residues.">
<polygon fill="white" stroke="black" points="170,-76.5 170,-95.5 220,-95.5 220,-76.5 170,-76.5"/>
<text text-anchor="middle" x="195" y="-83.5" font-family="Helvetica,sans-Serif" font-size="10.00">fp_neq</text>
</a>
</g>
</g>
<!-- Node1&#45;&gt;Node4 -->
<g id="edge3" class="edge">
<title>Node1&#45;&gt;Node4</title>
<path fill="none" stroke="midnightblue" d="M131.37,-95.44C141.24,-93.96 151.09,-92.47 159.96,-91.13"/>
<polygon fill="midnightblue" stroke="midnightblue" points="160.51,-94.59 169.87,-89.64 159.46,-87.67 160.51,-94.59"/>
</g>
<!-- Node9 -->
<g id="node9" class="node">
<title>Node9</title>
<g id="a_node9"><a xlink:href="fp_8cu.html#a2704620d529ee4e06657ff58de45866d" target="_top" xlink:title="Prints the canonical representation of x to STDOUT.">
<polygon fill="white" stroke="black" points="339.5,-0.5 339.5,-19.5 393.5,-19.5 393.5,-0.5 339.5,-0.5"/>
<text text-anchor="middle" x="366.5" y="-7.5" font-family="Helvetica,sans-Serif" font-size="10.00">fp_print</text>
</a>
</g>
</g>
<!-- Node1&#45;&gt;Node9 -->
<g id="edge9" class="edge">
<title>Node1&#45;&gt;Node9</title>
<path fill="none" stroke="midnightblue" d="M92.14,-95.44C112.7,-87.43 143.09,-75.92 170,-67 225.26,-48.68 290.32,-30.34 329.7,-19.59"/>
<polygon fill="midnightblue" stroke="midnightblue" points="330.65,-22.96 339.38,-16.96 328.81,-16.21 330.65,-22.96"/>
</g>
<!-- Node5 -->
<g id="node5" class="node">
<title>Node5</title>
<g id="a_node5"><a xlink:href="fp_8cuh.html#ade1abe61dfb7cbe9b00d78a38dda4bd3" target="_top" xlink:title="Compares two residues modulo p.">
<polygon fill="white" stroke="black" points="256,-76.5 256,-95.5 300,-95.5 300,-76.5 256,-76.5"/>
<text text-anchor="middle" x="278" y="-83.5" font-family="Helvetica,sans-Serif" font-size="10.00">fp_eq</text>
</a>
</g>
</g>
<!-- Node4&#45;&gt;Node5 -->
<g id="edge4" class="edge">
<title>Node4&#45;&gt;Node5</title>
<path fill="none" stroke="midnightblue" d="M220.3,-86C228.23,-86 237.15,-86 245.53,-86"/>
<polygon fill="midnightblue" stroke="midnightblue" points="245.74,-89.5 255.74,-86 245.74,-82.5 245.74,-89.5"/>
</g>
<!-- Node6 -->
<g id="node6" class="node">
<title>Node6</title>
<g id="a_node6"><a xlink:href="fp_8cuh.html#a45eab81e60385635ab4732360f94ec91" target="_top" xlink:title="Checks if the residue x modulo p is congruent to zero.">
<polygon fill="white" stroke="black" points="336,-76.5 336,-95.5 397,-95.5 397,-76.5 336,-76.5"/>
<text text-anchor="middle" x="366.5" y="-83.5" font-family="Helvetica,sans-Serif" font-size="10.00">fp_iszero</text>
</a>
</g>
</g>
<!-- Node5&#45;&gt;Node6 -->
<g id="edge5" class="edge">
<title>Node5&#45;&gt;Node6</title>
<path fill="none" stroke="midnightblue" d="M300.38,-86C308.08,-86 317.03,-86 325.78,-86"/>
<polygon fill="midnightblue" stroke="midnightblue" points="325.88,-89.5 335.88,-86 325.88,-82.5 325.88,-89.5"/>
</g>
<!-- Node8 -->
<g id="node8" class="node">
<title>Node8</title>
<g id="a_node8"><a xlink:href="fp_8cuh.html#aff96ec3f32ad9c0419911604d5fefe44" target="_top" xlink:title="Calculates the difference of two residues modulo p and stores it into z.">
<polygon fill="white" stroke="black" points="342,-38.5 342,-57.5 391,-57.5 391,-38.5 342,-38.5"/>
<text text-anchor="middle" x="366.5" y="-45.5" font-family="Helvetica,sans-Serif" font-size="10.00">fp_sub</text>
</a>
</g>
</g>
<!-- Node5&#45;&gt;Node8 -->
<g id="edge8" class="edge">
<title>Node5&#45;&gt;Node8</title>
<path fill="none" stroke="midnightblue" d="M300.38,-76.61C310.6,-72.12 323.02,-66.66 334.27,-61.72"/>
<polygon fill="midnightblue" stroke="midnightblue" points="336.02,-64.78 343.76,-57.55 333.2,-58.37 336.02,-64.78"/>
</g>
<!-- Node6&#45;&gt;Node3 -->
<g id="edge6" class="edge">
<title>Node6&#45;&gt;Node3</title>
<path fill="none" stroke="midnightblue" d="M397.23,-86C408.6,-86 421.66,-86 433.41,-86"/>
<polygon fill="midnightblue" stroke="midnightblue" points="433.74,-89.5 443.74,-86 433.74,-82.5 433.74,-89.5"/>
</g>
<!-- Node7 -->
<g id="node7" class="node">
<title>Node7</title>
<g id="a_node7"><a xlink:href="fp_8cuh.html#a89b41553cb5af629dd8ac33b71d03ee1" target="_top" xlink:title="Narrow reduction of a residue modulo p, reducing to the canonical representation.">
<polygon fill="white" stroke="black" points="433,-19.5 433,-38.5 504,-38.5 504,-19.5 433,-19.5"/>
<text text-anchor="middle" x="468.5" y="-26.5" font-family="Helvetica,sans-Serif" font-size="10.00">fp_reduce6</text>
</a>
</g>
</g>
<!-- Node6&#45;&gt;Node7 -->
<g id="edge7" class="edge">
<title>Node6&#45;&gt;Node7</title>
<path fill="none" stroke="midnightblue" d="M384.46,-76.33C400.22,-67.35 423.89,-53.86 441.94,-43.57"/>
<polygon fill="midnightblue" stroke="midnightblue" points="443.83,-46.52 450.79,-38.53 440.37,-40.44 443.83,-46.52"/>
</g>
<!-- Node9&#45;&gt;Node3 -->
<g id="edge10" class="edge">
<title>Node9&#45;&gt;Node3</title>
<path fill="none" stroke="midnightblue" d="M383.02,-19.55C387.59,-22.49 392.56,-25.79 397,-29 414.96,-41.98 434.48,-57.93 448.42,-69.64"/>
<polygon fill="midnightblue" stroke="midnightblue" points="446.43,-72.54 456.32,-76.33 450.95,-67.2 446.43,-72.54"/>
</g>
<!-- Node9&#45;&gt;Node7 -->
<g id="edge11" class="edge">
<title>Node9&#45;&gt;Node7</title>
<path fill="none" stroke="midnightblue" d="M393.51,-14.94C402.54,-16.66 412.94,-18.63 423.03,-20.55"/>
<polygon fill="midnightblue" stroke="midnightblue" points="422.48,-24.01 432.95,-22.44 423.78,-17.13 422.48,-24.01"/>
</g>
</g>
</svg>
