<?xml version="1.0" encoding="UTF-8" standalone="no"?>
<!DOCTYPE svg PUBLIC "-//W3C//DTD SVG 1.1//EN"
 "http://www.w3.org/Graphics/SVG/1.1/DTD/svg11.dtd">
<!-- Generated by graphviz version 2.43.0 (0)
 -->
<!-- Title: FpTestMMA Pages: 1 -->
<svg width="458pt" height="180pt"
 viewBox="0.00 0.00 458.00 180.00" xmlns="http://www.w3.org/2000/svg" xmlns:xlink="http://www.w3.org/1999/xlink">
<g id="graph0" class="graph" transform="scale(1 1) rotate(0) translate(4 176)">
<title>FpTestMMA</title>
<polygon fill="white" stroke="transparent" points="-4,4 -4,-176 454,-176 454,4 -4,4"/>
<!-- Node1 -->
<g id="node1" class="node">
<title>Node1</title>
<g id="a_node1"><a xlink:title="Test for multiply&#45;multiply&#45;add. Compare with current standalone implementation of multiplication adn ...">
<polygon fill="#bfbfbf" stroke="black" points="0,-76.5 0,-95.5 73,-95.5 73,-76.5 0,-76.5"/>
<text text-anchor="middle" x="36.5" y="-83.5" font-family="Helvetica,sans-Serif" font-size="10.00">FpTestMMA</text>
</a>
</g>
</g>
<!-- Node2 -->
<g id="node2" class="node">
<title>Node2</title>
<g id="a_node2"><a xlink:href="fp_8cuh.html#a38d4eadff7890b835dceb28d2adb7358" target="_top" xlink:title="Computes the sum of two residues x and y modulo p and stores it in z. Device only function.">
<polygon fill="white" stroke="black" points="112.5,-152.5 112.5,-171.5 162.5,-171.5 162.5,-152.5 112.5,-152.5"/>
<text text-anchor="middle" x="137.5" y="-159.5" font-family="Helvetica,sans-Serif" font-size="10.00">fp_add</text>
</a>
</g>
</g>
<!-- Node1&#45;&gt;Node2 -->
<g id="edge1" class="edge">
<title>Node1&#45;&gt;Node2</title>
<path fill="none" stroke="midnightblue" d="M50.04,-95.63C66.63,-108.36 96.08,-130.97 115.95,-146.22"/>
<polygon fill="midnightblue" stroke="midnightblue" points="114,-149.14 124.06,-152.45 118.26,-143.59 114,-149.14"/>
</g>
<!-- Node3 -->
<g id="node3" class="node">
<title>Node3</title>
<g id="a_node3"><a xlink:href="fp_8cuh.html#aa84fc3bc6fd35779512d8f14938df96d" target="_top" xlink:title="Copy from x into z.">
<polygon fill="white" stroke="black" points="390,-105.5 390,-124.5 439,-124.5 439,-105.5 390,-105.5"/>
<text text-anchor="middle" x="414.5" y="-112.5" font-family="Helvetica,sans-Serif" font-size="10.00">fp_cpy</text>
</a>
</g>
</g>
<!-- Node1&#45;&gt;Node3 -->
<g id="edge2" class="edge">
<title>Node1&#45;&gt;Node3</title>
<path fill="none" stroke="midnightblue" d="M67.45,-95.58C80.13,-99.21 95.15,-102.96 109,-105 206.34,-119.34 322.99,-118.12 379.49,-116.38"/>
<polygon fill="midnightblue" stroke="midnightblue" points="379.77,-119.87 389.65,-116.04 379.54,-112.88 379.77,-119.87"/>
</g>
<!-- Node4 -->
<g id="node4" class="node">
<title>Node4</title>
<g id="a_node4"><a xlink:href="fp_8cuh.html#a1a105c78d0067f9bd927524a9c4d6955" target="_top" xlink:title="Fp multiply&#45;multiply&#45;add. Fast execution of z = (v*w + x*y) mod p The double&#45;wide products are added ...">
<polygon fill="white" stroke="black" points="109,-76.5 109,-95.5 166,-95.5 166,-76.5 109,-76.5"/>
<text text-anchor="middle" x="137.5" y="-83.5" font-family="Helvetica,sans-Serif" font-size="10.00">fp_mma</text>
</a>
</g>
</g>
<!-- Node1&#45;&gt;Node4 -->
<g id="edge3" class="edge">
<title>Node1&#45;&gt;Node4</title>
<path fill="none" stroke="midnightblue" d="M73.24,-86C81.5,-86 90.31,-86 98.65,-86"/>
<polygon fill="midnightblue" stroke="midnightblue" points="98.89,-89.5 108.89,-86 98.89,-82.5 98.89,-89.5"/>
</g>
<!-- Node5 -->
<g id="node5" class="node">
<title>Node5</title>
<g id="a_node5"><a xlink:href="fp_8cuh.html#a9f82a12248e7c53ac9d166e25e083bba" target="_top" xlink:title="Multiplies two Fp residues x and y, stores in z.">
<polygon fill="white" stroke="black" points="112.5,-38.5 112.5,-57.5 162.5,-57.5 162.5,-38.5 112.5,-38.5"/>
<text text-anchor="middle" x="137.5" y="-45.5" font-family="Helvetica,sans-Serif" font-size="10.00">fp_mul</text>
</a>
</g>
</g>
<!-- Node1&#45;&gt;Node5 -->
<g id="edge4" class="edge">
<title>Node1&#45;&gt;Node5</title>
<path fill="none" stroke="midnightblue" d="M62.48,-76.41C74.62,-71.75 89.4,-66.08 102.55,-61.03"/>
<polygon fill="midnightblue" stroke="midnightblue" points="104.13,-64.17 112.21,-57.32 101.62,-57.64 104.13,-64.17"/>
</g>
<!-- Node6 -->
<g id="node6" class="node">
<title>Node6</title>
<g id="a_node6"><a xlink:href="fp_8cuh.html#a0c4a481946542c2d262b361c9e3700ef" target="_top" xlink:title="Compares two fp_t residues.">
<polygon fill="white" stroke="black" points="112.5,-0.5 112.5,-19.5 162.5,-19.5 162.5,-0.5 112.5,-0.5"/>
<text text-anchor="middle" x="137.5" y="-7.5" font-family="Helvetica,sans-Serif" font-size="10.00">fp_neq</text>
</a>
</g>
</g>
<!-- Node1&#45;&gt;Node6 -->
<g id="edge5" class="edge">
<title>Node1&#45;&gt;Node6</title>
<path fill="none" stroke="midnightblue" d="M48.95,-76.47C62.91,-64.95 87.33,-45.09 109,-29 110.57,-27.83 112.21,-26.64 113.86,-25.46"/>
<polygon fill="midnightblue" stroke="midnightblue" points="115.92,-28.29 122.1,-19.68 111.9,-22.56 115.92,-28.29"/>
</g>
<!-- Node7 -->
<g id="node7" class="node">
<title>Node7</title>
<g id="a_node7"><a xlink:href="fp_8cuh.html#ade1abe61dfb7cbe9b00d78a38dda4bd3" target="_top" xlink:title="Compares two residues modulo p.">
<polygon fill="white" stroke="black" points="202,-10.5 202,-29.5 246,-29.5 246,-10.5 202,-10.5"/>
<text text-anchor="middle" x="224" y="-17.5" font-family="Helvetica,sans-Serif" font-size="10.00">fp_eq</text>
</a>
</g>
</g>
<!-- Node6&#45;&gt;Node7 -->
<g id="edge6" class="edge">
<title>Node6&#45;&gt;Node7</title>
<path fill="none" stroke="midnightblue" d="M162.94,-12.89C171.87,-13.95 182.09,-15.16 191.54,-16.28"/>
<polygon fill="midnightblue" stroke="midnightblue" points="191.43,-19.79 201.77,-17.49 192.25,-12.84 191.43,-19.79"/>
</g>
<!-- Node8 -->
<g id="node8" class="node">
<title>Node8</title>
<g id="a_node8"><a xlink:href="fp_8cuh.html#a45eab81e60385635ab4732360f94ec91" target="_top" xlink:title="Checks if the residue x modulo p is congruent to zero.">
<polygon fill="white" stroke="black" points="282,-67.5 282,-86.5 343,-86.5 343,-67.5 282,-67.5"/>
<text text-anchor="middle" x="312.5" y="-74.5" font-family="Helvetica,sans-Serif" font-size="10.00">fp_iszero</text>
</a>
</g>
</g>
<!-- Node7&#45;&gt;Node8 -->
<g id="edge7" class="edge">
<title>Node7&#45;&gt;Node8</title>
<path fill="none" stroke="midnightblue" d="M239.67,-29.67C253.05,-38.48 273.03,-51.65 288.52,-61.86"/>
<polygon fill="midnightblue" stroke="midnightblue" points="286.77,-64.89 297.04,-67.47 290.62,-59.05 286.77,-64.89"/>
</g>
<!-- Node10 -->
<g id="node10" class="node">
<title>Node10</title>
<g id="a_node10"><a xlink:href="fp_8cuh.html#aff96ec3f32ad9c0419911604d5fefe44" target="_top" xlink:title="Calculates the difference of two residues modulo p and stores it into z.">
<polygon fill="white" stroke="black" points="288,-10.5 288,-29.5 337,-29.5 337,-10.5 288,-10.5"/>
<text text-anchor="middle" x="312.5" y="-17.5" font-family="Helvetica,sans-Serif" font-size="10.00">fp_sub</text>
</a>
</g>
</g>
<!-- Node7&#45;&gt;Node10 -->
<g id="edge10" class="edge">
<title>Node7&#45;&gt;Node10</title>
<path fill="none" stroke="midnightblue" d="M246.38,-20C255.84,-20 267.19,-20 277.74,-20"/>
<polygon fill="midnightblue" stroke="midnightblue" points="277.93,-23.5 287.93,-20 277.93,-16.5 277.93,-23.5"/>
</g>
<!-- Node8&#45;&gt;Node3 -->
<g id="edge8" class="edge">
<title>Node8&#45;&gt;Node3</title>
<path fill="none" stroke="midnightblue" d="M338.73,-86.59C351.4,-91.4 366.9,-97.29 380.49,-102.46"/>
<polygon fill="midnightblue" stroke="midnightblue" points="379.4,-105.79 389.99,-106.07 381.89,-99.24 379.4,-105.79"/>
</g>
<!-- Node9 -->
<g id="node9" class="node">
<title>Node9</title>
<g id="a_node9"><a xlink:href="fp_8cuh.html#a89b41553cb5af629dd8ac33b71d03ee1" target="_top" xlink:title="Narrow reduction of a residue modulo p, reducing to the canonical representation.">
<polygon fill="white" stroke="black" points="379,-67.5 379,-86.5 450,-86.5 450,-67.5 379,-67.5"/>
<text text-anchor="middle" x="414.5" y="-74.5" font-family="Helvetica,sans-Serif" font-size="10.00">fp_reduce6</text>
</a>
</g>
</g>
<!-- Node8&#45;&gt;Node9 -->
<g id="edge9" class="edge">
<title>Node8&#45;&gt;Node9</title>
<path fill="none" stroke="midnightblue" d="M343.23,-77C351.17,-77 359.93,-77 368.5,-77"/>
<polygon fill="midnightblue" stroke="midnightblue" points="368.78,-80.5 378.78,-77 368.78,-73.5 368.78,-80.5"/>
</g>
</g>
</svg>
