<?xml version="1.0" encoding="UTF-8" standalone="no"?>
<!DOCTYPE svg PUBLIC "-//W3C//DTD SVG 1.1//EN"
 "http://www.w3.org/Graphics/SVG/1.1/DTD/svg11.dtd">
<!-- Generated by graphviz version 2.43.0 (0)
 -->
<!-- Title: FpTestCmp Pages: 1 -->
<svg width="449pt" height="104pt"
 viewBox="0.00 0.00 449.00 104.00" xmlns="http://www.w3.org/2000/svg" xmlns:xlink="http://www.w3.org/1999/xlink">
<g id="graph0" class="graph" transform="scale(1 1) rotate(0) translate(4 100)">
<title>FpTestCmp</title>
<polygon fill="white" stroke="transparent" points="-4,4 -4,-100 445,-100 445,4 -4,4"/>
<!-- Node1 -->
<g id="node1" class="node">
<title>Node1</title>
<g id="a_node1"><a xlink:title="Test for the comparison function in Fp; checks for inconsistencies in the following properties:">
<polygon fill="#bfbfbf" stroke="black" points="0,-38.5 0,-57.5 71,-57.5 71,-38.5 0,-38.5"/>
<text text-anchor="middle" x="35.5" y="-45.5" font-family="Helvetica,sans-Serif" font-size="10.00">FpTestCmp</text>
</a>
</g>
</g>
<!-- Node2 -->
<g id="node2" class="node">
<title>Node2</title>
<g id="a_node2"><a xlink:href="fp_8cuh.html#aa84fc3bc6fd35779512d8f14938df96d" target="_top" xlink:title="Copy from x into z.">
<polygon fill="white" stroke="black" points="381,-76.5 381,-95.5 430,-95.5 430,-76.5 381,-76.5"/>
<text text-anchor="middle" x="405.5" y="-83.5" font-family="Helvetica,sans-Serif" font-size="10.00">fp_cpy</text>
</a>
</g>
</g>
<!-- Node1&#45;&gt;Node2 -->
<g id="edge1" class="edge">
<title>Node1&#45;&gt;Node2</title>
<path fill="none" stroke="midnightblue" d="M71.12,-51.57C141.58,-58.85 300.86,-75.3 370.66,-82.51"/>
<polygon fill="midnightblue" stroke="midnightblue" points="370.37,-85.99 380.68,-83.54 371.09,-79.03 370.37,-85.99"/>
</g>
<!-- Node3 -->
<g id="node3" class="node">
<title>Node3</title>
<g id="a_node3"><a xlink:href="fp_8cuh.html#ade1abe61dfb7cbe9b00d78a38dda4bd3" target="_top" xlink:title="Compares two residues modulo p.">
<polygon fill="white" stroke="black" points="193,-19.5 193,-38.5 237,-38.5 237,-19.5 193,-19.5"/>
<text text-anchor="middle" x="215" y="-26.5" font-family="Helvetica,sans-Serif" font-size="10.00">fp_eq</text>
</a>
</g>
</g>
<!-- Node1&#45;&gt;Node3 -->
<g id="edge2" class="edge">
<title>Node1&#45;&gt;Node3</title>
<path fill="none" stroke="midnightblue" d="M71.15,-44.29C103.45,-40.83 151.23,-35.72 182.49,-32.37"/>
<polygon fill="midnightblue" stroke="midnightblue" points="183.23,-35.81 192.81,-31.27 182.49,-28.85 183.23,-35.81"/>
</g>
<!-- Node7 -->
<g id="node7" class="node">
<title>Node7</title>
<g id="a_node7"><a xlink:href="fp_8cuh.html#a0c4a481946542c2d262b361c9e3700ef" target="_top" xlink:title="Compares two fp_t residues.">
<polygon fill="white" stroke="black" points="107,-0.5 107,-19.5 157,-19.5 157,-0.5 107,-0.5"/>
<text text-anchor="middle" x="132" y="-7.5" font-family="Helvetica,sans-Serif" font-size="10.00">fp_neq</text>
</a>
</g>
</g>
<!-- Node1&#45;&gt;Node7 -->
<g id="edge7" class="edge">
<title>Node1&#45;&gt;Node7</title>
<path fill="none" stroke="midnightblue" d="M60.35,-38.41C71.65,-33.87 85.34,-28.36 97.66,-23.41"/>
<polygon fill="midnightblue" stroke="midnightblue" points="99.19,-26.56 107.16,-19.59 96.58,-20.07 99.19,-26.56"/>
</g>
<!-- Node4 -->
<g id="node4" class="node">
<title>Node4</title>
<g id="a_node4"><a xlink:href="fp_8cuh.html#a45eab81e60385635ab4732360f94ec91" target="_top" xlink:title="Checks if the residue x modulo p is congruent to zero.">
<polygon fill="white" stroke="black" points="273,-38.5 273,-57.5 334,-57.5 334,-38.5 273,-38.5"/>
<text text-anchor="middle" x="303.5" y="-45.5" font-family="Helvetica,sans-Serif" font-size="10.00">fp_iszero</text>
</a>
</g>
</g>
<!-- Node3&#45;&gt;Node4 -->
<g id="edge3" class="edge">
<title>Node3&#45;&gt;Node4</title>
<path fill="none" stroke="midnightblue" d="M237.38,-33.7C245.16,-35.41 254.22,-37.4 263.07,-39.34"/>
<polygon fill="midnightblue" stroke="midnightblue" points="262.36,-42.77 272.88,-41.49 263.86,-35.93 262.36,-42.77"/>
</g>
<!-- Node6 -->
<g id="node6" class="node">
<title>Node6</title>
<g id="a_node6"><a xlink:href="fp_8cuh.html#aff96ec3f32ad9c0419911604d5fefe44" target="_top" xlink:title="Calculates the difference of two residues modulo p and stores it into z.">
<polygon fill="white" stroke="black" points="279,-0.5 279,-19.5 328,-19.5 328,-0.5 279,-0.5"/>
<text text-anchor="middle" x="303.5" y="-7.5" font-family="Helvetica,sans-Serif" font-size="10.00">fp_sub</text>
</a>
</g>
</g>
<!-- Node3&#45;&gt;Node6 -->
<g id="edge6" class="edge">
<title>Node3&#45;&gt;Node6</title>
<path fill="none" stroke="midnightblue" d="M237.38,-24.3C246.94,-22.2 258.42,-19.68 269.07,-17.34"/>
<polygon fill="midnightblue" stroke="midnightblue" points="269.92,-20.74 278.93,-15.18 268.41,-13.9 269.92,-20.74"/>
</g>
<!-- Node4&#45;&gt;Node2 -->
<g id="edge4" class="edge">
<title>Node4&#45;&gt;Node2</title>
<path fill="none" stroke="midnightblue" d="M329.73,-57.59C342.4,-62.4 357.9,-68.29 371.49,-73.46"/>
<polygon fill="midnightblue" stroke="midnightblue" points="370.4,-76.79 380.99,-77.07 372.89,-70.24 370.4,-76.79"/>
</g>
<!-- Node5 -->
<g id="node5" class="node">
<title>Node5</title>
<g id="a_node5"><a xlink:href="fp_8cuh.html#a89b41553cb5af629dd8ac33b71d03ee1" target="_top" xlink:title="Narrow reduction of a residue modulo p, reducing to the canonical representation.">
<polygon fill="white" stroke="black" points="370,-38.5 370,-57.5 441,-57.5 441,-38.5 370,-38.5"/>
<text text-anchor="middle" x="405.5" y="-45.5" font-family="Helvetica,sans-Serif" font-size="10.00">fp_reduce6</text>
</a>
</g>
</g>
<!-- Node4&#45;&gt;Node5 -->
<g id="edge5" class="edge">
<title>Node4&#45;&gt;Node5</title>
<path fill="none" stroke="midnightblue" d="M334.23,-48C342.17,-48 350.93,-48 359.5,-48"/>
<polygon fill="midnightblue" stroke="midnightblue" points="359.78,-51.5 369.78,-48 359.78,-44.5 359.78,-51.5"/>
</g>
<!-- Node7&#45;&gt;Node3 -->
<g id="edge8" class="edge">
<title>Node7&#45;&gt;Node3</title>
<path fill="none" stroke="midnightblue" d="M157.3,-15.7C165.32,-17.58 174.35,-19.7 182.81,-21.68"/>
<polygon fill="midnightblue" stroke="midnightblue" points="182.2,-25.14 192.74,-24.01 183.8,-18.32 182.2,-25.14"/>
</g>
</g>
</svg>
