<?xml version="1.0" encoding="UTF-8" standalone="no"?>
<!DOCTYPE svg PUBLIC "-//W3C//DTD SVG 1.1//EN"
 "http://www.w3.org/Graphics/SVG/1.1/DTD/svg11.dtd">
<!-- Generated by graphviz version 2.43.0 (0)
 -->
<!-- Title: fptest.cuh Pages: 1 -->
<!--zoomable 84 -->
<svg id="main" version="1.1" xmlns="http://www.w3.org/2000/svg" xmlns:xlink="http://www.w3.org/1999/xlink" xml:space="preserve" onload="init(evt)">
<style type="text/css"><![CDATA[
.edge:hover path { stroke: red; }
.edge:hover polygon { stroke: red; fill: red; }
]]></style>
<script type="text/javascript"><![CDATA[
var edges = document.getElementsByTagName('g');
if (edges && edges.length) {
  for (var i=0;i<edges.length;i++) {
    if (edges[i].id.substr(0,4)=='edge') {
      edges[i].setAttribute('class','edge');
    }
  }
}
]]></script>
        <defs>
                <circle id="rim" cx="0" cy="0" r="7"/>
                <circle id="rim2" cx="0" cy="0" r="3.5"/>
                <g id="zoomPlus">
                        <use xlink:href="#rim" fill="#404040">
                                <set attributeName="fill" to="#808080" begin="zoomplus.mouseover" end="zoomplus.mouseout"/>
                        </use>
                        <path d="M-4,0h8M0,-4v8" fill="none" stroke="white" stroke-width="1.5" pointer-events="none"/>
                </g>
                <g id="zoomMin">
                        <use xlink:href="#rim" fill="#404040">
                                <set attributeName="fill" to="#808080" begin="zoomminus.mouseover" end="zoomminus.mouseout"/>
                        </use>
                        <path d="M-4,0h8" fill="none" stroke="white" stroke-width="1.5" pointer-events="none"/>
                </g>
                <g id="dirArrow">
                        <path fill="none" stroke="white" stroke-width="1.5" d="M0,-3.0v7 M-2.5,-0.5L0,-3.0L2.5,-0.5"/>
                </g>
               <g id="resetDef">
                       <use xlink:href="#rim2" fill="#404040">
                               <set attributeName="fill" to="#808080" begin="reset.mouseover" end="reset.mouseout"/>
                       </use>
               </g>
        </defs>

<script type="text/javascript">
var viewWidth = 1269;
var viewHeight = 84;
var sectionId = 'dynsection-1';
</script>
<script xlink:href="svgpan.js"/>
<svg id="graph" class="graph">
<g id="viewport">
<title>fptest.cuh</title>
<polygon fill="white" stroke="transparent" points="-4,4 -4,-80 1264.5,-80 1264.5,4 -4,4"/>
<!-- Node1 -->
<g id="node1" class="node">
<title>Node1</title>
<g id="a_node1"><a xlink:title=" ">
<polygon fill="#bfbfbf" stroke="black" points="603,-56.5 603,-75.5 668,-75.5 668,-56.5 603,-56.5"/>
<text text-anchor="middle" x="635.5" y="-63.5" font-family="Helvetica,sans-Serif" font-size="10.00">fptest.cuh</text>
</a>
</g>
</g>
<!-- Node2 -->
<g id="node2" class="node">
<title>Node2</title>
<g id="a_node2"><a xlink:href="fptest_8cu.html" target="_top" xlink:title=" ">
<polygon fill="white" stroke="black" points="0,-0.5 0,-19.5 59,-19.5 59,-0.5 0,-0.5"/>
<text text-anchor="middle" x="29.5" y="-7.5" font-family="Helvetica,sans-Serif" font-size="10.00">fptest.cu</text>
</a>
</g>
</g>
<!-- Node1&#45;&gt;Node2 -->
<g id="edge1" class="edge">
<title>Node1&#45;&gt;Node2</title>
<path fill="none" stroke="midnightblue" d="M592.89,-63.86C497.98,-60.82 262.24,-50.59 67.5,-20 64.82,-19.58 62.05,-19.07 59.28,-18.51"/>
<polygon fill="midnightblue" stroke="midnightblue" points="592.85,-67.36 602.95,-64.17 593.07,-60.36 592.85,-67.36"/>
</g>
<!-- Node3 -->
<g id="node3" class="node">
<title>Node3</title>
<g id="a_node3"><a xlink:href="fptest__add_8cu.html" target="_top" xlink:title=" ">
<polygon fill="white" stroke="black" points="77,-0.5 77,-19.5 160,-19.5 160,-0.5 77,-0.5"/>
<text text-anchor="middle" x="118.5" y="-7.5" font-family="Helvetica,sans-Serif" font-size="10.00">fptest_add.cu</text>
</a>
</g>
</g>
<!-- Node1&#45;&gt;Node3 -->
<g id="edge2" class="edge">
<title>Node1&#45;&gt;Node3</title>
<path fill="none" stroke="midnightblue" d="M592.71,-62C510.48,-55.97 324.77,-41.16 169.5,-20 166.47,-19.59 163.35,-19.13 160.21,-18.63"/>
<polygon fill="midnightblue" stroke="midnightblue" points="592.69,-65.5 602.91,-62.74 593.19,-58.52 592.69,-65.5"/>
</g>
<!-- Node4 -->
<g id="node4" class="node">
<title>Node4</title>
<g id="a_node4"><a xlink:href="fptest__cmp_8cu.html" target="_top" xlink:title=" ">
<polygon fill="white" stroke="black" points="178.5,-0.5 178.5,-19.5 264.5,-19.5 264.5,-0.5 178.5,-0.5"/>
<text text-anchor="middle" x="221.5" y="-7.5" font-family="Helvetica,sans-Serif" font-size="10.00">fptest_cmp.cu</text>
</a>
</g>
</g>
<!-- Node1&#45;&gt;Node4 -->
<g id="edge3" class="edge">
<title>Node1&#45;&gt;Node4</title>
<path fill="none" stroke="midnightblue" d="M592.69,-60.35C524.86,-52.83 388.56,-37.1 273.5,-20 270.6,-19.57 267.61,-19.11 264.6,-18.62"/>
<polygon fill="midnightblue" stroke="midnightblue" points="592.66,-63.87 602.98,-61.48 593.42,-56.91 592.66,-63.87"/>
</g>
<!-- Node5 -->
<g id="node5" class="node">
<title>Node5</title>
<g id="a_node5"><a xlink:href="fptest__distributive_8cu.html" target="_top" xlink:title=" ">
<polygon fill="white" stroke="black" points="282.5,-0.5 282.5,-19.5 402.5,-19.5 402.5,-0.5 282.5,-0.5"/>
<text text-anchor="middle" x="342.5" y="-7.5" font-family="Helvetica,sans-Serif" font-size="10.00">fptest_distributive.cu</text>
</a>
</g>
</g>
<!-- Node1&#45;&gt;Node5 -->
<g id="edge4" class="edge">
<title>Node1&#45;&gt;Node5</title>
<path fill="none" stroke="midnightblue" d="M592.73,-57.12C538.33,-47.09 444.74,-29.84 388.73,-19.52"/>
<polygon fill="midnightblue" stroke="midnightblue" points="592.27,-60.59 602.74,-58.96 593.54,-53.71 592.27,-60.59"/>
</g>
<!-- Node6 -->
<g id="node6" class="node">
<title>Node6</title>
<g id="a_node6"><a xlink:href="fptest__fibonacci_8cu.html" target="_top" xlink:title=" ">
<polygon fill="white" stroke="black" points="420.5,-0.5 420.5,-19.5 528.5,-19.5 528.5,-0.5 420.5,-0.5"/>
<text text-anchor="middle" x="474.5" y="-7.5" font-family="Helvetica,sans-Serif" font-size="10.00">fptest_fibonacci.cu</text>
</a>
</g>
</g>
<!-- Node1&#45;&gt;Node6 -->
<g id="edge5" class="edge">
<title>Node1&#45;&gt;Node6</title>
<path fill="none" stroke="midnightblue" d="M600.24,-53.17C569.92,-43 526.93,-28.59 499.89,-19.52"/>
<polygon fill="midnightblue" stroke="midnightblue" points="599.4,-56.58 609.99,-56.44 601.62,-49.95 599.4,-56.58"/>
</g>
<!-- Node7 -->
<g id="node7" class="node">
<title>Node7</title>
<g id="a_node7"><a xlink:href="fptest__inv_8cu.html" target="_top" xlink:title=" ">
<polygon fill="white" stroke="black" points="547,-0.5 547,-19.5 626,-19.5 626,-0.5 547,-0.5"/>
<text text-anchor="middle" x="586.5" y="-7.5" font-family="Helvetica,sans-Serif" font-size="10.00">fptest_inv.cu</text>
</a>
</g>
</g>
<!-- Node1&#45;&gt;Node7 -->
<g id="edge6" class="edge">
<title>Node1&#45;&gt;Node7</title>
<path fill="none" stroke="midnightblue" d="M620.47,-48.43C611.88,-38.97 601.46,-27.48 594.44,-19.75"/>
<polygon fill="midnightblue" stroke="midnightblue" points="618.1,-51.03 627.41,-56.08 623.28,-46.33 618.1,-51.03"/>
</g>
<!-- Node8 -->
<g id="node8" class="node">
<title>Node8</title>
<g id="a_node8"><a xlink:href="fptest__kat_8cu.html" target="_top" xlink:title=" ">
<polygon fill="white" stroke="black" points="644.5,-0.5 644.5,-19.5 724.5,-19.5 724.5,-0.5 644.5,-0.5"/>
<text text-anchor="middle" x="684.5" y="-7.5" font-family="Helvetica,sans-Serif" font-size="10.00">fptest_kat.cu</text>
</a>
</g>
</g>
<!-- Node1&#45;&gt;Node8 -->
<g id="edge7" class="edge">
<title>Node1&#45;&gt;Node8</title>
<path fill="none" stroke="midnightblue" d="M650.53,-48.43C659.12,-38.97 669.54,-27.48 676.56,-19.75"/>
<polygon fill="midnightblue" stroke="midnightblue" points="647.72,-46.33 643.59,-56.08 652.9,-51.03 647.72,-46.33"/>
</g>
<!-- Node9 -->
<g id="node9" class="node">
<title>Node9</title>
<g id="a_node9"><a xlink:href="fptest__mma_8cu.html" target="_top" xlink:title=" ">
<polygon fill="white" stroke="black" points="742.5,-0.5 742.5,-19.5 832.5,-19.5 832.5,-0.5 742.5,-0.5"/>
<text text-anchor="middle" x="787.5" y="-7.5" font-family="Helvetica,sans-Serif" font-size="10.00">fptest_mma.cu</text>
</a>
</g>
</g>
<!-- Node1&#45;&gt;Node9 -->
<g id="edge8" class="edge">
<title>Node1&#45;&gt;Node9</title>
<path fill="none" stroke="midnightblue" d="M669.17,-53.04C697.77,-42.88 738.11,-28.55 763.53,-19.52"/>
<polygon fill="midnightblue" stroke="midnightblue" points="667.84,-49.8 659.58,-56.44 670.18,-56.39 667.84,-49.8"/>
</g>
<!-- Node10 -->
<g id="node10" class="node">
<title>Node10</title>
<g id="a_node10"><a xlink:href="fptest__mul_8cu.html" target="_top" xlink:title=" ">
<polygon fill="white" stroke="black" points="851,-0.5 851,-19.5 934,-19.5 934,-0.5 851,-0.5"/>
<text text-anchor="middle" x="892.5" y="-7.5" font-family="Helvetica,sans-Serif" font-size="10.00">fptest_mul.cu</text>
</a>
</g>
</g>
<!-- Node1&#45;&gt;Node10 -->
<g id="edge9" class="edge">
<title>Node1&#45;&gt;Node10</title>
<path fill="none" stroke="midnightblue" d="M677.86,-56.1C726.06,-45.97 804.24,-29.55 851.76,-19.56"/>
<polygon fill="midnightblue" stroke="midnightblue" points="677.12,-52.68 668.05,-58.16 678.56,-59.53 677.12,-52.68"/>
</g>
<!-- Node11 -->
<g id="node11" class="node">
<title>Node11</title>
<g id="a_node11"><a xlink:href="fptest__mulconst_8cu.html" target="_top" xlink:title=" ">
<polygon fill="white" stroke="black" points="952.5,-0.5 952.5,-19.5 1062.5,-19.5 1062.5,-0.5 952.5,-0.5"/>
<text text-anchor="middle" x="1007.5" y="-7.5" font-family="Helvetica,sans-Serif" font-size="10.00">fptest_mulconst.cu</text>
</a>
</g>
</g>
<!-- Node1&#45;&gt;Node11 -->
<g id="edge10" class="edge">
<title>Node1&#45;&gt;Node11</title>
<path fill="none" stroke="midnightblue" d="M678.49,-58.76C746.25,-48.92 877.83,-29.82 952.42,-19"/>
<polygon fill="midnightblue" stroke="midnightblue" points="677.58,-55.35 668.19,-60.26 678.59,-62.28 677.58,-55.35"/>
</g>
<!-- Node12 -->
<g id="node12" class="node">
<title>Node12</title>
<g id="a_node12"><a xlink:href="fptest__sqr_8cu.html" target="_top" xlink:title=" ">
<polygon fill="white" stroke="black" points="1081,-0.5 1081,-19.5 1160,-19.5 1160,-0.5 1081,-0.5"/>
<text text-anchor="middle" x="1120.5" y="-7.5" font-family="Helvetica,sans-Serif" font-size="10.00">fptest_sqr.cu</text>
</a>
</g>
</g>
<!-- Node1&#45;&gt;Node12 -->
<g id="edge11" class="edge">
<title>Node1&#45;&gt;Node12</title>
<path fill="none" stroke="midnightblue" d="M678.59,-61.69C757,-55.4 928.15,-40.53 1071.5,-20 1074.58,-19.56 1077.77,-19.06 1080.96,-18.54"/>
<polygon fill="midnightblue" stroke="midnightblue" points="677.84,-58.23 668.15,-62.52 678.4,-65.21 677.84,-58.23"/>
</g>
<!-- Node13 -->
<g id="node13" class="node">
<title>Node13</title>
<g id="a_node13"><a xlink:href="fptest__sub_8cu.html" target="_top" xlink:title=" ">
<polygon fill="white" stroke="black" points="1178.5,-0.5 1178.5,-19.5 1260.5,-19.5 1260.5,-0.5 1178.5,-0.5"/>
<text text-anchor="middle" x="1219.5" y="-7.5" font-family="Helvetica,sans-Serif" font-size="10.00">fptest_sub.cu</text>
</a>
</g>
</g>
<!-- Node1&#45;&gt;Node13 -->
<g id="edge12" class="edge">
<title>Node1&#45;&gt;Node13</title>
<path fill="none" stroke="midnightblue" d="M678.3,-62.76C769.09,-57.72 987.61,-43.98 1169.5,-20 1172.39,-19.62 1175.36,-19.19 1178.35,-18.72"/>
<polygon fill="midnightblue" stroke="midnightblue" points="677.92,-59.28 668.12,-63.32 678.3,-66.27 677.92,-59.28"/>
</g>
</g>
</svg>
        <g id="navigator" transform="translate(0 0)" fill="#404254">
                <rect fill="#f2f5e9" fill-opacity="0.5" stroke="#606060" stroke-width=".5" x="0" y="0" width="60" height="60"/>
                <use id="zoomplus" xlink:href="#zoomPlus" x="17" y="9" onmousedown="handleZoom(evt,'in')"/>
                <use id="zoomminus" xlink:href="#zoomMin" x="42" y="9" onmousedown="handleZoom(evt,'out')"/>
                <use id="reset" xlink:href="#resetDef" x="30" y="36" onmousedown="handleReset()"/>
                <g id="arrowUp" xlink:href="#dirArrow" transform="translate(30 24)" onmousedown="handlePan(0,-1)">
                  <use xlink:href="#rim" fill="#404040">
                        <set attributeName="fill" to="#808080" begin="arrowUp.mouseover" end="arrowUp.mouseout"/>
                  </use>
                  <path fill="none" stroke="white" stroke-width="1.5" d="M0,-3.0v7 M-2.5,-0.5L0,-3.0L2.5,-0.5"/>
                </g>
                <g id="arrowRight" xlink:href="#dirArrow" transform="rotate(90) translate(36 -43)" onmousedown="handlePan(1,0)">
                  <use xlink:href="#rim" fill="#404040">
                        <set attributeName="fill" to="#808080" begin="arrowRight.mouseover" end="arrowRight.mouseout"/>
                  </use>
                  <path fill="none" stroke="white" stroke-width="1.5" d="M0,-3.0v7 M-2.5,-0.5L0,-3.0L2.5,-0.5"/>
                </g>
                <g id="arrowDown" xlink:href="#dirArrow" transform="rotate(180) translate(-30 -48)" onmousedown="handlePan(0,1)">
                  <use xlink:href="#rim" fill="#404040">
                        <set attributeName="fill" to="#808080" begin="arrowDown.mouseover" end="arrowDown.mouseout"/>
                  </use>
                  <path fill="none" stroke="white" stroke-width="1.5" d="M0,-3.0v7 M-2.5,-0.5L0,-3.0L2.5,-0.5"/>
                </g>
                <g id="arrowLeft" xlink:href="#dirArrow" transform="rotate(270) translate(-36 17)" onmousedown="handlePan(-1,0)">
                  <use xlink:href="#rim" fill="#404040">
                        <set attributeName="fill" to="#808080" begin="arrowLeft.mouseover" end="arrowLeft.mouseout"/>
                  </use>
                  <path fill="none" stroke="white" stroke-width="1.5" d="M0,-3.0v7 M-2.5,-0.5L0,-3.0L2.5,-0.5"/>
                </g>
        </g>
        <svg viewBox="0 0 15 15" width="100%" height="30px" preserveAspectRatio="xMaxYMin meet">
         <g id="arrow_out" transform="scale(0.3 0.3)">
          <a xlink:href="fptest_8cuh__dep__incl_org.svg" target="_base">
           <rect id="button" ry="5" rx="5" y="6" x="6" height="38" width="38"
                fill="#f2f5e9" fill-opacity="0.5" stroke="#606060" stroke-width="1.0"/>
           <path id="arrow"
             d="M 11.500037,31.436501 C 11.940474,20.09759 22.043105,11.32322 32.158766,21.979434 L 37.068811,17.246167 C 37.068811,17.246167 37.088388,32 37.088388,32 L 22.160133,31.978069 C 22.160133,31.978069 26.997745,27.140456 26.997745,27.140456 C 18.528582,18.264221 13.291696,25.230495 11.500037,31.436501 z"
             style="fill:#404040;"/>
          </a>
         </g>
        </svg>
</svg>
