<?xml version="1.0" encoding="UTF-8" standalone="no"?>
<!DOCTYPE svg PUBLIC "-//W3C//DTD SVG 1.1//EN"
 "http://www.w3.org/Graphics/SVG/1.1/DTD/svg11.dtd">
<!-- Generated by graphviz version 2.43.0 (0)
 -->
<!-- Title: FpTestInv Pages: 1 -->
<svg width="280pt" height="142pt"
 viewBox="0.00 0.00 280.00 142.00" xmlns="http://www.w3.org/2000/svg" xmlns:xlink="http://www.w3.org/1999/xlink">
<g id="graph0" class="graph" transform="scale(1 1) rotate(0) translate(4 138)">
<title>FpTestInv</title>
<polygon fill="white" stroke="transparent" points="-4,4 -4,-138 276,-138 276,4 -4,4"/>
<!-- Node1 -->
<g id="node1" class="node">
<title>Node1</title>
<g id="a_node1"><a xlink:title="Test for multiplicative inverse mod p in Fp.">
<polygon fill="#bfbfbf" stroke="black" points="0,-57.5 0,-76.5 63,-76.5 63,-57.5 0,-57.5"/>
<text text-anchor="middle" x="31.5" y="-64.5" font-family="Helvetica,sans-Serif" font-size="10.00">FpTestInv</text>
</a>
</g>
</g>
<!-- Node2 -->
<g id="node2" class="node">
<title>Node2</title>
<g id="a_node2"><a xlink:href="fp_8cu.html#a9f39806f63fc829f70443320f4550a96" target="_top" xlink:title="Converts uint64_t[6] to fp_t. After this operation, z represents x mod p.">
<polygon fill="white" stroke="black" points="99,-114.5 99,-133.5 186,-133.5 186,-114.5 99,-114.5"/>
<text text-anchor="middle" x="142.5" y="-121.5" font-family="Helvetica,sans-Serif" font-size="10.00">fp_fromUint64</text>
</a>
</g>
</g>
<!-- Node1&#45;&gt;Node2 -->
<g id="edge1" class="edge">
<title>Node1&#45;&gt;Node2</title>
<path fill="none" stroke="midnightblue" d="M48.11,-76.51C61.44,-84.48 81.22,-95.97 99,-105 102.37,-106.71 105.93,-108.43 109.49,-110.1"/>
<polygon fill="midnightblue" stroke="midnightblue" points="108.26,-113.38 118.81,-114.35 111.16,-107.02 108.26,-113.38"/>
</g>
<!-- Node3 -->
<g id="node3" class="node">
<title>Node3</title>
<g id="a_node3"><a xlink:href="fp_8cuh.html#ab5a78291aab070ee4f11d8399a40df99" target="_top" xlink:title="Calculates the multiplicative inverse of x and stores in z.">
<polygon fill="white" stroke="black" points="119,-76.5 119,-95.5 166,-95.5 166,-76.5 119,-76.5"/>
<text text-anchor="middle" x="142.5" y="-83.5" font-family="Helvetica,sans-Serif" font-size="10.00">fp_inv</text>
</a>
</g>
</g>
<!-- Node1&#45;&gt;Node3 -->
<g id="edge2" class="edge">
<title>Node1&#45;&gt;Node3</title>
<path fill="none" stroke="midnightblue" d="M63.15,-72.34C77.34,-74.82 94.21,-77.76 108.66,-80.28"/>
<polygon fill="midnightblue" stroke="midnightblue" points="108.23,-83.75 118.68,-82.02 109.43,-76.86 108.23,-83.75"/>
</g>
<!-- Node5 -->
<g id="node5" class="node">
<title>Node5</title>
<g id="a_node5"><a xlink:href="fp_8cuh.html#a9f82a12248e7c53ac9d166e25e083bba" target="_top" xlink:title="Multiplies two Fp residues x and y, stores in z.">
<polygon fill="white" stroke="black" points="222,-38.5 222,-57.5 272,-57.5 272,-38.5 222,-38.5"/>
<text text-anchor="middle" x="247" y="-45.5" font-family="Helvetica,sans-Serif" font-size="10.00">fp_mul</text>
</a>
</g>
</g>
<!-- Node1&#45;&gt;Node5 -->
<g id="edge6" class="edge">
<title>Node1&#45;&gt;Node5</title>
<path fill="none" stroke="midnightblue" d="M63.09,-64.28C102.44,-60.78 170.6,-54.71 211.68,-51.05"/>
<polygon fill="midnightblue" stroke="midnightblue" points="212.11,-54.53 221.76,-50.16 211.49,-47.56 212.11,-54.53"/>
</g>
<!-- Node7 -->
<g id="node7" class="node">
<title>Node7</title>
<g id="a_node7"><a xlink:href="fp_8cuh.html#a89b41553cb5af629dd8ac33b71d03ee1" target="_top" xlink:title="Narrow reduction of a residue modulo p, reducing to the canonical representation.">
<polygon fill="white" stroke="black" points="107,-0.5 107,-19.5 178,-19.5 178,-0.5 107,-0.5"/>
<text text-anchor="middle" x="142.5" y="-7.5" font-family="Helvetica,sans-Serif" font-size="10.00">fp_reduce6</text>
</a>
</g>
</g>
<!-- Node1&#45;&gt;Node7 -->
<g id="edge7" class="edge">
<title>Node1&#45;&gt;Node7</title>
<path fill="none" stroke="midnightblue" d="M50.99,-57.33C68.32,-48.27 94.44,-34.61 114.17,-24.29"/>
<polygon fill="midnightblue" stroke="midnightblue" points="116.04,-27.26 123.28,-19.53 112.8,-21.06 116.04,-27.26"/>
</g>
<!-- Node4 -->
<g id="node4" class="node">
<title>Node4</title>
<g id="a_node4"><a xlink:href="fp_8cuh.html#aa84fc3bc6fd35779512d8f14938df96d" target="_top" xlink:title="Copy from x into z.">
<polygon fill="white" stroke="black" points="222.5,-114.5 222.5,-133.5 271.5,-133.5 271.5,-114.5 222.5,-114.5"/>
<text text-anchor="middle" x="247" y="-121.5" font-family="Helvetica,sans-Serif" font-size="10.00">fp_cpy</text>
</a>
</g>
</g>
<!-- Node3&#45;&gt;Node4 -->
<g id="edge3" class="edge">
<title>Node3&#45;&gt;Node4</title>
<path fill="none" stroke="midnightblue" d="M166.25,-94.43C179.89,-99.49 197.49,-106.01 212.68,-111.65"/>
<polygon fill="midnightblue" stroke="midnightblue" points="211.65,-115 222.25,-115.19 214.09,-108.44 211.65,-115"/>
</g>
<!-- Node3&#45;&gt;Node5 -->
<g id="edge4" class="edge">
<title>Node3&#45;&gt;Node5</title>
<path fill="none" stroke="midnightblue" d="M166.25,-77.57C179.79,-72.54 197.24,-66.08 212.35,-60.47"/>
<polygon fill="midnightblue" stroke="midnightblue" points="213.73,-63.7 221.89,-56.94 211.29,-57.13 213.73,-63.7"/>
</g>
<!-- Node6 -->
<g id="node6" class="node">
<title>Node6</title>
<g id="a_node6"><a xlink:href="fp_8cuh.html#a74e253977f8412787ed920e5a07de414" target="_top" xlink:title="Computes the square of the residue x modulo p and stores it in z.">
<polygon fill="white" stroke="black" points="223.5,-76.5 223.5,-95.5 270.5,-95.5 270.5,-76.5 223.5,-76.5"/>
<text text-anchor="middle" x="247" y="-83.5" font-family="Helvetica,sans-Serif" font-size="10.00">fp_sqr</text>
</a>
</g>
</g>
<!-- Node3&#45;&gt;Node6 -->
<g id="edge5" class="edge">
<title>Node3&#45;&gt;Node6</title>
<path fill="none" stroke="midnightblue" d="M166.25,-86C180.05,-86 197.89,-86 213.2,-86"/>
<polygon fill="midnightblue" stroke="midnightblue" points="213.32,-89.5 223.32,-86 213.32,-82.5 213.32,-89.5"/>
</g>
</g>
</svg>
