<?xml version="1.0" encoding="UTF-8" standalone="no"?>
<!DOCTYPE svg PUBLIC "-//W3C//DTD SVG 1.1//EN"
 "http://www.w3.org/Graphics/SVG/1.1/DTD/svg11.dtd">
<!-- Generated by graphviz version 2.43.0 (0)
 -->
<!-- Title: FpTestMulConst Pages: 1 -->
<svg width="472pt" height="332pt"
 viewBox="0.00 0.00 472.00 332.00" xmlns="http://www.w3.org/2000/svg" xmlns:xlink="http://www.w3.org/1999/xlink">
<g id="graph0" class="graph" transform="scale(1 1) rotate(0) translate(4 328)">
<title>FpTestMulConst</title>
<polygon fill="white" stroke="transparent" points="-4,4 -4,-328 468,-328 468,4 -4,4"/>
<!-- Node1 -->
<g id="node1" class="node">
<title>Node1</title>
<g id="a_node1"><a xlink:title="Test self consistency in multiplication by constant:">
<polygon fill="#bfbfbf" stroke="black" points="0,-152.5 0,-171.5 94,-171.5 94,-152.5 0,-152.5"/>
<text text-anchor="middle" x="47" y="-159.5" font-family="Helvetica,sans-Serif" font-size="10.00">FpTestMulConst</text>
</a>
</g>
</g>
<!-- Node2 -->
<g id="node2" class="node">
<title>Node2</title>
<g id="a_node2"><a xlink:href="fp_8cuh.html#a38d4eadff7890b835dceb28d2adb7358" target="_top" xlink:title="Computes the sum of two residues x and y modulo p and stores it in z. Device only function.">
<polygon fill="white" stroke="black" points="130,-304.5 130,-323.5 180,-323.5 180,-304.5 130,-304.5"/>
<text text-anchor="middle" x="155" y="-311.5" font-family="Helvetica,sans-Serif" font-size="10.00">fp_add</text>
</a>
</g>
</g>
<!-- Node1&#45;&gt;Node2 -->
<g id="edge1" class="edge">
<title>Node1&#45;&gt;Node2</title>
<path fill="none" stroke="midnightblue" d="M53.3,-171.79C65.47,-193.88 96.91,-248.88 130,-290 131.87,-292.32 133.94,-294.67 136.06,-296.93"/>
<polygon fill="midnightblue" stroke="midnightblue" points="133.7,-299.52 143.21,-304.18 138.68,-294.61 133.7,-299.52"/>
</g>
<!-- Node3 -->
<g id="node3" class="node">
<title>Node3</title>
<g id="a_node3"><a xlink:href="fp_8cuh.html#aa84fc3bc6fd35779512d8f14938df96d" target="_top" xlink:title="Copy from x into z.">
<polygon fill="white" stroke="black" points="404,-228.5 404,-247.5 453,-247.5 453,-228.5 404,-228.5"/>
<text text-anchor="middle" x="428.5" y="-235.5" font-family="Helvetica,sans-Serif" font-size="10.00">fp_cpy</text>
</a>
</g>
</g>
<!-- Node1&#45;&gt;Node3 -->
<g id="edge2" class="edge">
<title>Node1&#45;&gt;Node3</title>
<path fill="none" stroke="midnightblue" d="M52.68,-171.65C63.17,-192.03 90.78,-239.04 130,-257 218.34,-297.45 337.1,-268.36 394.16,-249.96"/>
<polygon fill="midnightblue" stroke="midnightblue" points="395.36,-253.25 403.75,-246.78 393.16,-246.61 395.36,-253.25"/>
</g>
<!-- Node4 -->
<g id="node4" class="node">
<title>Node4</title>
<g id="a_node4"><a xlink:href="fp_8cuh.html#a0c4a481946542c2d262b361c9e3700ef" target="_top" xlink:title="Compares two fp_t residues.">
<polygon fill="white" stroke="black" points="130,-228.5 130,-247.5 180,-247.5 180,-228.5 130,-228.5"/>
<text text-anchor="middle" x="155" y="-235.5" font-family="Helvetica,sans-Serif" font-size="10.00">fp_neq</text>
</a>
</g>
</g>
<!-- Node1&#45;&gt;Node4 -->
<g id="edge3" class="edge">
<title>Node1&#45;&gt;Node4</title>
<path fill="none" stroke="midnightblue" d="M61.42,-171.63C79.27,-184.42 111.01,-207.17 132.28,-222.43"/>
<polygon fill="midnightblue" stroke="midnightblue" points="130.52,-225.47 140.68,-228.45 134.6,-219.78 130.52,-225.47"/>
</g>
<!-- Node9 -->
<g id="node9" class="node">
<title>Node9</title>
<g id="a_node9"><a xlink:href="fp_8cu.html#a2704620d529ee4e06657ff58de45866d" target="_top" xlink:title="Prints the canonical representation of x to STDOUT.">
<polygon fill="white" stroke="black" points="299.5,-152.5 299.5,-171.5 353.5,-171.5 353.5,-152.5 299.5,-152.5"/>
<text text-anchor="middle" x="326.5" y="-159.5" font-family="Helvetica,sans-Serif" font-size="10.00">fp_print</text>
</a>
</g>
</g>
<!-- Node1&#45;&gt;Node9 -->
<g id="edge9" class="edge">
<title>Node1&#45;&gt;Node9</title>
<path fill="none" stroke="midnightblue" d="M81.21,-171.51C96.01,-175.27 113.74,-179.14 130,-181 185.52,-187.35 250.06,-177.79 289.33,-170.08"/>
<polygon fill="midnightblue" stroke="midnightblue" points="290.12,-173.49 299.22,-168.07 288.73,-166.63 290.12,-173.49"/>
</g>
<!-- Node10 -->
<g id="node10" class="node">
<title>Node10</title>
<g id="a_node10"><a xlink:href="fp_8cuh.html#a5d44bd034dfdd40057aaf66b13bc8518" target="_top" xlink:title="Multiplies the residue mod p x by 12 and stores the result into z.">
<polygon fill="white" stroke="black" points="130,-152.5 130,-171.5 180,-171.5 180,-152.5 130,-152.5"/>
<text text-anchor="middle" x="155" y="-159.5" font-family="Helvetica,sans-Serif" font-size="10.00">fp_x12</text>
</a>
</g>
</g>
<!-- Node1&#45;&gt;Node10 -->
<g id="edge12" class="edge">
<title>Node1&#45;&gt;Node10</title>
<path fill="none" stroke="midnightblue" d="M94.18,-162C102.72,-162 111.49,-162 119.6,-162"/>
<polygon fill="midnightblue" stroke="midnightblue" points="119.8,-165.5 129.8,-162 119.8,-158.5 119.8,-165.5"/>
</g>
<!-- Node11 -->
<g id="node11" class="node">
<title>Node11</title>
<g id="a_node11"><a xlink:href="fp_8cuh.html#a55a8ca49fdfdfdaaf7864c4c01917366" target="_top" xlink:title="Multiplies x by 2 and stores the result into z.">
<polygon fill="white" stroke="black" points="133,-114.5 133,-133.5 177,-133.5 177,-114.5 133,-114.5"/>
<text text-anchor="middle" x="155" y="-121.5" font-family="Helvetica,sans-Serif" font-size="10.00">fp_x2</text>
</a>
</g>
</g>
<!-- Node1&#45;&gt;Node11 -->
<g id="edge13" class="edge">
<title>Node1&#45;&gt;Node11</title>
<path fill="none" stroke="midnightblue" d="M74.75,-152.41C89.54,-147.11 107.98,-140.5 123.35,-134.99"/>
<polygon fill="midnightblue" stroke="midnightblue" points="124.71,-138.22 132.94,-131.55 122.34,-131.63 124.71,-138.22"/>
</g>
<!-- Node12 -->
<g id="node12" class="node">
<title>Node12</title>
<g id="a_node12"><a xlink:href="fp_8cuh.html#aabd562bd67fa39ed0329294e1784582a" target="_top" xlink:title="Multiplies x by 3 and stores the result into z.">
<polygon fill="white" stroke="black" points="133,-76.5 133,-95.5 177,-95.5 177,-76.5 133,-76.5"/>
<text text-anchor="middle" x="155" y="-83.5" font-family="Helvetica,sans-Serif" font-size="10.00">fp_x3</text>
</a>
</g>
</g>
<!-- Node1&#45;&gt;Node12 -->
<g id="edge14" class="edge">
<title>Node1&#45;&gt;Node12</title>
<path fill="none" stroke="midnightblue" d="M61.42,-152.37C79.27,-139.58 111.01,-116.83 132.28,-101.57"/>
<polygon fill="midnightblue" stroke="midnightblue" points="134.6,-104.22 140.68,-95.55 130.52,-98.53 134.6,-104.22"/>
</g>
<!-- Node13 -->
<g id="node13" class="node">
<title>Node13</title>
<g id="a_node13"><a xlink:href="fp_8cuh.html#a6fe5404e5c3813ab6944ed160eea3adb" target="_top" xlink:title="Multiplies x by 4 and stores the result into z.">
<polygon fill="white" stroke="black" points="133,-38.5 133,-57.5 177,-57.5 177,-38.5 133,-38.5"/>
<text text-anchor="middle" x="155" y="-45.5" font-family="Helvetica,sans-Serif" font-size="10.00">fp_x4</text>
</a>
</g>
</g>
<!-- Node1&#45;&gt;Node13 -->
<g id="edge15" class="edge">
<title>Node1&#45;&gt;Node13</title>
<path fill="none" stroke="midnightblue" d="M55.36,-152.31C69.1,-134.5 99.96,-95.79 130,-67 130.95,-66.09 131.94,-65.18 132.95,-64.27"/>
<polygon fill="midnightblue" stroke="midnightblue" points="135.48,-66.72 140.92,-57.63 131,-61.35 135.48,-66.72"/>
</g>
<!-- Node14 -->
<g id="node14" class="node">
<title>Node14</title>
<g id="a_node14"><a xlink:href="fp_8cuh.html#a4d3c99f0008c54a2b125b217f33199cb" target="_top" xlink:title="Multiplies x by 8 and stores the result into z.">
<polygon fill="white" stroke="black" points="133,-0.5 133,-19.5 177,-19.5 177,-0.5 133,-0.5"/>
<text text-anchor="middle" x="155" y="-7.5" font-family="Helvetica,sans-Serif" font-size="10.00">fp_x8</text>
</a>
</g>
</g>
<!-- Node1&#45;&gt;Node14 -->
<g id="edge16" class="edge">
<title>Node1&#45;&gt;Node14</title>
<path fill="none" stroke="midnightblue" d="M52.55,-152.21C63.58,-129.08 93.59,-69.95 130,-29 130.74,-28.17 131.52,-27.34 132.33,-26.53"/>
<polygon fill="midnightblue" stroke="midnightblue" points="134.9,-28.93 140.07,-19.69 130.26,-23.69 134.9,-28.93"/>
</g>
<!-- Node5 -->
<g id="node5" class="node">
<title>Node5</title>
<g id="a_node5"><a xlink:href="fp_8cuh.html#ade1abe61dfb7cbe9b00d78a38dda4bd3" target="_top" xlink:title="Compares two residues modulo p.">
<polygon fill="white" stroke="black" points="216,-228.5 216,-247.5 260,-247.5 260,-228.5 216,-228.5"/>
<text text-anchor="middle" x="238" y="-235.5" font-family="Helvetica,sans-Serif" font-size="10.00">fp_eq</text>
</a>
</g>
</g>
<!-- Node4&#45;&gt;Node5 -->
<g id="edge4" class="edge">
<title>Node4&#45;&gt;Node5</title>
<path fill="none" stroke="midnightblue" d="M180.3,-238C188.23,-238 197.15,-238 205.53,-238"/>
<polygon fill="midnightblue" stroke="midnightblue" points="205.74,-241.5 215.74,-238 205.74,-234.5 205.74,-241.5"/>
</g>
<!-- Node6 -->
<g id="node6" class="node">
<title>Node6</title>
<g id="a_node6"><a xlink:href="fp_8cuh.html#a45eab81e60385635ab4732360f94ec91" target="_top" xlink:title="Checks if the residue x modulo p is congruent to zero.">
<polygon fill="white" stroke="black" points="296,-228.5 296,-247.5 357,-247.5 357,-228.5 296,-228.5"/>
<text text-anchor="middle" x="326.5" y="-235.5" font-family="Helvetica,sans-Serif" font-size="10.00">fp_iszero</text>
</a>
</g>
</g>
<!-- Node5&#45;&gt;Node6 -->
<g id="edge5" class="edge">
<title>Node5&#45;&gt;Node6</title>
<path fill="none" stroke="midnightblue" d="M260.38,-238C268.08,-238 277.03,-238 285.78,-238"/>
<polygon fill="midnightblue" stroke="midnightblue" points="285.88,-241.5 295.88,-238 285.88,-234.5 285.88,-241.5"/>
</g>
<!-- Node8 -->
<g id="node8" class="node">
<title>Node8</title>
<g id="a_node8"><a xlink:href="fp_8cuh.html#aff96ec3f32ad9c0419911604d5fefe44" target="_top" xlink:title="Calculates the difference of two residues modulo p and stores it into z.">
<polygon fill="white" stroke="black" points="302,-190.5 302,-209.5 351,-209.5 351,-190.5 302,-190.5"/>
<text text-anchor="middle" x="326.5" y="-197.5" font-family="Helvetica,sans-Serif" font-size="10.00">fp_sub</text>
</a>
</g>
</g>
<!-- Node5&#45;&gt;Node8 -->
<g id="edge8" class="edge">
<title>Node5&#45;&gt;Node8</title>
<path fill="none" stroke="midnightblue" d="M260.38,-228.61C270.6,-224.12 283.02,-218.66 294.27,-213.72"/>
<polygon fill="midnightblue" stroke="midnightblue" points="296.02,-216.78 303.76,-209.55 293.2,-210.37 296.02,-216.78"/>
</g>
<!-- Node6&#45;&gt;Node3 -->
<g id="edge6" class="edge">
<title>Node6&#45;&gt;Node3</title>
<path fill="none" stroke="midnightblue" d="M357.23,-238C368.6,-238 381.66,-238 393.41,-238"/>
<polygon fill="midnightblue" stroke="midnightblue" points="393.74,-241.5 403.74,-238 393.74,-234.5 393.74,-241.5"/>
</g>
<!-- Node7 -->
<g id="node7" class="node">
<title>Node7</title>
<g id="a_node7"><a xlink:href="fp_8cuh.html#a89b41553cb5af629dd8ac33b71d03ee1" target="_top" xlink:title="Narrow reduction of a residue modulo p, reducing to the canonical representation.">
<polygon fill="white" stroke="black" points="393,-171.5 393,-190.5 464,-190.5 464,-171.5 393,-171.5"/>
<text text-anchor="middle" x="428.5" y="-178.5" font-family="Helvetica,sans-Serif" font-size="10.00">fp_reduce6</text>
</a>
</g>
</g>
<!-- Node6&#45;&gt;Node7 -->
<g id="edge7" class="edge">
<title>Node6&#45;&gt;Node7</title>
<path fill="none" stroke="midnightblue" d="M344.46,-228.33C360.22,-219.35 383.89,-205.86 401.94,-195.57"/>
<polygon fill="midnightblue" stroke="midnightblue" points="403.83,-198.52 410.79,-190.53 400.37,-192.44 403.83,-198.52"/>
</g>
<!-- Node9&#45;&gt;Node3 -->
<g id="edge10" class="edge">
<title>Node9&#45;&gt;Node3</title>
<path fill="none" stroke="midnightblue" d="M343.02,-171.55C347.59,-174.49 352.56,-177.79 357,-181 374.96,-193.98 394.48,-209.93 408.42,-221.64"/>
<polygon fill="midnightblue" stroke="midnightblue" points="406.43,-224.54 416.32,-228.33 410.95,-219.2 406.43,-224.54"/>
</g>
<!-- Node9&#45;&gt;Node7 -->
<g id="edge11" class="edge">
<title>Node9&#45;&gt;Node7</title>
<path fill="none" stroke="midnightblue" d="M353.51,-166.94C362.54,-168.66 372.94,-170.63 383.03,-172.55"/>
<polygon fill="midnightblue" stroke="midnightblue" points="382.48,-176.01 392.95,-174.44 383.78,-169.13 382.48,-176.01"/>
</g>
</g>
</svg>
