<?xml version="1.0" encoding="UTF-8" standalone="no"?>
<!DOCTYPE svg PUBLIC "-//W3C//DTD SVG 1.1//EN"
 "http://www.w3.org/Graphics/SVG/1.1/DTD/svg11.dtd">
<!-- Generated by graphviz version 2.43.0 (0)
 -->
<!-- Title: fptest_sqr.cu Pages: 1 -->
<svg width="280pt" height="196pt"
 viewBox="0.00 0.00 279.50 196.00" xmlns="http://www.w3.org/2000/svg" xmlns:xlink="http://www.w3.org/1999/xlink">
<g id="graph0" class="graph" transform="scale(1 1) rotate(0) translate(4 192)">
<title>fptest_sqr.cu</title>
<polygon fill="white" stroke="transparent" points="-4,4 -4,-192 275.5,-192 275.5,4 -4,4"/>
<!-- Node1 -->
<g id="node1" class="node">
<title>Node1</title>
<g id="a_node1"><a xlink:title=" ">
<polygon fill="#bfbfbf" stroke="black" points="26,-168.5 26,-187.5 105,-187.5 105,-168.5 26,-168.5"/>
<text text-anchor="middle" x="65.5" y="-175.5" font-family="Helvetica,sans-Serif" font-size="10.00">fptest_sqr.cu</text>
</a>
</g>
</g>
<!-- Node2 -->
<g id="node2" class="node">
<title>Node2</title>
<g id="a_node2"><a xlink:href="fp_8cuh.html" target="_top" xlink:title=" ">
<polygon fill="white" stroke="black" points="12,-56.5 12,-75.5 59,-75.5 59,-56.5 12,-56.5"/>
<text text-anchor="middle" x="35.5" y="-63.5" font-family="Helvetica,sans-Serif" font-size="10.00">fp.cuh</text>
</a>
</g>
</g>
<!-- Node1&#45;&gt;Node2 -->
<g id="edge1" class="edge">
<title>Node1&#45;&gt;Node2</title>
<path fill="none" stroke="midnightblue" d="M63.15,-168.37C58.28,-150.54 47.04,-109.3 40.48,-85.27"/>
<polygon fill="midnightblue" stroke="midnightblue" points="43.85,-84.32 37.84,-75.59 37.1,-86.16 43.85,-84.32"/>
</g>
<!-- Node4 -->
<g id="node4" class="node">
<title>Node4</title>
<g id="a_node4"><a xlink:href="fptest_8cuh.html" target="_top" xlink:title=" ">
<polygon fill="white" stroke="black" points="64,-112.5 64,-131.5 129,-131.5 129,-112.5 64,-112.5"/>
<text text-anchor="middle" x="96.5" y="-119.5" font-family="Helvetica,sans-Serif" font-size="10.00">fptest.cuh</text>
</a>
</g>
</g>
<!-- Node1&#45;&gt;Node4 -->
<g id="edge3" class="edge">
<title>Node1&#45;&gt;Node4</title>
<path fill="none" stroke="midnightblue" d="M70.62,-168.08C74.91,-160.61 81.16,-149.72 86.44,-140.52"/>
<polygon fill="midnightblue" stroke="midnightblue" points="89.53,-142.17 91.48,-131.75 83.46,-138.68 89.53,-142.17"/>
</g>
<!-- Node3 -->
<g id="node3" class="node">
<title>Node3</title>
<g id="a_node3"><a xlink:title=" ">
<polygon fill="white" stroke="#bfbfbf" points="0,-0.5 0,-19.5 53,-19.5 53,-0.5 0,-0.5"/>
<text text-anchor="middle" x="26.5" y="-7.5" font-family="Helvetica,sans-Serif" font-size="10.00">stdint.h</text>
</a>
</g>
</g>
<!-- Node2&#45;&gt;Node3 -->
<g id="edge2" class="edge">
<title>Node2&#45;&gt;Node3</title>
<path fill="none" stroke="midnightblue" d="M34.01,-56.08C32.82,-48.93 31.11,-38.64 29.62,-29.69"/>
<polygon fill="midnightblue" stroke="midnightblue" points="33.05,-29.04 27.96,-19.75 26.15,-30.19 33.05,-29.04"/>
</g>
<!-- Node4&#45;&gt;Node2 -->
<g id="edge9" class="edge">
<title>Node4&#45;&gt;Node2</title>
<path fill="none" stroke="midnightblue" d="M86.7,-112.32C77.68,-104.34 64.09,-92.31 53.18,-82.65"/>
<polygon fill="midnightblue" stroke="midnightblue" points="55.29,-79.84 45.48,-75.83 50.65,-85.08 55.29,-79.84"/>
</g>
<!-- Node5 -->
<g id="node5" class="node">
<title>Node5</title>
<g id="a_node5"><a xlink:title=" ">
<polygon fill="white" stroke="#bfbfbf" points="71.5,-0.5 71.5,-19.5 121.5,-19.5 121.5,-0.5 71.5,-0.5"/>
<text text-anchor="middle" x="96.5" y="-7.5" font-family="Helvetica,sans-Serif" font-size="10.00">stdio.h</text>
</a>
</g>
</g>
<!-- Node4&#45;&gt;Node5 -->
<g id="edge4" class="edge">
<title>Node4&#45;&gt;Node5</title>
<path fill="none" stroke="midnightblue" d="M96.5,-112.37C96.5,-94.62 96.5,-53.67 96.5,-29.6"/>
<polygon fill="midnightblue" stroke="midnightblue" points="100,-29.59 96.5,-19.59 93,-29.59 100,-29.59"/>
</g>
<!-- Node6 -->
<g id="node6" class="node">
<title>Node6</title>
<g id="a_node6"><a xlink:href="test_8h.html" target="_top" xlink:title=" ">
<polygon fill="white" stroke="black" points="134.5,-56.5 134.5,-75.5 178.5,-75.5 178.5,-56.5 134.5,-56.5"/>
<text text-anchor="middle" x="156.5" y="-63.5" font-family="Helvetica,sans-Serif" font-size="10.00">test.h</text>
</a>
</g>
</g>
<!-- Node4&#45;&gt;Node6 -->
<g id="edge5" class="edge">
<title>Node4&#45;&gt;Node6</title>
<path fill="none" stroke="midnightblue" d="M106.14,-112.32C115.01,-104.34 128.37,-92.31 139.11,-82.65"/>
<polygon fill="midnightblue" stroke="midnightblue" points="141.59,-85.13 146.68,-75.83 136.91,-79.92 141.59,-85.13"/>
</g>
<!-- Node6&#45;&gt;Node5 -->
<g id="edge6" class="edge">
<title>Node6&#45;&gt;Node5</title>
<path fill="none" stroke="midnightblue" d="M146.86,-56.32C137.99,-48.34 124.63,-36.31 113.89,-26.65"/>
<polygon fill="midnightblue" stroke="midnightblue" points="116.09,-23.92 106.32,-19.83 111.41,-29.13 116.09,-23.92"/>
</g>
<!-- Node7 -->
<g id="node7" class="node">
<title>Node7</title>
<g id="a_node7"><a xlink:title=" ">
<polygon fill="white" stroke="#bfbfbf" points="139.5,-0.5 139.5,-19.5 195.5,-19.5 195.5,-0.5 139.5,-0.5"/>
<text text-anchor="middle" x="167.5" y="-7.5" font-family="Helvetica,sans-Serif" font-size="10.00">unistd.h</text>
</a>
</g>
</g>
<!-- Node6&#45;&gt;Node7 -->
<g id="edge7" class="edge">
<title>Node6&#45;&gt;Node7</title>
<path fill="none" stroke="midnightblue" d="M158.32,-56.08C159.77,-48.93 161.87,-38.64 163.69,-29.69"/>
<polygon fill="midnightblue" stroke="midnightblue" points="167.15,-30.25 165.72,-19.75 160.29,-28.85 167.15,-30.25"/>
</g>
<!-- Node8 -->
<g id="node8" class="node">
<title>Node8</title>
<g id="a_node8"><a xlink:title=" ">
<polygon fill="white" stroke="#bfbfbf" points="213.5,-0.5 213.5,-19.5 271.5,-19.5 271.5,-0.5 213.5,-0.5"/>
<text text-anchor="middle" x="242.5" y="-7.5" font-family="Helvetica,sans-Serif" font-size="10.00">memory</text>
</a>
</g>
</g>
<!-- Node6&#45;&gt;Node8 -->
<g id="edge8" class="edge">
<title>Node6&#45;&gt;Node8</title>
<path fill="none" stroke="midnightblue" d="M170.32,-56.32C183.73,-47.9 204.32,-34.97 220.09,-25.07"/>
<polygon fill="midnightblue" stroke="midnightblue" points="222.11,-27.94 228.72,-19.65 218.39,-22.01 222.11,-27.94"/>
</g>
</g>
</svg>
