<?xml version="1.0" encoding="UTF-8" standalone="no"?>
<!DOCTYPE svg PUBLIC "-//W3C//DTD SVG 1.1//EN"
 "http://www.w3.org/Graphics/SVG/1.1/DTD/svg11.dtd">
<!-- Generated by graphviz version 2.43.0 (0)
 -->
<!-- Title: FpTestSqr Pages: 1 -->
<svg width="442pt" height="332pt"
 viewBox="0.00 0.00 442.00 332.00" xmlns="http://www.w3.org/2000/svg" xmlns:xlink="http://www.w3.org/1999/xlink">
<g id="graph0" class="graph" transform="scale(1 1) rotate(0) translate(4 328)">
<title>FpTestSqr</title>
<polygon fill="white" stroke="transparent" points="-4,4 -4,-328 438,-328 438,4 -4,4"/>
<!-- Node1 -->
<g id="node1" class="node">
<title>Node1</title>
<g id="a_node1"><a xlink:title="Test for squaring on Fp. Checks for self consistency:">
<polygon fill="#bfbfbf" stroke="black" points="0,-152.5 0,-171.5 64,-171.5 64,-152.5 0,-152.5"/>
<text text-anchor="middle" x="32" y="-159.5" font-family="Helvetica,sans-Serif" font-size="10.00">FpTestSqr</text>
</a>
</g>
</g>
<!-- Node2 -->
<g id="node2" class="node">
<title>Node2</title>
<g id="a_node2"><a xlink:href="fp_8cuh.html#a38d4eadff7890b835dceb28d2adb7358" target="_top" xlink:title="Computes the sum of two residues x and y modulo p and stores it in z. Device only function.">
<polygon fill="white" stroke="black" points="100,-304.5 100,-323.5 150,-323.5 150,-304.5 100,-304.5"/>
<text text-anchor="middle" x="125" y="-311.5" font-family="Helvetica,sans-Serif" font-size="10.00">fp_add</text>
</a>
</g>
</g>
<!-- Node1&#45;&gt;Node2 -->
<g id="edge1" class="edge">
<title>Node1&#45;&gt;Node2</title>
<path fill="none" stroke="midnightblue" d="M36.81,-171.56C45.87,-193.64 70.14,-249.38 100,-290 101.77,-292.4 103.77,-294.8 105.86,-297.09"/>
<polygon fill="midnightblue" stroke="midnightblue" points="103.49,-299.67 112.99,-304.35 108.48,-294.76 103.49,-299.67"/>
</g>
<!-- Node3 -->
<g id="node3" class="node">
<title>Node3</title>
<g id="a_node3"><a xlink:href="fp_8cuh.html#aa84fc3bc6fd35779512d8f14938df96d" target="_top" xlink:title="Copy from x into z.">
<polygon fill="white" stroke="black" points="374,-228.5 374,-247.5 423,-247.5 423,-228.5 374,-228.5"/>
<text text-anchor="middle" x="398.5" y="-235.5" font-family="Helvetica,sans-Serif" font-size="10.00">fp_cpy</text>
</a>
</g>
</g>
<!-- Node1&#45;&gt;Node3 -->
<g id="edge2" class="edge">
<title>Node1&#45;&gt;Node3</title>
<path fill="none" stroke="midnightblue" d="M36.3,-171.59C43.84,-191.84 64.52,-238.61 100,-257 186.47,-301.83 306.59,-270.48 364.15,-250.73"/>
<polygon fill="midnightblue" stroke="midnightblue" points="365.55,-253.94 373.82,-247.31 363.22,-247.34 365.55,-253.94"/>
</g>
<!-- Node4 -->
<g id="node4" class="node">
<title>Node4</title>
<g id="a_node4"><a xlink:href="fp_8cuh.html#a0c4a481946542c2d262b361c9e3700ef" target="_top" xlink:title="Compares two fp_t residues.">
<polygon fill="white" stroke="black" points="100,-228.5 100,-247.5 150,-247.5 150,-228.5 100,-228.5"/>
<text text-anchor="middle" x="125" y="-235.5" font-family="Helvetica,sans-Serif" font-size="10.00">fp_neq</text>
</a>
</g>
</g>
<!-- Node1&#45;&gt;Node4 -->
<g id="edge3" class="edge">
<title>Node1&#45;&gt;Node4</title>
<path fill="none" stroke="midnightblue" d="M44.53,-171.63C59.7,-184.3 86.61,-206.77 104.86,-222.02"/>
<polygon fill="midnightblue" stroke="midnightblue" points="102.65,-224.73 112.57,-228.45 107.14,-219.36 102.65,-224.73"/>
</g>
<!-- Node9 -->
<g id="node9" class="node">
<title>Node9</title>
<g id="a_node9"><a xlink:href="fp_8cu.html#a2704620d529ee4e06657ff58de45866d" target="_top" xlink:title="Prints the canonical representation of x to STDOUT.">
<polygon fill="white" stroke="black" points="269.5,-152.5 269.5,-171.5 323.5,-171.5 323.5,-152.5 269.5,-152.5"/>
<text text-anchor="middle" x="296.5" y="-159.5" font-family="Helvetica,sans-Serif" font-size="10.00">fp_print</text>
</a>
</g>
</g>
<!-- Node1&#45;&gt;Node9 -->
<g id="edge9" class="edge">
<title>Node1&#45;&gt;Node9</title>
<path fill="none" stroke="midnightblue" d="M60.02,-171.5C72.09,-175.27 86.59,-179.14 100,-181 155.5,-188.72 220.3,-178.7 259.59,-170.53"/>
<polygon fill="midnightblue" stroke="midnightblue" points="260.45,-173.93 269.49,-168.4 258.98,-167.09 260.45,-173.93"/>
</g>
<!-- Node10 -->
<g id="node10" class="node">
<title>Node10</title>
<g id="a_node10"><a xlink:href="fp_8cuh.html#a74e253977f8412787ed920e5a07de414" target="_top" xlink:title="Computes the square of the residue x modulo p and stores it in z.">
<polygon fill="white" stroke="black" points="101.5,-152.5 101.5,-171.5 148.5,-171.5 148.5,-152.5 101.5,-152.5"/>
<text text-anchor="middle" x="125" y="-159.5" font-family="Helvetica,sans-Serif" font-size="10.00">fp_sqr</text>
</a>
</g>
</g>
<!-- Node1&#45;&gt;Node10 -->
<g id="edge12" class="edge">
<title>Node1&#45;&gt;Node10</title>
<path fill="none" stroke="midnightblue" d="M64.06,-162C72.87,-162 82.48,-162 91.38,-162"/>
<polygon fill="midnightblue" stroke="midnightblue" points="91.4,-165.5 101.4,-162 91.4,-158.5 91.4,-165.5"/>
</g>
<!-- Node11 -->
<g id="node11" class="node">
<title>Node11</title>
<g id="a_node11"><a xlink:href="fp_8cuh.html#a5d44bd034dfdd40057aaf66b13bc8518" target="_top" xlink:title="Multiplies the residue mod p x by 12 and stores the result into z.">
<polygon fill="white" stroke="black" points="100,-114.5 100,-133.5 150,-133.5 150,-114.5 100,-114.5"/>
<text text-anchor="middle" x="125" y="-121.5" font-family="Helvetica,sans-Serif" font-size="10.00">fp_x12</text>
</a>
</g>
</g>
<!-- Node1&#45;&gt;Node11 -->
<g id="edge13" class="edge">
<title>Node1&#45;&gt;Node11</title>
<path fill="none" stroke="midnightblue" d="M55.96,-152.41C66.74,-147.91 79.77,-142.47 91.54,-137.56"/>
<polygon fill="midnightblue" stroke="midnightblue" points="93.17,-140.67 101.04,-133.59 90.47,-134.21 93.17,-140.67"/>
</g>
<!-- Node12 -->
<g id="node12" class="node">
<title>Node12</title>
<g id="a_node12"><a xlink:href="fp_8cuh.html#a55a8ca49fdfdfdaaf7864c4c01917366" target="_top" xlink:title="Multiplies x by 2 and stores the result into z.">
<polygon fill="white" stroke="black" points="103,-76.5 103,-95.5 147,-95.5 147,-76.5 103,-76.5"/>
<text text-anchor="middle" x="125" y="-83.5" font-family="Helvetica,sans-Serif" font-size="10.00">fp_x2</text>
</a>
</g>
</g>
<!-- Node1&#45;&gt;Node12 -->
<g id="edge14" class="edge">
<title>Node1&#45;&gt;Node12</title>
<path fill="none" stroke="midnightblue" d="M44.28,-152.19C57.51,-140.74 80.17,-121.28 100,-105 101.18,-104.03 102.4,-103.04 103.63,-102.04"/>
<polygon fill="midnightblue" stroke="midnightblue" points="106.09,-104.56 111.72,-95.58 101.73,-99.09 106.09,-104.56"/>
</g>
<!-- Node13 -->
<g id="node13" class="node">
<title>Node13</title>
<g id="a_node13"><a xlink:href="fp_8cuh.html#a6fe5404e5c3813ab6944ed160eea3adb" target="_top" xlink:title="Multiplies x by 4 and stores the result into z.">
<polygon fill="white" stroke="black" points="103,-38.5 103,-57.5 147,-57.5 147,-38.5 103,-38.5"/>
<text text-anchor="middle" x="125" y="-45.5" font-family="Helvetica,sans-Serif" font-size="10.00">fp_x4</text>
</a>
</g>
</g>
<!-- Node1&#45;&gt;Node13 -->
<g id="edge15" class="edge">
<title>Node1&#45;&gt;Node13</title>
<path fill="none" stroke="midnightblue" d="M38.48,-152.43C49,-134.51 73.37,-95.15 100,-67 100.77,-66.19 101.57,-65.38 102.4,-64.59"/>
<polygon fill="midnightblue" stroke="midnightblue" points="104.95,-67.01 110.21,-57.81 100.36,-61.72 104.95,-67.01"/>
</g>
<!-- Node14 -->
<g id="node14" class="node">
<title>Node14</title>
<g id="a_node14"><a xlink:href="fp_8cuh.html#a4d3c99f0008c54a2b125b217f33199cb" target="_top" xlink:title="Multiplies x by 8 and stores the result into z.">
<polygon fill="white" stroke="black" points="103,-0.5 103,-19.5 147,-19.5 147,-0.5 103,-0.5"/>
<text text-anchor="middle" x="125" y="-7.5" font-family="Helvetica,sans-Serif" font-size="10.00">fp_x8</text>
</a>
</g>
</g>
<!-- Node1&#45;&gt;Node14 -->
<g id="edge16" class="edge">
<title>Node1&#45;&gt;Node14</title>
<path fill="none" stroke="midnightblue" d="M36.16,-152.49C44.14,-129.48 66.84,-69.68 100,-29 100.71,-28.13 101.46,-27.28 102.24,-26.45"/>
<polygon fill="midnightblue" stroke="midnightblue" points="104.82,-28.83 109.88,-19.52 100.12,-23.65 104.82,-28.83"/>
</g>
<!-- Node5 -->
<g id="node5" class="node">
<title>Node5</title>
<g id="a_node5"><a xlink:href="fp_8cuh.html#ade1abe61dfb7cbe9b00d78a38dda4bd3" target="_top" xlink:title="Compares two residues modulo p.">
<polygon fill="white" stroke="black" points="186,-228.5 186,-247.5 230,-247.5 230,-228.5 186,-228.5"/>
<text text-anchor="middle" x="208" y="-235.5" font-family="Helvetica,sans-Serif" font-size="10.00">fp_eq</text>
</a>
</g>
</g>
<!-- Node4&#45;&gt;Node5 -->
<g id="edge4" class="edge">
<title>Node4&#45;&gt;Node5</title>
<path fill="none" stroke="midnightblue" d="M150.3,-238C158.23,-238 167.15,-238 175.53,-238"/>
<polygon fill="midnightblue" stroke="midnightblue" points="175.74,-241.5 185.74,-238 175.74,-234.5 175.74,-241.5"/>
</g>
<!-- Node6 -->
<g id="node6" class="node">
<title>Node6</title>
<g id="a_node6"><a xlink:href="fp_8cuh.html#a45eab81e60385635ab4732360f94ec91" target="_top" xlink:title="Checks if the residue x modulo p is congruent to zero.">
<polygon fill="white" stroke="black" points="266,-228.5 266,-247.5 327,-247.5 327,-228.5 266,-228.5"/>
<text text-anchor="middle" x="296.5" y="-235.5" font-family="Helvetica,sans-Serif" font-size="10.00">fp_iszero</text>
</a>
</g>
</g>
<!-- Node5&#45;&gt;Node6 -->
<g id="edge5" class="edge">
<title>Node5&#45;&gt;Node6</title>
<path fill="none" stroke="midnightblue" d="M230.38,-238C238.08,-238 247.03,-238 255.78,-238"/>
<polygon fill="midnightblue" stroke="midnightblue" points="255.88,-241.5 265.88,-238 255.88,-234.5 255.88,-241.5"/>
</g>
<!-- Node8 -->
<g id="node8" class="node">
<title>Node8</title>
<g id="a_node8"><a xlink:href="fp_8cuh.html#aff96ec3f32ad9c0419911604d5fefe44" target="_top" xlink:title="Calculates the difference of two residues modulo p and stores it into z.">
<polygon fill="white" stroke="black" points="272,-190.5 272,-209.5 321,-209.5 321,-190.5 272,-190.5"/>
<text text-anchor="middle" x="296.5" y="-197.5" font-family="Helvetica,sans-Serif" font-size="10.00">fp_sub</text>
</a>
</g>
</g>
<!-- Node5&#45;&gt;Node8 -->
<g id="edge8" class="edge">
<title>Node5&#45;&gt;Node8</title>
<path fill="none" stroke="midnightblue" d="M230.38,-228.61C240.6,-224.12 253.02,-218.66 264.27,-213.72"/>
<polygon fill="midnightblue" stroke="midnightblue" points="266.02,-216.78 273.76,-209.55 263.2,-210.37 266.02,-216.78"/>
</g>
<!-- Node6&#45;&gt;Node3 -->
<g id="edge6" class="edge">
<title>Node6&#45;&gt;Node3</title>
<path fill="none" stroke="midnightblue" d="M327.23,-238C338.6,-238 351.66,-238 363.41,-238"/>
<polygon fill="midnightblue" stroke="midnightblue" points="363.74,-241.5 373.74,-238 363.74,-234.5 363.74,-241.5"/>
</g>
<!-- Node7 -->
<g id="node7" class="node">
<title>Node7</title>
<g id="a_node7"><a xlink:href="fp_8cuh.html#a89b41553cb5af629dd8ac33b71d03ee1" target="_top" xlink:title="Narrow reduction of a residue modulo p, reducing to the canonical representation.">
<polygon fill="white" stroke="black" points="363,-171.5 363,-190.5 434,-190.5 434,-171.5 363,-171.5"/>
<text text-anchor="middle" x="398.5" y="-178.5" font-family="Helvetica,sans-Serif" font-size="10.00">fp_reduce6</text>
</a>
</g>
</g>
<!-- Node6&#45;&gt;Node7 -->
<g id="edge7" class="edge">
<title>Node6&#45;&gt;Node7</title>
<path fill="none" stroke="midnightblue" d="M314.46,-228.33C330.22,-219.35 353.89,-205.86 371.94,-195.57"/>
<polygon fill="midnightblue" stroke="midnightblue" points="373.83,-198.52 380.79,-190.53 370.37,-192.44 373.83,-198.52"/>
</g>
<!-- Node9&#45;&gt;Node3 -->
<g id="edge10" class="edge">
<title>Node9&#45;&gt;Node3</title>
<path fill="none" stroke="midnightblue" d="M313.02,-171.55C317.59,-174.49 322.56,-177.79 327,-181 344.96,-193.98 364.48,-209.93 378.42,-221.64"/>
<polygon fill="midnightblue" stroke="midnightblue" points="376.43,-224.54 386.32,-228.33 380.95,-219.2 376.43,-224.54"/>
</g>
<!-- Node9&#45;&gt;Node7 -->
<g id="edge11" class="edge">
<title>Node9&#45;&gt;Node7</title>
<path fill="none" stroke="midnightblue" d="M323.51,-166.94C332.54,-168.66 342.94,-170.63 353.03,-172.55"/>
<polygon fill="midnightblue" stroke="midnightblue" points="352.48,-176.01 362.95,-174.44 353.78,-169.13 352.48,-176.01"/>
</g>
</g>
</svg>
