<?xml version="1.0" encoding="UTF-8" standalone="no"?>
<!DOCTYPE svg PUBLIC "-//W3C//DTD SVG 1.1//EN"
 "http://www.w3.org/Graphics/SVG/1.1/DTD/svg11.dtd">
<!-- Generated by graphviz version 2.43.0 (0)
 -->
<!-- Title: FpTestAdd Pages: 1 -->
<svg width="445pt" height="218pt"
 viewBox="0.00 0.00 445.00 218.00" xmlns="http://www.w3.org/2000/svg" xmlns:xlink="http://www.w3.org/1999/xlink">
<g id="graph0" class="graph" transform="scale(1 1) rotate(0) translate(4 214)">
<title>FpTestAdd</title>
<polygon fill="white" stroke="transparent" points="-4,4 -4,-214 441,-214 441,4 -4,4"/>
<!-- Node1 -->
<g id="node1" class="node">
<title>Node1</title>
<g id="a_node1"><a xlink:title="Test for addition in Fp.">
<polygon fill="#bfbfbf" stroke="black" points="0,-95.5 0,-114.5 67,-114.5 67,-95.5 0,-95.5"/>
<text text-anchor="middle" x="33.5" y="-102.5" font-family="Helvetica,sans-Serif" font-size="10.00">FpTestAdd</text>
</a>
</g>
</g>
<!-- Node2 -->
<g id="node2" class="node">
<title>Node2</title>
<g id="a_node2"><a xlink:href="fp_8cuh.html#a38d4eadff7890b835dceb28d2adb7358" target="_top" xlink:title="Computes the sum of two residues x and y modulo p and stores it in z. Device only function.">
<polygon fill="white" stroke="black" points="103,-190.5 103,-209.5 153,-209.5 153,-190.5 103,-190.5"/>
<text text-anchor="middle" x="128" y="-197.5" font-family="Helvetica,sans-Serif" font-size="10.00">fp_add</text>
</a>
</g>
</g>
<!-- Node1&#45;&gt;Node2 -->
<g id="edge1" class="edge">
<title>Node1&#45;&gt;Node2</title>
<path fill="none" stroke="midnightblue" d="M43.75,-114.7C56.86,-128.42 81.64,-154.25 103,-176 105.17,-178.21 107.46,-180.52 109.72,-182.8"/>
<polygon fill="midnightblue" stroke="midnightblue" points="107.61,-185.63 117.15,-190.23 112.56,-180.68 107.61,-185.63"/>
</g>
<!-- Node3 -->
<g id="node3" class="node">
<title>Node3</title>
<g id="a_node3"><a xlink:href="fp_8cuh.html#aa84fc3bc6fd35779512d8f14938df96d" target="_top" xlink:title="Copy from x into z.">
<polygon fill="white" stroke="black" points="377,-114.5 377,-133.5 426,-133.5 426,-114.5 377,-114.5"/>
<text text-anchor="middle" x="401.5" y="-121.5" font-family="Helvetica,sans-Serif" font-size="10.00">fp_cpy</text>
</a>
</g>
</g>
<!-- Node1&#45;&gt;Node3 -->
<g id="edge2" class="edge">
<title>Node1&#45;&gt;Node3</title>
<path fill="none" stroke="midnightblue" d="M47.29,-114.72C60.44,-124.07 81.93,-137.55 103,-143 200.67,-168.28 229.98,-156.24 330,-143 342.34,-141.37 355.59,-138.19 367.24,-134.89"/>
<polygon fill="midnightblue" stroke="midnightblue" points="368.4,-138.2 376.99,-132 366.41,-131.49 368.4,-138.2"/>
</g>
<!-- Node4 -->
<g id="node4" class="node">
<title>Node4</title>
<g id="a_node4"><a xlink:href="fp_8cuh.html#a0c4a481946542c2d262b361c9e3700ef" target="_top" xlink:title="Compares two fp_t residues.">
<polygon fill="white" stroke="black" points="103,-114.5 103,-133.5 153,-133.5 153,-114.5 103,-114.5"/>
<text text-anchor="middle" x="128" y="-121.5" font-family="Helvetica,sans-Serif" font-size="10.00">fp_neq</text>
</a>
</g>
</g>
<!-- Node1&#45;&gt;Node4 -->
<g id="edge3" class="edge">
<title>Node1&#45;&gt;Node4</title>
<path fill="none" stroke="midnightblue" d="M67.11,-111.7C75.47,-113.42 84.48,-115.27 92.91,-117"/>
<polygon fill="midnightblue" stroke="midnightblue" points="92.32,-120.45 102.82,-119.03 93.73,-113.59 92.32,-120.45"/>
</g>
<!-- Node9 -->
<g id="node9" class="node">
<title>Node9</title>
<g id="a_node9"><a xlink:href="fp_8cu.html#a2704620d529ee4e06657ff58de45866d" target="_top" xlink:title="Prints the canonical representation of x to STDOUT.">
<polygon fill="white" stroke="black" points="272.5,-38.5 272.5,-57.5 326.5,-57.5 326.5,-38.5 272.5,-38.5"/>
<text text-anchor="middle" x="299.5" y="-45.5" font-family="Helvetica,sans-Serif" font-size="10.00">fp_print</text>
</a>
</g>
</g>
<!-- Node1&#45;&gt;Node9 -->
<g id="edge9" class="edge">
<title>Node1&#45;&gt;Node9</title>
<path fill="none" stroke="midnightblue" d="M67.14,-97.95C116.7,-87.25 210.61,-66.98 262.24,-55.83"/>
<polygon fill="midnightblue" stroke="midnightblue" points="263.25,-59.19 272.28,-53.66 261.77,-52.35 263.25,-59.19"/>
</g>
<!-- Node10 -->
<g id="node10" class="node">
<title>Node10</title>
<g id="a_node10"><a xlink:href="fp_8cuh.html#a55a8ca49fdfdfdaaf7864c4c01917366" target="_top" xlink:title="Multiplies x by 2 and stores the result into z.">
<polygon fill="white" stroke="black" points="106,-38.5 106,-57.5 150,-57.5 150,-38.5 106,-38.5"/>
<text text-anchor="middle" x="128" y="-45.5" font-family="Helvetica,sans-Serif" font-size="10.00">fp_x2</text>
</a>
</g>
</g>
<!-- Node1&#45;&gt;Node10 -->
<g id="edge12" class="edge">
<title>Node1&#45;&gt;Node10</title>
<path fill="none" stroke="midnightblue" d="M50.19,-95.33C64.63,-86.43 86.26,-73.1 102.89,-62.86"/>
<polygon fill="midnightblue" stroke="midnightblue" points="104.86,-65.75 111.54,-57.53 101.19,-59.79 104.86,-65.75"/>
</g>
<!-- Node11 -->
<g id="node11" class="node">
<title>Node11</title>
<g id="a_node11"><a xlink:href="fp_8cuh.html#aabd562bd67fa39ed0329294e1784582a" target="_top" xlink:title="Multiplies x by 3 and stores the result into z.">
<polygon fill="white" stroke="black" points="106,-0.5 106,-19.5 150,-19.5 150,-0.5 106,-0.5"/>
<text text-anchor="middle" x="128" y="-7.5" font-family="Helvetica,sans-Serif" font-size="10.00">fp_x3</text>
</a>
</g>
</g>
<!-- Node1&#45;&gt;Node11 -->
<g id="edge13" class="edge">
<title>Node1&#45;&gt;Node11</title>
<path fill="none" stroke="midnightblue" d="M42.45,-95.16C54.75,-80.2 79.42,-51.12 103,-29 103.96,-28.1 104.96,-27.2 105.98,-26.3"/>
<polygon fill="midnightblue" stroke="midnightblue" points="108.5,-28.75 113.96,-19.67 104.03,-23.36 108.5,-28.75"/>
</g>
<!-- Node5 -->
<g id="node5" class="node">
<title>Node5</title>
<g id="a_node5"><a xlink:href="fp_8cuh.html#ade1abe61dfb7cbe9b00d78a38dda4bd3" target="_top" xlink:title="Compares two residues modulo p.">
<polygon fill="white" stroke="black" points="189,-114.5 189,-133.5 233,-133.5 233,-114.5 189,-114.5"/>
<text text-anchor="middle" x="211" y="-121.5" font-family="Helvetica,sans-Serif" font-size="10.00">fp_eq</text>
</a>
</g>
</g>
<!-- Node4&#45;&gt;Node5 -->
<g id="edge4" class="edge">
<title>Node4&#45;&gt;Node5</title>
<path fill="none" stroke="midnightblue" d="M153.3,-124C161.23,-124 170.15,-124 178.53,-124"/>
<polygon fill="midnightblue" stroke="midnightblue" points="178.74,-127.5 188.74,-124 178.74,-120.5 178.74,-127.5"/>
</g>
<!-- Node6 -->
<g id="node6" class="node">
<title>Node6</title>
<g id="a_node6"><a xlink:href="fp_8cuh.html#a45eab81e60385635ab4732360f94ec91" target="_top" xlink:title="Checks if the residue x modulo p is congruent to zero.">
<polygon fill="white" stroke="black" points="269,-114.5 269,-133.5 330,-133.5 330,-114.5 269,-114.5"/>
<text text-anchor="middle" x="299.5" y="-121.5" font-family="Helvetica,sans-Serif" font-size="10.00">fp_iszero</text>
</a>
</g>
</g>
<!-- Node5&#45;&gt;Node6 -->
<g id="edge5" class="edge">
<title>Node5&#45;&gt;Node6</title>
<path fill="none" stroke="midnightblue" d="M233.38,-124C241.08,-124 250.03,-124 258.78,-124"/>
<polygon fill="midnightblue" stroke="midnightblue" points="258.88,-127.5 268.88,-124 258.88,-120.5 258.88,-127.5"/>
</g>
<!-- Node8 -->
<g id="node8" class="node">
<title>Node8</title>
<g id="a_node8"><a xlink:href="fp_8cuh.html#aff96ec3f32ad9c0419911604d5fefe44" target="_top" xlink:title="Calculates the difference of two residues modulo p and stores it into z.">
<polygon fill="white" stroke="black" points="275,-76.5 275,-95.5 324,-95.5 324,-76.5 275,-76.5"/>
<text text-anchor="middle" x="299.5" y="-83.5" font-family="Helvetica,sans-Serif" font-size="10.00">fp_sub</text>
</a>
</g>
</g>
<!-- Node5&#45;&gt;Node8 -->
<g id="edge8" class="edge">
<title>Node5&#45;&gt;Node8</title>
<path fill="none" stroke="midnightblue" d="M233.38,-114.61C243.6,-110.12 256.02,-104.66 267.27,-99.72"/>
<polygon fill="midnightblue" stroke="midnightblue" points="269.02,-102.78 276.76,-95.55 266.2,-96.37 269.02,-102.78"/>
</g>
<!-- Node6&#45;&gt;Node3 -->
<g id="edge6" class="edge">
<title>Node6&#45;&gt;Node3</title>
<path fill="none" stroke="midnightblue" d="M330.23,-124C341.6,-124 354.66,-124 366.41,-124"/>
<polygon fill="midnightblue" stroke="midnightblue" points="366.74,-127.5 376.74,-124 366.74,-120.5 366.74,-127.5"/>
</g>
<!-- Node7 -->
<g id="node7" class="node">
<title>Node7</title>
<g id="a_node7"><a xlink:href="fp_8cuh.html#a89b41553cb5af629dd8ac33b71d03ee1" target="_top" xlink:title="Narrow reduction of a residue modulo p, reducing to the canonical representation.">
<polygon fill="white" stroke="black" points="366,-57.5 366,-76.5 437,-76.5 437,-57.5 366,-57.5"/>
<text text-anchor="middle" x="401.5" y="-64.5" font-family="Helvetica,sans-Serif" font-size="10.00">fp_reduce6</text>
</a>
</g>
</g>
<!-- Node6&#45;&gt;Node7 -->
<g id="edge7" class="edge">
<title>Node6&#45;&gt;Node7</title>
<path fill="none" stroke="midnightblue" d="M317.46,-114.33C333.22,-105.35 356.89,-91.86 374.94,-81.57"/>
<polygon fill="midnightblue" stroke="midnightblue" points="376.83,-84.52 383.79,-76.53 373.37,-78.44 376.83,-84.52"/>
</g>
<!-- Node9&#45;&gt;Node3 -->
<g id="edge10" class="edge">
<title>Node9&#45;&gt;Node3</title>
<path fill="none" stroke="midnightblue" d="M316.02,-57.55C320.59,-60.49 325.56,-63.79 330,-67 347.96,-79.98 367.48,-95.93 381.42,-107.64"/>
<polygon fill="midnightblue" stroke="midnightblue" points="379.43,-110.54 389.32,-114.33 383.95,-105.2 379.43,-110.54"/>
</g>
<!-- Node9&#45;&gt;Node7 -->
<g id="edge11" class="edge">
<title>Node9&#45;&gt;Node7</title>
<path fill="none" stroke="midnightblue" d="M326.51,-52.94C335.54,-54.66 345.94,-56.63 356.03,-58.55"/>
<polygon fill="midnightblue" stroke="midnightblue" points="355.48,-62.01 365.95,-60.44 356.78,-55.13 355.48,-62.01"/>
</g>
</g>
</svg>
