<?xml version="1.0" encoding="UTF-8" standalone="no"?>
<!DOCTYPE svg PUBLIC "-//W3C//DTD SVG 1.1//EN"
 "http://www.w3.org/Graphics/SVG/1.1/DTD/svg11.dtd">
<!-- Generated by graphviz version 2.43.0 (0)
 -->
<!-- Title: FpTestFibonacci Pages: 1 -->
<svg width="472pt" height="256pt"
 viewBox="0.00 0.00 472.00 256.00" xmlns="http://www.w3.org/2000/svg" xmlns:xlink="http://www.w3.org/1999/xlink">
<g id="graph0" class="graph" transform="scale(1 1) rotate(0) translate(4 252)">
<title>FpTestFibonacci</title>
<polygon fill="white" stroke="transparent" points="-4,4 -4,-252 468,-252 468,4 -4,4"/>
<!-- Node1 -->
<g id="node1" class="node">
<title>Node1</title>
<g id="a_node1"><a xlink:title="Test addition and subtraction in Fp using a fibonacci sequence (chain dependency) from 1 to ITERATION...">
<polygon fill="#bfbfbf" stroke="black" points="0,-114.5 0,-133.5 94,-133.5 94,-114.5 0,-114.5"/>
<text text-anchor="middle" x="47" y="-121.5" font-family="Helvetica,sans-Serif" font-size="10.00">FpTestFibonacci</text>
</a>
</g>
</g>
<!-- Node2 -->
<g id="node2" class="node">
<title>Node2</title>
<g id="a_node2"><a xlink:href="fp_8cuh.html#a38d4eadff7890b835dceb28d2adb7358" target="_top" xlink:title="Computes the sum of two residues x and y modulo p and stores it in z. Device only function.">
<polygon fill="white" stroke="black" points="130,-228.5 130,-247.5 180,-247.5 180,-228.5 130,-228.5"/>
<text text-anchor="middle" x="155" y="-235.5" font-family="Helvetica,sans-Serif" font-size="10.00">fp_add</text>
</a>
</g>
</g>
<!-- Node1&#45;&gt;Node2 -->
<g id="edge1" class="edge">
<title>Node1&#45;&gt;Node2</title>
<path fill="none" stroke="midnightblue" d="M56.48,-133.59C71.2,-150.19 102.56,-185.25 130,-214 132.14,-216.24 134.41,-218.57 136.66,-220.86"/>
<polygon fill="midnightblue" stroke="midnightblue" points="134.55,-223.69 144.09,-228.29 139.5,-218.74 134.55,-223.69"/>
</g>
<!-- Node3 -->
<g id="node3" class="node">
<title>Node3</title>
<g id="a_node3"><a xlink:href="fp_8cuh.html#aa84fc3bc6fd35779512d8f14938df96d" target="_top" xlink:title="Copy from x into z.">
<polygon fill="white" stroke="black" points="404,-152.5 404,-171.5 453,-171.5 453,-152.5 404,-152.5"/>
<text text-anchor="middle" x="428.5" y="-159.5" font-family="Helvetica,sans-Serif" font-size="10.00">fp_cpy</text>
</a>
</g>
</g>
<!-- Node1&#45;&gt;Node3 -->
<g id="edge2" class="edge">
<title>Node1&#45;&gt;Node3</title>
<path fill="none" stroke="midnightblue" d="M65.69,-133.55C81.94,-141.89 106.92,-153.62 130,-160 227.66,-187 256.56,-194.3 357,-181 369.34,-179.37 382.59,-176.19 394.24,-172.89"/>
<polygon fill="midnightblue" stroke="midnightblue" points="395.4,-176.2 403.99,-170 393.41,-169.49 395.4,-176.2"/>
</g>
<!-- Node4 -->
<g id="node4" class="node">
<title>Node4</title>
<g id="a_node4"><a xlink:href="fp_8cuh.html#acf26ba4d56d7ff54adc93a6e1bcaeab1" target="_top" xlink:title="Checks if the residue x modulo p is congruent to one.">
<polygon fill="white" stroke="black" points="297.5,-38.5 297.5,-57.5 355.5,-57.5 355.5,-38.5 297.5,-38.5"/>
<text text-anchor="middle" x="326.5" y="-45.5" font-family="Helvetica,sans-Serif" font-size="10.00">fp_isone</text>
</a>
</g>
</g>
<!-- Node1&#45;&gt;Node4 -->
<g id="edge3" class="edge">
<title>Node1&#45;&gt;Node4</title>
<path fill="none" stroke="midnightblue" d="M71.79,-114.44C88.02,-108.13 110.1,-99.96 130,-94 183.97,-77.84 247.68,-63.76 287.35,-55.56"/>
<polygon fill="midnightblue" stroke="midnightblue" points="288.28,-58.95 297.38,-53.51 286.88,-52.09 288.28,-58.95"/>
</g>
<!-- Node6 -->
<g id="node6" class="node">
<title>Node6</title>
<g id="a_node6"><a xlink:href="fp_8cuh.html#a0c4a481946542c2d262b361c9e3700ef" target="_top" xlink:title="Compares two fp_t residues.">
<polygon fill="white" stroke="black" points="130,-114.5 130,-133.5 180,-133.5 180,-114.5 130,-114.5"/>
<text text-anchor="middle" x="155" y="-121.5" font-family="Helvetica,sans-Serif" font-size="10.00">fp_neq</text>
</a>
</g>
</g>
<!-- Node1&#45;&gt;Node6 -->
<g id="edge6" class="edge">
<title>Node1&#45;&gt;Node6</title>
<path fill="none" stroke="midnightblue" d="M94.18,-124C102.72,-124 111.49,-124 119.6,-124"/>
<polygon fill="midnightblue" stroke="midnightblue" points="119.8,-127.5 129.8,-124 119.8,-120.5 119.8,-127.5"/>
</g>
<!-- Node9 -->
<g id="node9" class="node">
<title>Node9</title>
<g id="a_node9"><a xlink:href="fp_8cuh.html#aff96ec3f32ad9c0419911604d5fefe44" target="_top" xlink:title="Calculates the difference of two residues modulo p and stores it into z.">
<polygon fill="white" stroke="black" points="302,-76.5 302,-95.5 351,-95.5 351,-76.5 302,-76.5"/>
<text text-anchor="middle" x="326.5" y="-83.5" font-family="Helvetica,sans-Serif" font-size="10.00">fp_sub</text>
</a>
</g>
</g>
<!-- Node1&#45;&gt;Node9 -->
<g id="edge16" class="edge">
<title>Node1&#45;&gt;Node9</title>
<path fill="none" stroke="midnightblue" d="M84.53,-114.46C98.66,-111.05 115,-107.46 130,-105 186.41,-95.76 252.77,-90.48 291.86,-87.93"/>
<polygon fill="midnightblue" stroke="midnightblue" points="292.14,-91.42 301.9,-87.29 291.7,-84.43 292.14,-91.42"/>
</g>
<!-- Node10 -->
<g id="node10" class="node">
<title>Node10</title>
<g id="a_node10"><a xlink:href="fp_8cu.html#a7d8b3ebbffbf49eda4a3755dc41e01d9" target="_top" xlink:title="Sets z to one.">
<polygon fill="white" stroke="black" points="130,-0.5 130,-19.5 180,-19.5 180,-0.5 130,-0.5"/>
<text text-anchor="middle" x="155" y="-7.5" font-family="Helvetica,sans-Serif" font-size="10.00">fp_one</text>
</a>
</g>
</g>
<!-- Node1&#45;&gt;Node10 -->
<g id="edge12" class="edge">
<title>Node1&#45;&gt;Node10</title>
<path fill="none" stroke="midnightblue" d="M56.48,-114.41C71.2,-97.81 102.56,-62.75 130,-34 132.14,-31.76 134.41,-29.43 136.66,-27.14"/>
<polygon fill="midnightblue" stroke="midnightblue" points="139.5,-29.26 144.09,-19.71 134.55,-24.31 139.5,-29.26"/>
</g>
<!-- Node11 -->
<g id="node11" class="node">
<title>Node11</title>
<g id="a_node11"><a xlink:href="fp_8cu.html#a2704620d529ee4e06657ff58de45866d" target="_top" xlink:title="Prints the canonical representation of x to STDOUT.">
<polygon fill="white" stroke="black" points="299.5,-152.5 299.5,-171.5 353.5,-171.5 353.5,-152.5 299.5,-152.5"/>
<text text-anchor="middle" x="326.5" y="-159.5" font-family="Helvetica,sans-Serif" font-size="10.00">fp_print</text>
</a>
</g>
</g>
<!-- Node1&#45;&gt;Node11 -->
<g id="edge13" class="edge">
<title>Node1&#45;&gt;Node11</title>
<path fill="none" stroke="midnightblue" d="M84.53,-133.54C98.66,-136.95 115,-140.54 130,-143 185.18,-152.03 249.88,-157.29 289.26,-159.9"/>
<polygon fill="midnightblue" stroke="midnightblue" points="289.23,-163.41 299.43,-160.55 289.67,-156.42 289.23,-163.41"/>
</g>
<!-- Node4&#45;&gt;Node3 -->
<g id="edge4" class="edge">
<title>Node4&#45;&gt;Node3</title>
<path fill="none" stroke="midnightblue" d="M345.91,-57.6C349.9,-60.27 353.87,-63.43 357,-67 381.66,-95.09 367.39,-115.78 393,-143 394.19,-144.27 395.49,-145.47 396.85,-146.61"/>
<polygon fill="midnightblue" stroke="midnightblue" points="395.03,-149.6 405.24,-152.43 399.02,-143.85 395.03,-149.6"/>
</g>
<!-- Node5 -->
<g id="node5" class="node">
<title>Node5</title>
<g id="a_node5"><a xlink:href="fp_8cuh.html#a89b41553cb5af629dd8ac33b71d03ee1" target="_top" xlink:title="Narrow reduction of a residue modulo p, reducing to the canonical representation.">
<polygon fill="white" stroke="black" points="393,-114.5 393,-133.5 464,-133.5 464,-114.5 393,-114.5"/>
<text text-anchor="middle" x="428.5" y="-121.5" font-family="Helvetica,sans-Serif" font-size="10.00">fp_reduce6</text>
</a>
</g>
</g>
<!-- Node4&#45;&gt;Node5 -->
<g id="edge5" class="edge">
<title>Node4&#45;&gt;Node5</title>
<path fill="none" stroke="midnightblue" d="M343.02,-57.55C347.59,-60.49 352.56,-63.79 357,-67 374.96,-79.98 394.48,-95.93 408.42,-107.64"/>
<polygon fill="midnightblue" stroke="midnightblue" points="406.43,-110.54 416.32,-114.33 410.95,-105.2 406.43,-110.54"/>
</g>
<!-- Node7 -->
<g id="node7" class="node">
<title>Node7</title>
<g id="a_node7"><a xlink:href="fp_8cuh.html#ade1abe61dfb7cbe9b00d78a38dda4bd3" target="_top" xlink:title="Compares two residues modulo p.">
<polygon fill="white" stroke="black" points="216,-114.5 216,-133.5 260,-133.5 260,-114.5 216,-114.5"/>
<text text-anchor="middle" x="238" y="-121.5" font-family="Helvetica,sans-Serif" font-size="10.00">fp_eq</text>
</a>
</g>
</g>
<!-- Node6&#45;&gt;Node7 -->
<g id="edge7" class="edge">
<title>Node6&#45;&gt;Node7</title>
<path fill="none" stroke="midnightblue" d="M180.3,-124C188.23,-124 197.15,-124 205.53,-124"/>
<polygon fill="midnightblue" stroke="midnightblue" points="205.74,-127.5 215.74,-124 205.74,-120.5 205.74,-127.5"/>
</g>
<!-- Node8 -->
<g id="node8" class="node">
<title>Node8</title>
<g id="a_node8"><a xlink:href="fp_8cuh.html#a45eab81e60385635ab4732360f94ec91" target="_top" xlink:title="Checks if the residue x modulo p is congruent to zero.">
<polygon fill="white" stroke="black" points="296,-114.5 296,-133.5 357,-133.5 357,-114.5 296,-114.5"/>
<text text-anchor="middle" x="326.5" y="-121.5" font-family="Helvetica,sans-Serif" font-size="10.00">fp_iszero</text>
</a>
</g>
</g>
<!-- Node7&#45;&gt;Node8 -->
<g id="edge8" class="edge">
<title>Node7&#45;&gt;Node8</title>
<path fill="none" stroke="midnightblue" d="M260.38,-124C268.08,-124 277.03,-124 285.78,-124"/>
<polygon fill="midnightblue" stroke="midnightblue" points="285.88,-127.5 295.88,-124 285.88,-120.5 285.88,-127.5"/>
</g>
<!-- Node7&#45;&gt;Node9 -->
<g id="edge11" class="edge">
<title>Node7&#45;&gt;Node9</title>
<path fill="none" stroke="midnightblue" d="M260.38,-114.61C270.6,-110.12 283.02,-104.66 294.27,-99.72"/>
<polygon fill="midnightblue" stroke="midnightblue" points="296.02,-102.78 303.76,-95.55 293.2,-96.37 296.02,-102.78"/>
</g>
<!-- Node8&#45;&gt;Node3 -->
<g id="edge9" class="edge">
<title>Node8&#45;&gt;Node3</title>
<path fill="none" stroke="midnightblue" d="M352.73,-133.59C365.4,-138.4 380.9,-144.29 394.49,-149.46"/>
<polygon fill="midnightblue" stroke="midnightblue" points="393.4,-152.79 403.99,-153.07 395.89,-146.24 393.4,-152.79"/>
</g>
<!-- Node8&#45;&gt;Node5 -->
<g id="edge10" class="edge">
<title>Node8&#45;&gt;Node5</title>
<path fill="none" stroke="midnightblue" d="M357.23,-124C365.17,-124 373.93,-124 382.5,-124"/>
<polygon fill="midnightblue" stroke="midnightblue" points="382.78,-127.5 392.78,-124 382.78,-120.5 382.78,-127.5"/>
</g>
<!-- Node11&#45;&gt;Node3 -->
<g id="edge14" class="edge">
<title>Node11&#45;&gt;Node3</title>
<path fill="none" stroke="midnightblue" d="M353.51,-162C365.75,-162 380.5,-162 393.6,-162"/>
<polygon fill="midnightblue" stroke="midnightblue" points="393.67,-165.5 403.67,-162 393.67,-158.5 393.67,-165.5"/>
</g>
<!-- Node11&#45;&gt;Node5 -->
<g id="edge15" class="edge">
<title>Node11&#45;&gt;Node5</title>
<path fill="none" stroke="midnightblue" d="M352.73,-152.41C364.81,-147.82 379.47,-142.25 392.6,-137.26"/>
<polygon fill="midnightblue" stroke="midnightblue" points="394.17,-140.41 402.27,-133.59 391.68,-133.87 394.17,-140.41"/>
</g>
</g>
</svg>
