<?xml version="1.0" encoding="UTF-8" standalone="no"?>
<!DOCTYPE svg PUBLIC "-//W3C//DTD SVG 1.1//EN"
 "http://www.w3.org/Graphics/SVG/1.1/DTD/svg11.dtd">
<!-- Generated by graphviz version 2.43.0 (0)
 -->
<!-- Title: FpTestMul Pages: 1 -->
<svg width="197pt" height="66pt"
 viewBox="0.00 0.00 197.00 66.00" xmlns="http://www.w3.org/2000/svg" xmlns:xlink="http://www.w3.org/1999/xlink">
<g id="graph0" class="graph" transform="scale(1 1) rotate(0) translate(4 62)">
<title>FpTestMul</title>
<polygon fill="white" stroke="transparent" points="-4,4 -4,-62 193,-62 193,4 -4,4"/>
<!-- Node1 -->
<g id="node1" class="node">
<title>Node1</title>
<g id="a_node1"><a xlink:title="Multiplication test, comparing with the native uint64_t multiplication.">
<polygon fill="#bfbfbf" stroke="black" points="0,-19.5 0,-38.5 66,-38.5 66,-19.5 0,-19.5"/>
<text text-anchor="middle" x="33" y="-26.5" font-family="Helvetica,sans-Serif" font-size="10.00">FpTestMul</text>
</a>
</g>
</g>
<!-- Node2 -->
<g id="node2" class="node">
<title>Node2</title>
<g id="a_node2"><a xlink:href="fp_8cu.html#a9f39806f63fc829f70443320f4550a96" target="_top" xlink:title="Converts uint64_t[6] to fp_t. After this operation, z represents x mod p.">
<polygon fill="white" stroke="black" points="102,-38.5 102,-57.5 189,-57.5 189,-38.5 102,-38.5"/>
<text text-anchor="middle" x="145.5" y="-45.5" font-family="Helvetica,sans-Serif" font-size="10.00">fp_fromUint64</text>
</a>
</g>
</g>
<!-- Node1&#45;&gt;Node2 -->
<g id="edge1" class="edge">
<title>Node1&#45;&gt;Node2</title>
<path fill="none" stroke="midnightblue" d="M66.26,-34.55C74.22,-35.92 82.97,-37.42 91.63,-38.91"/>
<polygon fill="midnightblue" stroke="midnightblue" points="91.27,-42.4 101.72,-40.64 92.46,-35.5 91.27,-42.4"/>
</g>
<!-- Node3 -->
<g id="node3" class="node">
<title>Node3</title>
<g id="a_node3"><a xlink:href="fp_8cuh.html#a9f82a12248e7c53ac9d166e25e083bba" target="_top" xlink:title="Multiplies two Fp residues x and y, stores in z.">
<polygon fill="white" stroke="black" points="120.5,-0.5 120.5,-19.5 170.5,-19.5 170.5,-0.5 120.5,-0.5"/>
<text text-anchor="middle" x="145.5" y="-7.5" font-family="Helvetica,sans-Serif" font-size="10.00">fp_mul</text>
</a>
</g>
</g>
<!-- Node1&#45;&gt;Node3 -->
<g id="edge2" class="edge">
<title>Node1&#45;&gt;Node3</title>
<path fill="none" stroke="midnightblue" d="M66.26,-23.45C80.07,-21.08 96.2,-18.3 110.23,-15.89"/>
<polygon fill="midnightblue" stroke="midnightblue" points="111.2,-19.28 120.46,-14.13 110.02,-12.38 111.2,-19.28"/>
</g>
</g>
</svg>
