<?xml version="1.0" encoding="UTF-8" standalone="no"?>
<!DOCTYPE svg PUBLIC "-//W3C//DTD SVG 1.1//EN"
 "http://www.w3.org/Graphics/SVG/1.1/DTD/svg11.dtd">
<!-- Generated by graphviz version 2.43.0 (0)
 -->
<!-- Title: FpTestCommutativeMul Pages: 1 -->
<svg width="511pt" height="139pt"
 viewBox="0.00 0.00 511.00 138.66" xmlns="http://www.w3.org/2000/svg" xmlns:xlink="http://www.w3.org/1999/xlink">
<g id="graph0" class="graph" transform="scale(1 1) rotate(0) translate(4 134.66)">
<title>FpTestCommutativeMul</title>
<polygon fill="white" stroke="transparent" points="-4,4 -4,-134.66 507,-134.66 507,4 -4,4"/>
<!-- Node1 -->
<g id="node1" class="node">
<title>Node1</title>
<g id="a_node1"><a xlink:title="Test for the commutative property of addition.">
<polygon fill="#bfbfbf" stroke="black" points="0,-57.5 0,-76.5 133,-76.5 133,-57.5 0,-57.5"/>
<text text-anchor="middle" x="66.5" y="-64.5" font-family="Helvetica,sans-Serif" font-size="10.00">FpTestCommutativeMul</text>
</a>
</g>
</g>
<!-- Node2 -->
<g id="node2" class="node">
<title>Node2</title>
<g id="a_node2"><a xlink:href="fp_8cuh.html#aa84fc3bc6fd35779512d8f14938df96d" target="_top" xlink:title="Copy from x into z.">
<polygon fill="white" stroke="black" points="443,-95.5 443,-114.5 492,-114.5 492,-95.5 443,-95.5"/>
<text text-anchor="middle" x="467.5" y="-102.5" font-family="Helvetica,sans-Serif" font-size="10.00">fp_cpy</text>
</a>
</g>
</g>
<!-- Node1&#45;&gt;Node2 -->
<g id="edge1" class="edge">
<title>Node1&#45;&gt;Node2</title>
<path fill="none" stroke="midnightblue" d="M88.41,-76.55C108.61,-85.36 140.28,-98.09 169,-105 267.43,-128.68 295.63,-137.29 396,-124 408.34,-122.37 421.59,-119.19 433.24,-115.89"/>
<polygon fill="midnightblue" stroke="midnightblue" points="434.4,-119.2 442.99,-113 432.41,-112.49 434.4,-119.2"/>
</g>
<!-- Node3 -->
<g id="node3" class="node">
<title>Node3</title>
<g id="a_node3"><a xlink:href="fp_8cuh.html#a9f82a12248e7c53ac9d166e25e083bba" target="_top" xlink:title="Multiplies two Fp residues x and y, stores in z.">
<polygon fill="white" stroke="black" points="169,-0.5 169,-19.5 219,-19.5 219,-0.5 169,-0.5"/>
<text text-anchor="middle" x="194" y="-7.5" font-family="Helvetica,sans-Serif" font-size="10.00">fp_mul</text>
</a>
</g>
</g>
<!-- Node1&#45;&gt;Node3 -->
<g id="edge2" class="edge">
<title>Node1&#45;&gt;Node3</title>
<path fill="none" stroke="midnightblue" d="M88.51,-57.46C108.78,-48.25 139.68,-34.22 162.63,-23.79"/>
<polygon fill="midnightblue" stroke="midnightblue" points="164.27,-26.89 171.93,-19.57 161.37,-20.52 164.27,-26.89"/>
</g>
<!-- Node4 -->
<g id="node4" class="node">
<title>Node4</title>
<g id="a_node4"><a xlink:href="fp_8cuh.html#a0c4a481946542c2d262b361c9e3700ef" target="_top" xlink:title="Compares two fp_t residues.">
<polygon fill="white" stroke="black" points="169,-76.5 169,-95.5 219,-95.5 219,-76.5 169,-76.5"/>
<text text-anchor="middle" x="194" y="-83.5" font-family="Helvetica,sans-Serif" font-size="10.00">fp_neq</text>
</a>
</g>
</g>
<!-- Node1&#45;&gt;Node4 -->
<g id="edge3" class="edge">
<title>Node1&#45;&gt;Node4</title>
<path fill="none" stroke="midnightblue" d="M130.62,-76.56C140.34,-78.03 150.05,-79.5 158.81,-80.82"/>
<polygon fill="midnightblue" stroke="midnightblue" points="158.56,-84.33 168.97,-82.36 159.61,-77.4 158.56,-84.33"/>
</g>
<!-- Node9 -->
<g id="node9" class="node">
<title>Node9</title>
<g id="a_node9"><a xlink:href="fp_8cu.html#a2704620d529ee4e06657ff58de45866d" target="_top" xlink:title="Prints the canonical representation of x to STDOUT.">
<polygon fill="white" stroke="black" points="338.5,-19.5 338.5,-38.5 392.5,-38.5 392.5,-19.5 338.5,-19.5"/>
<text text-anchor="middle" x="365.5" y="-26.5" font-family="Helvetica,sans-Serif" font-size="10.00">fp_print</text>
</a>
</g>
</g>
<!-- Node1&#45;&gt;Node9 -->
<g id="edge9" class="edge">
<title>Node1&#45;&gt;Node9</title>
<path fill="none" stroke="midnightblue" d="M133.05,-58.61C193.04,-50.94 279.65,-39.86 328.12,-33.66"/>
<polygon fill="midnightblue" stroke="midnightblue" points="328.67,-37.11 338.14,-32.37 327.78,-30.17 328.67,-37.11"/>
</g>
<!-- Node5 -->
<g id="node5" class="node">
<title>Node5</title>
<g id="a_node5"><a xlink:href="fp_8cuh.html#ade1abe61dfb7cbe9b00d78a38dda4bd3" target="_top" xlink:title="Compares two residues modulo p.">
<polygon fill="white" stroke="black" points="255,-76.5 255,-95.5 299,-95.5 299,-76.5 255,-76.5"/>
<text text-anchor="middle" x="277" y="-83.5" font-family="Helvetica,sans-Serif" font-size="10.00">fp_eq</text>
</a>
</g>
</g>
<!-- Node4&#45;&gt;Node5 -->
<g id="edge4" class="edge">
<title>Node4&#45;&gt;Node5</title>
<path fill="none" stroke="midnightblue" d="M219.3,-86C227.23,-86 236.15,-86 244.53,-86"/>
<polygon fill="midnightblue" stroke="midnightblue" points="244.74,-89.5 254.74,-86 244.74,-82.5 244.74,-89.5"/>
</g>
<!-- Node6 -->
<g id="node6" class="node">
<title>Node6</title>
<g id="a_node6"><a xlink:href="fp_8cuh.html#a45eab81e60385635ab4732360f94ec91" target="_top" xlink:title="Checks if the residue x modulo p is congruent to zero.">
<polygon fill="white" stroke="black" points="335,-95.5 335,-114.5 396,-114.5 396,-95.5 335,-95.5"/>
<text text-anchor="middle" x="365.5" y="-102.5" font-family="Helvetica,sans-Serif" font-size="10.00">fp_iszero</text>
</a>
</g>
</g>
<!-- Node5&#45;&gt;Node6 -->
<g id="edge5" class="edge">
<title>Node5&#45;&gt;Node6</title>
<path fill="none" stroke="midnightblue" d="M299.38,-90.7C307.16,-92.41 316.22,-94.4 325.07,-96.34"/>
<polygon fill="midnightblue" stroke="midnightblue" points="324.36,-99.77 334.88,-98.49 325.86,-92.93 324.36,-99.77"/>
</g>
<!-- Node8 -->
<g id="node8" class="node">
<title>Node8</title>
<g id="a_node8"><a xlink:href="fp_8cuh.html#aff96ec3f32ad9c0419911604d5fefe44" target="_top" xlink:title="Calculates the difference of two residues modulo p and stores it into z.">
<polygon fill="white" stroke="black" points="341,-57.5 341,-76.5 390,-76.5 390,-57.5 341,-57.5"/>
<text text-anchor="middle" x="365.5" y="-64.5" font-family="Helvetica,sans-Serif" font-size="10.00">fp_sub</text>
</a>
</g>
</g>
<!-- Node5&#45;&gt;Node8 -->
<g id="edge8" class="edge">
<title>Node5&#45;&gt;Node8</title>
<path fill="none" stroke="midnightblue" d="M299.38,-81.3C308.94,-79.2 320.42,-76.68 331.07,-74.34"/>
<polygon fill="midnightblue" stroke="midnightblue" points="331.92,-77.74 340.93,-72.18 330.41,-70.9 331.92,-77.74"/>
</g>
<!-- Node6&#45;&gt;Node2 -->
<g id="edge6" class="edge">
<title>Node6&#45;&gt;Node2</title>
<path fill="none" stroke="midnightblue" d="M396.23,-105C407.6,-105 420.66,-105 432.41,-105"/>
<polygon fill="midnightblue" stroke="midnightblue" points="432.74,-108.5 442.74,-105 432.74,-101.5 432.74,-108.5"/>
</g>
<!-- Node7 -->
<g id="node7" class="node">
<title>Node7</title>
<g id="a_node7"><a xlink:href="fp_8cuh.html#a89b41553cb5af629dd8ac33b71d03ee1" target="_top" xlink:title="Narrow reduction of a residue modulo p, reducing to the canonical representation.">
<polygon fill="white" stroke="black" points="432,-38.5 432,-57.5 503,-57.5 503,-38.5 432,-38.5"/>
<text text-anchor="middle" x="467.5" y="-45.5" font-family="Helvetica,sans-Serif" font-size="10.00">fp_reduce6</text>
</a>
</g>
</g>
<!-- Node6&#45;&gt;Node7 -->
<g id="edge7" class="edge">
<title>Node6&#45;&gt;Node7</title>
<path fill="none" stroke="midnightblue" d="M383.46,-95.33C399.22,-86.35 422.89,-72.86 440.94,-62.57"/>
<polygon fill="midnightblue" stroke="midnightblue" points="442.83,-65.52 449.79,-57.53 439.37,-59.44 442.83,-65.52"/>
</g>
<!-- Node9&#45;&gt;Node2 -->
<g id="edge10" class="edge">
<title>Node9&#45;&gt;Node2</title>
<path fill="none" stroke="midnightblue" d="M382.02,-38.55C386.59,-41.49 391.56,-44.79 396,-48 413.96,-60.98 433.48,-76.93 447.42,-88.64"/>
<polygon fill="midnightblue" stroke="midnightblue" points="445.43,-91.54 455.32,-95.33 449.95,-86.2 445.43,-91.54"/>
</g>
<!-- Node9&#45;&gt;Node7 -->
<g id="edge11" class="edge">
<title>Node9&#45;&gt;Node7</title>
<path fill="none" stroke="midnightblue" d="M392.51,-33.94C401.54,-35.66 411.94,-37.63 422.03,-39.55"/>
<polygon fill="midnightblue" stroke="midnightblue" points="421.48,-43.01 431.95,-41.44 422.78,-36.13 421.48,-43.01"/>
</g>
</g>
</svg>
