<?xml version="1.0" encoding="UTF-8" standalone="no"?>
<!DOCTYPE svg PUBLIC "-//W3C//DTD SVG 1.1//EN"
 "http://www.w3.org/Graphics/SVG/1.1/DTD/svg11.dtd">
<!-- Generated by graphviz version 2.43.0 (0)
 -->
<!-- Title: FpTestSub Pages: 1 -->
<svg width="444pt" height="209pt"
 viewBox="0.00 0.00 444.00 209.00" xmlns="http://www.w3.org/2000/svg" xmlns:xlink="http://www.w3.org/1999/xlink">
<g id="graph0" class="graph" transform="scale(1 1) rotate(0) translate(4 205)">
<title>FpTestSub</title>
<polygon fill="white" stroke="transparent" points="-4,4 -4,-205 440,-205 440,4 -4,4"/>
<!-- Node1 -->
<g id="node1" class="node">
<title>Node1</title>
<g id="a_node1"><a xlink:title="Test for subtraction in Fp.">
<polygon fill="#bfbfbf" stroke="black" points="0,-95.5 0,-114.5 66,-114.5 66,-95.5 0,-95.5"/>
<text text-anchor="middle" x="33" y="-102.5" font-family="Helvetica,sans-Serif" font-size="10.00">FpTestSub</text>
</a>
</g>
</g>
<!-- Node2 -->
<g id="node2" class="node">
<title>Node2</title>
<g id="a_node2"><a xlink:href="fp_8cuh.html#aa84fc3bc6fd35779512d8f14938df96d" target="_top" xlink:title="Copy from x into z.">
<polygon fill="white" stroke="black" points="376,-152.5 376,-171.5 425,-171.5 425,-152.5 376,-152.5"/>
<text text-anchor="middle" x="400.5" y="-159.5" font-family="Helvetica,sans-Serif" font-size="10.00">fp_cpy</text>
</a>
</g>
</g>
<!-- Node1&#45;&gt;Node2 -->
<g id="edge1" class="edge">
<title>Node1&#45;&gt;Node2</title>
<path fill="none" stroke="midnightblue" d="M38.95,-114.54C48.47,-131.68 71.13,-167.2 102,-181 190.7,-220.66 309.29,-191.93 366.23,-173.79"/>
<polygon fill="midnightblue" stroke="midnightblue" points="367.39,-177.1 375.81,-170.66 365.21,-170.45 367.39,-177.1"/>
</g>
<!-- Node3 -->
<g id="node3" class="node">
<title>Node3</title>
<g id="a_node3"><a xlink:href="fp_8cuh.html#a0c4a481946542c2d262b361c9e3700ef" target="_top" xlink:title="Compares two fp_t residues.">
<polygon fill="white" stroke="black" points="102,-152.5 102,-171.5 152,-171.5 152,-152.5 102,-152.5"/>
<text text-anchor="middle" x="127" y="-159.5" font-family="Helvetica,sans-Serif" font-size="10.00">fp_neq</text>
</a>
</g>
</g>
<!-- Node1&#45;&gt;Node3 -->
<g id="edge2" class="edge">
<title>Node1&#45;&gt;Node3</title>
<path fill="none" stroke="midnightblue" d="M49.61,-114.67C63.97,-123.57 85.48,-136.9 102.02,-147.14"/>
<polygon fill="midnightblue" stroke="midnightblue" points="100.28,-150.18 110.62,-152.47 103.97,-144.23 100.28,-150.18"/>
</g>
<!-- Node7 -->
<g id="node7" class="node">
<title>Node7</title>
<g id="a_node7"><a xlink:href="fp_8cuh.html#aff96ec3f32ad9c0419911604d5fefe44" target="_top" xlink:title="Calculates the difference of two residues modulo p and stores it into z.">
<polygon fill="white" stroke="black" points="274,-114.5 274,-133.5 323,-133.5 323,-114.5 274,-114.5"/>
<text text-anchor="middle" x="298.5" y="-121.5" font-family="Helvetica,sans-Serif" font-size="10.00">fp_sub</text>
</a>
</g>
</g>
<!-- Node1&#45;&gt;Node7 -->
<g id="edge11" class="edge">
<title>Node1&#45;&gt;Node7</title>
<path fill="none" stroke="midnightblue" d="M66.17,-107.38C77.49,-108.21 90.31,-109.15 102,-110 158.62,-114.11 224.46,-118.81 263.46,-121.58"/>
<polygon fill="midnightblue" stroke="midnightblue" points="263.5,-125.09 273.72,-122.31 264,-118.11 263.5,-125.09"/>
</g>
<!-- Node8 -->
<g id="node8" class="node">
<title>Node8</title>
<g id="a_node8"><a xlink:href="fp_8cu.html#a2704620d529ee4e06657ff58de45866d" target="_top" xlink:title="Prints the canonical representation of x to STDOUT.">
<polygon fill="white" stroke="black" points="271.5,-76.5 271.5,-95.5 325.5,-95.5 325.5,-76.5 271.5,-76.5"/>
<text text-anchor="middle" x="298.5" y="-83.5" font-family="Helvetica,sans-Serif" font-size="10.00">fp_print</text>
</a>
</g>
</g>
<!-- Node1&#45;&gt;Node8 -->
<g id="edge8" class="edge">
<title>Node1&#45;&gt;Node8</title>
<path fill="none" stroke="midnightblue" d="M66.05,-102.69C115.32,-99.14 209.4,-92.35 261.15,-88.62"/>
<polygon fill="midnightblue" stroke="midnightblue" points="261.49,-92.11 271.21,-87.9 260.98,-85.12 261.49,-92.11"/>
</g>
<!-- Node9 -->
<g id="node9" class="node">
<title>Node9</title>
<g id="a_node9"><a xlink:href="fp_8cuh.html#a55a8ca49fdfdfdaaf7864c4c01917366" target="_top" xlink:title="Multiplies x by 2 and stores the result into z.">
<polygon fill="white" stroke="black" points="105,-38.5 105,-57.5 149,-57.5 149,-38.5 105,-38.5"/>
<text text-anchor="middle" x="127" y="-45.5" font-family="Helvetica,sans-Serif" font-size="10.00">fp_x2</text>
</a>
</g>
</g>
<!-- Node1&#45;&gt;Node9 -->
<g id="edge12" class="edge">
<title>Node1&#45;&gt;Node9</title>
<path fill="none" stroke="midnightblue" d="M49.61,-95.33C63.97,-86.43 85.48,-73.1 102.02,-62.86"/>
<polygon fill="midnightblue" stroke="midnightblue" points="103.97,-65.77 110.62,-57.53 100.28,-59.82 103.97,-65.77"/>
</g>
<!-- Node10 -->
<g id="node10" class="node">
<title>Node10</title>
<g id="a_node10"><a xlink:href="fp_8cuh.html#aabd562bd67fa39ed0329294e1784582a" target="_top" xlink:title="Multiplies x by 3 and stores the result into z.">
<polygon fill="white" stroke="black" points="105,-0.5 105,-19.5 149,-19.5 149,-0.5 105,-0.5"/>
<text text-anchor="middle" x="127" y="-7.5" font-family="Helvetica,sans-Serif" font-size="10.00">fp_x3</text>
</a>
</g>
</g>
<!-- Node1&#45;&gt;Node10 -->
<g id="edge13" class="edge">
<title>Node1&#45;&gt;Node10</title>
<path fill="none" stroke="midnightblue" d="M41.88,-95.16C54.07,-80.18 78.54,-51.09 102,-29 102.96,-28.1 103.95,-27.19 104.97,-26.29"/>
<polygon fill="midnightblue" stroke="midnightblue" points="107.5,-28.75 112.96,-19.67 103.03,-23.36 107.5,-28.75"/>
</g>
<!-- Node4 -->
<g id="node4" class="node">
<title>Node4</title>
<g id="a_node4"><a xlink:href="fp_8cuh.html#ade1abe61dfb7cbe9b00d78a38dda4bd3" target="_top" xlink:title="Compares two residues modulo p.">
<polygon fill="white" stroke="black" points="188,-152.5 188,-171.5 232,-171.5 232,-152.5 188,-152.5"/>
<text text-anchor="middle" x="210" y="-159.5" font-family="Helvetica,sans-Serif" font-size="10.00">fp_eq</text>
</a>
</g>
</g>
<!-- Node3&#45;&gt;Node4 -->
<g id="edge3" class="edge">
<title>Node3&#45;&gt;Node4</title>
<path fill="none" stroke="midnightblue" d="M152.3,-162C160.23,-162 169.15,-162 177.53,-162"/>
<polygon fill="midnightblue" stroke="midnightblue" points="177.74,-165.5 187.74,-162 177.74,-158.5 177.74,-165.5"/>
</g>
<!-- Node5 -->
<g id="node5" class="node">
<title>Node5</title>
<g id="a_node5"><a xlink:href="fp_8cuh.html#a45eab81e60385635ab4732360f94ec91" target="_top" xlink:title="Checks if the residue x modulo p is congruent to zero.">
<polygon fill="white" stroke="black" points="268,-152.5 268,-171.5 329,-171.5 329,-152.5 268,-152.5"/>
<text text-anchor="middle" x="298.5" y="-159.5" font-family="Helvetica,sans-Serif" font-size="10.00">fp_iszero</text>
</a>
</g>
</g>
<!-- Node4&#45;&gt;Node5 -->
<g id="edge4" class="edge">
<title>Node4&#45;&gt;Node5</title>
<path fill="none" stroke="midnightblue" d="M232.38,-162C240.08,-162 249.03,-162 257.78,-162"/>
<polygon fill="midnightblue" stroke="midnightblue" points="257.88,-165.5 267.88,-162 257.88,-158.5 257.88,-165.5"/>
</g>
<!-- Node4&#45;&gt;Node7 -->
<g id="edge7" class="edge">
<title>Node4&#45;&gt;Node7</title>
<path fill="none" stroke="midnightblue" d="M232.38,-152.61C242.6,-148.12 255.02,-142.66 266.27,-137.72"/>
<polygon fill="midnightblue" stroke="midnightblue" points="268.02,-140.78 275.76,-133.55 265.2,-134.37 268.02,-140.78"/>
</g>
<!-- Node5&#45;&gt;Node2 -->
<g id="edge5" class="edge">
<title>Node5&#45;&gt;Node2</title>
<path fill="none" stroke="midnightblue" d="M329.23,-162C340.6,-162 353.66,-162 365.41,-162"/>
<polygon fill="midnightblue" stroke="midnightblue" points="365.74,-165.5 375.74,-162 365.74,-158.5 365.74,-165.5"/>
</g>
<!-- Node6 -->
<g id="node6" class="node">
<title>Node6</title>
<g id="a_node6"><a xlink:href="fp_8cuh.html#a89b41553cb5af629dd8ac33b71d03ee1" target="_top" xlink:title="Narrow reduction of a residue modulo p, reducing to the canonical representation.">
<polygon fill="white" stroke="black" points="365,-95.5 365,-114.5 436,-114.5 436,-95.5 365,-95.5"/>
<text text-anchor="middle" x="400.5" y="-102.5" font-family="Helvetica,sans-Serif" font-size="10.00">fp_reduce6</text>
</a>
</g>
</g>
<!-- Node5&#45;&gt;Node6 -->
<g id="edge6" class="edge">
<title>Node5&#45;&gt;Node6</title>
<path fill="none" stroke="midnightblue" d="M316.46,-152.33C332.22,-143.35 355.89,-129.86 373.94,-119.57"/>
<polygon fill="midnightblue" stroke="midnightblue" points="375.83,-122.52 382.79,-114.53 372.37,-116.44 375.83,-122.52"/>
</g>
<!-- Node8&#45;&gt;Node2 -->
<g id="edge9" class="edge">
<title>Node8&#45;&gt;Node2</title>
<path fill="none" stroke="midnightblue" d="M315.02,-95.55C319.59,-98.49 324.56,-101.79 329,-105 346.96,-117.98 366.48,-133.93 380.42,-145.64"/>
<polygon fill="midnightblue" stroke="midnightblue" points="378.43,-148.54 388.32,-152.33 382.95,-143.2 378.43,-148.54"/>
</g>
<!-- Node8&#45;&gt;Node6 -->
<g id="edge10" class="edge">
<title>Node8&#45;&gt;Node6</title>
<path fill="none" stroke="midnightblue" d="M325.51,-90.94C334.54,-92.66 344.94,-94.63 355.03,-96.55"/>
<polygon fill="midnightblue" stroke="midnightblue" points="354.48,-100.01 364.95,-98.44 355.78,-93.13 354.48,-100.01"/>
</g>
</g>
</svg>
