<?xml version="1.0" encoding="UTF-8" standalone="no"?>
<!DOCTYPE svg PUBLIC "-//W3C//DTD SVG 1.1//EN"
 "http://www.w3.org/Graphics/SVG/1.1/DTD/svg11.dtd">
<!-- Generated by graphviz version 2.43.0 (0)
 -->
<!-- Title: FpTestSqr2 Pages: 1 -->
<svg width="448pt" height="256pt"
 viewBox="0.00 0.00 448.00 256.00" xmlns="http://www.w3.org/2000/svg" xmlns:xlink="http://www.w3.org/1999/xlink">
<g id="graph0" class="graph" transform="scale(1 1) rotate(0) translate(4 252)">
<title>FpTestSqr2</title>
<polygon fill="white" stroke="transparent" points="-4,4 -4,-252 444,-252 444,4 -4,4"/>
<!-- Node1 -->
<g id="node1" class="node">
<title>Node1</title>
<g id="a_node1"><a xlink:title="Test for squaring on Fp. Checks for self consistency:">
<polygon fill="#bfbfbf" stroke="black" points="0,-114.5 0,-133.5 70,-133.5 70,-114.5 0,-114.5"/>
<text text-anchor="middle" x="35" y="-121.5" font-family="Helvetica,sans-Serif" font-size="10.00">FpTestSqr2</text>
</a>
</g>
</g>
<!-- Node2 -->
<g id="node2" class="node">
<title>Node2</title>
<g id="a_node2"><a xlink:href="fp_8cuh.html#a38d4eadff7890b835dceb28d2adb7358" target="_top" xlink:title="Computes the sum of two residues x and y modulo p and stores it in z. Device only function.">
<polygon fill="white" stroke="black" points="106,-228.5 106,-247.5 156,-247.5 156,-228.5 106,-228.5"/>
<text text-anchor="middle" x="131" y="-235.5" font-family="Helvetica,sans-Serif" font-size="10.00">fp_add</text>
</a>
</g>
</g>
<!-- Node1&#45;&gt;Node2 -->
<g id="edge1" class="edge">
<title>Node1&#45;&gt;Node2</title>
<path fill="none" stroke="midnightblue" d="M42.79,-133.5C54.89,-150.26 81.24,-185.95 106,-214 108.05,-216.32 110.26,-218.7 112.5,-221.01"/>
<polygon fill="midnightblue" stroke="midnightblue" points="110.37,-223.84 119.91,-228.46 115.33,-218.9 110.37,-223.84"/>
</g>
<!-- Node3 -->
<g id="node3" class="node">
<title>Node3</title>
<g id="a_node3"><a xlink:href="fp_8cuh.html#aa84fc3bc6fd35779512d8f14938df96d" target="_top" xlink:title="Copy from x into z.">
<polygon fill="white" stroke="black" points="380,-152.5 380,-171.5 429,-171.5 429,-152.5 380,-152.5"/>
<text text-anchor="middle" x="404.5" y="-159.5" font-family="Helvetica,sans-Serif" font-size="10.00">fp_cpy</text>
</a>
</g>
</g>
<!-- Node1&#45;&gt;Node3 -->
<g id="edge2" class="edge">
<title>Node1&#45;&gt;Node3</title>
<path fill="none" stroke="midnightblue" d="M43.82,-133.59C55.61,-147.21 79.42,-171.55 106,-181 197.12,-213.41 313.73,-188.38 370.07,-172.5"/>
<polygon fill="midnightblue" stroke="midnightblue" points="371.24,-175.8 379.87,-169.66 369.29,-169.08 371.24,-175.8"/>
</g>
<!-- Node4 -->
<g id="node4" class="node">
<title>Node4</title>
<g id="a_node4"><a xlink:href="fp_8cuh.html#a9f82a12248e7c53ac9d166e25e083bba" target="_top" xlink:title="Multiplies two Fp residues x and y, stores in z.">
<polygon fill="white" stroke="black" points="106,-76.5 106,-95.5 156,-95.5 156,-76.5 106,-76.5"/>
<text text-anchor="middle" x="131" y="-83.5" font-family="Helvetica,sans-Serif" font-size="10.00">fp_mul</text>
</a>
</g>
</g>
<!-- Node1&#45;&gt;Node4 -->
<g id="edge3" class="edge">
<title>Node1&#45;&gt;Node4</title>
<path fill="none" stroke="midnightblue" d="M59.72,-114.41C70.96,-109.87 84.59,-104.36 96.83,-99.41"/>
<polygon fill="midnightblue" stroke="midnightblue" points="98.33,-102.58 106.29,-95.59 95.7,-96.09 98.33,-102.58"/>
</g>
<!-- Node5 -->
<g id="node5" class="node">
<title>Node5</title>
<g id="a_node5"><a xlink:href="fp_8cuh.html#a0c4a481946542c2d262b361c9e3700ef" target="_top" xlink:title="Compares two fp_t residues.">
<polygon fill="white" stroke="black" points="106,-152.5 106,-171.5 156,-171.5 156,-152.5 106,-152.5"/>
<text text-anchor="middle" x="131" y="-159.5" font-family="Helvetica,sans-Serif" font-size="10.00">fp_neq</text>
</a>
</g>
</g>
<!-- Node1&#45;&gt;Node5 -->
<g id="edge4" class="edge">
<title>Node1&#45;&gt;Node5</title>
<path fill="none" stroke="midnightblue" d="M59.72,-133.59C70.96,-138.13 84.59,-143.64 96.83,-148.59"/>
<polygon fill="midnightblue" stroke="midnightblue" points="95.7,-151.91 106.29,-152.41 98.33,-145.42 95.7,-151.91"/>
</g>
<!-- Node10 -->
<g id="node10" class="node">
<title>Node10</title>
<g id="a_node10"><a xlink:href="fp_8cu.html#a2704620d529ee4e06657ff58de45866d" target="_top" xlink:title="Prints the canonical representation of x to STDOUT.">
<polygon fill="white" stroke="black" points="275.5,-76.5 275.5,-95.5 329.5,-95.5 329.5,-76.5 275.5,-76.5"/>
<text text-anchor="middle" x="302.5" y="-83.5" font-family="Helvetica,sans-Serif" font-size="10.00">fp_print</text>
</a>
</g>
</g>
<!-- Node1&#45;&gt;Node10 -->
<g id="edge10" class="edge">
<title>Node1&#45;&gt;Node10</title>
<path fill="none" stroke="midnightblue" d="M70.17,-119.11C120.48,-111.91 214.08,-98.51 265.45,-91.16"/>
<polygon fill="midnightblue" stroke="midnightblue" points="266.03,-94.61 275.44,-89.73 265.04,-87.68 266.03,-94.61"/>
</g>
<!-- Node11 -->
<g id="node11" class="node">
<title>Node11</title>
<g id="a_node11"><a xlink:href="fp_8cuh.html#a74e253977f8412787ed920e5a07de414" target="_top" xlink:title="Computes the square of the residue x modulo p and stores it in z.">
<polygon fill="white" stroke="black" points="107.5,-38.5 107.5,-57.5 154.5,-57.5 154.5,-38.5 107.5,-38.5"/>
<text text-anchor="middle" x="131" y="-45.5" font-family="Helvetica,sans-Serif" font-size="10.00">fp_sqr</text>
</a>
</g>
</g>
<!-- Node1&#45;&gt;Node11 -->
<g id="edge13" class="edge">
<title>Node1&#45;&gt;Node11</title>
<path fill="none" stroke="midnightblue" d="M47.85,-114.27C61.74,-102.88 85.47,-83.48 106,-67 107.19,-66.04 108.42,-65.06 109.66,-64.07"/>
<polygon fill="midnightblue" stroke="midnightblue" points="112.11,-66.59 117.76,-57.63 107.76,-61.11 112.11,-66.59"/>
</g>
<!-- Node12 -->
<g id="node12" class="node">
<title>Node12</title>
<g id="a_node12"><a xlink:href="fp_8cuh.html#a55a8ca49fdfdfdaaf7864c4c01917366" target="_top" xlink:title="Multiplies x by 2 and stores the result into z.">
<polygon fill="white" stroke="black" points="109,-0.5 109,-19.5 153,-19.5 153,-0.5 109,-0.5"/>
<text text-anchor="middle" x="131" y="-7.5" font-family="Helvetica,sans-Serif" font-size="10.00">fp_x2</text>
</a>
</g>
</g>
<!-- Node1&#45;&gt;Node12 -->
<g id="edge14" class="edge">
<title>Node1&#45;&gt;Node12</title>
<path fill="none" stroke="midnightblue" d="M41.81,-114.46C52.96,-96.58 78.67,-57.29 106,-29 106.78,-28.2 107.59,-27.4 108.42,-26.61"/>
<polygon fill="midnightblue" stroke="midnightblue" points="110.96,-29.04 116.26,-19.86 106.4,-23.73 110.96,-29.04"/>
</g>
<!-- Node6 -->
<g id="node6" class="node">
<title>Node6</title>
<g id="a_node6"><a xlink:href="fp_8cuh.html#ade1abe61dfb7cbe9b00d78a38dda4bd3" target="_top" xlink:title="Compares two residues modulo p.">
<polygon fill="white" stroke="black" points="192,-152.5 192,-171.5 236,-171.5 236,-152.5 192,-152.5"/>
<text text-anchor="middle" x="214" y="-159.5" font-family="Helvetica,sans-Serif" font-size="10.00">fp_eq</text>
</a>
</g>
</g>
<!-- Node5&#45;&gt;Node6 -->
<g id="edge5" class="edge">
<title>Node5&#45;&gt;Node6</title>
<path fill="none" stroke="midnightblue" d="M156.3,-162C164.23,-162 173.15,-162 181.53,-162"/>
<polygon fill="midnightblue" stroke="midnightblue" points="181.74,-165.5 191.74,-162 181.74,-158.5 181.74,-165.5"/>
</g>
<!-- Node7 -->
<g id="node7" class="node">
<title>Node7</title>
<g id="a_node7"><a xlink:href="fp_8cuh.html#a45eab81e60385635ab4732360f94ec91" target="_top" xlink:title="Checks if the residue x modulo p is congruent to zero.">
<polygon fill="white" stroke="black" points="272,-152.5 272,-171.5 333,-171.5 333,-152.5 272,-152.5"/>
<text text-anchor="middle" x="302.5" y="-159.5" font-family="Helvetica,sans-Serif" font-size="10.00">fp_iszero</text>
</a>
</g>
</g>
<!-- Node6&#45;&gt;Node7 -->
<g id="edge6" class="edge">
<title>Node6&#45;&gt;Node7</title>
<path fill="none" stroke="midnightblue" d="M236.38,-162C244.08,-162 253.03,-162 261.78,-162"/>
<polygon fill="midnightblue" stroke="midnightblue" points="261.88,-165.5 271.88,-162 261.88,-158.5 261.88,-165.5"/>
</g>
<!-- Node9 -->
<g id="node9" class="node">
<title>Node9</title>
<g id="a_node9"><a xlink:href="fp_8cuh.html#aff96ec3f32ad9c0419911604d5fefe44" target="_top" xlink:title="Calculates the difference of two residues modulo p and stores it into z.">
<polygon fill="white" stroke="black" points="278,-114.5 278,-133.5 327,-133.5 327,-114.5 278,-114.5"/>
<text text-anchor="middle" x="302.5" y="-121.5" font-family="Helvetica,sans-Serif" font-size="10.00">fp_sub</text>
</a>
</g>
</g>
<!-- Node6&#45;&gt;Node9 -->
<g id="edge9" class="edge">
<title>Node6&#45;&gt;Node9</title>
<path fill="none" stroke="midnightblue" d="M236.38,-152.61C246.6,-148.12 259.02,-142.66 270.27,-137.72"/>
<polygon fill="midnightblue" stroke="midnightblue" points="272.02,-140.78 279.76,-133.55 269.2,-134.37 272.02,-140.78"/>
</g>
<!-- Node7&#45;&gt;Node3 -->
<g id="edge7" class="edge">
<title>Node7&#45;&gt;Node3</title>
<path fill="none" stroke="midnightblue" d="M333.23,-162C344.6,-162 357.66,-162 369.41,-162"/>
<polygon fill="midnightblue" stroke="midnightblue" points="369.74,-165.5 379.74,-162 369.74,-158.5 369.74,-165.5"/>
</g>
<!-- Node8 -->
<g id="node8" class="node">
<title>Node8</title>
<g id="a_node8"><a xlink:href="fp_8cuh.html#a89b41553cb5af629dd8ac33b71d03ee1" target="_top" xlink:title="Narrow reduction of a residue modulo p, reducing to the canonical representation.">
<polygon fill="white" stroke="black" points="369,-95.5 369,-114.5 440,-114.5 440,-95.5 369,-95.5"/>
<text text-anchor="middle" x="404.5" y="-102.5" font-family="Helvetica,sans-Serif" font-size="10.00">fp_reduce6</text>
</a>
</g>
</g>
<!-- Node7&#45;&gt;Node8 -->
<g id="edge8" class="edge">
<title>Node7&#45;&gt;Node8</title>
<path fill="none" stroke="midnightblue" d="M320.46,-152.33C336.22,-143.35 359.89,-129.86 377.94,-119.57"/>
<polygon fill="midnightblue" stroke="midnightblue" points="379.83,-122.52 386.79,-114.53 376.37,-116.44 379.83,-122.52"/>
</g>
<!-- Node10&#45;&gt;Node3 -->
<g id="edge11" class="edge">
<title>Node10&#45;&gt;Node3</title>
<path fill="none" stroke="midnightblue" d="M319.02,-95.55C323.59,-98.49 328.56,-101.79 333,-105 350.96,-117.98 370.48,-133.93 384.42,-145.64"/>
<polygon fill="midnightblue" stroke="midnightblue" points="382.43,-148.54 392.32,-152.33 386.95,-143.2 382.43,-148.54"/>
</g>
<!-- Node10&#45;&gt;Node8 -->
<g id="edge12" class="edge">
<title>Node10&#45;&gt;Node8</title>
<path fill="none" stroke="midnightblue" d="M329.51,-90.94C338.54,-92.66 348.94,-94.63 359.03,-96.55"/>
<polygon fill="midnightblue" stroke="midnightblue" points="358.48,-100.01 368.95,-98.44 359.78,-93.13 358.48,-100.01"/>
</g>
</g>
</svg>
