<?xml version="1.0" encoding="UTF-8" standalone="no"?>
<!DOCTYPE svg PUBLIC "-//W3C//DTD SVG 1.1//EN"
 "http://www.w3.org/Graphics/SVG/1.1/DTD/svg11.dtd">
<!-- Generated by graphviz version 2.43.0 (0)
 -->
<!-- Title: fr_cpy Pages: 1 -->
<!--zoomable 724 -->
<svg id="main" version="1.1" xmlns="http://www.w3.org/2000/svg" xmlns:xlink="http://www.w3.org/1999/xlink" xml:space="preserve" onload="init(evt)">
<style type="text/css"><![CDATA[
.edge:hover path { stroke: red; }
.edge:hover polygon { stroke: red; fill: red; }
]]></style>
<script type="text/javascript"><![CDATA[
var edges = document.getElementsByTagName('g');
if (edges && edges.length) {
  for (var i=0;i<edges.length;i++) {
    if (edges[i].id.substr(0,4)=='edge') {
      edges[i].setAttribute('class','edge');
    }
  }
}
]]></script>
        <defs>
                <circle id="rim" cx="0" cy="0" r="7"/>
                <circle id="rim2" cx="0" cy="0" r="3.5"/>
                <g id="zoomPlus">
                        <use xlink:href="#rim" fill="#404040">
                                <set attributeName="fill" to="#808080" begin="zoomplus.mouseover" end="zoomplus.mouseout"/>
                        </use>
                        <path d="M-4,0h8M0,-4v8" fill="none" stroke="white" stroke-width="1.5" pointer-events="none"/>
                </g>
                <g id="zoomMin">
                        <use xlink:href="#rim" fill="#404040">
                                <set attributeName="fill" to="#808080" begin="zoomminus.mouseover" end="zoomminus.mouseout"/>
                        </use>
                        <path d="M-4,0h8" fill="none" stroke="white" stroke-width="1.5" pointer-events="none"/>
                </g>
                <g id="dirArrow">
                        <path fill="none" stroke="white" stroke-width="1.5" d="M0,-3.0v7 M-2.5,-0.5L0,-3.0L2.5,-0.5"/>
                </g>
               <g id="resetDef">
                       <use xlink:href="#rim2" fill="#404040">
                               <set attributeName="fill" to="#808080" begin="reset.mouseover" end="reset.mouseout"/>
                       </use>
               </g>
        </defs>

<script type="text/javascript">
var viewWidth = 730;
var viewHeight = 724;
var sectionId = 'dynsection-3';
</script>
<script xlink:href="svgpan.js"/>
<svg id="graph" class="graph">
<g id="viewport">
<title>fr_cpy</title>
<polygon fill="white" stroke="transparent" points="-4,4 -4,-719.5 726,-719.5 726,4 -4,4"/>
<!-- Node1 -->
<g id="node1" class="node">
<title>Node1</title>
<g id="a_node1"><a xlink:title="Copy from x into z.">
<polygon fill="#bfbfbf" stroke="black" points="675,-342.5 675,-361.5 722,-361.5 722,-342.5 675,-342.5"/>
<text text-anchor="middle" x="698.5" y="-349.5" font-family="Helvetica,sans-Serif" font-size="10.00">fr_cpy</text>
</a>
</g>
</g>
<!-- Node2 -->
<g id="node2" class="node">
<title>Node2</title>
<g id="a_node2"><a xlink:href="fk20_8cuh.html#a298f5b6f3275d93e41f80567bde9677b" target="_top" xlink:title="polynomial &#45;&gt; toeplitz_coefficients">
<polygon fill="white" stroke="black" points="532,-685 532,-715 639,-715 639,-685 532,-685"/>
<text text-anchor="start" x="540" y="-703" font-family="Helvetica,sans-Serif" font-size="10.00">fk20_poly2toeplitz</text>
<text text-anchor="middle" x="585.5" y="-692" font-family="Helvetica,sans-Serif" font-size="10.00">_coefficients</text>
</a>
</g>
</g>
<!-- Node1&#45;&gt;Node2 -->
<g id="edge1" class="edge">
<title>Node1&#45;&gt;Node2</title>
<path fill="none" stroke="midnightblue" d="M696.02,-371.96C691.08,-433.85 673.55,-621.28 639,-670 634.75,-675.99 628.9,-680.95 622.64,-685"/>
<polygon fill="midnightblue" stroke="midnightblue" points="699.53,-371.87 696.81,-361.63 692.55,-371.33 699.53,-371.87"/>
</g>
<!-- Node3 -->
<g id="node3" class="node">
<title>Node3</title>
<g id="a_node3"><a xlink:href="fr_8cuh.html#a4e45802fc36909ab3c8a71f662689cfa" target="_top" xlink:title="Compares two residues modulo r.">
<polygon fill="white" stroke="black" points="433,-570.5 433,-589.5 474,-589.5 474,-570.5 433,-570.5"/>
<text text-anchor="middle" x="453.5" y="-577.5" font-family="Helvetica,sans-Serif" font-size="10.00">fr_eq</text>
</a>
</g>
</g>
<!-- Node1&#45;&gt;Node3 -->
<g id="edge2" class="edge">
<title>Node1&#45;&gt;Node3</title>
<path fill="none" stroke="midnightblue" d="M695.88,-371.98C691.06,-425.62 674.91,-570.6 639,-599 590,-637.75 509.31,-606.86 473.1,-589.62"/>
<polygon fill="midnightblue" stroke="midnightblue" points="699.39,-372 696.76,-361.74 692.41,-371.4 699.39,-372"/>
</g>
<!-- Node8 -->
<g id="node8" class="node">
<title>Node8</title>
<g id="a_node8"><a xlink:href="frtest__cmp_8cu.html#a871de10e2f93c77672721a62951f876a" target="_top" xlink:title="Test for the comparison function; checks for inconsistencies in the following properties:">
<polygon fill="white" stroke="black" points="108.5,-570.5 108.5,-589.5 176.5,-589.5 176.5,-570.5 108.5,-570.5"/>
<text text-anchor="middle" x="142.5" y="-577.5" font-family="Helvetica,sans-Serif" font-size="10.00">FrTestCmp</text>
</a>
</g>
</g>
<!-- Node1&#45;&gt;Node8 -->
<g id="edge54" class="edge">
<title>Node1&#45;&gt;Node8</title>
<path fill="none" stroke="midnightblue" d="M696.22,-371.83C692.13,-428.51 677.29,-589.28 639,-622 572.22,-679.06 328.93,-659.41 244,-637 209.09,-627.79 173.59,-603.35 155.58,-589.65"/>
<polygon fill="midnightblue" stroke="midnightblue" points="699.73,-371.89 696.92,-361.67 692.74,-371.41 699.73,-371.89"/>
</g>
<!-- Node10 -->
<g id="node10" class="node">
<title>Node10</title>
<g id="a_node10"><a xlink:href="frtest__add_8cu.html#a6372e698dff3983b1e875cf08c097d97" target="_top" xlink:title="Test the cumulative property of addition.">
<polygon fill="white" stroke="black" points="77,-532.5 77,-551.5 208,-551.5 208,-532.5 77,-532.5"/>
<text text-anchor="middle" x="142.5" y="-539.5" font-family="Helvetica,sans-Serif" font-size="10.00">FrTestCommutativeAdd</text>
</a>
</g>
</g>
<!-- Node1&#45;&gt;Node10 -->
<g id="edge55" class="edge">
<title>Node1&#45;&gt;Node10</title>
<path fill="none" stroke="midnightblue" d="M693.81,-371.8C687.58,-399.3 672.27,-448.52 639,-474 510.61,-572.33 306.76,-563.58 205.21,-551.51"/>
<polygon fill="midnightblue" stroke="midnightblue" points="697.28,-372.3 695.88,-361.79 690.42,-370.87 697.28,-372.3"/>
</g>
<!-- Node11 -->
<g id="node11" class="node">
<title>Node11</title>
<g id="a_node11"><a xlink:href="frtest__mul_8cu.html#aba1ae7a1fb9958d713a549e881a8dcb2" target="_top" xlink:title="Test of the commutative property of multiplication x*y == y*x.">
<polygon fill="white" stroke="black" points="77.5,-418.5 77.5,-437.5 207.5,-437.5 207.5,-418.5 77.5,-418.5"/>
<text text-anchor="middle" x="142.5" y="-425.5" font-family="Helvetica,sans-Serif" font-size="10.00">FrTestCommutativeMul</text>
</a>
</g>
</g>
<!-- Node1&#45;&gt;Node11 -->
<g id="edge56" class="edge">
<title>Node1&#45;&gt;Node11</title>
<path fill="none" stroke="midnightblue" d="M676.23,-367.43C665.58,-374.34 652.17,-381.85 639,-386 489.97,-433 303.98,-434.54 207.79,-431.4"/>
<polygon fill="midnightblue" stroke="midnightblue" points="678.5,-370.12 684.81,-361.62 674.57,-364.33 678.5,-370.12"/>
</g>
<!-- Node12 -->
<g id="node12" class="node">
<title>Node12</title>
<g id="a_node12"><a xlink:href="frtest__fibonacci_8cu.html#ad97d52b82c26e99df17a0809f8c14ffb" target="_top" xlink:title="Test addition and subtraction in Fr using a fibonacci sequence (chain dependency) from 1 to ITERATION...">
<polygon fill="white" stroke="black" points="97,-342.5 97,-361.5 188,-361.5 188,-342.5 97,-342.5"/>
<text text-anchor="middle" x="142.5" y="-349.5" font-family="Helvetica,sans-Serif" font-size="10.00">FrTestFibonacci</text>
</a>
</g>
</g>
<!-- Node1&#45;&gt;Node12 -->
<g id="edge57" class="edge">
<title>Node1&#45;&gt;Node12</title>
<path fill="none" stroke="midnightblue" d="M664.61,-352C569.81,-352 295.95,-352 188,-352"/>
<polygon fill="midnightblue" stroke="midnightblue" points="664.75,-355.5 674.75,-352 664.75,-348.5 664.75,-355.5"/>
</g>
<!-- Node13 -->
<g id="node13" class="node">
<title>Node13</title>
<g id="a_node13"><a xlink:href="frtest__mulconst_8cu.html#aa528975311db670a1f658a498220adfa" target="_top" xlink:title="Test multiply by constant on Fr:">
<polygon fill="white" stroke="black" points="97,-380.5 97,-399.5 188,-399.5 188,-380.5 97,-380.5"/>
<text text-anchor="middle" x="142.5" y="-387.5" font-family="Helvetica,sans-Serif" font-size="10.00">FrTestMulConst</text>
</a>
</g>
</g>
<!-- Node1&#45;&gt;Node13 -->
<g id="edge58" class="edge">
<title>Node1&#45;&gt;Node13</title>
<path fill="none" stroke="midnightblue" d="M665.05,-360.9C656.63,-362.9 647.53,-364.78 639,-366 474.02,-389.53 275.35,-391.2 188.18,-390.61"/>
<polygon fill="midnightblue" stroke="midnightblue" points="666.05,-364.26 674.91,-358.45 664.36,-357.47 666.05,-364.26"/>
</g>
<!-- Node14 -->
<g id="node14" class="node">
<title>Node14</title>
<g id="a_node14"><a xlink:href="fr_8cuh.html#aea5631ea87a7bab0cbc4e01740c416f6" target="_top" xlink:title="FFT over Fr.">
<polygon fill="white" stroke="black" points="565.5,-228.5 565.5,-247.5 605.5,-247.5 605.5,-228.5 565.5,-228.5"/>
<text text-anchor="middle" x="585.5" y="-235.5" font-family="Helvetica,sans-Serif" font-size="10.00">fr_fft</text>
</a>
</g>
</g>
<!-- Node1&#45;&gt;Node14 -->
<g id="edge18" class="edge">
<title>Node1&#45;&gt;Node14</title>
<path fill="none" stroke="midnightblue" d="M690.39,-333.16C681.46,-311.86 664.18,-277.49 639,-257 629.38,-249.17 616.25,-244.42 605.53,-241.63"/>
<polygon fill="midnightblue" stroke="midnightblue" points="687.15,-334.46 694.11,-342.45 693.65,-331.86 687.15,-334.46"/>
</g>
<!-- Node26 -->
<g id="node26" class="node">
<title>Node26</title>
<g id="a_node26"><a xlink:href="g1test_8cuh.html#af69268816d41d8e3c477c70066f7bfcf" target="_top" xlink:title="Test for FFT and IFFT of points on the G1 curve. Checks self consistency with the following propertie...">
<polygon fill="white" stroke="black" points="276,-0.5 276,-19.5 343,-19.5 343,-0.5 276,-0.5"/>
<text text-anchor="middle" x="309.5" y="-7.5" font-family="Helvetica,sans-Serif" font-size="10.00">G1TestFFT</text>
</a>
</g>
</g>
<!-- Node1&#45;&gt;Node26 -->
<g id="edge60" class="edge">
<title>Node1&#45;&gt;Node26</title>
<path fill="none" stroke="midnightblue" d="M693.99,-332.43C687.84,-303.68 672.44,-250.08 639,-219 602.03,-184.64 574.88,-207.6 532,-181 449.47,-129.8 458.9,-77.92 375,-29 365.32,-23.36 353.83,-19.27 343.25,-16.37"/>
<polygon fill="midnightblue" stroke="midnightblue" points="690.6,-333.33 695.97,-342.46 697.46,-331.97 690.6,-333.33"/>
</g>
<!-- Node29 -->
<g id="node29" class="node">
<title>Node29</title>
<g id="a_node29"><a xlink:href="fr_8cuh.html#ae4ccd980840d9d286f91be4f07dcb47a" target="_top" xlink:title="Inverse FFT for fr_t[512].">
<polygon fill="white" stroke="black" points="566,-266.5 566,-285.5 605,-285.5 605,-266.5 566,-266.5"/>
<text text-anchor="middle" x="585.5" y="-273.5" font-family="Helvetica,sans-Serif" font-size="10.00">fr_ift</text>
</a>
</g>
</g>
<!-- Node1&#45;&gt;Node29 -->
<g id="edge37" class="edge">
<title>Node1&#45;&gt;Node29</title>
<path fill="none" stroke="midnightblue" d="M680.99,-334.89C669.84,-323.97 654.39,-310.03 639,-300 628.42,-293.1 615.54,-287.18 605.18,-282.95"/>
<polygon fill="midnightblue" stroke="midnightblue" points="678.75,-337.6 688.29,-342.21 683.71,-332.66 678.75,-337.6"/>
</g>
<!-- Node31 -->
<g id="node31" class="node">
<title>Node31</title>
<g id="a_node31"><a xlink:href="fr_8cuh.html#ac601c06e698074f5d4e58608274f8476" target="_top" xlink:title="Calculates the multiplicative inverse of z, and stores back.">
<polygon fill="white" stroke="black" points="563.5,-152.5 563.5,-171.5 607.5,-171.5 607.5,-152.5 563.5,-152.5"/>
<text text-anchor="middle" x="585.5" y="-159.5" font-family="Helvetica,sans-Serif" font-size="10.00">fr_inv</text>
</a>
</g>
</g>
<!-- Node1&#45;&gt;Node31 -->
<g id="edge40" class="edge">
<title>Node1&#45;&gt;Node31</title>
<path fill="none" stroke="midnightblue" d="M695.56,-332.42C691.23,-298.55 677.89,-228.56 639,-186 630.68,-176.9 618.24,-171 607.55,-167.33"/>
<polygon fill="midnightblue" stroke="midnightblue" points="692.09,-332.9 696.71,-342.44 699.05,-332.1 692.09,-332.9"/>
</g>
<!-- Node32 -->
<g id="node32" class="node">
<title>Node32</title>
<g id="a_node32"><a xlink:href="fr_8cuh.html#a912c7835f9151e3294434ac6f656f0da" target="_top" xlink:title="Checks if the residue x modulo f is congruent to one.">
<polygon fill="white" stroke="black" points="425.5,-304.5 425.5,-323.5 481.5,-323.5 481.5,-304.5 425.5,-304.5"/>
<text text-anchor="middle" x="453.5" y="-311.5" font-family="Helvetica,sans-Serif" font-size="10.00">fr_isone</text>
</a>
</g>
</g>
<!-- Node1&#45;&gt;Node32 -->
<g id="edge41" class="edge">
<title>Node1&#45;&gt;Node32</title>
<path fill="none" stroke="midnightblue" d="M664.98,-343.57C656.55,-341.57 647.47,-339.56 639,-338 583.41,-327.76 517.6,-320.31 481.53,-316.61"/>
<polygon fill="midnightblue" stroke="midnightblue" points="664.29,-347.01 674.84,-345.99 665.96,-340.21 664.29,-347.01"/>
</g>
<!-- Node33 -->
<g id="node33" class="node">
<title>Node33</title>
<g id="a_node33"><a xlink:href="fr_8cuh.html#a78b8df6518ee14cdf2cdc025abf902fa" target="_top" xlink:title="Checks if the residue x modulo f is congruent to zero.">
<polygon fill="white" stroke="black" points="556,-570.5 556,-589.5 615,-589.5 615,-570.5 556,-570.5"/>
<text text-anchor="middle" x="585.5" y="-577.5" font-family="Helvetica,sans-Serif" font-size="10.00">fr_iszero</text>
</a>
</g>
</g>
<!-- Node1&#45;&gt;Node33 -->
<g id="edge43" class="edge">
<title>Node1&#45;&gt;Node33</title>
<path fill="none" stroke="midnightblue" d="M697.09,-372.09C695.26,-411.89 685.81,-501.61 639,-556 632.72,-563.29 623.77,-568.49 615.03,-572.14"/>
<polygon fill="midnightblue" stroke="midnightblue" points="700.6,-371.96 697.45,-361.85 693.61,-371.72 700.6,-371.96"/>
</g>
<!-- Node34 -->
<g id="node34" class="node">
<title>Node34</title>
<g id="a_node34"><a xlink:href="fr_8cuh.html#a66f4651fb8a6e1310280f1473bcc1670" target="_top" xlink:title="Check if the reduced input x is different from zero.">
<polygon fill="white" stroke="black" points="551.5,-114.5 551.5,-133.5 619.5,-133.5 619.5,-114.5 551.5,-114.5"/>
<text text-anchor="middle" x="585.5" y="-121.5" font-family="Helvetica,sans-Serif" font-size="10.00">fr_nonzero</text>
</a>
</g>
</g>
<!-- Node1&#45;&gt;Node34 -->
<g id="edge45" class="edge">
<title>Node1&#45;&gt;Node34</title>
<path fill="none" stroke="midnightblue" d="M697.65,-332.19C696.88,-291.38 689.38,-197.27 639,-143 633.79,-137.39 626.8,-133.43 619.62,-130.64"/>
<polygon fill="midnightblue" stroke="midnightblue" points="694.15,-332.23 697.72,-342.2 701.15,-332.18 694.15,-332.23"/>
</g>
<!-- Node35 -->
<g id="node35" class="node">
<title>Node35</title>
<g id="a_node35"><a xlink:href="fr_8cu.html#a48d3ace037073f6d394152bee7f40b71" target="_top" xlink:title="prints the canonical representation of x to STDOUT.">
<polygon fill="white" stroke="black" points="283.5,-456.5 283.5,-475.5 335.5,-475.5 335.5,-456.5 283.5,-456.5"/>
<text text-anchor="middle" x="309.5" y="-463.5" font-family="Helvetica,sans-Serif" font-size="10.00">fr_print</text>
</a>
</g>
</g>
<!-- Node1&#45;&gt;Node35 -->
<g id="edge46" class="edge">
<title>Node1&#45;&gt;Node35</title>
<path fill="none" stroke="midnightblue" d="M690.89,-371.4C682.49,-392.77 665.76,-426.19 639,-442 540.04,-500.47 393.97,-481.92 335.77,-471.25"/>
<polygon fill="midnightblue" stroke="midnightblue" points="694.28,-372.34 694.45,-361.75 687.71,-369.92 694.28,-372.34"/>
</g>
<!-- Node36 -->
<g id="node36" class="node">
<title>Node36</title>
<g id="a_node36"><a xlink:href="fr_8cu.html#aa49950ffe73587ecd4680b0259766db9" target="_top" xlink:title="Converts fr_t to uint64_t[4].">
<polygon fill="white" stroke="black" points="550,-76.5 550,-95.5 621,-95.5 621,-76.5 550,-76.5"/>
<text text-anchor="middle" x="585.5" y="-83.5" font-family="Helvetica,sans-Serif" font-size="10.00">fr_toUint64</text>
</a>
</g>
</g>
<!-- Node1&#45;&gt;Node36 -->
<g id="edge53" class="edge">
<title>Node1&#45;&gt;Node36</title>
<path fill="none" stroke="midnightblue" d="M695.25,-332.28C688.92,-279.92 669.39,-139.09 639,-105 634.23,-99.65 627.83,-95.8 621.14,-93.04"/>
<polygon fill="midnightblue" stroke="midnightblue" points="691.79,-332.78 696.43,-342.3 698.74,-331.96 691.79,-332.78"/>
</g>
<!-- Node37 -->
<g id="node37" class="node">
<title>Node37</title>
<g id="a_node37"><a xlink:href="fk20test__kat_8cu.html#af4e2901a3856a43df5d0d5b3ab1b9f22" target="_top" xlink:title=" ">
<polygon fill="white" stroke="black" points="548.5,-38.5 548.5,-57.5 622.5,-57.5 622.5,-38.5 548.5,-38.5"/>
<text text-anchor="middle" x="585.5" y="-45.5" font-family="Helvetica,sans-Serif" font-size="10.00">g1p_fft_test</text>
</a>
</g>
</g>
<!-- Node1&#45;&gt;Node37 -->
<g id="edge59" class="edge">
<title>Node1&#45;&gt;Node37</title>
<path fill="none" stroke="midnightblue" d="M695.94,-332.36C690.99,-274.68 673.85,-107.3 639,-67 634.63,-61.94 628.79,-58.23 622.61,-55.5"/>
<polygon fill="midnightblue" stroke="midnightblue" points="692.45,-332.69 696.77,-342.37 699.43,-332.11 692.45,-332.69"/>
</g>
<!-- Node4 -->
<g id="node4" class="node">
<title>Node4</title>
<g id="a_node4"><a xlink:href="fr_8cu.html#a7db8fbb07292bc3ceab5ec0433d90cae" target="_top" xlink:title="Checks equality of two arrays of fr_t, element wise, and store in a byte array.">
<polygon fill="white" stroke="black" points="266.5,-608.5 266.5,-627.5 352.5,-627.5 352.5,-608.5 266.5,-608.5"/>
<text text-anchor="middle" x="309.5" y="-615.5" font-family="Helvetica,sans-Serif" font-size="10.00">fr_eq_wrapper</text>
</a>
</g>
</g>
<!-- Node3&#45;&gt;Node4 -->
<g id="edge3" class="edge">
<title>Node3&#45;&gt;Node4</title>
<path fill="none" stroke="midnightblue" d="M422.85,-587.94C400.54,-593.91 369.87,-602.11 346.21,-608.44"/>
<polygon fill="midnightblue" stroke="midnightblue" points="424,-591.25 432.76,-585.28 422.19,-584.49 424,-591.25"/>
</g>
<!-- Node5 -->
<g id="node5" class="node">
<title>Node5</title>
<g id="a_node5"><a xlink:href="fr_8cuh.html#a4f11be4124fc653c718d01acc42cf7f2" target="_top" xlink:title="Compares two fr_t residues.">
<polygon fill="white" stroke="black" points="286,-494.5 286,-513.5 333,-513.5 333,-494.5 286,-494.5"/>
<text text-anchor="middle" x="309.5" y="-501.5" font-family="Helvetica,sans-Serif" font-size="10.00">fr_neq</text>
</a>
</g>
</g>
<!-- Node3&#45;&gt;Node5 -->
<g id="edge4" class="edge">
<title>Node3&#45;&gt;Node5</title>
<path fill="none" stroke="midnightblue" d="M425.49,-565.54C396.96,-550.28 352.8,-526.64 328.34,-513.55"/>
<polygon fill="midnightblue" stroke="midnightblue" points="424.05,-568.74 434.52,-570.37 427.35,-562.57 424.05,-568.74"/>
</g>
<!-- Node3&#45;&gt;Node8 -->
<g id="edge17" class="edge">
<title>Node3&#45;&gt;Node8</title>
<path fill="none" stroke="midnightblue" d="M422.36,-580C364.21,-580 236.97,-580 176.58,-580"/>
<polygon fill="midnightblue" stroke="midnightblue" points="422.7,-583.5 432.7,-580 422.7,-576.5 422.7,-583.5"/>
</g>
<!-- Node6 -->
<g id="node6" class="node">
<title>Node6</title>
<g id="a_node6"><a xlink:href="fk20test__kat_8cu.html#ab98d98e4fa8d6750289ea3c3f6a9583d" target="_top" xlink:title=" ">
<polygon fill="white" stroke="black" points="106,-456.5 106,-475.5 179,-475.5 179,-456.5 106,-456.5"/>
<text text-anchor="middle" x="142.5" y="-463.5" font-family="Helvetica,sans-Serif" font-size="10.00">fr_fft_verify</text>
</a>
</g>
</g>
<!-- Node5&#45;&gt;Node6 -->
<g id="edge5" class="edge">
<title>Node5&#45;&gt;Node6</title>
<path fill="none" stroke="midnightblue" d="M275.85,-496.48C247.94,-490.05 207.84,-480.82 179.11,-474.2"/>
<polygon fill="midnightblue" stroke="midnightblue" points="275.37,-499.96 285.9,-498.8 276.94,-493.14 275.37,-499.96"/>
</g>
<!-- Node7 -->
<g id="node7" class="node">
<title>Node7</title>
<g id="a_node7"><a xlink:href="fk20test__kat_8cu.html#a564fcab8be0931ebf106961c1c6b327f" target="_top" xlink:title=" ">
<polygon fill="white" stroke="black" points="106.5,-494.5 106.5,-513.5 178.5,-513.5 178.5,-494.5 106.5,-494.5"/>
<text text-anchor="middle" x="142.5" y="-501.5" font-family="Helvetica,sans-Serif" font-size="10.00">fr_ift_verify</text>
</a>
</g>
</g>
<!-- Node5&#45;&gt;Node7 -->
<g id="edge6" class="edge">
<title>Node5&#45;&gt;Node7</title>
<path fill="none" stroke="midnightblue" d="M275.82,-504C247.8,-504 207.54,-504 178.79,-504"/>
<polygon fill="midnightblue" stroke="midnightblue" points="275.9,-507.5 285.9,-504 275.9,-500.5 275.9,-507.5"/>
</g>
<!-- Node5&#45;&gt;Node8 -->
<g id="edge7" class="edge">
<title>Node5&#45;&gt;Node8</title>
<path fill="none" stroke="midnightblue" d="M285.41,-519.13C265.53,-531.65 235.74,-549.23 208,-561 198.11,-565.19 187,-568.83 176.82,-571.76"/>
<polygon fill="midnightblue" stroke="midnightblue" points="287.52,-521.93 294.06,-513.6 283.75,-516.03 287.52,-521.93"/>
</g>
<!-- Node5&#45;&gt;Node10 -->
<g id="edge9" class="edge">
<title>Node5&#45;&gt;Node10</title>
<path fill="none" stroke="midnightblue" d="M276.12,-511.46C250.01,-517.47 213.1,-525.97 184.85,-532.48"/>
<polygon fill="midnightblue" stroke="midnightblue" points="276.94,-514.86 285.9,-509.2 275.37,-508.04 276.94,-514.86"/>
</g>
<!-- Node5&#45;&gt;Node11 -->
<g id="edge11" class="edge">
<title>Node5&#45;&gt;Node11</title>
<path fill="none" stroke="midnightblue" d="M275.94,-497.96C265.26,-495.07 253.66,-490.91 244,-485 224.16,-472.85 227.84,-459.15 208,-447 201.73,-443.16 194.64,-440.06 187.51,-437.57"/>
<polygon fill="midnightblue" stroke="midnightblue" points="275.26,-501.4 285.81,-500.35 276.91,-494.59 275.26,-501.4"/>
</g>
<!-- Node5&#45;&gt;Node12 -->
<g id="edge13" class="edge">
<title>Node5&#45;&gt;Node12</title>
<path fill="none" stroke="midnightblue" d="M275.73,-500.68C264.43,-498.03 252.49,-493.32 244,-485 206.07,-447.8 245.93,-408.2 208,-371 202.5,-365.61 195.55,-361.73 188.26,-358.95"/>
<polygon fill="midnightblue" stroke="midnightblue" points="275.34,-504.17 285.82,-502.59 276.64,-497.29 275.34,-504.17"/>
</g>
<!-- Node5&#45;&gt;Node13 -->
<g id="edge15" class="edge">
<title>Node5&#45;&gt;Node13</title>
<path fill="none" stroke="midnightblue" d="M275.82,-499.91C264.72,-497.17 252.9,-492.61 244,-485 215.59,-460.71 236.41,-433.29 208,-409 202.23,-404.07 195.24,-400.42 188.01,-397.71"/>
<polygon fill="midnightblue" stroke="midnightblue" points="275.2,-503.35 285.7,-501.94 276.61,-496.5 275.2,-503.35"/>
</g>
<!-- Node9 -->
<g id="node9" class="node">
<title>Node9</title>
<g id="a_node9"><a xlink:href="frtest_8cu.html#a3c04138a5bfe5d72780bb7e82a18e627" target="_top" xlink:title="Self test of the functions over Fr.">
<polygon fill="white" stroke="black" points="0,-399.5 0,-418.5 41,-418.5 41,-399.5 0,-399.5"/>
<text text-anchor="middle" x="20.5" y="-406.5" font-family="Helvetica,sans-Serif" font-size="10.00">main</text>
</a>
</g>
</g>
<!-- Node8&#45;&gt;Node9 -->
<g id="edge8" class="edge">
<title>Node8&#45;&gt;Node9</title>
<path fill="none" stroke="midnightblue" d="M98.63,-573.47C90.72,-570.67 83.05,-566.68 77,-561 34.39,-521.02 24.38,-445.66 22.13,-418.81"/>
<polygon fill="midnightblue" stroke="midnightblue" points="97.74,-576.86 108.32,-576.33 99.72,-570.14 97.74,-576.86"/>
</g>
<!-- Node10&#45;&gt;Node9 -->
<g id="edge10" class="edge">
<title>Node10&#45;&gt;Node9</title>
<path fill="none" stroke="midnightblue" d="M83.36,-527.61C81.12,-526.22 78.99,-524.68 77,-523 43.22,-494.43 28.27,-440.44 23.41,-418.57"/>
<polygon fill="midnightblue" stroke="midnightblue" points="81.92,-530.81 92.4,-532.36 85.17,-524.61 81.92,-530.81"/>
</g>
<!-- Node11&#45;&gt;Node9 -->
<g id="edge12" class="edge">
<title>Node11&#45;&gt;Node9</title>
<path fill="none" stroke="midnightblue" d="M71.02,-416.84C60.09,-415.11 49.64,-413.46 41.18,-412.12"/>
<polygon fill="midnightblue" stroke="midnightblue" points="70.72,-420.34 81.15,-418.44 71.82,-413.42 70.72,-420.34"/>
</g>
<!-- Node12&#45;&gt;Node9 -->
<g id="edge14" class="edge">
<title>Node12&#45;&gt;Node9</title>
<path fill="none" stroke="midnightblue" d="M92.38,-364.7C87.1,-366.58 81.88,-368.68 77,-371 60.76,-378.72 43.97,-390.9 33.17,-399.38"/>
<polygon fill="midnightblue" stroke="midnightblue" points="93.5,-368.01 101.88,-361.54 91.29,-361.37 93.5,-368.01"/>
</g>
<!-- Node13&#45;&gt;Node9 -->
<g id="edge16" class="edge">
<title>Node13&#45;&gt;Node9</title>
<path fill="none" stroke="midnightblue" d="M86.77,-398.67C70.45,-401.25 53.6,-403.92 41.11,-405.89"/>
<polygon fill="midnightblue" stroke="midnightblue" points="87.49,-402.1 96.82,-397.07 86.39,-395.18 87.49,-402.1"/>
</g>
<!-- Node15 -->
<g id="node15" class="node">
<title>Node15</title>
<g id="a_node15"><a xlink:href="fr_8cuh.html#abf810ba4f2672a8d319e6cdbfc8ba68e" target="_top" xlink:title="wrapper for fr_fft: FFT for fr_t[512]">
<polygon fill="white" stroke="black" points="411,-209.5 411,-228.5 496,-228.5 496,-209.5 411,-209.5"/>
<text text-anchor="middle" x="453.5" y="-216.5" font-family="Helvetica,sans-Serif" font-size="10.00">fr_fft_wrapper</text>
</a>
</g>
</g>
<!-- Node14&#45;&gt;Node15 -->
<g id="edge19" class="edge">
<title>Node14&#45;&gt;Node15</title>
<path fill="none" stroke="midnightblue" d="M555.17,-233.71C537.73,-231.16 515.32,-227.89 496.08,-225.08"/>
<polygon fill="midnightblue" stroke="midnightblue" points="554.92,-237.21 565.32,-235.2 555.93,-230.29 554.92,-237.21"/>
</g>
<!-- Node16 -->
<g id="node16" class="node">
<title>Node16</title>
<g id="a_node16"><a xlink:href="fk20_8cuh.html#a428f2dcc8b77723e4def6f684f790ceb" target="_top" xlink:title="polynomial + xext_fft &#45;&gt; h_fft This function is a wrapper for the full FK20 computation,...">
<polygon fill="white" stroke="black" points="263.5,-228.5 263.5,-247.5 355.5,-247.5 355.5,-228.5 263.5,-228.5"/>
<text text-anchor="middle" x="309.5" y="-235.5" font-family="Helvetica,sans-Serif" font-size="10.00">fk20_poly2h_fft</text>
</a>
</g>
</g>
<!-- Node15&#45;&gt;Node16 -->
<g id="edge20" class="edge">
<title>Node15&#45;&gt;Node16</title>
<path fill="none" stroke="midnightblue" d="M400.65,-225.94C385.85,-227.92 369.85,-230.06 355.5,-231.98"/>
<polygon fill="midnightblue" stroke="midnightblue" points="401.22,-229.39 410.66,-224.6 400.29,-222.46 401.22,-229.39"/>
</g>
<!-- Node19 -->
<g id="node19" class="node">
<title>Node19</title>
<g id="a_node19"><a xlink:href="frtest_8cuh.html#a4ded3b3b54bb394b4168cb5f92ec72b4" target="_top" xlink:title="Tests fft and inverse fft over Fr using KAT.">
<polygon fill="white" stroke="black" points="278.5,-266.5 278.5,-285.5 340.5,-285.5 340.5,-266.5 278.5,-266.5"/>
<text text-anchor="middle" x="309.5" y="-273.5" font-family="Helvetica,sans-Serif" font-size="10.00">FrTestFFT</text>
</a>
</g>
</g>
<!-- Node15&#45;&gt;Node19 -->
<g id="edge23" class="edge">
<title>Node15&#45;&gt;Node19</title>
<path fill="none" stroke="midnightblue" d="M425.99,-233.39C411.25,-241.03 392.41,-250.22 375,-257 364.01,-261.28 351.66,-265.14 340.72,-268.24"/>
<polygon fill="midnightblue" stroke="midnightblue" points="427.81,-236.38 435.03,-228.63 424.55,-230.19 427.81,-236.38"/>
</g>
<!-- Node20 -->
<g id="node20" class="node">
<title>Node20</title>
<g id="a_node20"><a xlink:href="fk20test_8cuh.html#a219d5d803685ea0067dfa4908a620e11" target="_top" xlink:title=" ">
<polygon fill="white" stroke="black" points="283.5,-114.5 283.5,-133.5 335.5,-133.5 335.5,-114.5 283.5,-114.5"/>
<text text-anchor="middle" x="309.5" y="-121.5" font-family="Helvetica,sans-Serif" font-size="10.00">fullTest</text>
</a>
</g>
</g>
<!-- Node15&#45;&gt;Node20 -->
<g id="edge25" class="edge">
<title>Node15&#45;&gt;Node20</title>
<path fill="none" stroke="midnightblue" d="M423.09,-204.2C418.81,-201.44 414.63,-198.35 411,-195 390.33,-175.95 397.78,-159.47 375,-143 363.46,-134.66 348.27,-129.95 335.53,-127.31"/>
<polygon fill="midnightblue" stroke="midnightblue" points="421.48,-207.32 431.87,-209.41 425.05,-201.3 421.48,-207.32"/>
</g>
<!-- Node23 -->
<g id="node23" class="node">
<title>Node23</title>
<g id="a_node23"><a xlink:href="fk20__512test_8cu.html#a4de6443d77d1c56d1d49715061ba60db" target="_top" xlink:title="Executes many FK20 computations on a single row, with a check on each step. A computation failure wil...">
<polygon fill="white" stroke="black" points="105,-190.5 105,-209.5 180,-209.5 180,-190.5 105,-190.5"/>
<text text-anchor="middle" x="142.5" y="-197.5" font-family="Helvetica,sans-Serif" font-size="10.00">fullTest_512</text>
</a>
</g>
</g>
<!-- Node15&#45;&gt;Node23 -->
<g id="edge28" class="edge">
<title>Node15&#45;&gt;Node23</title>
<path fill="none" stroke="midnightblue" d="M400.8,-215.82C338.38,-211.98 234.97,-205.62 180.19,-202.26"/>
<polygon fill="midnightblue" stroke="midnightblue" points="400.63,-219.32 410.83,-216.44 401.06,-212.33 400.63,-219.32"/>
</g>
<!-- Node24 -->
<g id="node24" class="node">
<title>Node24</title>
<g id="a_node24"><a xlink:href="fk20__512test_8cu.html#a537be6501bbccff0654c4ca1b2fd83ae" target="_top" xlink:title="Similar to fullTest, but polynomial is has changes done to it. The function checks for false&#45;positive...">
<polygon fill="white" stroke="black" points="244,-152.5 244,-171.5 375,-171.5 375,-152.5 244,-152.5"/>
<text text-anchor="middle" x="309.5" y="-159.5" font-family="Helvetica,sans-Serif" font-size="10.00">fullTestFalseability_512</text>
</a>
</g>
</g>
<!-- Node15&#45;&gt;Node24 -->
<g id="edge30" class="edge">
<title>Node15&#45;&gt;Node24</title>
<path fill="none" stroke="midnightblue" d="M421.62,-205.46C407.47,-199.36 390.45,-192.16 375,-186 362.57,-181.04 348.67,-175.83 336.97,-171.53"/>
<polygon fill="midnightblue" stroke="midnightblue" points="420.33,-208.72 430.9,-209.48 423.11,-202.3 420.33,-208.72"/>
</g>
<!-- Node25 -->
<g id="node25" class="node">
<title>Node25</title>
<g id="a_node25"><a xlink:href="fk20test_8cuh.html#a8d2cfb1e9fc0723c345460c7ad438df1" target="_top" xlink:title=" ">
<polygon fill="white" stroke="black" points="254.5,-76.5 254.5,-95.5 364.5,-95.5 364.5,-76.5 254.5,-76.5"/>
<text text-anchor="middle" x="309.5" y="-83.5" font-family="Helvetica,sans-Serif" font-size="10.00">fullTestFalsifiability</text>
</a>
</g>
</g>
<!-- Node15&#45;&gt;Node25 -->
<g id="edge32" class="edge">
<title>Node15&#45;&gt;Node25</title>
<path fill="none" stroke="midnightblue" d="M421.33,-204.15C417.53,-201.47 413.96,-198.42 411,-195 382.8,-162.43 406.86,-134 375,-105 370.77,-101.15 365.8,-98.08 360.52,-95.63"/>
<polygon fill="midnightblue" stroke="midnightblue" points="419.49,-207.13 429.83,-209.44 423.18,-201.18 419.49,-207.13"/>
</g>
<!-- Node15&#45;&gt;Node26 -->
<g id="edge34" class="edge">
<title>Node15&#45;&gt;Node26</title>
<path fill="none" stroke="midnightblue" d="M419.74,-203.8C416.43,-201.23 413.41,-198.31 411,-195 366.52,-134 426.4,-84.29 375,-29 366.81,-20.19 354.77,-15.4 343.31,-12.81"/>
<polygon fill="midnightblue" stroke="midnightblue" points="418.07,-206.89 428.35,-209.45 421.91,-201.04 418.07,-206.89"/>
</g>
<!-- Node28 -->
<g id="node28" class="node">
<title>Node28</title>
<g id="a_node28"><a xlink:href="fk20benchmark_8cu.html#a8cd0ecc09d4a9a4c418184789229b4f6" target="_top" xlink:title="Executes a test of FK20 with one block for each row. At the end, compare if the calculated h_fft is t...">
<polygon fill="white" stroke="black" points="268.5,-38.5 268.5,-57.5 350.5,-57.5 350.5,-38.5 268.5,-38.5"/>
<text text-anchor="middle" x="309.5" y="-45.5" font-family="Helvetica,sans-Serif" font-size="10.00">preBenchTest</text>
</a>
</g>
</g>
<!-- Node15&#45;&gt;Node28 -->
<g id="edge36" class="edge">
<title>Node15&#45;&gt;Node28</title>
<path fill="none" stroke="midnightblue" d="M419.93,-203.65C416.59,-201.11 413.51,-198.24 411,-195 374.75,-148.33 416.53,-109.04 375,-67 368.44,-60.36 359.68,-56.01 350.73,-53.17"/>
<polygon fill="midnightblue" stroke="midnightblue" points="418.29,-206.76 428.58,-209.28 422.1,-200.89 418.29,-206.76"/>
</g>
<!-- Node17 -->
<g id="node17" class="node">
<title>Node17</title>
<g id="a_node17"><a xlink:href="fk20__512test_8cu.html#a30719348d219c529d6b43175cecd8427" target="_top" xlink:title="Test for fk20_poly2h_fft: polynomial &#45;&gt; h_fft.">
<polygon fill="white" stroke="black" points="84.5,-228.5 84.5,-247.5 200.5,-247.5 200.5,-228.5 84.5,-228.5"/>
<text text-anchor="middle" x="142.5" y="-235.5" font-family="Helvetica,sans-Serif" font-size="10.00">fk20_poly2h_fft_512</text>
</a>
</g>
</g>
<!-- Node16&#45;&gt;Node17 -->
<g id="edge21" class="edge">
<title>Node16&#45;&gt;Node17</title>
<path fill="none" stroke="midnightblue" d="M253.15,-238C236.25,-238 217.65,-238 200.64,-238"/>
<polygon fill="midnightblue" stroke="midnightblue" points="253.41,-241.5 263.41,-238 253.41,-234.5 253.41,-241.5"/>
</g>
<!-- Node18 -->
<g id="node18" class="node">
<title>Node18</title>
<g id="a_node18"><a xlink:href="fk20__512test_8cu.html#a3c04138a5bfe5d72780bb7e82a18e627" target="_top" xlink:title="Executes a many&#45;row tests on FK20. Behavior is similar to fk20test.cu but using many GPU blocks,...">
<polygon fill="white" stroke="black" points="0,-190.5 0,-209.5 41,-209.5 41,-190.5 0,-190.5"/>
<text text-anchor="middle" x="20.5" y="-197.5" font-family="Helvetica,sans-Serif" font-size="10.00">main</text>
</a>
</g>
</g>
<!-- Node17&#45;&gt;Node18 -->
<g id="edge22" class="edge">
<title>Node17&#45;&gt;Node18</title>
<path fill="none" stroke="midnightblue" d="M97.87,-225.43C90.87,-223.33 83.73,-221.14 77,-219 65.06,-215.2 51.78,-210.67 41.21,-206.98"/>
<polygon fill="midnightblue" stroke="midnightblue" points="97.36,-228.93 107.94,-228.41 99.35,-222.21 97.36,-228.93"/>
</g>
<!-- Node19&#45;&gt;Node9 -->
<g id="edge24" class="edge">
<title>Node19&#45;&gt;Node9</title>
<path fill="none" stroke="midnightblue" d="M268.29,-277.64C219.28,-281.4 135.77,-293.59 77,-333 51.49,-350.11 33.52,-383.08 25.77,-399.38"/>
<polygon fill="midnightblue" stroke="midnightblue" points="268.75,-281.12 278.49,-276.95 268.28,-274.14 268.75,-281.12"/>
</g>
<!-- Node21 -->
<g id="node21" class="node">
<title>Node21</title>
<g id="a_node21"><a xlink:href="fk20test_8cuh.html#a3f978e98c96e45785d60ed0d96689521" target="_top" xlink:title=" ">
<polygon fill="white" stroke="black" points="101.5,-95.5 101.5,-114.5 183.5,-114.5 183.5,-95.5 101.5,-95.5"/>
<text text-anchor="middle" x="142.5" y="-102.5" font-family="Helvetica,sans-Serif" font-size="10.00">FK20TestPoly</text>
</a>
</g>
</g>
<!-- Node20&#45;&gt;Node21 -->
<g id="edge26" class="edge">
<title>Node20&#45;&gt;Node21</title>
<path fill="none" stroke="midnightblue" d="M273.17,-119.93C246.88,-116.9 210.96,-112.77 183.59,-109.62"/>
<polygon fill="midnightblue" stroke="midnightblue" points="273.11,-123.45 283.44,-121.11 273.91,-116.49 273.11,-123.45"/>
</g>
<!-- Node22 -->
<g id="node22" class="node">
<title>Node22</title>
<g id="a_node22"><a xlink:href="fk20test_8cu.html#ae66f6b31b5ad750f1fe042a706a4e3d4" target="_top" xlink:title=" ">
<polygon fill="white" stroke="black" points="0,-95.5 0,-114.5 41,-114.5 41,-95.5 0,-95.5"/>
<text text-anchor="middle" x="20.5" y="-102.5" font-family="Helvetica,sans-Serif" font-size="10.00">main</text>
</a>
</g>
</g>
<!-- Node21&#45;&gt;Node22 -->
<g id="edge27" class="edge">
<title>Node21&#45;&gt;Node22</title>
<path fill="none" stroke="midnightblue" d="M91,-105C73.35,-105 54.58,-105 41,-105"/>
<polygon fill="midnightblue" stroke="midnightblue" points="91.21,-108.5 101.21,-105 91.21,-101.5 91.21,-108.5"/>
</g>
<!-- Node23&#45;&gt;Node18 -->
<g id="edge29" class="edge">
<title>Node23&#45;&gt;Node18</title>
<path fill="none" stroke="midnightblue" d="M94.74,-200C76.14,-200 55.75,-200 41.21,-200"/>
<polygon fill="midnightblue" stroke="midnightblue" points="94.84,-203.5 104.84,-200 94.84,-196.5 94.84,-203.5"/>
</g>
<!-- Node24&#45;&gt;Node18 -->
<g id="edge31" class="edge">
<title>Node24&#45;&gt;Node18</title>
<path fill="none" stroke="midnightblue" d="M233.41,-163.46C187.78,-165.51 128.56,-170.23 77,-181 64.84,-183.54 51.66,-187.97 41.2,-191.92"/>
<polygon fill="midnightblue" stroke="midnightblue" points="233.67,-166.95 243.52,-163.04 233.38,-159.96 233.67,-166.95"/>
</g>
<!-- Node25&#45;&gt;Node21 -->
<g id="edge33" class="edge">
<title>Node25&#45;&gt;Node21</title>
<path fill="none" stroke="midnightblue" d="M244.26,-93.4C223.79,-95.75 201.75,-98.29 183.51,-100.39"/>
<polygon fill="midnightblue" stroke="midnightblue" points="244.94,-96.84 254.47,-92.22 244.14,-89.89 244.94,-96.84"/>
</g>
<!-- Node27 -->
<g id="node27" class="node">
<title>Node27</title>
<g id="a_node27"><a xlink:href="g1test_8cu.html#a3c04138a5bfe5d72780bb7e82a18e627" target="_top" xlink:title="Test for points in G1.">
<polygon fill="white" stroke="black" points="122,-0.5 122,-19.5 163,-19.5 163,-0.5 122,-0.5"/>
<text text-anchor="middle" x="142.5" y="-7.5" font-family="Helvetica,sans-Serif" font-size="10.00">main</text>
</a>
</g>
</g>
<!-- Node26&#45;&gt;Node27 -->
<g id="edge35" class="edge">
<title>Node26&#45;&gt;Node27</title>
<path fill="none" stroke="midnightblue" d="M265.58,-10C232.48,-10 188.22,-10 163.1,-10"/>
<polygon fill="midnightblue" stroke="midnightblue" points="265.9,-13.5 275.9,-10 265.9,-6.5 265.9,-13.5"/>
</g>
<!-- Node30 -->
<g id="node30" class="node">
<title>Node30</title>
<g id="a_node30"><a xlink:href="fr_8cuh.html#ac7091cde352483e51fa09119e9176b35" target="_top" xlink:title="wrapper for fr_ift: inverse FFT for fr_t[512]">
<polygon fill="white" stroke="black" points="411.5,-266.5 411.5,-285.5 495.5,-285.5 495.5,-266.5 411.5,-266.5"/>
<text text-anchor="middle" x="453.5" y="-273.5" font-family="Helvetica,sans-Serif" font-size="10.00">fr_ift_wrapper</text>
</a>
</g>
</g>
<!-- Node29&#45;&gt;Node30 -->
<g id="edge38" class="edge">
<title>Node29&#45;&gt;Node30</title>
<path fill="none" stroke="midnightblue" d="M555.64,-276C537.99,-276 515.13,-276 495.62,-276"/>
<polygon fill="midnightblue" stroke="midnightblue" points="555.87,-279.5 565.87,-276 555.87,-272.5 555.87,-279.5"/>
</g>
<!-- Node30&#45;&gt;Node19 -->
<g id="edge39" class="edge">
<title>Node30&#45;&gt;Node19</title>
<path fill="none" stroke="midnightblue" d="M401.35,-276C381,-276 358.28,-276 340.65,-276"/>
<polygon fill="midnightblue" stroke="midnightblue" points="401.43,-279.5 411.43,-276 401.43,-272.5 401.43,-279.5"/>
</g>
<!-- Node32&#45;&gt;Node12 -->
<g id="edge42" class="edge">
<title>Node32&#45;&gt;Node12</title>
<path fill="none" stroke="midnightblue" d="M415.51,-317.99C373.8,-322.55 303.98,-330.37 244,-338 225.83,-340.31 205.83,-343.06 188.5,-345.5"/>
<polygon fill="midnightblue" stroke="midnightblue" points="415.92,-321.46 425.49,-316.9 415.16,-314.51 415.92,-321.46"/>
</g>
<!-- Node33&#45;&gt;Node3 -->
<g id="edge44" class="edge">
<title>Node33&#45;&gt;Node3</title>
<path fill="none" stroke="midnightblue" d="M545.9,-580C522.28,-580 493.05,-580 474.11,-580"/>
<polygon fill="midnightblue" stroke="midnightblue" points="545.97,-583.5 555.97,-580 545.97,-576.5 545.97,-583.5"/>
</g>
<!-- Node35&#45;&gt;Node6 -->
<g id="edge47" class="edge">
<title>Node35&#45;&gt;Node6</title>
<path fill="none" stroke="midnightblue" d="M273.38,-466C245.65,-466 207.11,-466 179.22,-466"/>
<polygon fill="midnightblue" stroke="midnightblue" points="273.44,-469.5 283.44,-466 273.44,-462.5 273.44,-469.5"/>
</g>
<!-- Node35&#45;&gt;Node7 -->
<g id="edge48" class="edge">
<title>Node35&#45;&gt;Node7</title>
<path fill="none" stroke="midnightblue" d="M273.68,-474.02C245.73,-480.46 206.64,-489.46 178.61,-495.91"/>
<polygon fill="midnightblue" stroke="midnightblue" points="274.48,-477.43 283.44,-471.77 272.91,-470.61 274.48,-477.43"/>
</g>
<!-- Node35&#45;&gt;Node10 -->
<g id="edge49" class="edge">
<title>Node35&#45;&gt;Node10</title>
<path fill="none" stroke="midnightblue" d="M273.61,-472.69C263.59,-475.54 252.96,-479.51 244,-485 224.16,-497.15 227.84,-510.85 208,-523 201.73,-526.84 194.64,-529.94 187.51,-532.43"/>
<polygon fill="midnightblue" stroke="midnightblue" points="274.52,-476.06 283.35,-470.2 272.79,-469.28 274.52,-476.06"/>
</g>
<!-- Node35&#45;&gt;Node11 -->
<g id="edge50" class="edge">
<title>Node35&#45;&gt;Node11</title>
<path fill="none" stroke="midnightblue" d="M273.66,-457.98C247.73,-452 212.24,-443.83 184.87,-437.53"/>
<polygon fill="midnightblue" stroke="midnightblue" points="272.91,-461.39 283.44,-460.23 274.48,-454.57 272.91,-461.39"/>
</g>
<!-- Node35&#45;&gt;Node12 -->
<g id="edge51" class="edge">
<title>Node35&#45;&gt;Node12</title>
<path fill="none" stroke="midnightblue" d="M294.51,-448.45C276.62,-427.14 243.67,-391.51 208,-371 201.32,-367.16 193.8,-364.04 186.31,-361.52"/>
<polygon fill="midnightblue" stroke="midnightblue" points="291.96,-450.86 301.01,-456.36 297.37,-446.42 291.96,-450.86"/>
</g>
<!-- Node35&#45;&gt;Node13 -->
<g id="edge52" class="edge">
<title>Node35&#45;&gt;Node13</title>
<path fill="none" stroke="midnightblue" d="M285.41,-450.87C265.53,-438.35 235.74,-420.77 208,-409 199.51,-405.4 190.12,-402.21 181.19,-399.52"/>
<polygon fill="midnightblue" stroke="midnightblue" points="283.75,-453.97 294.06,-456.4 287.52,-448.07 283.75,-453.97"/>
</g>
</g>
</svg>
        <g id="navigator" transform="translate(0 0)" fill="#404254">
                <rect fill="#f2f5e9" fill-opacity="0.5" stroke="#606060" stroke-width=".5" x="0" y="0" width="60" height="60"/>
                <use id="zoomplus" xlink:href="#zoomPlus" x="17" y="9" onmousedown="handleZoom(evt,'in')"/>
                <use id="zoomminus" xlink:href="#zoomMin" x="42" y="9" onmousedown="handleZoom(evt,'out')"/>
                <use id="reset" xlink:href="#resetDef" x="30" y="36" onmousedown="handleReset()"/>
                <g id="arrowUp" xlink:href="#dirArrow" transform="translate(30 24)" onmousedown="handlePan(0,-1)">
                  <use xlink:href="#rim" fill="#404040">
                        <set attributeName="fill" to="#808080" begin="arrowUp.mouseover" end="arrowUp.mouseout"/>
                  </use>
                  <path fill="none" stroke="white" stroke-width="1.5" d="M0,-3.0v7 M-2.5,-0.5L0,-3.0L2.5,-0.5"/>
                </g>
                <g id="arrowRight" xlink:href="#dirArrow" transform="rotate(90) translate(36 -43)" onmousedown="handlePan(1,0)">
                  <use xlink:href="#rim" fill="#404040">
                        <set attributeName="fill" to="#808080" begin="arrowRight.mouseover" end="arrowRight.mouseout"/>
                  </use>
                  <path fill="none" stroke="white" stroke-width="1.5" d="M0,-3.0v7 M-2.5,-0.5L0,-3.0L2.5,-0.5"/>
                </g>
                <g id="arrowDown" xlink:href="#dirArrow" transform="rotate(180) translate(-30 -48)" onmousedown="handlePan(0,1)">
                  <use xlink:href="#rim" fill="#404040">
                        <set attributeName="fill" to="#808080" begin="arrowDown.mouseover" end="arrowDown.mouseout"/>
                  </use>
                  <path fill="none" stroke="white" stroke-width="1.5" d="M0,-3.0v7 M-2.5,-0.5L0,-3.0L2.5,-0.5"/>
                </g>
                <g id="arrowLeft" xlink:href="#dirArrow" transform="rotate(270) translate(-36 17)" onmousedown="handlePan(-1,0)">
                  <use xlink:href="#rim" fill="#404040">
                        <set attributeName="fill" to="#808080" begin="arrowLeft.mouseover" end="arrowLeft.mouseout"/>
                  </use>
                  <path fill="none" stroke="white" stroke-width="1.5" d="M0,-3.0v7 M-2.5,-0.5L0,-3.0L2.5,-0.5"/>
                </g>
        </g>
        <svg viewBox="0 0 15 15" width="100%" height="30px" preserveAspectRatio="xMaxYMin meet">
         <g id="arrow_out" transform="scale(0.3 0.3)">
          <a xlink:href="fr_8cuh_a8abf9d8ad4b633144fcc0c6956d14056_icgraph_org.svg" target="_base">
           <rect id="button" ry="5" rx="5" y="6" x="6" height="38" width="38"
                fill="#f2f5e9" fill-opacity="0.5" stroke="#606060" stroke-width="1.0"/>
           <path id="arrow"
             d="M 11.500037,31.436501 C 11.940474,20.09759 22.043105,11.32322 32.158766,21.979434 L 37.068811,17.246167 C 37.068811,17.246167 37.088388,32 37.088388,32 L 22.160133,31.978069 C 22.160133,31.978069 26.997745,27.140456 26.997745,27.140456 C 18.528582,18.264221 13.291696,25.230495 11.500037,31.436501 z"
             style="fill:#404040;"/>
          </a>
         </g>
        </svg>
</svg>
