<?xml version="1.0" encoding="UTF-8" standalone="no"?>
<!DOCTYPE svg PUBLIC "-//W3C//DTD SVG 1.1//EN"
 "http://www.w3.org/Graphics/SVG/1.1/DTD/svg11.dtd">
<!-- Generated by graphviz version 2.43.0 (0)
 -->
<!-- Title: fr_ift Pages: 1 -->
<svg width="148pt" height="104pt"
 viewBox="0.00 0.00 148.00 104.00" xmlns="http://www.w3.org/2000/svg" xmlns:xlink="http://www.w3.org/1999/xlink">
<g id="graph0" class="graph" transform="scale(1 1) rotate(0) translate(4 100)">
<title>fr_ift</title>
<polygon fill="white" stroke="transparent" points="-4,4 -4,-100 144,-100 144,4 -4,4"/>
<!-- Node1 -->
<g id="node1" class="node">
<title>Node1</title>
<g id="a_node1"><a xlink:title="Inverse FFT for fr_t[512].">
<polygon fill="#bfbfbf" stroke="black" points="0,-38.5 0,-57.5 39,-57.5 39,-38.5 0,-38.5"/>
<text text-anchor="middle" x="19.5" y="-45.5" font-family="Helvetica,sans-Serif" font-size="10.00">fr_ift</text>
</a>
</g>
</g>
<!-- Node2 -->
<g id="node2" class="node">
<title>Node2</title>
<g id="a_node2"><a xlink:href="fr_8cuh.html#a7f0553970ddea3d8c8823910fdea2d5c" target="_top" xlink:title="Computes the sum and the difference of the arguments, storing back into the arguments: (x,...">
<polygon fill="white" stroke="black" points="75,-76.5 75,-95.5 140,-95.5 140,-76.5 75,-76.5"/>
<text text-anchor="middle" x="107.5" y="-83.5" font-family="Helvetica,sans-Serif" font-size="10.00">fr_addsub</text>
</a>
</g>
</g>
<!-- Node1&#45;&gt;Node2 -->
<g id="edge1" class="edge">
<title>Node1&#45;&gt;Node2</title>
<path fill="none" stroke="midnightblue" d="M39.16,-56.25C49.76,-60.93 63.31,-66.92 75.47,-72.29"/>
<polygon fill="midnightblue" stroke="midnightblue" points="74.28,-75.59 84.84,-76.43 77.11,-69.19 74.28,-75.59"/>
</g>
<!-- Node3 -->
<g id="node3" class="node">
<title>Node3</title>
<g id="a_node3"><a xlink:href="fr_8cuh.html#a8abf9d8ad4b633144fcc0c6956d14056" target="_top" xlink:title="Copy from x into z.">
<polygon fill="white" stroke="black" points="84,-38.5 84,-57.5 131,-57.5 131,-38.5 84,-38.5"/>
<text text-anchor="middle" x="107.5" y="-45.5" font-family="Helvetica,sans-Serif" font-size="10.00">fr_cpy</text>
</a>
</g>
</g>
<!-- Node1&#45;&gt;Node3 -->
<g id="edge2" class="edge">
<title>Node1&#45;&gt;Node3</title>
<path fill="none" stroke="midnightblue" d="M39.16,-48C49.22,-48 61.93,-48 73.59,-48"/>
<polygon fill="midnightblue" stroke="midnightblue" points="73.9,-51.5 83.9,-48 73.9,-44.5 73.9,-51.5"/>
</g>
<!-- Node4 -->
<g id="node4" class="node">
<title>Node4</title>
<g id="a_node4"><a xlink:href="fr_8cuh.html#abaa90fa0475f5ddc32a4aee93de4e33b" target="_top" xlink:title="Multiply two residues module r z and x, stores back into z.">
<polygon fill="white" stroke="black" points="83.5,-0.5 83.5,-19.5 131.5,-19.5 131.5,-0.5 83.5,-0.5"/>
<text text-anchor="middle" x="107.5" y="-7.5" font-family="Helvetica,sans-Serif" font-size="10.00">fr_mul</text>
</a>
</g>
</g>
<!-- Node1&#45;&gt;Node4 -->
<g id="edge3" class="edge">
<title>Node1&#45;&gt;Node4</title>
<path fill="none" stroke="midnightblue" d="M39.16,-39.75C49.76,-35.07 63.31,-29.08 75.47,-23.71"/>
<polygon fill="midnightblue" stroke="midnightblue" points="77.11,-26.81 84.84,-19.57 74.28,-20.41 77.11,-26.81"/>
</g>
</g>
</svg>
