<?xml version="1.0" encoding="UTF-8" standalone="no"?>
<!DOCTYPE svg PUBLIC "-//W3C//DTD SVG 1.1//EN"
 "http://www.w3.org/Graphics/SVG/1.1/DTD/svg11.dtd">
<!-- Generated by graphviz version 2.43.0 (0)
 -->
<!-- Title: fr_print Pages: 1 -->
<svg width="304pt" height="218pt"
 viewBox="0.00 0.00 304.00 218.00" xmlns="http://www.w3.org/2000/svg" xmlns:xlink="http://www.w3.org/1999/xlink">
<g id="graph0" class="graph" transform="scale(1 1) rotate(0) translate(4 214)">
<title>fr_print</title>
<polygon fill="white" stroke="transparent" points="-4,4 -4,-214 300,-214 300,4 -4,4"/>
<!-- Node1 -->
<g id="node1" class="node">
<title>Node1</title>
<g id="a_node1"><a xlink:title="prints the canonical representation of x to STDOUT.">
<polygon fill="#bfbfbf" stroke="black" points="244,-95.5 244,-114.5 296,-114.5 296,-95.5 244,-95.5"/>
<text text-anchor="middle" x="270" y="-102.5" font-family="Helvetica,sans-Serif" font-size="10.00">fr_print</text>
</a>
</g>
</g>
<!-- Node2 -->
<g id="node2" class="node">
<title>Node2</title>
<g id="a_node2"><a xlink:href="fk20test__kat_8cu.html#ab98d98e4fa8d6750289ea3c3f6a9583d" target="_top" xlink:title=" ">
<polygon fill="white" stroke="black" points="106,-190.5 106,-209.5 179,-209.5 179,-190.5 106,-190.5"/>
<text text-anchor="middle" x="142.5" y="-197.5" font-family="Helvetica,sans-Serif" font-size="10.00">fr_fft_verify</text>
</a>
</g>
</g>
<!-- Node1&#45;&gt;Node2 -->
<g id="edge1" class="edge">
<title>Node1&#45;&gt;Node2</title>
<path fill="none" stroke="midnightblue" d="M258.74,-123.41C248.19,-140.73 230.17,-166.14 208,-181 199.37,-186.78 188.94,-190.84 179.02,-193.68"/>
<polygon fill="midnightblue" stroke="midnightblue" points="261.79,-125.15 263.82,-114.75 255.75,-121.61 261.79,-125.15"/>
</g>
<!-- Node3 -->
<g id="node3" class="node">
<title>Node3</title>
<g id="a_node3"><a xlink:href="fk20test__kat_8cu.html#a564fcab8be0931ebf106961c1c6b327f" target="_top" xlink:title=" ">
<polygon fill="white" stroke="black" points="106.5,-152.5 106.5,-171.5 178.5,-171.5 178.5,-152.5 106.5,-152.5"/>
<text text-anchor="middle" x="142.5" y="-159.5" font-family="Helvetica,sans-Serif" font-size="10.00">fr_ift_verify</text>
</a>
</g>
</g>
<!-- Node1&#45;&gt;Node3 -->
<g id="edge2" class="edge">
<title>Node1&#45;&gt;Node3</title>
<path fill="none" stroke="midnightblue" d="M247.64,-120.3C236.28,-127.92 221.83,-136.79 208,-143 198.73,-147.16 188.32,-150.68 178.6,-153.53"/>
<polygon fill="midnightblue" stroke="midnightblue" points="249.76,-123.09 256.01,-114.54 245.79,-117.33 249.76,-123.09"/>
</g>
<!-- Node4 -->
<g id="node4" class="node">
<title>Node4</title>
<g id="a_node4"><a xlink:href="frtest__add_8cu.html#a6372e698dff3983b1e875cf08c097d97" target="_top" xlink:title="Test the cumulative property of addition.">
<polygon fill="white" stroke="black" points="77,-114.5 77,-133.5 208,-133.5 208,-114.5 77,-114.5"/>
<text text-anchor="middle" x="142.5" y="-121.5" font-family="Helvetica,sans-Serif" font-size="10.00">FrTestCommutativeAdd</text>
</a>
</g>
</g>
<!-- Node1&#45;&gt;Node4 -->
<g id="edge3" class="edge">
<title>Node1&#45;&gt;Node4</title>
<path fill="none" stroke="midnightblue" d="M233.93,-110.31C225.36,-111.61 215.93,-113.03 206.49,-114.46"/>
<polygon fill="midnightblue" stroke="midnightblue" points="234.54,-113.76 243.9,-108.8 233.49,-106.84 234.54,-113.76"/>
</g>
<!-- Node6 -->
<g id="node6" class="node">
<title>Node6</title>
<g id="a_node6"><a xlink:href="frtest__mul_8cu.html#aba1ae7a1fb9958d713a549e881a8dcb2" target="_top" xlink:title="Test of the commutative property of multiplication x*y == y*x.">
<polygon fill="white" stroke="black" points="77.5,-76.5 77.5,-95.5 207.5,-95.5 207.5,-76.5 77.5,-76.5"/>
<text text-anchor="middle" x="142.5" y="-83.5" font-family="Helvetica,sans-Serif" font-size="10.00">FrTestCommutativeMul</text>
</a>
</g>
</g>
<!-- Node1&#45;&gt;Node6 -->
<g id="edge5" class="edge">
<title>Node1&#45;&gt;Node6</title>
<path fill="none" stroke="midnightblue" d="M233.93,-99.69C225.36,-98.39 215.93,-96.97 206.49,-95.54"/>
<polygon fill="midnightblue" stroke="midnightblue" points="233.49,-103.16 243.9,-101.2 234.54,-96.24 233.49,-103.16"/>
</g>
<!-- Node7 -->
<g id="node7" class="node">
<title>Node7</title>
<g id="a_node7"><a xlink:href="frtest__fibonacci_8cu.html#ad97d52b82c26e99df17a0809f8c14ffb" target="_top" xlink:title="Test addition and subtraction in Fr using a fibonacci sequence (chain dependency) from 1 to ITERATION...">
<polygon fill="white" stroke="black" points="97,-38.5 97,-57.5 188,-57.5 188,-38.5 97,-38.5"/>
<text text-anchor="middle" x="142.5" y="-45.5" font-family="Helvetica,sans-Serif" font-size="10.00">FrTestFibonacci</text>
</a>
</g>
</g>
<!-- Node1&#45;&gt;Node7 -->
<g id="edge7" class="edge">
<title>Node1&#45;&gt;Node7</title>
<path fill="none" stroke="midnightblue" d="M247.64,-89.7C236.28,-82.08 221.83,-73.21 208,-67 199.91,-63.37 190.93,-60.22 182.32,-57.58"/>
<polygon fill="midnightblue" stroke="midnightblue" points="245.79,-92.67 256.01,-95.46 249.76,-86.91 245.79,-92.67"/>
</g>
<!-- Node8 -->
<g id="node8" class="node">
<title>Node8</title>
<g id="a_node8"><a xlink:href="frtest__mulconst_8cu.html#aa528975311db670a1f658a498220adfa" target="_top" xlink:title="Test multiply by constant on Fr:">
<polygon fill="white" stroke="black" points="97,-0.5 97,-19.5 188,-19.5 188,-0.5 97,-0.5"/>
<text text-anchor="middle" x="142.5" y="-7.5" font-family="Helvetica,sans-Serif" font-size="10.00">FrTestMulConst</text>
</a>
</g>
</g>
<!-- Node1&#45;&gt;Node8 -->
<g id="edge9" class="edge">
<title>Node1&#45;&gt;Node8</title>
<path fill="none" stroke="midnightblue" d="M258.74,-86.59C248.19,-69.27 230.17,-43.86 208,-29 201.99,-24.97 195.1,-21.78 188.12,-19.25"/>
<polygon fill="midnightblue" stroke="midnightblue" points="255.75,-88.39 263.82,-95.25 261.79,-84.85 255.75,-88.39"/>
</g>
<!-- Node5 -->
<g id="node5" class="node">
<title>Node5</title>
<g id="a_node5"><a xlink:href="frtest_8cu.html#a3c04138a5bfe5d72780bb7e82a18e627" target="_top" xlink:title="Self test of the functions over Fr.">
<polygon fill="white" stroke="black" points="0,-57.5 0,-76.5 41,-76.5 41,-57.5 0,-57.5"/>
<text text-anchor="middle" x="20.5" y="-64.5" font-family="Helvetica,sans-Serif" font-size="10.00">main</text>
</a>
</g>
</g>
<!-- Node4&#45;&gt;Node5 -->
<g id="edge4" class="edge">
<title>Node4&#45;&gt;Node5</title>
<path fill="none" stroke="midnightblue" d="M92.38,-111.3C87.1,-109.42 81.88,-107.32 77,-105 60.76,-97.28 43.97,-85.1 33.17,-76.62"/>
<polygon fill="midnightblue" stroke="midnightblue" points="91.29,-114.63 101.88,-114.46 93.5,-107.99 91.29,-114.63"/>
</g>
<!-- Node6&#45;&gt;Node5 -->
<g id="edge6" class="edge">
<title>Node6&#45;&gt;Node5</title>
<path fill="none" stroke="midnightblue" d="M71.02,-74.84C60.09,-73.11 49.64,-71.46 41.18,-70.12"/>
<polygon fill="midnightblue" stroke="midnightblue" points="70.72,-78.34 81.15,-76.44 71.82,-71.42 70.72,-78.34"/>
</g>
<!-- Node7&#45;&gt;Node5 -->
<g id="edge8" class="edge">
<title>Node7&#45;&gt;Node5</title>
<path fill="none" stroke="midnightblue" d="M86.77,-56.67C70.45,-59.25 53.6,-61.92 41.11,-63.89"/>
<polygon fill="midnightblue" stroke="midnightblue" points="87.49,-60.1 96.82,-55.07 86.39,-53.18 87.49,-60.1"/>
</g>
<!-- Node8&#45;&gt;Node5 -->
<g id="edge10" class="edge">
<title>Node8&#45;&gt;Node5</title>
<path fill="none" stroke="midnightblue" d="M92.38,-22.7C87.1,-24.58 81.88,-26.68 77,-29 60.76,-36.72 43.97,-48.9 33.17,-57.38"/>
<polygon fill="midnightblue" stroke="midnightblue" points="93.5,-26.01 101.88,-19.54 91.29,-19.37 93.5,-26.01"/>
</g>
</g>
</svg>
