<?xml version="1.0" encoding="UTF-8" standalone="no"?>
<!DOCTYPE svg PUBLIC "-//W3C//DTD SVG 1.1//EN"
 "http://www.w3.org/Graphics/SVG/1.1/DTD/svg11.dtd">
<!-- Generated by graphviz version 2.43.0 (0)
 -->
<!-- Title: fr_nonzero Pages: 1 -->
<svg width="180pt" height="66pt"
 viewBox="0.00 0.00 180.00 66.00" xmlns="http://www.w3.org/2000/svg" xmlns:xlink="http://www.w3.org/1999/xlink">
<g id="graph0" class="graph" transform="scale(1 1) rotate(0) translate(4 62)">
<title>fr_nonzero</title>
<polygon fill="white" stroke="transparent" points="-4,4 -4,-62 176,-62 176,4 -4,4"/>
<!-- Node1 -->
<g id="node1" class="node">
<title>Node1</title>
<g id="a_node1"><a xlink:title="Check if the reduced input x is different from zero.">
<polygon fill="#bfbfbf" stroke="black" points="0,-19.5 0,-38.5 68,-38.5 68,-19.5 0,-19.5"/>
<text text-anchor="middle" x="34" y="-26.5" font-family="Helvetica,sans-Serif" font-size="10.00">fr_nonzero</text>
</a>
</g>
</g>
<!-- Node2 -->
<g id="node2" class="node">
<title>Node2</title>
<g id="a_node2"><a xlink:href="fr_8cuh.html#a8abf9d8ad4b633144fcc0c6956d14056" target="_top" xlink:title="Copy from x into z.">
<polygon fill="white" stroke="black" points="114.5,-38.5 114.5,-57.5 161.5,-57.5 161.5,-38.5 114.5,-38.5"/>
<text text-anchor="middle" x="138" y="-45.5" font-family="Helvetica,sans-Serif" font-size="10.00">fr_cpy</text>
</a>
</g>
</g>
<!-- Node1&#45;&gt;Node2 -->
<g id="edge1" class="edge">
<title>Node1&#45;&gt;Node2</title>
<path fill="none" stroke="midnightblue" d="M68.12,-35.17C79.7,-37.33 92.68,-39.75 104.23,-41.9"/>
<polygon fill="midnightblue" stroke="midnightblue" points="103.89,-45.39 114.36,-43.78 105.17,-38.51 103.89,-45.39"/>
</g>
<!-- Node3 -->
<g id="node3" class="node">
<title>Node3</title>
<g id="a_node3"><a xlink:href="fr_8cuh.html#aa53ac2a9b28c7f128a9ee8e106abcf3c" target="_top" xlink:title="Reduced the value in fr_t to the field modulus.">
<polygon fill="white" stroke="black" points="104,-0.5 104,-19.5 172,-19.5 172,-0.5 104,-0.5"/>
<text text-anchor="middle" x="138" y="-7.5" font-family="Helvetica,sans-Serif" font-size="10.00">fr_reduce4</text>
</a>
</g>
</g>
<!-- Node1&#45;&gt;Node3 -->
<g id="edge2" class="edge">
<title>Node1&#45;&gt;Node3</title>
<path fill="none" stroke="midnightblue" d="M68.12,-22.83C76.31,-21.3 85.21,-19.65 93.81,-18.05"/>
<polygon fill="midnightblue" stroke="midnightblue" points="94.51,-21.47 103.7,-16.2 93.23,-14.59 94.51,-21.47"/>
</g>
</g>
</svg>
