<?xml version="1.0" encoding="UTF-8" standalone="no"?>
<!DOCTYPE svg PUBLIC "-//W3C//DTD SVG 1.1//EN"
 "http://www.w3.org/Graphics/SVG/1.1/DTD/svg11.dtd">
<!-- Generated by graphviz version 2.43.0 (0)
 -->
<!-- Title: fr_reduce4 Pages: 1 -->
<svg width="641pt" height="332pt"
 viewBox="0.00 0.00 641.00 332.00" xmlns="http://www.w3.org/2000/svg" xmlns:xlink="http://www.w3.org/1999/xlink">
<g id="graph0" class="graph" transform="scale(1 1) rotate(0) translate(4 328)">
<title>fr_reduce4</title>
<polygon fill="white" stroke="transparent" points="-4,4 -4,-328 637,-328 637,4 -4,4"/>
<!-- Node1 -->
<g id="node1" class="node">
<title>Node1</title>
<g id="a_node1"><a xlink:title="Reduced the value in fr_t to the field modulus.">
<polygon fill="#bfbfbf" stroke="black" points="565,-95.5 565,-114.5 633,-114.5 633,-95.5 565,-95.5"/>
<text text-anchor="middle" x="599" y="-102.5" font-family="Helvetica,sans-Serif" font-size="10.00">fr_reduce4</text>
</a>
</g>
</g>
<!-- Node2 -->
<g id="node2" class="node">
<title>Node2</title>
<g id="a_node2"><a xlink:href="fr_8cuh.html#a912c7835f9151e3294434ac6f656f0da" target="_top" xlink:title="Checks if the residue x modulo f is congruent to one.">
<polygon fill="white" stroke="black" points="366,-104.5 366,-123.5 422,-123.5 422,-104.5 366,-104.5"/>
<text text-anchor="middle" x="394" y="-111.5" font-family="Helvetica,sans-Serif" font-size="10.00">fr_isone</text>
</a>
</g>
</g>
<!-- Node1&#45;&gt;Node2 -->
<g id="edge1" class="edge">
<title>Node1&#45;&gt;Node2</title>
<path fill="none" stroke="midnightblue" d="M554.9,-106.91C514.78,-108.69 456.19,-111.29 422.2,-112.79"/>
<polygon fill="midnightblue" stroke="midnightblue" points="555.1,-110.41 564.93,-106.47 554.79,-103.41 555.1,-110.41"/>
</g>
<!-- Node5 -->
<g id="node5" class="node">
<title>Node5</title>
<g id="a_node5"><a xlink:href="fr_8cuh.html#a78b8df6518ee14cdf2cdc025abf902fa" target="_top" xlink:title="Checks if the residue x modulo f is congruent to zero.">
<polygon fill="white" stroke="black" points="464,-199.5 464,-218.5 523,-218.5 523,-199.5 464,-199.5"/>
<text text-anchor="middle" x="493.5" y="-206.5" font-family="Helvetica,sans-Serif" font-size="10.00">fr_iszero</text>
</a>
</g>
</g>
<!-- Node1&#45;&gt;Node5 -->
<g id="edge4" class="edge">
<title>Node1&#45;&gt;Node5</title>
<path fill="none" stroke="midnightblue" d="M581.77,-122.04C567.9,-136.53 547.33,-157.82 529,-176 521,-183.94 511.76,-192.76 504.86,-199.28"/>
<polygon fill="midnightblue" stroke="midnightblue" points="584.36,-124.4 588.74,-114.76 579.3,-119.57 584.36,-124.4"/>
</g>
<!-- Node15 -->
<g id="node15" class="node">
<title>Node15</title>
<g id="a_node15"><a xlink:href="fr_8cuh.html#a66f4651fb8a6e1310280f1473bcc1670" target="_top" xlink:title="Check if the reduced input x is different from zero.">
<polygon fill="white" stroke="black" points="459.5,-76.5 459.5,-95.5 527.5,-95.5 527.5,-76.5 459.5,-76.5"/>
<text text-anchor="middle" x="493.5" y="-83.5" font-family="Helvetica,sans-Serif" font-size="10.00">fr_nonzero</text>
</a>
</g>
</g>
<!-- Node1&#45;&gt;Node15 -->
<g id="edge20" class="edge">
<title>Node1&#45;&gt;Node15</title>
<path fill="none" stroke="midnightblue" d="M554.88,-97.08C545.75,-95.41 536.26,-93.67 527.57,-92.07"/>
<polygon fill="midnightblue" stroke="midnightblue" points="554.5,-100.57 564.97,-98.94 555.76,-93.69 554.5,-100.57"/>
</g>
<!-- Node16 -->
<g id="node16" class="node">
<title>Node16</title>
<g id="a_node16"><a xlink:href="fr_8cu.html#a48d3ace037073f6d394152bee7f40b71" target="_top" xlink:title="prints the canonical representation of x to STDOUT.">
<polygon fill="white" stroke="black" points="261,-152.5 261,-171.5 313,-171.5 313,-152.5 261,-152.5"/>
<text text-anchor="middle" x="287" y="-159.5" font-family="Helvetica,sans-Serif" font-size="10.00">fr_print</text>
</a>
</g>
</g>
<!-- Node1&#45;&gt;Node16 -->
<g id="edge21" class="edge">
<title>Node1&#45;&gt;Node16</title>
<path fill="none" stroke="midnightblue" d="M554.98,-116.89C546.41,-119.07 537.45,-121.22 529,-123 450.82,-139.48 357.11,-152.84 313.12,-158.73"/>
<polygon fill="midnightblue" stroke="midnightblue" points="556.01,-120.24 564.81,-114.34 554.25,-113.47 556.01,-120.24"/>
</g>
<!-- Node17 -->
<g id="node17" class="node">
<title>Node17</title>
<g id="a_node17"><a xlink:href="fr_8cu.html#aa49950ffe73587ecd4680b0259766db9" target="_top" xlink:title="Converts fr_t to uint64_t[4].">
<polygon fill="white" stroke="black" points="458,-38.5 458,-57.5 529,-57.5 529,-38.5 458,-38.5"/>
<text text-anchor="middle" x="493.5" y="-45.5" font-family="Helvetica,sans-Serif" font-size="10.00">fr_toUint64</text>
</a>
</g>
</g>
<!-- Node1&#45;&gt;Node17 -->
<g id="edge28" class="edge">
<title>Node1&#45;&gt;Node17</title>
<path fill="none" stroke="midnightblue" d="M571.5,-90.41C552.73,-80.07 528.09,-66.5 511.8,-57.53"/>
<polygon fill="midnightblue" stroke="midnightblue" points="569.99,-93.57 580.44,-95.33 573.37,-87.44 569.99,-93.57"/>
</g>
<!-- Node18 -->
<g id="node18" class="node">
<title>Node18</title>
<g id="a_node18"><a xlink:href="fk20test__kat_8cu.html#a810a4fc2187ce9e046441226d9778f4b" target="_top" xlink:title=" ">
<polygon fill="white" stroke="black" points="461,-0.5 461,-19.5 526,-19.5 526,-0.5 461,-0.5"/>
<text text-anchor="middle" x="493.5" y="-7.5" font-family="Helvetica,sans-Serif" font-size="10.00">gen_roots</text>
</a>
</g>
</g>
<!-- Node1&#45;&gt;Node18 -->
<g id="edge29" class="edge">
<title>Node1&#45;&gt;Node18</title>
<path fill="none" stroke="midnightblue" d="M584.44,-86.92C571.47,-70.45 550.71,-46.15 529,-29 524.6,-25.52 519.48,-22.33 514.55,-19.58"/>
<polygon fill="midnightblue" stroke="midnightblue" points="581.92,-89.39 590.8,-95.17 587.47,-85.11 581.92,-89.39"/>
</g>
<!-- Node3 -->
<g id="node3" class="node">
<title>Node3</title>
<g id="a_node3"><a xlink:href="frtest__fibonacci_8cu.html#ad97d52b82c26e99df17a0809f8c14ffb" target="_top" xlink:title="Test addition and subtraction in Fr using a fibonacci sequence (chain dependency) from 1 to ITERATION...">
<polygon fill="white" stroke="black" points="97,-76.5 97,-95.5 188,-95.5 188,-76.5 97,-76.5"/>
<text text-anchor="middle" x="142.5" y="-83.5" font-family="Helvetica,sans-Serif" font-size="10.00">FrTestFibonacci</text>
</a>
</g>
</g>
<!-- Node2&#45;&gt;Node3 -->
<g id="edge2" class="edge">
<title>Node2&#45;&gt;Node3</title>
<path fill="none" stroke="midnightblue" d="M355.68,-109.81C310.96,-104.79 236.09,-96.39 188.29,-91.03"/>
<polygon fill="midnightblue" stroke="midnightblue" points="355.5,-113.31 365.82,-110.95 356.28,-106.36 355.5,-113.31"/>
</g>
<!-- Node4 -->
<g id="node4" class="node">
<title>Node4</title>
<g id="a_node4"><a xlink:href="frtest_8cu.html#a3c04138a5bfe5d72780bb7e82a18e627" target="_top" xlink:title="Self test of the functions over Fr.">
<polygon fill="white" stroke="black" points="0,-228.5 0,-247.5 41,-247.5 41,-228.5 0,-228.5"/>
<text text-anchor="middle" x="20.5" y="-235.5" font-family="Helvetica,sans-Serif" font-size="10.00">main</text>
</a>
</g>
</g>
<!-- Node3&#45;&gt;Node4 -->
<g id="edge3" class="edge">
<title>Node3&#45;&gt;Node4</title>
<path fill="none" stroke="midnightblue" d="M87.58,-97.67C83.76,-99.73 80.18,-102.15 77,-105 38.81,-139.24 26.2,-203.93 22.68,-228.34"/>
<polygon fill="midnightblue" stroke="midnightblue" points="89.13,-100.8 96.8,-93.49 86.24,-94.43 89.13,-100.8"/>
</g>
<!-- Node6 -->
<g id="node6" class="node">
<title>Node6</title>
<g id="a_node6"><a xlink:href="fr_8cuh.html#a4e45802fc36909ab3c8a71f662689cfa" target="_top" xlink:title="Compares two residues modulo r.">
<polygon fill="white" stroke="black" points="373.5,-209.5 373.5,-228.5 414.5,-228.5 414.5,-209.5 373.5,-209.5"/>
<text text-anchor="middle" x="394" y="-216.5" font-family="Helvetica,sans-Serif" font-size="10.00">fr_eq</text>
</a>
</g>
</g>
<!-- Node5&#45;&gt;Node6 -->
<g id="edge5" class="edge">
<title>Node5&#45;&gt;Node6</title>
<path fill="none" stroke="midnightblue" d="M453.77,-212.97C440.32,-214.35 425.81,-215.84 414.58,-216.99"/>
<polygon fill="midnightblue" stroke="midnightblue" points="454.18,-216.45 463.77,-211.95 453.47,-209.48 454.18,-216.45"/>
</g>
<!-- Node7 -->
<g id="node7" class="node">
<title>Node7</title>
<g id="a_node7"><a xlink:href="fr_8cu.html#a7db8fbb07292bc3ceab5ec0433d90cae" target="_top" xlink:title="Checks equality of two arrays of fr_t, element wise, and store in a byte array.">
<polygon fill="white" stroke="black" points="244,-190.5 244,-209.5 330,-209.5 330,-190.5 244,-190.5"/>
<text text-anchor="middle" x="287" y="-197.5" font-family="Helvetica,sans-Serif" font-size="10.00">fr_eq_wrapper</text>
</a>
</g>
</g>
<!-- Node6&#45;&gt;Node7 -->
<g id="edge6" class="edge">
<title>Node6&#45;&gt;Node7</title>
<path fill="none" stroke="midnightblue" d="M363.19,-213.61C352.96,-211.75 341.31,-209.65 330.28,-207.65"/>
<polygon fill="midnightblue" stroke="midnightblue" points="362.79,-217.09 373.25,-215.43 364.03,-210.2 362.79,-217.09"/>
</g>
<!-- Node8 -->
<g id="node8" class="node">
<title>Node8</title>
<g id="a_node8"><a xlink:href="fr_8cuh.html#a4f11be4124fc653c718d01acc42cf7f2" target="_top" xlink:title="Compares two fr_t residues.">
<polygon fill="white" stroke="black" points="263.5,-228.5 263.5,-247.5 310.5,-247.5 310.5,-228.5 263.5,-228.5"/>
<text text-anchor="middle" x="287" y="-235.5" font-family="Helvetica,sans-Serif" font-size="10.00">fr_neq</text>
</a>
</g>
</g>
<!-- Node6&#45;&gt;Node8 -->
<g id="edge7" class="edge">
<title>Node6&#45;&gt;Node8</title>
<path fill="none" stroke="midnightblue" d="M363.4,-224.36C346.64,-227.39 326.02,-231.12 310.58,-233.91"/>
<polygon fill="midnightblue" stroke="midnightblue" points="364.03,-227.8 373.25,-222.57 362.79,-220.91 364.03,-227.8"/>
</g>
<!-- Node11 -->
<g id="node11" class="node">
<title>Node11</title>
<g id="a_node11"><a xlink:href="frtest__cmp_8cu.html#a871de10e2f93c77672721a62951f876a" target="_top" xlink:title="Test for the comparison function; checks for inconsistencies in the following properties:">
<polygon fill="white" stroke="black" points="108.5,-304.5 108.5,-323.5 176.5,-323.5 176.5,-304.5 108.5,-304.5"/>
<text text-anchor="middle" x="142.5" y="-311.5" font-family="Helvetica,sans-Serif" font-size="10.00">FrTestCmp</text>
</a>
</g>
</g>
<!-- Node6&#45;&gt;Node11 -->
<g id="edge19" class="edge">
<title>Node6&#45;&gt;Node11</title>
<path fill="none" stroke="midnightblue" d="M370.37,-234.47C358.68,-241.98 343.97,-250.72 330,-257 278.43,-280.18 214.78,-297.37 176.75,-306.53"/>
<polygon fill="midnightblue" stroke="midnightblue" points="372.59,-237.2 379.02,-228.78 368.75,-231.35 372.59,-237.2"/>
</g>
<!-- Node8&#45;&gt;Node3 -->
<g id="edge16" class="edge">
<title>Node8&#45;&gt;Node3</title>
<path fill="none" stroke="midnightblue" d="M254.18,-227.22C250.4,-224.95 246.87,-222.23 244,-219 208.73,-179.26 245.93,-142.2 208,-105 202.5,-99.61 195.55,-95.73 188.26,-92.95"/>
<polygon fill="midnightblue" stroke="midnightblue" points="252.75,-230.42 263.27,-231.75 255.88,-224.15 252.75,-230.42"/>
</g>
<!-- Node9 -->
<g id="node9" class="node">
<title>Node9</title>
<g id="a_node9"><a xlink:href="fk20test__kat_8cu.html#ab98d98e4fa8d6750289ea3c3f6a9583d" target="_top" xlink:title=" ">
<polygon fill="white" stroke="black" points="106,-114.5 106,-133.5 179,-133.5 179,-114.5 106,-114.5"/>
<text text-anchor="middle" x="142.5" y="-121.5" font-family="Helvetica,sans-Serif" font-size="10.00">fr_fft_verify</text>
</a>
</g>
</g>
<!-- Node8&#45;&gt;Node9 -->
<g id="edge8" class="edge">
<title>Node8&#45;&gt;Node9</title>
<path fill="none" stroke="midnightblue" d="M254.02,-226.52C250.38,-224.38 246.93,-221.88 244,-219 217.34,-192.8 236.41,-167.29 208,-143 199.93,-136.1 189.44,-131.7 179.28,-128.9"/>
<polygon fill="midnightblue" stroke="midnightblue" points="252.77,-229.8 263.28,-231.14 255.89,-223.54 252.77,-229.8"/>
</g>
<!-- Node10 -->
<g id="node10" class="node">
<title>Node10</title>
<g id="a_node10"><a xlink:href="fk20test__kat_8cu.html#a564fcab8be0931ebf106961c1c6b327f" target="_top" xlink:title=" ">
<polygon fill="white" stroke="black" points="106.5,-152.5 106.5,-171.5 178.5,-171.5 178.5,-152.5 106.5,-152.5"/>
<text text-anchor="middle" x="142.5" y="-159.5" font-family="Helvetica,sans-Serif" font-size="10.00">fr_ift_verify</text>
</a>
</g>
</g>
<!-- Node8&#45;&gt;Node10 -->
<g id="edge9" class="edge">
<title>Node8&#45;&gt;Node10</title>
<path fill="none" stroke="midnightblue" d="M254.03,-225.14C250.54,-223.27 247.12,-221.22 244,-219 225.05,-205.51 227.84,-193.15 208,-181 199.14,-175.57 188.64,-171.62 178.72,-168.78"/>
<polygon fill="midnightblue" stroke="midnightblue" points="252.8,-228.44 263.33,-229.66 255.86,-222.14 252.8,-228.44"/>
</g>
<!-- Node8&#45;&gt;Node11 -->
<g id="edge10" class="edge">
<title>Node8&#45;&gt;Node11</title>
<path fill="none" stroke="midnightblue" d="M267.42,-254.45C252.33,-267.07 230,-284.13 208,-295 198.27,-299.81 187.09,-303.63 176.81,-306.55"/>
<polygon fill="midnightblue" stroke="midnightblue" points="270.1,-256.77 275.42,-247.6 265.55,-251.45 270.1,-256.77"/>
</g>
<!-- Node12 -->
<g id="node12" class="node">
<title>Node12</title>
<g id="a_node12"><a xlink:href="frtest__add_8cu.html#a6372e698dff3983b1e875cf08c097d97" target="_top" xlink:title="Test the cumulative property of addition.">
<polygon fill="white" stroke="black" points="77,-228.5 77,-247.5 208,-247.5 208,-228.5 77,-228.5"/>
<text text-anchor="middle" x="142.5" y="-235.5" font-family="Helvetica,sans-Serif" font-size="10.00">FrTestCommutativeAdd</text>
</a>
</g>
</g>
<!-- Node8&#45;&gt;Node12 -->
<g id="edge12" class="edge">
<title>Node8&#45;&gt;Node12</title>
<path fill="none" stroke="midnightblue" d="M253.26,-238C239.82,-238 223.76,-238 208.13,-238"/>
<polygon fill="midnightblue" stroke="midnightblue" points="253.42,-241.5 263.42,-238 253.42,-234.5 253.42,-241.5"/>
</g>
<!-- Node13 -->
<g id="node13" class="node">
<title>Node13</title>
<g id="a_node13"><a xlink:href="frtest__mul_8cu.html#aba1ae7a1fb9958d713a549e881a8dcb2" target="_top" xlink:title="Test of the commutative property of multiplication x*y == y*x.">
<polygon fill="white" stroke="black" points="77.5,-190.5 77.5,-209.5 207.5,-209.5 207.5,-190.5 77.5,-190.5"/>
<text text-anchor="middle" x="142.5" y="-197.5" font-family="Helvetica,sans-Serif" font-size="10.00">FrTestCommutativeMul</text>
</a>
</g>
</g>
<!-- Node8&#45;&gt;Node13 -->
<g id="edge14" class="edge">
<title>Node8&#45;&gt;Node13</title>
<path fill="none" stroke="midnightblue" d="M253.5,-229.33C231.38,-223.43 202.09,-215.62 179.3,-209.55"/>
<polygon fill="midnightblue" stroke="midnightblue" points="252.86,-232.78 263.42,-231.98 254.66,-226.02 252.86,-232.78"/>
</g>
<!-- Node14 -->
<g id="node14" class="node">
<title>Node14</title>
<g id="a_node14"><a xlink:href="frtest__mulconst_8cu.html#aa528975311db670a1f658a498220adfa" target="_top" xlink:title="Test multiply by constant on Fr:">
<polygon fill="white" stroke="black" points="97,-266.5 97,-285.5 188,-285.5 188,-266.5 97,-266.5"/>
<text text-anchor="middle" x="142.5" y="-273.5" font-family="Helvetica,sans-Serif" font-size="10.00">FrTestMulConst</text>
</a>
</g>
</g>
<!-- Node8&#45;&gt;Node14 -->
<g id="edge17" class="edge">
<title>Node8&#45;&gt;Node14</title>
<path fill="none" stroke="midnightblue" d="M253.5,-246.67C231.38,-252.57 202.09,-260.38 179.3,-266.45"/>
<polygon fill="midnightblue" stroke="midnightblue" points="254.66,-249.98 263.42,-244.02 252.86,-243.22 254.66,-249.98"/>
</g>
<!-- Node11&#45;&gt;Node4 -->
<g id="edge11" class="edge">
<title>Node11&#45;&gt;Node4</title>
<path fill="none" stroke="midnightblue" d="M98.57,-304.72C91.09,-302.17 83.6,-298.98 77,-295 56.18,-282.45 37.76,-260.21 28.27,-247.54"/>
<polygon fill="midnightblue" stroke="midnightblue" points="97.74,-308.12 108.32,-307.7 99.79,-301.43 97.74,-308.12"/>
</g>
<!-- Node12&#45;&gt;Node4 -->
<g id="edge13" class="edge">
<title>Node12&#45;&gt;Node4</title>
<path fill="none" stroke="midnightblue" d="M66.91,-238C57.43,-238 48.46,-238 41.05,-238"/>
<polygon fill="midnightblue" stroke="midnightblue" points="66.93,-241.5 76.93,-238 66.93,-234.5 66.93,-241.5"/>
</g>
<!-- Node13&#45;&gt;Node4 -->
<g id="edge15" class="edge">
<title>Node13&#45;&gt;Node4</title>
<path fill="none" stroke="midnightblue" d="M97.87,-212.57C90.87,-214.67 83.73,-216.86 77,-219 65.06,-222.8 51.78,-227.33 41.21,-231.02"/>
<polygon fill="midnightblue" stroke="midnightblue" points="99.35,-215.79 107.94,-209.59 97.36,-209.07 99.35,-215.79"/>
</g>
<!-- Node14&#45;&gt;Node4 -->
<g id="edge18" class="edge">
<title>Node14&#45;&gt;Node4</title>
<path fill="none" stroke="midnightblue" d="M97.87,-263.43C90.87,-261.33 83.73,-259.14 77,-257 65.06,-253.2 51.78,-248.67 41.21,-244.98"/>
<polygon fill="midnightblue" stroke="midnightblue" points="97.36,-266.93 107.94,-266.41 99.35,-260.21 97.36,-266.93"/>
</g>
<!-- Node16&#45;&gt;Node3 -->
<g id="edge26" class="edge">
<title>Node16&#45;&gt;Node3</title>
<path fill="none" stroke="midnightblue" d="M267.42,-145.55C252.33,-132.93 230,-115.87 208,-105 200.46,-101.28 192.07,-98.15 183.88,-95.57"/>
<polygon fill="midnightblue" stroke="midnightblue" points="265.55,-148.55 275.42,-152.4 270.1,-143.23 265.55,-148.55"/>
</g>
<!-- Node16&#45;&gt;Node9 -->
<g id="edge22" class="edge">
<title>Node16&#45;&gt;Node9</title>
<path fill="none" stroke="midnightblue" d="M250.98,-152.66C229.12,-146.83 201.06,-139.35 179.09,-133.49"/>
<polygon fill="midnightblue" stroke="midnightblue" points="250.29,-156.1 260.85,-155.29 252.09,-149.34 250.29,-156.1"/>
</g>
<!-- Node16&#45;&gt;Node10 -->
<g id="edge23" class="edge">
<title>Node16&#45;&gt;Node10</title>
<path fill="none" stroke="midnightblue" d="M250.61,-162C228.62,-162 200.47,-162 178.55,-162"/>
<polygon fill="midnightblue" stroke="midnightblue" points="250.85,-165.5 260.85,-162 250.85,-158.5 250.85,-165.5"/>
</g>
<!-- Node16&#45;&gt;Node12 -->
<g id="edge24" class="edge">
<title>Node16&#45;&gt;Node12</title>
<path fill="none" stroke="midnightblue" d="M251.58,-176.21C248.94,-177.7 246.38,-179.3 244,-181 225.05,-194.49 227.84,-206.85 208,-219 201.73,-222.84 194.64,-225.94 187.51,-228.43"/>
<polygon fill="midnightblue" stroke="midnightblue" points="253.4,-179.21 260.7,-171.53 250.2,-172.98 253.4,-179.21"/>
</g>
<!-- Node16&#45;&gt;Node13 -->
<g id="edge25" class="edge">
<title>Node16&#45;&gt;Node13</title>
<path fill="none" stroke="midnightblue" d="M251.02,-171.33C229.24,-177.14 201.3,-184.59 179.36,-190.44"/>
<polygon fill="midnightblue" stroke="midnightblue" points="252.09,-174.66 260.85,-168.71 250.29,-167.9 252.09,-174.66"/>
</g>
<!-- Node16&#45;&gt;Node14 -->
<g id="edge27" class="edge">
<title>Node16&#45;&gt;Node14</title>
<path fill="none" stroke="midnightblue" d="M251.84,-174.83C249.01,-176.65 246.34,-178.7 244,-181 217.34,-207.2 236.41,-232.71 208,-257 202.23,-261.93 195.24,-265.58 188.01,-268.29"/>
<polygon fill="midnightblue" stroke="midnightblue" points="253.55,-177.88 260.65,-170.03 250.2,-171.74 253.55,-177.88"/>
</g>
</g>
</svg>
