<?xml version="1.0" encoding="UTF-8" standalone="no"?>
<!DOCTYPE svg PUBLIC "-//W3C//DTD SVG 1.1//EN"
 "http://www.w3.org/Graphics/SVG/1.1/DTD/svg11.dtd">
<!-- Generated by graphviz version 2.43.0 (0)
 -->
<!-- Title: fr_fft Pages: 1 -->
<!--zoomable 294 -->
<svg id="main" version="1.1" xmlns="http://www.w3.org/2000/svg" xmlns:xlink="http://www.w3.org/1999/xlink" xml:space="preserve" onload="init(evt)">
<style type="text/css"><![CDATA[
.edge:hover path { stroke: red; }
.edge:hover polygon { stroke: red; fill: red; }
]]></style>
<script type="text/javascript"><![CDATA[
var edges = document.getElementsByTagName('g');
if (edges && edges.length) {
  for (var i=0;i<edges.length;i++) {
    if (edges[i].id.substr(0,4)=='edge') {
      edges[i].setAttribute('class','edge');
    }
  }
}
]]></script>
        <defs>
                <circle id="rim" cx="0" cy="0" r="7"/>
                <circle id="rim2" cx="0" cy="0" r="3.5"/>
                <g id="zoomPlus">
                        <use xlink:href="#rim" fill="#404040">
                                <set attributeName="fill" to="#808080" begin="zoomplus.mouseover" end="zoomplus.mouseout"/>
                        </use>
                        <path d="M-4,0h8M0,-4v8" fill="none" stroke="white" stroke-width="1.5" pointer-events="none"/>
                </g>
                <g id="zoomMin">
                        <use xlink:href="#rim" fill="#404040">
                                <set attributeName="fill" to="#808080" begin="zoomminus.mouseover" end="zoomminus.mouseout"/>
                        </use>
                        <path d="M-4,0h8" fill="none" stroke="white" stroke-width="1.5" pointer-events="none"/>
                </g>
                <g id="dirArrow">
                        <path fill="none" stroke="white" stroke-width="1.5" d="M0,-3.0v7 M-2.5,-0.5L0,-3.0L2.5,-0.5"/>
                </g>
               <g id="resetDef">
                       <use xlink:href="#rim2" fill="#404040">
                               <set attributeName="fill" to="#808080" begin="reset.mouseover" end="reset.mouseout"/>
                       </use>
               </g>
        </defs>

<script type="text/javascript">
var viewWidth = 559;
var viewHeight = 294;
var sectionId = 'dynsection-8';
</script>
<script xlink:href="svgpan.js"/>
<svg id="graph" class="graph">
<g id="viewport">
<title>fr_fft</title>
<polygon fill="white" stroke="transparent" points="-4,4 -4,-290 555,-290 555,4 -4,4"/>
<!-- Node1 -->
<g id="node1" class="node">
<title>Node1</title>
<g id="a_node1"><a xlink:title="FFT over Fr.">
<polygon fill="#bfbfbf" stroke="black" points="511,-133.5 511,-152.5 551,-152.5 551,-133.5 511,-133.5"/>
<text text-anchor="middle" x="531" y="-140.5" font-family="Helvetica,sans-Serif" font-size="10.00">fr_fft</text>
</a>
</g>
</g>
<!-- Node2 -->
<g id="node2" class="node">
<title>Node2</title>
<g id="a_node2"><a xlink:href="fr_8cuh.html#abf810ba4f2672a8d319e6cdbfc8ba68e" target="_top" xlink:title="wrapper for fr_fft: FFT for fr_t[512]">
<polygon fill="white" stroke="black" points="390,-133.5 390,-152.5 475,-152.5 475,-133.5 390,-133.5"/>
<text text-anchor="middle" x="432.5" y="-140.5" font-family="Helvetica,sans-Serif" font-size="10.00">fr_fft_wrapper</text>
</a>
</g>
</g>
<!-- Node1&#45;&gt;Node2 -->
<g id="edge1" class="edge">
<title>Node1&#45;&gt;Node2</title>
<path fill="none" stroke="midnightblue" d="M500.91,-143C492.84,-143 483.92,-143 475.28,-143"/>
<polygon fill="midnightblue" stroke="midnightblue" points="500.93,-146.5 510.93,-143 500.93,-139.5 500.93,-146.5"/>
</g>
<!-- Node3 -->
<g id="node3" class="node">
<title>Node3</title>
<g id="a_node3"><a xlink:href="fk20_8cuh.html#a428f2dcc8b77723e4def6f684f790ceb" target="_top" xlink:title="polynomial + xext_fft &#45;&gt; h_fft This function is a wrapper for the full FK20 computation,...">
<polygon fill="white" stroke="black" points="253,-76.5 253,-95.5 345,-95.5 345,-76.5 253,-76.5"/>
<text text-anchor="middle" x="299" y="-83.5" font-family="Helvetica,sans-Serif" font-size="10.00">fk20_poly2h_fft</text>
</a>
</g>
</g>
<!-- Node2&#45;&gt;Node3 -->
<g id="edge2" class="edge">
<title>Node2&#45;&gt;Node3</title>
<path fill="none" stroke="midnightblue" d="M400.08,-129.38C376.02,-118.95 343.44,-104.83 322.08,-95.57"/>
<polygon fill="midnightblue" stroke="midnightblue" points="398.92,-132.69 409.49,-133.46 401.71,-126.27 398.92,-132.69"/>
</g>
<!-- Node6 -->
<g id="node6" class="node">
<title>Node6</title>
<g id="a_node6"><a xlink:href="frtest_8cuh.html#a4ded3b3b54bb394b4168cb5f92ec72b4" target="_top" xlink:title="Tests fft and inverse fft over Fr using KAT.">
<polygon fill="white" stroke="black" points="268,-190.5 268,-209.5 330,-209.5 330,-190.5 268,-190.5"/>
<text text-anchor="middle" x="299" y="-197.5" font-family="Helvetica,sans-Serif" font-size="10.00">FrTestFFT</text>
</a>
</g>
</g>
<!-- Node2&#45;&gt;Node6 -->
<g id="edge5" class="edge">
<title>Node2&#45;&gt;Node6</title>
<path fill="none" stroke="midnightblue" d="M400.08,-156.62C376.02,-167.05 343.44,-181.17 322.08,-190.43"/>
<polygon fill="midnightblue" stroke="midnightblue" points="401.71,-159.73 409.49,-152.54 398.92,-153.31 401.71,-159.73"/>
</g>
<!-- Node8 -->
<g id="node8" class="node">
<title>Node8</title>
<g id="a_node8"><a xlink:href="fk20test_8cuh.html#a219d5d803685ea0067dfa4908a620e11" target="_top" xlink:title=" ">
<polygon fill="white" stroke="black" points="273,-266.5 273,-285.5 325,-285.5 325,-266.5 273,-266.5"/>
<text text-anchor="middle" x="299" y="-273.5" font-family="Helvetica,sans-Serif" font-size="10.00">fullTest</text>
</a>
</g>
</g>
<!-- Node2&#45;&gt;Node8 -->
<g id="edge7" class="edge">
<title>Node2&#45;&gt;Node8</title>
<path fill="none" stroke="midnightblue" d="M423.26,-162.01C411.43,-187.17 387.34,-231.34 354,-257 345.57,-263.49 334.76,-267.87 325.02,-270.78"/>
<polygon fill="midnightblue" stroke="midnightblue" points="426.5,-163.34 427.44,-152.79 420.12,-160.45 426.5,-163.34"/>
</g>
<!-- Node11 -->
<g id="node11" class="node">
<title>Node11</title>
<g id="a_node11"><a xlink:href="fk20__512test_8cu.html#a4de6443d77d1c56d1d49715061ba60db" target="_top" xlink:title="Executes many FK20 computations on a single row, with a check on each step. A computation failure wil...">
<polygon fill="white" stroke="black" points="105,-114.5 105,-133.5 180,-133.5 180,-114.5 105,-114.5"/>
<text text-anchor="middle" x="142.5" y="-121.5" font-family="Helvetica,sans-Serif" font-size="10.00">fullTest_512</text>
</a>
</g>
</g>
<!-- Node2&#45;&gt;Node11 -->
<g id="edge10" class="edge">
<title>Node2&#45;&gt;Node11</title>
<path fill="none" stroke="midnightblue" d="M379.95,-139.6C322.38,-135.8 230.66,-129.75 180.04,-126.41"/>
<polygon fill="midnightblue" stroke="midnightblue" points="379.72,-143.09 389.93,-140.26 380.18,-136.11 379.72,-143.09"/>
</g>
<!-- Node12 -->
<g id="node12" class="node">
<title>Node12</title>
<g id="a_node12"><a xlink:href="fk20__512test_8cu.html#a537be6501bbccff0654c4ca1b2fd83ae" target="_top" xlink:title="Similar to fullTest, but polynomial is has changes done to it. The function checks for false&#45;positive...">
<polygon fill="white" stroke="black" points="77,-152.5 77,-171.5 208,-171.5 208,-152.5 77,-152.5"/>
<text text-anchor="middle" x="142.5" y="-159.5" font-family="Helvetica,sans-Serif" font-size="10.00">fullTestFalseability_512</text>
</a>
</g>
</g>
<!-- Node2&#45;&gt;Node12 -->
<g id="edge12" class="edge">
<title>Node2&#45;&gt;Node12</title>
<path fill="none" stroke="midnightblue" d="M379.75,-146.41C331.71,-149.58 260.01,-154.31 208.2,-157.73"/>
<polygon fill="midnightblue" stroke="midnightblue" points="380.18,-149.89 389.93,-145.74 379.72,-142.91 380.18,-149.89"/>
</g>
<!-- Node13 -->
<g id="node13" class="node">
<title>Node13</title>
<g id="a_node13"><a xlink:href="fk20test_8cuh.html#a8d2cfb1e9fc0723c345460c7ad438df1" target="_top" xlink:title=" ">
<polygon fill="white" stroke="black" points="244,-228.5 244,-247.5 354,-247.5 354,-228.5 244,-228.5"/>
<text text-anchor="middle" x="299" y="-235.5" font-family="Helvetica,sans-Serif" font-size="10.00">fullTestFalsifiability</text>
</a>
</g>
</g>
<!-- Node2&#45;&gt;Node13 -->
<g id="edge14" class="edge">
<title>Node2&#45;&gt;Node13</title>
<path fill="none" stroke="midnightblue" d="M417.57,-160.57C403.24,-177.6 379.47,-203.14 354,-219 348.01,-222.73 341.19,-225.85 334.46,-228.42"/>
<polygon fill="midnightblue" stroke="midnightblue" points="420.53,-162.48 424.16,-152.53 415.12,-158.04 420.53,-162.48"/>
</g>
<!-- Node14 -->
<g id="node14" class="node">
<title>Node14</title>
<g id="a_node14"><a xlink:href="g1test_8cuh.html#af69268816d41d8e3c477c70066f7bfcf" target="_top" xlink:title="Test for FFT and IFFT of points on the G1 curve. Checks self consistency with the following propertie...">
<polygon fill="white" stroke="black" points="265.5,-38.5 265.5,-57.5 332.5,-57.5 332.5,-38.5 265.5,-38.5"/>
<text text-anchor="middle" x="299" y="-45.5" font-family="Helvetica,sans-Serif" font-size="10.00">G1TestFFT</text>
</a>
</g>
</g>
<!-- Node2&#45;&gt;Node14 -->
<g id="edge16" class="edge">
<title>Node2&#45;&gt;Node14</title>
<path fill="none" stroke="midnightblue" d="M417.57,-125.43C403.24,-108.4 379.47,-82.86 354,-67 347.5,-62.95 340.03,-59.62 332.76,-56.94"/>
<polygon fill="midnightblue" stroke="midnightblue" points="415.12,-127.96 424.16,-133.47 420.53,-123.52 415.12,-127.96"/>
</g>
<!-- Node16 -->
<g id="node16" class="node">
<title>Node16</title>
<g id="a_node16"><a xlink:href="fk20benchmark_8cu.html#a8cd0ecc09d4a9a4c418184789229b4f6" target="_top" xlink:title="Executes a test of FK20 with one block for each row. At the end, compare if the calculated h_fft is t...">
<polygon fill="white" stroke="black" points="258,-0.5 258,-19.5 340,-19.5 340,-0.5 258,-0.5"/>
<text text-anchor="middle" x="299" y="-7.5" font-family="Helvetica,sans-Serif" font-size="10.00">preBenchTest</text>
</a>
</g>
</g>
<!-- Node2&#45;&gt;Node16 -->
<g id="edge18" class="edge">
<title>Node2&#45;&gt;Node16</title>
<path fill="none" stroke="midnightblue" d="M423.26,-123.99C411.43,-98.83 387.34,-54.66 354,-29 349.04,-25.18 343.25,-22.09 337.34,-19.6"/>
<polygon fill="midnightblue" stroke="midnightblue" points="420.12,-125.55 427.44,-133.21 426.5,-122.66 420.12,-125.55"/>
</g>
<!-- Node4 -->
<g id="node4" class="node">
<title>Node4</title>
<g id="a_node4"><a xlink:href="fk20__512test_8cu.html#a30719348d219c529d6b43175cecd8427" target="_top" xlink:title="Test for fk20_poly2h_fft: polynomial &#45;&gt; h_fft.">
<polygon fill="white" stroke="black" points="84.5,-76.5 84.5,-95.5 200.5,-95.5 200.5,-76.5 84.5,-76.5"/>
<text text-anchor="middle" x="142.5" y="-83.5" font-family="Helvetica,sans-Serif" font-size="10.00">fk20_poly2h_fft_512</text>
</a>
</g>
</g>
<!-- Node3&#45;&gt;Node4 -->
<g id="edge3" class="edge">
<title>Node3&#45;&gt;Node4</title>
<path fill="none" stroke="midnightblue" d="M242.71,-86C229.09,-86 214.48,-86 200.77,-86"/>
<polygon fill="midnightblue" stroke="midnightblue" points="242.9,-89.5 252.9,-86 242.9,-82.5 242.9,-89.5"/>
</g>
<!-- Node5 -->
<g id="node5" class="node">
<title>Node5</title>
<g id="a_node5"><a xlink:href="fk20__512test_8cu.html#a3c04138a5bfe5d72780bb7e82a18e627" target="_top" xlink:title="Executes a many&#45;row tests on FK20. Behavior is similar to fk20test.cu but using many GPU blocks,...">
<polygon fill="white" stroke="black" points="0,-114.5 0,-133.5 41,-133.5 41,-114.5 0,-114.5"/>
<text text-anchor="middle" x="20.5" y="-121.5" font-family="Helvetica,sans-Serif" font-size="10.00">main</text>
</a>
</g>
</g>
<!-- Node4&#45;&gt;Node5 -->
<g id="edge4" class="edge">
<title>Node4&#45;&gt;Node5</title>
<path fill="none" stroke="midnightblue" d="M97.87,-98.57C90.87,-100.67 83.73,-102.86 77,-105 65.06,-108.8 51.78,-113.33 41.21,-117.02"/>
<polygon fill="midnightblue" stroke="midnightblue" points="99.35,-101.79 107.94,-95.59 97.36,-95.07 99.35,-101.79"/>
</g>
<!-- Node7 -->
<g id="node7" class="node">
<title>Node7</title>
<g id="a_node7"><a xlink:href="frtest_8cu.html#a3c04138a5bfe5d72780bb7e82a18e627" target="_top" xlink:title="Self test of the functions over Fr.">
<polygon fill="white" stroke="black" points="122,-190.5 122,-209.5 163,-209.5 163,-190.5 122,-190.5"/>
<text text-anchor="middle" x="142.5" y="-197.5" font-family="Helvetica,sans-Serif" font-size="10.00">main</text>
</a>
</g>
</g>
<!-- Node6&#45;&gt;Node7 -->
<g id="edge6" class="edge">
<title>Node6&#45;&gt;Node7</title>
<path fill="none" stroke="midnightblue" d="M257.56,-200C227.21,-200 186.96,-200 163.28,-200"/>
<polygon fill="midnightblue" stroke="midnightblue" points="257.84,-203.5 267.84,-200 257.84,-196.5 257.84,-203.5"/>
</g>
<!-- Node9 -->
<g id="node9" class="node">
<title>Node9</title>
<g id="a_node9"><a xlink:href="fk20test_8cuh.html#a3f978e98c96e45785d60ed0d96689521" target="_top" xlink:title=" ">
<polygon fill="white" stroke="black" points="101.5,-247.5 101.5,-266.5 183.5,-266.5 183.5,-247.5 101.5,-247.5"/>
<text text-anchor="middle" x="142.5" y="-254.5" font-family="Helvetica,sans-Serif" font-size="10.00">FK20TestPoly</text>
</a>
</g>
</g>
<!-- Node8&#45;&gt;Node9 -->
<g id="edge8" class="edge">
<title>Node8&#45;&gt;Node9</title>
<path fill="none" stroke="midnightblue" d="M262.6,-271.65C239.1,-268.76 208.19,-264.96 183.75,-261.95"/>
<polygon fill="midnightblue" stroke="midnightblue" points="262.48,-275.16 272.83,-272.91 263.34,-268.21 262.48,-275.16"/>
</g>
<!-- Node10 -->
<g id="node10" class="node">
<title>Node10</title>
<g id="a_node10"><a xlink:href="fk20test_8cu.html#ae66f6b31b5ad750f1fe042a706a4e3d4" target="_top" xlink:title=" ">
<polygon fill="white" stroke="black" points="0,-247.5 0,-266.5 41,-266.5 41,-247.5 0,-247.5"/>
<text text-anchor="middle" x="20.5" y="-254.5" font-family="Helvetica,sans-Serif" font-size="10.00">main</text>
</a>
</g>
</g>
<!-- Node9&#45;&gt;Node10 -->
<g id="edge9" class="edge">
<title>Node9&#45;&gt;Node10</title>
<path fill="none" stroke="midnightblue" d="M91,-257C73.35,-257 54.58,-257 41,-257"/>
<polygon fill="midnightblue" stroke="midnightblue" points="91.21,-260.5 101.21,-257 91.21,-253.5 91.21,-260.5"/>
</g>
<!-- Node11&#45;&gt;Node5 -->
<g id="edge11" class="edge">
<title>Node11&#45;&gt;Node5</title>
<path fill="none" stroke="midnightblue" d="M94.74,-124C76.14,-124 55.75,-124 41.21,-124"/>
<polygon fill="midnightblue" stroke="midnightblue" points="94.84,-127.5 104.84,-124 94.84,-120.5 94.84,-127.5"/>
</g>
<!-- Node12&#45;&gt;Node5 -->
<g id="edge13" class="edge">
<title>Node12&#45;&gt;Node5</title>
<path fill="none" stroke="midnightblue" d="M97.87,-149.43C90.87,-147.33 83.73,-145.14 77,-143 65.06,-139.2 51.78,-134.67 41.21,-130.98"/>
<polygon fill="midnightblue" stroke="midnightblue" points="97.36,-152.93 107.94,-152.41 99.35,-146.21 97.36,-152.93"/>
</g>
<!-- Node13&#45;&gt;Node9 -->
<g id="edge15" class="edge">
<title>Node13&#45;&gt;Node9</title>
<path fill="none" stroke="midnightblue" d="M233.56,-245.92C216.64,-248.01 198.87,-250.19 183.63,-252.07"/>
<polygon fill="midnightblue" stroke="midnightblue" points="234.47,-249.34 243.96,-244.65 233.61,-242.39 234.47,-249.34"/>
</g>
<!-- Node15 -->
<g id="node15" class="node">
<title>Node15</title>
<g id="a_node15"><a xlink:href="g1test_8cu.html#a3c04138a5bfe5d72780bb7e82a18e627" target="_top" xlink:title="Test for points in G1.">
<polygon fill="white" stroke="black" points="122,-38.5 122,-57.5 163,-57.5 163,-38.5 122,-38.5"/>
<text text-anchor="middle" x="142.5" y="-45.5" font-family="Helvetica,sans-Serif" font-size="10.00">main</text>
</a>
</g>
</g>
<!-- Node14&#45;&gt;Node15 -->
<g id="edge17" class="edge">
<title>Node14&#45;&gt;Node15</title>
<path fill="none" stroke="midnightblue" d="M254.98,-48C224.85,-48 186.02,-48 163.04,-48"/>
<polygon fill="midnightblue" stroke="midnightblue" points="255.23,-51.5 265.23,-48 255.23,-44.5 255.23,-51.5"/>
</g>
</g>
</svg>
        <g id="navigator" transform="translate(0 0)" fill="#404254">
                <rect fill="#f2f5e9" fill-opacity="0.5" stroke="#606060" stroke-width=".5" x="0" y="0" width="60" height="60"/>
                <use id="zoomplus" xlink:href="#zoomPlus" x="17" y="9" onmousedown="handleZoom(evt,'in')"/>
                <use id="zoomminus" xlink:href="#zoomMin" x="42" y="9" onmousedown="handleZoom(evt,'out')"/>
                <use id="reset" xlink:href="#resetDef" x="30" y="36" onmousedown="handleReset()"/>
                <g id="arrowUp" xlink:href="#dirArrow" transform="translate(30 24)" onmousedown="handlePan(0,-1)">
                  <use xlink:href="#rim" fill="#404040">
                        <set attributeName="fill" to="#808080" begin="arrowUp.mouseover" end="arrowUp.mouseout"/>
                  </use>
                  <path fill="none" stroke="white" stroke-width="1.5" d="M0,-3.0v7 M-2.5,-0.5L0,-3.0L2.5,-0.5"/>
                </g>
                <g id="arrowRight" xlink:href="#dirArrow" transform="rotate(90) translate(36 -43)" onmousedown="handlePan(1,0)">
                  <use xlink:href="#rim" fill="#404040">
                        <set attributeName="fill" to="#808080" begin="arrowRight.mouseover" end="arrowRight.mouseout"/>
                  </use>
                  <path fill="none" stroke="white" stroke-width="1.5" d="M0,-3.0v7 M-2.5,-0.5L0,-3.0L2.5,-0.5"/>
                </g>
                <g id="arrowDown" xlink:href="#dirArrow" transform="rotate(180) translate(-30 -48)" onmousedown="handlePan(0,1)">
                  <use xlink:href="#rim" fill="#404040">
                        <set attributeName="fill" to="#808080" begin="arrowDown.mouseover" end="arrowDown.mouseout"/>
                  </use>
                  <path fill="none" stroke="white" stroke-width="1.5" d="M0,-3.0v7 M-2.5,-0.5L0,-3.0L2.5,-0.5"/>
                </g>
                <g id="arrowLeft" xlink:href="#dirArrow" transform="rotate(270) translate(-36 17)" onmousedown="handlePan(-1,0)">
                  <use xlink:href="#rim" fill="#404040">
                        <set attributeName="fill" to="#808080" begin="arrowLeft.mouseover" end="arrowLeft.mouseout"/>
                  </use>
                  <path fill="none" stroke="white" stroke-width="1.5" d="M0,-3.0v7 M-2.5,-0.5L0,-3.0L2.5,-0.5"/>
                </g>
        </g>
        <svg viewBox="0 0 15 15" width="100%" height="30px" preserveAspectRatio="xMaxYMin meet">
         <g id="arrow_out" transform="scale(0.3 0.3)">
          <a xlink:href="fr_8cuh_aea5631ea87a7bab0cbc4e01740c416f6_icgraph_org.svg" target="_base">
           <rect id="button" ry="5" rx="5" y="6" x="6" height="38" width="38"
                fill="#f2f5e9" fill-opacity="0.5" stroke="#606060" stroke-width="1.0"/>
           <path id="arrow"
             d="M 11.500037,31.436501 C 11.940474,20.09759 22.043105,11.32322 32.158766,21.979434 L 37.068811,17.246167 C 37.068811,17.246167 37.088388,32 37.088388,32 L 22.160133,31.978069 C 22.160133,31.978069 26.997745,27.140456 26.997745,27.140456 C 18.528582,18.264221 13.291696,25.230495 11.500037,31.436501 z"
             style="fill:#404040;"/>
          </a>
         </g>
        </svg>
</svg>
