<?xml version="1.0" encoding="UTF-8" standalone="no"?>
<!DOCTYPE svg PUBLIC "-//W3C//DTD SVG 1.1//EN"
 "http://www.w3.org/Graphics/SVG/1.1/DTD/svg11.dtd">
<!-- Generated by graphviz version 2.43.0 (0)
 -->
<!-- Title: fr_x8 Pages: 1 -->
<svg width="253pt" height="28pt"
 viewBox="0.00 0.00 253.00 28.00" xmlns="http://www.w3.org/2000/svg" xmlns:xlink="http://www.w3.org/1999/xlink">
<g id="graph0" class="graph" transform="scale(1 1) rotate(0) translate(4 24)">
<title>fr_x8</title>
<polygon fill="white" stroke="transparent" points="-4,4 -4,-24 249,-24 249,4 -4,4"/>
<!-- Node1 -->
<g id="node1" class="node">
<title>Node1</title>
<g id="a_node1"><a xlink:title="Multiply z by 8, and stores in z, with weak reduction.">
<polygon fill="#bfbfbf" stroke="black" points="204,-0.5 204,-19.5 245,-19.5 245,-0.5 204,-0.5"/>
<text text-anchor="middle" x="224.5" y="-7.5" font-family="Helvetica,sans-Serif" font-size="10.00">fr_x8</text>
</a>
</g>
</g>
<!-- Node2 -->
<g id="node2" class="node">
<title>Node2</title>
<g id="a_node2"><a xlink:href="frtest__mulconst_8cu.html#aa528975311db670a1f658a498220adfa" target="_top" xlink:title="Test multiply by constant on Fr:">
<polygon fill="white" stroke="black" points="77,-0.5 77,-19.5 168,-19.5 168,-0.5 77,-0.5"/>
<text text-anchor="middle" x="122.5" y="-7.5" font-family="Helvetica,sans-Serif" font-size="10.00">FrTestMulConst</text>
</a>
</g>
</g>
<!-- Node1&#45;&gt;Node2 -->
<g id="edge1" class="edge">
<title>Node1&#45;&gt;Node2</title>
<path fill="none" stroke="midnightblue" d="M193.71,-10C185.64,-10 176.73,-10 168.04,-10"/>
<polygon fill="midnightblue" stroke="midnightblue" points="193.74,-13.5 203.74,-10 193.74,-6.5 193.74,-13.5"/>
</g>
<!-- Node3 -->
<g id="node3" class="node">
<title>Node3</title>
<g id="a_node3"><a xlink:href="frtest_8cu.html#a3c04138a5bfe5d72780bb7e82a18e627" target="_top" xlink:title="Self test of the functions over Fr.">
<polygon fill="white" stroke="black" points="0,-0.5 0,-19.5 41,-19.5 41,-0.5 0,-0.5"/>
<text text-anchor="middle" x="20.5" y="-7.5" font-family="Helvetica,sans-Serif" font-size="10.00">main</text>
</a>
</g>
</g>
<!-- Node2&#45;&gt;Node3 -->
<g id="edge2" class="edge">
<title>Node2&#45;&gt;Node3</title>
<path fill="none" stroke="midnightblue" d="M66.49,-10C57.42,-10 48.57,-10 41.15,-10"/>
<polygon fill="midnightblue" stroke="midnightblue" points="66.76,-13.5 76.76,-10 66.76,-6.5 66.76,-13.5"/>
</g>
</g>
</svg>
