<?xml version="1.0" encoding="UTF-8" standalone="no"?>
<!DOCTYPE svg PUBLIC "-//W3C//DTD SVG 1.1//EN"
 "http://www.w3.org/Graphics/SVG/1.1/DTD/svg11.dtd">
<!-- Generated by graphviz version 2.43.0 (0)
 -->
<!-- Title: fr_fft.cu Pages: 1 -->
<svg width="149pt" height="252pt"
 viewBox="0.00 0.00 148.69 252.00" xmlns="http://www.w3.org/2000/svg" xmlns:xlink="http://www.w3.org/1999/xlink">
<g id="graph0" class="graph" transform="scale(1 1) rotate(0) translate(4 248)">
<title>fr_fft.cu</title>
<polygon fill="white" stroke="transparent" points="-4,4 -4,-248 144.69,-248 144.69,4 -4,4"/>
<!-- Node1 -->
<g id="node1" class="node">
<title>Node1</title>
<g id="a_node1"><a xlink:title=" ">
<polygon fill="#bfbfbf" stroke="black" points="59.69,-224.5 59.69,-243.5 113.69,-243.5 113.69,-224.5 59.69,-224.5"/>
<text text-anchor="middle" x="86.69" y="-231.5" font-family="Helvetica,sans-Serif" font-size="10.00">fr_fft.cu</text>
</a>
</g>
</g>
<!-- Node2 -->
<g id="node2" class="node">
<title>Node2</title>
<g id="a_node2"><a xlink:href="fr_8cuh.html" target="_top" xlink:title=" ">
<polygon fill="white" stroke="black" points="96.69,-56.5 96.69,-75.5 140.69,-75.5 140.69,-56.5 96.69,-56.5"/>
<text text-anchor="middle" x="118.69" y="-63.5" font-family="Helvetica,sans-Serif" font-size="10.00">fr.cuh</text>
</a>
</g>
</g>
<!-- Node1&#45;&gt;Node2 -->
<g id="edge1" class="edge">
<title>Node1&#45;&gt;Node2</title>
<path fill="none" stroke="midnightblue" d="M88.71,-224.39C90.8,-215.35 94.13,-200.71 96.69,-188 103.99,-151.85 111.46,-109.39 115.54,-85.6"/>
<polygon fill="midnightblue" stroke="midnightblue" points="119.03,-85.98 117.26,-75.53 112.13,-84.8 119.03,-85.98"/>
</g>
<!-- Node4 -->
<g id="node4" class="node">
<title>Node4</title>
<g id="a_node4"><a xlink:href="fk20_8cuh.html" target="_top" xlink:title=" ">
<polygon fill="white" stroke="black" points="28.19,-168.5 28.19,-187.5 87.19,-187.5 87.19,-168.5 28.19,-168.5"/>
<text text-anchor="middle" x="57.69" y="-175.5" font-family="Helvetica,sans-Serif" font-size="10.00">fk20.cuh</text>
</a>
</g>
</g>
<!-- Node1&#45;&gt;Node4 -->
<g id="edge3" class="edge">
<title>Node1&#45;&gt;Node4</title>
<path fill="none" stroke="midnightblue" d="M81.9,-224.08C77.94,-216.69 72.17,-205.95 67.26,-196.81"/>
<polygon fill="midnightblue" stroke="midnightblue" points="70.21,-194.91 62.39,-187.75 64.04,-198.22 70.21,-194.91"/>
</g>
<!-- Node3 -->
<g id="node3" class="node">
<title>Node3</title>
<g id="a_node3"><a xlink:title=" ">
<polygon fill="white" stroke="#bfbfbf" points="2.19,-0.5 2.19,-19.5 55.19,-19.5 55.19,-0.5 2.19,-0.5"/>
<text text-anchor="middle" x="28.69" y="-7.5" font-family="Helvetica,sans-Serif" font-size="10.00">stdint.h</text>
</a>
</g>
</g>
<!-- Node2&#45;&gt;Node3 -->
<g id="edge2" class="edge">
<title>Node2&#45;&gt;Node3</title>
<path fill="none" stroke="midnightblue" d="M104.23,-56.32C90.19,-47.9 68.64,-34.97 52.15,-25.07"/>
<polygon fill="midnightblue" stroke="midnightblue" points="53.49,-21.8 43.12,-19.65 49.89,-27.8 53.49,-21.8"/>
</g>
<!-- Node4&#45;&gt;Node2 -->
<g id="edge5" class="edge">
<title>Node4&#45;&gt;Node2</title>
<path fill="none" stroke="midnightblue" d="M62.48,-168.37C72.46,-150.38 95.65,-108.55 108.92,-84.63"/>
<polygon fill="midnightblue" stroke="midnightblue" points="112.14,-86.03 113.93,-75.59 106.02,-82.64 112.14,-86.03"/>
</g>
<!-- Node4&#45;&gt;Node3 -->
<g id="edge4" class="edge">
<title>Node4&#45;&gt;Node3</title>
<path fill="none" stroke="midnightblue" d="M41.96,-168.24C29.8,-160.48 13.88,-147.93 6.69,-132 -8.83,-97.6 7.57,-53.02 19.21,-28.72"/>
<polygon fill="midnightblue" stroke="midnightblue" points="22.42,-30.14 23.8,-19.63 16.17,-26.98 22.42,-30.14"/>
</g>
<!-- Node5 -->
<g id="node5" class="node">
<title>Node5</title>
<g id="a_node5"><a xlink:href="g1_8cuh.html" target="_top" xlink:title=" ">
<polygon fill="white" stroke="black" points="16.19,-112.5 16.19,-131.5 65.19,-131.5 65.19,-112.5 16.19,-112.5"/>
<text text-anchor="middle" x="40.69" y="-119.5" font-family="Helvetica,sans-Serif" font-size="10.00">g1.cuh</text>
</a>
</g>
</g>
<!-- Node4&#45;&gt;Node5 -->
<g id="edge6" class="edge">
<title>Node4&#45;&gt;Node5</title>
<path fill="none" stroke="midnightblue" d="M54.89,-168.08C52.61,-160.85 49.32,-150.41 46.49,-141.4"/>
<polygon fill="midnightblue" stroke="midnightblue" points="49.79,-140.24 43.45,-131.75 43.11,-142.34 49.79,-140.24"/>
</g>
<!-- Node5&#45;&gt;Node2 -->
<g id="edge10" class="edge">
<title>Node5&#45;&gt;Node2</title>
<path fill="none" stroke="midnightblue" d="M53.23,-112.32C65.28,-103.98 83.72,-91.21 97.96,-81.35"/>
<polygon fill="midnightblue" stroke="midnightblue" points="99.96,-84.22 106.19,-75.65 95.98,-78.47 99.96,-84.22"/>
</g>
<!-- Node5&#45;&gt;Node3 -->
<g id="edge7" class="edge">
<title>Node5&#45;&gt;Node3</title>
<path fill="none" stroke="midnightblue" d="M35.82,-112.37C31.13,-103.55 24.39,-89.3 21.69,-76 18.59,-60.69 20.85,-43.04 23.6,-30.01"/>
<polygon fill="midnightblue" stroke="midnightblue" points="27.09,-30.45 26.02,-19.91 20.29,-28.82 27.09,-30.45"/>
</g>
<!-- Node6 -->
<g id="node6" class="node">
<title>Node6</title>
<g id="a_node6"><a xlink:href="fp_8cuh.html" target="_top" xlink:title=" ">
<polygon fill="white" stroke="black" points="31.19,-56.5 31.19,-75.5 78.19,-75.5 78.19,-56.5 31.19,-56.5"/>
<text text-anchor="middle" x="54.69" y="-63.5" font-family="Helvetica,sans-Serif" font-size="10.00">fp.cuh</text>
</a>
</g>
</g>
<!-- Node5&#45;&gt;Node6 -->
<g id="edge8" class="edge">
<title>Node5&#45;&gt;Node6</title>
<path fill="none" stroke="midnightblue" d="M43.01,-112.08C44.86,-104.93 47.53,-94.64 49.85,-85.69"/>
<polygon fill="midnightblue" stroke="midnightblue" points="53.3,-86.31 52.42,-75.75 46.53,-84.55 53.3,-86.31"/>
</g>
<!-- Node6&#45;&gt;Node3 -->
<g id="edge9" class="edge">
<title>Node6&#45;&gt;Node3</title>
<path fill="none" stroke="midnightblue" d="M50.4,-56.08C46.84,-48.69 41.67,-37.95 37.27,-28.81"/>
<polygon fill="midnightblue" stroke="midnightblue" points="40.4,-27.24 32.91,-19.75 34.09,-30.28 40.4,-27.24"/>
</g>
</g>
</svg>
