<?xml version="1.0" encoding="UTF-8" standalone="no"?>
<!DOCTYPE svg PUBLIC "-//W3C//DTD SVG 1.1//EN"
 "http://www.w3.org/Graphics/SVG/1.1/DTD/svg11.dtd">
<!-- Generated by graphviz version 2.43.0 (0)
 -->
<!-- Title: fr_fft Pages: 1 -->
<svg width="149pt" height="104pt"
 viewBox="0.00 0.00 149.00 104.00" xmlns="http://www.w3.org/2000/svg" xmlns:xlink="http://www.w3.org/1999/xlink">
<g id="graph0" class="graph" transform="scale(1 1) rotate(0) translate(4 100)">
<title>fr_fft</title>
<polygon fill="white" stroke="transparent" points="-4,4 -4,-100 145,-100 145,4 -4,4"/>
<!-- Node1 -->
<g id="node1" class="node">
<title>Node1</title>
<g id="a_node1"><a xlink:title="FFT over Fr.">
<polygon fill="#bfbfbf" stroke="black" points="0,-38.5 0,-57.5 40,-57.5 40,-38.5 0,-38.5"/>
<text text-anchor="middle" x="20" y="-45.5" font-family="Helvetica,sans-Serif" font-size="10.00">fr_fft</text>
</a>
</g>
</g>
<!-- Node2 -->
<g id="node2" class="node">
<title>Node2</title>
<g id="a_node2"><a xlink:href="fr_8cuh.html#a7f0553970ddea3d8c8823910fdea2d5c" target="_top" xlink:title="Computes the sum and the difference of the arguments, storing back into the arguments: (x,...">
<polygon fill="white" stroke="black" points="76,-76.5 76,-95.5 141,-95.5 141,-76.5 76,-76.5"/>
<text text-anchor="middle" x="108.5" y="-83.5" font-family="Helvetica,sans-Serif" font-size="10.00">fr_addsub</text>
</a>
</g>
</g>
<!-- Node1&#45;&gt;Node2 -->
<g id="edge1" class="edge">
<title>Node1&#45;&gt;Node2</title>
<path fill="none" stroke="midnightblue" d="M40.2,-56.43C50.8,-61.09 64.23,-66.99 76.3,-72.3"/>
<polygon fill="midnightblue" stroke="midnightblue" points="75.05,-75.57 85.61,-76.38 77.87,-69.16 75.05,-75.57"/>
</g>
<!-- Node3 -->
<g id="node3" class="node">
<title>Node3</title>
<g id="a_node3"><a xlink:href="fr_8cuh.html#a8abf9d8ad4b633144fcc0c6956d14056" target="_top" xlink:title="Copy from x into z.">
<polygon fill="white" stroke="black" points="85,-38.5 85,-57.5 132,-57.5 132,-38.5 85,-38.5"/>
<text text-anchor="middle" x="108.5" y="-45.5" font-family="Helvetica,sans-Serif" font-size="10.00">fr_cpy</text>
</a>
</g>
</g>
<!-- Node1&#45;&gt;Node3 -->
<g id="edge2" class="edge">
<title>Node1&#45;&gt;Node3</title>
<path fill="none" stroke="midnightblue" d="M40.2,-48C50.33,-48 63.05,-48 74.7,-48"/>
<polygon fill="midnightblue" stroke="midnightblue" points="74.99,-51.5 84.99,-48 74.99,-44.5 74.99,-51.5"/>
</g>
<!-- Node4 -->
<g id="node4" class="node">
<title>Node4</title>
<g id="a_node4"><a xlink:href="fr_8cuh.html#abaa90fa0475f5ddc32a4aee93de4e33b" target="_top" xlink:title="Multiply two residues module r z and x, stores back into z.">
<polygon fill="white" stroke="black" points="84.5,-0.5 84.5,-19.5 132.5,-19.5 132.5,-0.5 84.5,-0.5"/>
<text text-anchor="middle" x="108.5" y="-7.5" font-family="Helvetica,sans-Serif" font-size="10.00">fr_mul</text>
</a>
</g>
</g>
<!-- Node1&#45;&gt;Node4 -->
<g id="edge3" class="edge">
<title>Node1&#45;&gt;Node4</title>
<path fill="none" stroke="midnightblue" d="M40.2,-39.57C50.8,-34.91 64.23,-29.01 76.3,-23.7"/>
<polygon fill="midnightblue" stroke="midnightblue" points="77.87,-26.84 85.61,-19.62 75.05,-20.43 77.87,-26.84"/>
</g>
</g>
</svg>
