<?xml version="1.0" encoding="UTF-8" standalone="no"?>
<!DOCTYPE svg PUBLIC "-//W3C//DTD SVG 1.1//EN"
 "http://www.w3.org/Graphics/SVG/1.1/DTD/svg11.dtd">
<!-- Generated by graphviz version 2.43.0 (0)
 -->
<!-- Title: fr_sub Pages: 1 -->
<svg width="498pt" height="256pt"
 viewBox="0.00 0.00 498.00 256.00" xmlns="http://www.w3.org/2000/svg" xmlns:xlink="http://www.w3.org/1999/xlink">
<g id="graph0" class="graph" transform="scale(1 1) rotate(0) translate(4 252)">
<title>fr_sub</title>
<polygon fill="white" stroke="transparent" points="-4,4 -4,-252 494,-252 494,4 -4,4"/>
<!-- Node1 -->
<g id="node1" class="node">
<title>Node1</title>
<g id="a_node1"><a xlink:title="Calculates the difference of two residues modulo p and stores it into z.">
<polygon fill="#bfbfbf" stroke="black" points="443,-76.5 443,-95.5 490,-95.5 490,-76.5 443,-76.5"/>
<text text-anchor="middle" x="466.5" y="-83.5" font-family="Helvetica,sans-Serif" font-size="10.00">fr_sub</text>
</a>
</g>
</g>
<!-- Node2 -->
<g id="node2" class="node">
<title>Node2</title>
<g id="a_node2"><a xlink:href="fr_8cuh.html#a4e45802fc36909ab3c8a71f662689cfa" target="_top" xlink:title="Compares two residues modulo r.">
<polygon fill="white" stroke="black" points="366,-133.5 366,-152.5 407,-152.5 407,-133.5 366,-133.5"/>
<text text-anchor="middle" x="386.5" y="-140.5" font-family="Helvetica,sans-Serif" font-size="10.00">fr_eq</text>
</a>
</g>
</g>
<!-- Node1&#45;&gt;Node2 -->
<g id="edge1" class="edge">
<title>Node1&#45;&gt;Node2</title>
<path fill="none" stroke="midnightblue" d="M444.16,-101.59C430.2,-111.79 412.42,-124.79 400.54,-133.47"/>
<polygon fill="midnightblue" stroke="midnightblue" points="446.26,-104.4 452.27,-95.67 442.13,-98.74 446.26,-104.4"/>
</g>
<!-- Node11 -->
<g id="node11" class="node">
<title>Node11</title>
<g id="a_node11"><a xlink:href="frtest__fibonacci_8cu.html#ad97d52b82c26e99df17a0809f8c14ffb" target="_top" xlink:title="Test addition and subtraction in Fr using a fibonacci sequence (chain dependency) from 1 to ITERATION...">
<polygon fill="white" stroke="black" points="97,-0.5 97,-19.5 188,-19.5 188,-0.5 97,-0.5"/>
<text text-anchor="middle" x="142.5" y="-7.5" font-family="Helvetica,sans-Serif" font-size="10.00">FrTestFibonacci</text>
</a>
</g>
</g>
<!-- Node1&#45;&gt;Node11 -->
<g id="edge17" class="edge">
<title>Node1&#45;&gt;Node11</title>
<path fill="none" stroke="midnightblue" d="M432.93,-78.31C373.72,-64.34 248.58,-34.8 183.98,-19.55"/>
<polygon fill="midnightblue" stroke="midnightblue" points="432.32,-81.77 442.86,-80.66 433.93,-74.95 432.32,-81.77"/>
</g>
<!-- Node3 -->
<g id="node3" class="node">
<title>Node3</title>
<g id="a_node3"><a xlink:href="fr_8cu.html#a7db8fbb07292bc3ceab5ec0433d90cae" target="_top" xlink:title="Checks equality of two arrays of fr_t, element wise, and store in a byte array.">
<polygon fill="white" stroke="black" points="244,-190.5 244,-209.5 330,-209.5 330,-190.5 244,-190.5"/>
<text text-anchor="middle" x="287" y="-197.5" font-family="Helvetica,sans-Serif" font-size="10.00">fr_eq_wrapper</text>
</a>
</g>
</g>
<!-- Node2&#45;&gt;Node3 -->
<g id="edge2" class="edge">
<title>Node2&#45;&gt;Node3</title>
<path fill="none" stroke="midnightblue" d="M360.85,-157.78C351.24,-163.51 340.13,-170.1 330,-176 321.73,-180.82 312.5,-186.11 304.8,-190.49"/>
<polygon fill="midnightblue" stroke="midnightblue" points="362.72,-160.74 369.51,-152.6 359.13,-154.73 362.72,-160.74"/>
</g>
<!-- Node4 -->
<g id="node4" class="node">
<title>Node4</title>
<g id="a_node4"><a xlink:href="fr_8cuh.html#a4f11be4124fc653c718d01acc42cf7f2" target="_top" xlink:title="Compares two fr_t residues.">
<polygon fill="white" stroke="black" points="263.5,-114.5 263.5,-133.5 310.5,-133.5 310.5,-114.5 263.5,-114.5"/>
<text text-anchor="middle" x="287" y="-121.5" font-family="Helvetica,sans-Serif" font-size="10.00">fr_neq</text>
</a>
</g>
</g>
<!-- Node2&#45;&gt;Node4 -->
<g id="edge3" class="edge">
<title>Node2&#45;&gt;Node4</title>
<path fill="none" stroke="midnightblue" d="M355.79,-137.21C341.32,-134.39 324.2,-131.05 310.78,-128.44"/>
<polygon fill="midnightblue" stroke="midnightblue" points="355.28,-140.68 365.77,-139.16 356.62,-133.81 355.28,-140.68"/>
</g>
<!-- Node7 -->
<g id="node7" class="node">
<title>Node7</title>
<g id="a_node7"><a xlink:href="frtest__cmp_8cu.html#a871de10e2f93c77672721a62951f876a" target="_top" xlink:title="Test for the comparison function; checks for inconsistencies in the following properties:">
<polygon fill="white" stroke="black" points="108.5,-228.5 108.5,-247.5 176.5,-247.5 176.5,-228.5 108.5,-228.5"/>
<text text-anchor="middle" x="142.5" y="-235.5" font-family="Helvetica,sans-Serif" font-size="10.00">FrTestCmp</text>
</a>
</g>
</g>
<!-- Node2&#45;&gt;Node7 -->
<g id="edge16" class="edge">
<title>Node2&#45;&gt;Node7</title>
<path fill="none" stroke="midnightblue" d="M355.65,-146.21C325.68,-150.49 279.03,-160.13 244,-181 224.01,-192.91 227.84,-206.85 208,-219 198.54,-224.79 187.22,-228.9 176.72,-231.78"/>
<polygon fill="midnightblue" stroke="midnightblue" points="356.43,-149.64 365.89,-144.86 355.52,-142.7 356.43,-149.64"/>
</g>
<!-- Node5 -->
<g id="node5" class="node">
<title>Node5</title>
<g id="a_node5"><a xlink:href="fk20test__kat_8cu.html#ab98d98e4fa8d6750289ea3c3f6a9583d" target="_top" xlink:title=" ">
<polygon fill="white" stroke="black" points="106,-190.5 106,-209.5 179,-209.5 179,-190.5 106,-190.5"/>
<text text-anchor="middle" x="142.5" y="-197.5" font-family="Helvetica,sans-Serif" font-size="10.00">fr_fft_verify</text>
</a>
</g>
</g>
<!-- Node4&#45;&gt;Node5 -->
<g id="edge4" class="edge">
<title>Node4&#45;&gt;Node5</title>
<path fill="none" stroke="midnightblue" d="M258.02,-138.82C253.23,-141.69 248.38,-144.8 244,-148 226.47,-160.8 226.9,-170.32 208,-181 199.16,-186 188.88,-189.79 179.15,-192.62"/>
<polygon fill="midnightblue" stroke="midnightblue" points="260.11,-141.66 267.04,-133.66 256.63,-135.59 260.11,-141.66"/>
</g>
<!-- Node6 -->
<g id="node6" class="node">
<title>Node6</title>
<g id="a_node6"><a xlink:href="fk20test__kat_8cu.html#a564fcab8be0931ebf106961c1c6b327f" target="_top" xlink:title=" ">
<polygon fill="white" stroke="black" points="106.5,-152.5 106.5,-171.5 178.5,-171.5 178.5,-152.5 106.5,-152.5"/>
<text text-anchor="middle" x="142.5" y="-159.5" font-family="Helvetica,sans-Serif" font-size="10.00">fr_ift_verify</text>
</a>
</g>
</g>
<!-- Node4&#45;&gt;Node6 -->
<g id="edge5" class="edge">
<title>Node4&#45;&gt;Node6</title>
<path fill="none" stroke="midnightblue" d="M253.73,-132.6C231.4,-138.56 201.7,-146.48 178.75,-152.6"/>
<polygon fill="midnightblue" stroke="midnightblue" points="254.66,-135.98 263.42,-130.02 252.86,-129.22 254.66,-135.98"/>
</g>
<!-- Node4&#45;&gt;Node7 -->
<g id="edge6" class="edge">
<title>Node4&#45;&gt;Node7</title>
<path fill="none" stroke="midnightblue" d="M254.98,-138.89C251.01,-141.58 247.21,-144.62 244,-148 219.61,-173.63 235.2,-196.37 208,-219 199.21,-226.32 187.69,-230.82 176.83,-233.58"/>
<polygon fill="midnightblue" stroke="midnightblue" points="257.05,-141.73 263.8,-133.56 253.43,-135.74 257.05,-141.73"/>
</g>
<!-- Node9 -->
<g id="node9" class="node">
<title>Node9</title>
<g id="a_node9"><a xlink:href="frtest__add_8cu.html#a6372e698dff3983b1e875cf08c097d97" target="_top" xlink:title="Test the cumulative property of addition.">
<polygon fill="white" stroke="black" points="77,-114.5 77,-133.5 208,-133.5 208,-114.5 77,-114.5"/>
<text text-anchor="middle" x="142.5" y="-121.5" font-family="Helvetica,sans-Serif" font-size="10.00">FrTestCommutativeAdd</text>
</a>
</g>
</g>
<!-- Node4&#45;&gt;Node9 -->
<g id="edge8" class="edge">
<title>Node4&#45;&gt;Node9</title>
<path fill="none" stroke="midnightblue" d="M253.26,-124C239.82,-124 223.76,-124 208.13,-124"/>
<polygon fill="midnightblue" stroke="midnightblue" points="253.42,-127.5 263.42,-124 253.42,-120.5 253.42,-127.5"/>
</g>
<!-- Node10 -->
<g id="node10" class="node">
<title>Node10</title>
<g id="a_node10"><a xlink:href="frtest__mul_8cu.html#aba1ae7a1fb9958d713a549e881a8dcb2" target="_top" xlink:title="Test of the commutative property of multiplication x*y == y*x.">
<polygon fill="white" stroke="black" points="77.5,-76.5 77.5,-95.5 207.5,-95.5 207.5,-76.5 77.5,-76.5"/>
<text text-anchor="middle" x="142.5" y="-83.5" font-family="Helvetica,sans-Serif" font-size="10.00">FrTestCommutativeMul</text>
</a>
</g>
</g>
<!-- Node4&#45;&gt;Node10 -->
<g id="edge10" class="edge">
<title>Node4&#45;&gt;Node10</title>
<path fill="none" stroke="midnightblue" d="M253.5,-115.33C231.38,-109.43 202.09,-101.62 179.3,-95.55"/>
<polygon fill="midnightblue" stroke="midnightblue" points="252.86,-118.78 263.42,-117.98 254.66,-112.02 252.86,-118.78"/>
</g>
<!-- Node4&#45;&gt;Node11 -->
<g id="edge12" class="edge">
<title>Node4&#45;&gt;Node11</title>
<path fill="none" stroke="midnightblue" d="M273.17,-105.93C255.44,-81.43 223.86,-39.5 208,-29 201.97,-25 195.07,-21.83 188.09,-19.31"/>
<polygon fill="midnightblue" stroke="midnightblue" points="270.55,-108.28 279.22,-114.37 276.24,-104.2 270.55,-108.28"/>
</g>
<!-- Node12 -->
<g id="node12" class="node">
<title>Node12</title>
<g id="a_node12"><a xlink:href="frtest__mulconst_8cu.html#aa528975311db670a1f658a498220adfa" target="_top" xlink:title="Test multiply by constant on Fr:">
<polygon fill="white" stroke="black" points="97,-38.5 97,-57.5 188,-57.5 188,-38.5 97,-38.5"/>
<text text-anchor="middle" x="142.5" y="-45.5" font-family="Helvetica,sans-Serif" font-size="10.00">FrTestMulConst</text>
</a>
</g>
</g>
<!-- Node4&#45;&gt;Node12 -->
<g id="edge14" class="edge">
<title>Node4&#45;&gt;Node12</title>
<path fill="none" stroke="midnightblue" d="M267.42,-107.55C252.33,-94.93 230,-77.87 208,-67 200.46,-63.28 192.07,-60.15 183.88,-57.57"/>
<polygon fill="midnightblue" stroke="midnightblue" points="265.55,-110.55 275.42,-114.4 270.1,-105.23 265.55,-110.55"/>
</g>
<!-- Node8 -->
<g id="node8" class="node">
<title>Node8</title>
<g id="a_node8"><a xlink:href="frtest_8cu.html#a3c04138a5bfe5d72780bb7e82a18e627" target="_top" xlink:title="Self test of the functions over Fr.">
<polygon fill="white" stroke="black" points="0,-76.5 0,-95.5 41,-95.5 41,-76.5 0,-76.5"/>
<text text-anchor="middle" x="20.5" y="-83.5" font-family="Helvetica,sans-Serif" font-size="10.00">main</text>
</a>
</g>
</g>
<!-- Node7&#45;&gt;Node8 -->
<g id="edge7" class="edge">
<title>Node7&#45;&gt;Node8</title>
<path fill="none" stroke="midnightblue" d="M98.59,-231.17C90.75,-228.39 83.12,-224.49 77,-219 38.81,-184.76 26.2,-120.07 22.68,-95.66"/>
<polygon fill="midnightblue" stroke="midnightblue" points="97.6,-234.53 108.19,-234.03 99.6,-227.82 97.6,-234.53"/>
</g>
<!-- Node9&#45;&gt;Node8 -->
<g id="edge9" class="edge">
<title>Node9&#45;&gt;Node8</title>
<path fill="none" stroke="midnightblue" d="M97.87,-111.43C90.87,-109.33 83.73,-107.14 77,-105 65.06,-101.2 51.78,-96.67 41.21,-92.98"/>
<polygon fill="midnightblue" stroke="midnightblue" points="97.36,-114.93 107.94,-114.41 99.35,-108.21 97.36,-114.93"/>
</g>
<!-- Node10&#45;&gt;Node8 -->
<g id="edge11" class="edge">
<title>Node10&#45;&gt;Node8</title>
<path fill="none" stroke="midnightblue" d="M67.21,-86C57.68,-86 48.66,-86 41.19,-86"/>
<polygon fill="midnightblue" stroke="midnightblue" points="67.28,-89.5 77.28,-86 67.28,-82.5 67.28,-89.5"/>
</g>
<!-- Node11&#45;&gt;Node8 -->
<g id="edge13" class="edge">
<title>Node11&#45;&gt;Node8</title>
<path fill="none" stroke="midnightblue" d="M88.44,-23.17C84.46,-24.89 80.6,-26.83 77,-29 56.18,-41.55 37.76,-63.79 28.27,-76.46"/>
<polygon fill="midnightblue" stroke="midnightblue" points="89.81,-26.39 97.87,-19.52 87.29,-19.87 89.81,-26.39"/>
</g>
<!-- Node12&#45;&gt;Node8 -->
<g id="edge15" class="edge">
<title>Node12&#45;&gt;Node8</title>
<path fill="none" stroke="midnightblue" d="M97.87,-60.57C90.87,-62.67 83.73,-64.86 77,-67 65.06,-70.8 51.78,-75.33 41.21,-79.02"/>
<polygon fill="midnightblue" stroke="midnightblue" points="99.35,-63.79 107.94,-57.59 97.36,-57.07 99.35,-63.79"/>
</g>
</g>
</svg>
