<?xml version="1.0" encoding="UTF-8" standalone="no"?>
<!DOCTYPE svg PUBLIC "-//W3C//DTD SVG 1.1//EN"
 "http://www.w3.org/Graphics/SVG/1.1/DTD/svg11.dtd">
<!-- Generated by graphviz version 2.43.0 (0)
 -->
<!-- Title: fr_iszero Pages: 1 -->
<!--zoomable 275 -->
<svg id="main" version="1.1" xmlns="http://www.w3.org/2000/svg" xmlns:xlink="http://www.w3.org/1999/xlink" xml:space="preserve" onload="init(evt)">
<style type="text/css"><![CDATA[
.edge:hover path { stroke: red; }
.edge:hover polygon { stroke: red; fill: red; }
]]></style>
<script type="text/javascript"><![CDATA[
var edges = document.getElementsByTagName('g');
if (edges && edges.length) {
  for (var i=0;i<edges.length;i++) {
    if (edges[i].id.substr(0,4)=='edge') {
      edges[i].setAttribute('class','edge');
    }
  }
}
]]></script>
        <defs>
                <circle id="rim" cx="0" cy="0" r="7"/>
                <circle id="rim2" cx="0" cy="0" r="3.5"/>
                <g id="zoomPlus">
                        <use xlink:href="#rim" fill="#404040">
                                <set attributeName="fill" to="#808080" begin="zoomplus.mouseover" end="zoomplus.mouseout"/>
                        </use>
                        <path d="M-4,0h8M0,-4v8" fill="none" stroke="white" stroke-width="1.5" pointer-events="none"/>
                </g>
                <g id="zoomMin">
                        <use xlink:href="#rim" fill="#404040">
                                <set attributeName="fill" to="#808080" begin="zoomminus.mouseover" end="zoomminus.mouseout"/>
                        </use>
                        <path d="M-4,0h8" fill="none" stroke="white" stroke-width="1.5" pointer-events="none"/>
                </g>
                <g id="dirArrow">
                        <path fill="none" stroke="white" stroke-width="1.5" d="M0,-3.0v7 M-2.5,-0.5L0,-3.0L2.5,-0.5"/>
                </g>
               <g id="resetDef">
                       <use xlink:href="#rim2" fill="#404040">
                               <set attributeName="fill" to="#808080" begin="reset.mouseover" end="reset.mouseout"/>
                       </use>
               </g>
        </defs>

<script type="text/javascript">
var viewWidth = 510;
var viewHeight = 275;
var sectionId = 'dynsection-2';
</script>
<script xlink:href="svgpan.js"/>
<svg id="graph" class="graph">
<g id="viewport">
<title>fr_iszero</title>
<polygon fill="white" stroke="transparent" points="-4,4 -4,-271 506,-271 506,4 -4,4"/>
<!-- Node1 -->
<g id="node1" class="node">
<title>Node1</title>
<g id="a_node1"><a xlink:title="Checks if the residue x modulo f is congruent to zero.">
<polygon fill="#bfbfbf" stroke="black" points="443,-209.5 443,-228.5 502,-228.5 502,-209.5 443,-209.5"/>
<text text-anchor="middle" x="472.5" y="-216.5" font-family="Helvetica,sans-Serif" font-size="10.00">fr_iszero</text>
</a>
</g>
</g>
<!-- Node2 -->
<g id="node2" class="node">
<title>Node2</title>
<g id="a_node2"><a xlink:href="fr_8cuh.html#a4e45802fc36909ab3c8a71f662689cfa" target="_top" xlink:title="Compares two residues modulo r.">
<polygon fill="white" stroke="black" points="366,-209.5 366,-228.5 407,-228.5 407,-209.5 366,-209.5"/>
<text text-anchor="middle" x="386.5" y="-216.5" font-family="Helvetica,sans-Serif" font-size="10.00">fr_eq</text>
</a>
</g>
</g>
<!-- Node1&#45;&gt;Node2 -->
<g id="edge1" class="edge">
<title>Node1&#45;&gt;Node2</title>
<path fill="none" stroke="midnightblue" d="M432.48,-219C423.72,-219 414.78,-219 407.21,-219"/>
<polygon fill="midnightblue" stroke="midnightblue" points="432.59,-222.5 442.59,-219 432.59,-215.5 432.59,-222.5"/>
</g>
<!-- Node3 -->
<g id="node3" class="node">
<title>Node3</title>
<g id="a_node3"><a xlink:href="fr_8cu.html#a7db8fbb07292bc3ceab5ec0433d90cae" target="_top" xlink:title="Checks equality of two arrays of fr_t, element wise, and store in a byte array.">
<polygon fill="white" stroke="black" points="244,-247.5 244,-266.5 330,-266.5 330,-247.5 244,-247.5"/>
<text text-anchor="middle" x="287" y="-254.5" font-family="Helvetica,sans-Serif" font-size="10.00">fr_eq_wrapper</text>
</a>
</g>
</g>
<!-- Node2&#45;&gt;Node3 -->
<g id="edge2" class="edge">
<title>Node2&#45;&gt;Node3</title>
<path fill="none" stroke="midnightblue" d="M356.16,-230.43C342.24,-235.86 325.8,-242.27 312.55,-247.43"/>
<polygon fill="midnightblue" stroke="midnightblue" points="357.72,-233.58 365.77,-226.69 355.18,-227.06 357.72,-233.58"/>
</g>
<!-- Node4 -->
<g id="node4" class="node">
<title>Node4</title>
<g id="a_node4"><a xlink:href="fr_8cuh.html#a4f11be4124fc653c718d01acc42cf7f2" target="_top" xlink:title="Compares two fr_t residues.">
<polygon fill="white" stroke="black" points="263.5,-133.5 263.5,-152.5 310.5,-152.5 310.5,-133.5 263.5,-133.5"/>
<text text-anchor="middle" x="287" y="-140.5" font-family="Helvetica,sans-Serif" font-size="10.00">fr_neq</text>
</a>
</g>
</g>
<!-- Node2&#45;&gt;Node4 -->
<g id="edge3" class="edge">
<title>Node2&#45;&gt;Node4</title>
<path fill="none" stroke="midnightblue" d="M365.14,-203.13C345.54,-187.85 316.53,-165.24 300.25,-152.55"/>
<polygon fill="midnightblue" stroke="midnightblue" points="363.11,-205.99 373.15,-209.37 367.42,-200.47 363.11,-205.99"/>
</g>
<!-- Node7 -->
<g id="node7" class="node">
<title>Node7</title>
<g id="a_node7"><a xlink:href="frtest__cmp_8cu.html#a871de10e2f93c77672721a62951f876a" target="_top" xlink:title="Test for the comparison function; checks for inconsistencies in the following properties:">
<polygon fill="white" stroke="black" points="108.5,-228.5 108.5,-247.5 176.5,-247.5 176.5,-228.5 108.5,-228.5"/>
<text text-anchor="middle" x="142.5" y="-235.5" font-family="Helvetica,sans-Serif" font-size="10.00">FrTestCmp</text>
</a>
</g>
</g>
<!-- Node2&#45;&gt;Node7 -->
<g id="edge16" class="edge">
<title>Node2&#45;&gt;Node7</title>
<path fill="none" stroke="midnightblue" d="M355.61,-221.35C310.24,-224.91 224.27,-231.66 176.9,-235.38"/>
<polygon fill="midnightblue" stroke="midnightblue" points="356,-224.83 365.7,-220.55 355.45,-217.85 356,-224.83"/>
</g>
<!-- Node5 -->
<g id="node5" class="node">
<title>Node5</title>
<g id="a_node5"><a xlink:href="fk20test__kat_8cu.html#ab98d98e4fa8d6750289ea3c3f6a9583d" target="_top" xlink:title=" ">
<polygon fill="white" stroke="black" points="106,-190.5 106,-209.5 179,-209.5 179,-190.5 106,-190.5"/>
<text text-anchor="middle" x="142.5" y="-197.5" font-family="Helvetica,sans-Serif" font-size="10.00">fr_fft_verify</text>
</a>
</g>
</g>
<!-- Node4&#45;&gt;Node5 -->
<g id="edge4" class="edge">
<title>Node4&#45;&gt;Node5</title>
<path fill="none" stroke="midnightblue" d="M259.31,-157.38C244.47,-165.02 225.51,-174.21 208,-181 198.75,-184.59 188.53,-187.89 179.01,-190.69"/>
<polygon fill="midnightblue" stroke="midnightblue" points="261.17,-160.35 268.41,-152.62 257.93,-154.15 261.17,-160.35"/>
</g>
<!-- Node6 -->
<g id="node6" class="node">
<title>Node6</title>
<g id="a_node6"><a xlink:href="fk20test__kat_8cu.html#a564fcab8be0931ebf106961c1c6b327f" target="_top" xlink:title=" ">
<polygon fill="white" stroke="black" points="106.5,-152.5 106.5,-171.5 178.5,-171.5 178.5,-152.5 106.5,-152.5"/>
<text text-anchor="middle" x="142.5" y="-159.5" font-family="Helvetica,sans-Serif" font-size="10.00">fr_ift_verify</text>
</a>
</g>
</g>
<!-- Node4&#45;&gt;Node6 -->
<g id="edge5" class="edge">
<title>Node4&#45;&gt;Node6</title>
<path fill="none" stroke="midnightblue" d="M253.43,-147.34C231.14,-150.32 201.59,-154.25 178.75,-157.3"/>
<polygon fill="midnightblue" stroke="midnightblue" points="253.97,-150.8 263.42,-146.01 253.05,-143.86 253.97,-150.8"/>
</g>
<!-- Node4&#45;&gt;Node7 -->
<g id="edge6" class="edge">
<title>Node4&#45;&gt;Node7</title>
<path fill="none" stroke="midnightblue" d="M272.13,-160.85C257.82,-178.1 233.99,-203.79 208,-219 198.43,-224.6 187.08,-228.66 176.59,-231.55"/>
<polygon fill="midnightblue" stroke="midnightblue" points="275.15,-162.68 278.71,-152.7 269.7,-158.28 275.15,-162.68"/>
</g>
<!-- Node9 -->
<g id="node9" class="node">
<title>Node9</title>
<g id="a_node9"><a xlink:href="frtest__add_8cu.html#a6372e698dff3983b1e875cf08c097d97" target="_top" xlink:title="Test the cumulative property of addition.">
<polygon fill="white" stroke="black" points="77,-114.5 77,-133.5 208,-133.5 208,-114.5 77,-114.5"/>
<text text-anchor="middle" x="142.5" y="-121.5" font-family="Helvetica,sans-Serif" font-size="10.00">FrTestCommutativeAdd</text>
</a>
</g>
</g>
<!-- Node4&#45;&gt;Node9 -->
<g id="edge8" class="edge">
<title>Node4&#45;&gt;Node9</title>
<path fill="none" stroke="midnightblue" d="M253.26,-138.63C239.82,-136.84 223.76,-134.7 208.13,-132.62"/>
<polygon fill="midnightblue" stroke="midnightblue" points="253.05,-142.14 263.42,-139.99 253.97,-135.2 253.05,-142.14"/>
</g>
<!-- Node10 -->
<g id="node10" class="node">
<title>Node10</title>
<g id="a_node10"><a xlink:href="frtest__mul_8cu.html#aba1ae7a1fb9958d713a549e881a8dcb2" target="_top" xlink:title="Test of the commutative property of multiplication x*y == y*x.">
<polygon fill="white" stroke="black" points="77.5,-76.5 77.5,-95.5 207.5,-95.5 207.5,-76.5 77.5,-76.5"/>
<text text-anchor="middle" x="142.5" y="-83.5" font-family="Helvetica,sans-Serif" font-size="10.00">FrTestCommutativeMul</text>
</a>
</g>
</g>
<!-- Node4&#45;&gt;Node10 -->
<g id="edge10" class="edge">
<title>Node4&#45;&gt;Node10</title>
<path fill="none" stroke="midnightblue" d="M259.31,-128.62C244.47,-120.98 225.51,-111.79 208,-105 198.97,-101.5 189.01,-98.27 179.68,-95.5"/>
<polygon fill="midnightblue" stroke="midnightblue" points="257.93,-131.85 268.41,-133.38 261.17,-125.65 257.93,-131.85"/>
</g>
<!-- Node11 -->
<g id="node11" class="node">
<title>Node11</title>
<g id="a_node11"><a xlink:href="frtest__fibonacci_8cu.html#ad97d52b82c26e99df17a0809f8c14ffb" target="_top" xlink:title="Test addition and subtraction in Fr using a fibonacci sequence (chain dependency) from 1 to ITERATION...">
<polygon fill="white" stroke="black" points="97,-38.5 97,-57.5 188,-57.5 188,-38.5 97,-38.5"/>
<text text-anchor="middle" x="142.5" y="-45.5" font-family="Helvetica,sans-Serif" font-size="10.00">FrTestFibonacci</text>
</a>
</g>
</g>
<!-- Node4&#45;&gt;Node11 -->
<g id="edge12" class="edge">
<title>Node4&#45;&gt;Node11</title>
<path fill="none" stroke="midnightblue" d="M272.13,-125.15C257.82,-107.9 233.99,-82.21 208,-67 201.45,-63.17 194.07,-60.06 186.7,-57.55"/>
<polygon fill="midnightblue" stroke="midnightblue" points="269.7,-127.72 278.71,-133.3 275.15,-123.32 269.7,-127.72"/>
</g>
<!-- Node12 -->
<g id="node12" class="node">
<title>Node12</title>
<g id="a_node12"><a xlink:href="frtest__mulconst_8cu.html#aa528975311db670a1f658a498220adfa" target="_top" xlink:title="Test multiply by constant on Fr:">
<polygon fill="white" stroke="black" points="97,-0.5 97,-19.5 188,-19.5 188,-0.5 97,-0.5"/>
<text text-anchor="middle" x="142.5" y="-7.5" font-family="Helvetica,sans-Serif" font-size="10.00">FrTestMulConst</text>
</a>
</g>
</g>
<!-- Node4&#45;&gt;Node12 -->
<g id="edge14" class="edge">
<title>Node4&#45;&gt;Node12</title>
<path fill="none" stroke="midnightblue" d="M278.04,-124.12C266.38,-98.73 242.27,-53.91 208,-29 202.05,-24.68 195.12,-21.33 188.06,-18.74"/>
<polygon fill="midnightblue" stroke="midnightblue" points="274.9,-125.67 282.14,-133.4 281.3,-122.84 274.9,-125.67"/>
</g>
<!-- Node8 -->
<g id="node8" class="node">
<title>Node8</title>
<g id="a_node8"><a xlink:href="frtest_8cu.html#a3c04138a5bfe5d72780bb7e82a18e627" target="_top" xlink:title="Self test of the functions over Fr.">
<polygon fill="white" stroke="black" points="0,-76.5 0,-95.5 41,-95.5 41,-76.5 0,-76.5"/>
<text text-anchor="middle" x="20.5" y="-83.5" font-family="Helvetica,sans-Serif" font-size="10.00">main</text>
</a>
</g>
</g>
<!-- Node7&#45;&gt;Node8 -->
<g id="edge7" class="edge">
<title>Node7&#45;&gt;Node8</title>
<path fill="none" stroke="midnightblue" d="M98.59,-231.17C90.75,-228.39 83.12,-224.49 77,-219 38.81,-184.76 26.2,-120.07 22.68,-95.66"/>
<polygon fill="midnightblue" stroke="midnightblue" points="97.6,-234.53 108.19,-234.03 99.6,-227.82 97.6,-234.53"/>
</g>
<!-- Node9&#45;&gt;Node8 -->
<g id="edge9" class="edge">
<title>Node9&#45;&gt;Node8</title>
<path fill="none" stroke="midnightblue" d="M97.87,-111.43C90.87,-109.33 83.73,-107.14 77,-105 65.06,-101.2 51.78,-96.67 41.21,-92.98"/>
<polygon fill="midnightblue" stroke="midnightblue" points="97.36,-114.93 107.94,-114.41 99.35,-108.21 97.36,-114.93"/>
</g>
<!-- Node10&#45;&gt;Node8 -->
<g id="edge11" class="edge">
<title>Node10&#45;&gt;Node8</title>
<path fill="none" stroke="midnightblue" d="M67.21,-86C57.68,-86 48.66,-86 41.19,-86"/>
<polygon fill="midnightblue" stroke="midnightblue" points="67.28,-89.5 77.28,-86 67.28,-82.5 67.28,-89.5"/>
</g>
<!-- Node11&#45;&gt;Node8 -->
<g id="edge13" class="edge">
<title>Node11&#45;&gt;Node8</title>
<path fill="none" stroke="midnightblue" d="M97.87,-60.57C90.87,-62.67 83.73,-64.86 77,-67 65.06,-70.8 51.78,-75.33 41.21,-79.02"/>
<polygon fill="midnightblue" stroke="midnightblue" points="99.35,-63.79 107.94,-57.59 97.36,-57.07 99.35,-63.79"/>
</g>
<!-- Node12&#45;&gt;Node8 -->
<g id="edge15" class="edge">
<title>Node12&#45;&gt;Node8</title>
<path fill="none" stroke="midnightblue" d="M88.44,-23.17C84.46,-24.89 80.6,-26.83 77,-29 56.18,-41.55 37.76,-63.79 28.27,-76.46"/>
<polygon fill="midnightblue" stroke="midnightblue" points="89.81,-26.39 97.87,-19.52 87.29,-19.87 89.81,-26.39"/>
</g>
</g>
</svg>
        <g id="navigator" transform="translate(0 0)" fill="#404254">
                <rect fill="#f2f5e9" fill-opacity="0.5" stroke="#606060" stroke-width=".5" x="0" y="0" width="60" height="60"/>
                <use id="zoomplus" xlink:href="#zoomPlus" x="17" y="9" onmousedown="handleZoom(evt,'in')"/>
                <use id="zoomminus" xlink:href="#zoomMin" x="42" y="9" onmousedown="handleZoom(evt,'out')"/>
                <use id="reset" xlink:href="#resetDef" x="30" y="36" onmousedown="handleReset()"/>
                <g id="arrowUp" xlink:href="#dirArrow" transform="translate(30 24)" onmousedown="handlePan(0,-1)">
                  <use xlink:href="#rim" fill="#404040">
                        <set attributeName="fill" to="#808080" begin="arrowUp.mouseover" end="arrowUp.mouseout"/>
                  </use>
                  <path fill="none" stroke="white" stroke-width="1.5" d="M0,-3.0v7 M-2.5,-0.5L0,-3.0L2.5,-0.5"/>
                </g>
                <g id="arrowRight" xlink:href="#dirArrow" transform="rotate(90) translate(36 -43)" onmousedown="handlePan(1,0)">
                  <use xlink:href="#rim" fill="#404040">
                        <set attributeName="fill" to="#808080" begin="arrowRight.mouseover" end="arrowRight.mouseout"/>
                  </use>
                  <path fill="none" stroke="white" stroke-width="1.5" d="M0,-3.0v7 M-2.5,-0.5L0,-3.0L2.5,-0.5"/>
                </g>
                <g id="arrowDown" xlink:href="#dirArrow" transform="rotate(180) translate(-30 -48)" onmousedown="handlePan(0,1)">
                  <use xlink:href="#rim" fill="#404040">
                        <set attributeName="fill" to="#808080" begin="arrowDown.mouseover" end="arrowDown.mouseout"/>
                  </use>
                  <path fill="none" stroke="white" stroke-width="1.5" d="M0,-3.0v7 M-2.5,-0.5L0,-3.0L2.5,-0.5"/>
                </g>
                <g id="arrowLeft" xlink:href="#dirArrow" transform="rotate(270) translate(-36 17)" onmousedown="handlePan(-1,0)">
                  <use xlink:href="#rim" fill="#404040">
                        <set attributeName="fill" to="#808080" begin="arrowLeft.mouseover" end="arrowLeft.mouseout"/>
                  </use>
                  <path fill="none" stroke="white" stroke-width="1.5" d="M0,-3.0v7 M-2.5,-0.5L0,-3.0L2.5,-0.5"/>
                </g>
        </g>
        <svg viewBox="0 0 15 15" width="100%" height="30px" preserveAspectRatio="xMaxYMin meet">
         <g id="arrow_out" transform="scale(0.3 0.3)">
          <a xlink:href="fr__iszero_8cu_a78b8df6518ee14cdf2cdc025abf902fa_icgraph_org.svg" target="_base">
           <rect id="button" ry="5" rx="5" y="6" x="6" height="38" width="38"
                fill="#f2f5e9" fill-opacity="0.5" stroke="#606060" stroke-width="1.0"/>
           <path id="arrow"
             d="M 11.500037,31.436501 C 11.940474,20.09759 22.043105,11.32322 32.158766,21.979434 L 37.068811,17.246167 C 37.068811,17.246167 37.088388,32 37.088388,32 L 22.160133,31.978069 C 22.160133,31.978069 26.997745,27.140456 26.997745,27.140456 C 18.528582,18.264221 13.291696,25.230495 11.500037,31.436501 z"
             style="fill:#404040;"/>
          </a>
         </g>
        </svg>
</svg>
