<?xml version="1.0" encoding="UTF-8" standalone="no"?>
<!DOCTYPE svg PUBLIC "-//W3C//DTD SVG 1.1//EN"
 "http://www.w3.org/Graphics/SVG/1.1/DTD/svg11.dtd">
<!-- Generated by graphviz version 2.43.0 (0)
 -->
<!-- Title: fr_eq Pages: 1 -->
<svg width="248pt" height="104pt"
 viewBox="0.00 0.00 248.00 104.00" xmlns="http://www.w3.org/2000/svg" xmlns:xlink="http://www.w3.org/1999/xlink">
<g id="graph0" class="graph" transform="scale(1 1) rotate(0) translate(4 100)">
<title>fr_eq</title>
<polygon fill="white" stroke="transparent" points="-4,4 -4,-100 244,-100 244,4 -4,4"/>
<!-- Node1 -->
<g id="node1" class="node">
<title>Node1</title>
<g id="a_node1"><a xlink:title="Compares two residues modulo r.">
<polygon fill="#bfbfbf" stroke="black" points="0,-38.5 0,-57.5 41,-57.5 41,-38.5 0,-38.5"/>
<text text-anchor="middle" x="20.5" y="-45.5" font-family="Helvetica,sans-Serif" font-size="10.00">fr_eq</text>
</a>
</g>
</g>
<!-- Node2 -->
<g id="node2" class="node">
<title>Node2</title>
<g id="a_node2"><a xlink:href="fr_8cuh.html#a8abf9d8ad4b633144fcc0c6956d14056" target="_top" xlink:title="Copy from x into z.">
<polygon fill="white" stroke="black" points="182.5,-76.5 182.5,-95.5 229.5,-95.5 229.5,-76.5 182.5,-76.5"/>
<text text-anchor="middle" x="206" y="-83.5" font-family="Helvetica,sans-Serif" font-size="10.00">fr_cpy</text>
</a>
</g>
</g>
<!-- Node1&#45;&gt;Node2 -->
<g id="edge1" class="edge">
<title>Node1&#45;&gt;Node2</title>
<path fill="none" stroke="midnightblue" d="M41.02,-55.66C51.54,-59.54 64.83,-64.04 77,-67 108.85,-74.75 145.97,-79.83 172.01,-82.78"/>
<polygon fill="midnightblue" stroke="midnightblue" points="171.78,-86.27 182.1,-83.87 172.54,-79.31 171.78,-86.27"/>
</g>
<!-- Node3 -->
<g id="node3" class="node">
<title>Node3</title>
<g id="a_node3"><a xlink:href="fr_8cuh.html#a78b8df6518ee14cdf2cdc025abf902fa" target="_top" xlink:title="Checks if the residue x modulo f is congruent to zero.">
<polygon fill="white" stroke="black" points="77,-38.5 77,-57.5 136,-57.5 136,-38.5 77,-38.5"/>
<text text-anchor="middle" x="106.5" y="-45.5" font-family="Helvetica,sans-Serif" font-size="10.00">fr_iszero</text>
</a>
</g>
</g>
<!-- Node1&#45;&gt;Node3 -->
<g id="edge2" class="edge">
<title>Node1&#45;&gt;Node3</title>
<path fill="none" stroke="midnightblue" d="M41.41,-48C49.01,-48 57.96,-48 66.72,-48"/>
<polygon fill="midnightblue" stroke="midnightblue" points="66.83,-51.5 76.83,-48 66.83,-44.5 66.83,-51.5"/>
</g>
<!-- Node5 -->
<g id="node5" class="node">
<title>Node5</title>
<g id="a_node5"><a xlink:href="fr_8cuh.html#a06643f48ada0bf9fa0a1bb1e605def94" target="_top" xlink:title="Calculates the difference of two residues modulo p and stores it into z.">
<polygon fill="white" stroke="black" points="83,-0.5 83,-19.5 130,-19.5 130,-0.5 83,-0.5"/>
<text text-anchor="middle" x="106.5" y="-7.5" font-family="Helvetica,sans-Serif" font-size="10.00">fr_sub</text>
</a>
</g>
</g>
<!-- Node1&#45;&gt;Node5 -->
<g id="edge5" class="edge">
<title>Node1&#45;&gt;Node5</title>
<path fill="none" stroke="midnightblue" d="M41.41,-38.99C51.39,-34.48 63.7,-28.91 74.85,-23.87"/>
<polygon fill="midnightblue" stroke="midnightblue" points="76.6,-26.92 84.27,-19.61 73.71,-20.54 76.6,-26.92"/>
</g>
<!-- Node3&#45;&gt;Node2 -->
<g id="edge3" class="edge">
<title>Node3&#45;&gt;Node2</title>
<path fill="none" stroke="midnightblue" d="M132.1,-57.59C144.42,-62.39 159.49,-68.26 172.72,-73.42"/>
<polygon fill="midnightblue" stroke="midnightblue" points="171.82,-76.83 182.41,-77.2 174.36,-70.3 171.82,-76.83"/>
</g>
<!-- Node4 -->
<g id="node4" class="node">
<title>Node4</title>
<g id="a_node4"><a xlink:href="fr_8cuh.html#aa53ac2a9b28c7f128a9ee8e106abcf3c" target="_top" xlink:title="Reduced the value in fr_t to the field modulus.">
<polygon fill="white" stroke="black" points="172,-38.5 172,-57.5 240,-57.5 240,-38.5 172,-38.5"/>
<text text-anchor="middle" x="206" y="-45.5" font-family="Helvetica,sans-Serif" font-size="10.00">fr_reduce4</text>
</a>
</g>
</g>
<!-- Node3&#45;&gt;Node4 -->
<g id="edge4" class="edge">
<title>Node3&#45;&gt;Node4</title>
<path fill="none" stroke="midnightblue" d="M136.23,-48C144.13,-48 152.89,-48 161.43,-48"/>
<polygon fill="midnightblue" stroke="midnightblue" points="161.68,-51.5 171.68,-48 161.68,-44.5 161.68,-51.5"/>
</g>
</g>
</svg>
