<?xml version="1.0" encoding="UTF-8" standalone="no"?>
<!DOCTYPE svg PUBLIC "-//W3C//DTD SVG 1.1//EN"
 "http://www.w3.org/Graphics/SVG/1.1/DTD/svg11.dtd">
<!-- Generated by graphviz version 2.43.0 (0)
 -->
<!-- Title: fr_neq Pages: 1 -->
<svg width="299pt" height="256pt"
 viewBox="0.00 0.00 299.00 256.00" xmlns="http://www.w3.org/2000/svg" xmlns:xlink="http://www.w3.org/1999/xlink">
<g id="graph0" class="graph" transform="scale(1 1) rotate(0) translate(4 252)">
<title>fr_neq</title>
<polygon fill="white" stroke="transparent" points="-4,4 -4,-252 295,-252 295,4 -4,4"/>
<!-- Node1 -->
<g id="node1" class="node">
<title>Node1</title>
<g id="a_node1"><a xlink:title="Compares two fr_t residues.">
<polygon fill="#bfbfbf" stroke="black" points="244,-114.5 244,-133.5 291,-133.5 291,-114.5 244,-114.5"/>
<text text-anchor="middle" x="267.5" y="-121.5" font-family="Helvetica,sans-Serif" font-size="10.00">fr_neq</text>
</a>
</g>
</g>
<!-- Node2 -->
<g id="node2" class="node">
<title>Node2</title>
<g id="a_node2"><a xlink:href="fk20test__kat_8cu.html#ab98d98e4fa8d6750289ea3c3f6a9583d" target="_top" xlink:title=" ">
<polygon fill="white" stroke="black" points="106,-228.5 106,-247.5 179,-247.5 179,-228.5 106,-228.5"/>
<text text-anchor="middle" x="142.5" y="-235.5" font-family="Helvetica,sans-Serif" font-size="10.00">fr_fft_verify</text>
</a>
</g>
</g>
<!-- Node1&#45;&gt;Node2 -->
<g id="edge1" class="edge">
<title>Node1&#45;&gt;Node2</title>
<path fill="none" stroke="midnightblue" d="M259.61,-143.12C250.88,-164.68 233.79,-199.29 208,-219 199.65,-225.38 189.2,-229.62 179.16,-232.44"/>
<polygon fill="midnightblue" stroke="midnightblue" points="262.91,-144.29 263.23,-133.7 256.38,-141.78 262.91,-144.29"/>
</g>
<!-- Node3 -->
<g id="node3" class="node">
<title>Node3</title>
<g id="a_node3"><a xlink:href="fk20test__kat_8cu.html#a564fcab8be0931ebf106961c1c6b327f" target="_top" xlink:title=" ">
<polygon fill="white" stroke="black" points="106.5,-190.5 106.5,-209.5 178.5,-209.5 178.5,-190.5 106.5,-190.5"/>
<text text-anchor="middle" x="142.5" y="-197.5" font-family="Helvetica,sans-Serif" font-size="10.00">fr_ift_verify</text>
</a>
</g>
</g>
<!-- Node1&#45;&gt;Node3 -->
<g id="edge2" class="edge">
<title>Node1&#45;&gt;Node3</title>
<path fill="none" stroke="midnightblue" d="M252.6,-141.53C241.7,-154.17 225.5,-170.76 208,-181 199.03,-186.25 188.5,-190.14 178.59,-192.99"/>
<polygon fill="midnightblue" stroke="midnightblue" points="255.55,-143.46 259.24,-133.53 250.16,-138.98 255.55,-143.46"/>
</g>
<!-- Node4 -->
<g id="node4" class="node">
<title>Node4</title>
<g id="a_node4"><a xlink:href="frtest__cmp_8cu.html#a871de10e2f93c77672721a62951f876a" target="_top" xlink:title="Test for the comparison function; checks for inconsistencies in the following properties:">
<polygon fill="white" stroke="black" points="108.5,-152.5 108.5,-171.5 176.5,-171.5 176.5,-152.5 108.5,-152.5"/>
<text text-anchor="middle" x="142.5" y="-159.5" font-family="Helvetica,sans-Serif" font-size="10.00">FrTestCmp</text>
</a>
</g>
</g>
<!-- Node1&#45;&gt;Node4 -->
<g id="edge3" class="edge">
<title>Node1&#45;&gt;Node4</title>
<path fill="none" stroke="midnightblue" d="M234.18,-134.67C225.68,-137.43 216.5,-140.37 208,-143 197.85,-146.14 186.77,-149.45 176.7,-152.41"/>
<polygon fill="midnightblue" stroke="midnightblue" points="235.34,-137.97 243.77,-131.54 233.17,-131.32 235.34,-137.97"/>
</g>
<!-- Node6 -->
<g id="node6" class="node">
<title>Node6</title>
<g id="a_node6"><a xlink:href="frtest__add_8cu.html#a6372e698dff3983b1e875cf08c097d97" target="_top" xlink:title="Test the cumulative property of addition.">
<polygon fill="white" stroke="black" points="77,-114.5 77,-133.5 208,-133.5 208,-114.5 77,-114.5"/>
<text text-anchor="middle" x="142.5" y="-121.5" font-family="Helvetica,sans-Serif" font-size="10.00">FrTestCommutativeAdd</text>
</a>
</g>
</g>
<!-- Node1&#45;&gt;Node6 -->
<g id="edge5" class="edge">
<title>Node1&#45;&gt;Node6</title>
<path fill="none" stroke="midnightblue" d="M233.94,-124C225.91,-124 217.02,-124 208.05,-124"/>
<polygon fill="midnightblue" stroke="midnightblue" points="233.94,-127.5 243.94,-124 233.94,-120.5 233.94,-127.5"/>
</g>
<!-- Node7 -->
<g id="node7" class="node">
<title>Node7</title>
<g id="a_node7"><a xlink:href="frtest__mul_8cu.html#aba1ae7a1fb9958d713a549e881a8dcb2" target="_top" xlink:title="Test of the commutative property of multiplication x*y == y*x.">
<polygon fill="white" stroke="black" points="77.5,-76.5 77.5,-95.5 207.5,-95.5 207.5,-76.5 77.5,-76.5"/>
<text text-anchor="middle" x="142.5" y="-83.5" font-family="Helvetica,sans-Serif" font-size="10.00">FrTestCommutativeMul</text>
</a>
</g>
</g>
<!-- Node1&#45;&gt;Node7 -->
<g id="edge7" class="edge">
<title>Node1&#45;&gt;Node7</title>
<path fill="none" stroke="midnightblue" d="M234.18,-113.33C225.68,-110.57 216.5,-107.63 208,-105 197.85,-101.86 186.77,-98.55 176.7,-95.59"/>
<polygon fill="midnightblue" stroke="midnightblue" points="233.17,-116.68 243.77,-116.46 235.34,-110.03 233.17,-116.68"/>
</g>
<!-- Node8 -->
<g id="node8" class="node">
<title>Node8</title>
<g id="a_node8"><a xlink:href="frtest__fibonacci_8cu.html#ad97d52b82c26e99df17a0809f8c14ffb" target="_top" xlink:title="Test addition and subtraction in Fr using a fibonacci sequence (chain dependency) from 1 to ITERATION...">
<polygon fill="white" stroke="black" points="97,-38.5 97,-57.5 188,-57.5 188,-38.5 97,-38.5"/>
<text text-anchor="middle" x="142.5" y="-45.5" font-family="Helvetica,sans-Serif" font-size="10.00">FrTestFibonacci</text>
</a>
</g>
</g>
<!-- Node1&#45;&gt;Node8 -->
<g id="edge9" class="edge">
<title>Node1&#45;&gt;Node8</title>
<path fill="none" stroke="midnightblue" d="M252.6,-106.47C241.7,-93.83 225.5,-77.24 208,-67 201.45,-63.17 194.07,-60.06 186.7,-57.55"/>
<polygon fill="midnightblue" stroke="midnightblue" points="250.16,-109.02 259.24,-114.47 255.55,-104.54 250.16,-109.02"/>
</g>
<!-- Node9 -->
<g id="node9" class="node">
<title>Node9</title>
<g id="a_node9"><a xlink:href="frtest__mulconst_8cu.html#aa528975311db670a1f658a498220adfa" target="_top" xlink:title="Test multiply by constant on Fr:">
<polygon fill="white" stroke="black" points="97,-0.5 97,-19.5 188,-19.5 188,-0.5 97,-0.5"/>
<text text-anchor="middle" x="142.5" y="-7.5" font-family="Helvetica,sans-Serif" font-size="10.00">FrTestMulConst</text>
</a>
</g>
</g>
<!-- Node1&#45;&gt;Node9 -->
<g id="edge11" class="edge">
<title>Node1&#45;&gt;Node9</title>
<path fill="none" stroke="midnightblue" d="M259.61,-104.88C250.88,-83.32 233.79,-48.71 208,-29 202.16,-24.53 195.28,-21.11 188.24,-18.5"/>
<polygon fill="midnightblue" stroke="midnightblue" points="256.38,-106.22 263.23,-114.3 262.91,-103.71 256.38,-106.22"/>
</g>
<!-- Node5 -->
<g id="node5" class="node">
<title>Node5</title>
<g id="a_node5"><a xlink:href="frtest_8cu.html#a3c04138a5bfe5d72780bb7e82a18e627" target="_top" xlink:title="Self test of the functions over Fr.">
<polygon fill="white" stroke="black" points="0,-76.5 0,-95.5 41,-95.5 41,-76.5 0,-76.5"/>
<text text-anchor="middle" x="20.5" y="-83.5" font-family="Helvetica,sans-Serif" font-size="10.00">main</text>
</a>
</g>
</g>
<!-- Node4&#45;&gt;Node5 -->
<g id="edge4" class="edge">
<title>Node4&#45;&gt;Node5</title>
<path fill="none" stroke="midnightblue" d="M98.57,-152.72C91.09,-150.17 83.6,-146.98 77,-143 56.18,-130.45 37.76,-108.21 28.27,-95.54"/>
<polygon fill="midnightblue" stroke="midnightblue" points="97.74,-156.12 108.32,-155.7 99.79,-149.43 97.74,-156.12"/>
</g>
<!-- Node6&#45;&gt;Node5 -->
<g id="edge6" class="edge">
<title>Node6&#45;&gt;Node5</title>
<path fill="none" stroke="midnightblue" d="M97.87,-111.43C90.87,-109.33 83.73,-107.14 77,-105 65.06,-101.2 51.78,-96.67 41.21,-92.98"/>
<polygon fill="midnightblue" stroke="midnightblue" points="97.36,-114.93 107.94,-114.41 99.35,-108.21 97.36,-114.93"/>
</g>
<!-- Node7&#45;&gt;Node5 -->
<g id="edge8" class="edge">
<title>Node7&#45;&gt;Node5</title>
<path fill="none" stroke="midnightblue" d="M67.21,-86C57.68,-86 48.66,-86 41.19,-86"/>
<polygon fill="midnightblue" stroke="midnightblue" points="67.28,-89.5 77.28,-86 67.28,-82.5 67.28,-89.5"/>
</g>
<!-- Node8&#45;&gt;Node5 -->
<g id="edge10" class="edge">
<title>Node8&#45;&gt;Node5</title>
<path fill="none" stroke="midnightblue" d="M97.87,-60.57C90.87,-62.67 83.73,-64.86 77,-67 65.06,-70.8 51.78,-75.33 41.21,-79.02"/>
<polygon fill="midnightblue" stroke="midnightblue" points="99.35,-63.79 107.94,-57.59 97.36,-57.07 99.35,-63.79"/>
</g>
<!-- Node9&#45;&gt;Node5 -->
<g id="edge12" class="edge">
<title>Node9&#45;&gt;Node5</title>
<path fill="none" stroke="midnightblue" d="M88.44,-23.17C84.46,-24.89 80.6,-26.83 77,-29 56.18,-41.55 37.76,-63.79 28.27,-76.46"/>
<polygon fill="midnightblue" stroke="midnightblue" points="89.81,-26.39 97.87,-19.52 87.29,-19.87 89.81,-26.39"/>
</g>
</g>
</svg>
