<?xml version="1.0" encoding="UTF-8" standalone="no"?>
<!DOCTYPE svg PUBLIC "-//W3C//DTD SVG 1.1//EN"
 "http://www.w3.org/Graphics/SVG/1.1/DTD/svg11.dtd">
<!-- Generated by graphviz version 2.43.0 (0)
 -->
<!-- Title: fr_mul Pages: 1 -->
<svg width="722pt" height="408pt"
 viewBox="0.00 0.00 722.00 408.00" xmlns="http://www.w3.org/2000/svg" xmlns:xlink="http://www.w3.org/1999/xlink">
<g id="graph0" class="graph" transform="scale(1 1) rotate(0) translate(4 404)">
<title>fr_mul</title>
<polygon fill="white" stroke="transparent" points="-4,4 -4,-404 718,-404 718,4 -4,4"/>
<!-- Node1 -->
<g id="node1" class="node">
<title>Node1</title>
<g id="a_node1"><a xlink:title="Multiply two residues module r z and x, stores back into z.">
<polygon fill="#bfbfbf" stroke="black" points="666,-95.5 666,-114.5 714,-114.5 714,-95.5 666,-95.5"/>
<text text-anchor="middle" x="690" y="-102.5" font-family="Helvetica,sans-Serif" font-size="10.00">fr_mul</text>
</a>
</g>
</g>
<!-- Node2 -->
<g id="node2" class="node">
<title>Node2</title>
<g id="a_node2"><a xlink:href="fr_8cuh.html#aea5631ea87a7bab0cbc4e01740c416f6" target="_top" xlink:title="FFT over Fr.">
<polygon fill="white" stroke="black" points="573,-209.5 573,-228.5 613,-228.5 613,-209.5 573,-209.5"/>
<text text-anchor="middle" x="593" y="-216.5" font-family="Helvetica,sans-Serif" font-size="10.00">fr_fft</text>
</a>
</g>
</g>
<!-- Node1&#45;&gt;Node2 -->
<g id="edge1" class="edge">
<title>Node1&#45;&gt;Node2</title>
<path fill="none" stroke="midnightblue" d="M675.92,-122.85C664.27,-138.51 646.55,-161.72 630,-181 621.48,-190.93 611.15,-201.71 603.75,-209.25"/>
<polygon fill="midnightblue" stroke="midnightblue" points="678.89,-124.72 682.02,-114.6 673.26,-120.56 678.89,-124.72"/>
</g>
<!-- Node18 -->
<g id="node18" class="node">
<title>Node18</title>
<g id="a_node18"><a xlink:href="fr_8cuh.html#ae4ccd980840d9d286f91be4f07dcb47a" target="_top" xlink:title="Inverse FFT for fr_t[512].">
<polygon fill="white" stroke="black" points="573.5,-152.5 573.5,-171.5 612.5,-171.5 612.5,-152.5 573.5,-152.5"/>
<text text-anchor="middle" x="593" y="-159.5" font-family="Helvetica,sans-Serif" font-size="10.00">fr_ift</text>
</a>
</g>
</g>
<!-- Node1&#45;&gt;Node18 -->
<g id="edge20" class="edge">
<title>Node1&#45;&gt;Node18</title>
<path fill="none" stroke="midnightblue" d="M666.21,-120.33C655.37,-127.45 642.16,-135.89 630,-143 624.51,-146.21 618.43,-149.51 612.85,-152.44"/>
<polygon fill="midnightblue" stroke="midnightblue" points="668.27,-123.17 674.67,-114.72 664.4,-117.33 668.27,-123.17"/>
</g>
<!-- Node20 -->
<g id="node20" class="node">
<title>Node20</title>
<g id="a_node20"><a xlink:href="fr_8cuh.html#ac601c06e698074f5d4e58608274f8476" target="_top" xlink:title="Calculates the multiplicative inverse of z, and stores back.">
<polygon fill="white" stroke="black" points="571,-114.5 571,-133.5 615,-133.5 615,-114.5 571,-114.5"/>
<text text-anchor="middle" x="593" y="-121.5" font-family="Helvetica,sans-Serif" font-size="10.00">fr_inv</text>
</a>
</g>
</g>
<!-- Node1&#45;&gt;Node20 -->
<g id="edge23" class="edge">
<title>Node1&#45;&gt;Node20</title>
<path fill="none" stroke="midnightblue" d="M655.66,-111.67C642.24,-114.35 627.16,-117.37 615.27,-119.75"/>
<polygon fill="midnightblue" stroke="midnightblue" points="656.4,-115.09 665.52,-109.7 655.02,-108.23 656.4,-115.09"/>
</g>
<!-- Node21 -->
<g id="node21" class="node">
<title>Node21</title>
<g id="a_node21"><a xlink:href="frtest__mul_8cu.html#aba1ae7a1fb9958d713a549e881a8dcb2" target="_top" xlink:title="Test of the commutative property of multiplication x*y == y*x.">
<polygon fill="white" stroke="black" points="390,-76.5 390,-95.5 520,-95.5 520,-76.5 390,-76.5"/>
<text text-anchor="middle" x="455" y="-83.5" font-family="Helvetica,sans-Serif" font-size="10.00">FrTestCommutativeMul</text>
</a>
</g>
</g>
<!-- Node1&#45;&gt;Node21 -->
<g id="edge24" class="edge">
<title>Node1&#45;&gt;Node21</title>
<path fill="none" stroke="midnightblue" d="M655.6,-102.28C620.42,-99.41 564.15,-94.82 520.3,-91.24"/>
<polygon fill="midnightblue" stroke="midnightblue" points="655.56,-105.78 665.81,-103.11 656.12,-98.81 655.56,-105.78"/>
</g>
<!-- Node22 -->
<g id="node22" class="node">
<title>Node22</title>
<g id="a_node22"><a xlink:href="fk20test__kat_8cu.html#af4e2901a3856a43df5d0d5b3ab1b9f22" target="_top" xlink:title=" ">
<polygon fill="white" stroke="black" points="556,-38.5 556,-57.5 630,-57.5 630,-38.5 556,-38.5"/>
<text text-anchor="middle" x="593" y="-45.5" font-family="Helvetica,sans-Serif" font-size="10.00">g1p_fft_test</text>
</a>
</g>
</g>
<!-- Node1&#45;&gt;Node22 -->
<g id="edge26" class="edge">
<title>Node1&#45;&gt;Node22</title>
<path fill="none" stroke="midnightblue" d="M663.97,-89.98C646.83,-79.7 624.63,-66.38 609.88,-57.53"/>
<polygon fill="midnightblue" stroke="midnightblue" points="662.51,-93.19 672.88,-95.33 666.11,-87.18 662.51,-93.19"/>
</g>
<!-- Node23 -->
<g id="node23" class="node">
<title>Node23</title>
<g id="a_node23"><a xlink:href="fk20test__kat_8cu.html#a810a4fc2187ce9e046441226d9778f4b" target="_top" xlink:title=" ">
<polygon fill="white" stroke="black" points="560.5,-0.5 560.5,-19.5 625.5,-19.5 625.5,-0.5 560.5,-0.5"/>
<text text-anchor="middle" x="593" y="-7.5" font-family="Helvetica,sans-Serif" font-size="10.00">gen_roots</text>
</a>
</g>
</g>
<!-- Node1&#45;&gt;Node23 -->
<g id="edge27" class="edge">
<title>Node1&#45;&gt;Node23</title>
<path fill="none" stroke="midnightblue" d="M677.71,-86.23C667.01,-69.62 649.68,-45.51 630,-29 625.78,-25.46 620.79,-22.31 615.89,-19.64"/>
<polygon fill="midnightblue" stroke="midnightblue" points="674.94,-88.41 683.21,-95.03 680.88,-84.7 674.94,-88.41"/>
</g>
<!-- Node3 -->
<g id="node3" class="node">
<title>Node3</title>
<g id="a_node3"><a xlink:href="fr_8cuh.html#abf810ba4f2672a8d319e6cdbfc8ba68e" target="_top" xlink:title="wrapper for fr_fft: FFT for fr_t[512]">
<polygon fill="white" stroke="black" points="412.5,-228.5 412.5,-247.5 497.5,-247.5 497.5,-228.5 412.5,-228.5"/>
<text text-anchor="middle" x="455" y="-235.5" font-family="Helvetica,sans-Serif" font-size="10.00">fr_fft_wrapper</text>
</a>
</g>
</g>
<!-- Node2&#45;&gt;Node3 -->
<g id="edge2" class="edge">
<title>Node2&#45;&gt;Node3</title>
<path fill="none" stroke="midnightblue" d="M562.69,-223.1C543.74,-225.74 518.79,-229.23 497.78,-232.16"/>
<polygon fill="midnightblue" stroke="midnightblue" points="563.38,-226.53 572.8,-221.68 562.41,-219.6 563.38,-226.53"/>
</g>
<!-- Node4 -->
<g id="node4" class="node">
<title>Node4</title>
<g id="a_node4"><a xlink:href="fk20_8cuh.html#a428f2dcc8b77723e4def6f684f790ceb" target="_top" xlink:title="polynomial + xext_fft &#45;&gt; h_fft This function is a wrapper for the full FK20 computation,...">
<polygon fill="white" stroke="black" points="253,-152.5 253,-171.5 345,-171.5 345,-152.5 253,-152.5"/>
<text text-anchor="middle" x="299" y="-159.5" font-family="Helvetica,sans-Serif" font-size="10.00">fk20_poly2h_fft</text>
</a>
</g>
</g>
<!-- Node3&#45;&gt;Node4 -->
<g id="edge3" class="edge">
<title>Node3&#45;&gt;Node4</title>
<path fill="none" stroke="midnightblue" d="M427.61,-223.72C407.58,-213.01 379.26,-198.17 354,-186 343.65,-181.01 332.02,-175.8 322.21,-171.51"/>
<polygon fill="midnightblue" stroke="midnightblue" points="426,-226.82 436.46,-228.46 429.31,-220.65 426,-226.82"/>
</g>
<!-- Node7 -->
<g id="node7" class="node">
<title>Node7</title>
<g id="a_node7"><a xlink:href="frtest_8cuh.html#a4ded3b3b54bb394b4168cb5f92ec72b4" target="_top" xlink:title="Tests fft and inverse fft over Fr using KAT.">
<polygon fill="white" stroke="black" points="268,-114.5 268,-133.5 330,-133.5 330,-114.5 268,-114.5"/>
<text text-anchor="middle" x="299" y="-121.5" font-family="Helvetica,sans-Serif" font-size="10.00">FrTestFFT</text>
</a>
</g>
</g>
<!-- Node3&#45;&gt;Node7 -->
<g id="edge6" class="edge">
<title>Node3&#45;&gt;Node7</title>
<path fill="none" stroke="midnightblue" d="M439.64,-220.42C421.62,-199.38 388.83,-164.31 354,-143 346.71,-138.54 338.22,-134.93 330.17,-132.11"/>
<polygon fill="midnightblue" stroke="midnightblue" points="437.11,-222.84 446.22,-228.25 442.47,-218.34 437.11,-222.84"/>
</g>
<!-- Node9 -->
<g id="node9" class="node">
<title>Node9</title>
<g id="a_node9"><a xlink:href="fk20test_8cuh.html#a219d5d803685ea0067dfa4908a620e11" target="_top" xlink:title=" ">
<polygon fill="white" stroke="black" points="273,-304.5 273,-323.5 325,-323.5 325,-304.5 273,-304.5"/>
<text text-anchor="middle" x="299" y="-311.5" font-family="Helvetica,sans-Serif" font-size="10.00">fullTest</text>
</a>
</g>
</g>
<!-- Node3&#45;&gt;Node9 -->
<g id="edge8" class="edge">
<title>Node3&#45;&gt;Node9</title>
<path fill="none" stroke="midnightblue" d="M430.53,-252.98C410.66,-265.27 381.15,-282.61 354,-295 344.78,-299.21 334.33,-303.08 325.1,-306.21"/>
<polygon fill="midnightblue" stroke="midnightblue" points="432.58,-255.83 439.2,-247.56 428.86,-249.9 432.58,-255.83"/>
</g>
<!-- Node12 -->
<g id="node12" class="node">
<title>Node12</title>
<g id="a_node12"><a xlink:href="fk20__512test_8cu.html#a4de6443d77d1c56d1d49715061ba60db" target="_top" xlink:title="Executes many FK20 computations on a single row, with a check on each step. A computation failure wil...">
<polygon fill="white" stroke="black" points="105,-190.5 105,-209.5 180,-209.5 180,-190.5 105,-190.5"/>
<text text-anchor="middle" x="142.5" y="-197.5" font-family="Helvetica,sans-Serif" font-size="10.00">fullTest_512</text>
</a>
</g>
</g>
<!-- Node3&#45;&gt;Node12 -->
<g id="edge11" class="edge">
<title>Node3&#45;&gt;Node12</title>
<path fill="none" stroke="midnightblue" d="M402.38,-231.68C339.73,-224.01 235.62,-211.27 180.45,-204.52"/>
<polygon fill="midnightblue" stroke="midnightblue" points="402.1,-235.17 412.45,-232.91 402.95,-228.23 402.1,-235.17"/>
</g>
<!-- Node13 -->
<g id="node13" class="node">
<title>Node13</title>
<g id="a_node13"><a xlink:href="fk20__512test_8cu.html#a537be6501bbccff0654c4ca1b2fd83ae" target="_top" xlink:title="Similar to fullTest, but polynomial is has changes done to it. The function checks for false&#45;positive...">
<polygon fill="white" stroke="black" points="77,-228.5 77,-247.5 208,-247.5 208,-228.5 77,-228.5"/>
<text text-anchor="middle" x="142.5" y="-235.5" font-family="Helvetica,sans-Serif" font-size="10.00">fullTestFalseability_512</text>
</a>
</g>
</g>
<!-- Node3&#45;&gt;Node13 -->
<g id="edge13" class="edge">
<title>Node3&#45;&gt;Node13</title>
<path fill="none" stroke="midnightblue" d="M402.19,-238C348.85,-238 265.61,-238 208.02,-238"/>
<polygon fill="midnightblue" stroke="midnightblue" points="402.45,-241.5 412.45,-238 402.45,-234.5 402.45,-241.5"/>
</g>
<!-- Node14 -->
<g id="node14" class="node">
<title>Node14</title>
<g id="a_node14"><a xlink:href="fk20test_8cuh.html#a8d2cfb1e9fc0723c345460c7ad438df1" target="_top" xlink:title=" ">
<polygon fill="white" stroke="black" points="244,-342.5 244,-361.5 354,-361.5 354,-342.5 244,-342.5"/>
<text text-anchor="middle" x="299" y="-349.5" font-family="Helvetica,sans-Serif" font-size="10.00">fullTestFalsifiability</text>
</a>
</g>
</g>
<!-- Node3&#45;&gt;Node14 -->
<g id="edge15" class="edge">
<title>Node3&#45;&gt;Node14</title>
<path fill="none" stroke="midnightblue" d="M439.64,-255.58C421.62,-276.62 388.83,-311.69 354,-333 347.9,-336.73 340.95,-339.87 334.13,-342.45"/>
<polygon fill="midnightblue" stroke="midnightblue" points="442.47,-257.66 446.22,-247.75 437.11,-253.16 442.47,-257.66"/>
</g>
<!-- Node15 -->
<g id="node15" class="node">
<title>Node15</title>
<g id="a_node15"><a xlink:href="g1test_8cuh.html#af69268816d41d8e3c477c70066f7bfcf" target="_top" xlink:title="Test for FFT and IFFT of points on the G1 curve. Checks self consistency with the following propertie...">
<polygon fill="white" stroke="black" points="265.5,-380.5 265.5,-399.5 332.5,-399.5 332.5,-380.5 265.5,-380.5"/>
<text text-anchor="middle" x="299" y="-387.5" font-family="Helvetica,sans-Serif" font-size="10.00">G1TestFFT</text>
</a>
</g>
</g>
<!-- Node3&#45;&gt;Node15 -->
<g id="edge17" class="edge">
<title>Node3&#45;&gt;Node15</title>
<path fill="none" stroke="midnightblue" d="M444.74,-256.48C429.56,-284.99 396.74,-339.69 354,-371 347.67,-375.64 340.1,-379.23 332.66,-381.97"/>
<polygon fill="midnightblue" stroke="midnightblue" points="447.87,-258.05 449.36,-247.57 441.65,-254.83 447.87,-258.05"/>
</g>
<!-- Node17 -->
<g id="node17" class="node">
<title>Node17</title>
<g id="a_node17"><a xlink:href="fk20benchmark_8cu.html#a8cd0ecc09d4a9a4c418184789229b4f6" target="_top" xlink:title="Executes a test of FK20 with one block for each row. At the end, compare if the calculated h_fft is t...">
<polygon fill="white" stroke="black" points="258,-266.5 258,-285.5 340,-285.5 340,-266.5 258,-266.5"/>
<text text-anchor="middle" x="299" y="-273.5" font-family="Helvetica,sans-Serif" font-size="10.00">preBenchTest</text>
</a>
</g>
</g>
<!-- Node3&#45;&gt;Node17 -->
<g id="edge19" class="edge">
<title>Node3&#45;&gt;Node17</title>
<path fill="none" stroke="midnightblue" d="M405.21,-250.04C383.69,-255.35 358.77,-261.5 338.58,-266.48"/>
<polygon fill="midnightblue" stroke="midnightblue" points="406.27,-253.38 415.14,-247.59 404.59,-246.59 406.27,-253.38"/>
</g>
<!-- Node5 -->
<g id="node5" class="node">
<title>Node5</title>
<g id="a_node5"><a xlink:href="fk20__512test_8cu.html#a30719348d219c529d6b43175cecd8427" target="_top" xlink:title="Test for fk20_poly2h_fft: polynomial &#45;&gt; h_fft.">
<polygon fill="white" stroke="black" points="84.5,-152.5 84.5,-171.5 200.5,-171.5 200.5,-152.5 84.5,-152.5"/>
<text text-anchor="middle" x="142.5" y="-159.5" font-family="Helvetica,sans-Serif" font-size="10.00">fk20_poly2h_fft_512</text>
</a>
</g>
</g>
<!-- Node4&#45;&gt;Node5 -->
<g id="edge4" class="edge">
<title>Node4&#45;&gt;Node5</title>
<path fill="none" stroke="midnightblue" d="M242.71,-162C229.09,-162 214.48,-162 200.77,-162"/>
<polygon fill="midnightblue" stroke="midnightblue" points="242.9,-165.5 252.9,-162 242.9,-158.5 242.9,-165.5"/>
</g>
<!-- Node6 -->
<g id="node6" class="node">
<title>Node6</title>
<g id="a_node6"><a xlink:href="fk20__512test_8cu.html#a3c04138a5bfe5d72780bb7e82a18e627" target="_top" xlink:title="Executes a many&#45;row tests on FK20. Behavior is similar to fk20test.cu but using many GPU blocks,...">
<polygon fill="white" stroke="black" points="0,-190.5 0,-209.5 41,-209.5 41,-190.5 0,-190.5"/>
<text text-anchor="middle" x="20.5" y="-197.5" font-family="Helvetica,sans-Serif" font-size="10.00">main</text>
</a>
</g>
</g>
<!-- Node5&#45;&gt;Node6 -->
<g id="edge5" class="edge">
<title>Node5&#45;&gt;Node6</title>
<path fill="none" stroke="midnightblue" d="M97.87,-174.57C90.87,-176.67 83.73,-178.86 77,-181 65.06,-184.8 51.78,-189.33 41.21,-193.02"/>
<polygon fill="midnightblue" stroke="midnightblue" points="99.35,-177.79 107.94,-171.59 97.36,-171.07 99.35,-177.79"/>
</g>
<!-- Node8 -->
<g id="node8" class="node">
<title>Node8</title>
<g id="a_node8"><a xlink:href="frtest_8cu.html#a3c04138a5bfe5d72780bb7e82a18e627" target="_top" xlink:title="Self test of the functions over Fr.">
<polygon fill="white" stroke="black" points="122,-95.5 122,-114.5 163,-114.5 163,-95.5 122,-95.5"/>
<text text-anchor="middle" x="142.5" y="-102.5" font-family="Helvetica,sans-Serif" font-size="10.00">main</text>
</a>
</g>
</g>
<!-- Node7&#45;&gt;Node8 -->
<g id="edge7" class="edge">
<title>Node7&#45;&gt;Node8</title>
<path fill="none" stroke="midnightblue" d="M257.56,-119.03C227.21,-115.29 186.96,-110.34 163.28,-107.43"/>
<polygon fill="midnightblue" stroke="midnightblue" points="257.49,-122.54 267.84,-120.29 258.35,-115.6 257.49,-122.54"/>
</g>
<!-- Node10 -->
<g id="node10" class="node">
<title>Node10</title>
<g id="a_node10"><a xlink:href="fk20test_8cuh.html#a3f978e98c96e45785d60ed0d96689521" target="_top" xlink:title=" ">
<polygon fill="white" stroke="black" points="101.5,-323.5 101.5,-342.5 183.5,-342.5 183.5,-323.5 101.5,-323.5"/>
<text text-anchor="middle" x="142.5" y="-330.5" font-family="Helvetica,sans-Serif" font-size="10.00">FK20TestPoly</text>
</a>
</g>
</g>
<!-- Node9&#45;&gt;Node10 -->
<g id="edge9" class="edge">
<title>Node9&#45;&gt;Node10</title>
<path fill="none" stroke="midnightblue" d="M262.6,-318.35C239.1,-321.24 208.19,-325.04 183.75,-328.05"/>
<polygon fill="midnightblue" stroke="midnightblue" points="263.34,-321.79 272.83,-317.09 262.48,-314.84 263.34,-321.79"/>
</g>
<!-- Node11 -->
<g id="node11" class="node">
<title>Node11</title>
<g id="a_node11"><a xlink:href="fk20test_8cu.html#ae66f6b31b5ad750f1fe042a706a4e3d4" target="_top" xlink:title=" ">
<polygon fill="white" stroke="black" points="0,-323.5 0,-342.5 41,-342.5 41,-323.5 0,-323.5"/>
<text text-anchor="middle" x="20.5" y="-330.5" font-family="Helvetica,sans-Serif" font-size="10.00">main</text>
</a>
</g>
</g>
<!-- Node10&#45;&gt;Node11 -->
<g id="edge10" class="edge">
<title>Node10&#45;&gt;Node11</title>
<path fill="none" stroke="midnightblue" d="M91,-333C73.35,-333 54.58,-333 41,-333"/>
<polygon fill="midnightblue" stroke="midnightblue" points="91.21,-336.5 101.21,-333 91.21,-329.5 91.21,-336.5"/>
</g>
<!-- Node12&#45;&gt;Node6 -->
<g id="edge12" class="edge">
<title>Node12&#45;&gt;Node6</title>
<path fill="none" stroke="midnightblue" d="M94.74,-200C76.14,-200 55.75,-200 41.21,-200"/>
<polygon fill="midnightblue" stroke="midnightblue" points="94.84,-203.5 104.84,-200 94.84,-196.5 94.84,-203.5"/>
</g>
<!-- Node13&#45;&gt;Node6 -->
<g id="edge14" class="edge">
<title>Node13&#45;&gt;Node6</title>
<path fill="none" stroke="midnightblue" d="M97.87,-225.43C90.87,-223.33 83.73,-221.14 77,-219 65.06,-215.2 51.78,-210.67 41.21,-206.98"/>
<polygon fill="midnightblue" stroke="midnightblue" points="97.36,-228.93 107.94,-228.41 99.35,-222.21 97.36,-228.93"/>
</g>
<!-- Node14&#45;&gt;Node10 -->
<g id="edge16" class="edge">
<title>Node14&#45;&gt;Node10</title>
<path fill="none" stroke="midnightblue" d="M233.56,-344.08C216.64,-341.99 198.87,-339.81 183.63,-337.93"/>
<polygon fill="midnightblue" stroke="midnightblue" points="233.61,-347.61 243.96,-345.35 234.47,-340.66 233.61,-347.61"/>
</g>
<!-- Node16 -->
<g id="node16" class="node">
<title>Node16</title>
<g id="a_node16"><a xlink:href="g1test_8cu.html#a3c04138a5bfe5d72780bb7e82a18e627" target="_top" xlink:title="Test for points in G1.">
<polygon fill="white" stroke="black" points="122,-380.5 122,-399.5 163,-399.5 163,-380.5 122,-380.5"/>
<text text-anchor="middle" x="142.5" y="-387.5" font-family="Helvetica,sans-Serif" font-size="10.00">main</text>
</a>
</g>
</g>
<!-- Node15&#45;&gt;Node16 -->
<g id="edge18" class="edge">
<title>Node15&#45;&gt;Node16</title>
<path fill="none" stroke="midnightblue" d="M254.98,-390C224.85,-390 186.02,-390 163.04,-390"/>
<polygon fill="midnightblue" stroke="midnightblue" points="255.23,-393.5 265.23,-390 255.23,-386.5 255.23,-393.5"/>
</g>
<!-- Node19 -->
<g id="node19" class="node">
<title>Node19</title>
<g id="a_node19"><a xlink:href="fr_8cuh.html#ac7091cde352483e51fa09119e9176b35" target="_top" xlink:title="wrapper for fr_ift: inverse FFT for fr_t[512]">
<polygon fill="white" stroke="black" points="413,-133.5 413,-152.5 497,-152.5 497,-133.5 413,-133.5"/>
<text text-anchor="middle" x="455" y="-140.5" font-family="Helvetica,sans-Serif" font-size="10.00">fr_ift_wrapper</text>
</a>
</g>
</g>
<!-- Node18&#45;&gt;Node19 -->
<g id="edge21" class="edge">
<title>Node18&#45;&gt;Node19</title>
<path fill="none" stroke="midnightblue" d="M563.44,-158.01C544.26,-155.33 518.67,-151.76 497.28,-148.77"/>
<polygon fill="midnightblue" stroke="midnightblue" points="562.99,-161.48 573.37,-159.4 563.96,-154.55 562.99,-161.48"/>
</g>
<!-- Node19&#45;&gt;Node7 -->
<g id="edge22" class="edge">
<title>Node19&#45;&gt;Node7</title>
<path fill="none" stroke="midnightblue" d="M402.68,-136.67C378.61,-133.7 350.76,-130.26 330.14,-127.72"/>
<polygon fill="midnightblue" stroke="midnightblue" points="402.38,-140.16 412.73,-137.91 403.23,-133.21 402.38,-140.16"/>
</g>
<!-- Node21&#45;&gt;Node8 -->
<g id="edge25" class="edge">
<title>Node21&#45;&gt;Node8</title>
<path fill="none" stroke="midnightblue" d="M379.4,-90.56C308.21,-94.92 205.69,-101.19 163.15,-103.8"/>
<polygon fill="midnightblue" stroke="midnightblue" points="379.9,-94.04 389.66,-89.94 379.47,-87.05 379.9,-94.04"/>
</g>
</g>
</svg>
