<?xml version="1.0" encoding="UTF-8" standalone="no"?>
<!DOCTYPE svg PUBLIC "-//W3C//DTD SVG 1.1//EN"
 "http://www.w3.org/Graphics/SVG/1.1/DTD/svg11.dtd">
<!-- Generated by graphviz version 2.43.0 (0)
 -->
<!-- Title: FrTestCmp Pages: 1 -->
<svg width="435pt" height="104pt"
 viewBox="0.00 0.00 435.00 104.00" xmlns="http://www.w3.org/2000/svg" xmlns:xlink="http://www.w3.org/1999/xlink">
<g id="graph0" class="graph" transform="scale(1 1) rotate(0) translate(4 100)">
<title>FrTestCmp</title>
<polygon fill="white" stroke="transparent" points="-4,4 -4,-100 431,-100 431,4 -4,4"/>
<!-- Node1 -->
<g id="node1" class="node">
<title>Node1</title>
<g id="a_node1"><a xlink:title="Test for the comparison function; checks for inconsistencies in the following properties:">
<polygon fill="#bfbfbf" stroke="black" points="0,-76.5 0,-95.5 68,-95.5 68,-76.5 0,-76.5"/>
<text text-anchor="middle" x="34" y="-83.5" font-family="Helvetica,sans-Serif" font-size="10.00">FrTestCmp</text>
</a>
</g>
</g>
<!-- Node2 -->
<g id="node2" class="node">
<title>Node2</title>
<g id="a_node2"><a xlink:href="fr_8cuh.html#a8abf9d8ad4b633144fcc0c6956d14056" target="_top" xlink:title="Copy from x into z.">
<polygon fill="white" stroke="black" points="369.5,-76.5 369.5,-95.5 416.5,-95.5 416.5,-76.5 369.5,-76.5"/>
<text text-anchor="middle" x="393" y="-83.5" font-family="Helvetica,sans-Serif" font-size="10.00">fr_cpy</text>
</a>
</g>
</g>
<!-- Node1&#45;&gt;Node2 -->
<g id="edge1" class="edge">
<title>Node1&#45;&gt;Node2</title>
<path fill="none" stroke="midnightblue" d="M68.27,-86C136.45,-86 291.35,-86 359.17,-86"/>
<polygon fill="midnightblue" stroke="midnightblue" points="359.28,-89.5 369.28,-86 359.28,-82.5 359.28,-89.5"/>
</g>
<!-- Node3 -->
<g id="node3" class="node">
<title>Node3</title>
<g id="a_node3"><a xlink:href="fr_8cuh.html#a4e45802fc36909ab3c8a71f662689cfa" target="_top" xlink:title="Compares two residues modulo r.">
<polygon fill="white" stroke="black" points="187,-38.5 187,-57.5 228,-57.5 228,-38.5 187,-38.5"/>
<text text-anchor="middle" x="207.5" y="-45.5" font-family="Helvetica,sans-Serif" font-size="10.00">fr_eq</text>
</a>
</g>
</g>
<!-- Node1&#45;&gt;Node3 -->
<g id="edge2" class="edge">
<title>Node1&#45;&gt;Node3</title>
<path fill="none" stroke="midnightblue" d="M68.05,-82.09C91.43,-78.95 123.39,-73.94 151,-67 159.73,-64.81 169.05,-61.86 177.51,-58.95"/>
<polygon fill="midnightblue" stroke="midnightblue" points="178.71,-62.23 186.96,-55.59 176.37,-55.64 178.71,-62.23"/>
</g>
<!-- Node7 -->
<g id="node7" class="node">
<title>Node7</title>
<g id="a_node7"><a xlink:href="fr_8cuh.html#a4f11be4124fc653c718d01acc42cf7f2" target="_top" xlink:title="Compares two fr_t residues.">
<polygon fill="white" stroke="black" points="104,-38.5 104,-57.5 151,-57.5 151,-38.5 104,-38.5"/>
<text text-anchor="middle" x="127.5" y="-45.5" font-family="Helvetica,sans-Serif" font-size="10.00">fr_neq</text>
</a>
</g>
</g>
<!-- Node1&#45;&gt;Node7 -->
<g id="edge8" class="edge">
<title>Node1&#45;&gt;Node7</title>
<path fill="none" stroke="midnightblue" d="M58.09,-76.41C69.12,-71.83 82.5,-66.27 94.49,-61.29"/>
<polygon fill="midnightblue" stroke="midnightblue" points="95.84,-64.52 103.74,-57.45 93.16,-58.06 95.84,-64.52"/>
</g>
<!-- Node3&#45;&gt;Node2 -->
<g id="edge3" class="edge">
<title>Node3&#45;&gt;Node2</title>
<path fill="none" stroke="midnightblue" d="M228.02,-55.66C238.54,-59.54 251.83,-64.04 264,-67 295.85,-74.75 332.97,-79.83 359.01,-82.78"/>
<polygon fill="midnightblue" stroke="midnightblue" points="358.78,-86.27 369.1,-83.87 359.54,-79.31 358.78,-86.27"/>
</g>
<!-- Node4 -->
<g id="node4" class="node">
<title>Node4</title>
<g id="a_node4"><a xlink:href="fr_8cuh.html#a78b8df6518ee14cdf2cdc025abf902fa" target="_top" xlink:title="Checks if the residue x modulo f is congruent to zero.">
<polygon fill="white" stroke="black" points="264,-38.5 264,-57.5 323,-57.5 323,-38.5 264,-38.5"/>
<text text-anchor="middle" x="293.5" y="-45.5" font-family="Helvetica,sans-Serif" font-size="10.00">fr_iszero</text>
</a>
</g>
</g>
<!-- Node3&#45;&gt;Node4 -->
<g id="edge4" class="edge">
<title>Node3&#45;&gt;Node4</title>
<path fill="none" stroke="midnightblue" d="M228.41,-48C236.01,-48 244.96,-48 253.72,-48"/>
<polygon fill="midnightblue" stroke="midnightblue" points="253.83,-51.5 263.83,-48 253.83,-44.5 253.83,-51.5"/>
</g>
<!-- Node6 -->
<g id="node6" class="node">
<title>Node6</title>
<g id="a_node6"><a xlink:href="fr_8cuh.html#a06643f48ada0bf9fa0a1bb1e605def94" target="_top" xlink:title="Calculates the difference of two residues modulo p and stores it into z.">
<polygon fill="white" stroke="black" points="270,-0.5 270,-19.5 317,-19.5 317,-0.5 270,-0.5"/>
<text text-anchor="middle" x="293.5" y="-7.5" font-family="Helvetica,sans-Serif" font-size="10.00">fr_sub</text>
</a>
</g>
</g>
<!-- Node3&#45;&gt;Node6 -->
<g id="edge7" class="edge">
<title>Node3&#45;&gt;Node6</title>
<path fill="none" stroke="midnightblue" d="M228.41,-38.99C238.39,-34.48 250.7,-28.91 261.85,-23.87"/>
<polygon fill="midnightblue" stroke="midnightblue" points="263.6,-26.92 271.27,-19.61 260.71,-20.54 263.6,-26.92"/>
</g>
<!-- Node4&#45;&gt;Node2 -->
<g id="edge5" class="edge">
<title>Node4&#45;&gt;Node2</title>
<path fill="none" stroke="midnightblue" d="M319.1,-57.59C331.42,-62.39 346.49,-68.26 359.72,-73.42"/>
<polygon fill="midnightblue" stroke="midnightblue" points="358.82,-76.83 369.41,-77.2 361.36,-70.3 358.82,-76.83"/>
</g>
<!-- Node5 -->
<g id="node5" class="node">
<title>Node5</title>
<g id="a_node5"><a xlink:href="fr_8cuh.html#aa53ac2a9b28c7f128a9ee8e106abcf3c" target="_top" xlink:title="Reduced the value in fr_t to the field modulus.">
<polygon fill="white" stroke="black" points="359,-38.5 359,-57.5 427,-57.5 427,-38.5 359,-38.5"/>
<text text-anchor="middle" x="393" y="-45.5" font-family="Helvetica,sans-Serif" font-size="10.00">fr_reduce4</text>
</a>
</g>
</g>
<!-- Node4&#45;&gt;Node5 -->
<g id="edge6" class="edge">
<title>Node4&#45;&gt;Node5</title>
<path fill="none" stroke="midnightblue" d="M323.23,-48C331.13,-48 339.89,-48 348.43,-48"/>
<polygon fill="midnightblue" stroke="midnightblue" points="348.68,-51.5 358.68,-48 348.68,-44.5 348.68,-51.5"/>
</g>
<!-- Node7&#45;&gt;Node3 -->
<g id="edge9" class="edge">
<title>Node7&#45;&gt;Node3</title>
<path fill="none" stroke="midnightblue" d="M151.06,-48C159.12,-48 168.33,-48 176.89,-48"/>
<polygon fill="midnightblue" stroke="midnightblue" points="176.9,-51.5 186.9,-48 176.9,-44.5 176.9,-51.5"/>
</g>
</g>
</svg>
