<?xml version="1.0" encoding="UTF-8" standalone="no"?>
<!DOCTYPE svg PUBLIC "-//W3C//DTD SVG 1.1//EN"
 "http://www.w3.org/Graphics/SVG/1.1/DTD/svg11.dtd">
<!-- Generated by graphviz version 2.43.0 (0)
 -->
<!-- Title: FrTestFibonacci Pages: 1 -->
<svg width="458pt" height="275pt"
 viewBox="0.00 0.00 458.00 275.00" xmlns="http://www.w3.org/2000/svg" xmlns:xlink="http://www.w3.org/1999/xlink">
<g id="graph0" class="graph" transform="scale(1 1) rotate(0) translate(4 271)">
<title>FrTestFibonacci</title>
<polygon fill="white" stroke="transparent" points="-4,4 -4,-271 454,-271 454,4 -4,4"/>
<!-- Node1 -->
<g id="node1" class="node">
<title>Node1</title>
<g id="a_node1"><a xlink:title="Test addition and subtraction in Fr using a fibonacci sequence (chain dependency) from 1 to ITERATION...">
<polygon fill="#bfbfbf" stroke="black" points="0,-114.5 0,-133.5 91,-133.5 91,-114.5 0,-114.5"/>
<text text-anchor="middle" x="45.5" y="-121.5" font-family="Helvetica,sans-Serif" font-size="10.00">FrTestFibonacci</text>
</a>
</g>
</g>
<!-- Node2 -->
<g id="node2" class="node">
<title>Node2</title>
<g id="a_node2"><a xlink:href="fr_8cuh.html#aaeef506ae3eb09b0586eb48e9c7d77ad" target="_top" xlink:title="Computes the sum of two residues x and z modulo r and stores it in z. Device only function.">
<polygon fill="white" stroke="black" points="127,-247.5 127,-266.5 174,-266.5 174,-247.5 127,-247.5"/>
<text text-anchor="middle" x="150.5" y="-254.5" font-family="Helvetica,sans-Serif" font-size="10.00">fr_add</text>
</a>
</g>
</g>
<!-- Node1&#45;&gt;Node2 -->
<g id="edge1" class="edge">
<title>Node1&#45;&gt;Node2</title>
<path fill="none" stroke="midnightblue" d="M53.03,-133.61C66.3,-152.96 97.64,-197.76 127,-233 128.92,-235.3 131,-237.67 133.09,-239.98"/>
<polygon fill="midnightblue" stroke="midnightblue" points="130.66,-242.5 140.04,-247.43 135.77,-237.73 130.66,-242.5"/>
</g>
<!-- Node3 -->
<g id="node3" class="node">
<title>Node3</title>
<g id="a_node3"><a xlink:href="fr_8cuh.html#a8abf9d8ad4b633144fcc0c6956d14056" target="_top" xlink:title="Copy from x into z.">
<polygon fill="white" stroke="black" points="392.5,-133.5 392.5,-152.5 439.5,-152.5 439.5,-133.5 392.5,-133.5"/>
<text text-anchor="middle" x="416" y="-140.5" font-family="Helvetica,sans-Serif" font-size="10.00">fr_cpy</text>
</a>
</g>
</g>
<!-- Node1&#45;&gt;Node3 -->
<g id="edge2" class="edge">
<title>Node1&#45;&gt;Node3</title>
<path fill="none" stroke="midnightblue" d="M64.63,-133.55C80.68,-141.71 104.92,-153.31 127,-161 196.13,-185.06 214.33,-191.27 287,-200 313.04,-203.13 321.32,-208.87 346,-200 367.79,-192.16 387.6,-174.13 400.35,-160.43"/>
<polygon fill="midnightblue" stroke="midnightblue" points="403.29,-162.38 407.33,-152.59 398.06,-157.73 403.29,-162.38"/>
</g>
<!-- Node4 -->
<g id="node4" class="node">
<title>Node4</title>
<g id="a_node4"><a xlink:href="fr_8cuh.html#a912c7835f9151e3294434ac6f656f0da" target="_top" xlink:title="Checks if the residue x modulo f is congruent to one.">
<polygon fill="white" stroke="black" points="288.5,-19.5 288.5,-38.5 344.5,-38.5 344.5,-19.5 288.5,-19.5"/>
<text text-anchor="middle" x="316.5" y="-26.5" font-family="Helvetica,sans-Serif" font-size="10.00">fr_isone</text>
</a>
</g>
</g>
<!-- Node1&#45;&gt;Node4 -->
<g id="edge3" class="edge">
<title>Node1&#45;&gt;Node4</title>
<path fill="none" stroke="midnightblue" d="M68.54,-114.47C84.63,-107.63 107.02,-98.37 127,-91 179.22,-71.74 240.6,-52.09 278.79,-40.22"/>
<polygon fill="midnightblue" stroke="midnightblue" points="279.93,-43.53 288.45,-37.23 277.86,-36.85 279.93,-43.53"/>
</g>
<!-- Node6 -->
<g id="node6" class="node">
<title>Node6</title>
<g id="a_node6"><a xlink:href="fr_8cuh.html#a4f11be4124fc653c718d01acc42cf7f2" target="_top" xlink:title="Compares two fr_t residues.">
<polygon fill="white" stroke="black" points="127,-114.5 127,-133.5 174,-133.5 174,-114.5 127,-114.5"/>
<text text-anchor="middle" x="150.5" y="-121.5" font-family="Helvetica,sans-Serif" font-size="10.00">fr_neq</text>
</a>
</g>
</g>
<!-- Node1&#45;&gt;Node6 -->
<g id="edge6" class="edge">
<title>Node1&#45;&gt;Node6</title>
<path fill="none" stroke="midnightblue" d="M91.08,-124C99.7,-124 108.58,-124 116.74,-124"/>
<polygon fill="midnightblue" stroke="midnightblue" points="116.96,-127.5 126.96,-124 116.96,-120.5 116.96,-127.5"/>
</g>
<!-- Node9 -->
<g id="node9" class="node">
<title>Node9</title>
<g id="a_node9"><a xlink:href="fr_8cuh.html#a06643f48ada0bf9fa0a1bb1e605def94" target="_top" xlink:title="Calculates the difference of two residues modulo p and stores it into z.">
<polygon fill="white" stroke="black" points="293,-57.5 293,-76.5 340,-76.5 340,-57.5 293,-57.5"/>
<text text-anchor="middle" x="316.5" y="-64.5" font-family="Helvetica,sans-Serif" font-size="10.00">fr_sub</text>
</a>
</g>
</g>
<!-- Node1&#45;&gt;Node9 -->
<g id="edge17" class="edge">
<title>Node1&#45;&gt;Node9</title>
<path fill="none" stroke="midnightblue" d="M85.75,-114.46C98.85,-111.35 113.53,-107.95 127,-105 181.55,-93.07 245.29,-80.5 282.93,-73.23"/>
<polygon fill="midnightblue" stroke="midnightblue" points="283.66,-76.65 292.82,-71.32 282.34,-69.78 283.66,-76.65"/>
</g>
<!-- Node10 -->
<g id="node10" class="node">
<title>Node10</title>
<g id="a_node10"><a xlink:href="fr_8cu.html#ab87111e8edb1812fd061c1d12c0ad178" target="_top" xlink:title="Sets the value of z to one.">
<polygon fill="white" stroke="black" points="127,-0.5 127,-19.5 174,-19.5 174,-0.5 127,-0.5"/>
<text text-anchor="middle" x="150.5" y="-7.5" font-family="Helvetica,sans-Serif" font-size="10.00">fr_one</text>
</a>
</g>
</g>
<!-- Node1&#45;&gt;Node10 -->
<g id="edge13" class="edge">
<title>Node1&#45;&gt;Node10</title>
<path fill="none" stroke="midnightblue" d="M54.89,-114.48C69.45,-97.98 100.38,-63.07 127,-34 129.03,-31.79 131.17,-29.47 133.29,-27.19"/>
<polygon fill="midnightblue" stroke="midnightblue" points="135.97,-29.45 140.25,-19.76 130.86,-24.67 135.97,-29.45"/>
</g>
<!-- Node11 -->
<g id="node11" class="node">
<title>Node11</title>
<g id="a_node11"><a xlink:href="fr_8cu.html#a48d3ace037073f6d394152bee7f40b71" target="_top" xlink:title="prints the canonical representation of x to STDOUT.">
<polygon fill="white" stroke="black" points="290.5,-171.5 290.5,-190.5 342.5,-190.5 342.5,-171.5 290.5,-171.5"/>
<text text-anchor="middle" x="316.5" y="-178.5" font-family="Helvetica,sans-Serif" font-size="10.00">fr_print</text>
</a>
</g>
</g>
<!-- Node1&#45;&gt;Node11 -->
<g id="edge14" class="edge">
<title>Node1&#45;&gt;Node11</title>
<path fill="none" stroke="midnightblue" d="M85.75,-133.54C98.85,-136.65 113.53,-140.05 127,-143 180.36,-154.67 242.51,-166.95 280.42,-174.29"/>
<polygon fill="midnightblue" stroke="midnightblue" points="279.96,-177.76 290.44,-176.22 281.29,-170.89 279.96,-177.76"/>
</g>
<!-- Node4&#45;&gt;Node3 -->
<g id="edge4" class="edge">
<title>Node4&#45;&gt;Node3</title>
<path fill="none" stroke="midnightblue" d="M335.28,-38.69C339.14,-41.36 342.97,-44.49 346,-48 370.44,-76.28 356.65,-96.54 382,-124 383.04,-125.12 384.16,-126.2 385.33,-127.23"/>
<polygon fill="midnightblue" stroke="midnightblue" points="383.56,-130.26 393.71,-133.3 387.67,-124.59 383.56,-130.26"/>
</g>
<!-- Node5 -->
<g id="node5" class="node">
<title>Node5</title>
<g id="a_node5"><a xlink:href="fr_8cuh.html#aa53ac2a9b28c7f128a9ee8e106abcf3c" target="_top" xlink:title="Reduced the value in fr_t to the field modulus.">
<polygon fill="white" stroke="black" points="382,-95.5 382,-114.5 450,-114.5 450,-95.5 382,-95.5"/>
<text text-anchor="middle" x="416" y="-102.5" font-family="Helvetica,sans-Serif" font-size="10.00">fr_reduce4</text>
</a>
</g>
</g>
<!-- Node4&#45;&gt;Node5 -->
<g id="edge5" class="edge">
<title>Node4&#45;&gt;Node5</title>
<path fill="none" stroke="midnightblue" d="M332.49,-38.58C336.91,-41.51 341.7,-44.81 346,-48 363.56,-61.05 382.67,-76.98 396.32,-88.68"/>
<polygon fill="midnightblue" stroke="midnightblue" points="394.19,-91.47 404.05,-95.36 398.77,-86.17 394.19,-91.47"/>
</g>
<!-- Node7 -->
<g id="node7" class="node">
<title>Node7</title>
<g id="a_node7"><a xlink:href="fr_8cuh.html#a4e45802fc36909ab3c8a71f662689cfa" target="_top" xlink:title="Compares two residues modulo r.">
<polygon fill="white" stroke="black" points="210,-114.5 210,-133.5 251,-133.5 251,-114.5 210,-114.5"/>
<text text-anchor="middle" x="230.5" y="-121.5" font-family="Helvetica,sans-Serif" font-size="10.00">fr_eq</text>
</a>
</g>
</g>
<!-- Node6&#45;&gt;Node7 -->
<g id="edge7" class="edge">
<title>Node6&#45;&gt;Node7</title>
<path fill="none" stroke="midnightblue" d="M174.06,-124C182.12,-124 191.33,-124 199.89,-124"/>
<polygon fill="midnightblue" stroke="midnightblue" points="199.9,-127.5 209.9,-124 199.9,-120.5 199.9,-127.5"/>
</g>
<!-- Node7&#45;&gt;Node3 -->
<g id="edge8" class="edge">
<title>Node7&#45;&gt;Node3</title>
<path fill="none" stroke="midnightblue" d="M251.14,-126.03C282.49,-129.28 344.2,-135.67 382.29,-139.61"/>
<polygon fill="midnightblue" stroke="midnightblue" points="382.06,-143.11 392.37,-140.66 382.78,-136.15 382.06,-143.11"/>
</g>
<!-- Node8 -->
<g id="node8" class="node">
<title>Node8</title>
<g id="a_node8"><a xlink:href="fr_8cuh.html#a78b8df6518ee14cdf2cdc025abf902fa" target="_top" xlink:title="Checks if the residue x modulo f is congruent to zero.">
<polygon fill="white" stroke="black" points="287,-95.5 287,-114.5 346,-114.5 346,-95.5 287,-95.5"/>
<text text-anchor="middle" x="316.5" y="-102.5" font-family="Helvetica,sans-Serif" font-size="10.00">fr_iszero</text>
</a>
</g>
</g>
<!-- Node7&#45;&gt;Node8 -->
<g id="edge9" class="edge">
<title>Node7&#45;&gt;Node8</title>
<path fill="none" stroke="midnightblue" d="M251.41,-119.5C259.09,-117.76 268.16,-115.71 277.01,-113.71"/>
<polygon fill="midnightblue" stroke="midnightblue" points="277.85,-117.1 286.83,-111.48 276.31,-110.28 277.85,-117.1"/>
</g>
<!-- Node7&#45;&gt;Node9 -->
<g id="edge12" class="edge">
<title>Node7&#45;&gt;Node9</title>
<path fill="none" stroke="midnightblue" d="M245.61,-114.27C256.81,-106.56 272.87,-95.54 287,-86 288.7,-84.85 290.46,-83.67 292.23,-82.48"/>
<polygon fill="midnightblue" stroke="midnightblue" points="294.61,-85.1 300.98,-76.63 290.72,-79.28 294.61,-85.1"/>
</g>
<!-- Node8&#45;&gt;Node3 -->
<g id="edge10" class="edge">
<title>Node8&#45;&gt;Node3</title>
<path fill="none" stroke="midnightblue" d="M342.1,-114.59C354.42,-119.39 369.49,-125.26 382.72,-130.42"/>
<polygon fill="midnightblue" stroke="midnightblue" points="381.82,-133.83 392.41,-134.2 384.36,-127.3 381.82,-133.83"/>
</g>
<!-- Node8&#45;&gt;Node5 -->
<g id="edge11" class="edge">
<title>Node8&#45;&gt;Node5</title>
<path fill="none" stroke="midnightblue" d="M346.23,-105C354.13,-105 362.89,-105 371.43,-105"/>
<polygon fill="midnightblue" stroke="midnightblue" points="371.68,-108.5 381.68,-105 371.68,-101.5 371.68,-108.5"/>
</g>
<!-- Node11&#45;&gt;Node3 -->
<g id="edge15" class="edge">
<title>Node11&#45;&gt;Node3</title>
<path fill="none" stroke="midnightblue" d="M342.1,-171.41C354.42,-166.61 369.49,-160.74 382.72,-155.58"/>
<polygon fill="midnightblue" stroke="midnightblue" points="384.36,-158.7 392.41,-151.8 381.82,-152.17 384.36,-158.7"/>
</g>
<!-- Node11&#45;&gt;Node5 -->
<g id="edge16" class="edge">
<title>Node11&#45;&gt;Node5</title>
<path fill="none" stroke="midnightblue" d="M327.03,-171.46C339.19,-159.57 361.13,-139 382,-124 383.88,-122.65 385.85,-121.32 387.87,-120.02"/>
<polygon fill="midnightblue" stroke="midnightblue" points="390.04,-122.8 396.78,-114.62 386.41,-116.81 390.04,-122.8"/>
</g>
</g>
</svg>
