<?xml version="1.0" encoding="UTF-8" standalone="no"?>
<!DOCTYPE svg PUBLIC "-//W3C//DTD SVG 1.1//EN"
 "http://www.w3.org/Graphics/SVG/1.1/DTD/svg11.dtd">
<!-- Generated by graphviz version 2.43.0 (0)
 -->
<!-- Title: FrTestMulConst Pages: 1 -->
<svg width="458pt" height="351pt"
 viewBox="0.00 0.00 458.00 351.00" xmlns="http://www.w3.org/2000/svg" xmlns:xlink="http://www.w3.org/1999/xlink">
<g id="graph0" class="graph" transform="scale(1 1) rotate(0) translate(4 347)">
<title>FrTestMulConst</title>
<polygon fill="white" stroke="transparent" points="-4,4 -4,-347 454,-347 454,4 -4,4"/>
<!-- Node1 -->
<g id="node1" class="node">
<title>Node1</title>
<g id="a_node1"><a xlink:title="Test multiply by constant on Fr:">
<polygon fill="#bfbfbf" stroke="black" points="0,-152.5 0,-171.5 91,-171.5 91,-152.5 0,-152.5"/>
<text text-anchor="middle" x="45.5" y="-159.5" font-family="Helvetica,sans-Serif" font-size="10.00">FrTestMulConst</text>
</a>
</g>
</g>
<!-- Node2 -->
<g id="node2" class="node">
<title>Node2</title>
<g id="a_node2"><a xlink:href="fr_8cuh.html#aaeef506ae3eb09b0586eb48e9c7d77ad" target="_top" xlink:title="Computes the sum of two residues x and z modulo r and stores it in z. Device only function.">
<polygon fill="white" stroke="black" points="127,-323.5 127,-342.5 174,-342.5 174,-323.5 127,-323.5"/>
<text text-anchor="middle" x="150.5" y="-330.5" font-family="Helvetica,sans-Serif" font-size="10.00">fr_add</text>
</a>
</g>
</g>
<!-- Node1&#45;&gt;Node2 -->
<g id="edge1" class="edge">
<title>Node1&#45;&gt;Node2</title>
<path fill="none" stroke="midnightblue" d="M50.8,-171.78C61.73,-196.13 92.17,-260.94 127,-309 128.58,-311.19 130.35,-313.38 132.18,-315.51"/>
<polygon fill="midnightblue" stroke="midnightblue" points="129.92,-318.23 139.26,-323.22 135.07,-313.49 129.92,-318.23"/>
</g>
<!-- Node3 -->
<g id="node3" class="node">
<title>Node3</title>
<g id="a_node3"><a xlink:href="fr_8cuh.html#a8abf9d8ad4b633144fcc0c6956d14056" target="_top" xlink:title="Copy from x into z.">
<polygon fill="white" stroke="black" points="392.5,-199.5 392.5,-218.5 439.5,-218.5 439.5,-199.5 392.5,-199.5"/>
<text text-anchor="middle" x="416" y="-206.5" font-family="Helvetica,sans-Serif" font-size="10.00">fr_cpy</text>
</a>
</g>
</g>
<!-- Node1&#45;&gt;Node3 -->
<g id="edge2" class="edge">
<title>Node1&#45;&gt;Node3</title>
<path fill="none" stroke="midnightblue" d="M51.38,-171.6C62.04,-191.45 89.48,-236.84 127,-257 213.06,-303.24 255.47,-312.72 346,-276 370.28,-266.15 390.72,-243.2 402.91,-226.91"/>
<polygon fill="midnightblue" stroke="midnightblue" points="405.83,-228.84 408.8,-218.67 400.14,-224.77 405.83,-228.84"/>
</g>
<!-- Node4 -->
<g id="node4" class="node">
<title>Node4</title>
<g id="a_node4"><a xlink:href="fr_8cuh.html#a4f11be4124fc653c718d01acc42cf7f2" target="_top" xlink:title="Compares two fr_t residues.">
<polygon fill="white" stroke="black" points="127,-228.5 127,-247.5 174,-247.5 174,-228.5 127,-228.5"/>
<text text-anchor="middle" x="150.5" y="-235.5" font-family="Helvetica,sans-Serif" font-size="10.00">fr_neq</text>
</a>
</g>
</g>
<!-- Node1&#45;&gt;Node4 -->
<g id="edge3" class="edge">
<title>Node1&#45;&gt;Node4</title>
<path fill="none" stroke="midnightblue" d="M59.55,-171.63C76.88,-184.42 107.72,-207.17 128.39,-222.43"/>
<polygon fill="midnightblue" stroke="midnightblue" points="126.44,-225.33 136.56,-228.45 130.59,-219.7 126.44,-225.33"/>
</g>
<!-- Node9 -->
<g id="node9" class="node">
<title>Node9</title>
<g id="a_node9"><a xlink:href="fr_8cu.html#a48d3ace037073f6d394152bee7f40b71" target="_top" xlink:title="prints the canonical representation of x to STDOUT.">
<polygon fill="white" stroke="black" points="290.5,-133.5 290.5,-152.5 342.5,-152.5 342.5,-133.5 290.5,-133.5"/>
<text text-anchor="middle" x="316.5" y="-140.5" font-family="Helvetica,sans-Serif" font-size="10.00">fr_print</text>
</a>
</g>
</g>
<!-- Node1&#45;&gt;Node9 -->
<g id="edge10" class="edge">
<title>Node1&#45;&gt;Node9</title>
<path fill="none" stroke="midnightblue" d="M79.09,-171.51C93.62,-175.27 111.03,-179.14 127,-181 182.01,-187.4 244.89,-169.55 282.33,-156.19"/>
<polygon fill="midnightblue" stroke="midnightblue" points="284.01,-159.3 292.19,-152.56 281.6,-152.73 284.01,-159.3"/>
</g>
<!-- Node10 -->
<g id="node10" class="node">
<title>Node10</title>
<g id="a_node10"><a xlink:href="fr_8cuh.html#a1e404d0dd86d479854d2ad47f49f7f9f" target="_top" xlink:title="Multiply the residue mod r z by 12 with weak reduction.">
<polygon fill="white" stroke="black" points="127,-152.5 127,-171.5 174,-171.5 174,-152.5 127,-152.5"/>
<text text-anchor="middle" x="150.5" y="-159.5" font-family="Helvetica,sans-Serif" font-size="10.00">fr_x12</text>
</a>
</g>
</g>
<!-- Node1&#45;&gt;Node10 -->
<g id="edge13" class="edge">
<title>Node1&#45;&gt;Node10</title>
<path fill="none" stroke="midnightblue" d="M91.08,-162C99.7,-162 108.58,-162 116.74,-162"/>
<polygon fill="midnightblue" stroke="midnightblue" points="116.96,-165.5 126.96,-162 116.96,-158.5 116.96,-165.5"/>
</g>
<!-- Node11 -->
<g id="node11" class="node">
<title>Node11</title>
<g id="a_node11"><a xlink:href="fr_8cuh.html#a4485604279abcb4d54e39d656cb41439" target="_top" xlink:title="Multiply z by 2, and stores in z, with weak reduction.">
<polygon fill="white" stroke="black" points="130,-114.5 130,-133.5 171,-133.5 171,-114.5 130,-114.5"/>
<text text-anchor="middle" x="150.5" y="-121.5" font-family="Helvetica,sans-Serif" font-size="10.00">fr_x2</text>
</a>
</g>
</g>
<!-- Node1&#45;&gt;Node11 -->
<g id="edge14" class="edge">
<title>Node1&#45;&gt;Node11</title>
<path fill="none" stroke="midnightblue" d="M72.49,-152.41C86.92,-147.09 104.92,-140.45 119.9,-134.92"/>
<polygon fill="midnightblue" stroke="midnightblue" points="121.52,-138.05 129.69,-131.31 119.1,-131.48 121.52,-138.05"/>
</g>
<!-- Node12 -->
<g id="node12" class="node">
<title>Node12</title>
<g id="a_node12"><a xlink:href="fr_8cuh.html#a6a2b0ab376b64fb53b8e27d6c1109c15" target="_top" xlink:title="Multiply z by 3, and stores in z, with weak reduction.">
<polygon fill="white" stroke="black" points="130,-76.5 130,-95.5 171,-95.5 171,-76.5 130,-76.5"/>
<text text-anchor="middle" x="150.5" y="-83.5" font-family="Helvetica,sans-Serif" font-size="10.00">fr_x3</text>
</a>
</g>
</g>
<!-- Node1&#45;&gt;Node12 -->
<g id="edge15" class="edge">
<title>Node1&#45;&gt;Node12</title>
<path fill="none" stroke="midnightblue" d="M59.55,-152.37C76.88,-139.58 107.72,-116.83 128.39,-101.57"/>
<polygon fill="midnightblue" stroke="midnightblue" points="130.59,-104.3 136.56,-95.55 126.44,-98.67 130.59,-104.3"/>
</g>
<!-- Node13 -->
<g id="node13" class="node">
<title>Node13</title>
<g id="a_node13"><a xlink:href="fr_8cuh.html#a22ed0336bd87e463b99e9414b037a611" target="_top" xlink:title="Multiply z by 4, and stores in z, with weak reduction.">
<polygon fill="white" stroke="black" points="130,-38.5 130,-57.5 171,-57.5 171,-38.5 130,-38.5"/>
<text text-anchor="middle" x="150.5" y="-45.5" font-family="Helvetica,sans-Serif" font-size="10.00">fr_x4</text>
</a>
</g>
</g>
<!-- Node1&#45;&gt;Node13 -->
<g id="edge16" class="edge">
<title>Node1&#45;&gt;Node13</title>
<path fill="none" stroke="midnightblue" d="M53.78,-152.38C67.35,-134.7 97.78,-96.17 127,-67 127.8,-66.21 128.62,-65.41 129.47,-64.61"/>
<polygon fill="midnightblue" stroke="midnightblue" points="132.1,-66.95 137.26,-57.7 127.46,-61.71 132.1,-66.95"/>
</g>
<!-- Node14 -->
<g id="node14" class="node">
<title>Node14</title>
<g id="a_node14"><a xlink:href="fr_8cuh.html#a4e17bb02d9a984bd5cbc4b8eb95056f7" target="_top" xlink:title="Multiply z by 8, and stores in z, with weak reduction.">
<polygon fill="white" stroke="black" points="130,-0.5 130,-19.5 171,-19.5 171,-0.5 130,-0.5"/>
<text text-anchor="middle" x="150.5" y="-7.5" font-family="Helvetica,sans-Serif" font-size="10.00">fr_x8</text>
</a>
</g>
</g>
<!-- Node1&#45;&gt;Node14 -->
<g id="edge17" class="edge">
<title>Node1&#45;&gt;Node14</title>
<path fill="none" stroke="midnightblue" d="M51.01,-152.28C61.94,-129.3 91.59,-70.46 127,-29 127.61,-28.29 128.25,-27.58 128.91,-26.87"/>
<polygon fill="midnightblue" stroke="midnightblue" points="131.56,-29.18 136.46,-19.78 126.77,-24.08 131.56,-29.18"/>
</g>
<!-- Node5 -->
<g id="node5" class="node">
<title>Node5</title>
<g id="a_node5"><a xlink:href="fr_8cuh.html#a4e45802fc36909ab3c8a71f662689cfa" target="_top" xlink:title="Compares two residues modulo r.">
<polygon fill="white" stroke="black" points="210,-228.5 210,-247.5 251,-247.5 251,-228.5 210,-228.5"/>
<text text-anchor="middle" x="230.5" y="-235.5" font-family="Helvetica,sans-Serif" font-size="10.00">fr_eq</text>
</a>
</g>
</g>
<!-- Node4&#45;&gt;Node5 -->
<g id="edge4" class="edge">
<title>Node4&#45;&gt;Node5</title>
<path fill="none" stroke="midnightblue" d="M174.06,-238C182.12,-238 191.33,-238 199.89,-238"/>
<polygon fill="midnightblue" stroke="midnightblue" points="199.9,-241.5 209.9,-238 199.9,-234.5 199.9,-241.5"/>
</g>
<!-- Node5&#45;&gt;Node3 -->
<g id="edge5" class="edge">
<title>Node5&#45;&gt;Node3</title>
<path fill="none" stroke="midnightblue" d="M251.14,-234.9C282.49,-229.94 344.2,-220.19 382.29,-214.17"/>
<polygon fill="midnightblue" stroke="midnightblue" points="383.04,-217.6 392.37,-212.58 381.94,-210.68 383.04,-217.6"/>
</g>
<!-- Node6 -->
<g id="node6" class="node">
<title>Node6</title>
<g id="a_node6"><a xlink:href="fr_8cuh.html#a78b8df6518ee14cdf2cdc025abf902fa" target="_top" xlink:title="Checks if the residue x modulo f is congruent to zero.">
<polygon fill="white" stroke="black" points="287,-171.5 287,-190.5 346,-190.5 346,-171.5 287,-171.5"/>
<text text-anchor="middle" x="316.5" y="-178.5" font-family="Helvetica,sans-Serif" font-size="10.00">fr_iszero</text>
</a>
</g>
</g>
<!-- Node5&#45;&gt;Node6 -->
<g id="edge6" class="edge">
<title>Node5&#45;&gt;Node6</title>
<path fill="none" stroke="midnightblue" d="M245.75,-228.33C258.62,-219.6 277.78,-206.6 292.76,-196.43"/>
<polygon fill="midnightblue" stroke="midnightblue" points="295.15,-199.04 301.46,-190.53 291.22,-193.25 295.15,-199.04"/>
</g>
<!-- Node8 -->
<g id="node8" class="node">
<title>Node8</title>
<g id="a_node8"><a xlink:href="fr_8cuh.html#a06643f48ada0bf9fa0a1bb1e605def94" target="_top" xlink:title="Calculates the difference of two residues modulo p and stores it into z.">
<polygon fill="white" stroke="black" points="293,-247.5 293,-266.5 340,-266.5 340,-247.5 293,-247.5"/>
<text text-anchor="middle" x="316.5" y="-254.5" font-family="Helvetica,sans-Serif" font-size="10.00">fr_sub</text>
</a>
</g>
</g>
<!-- Node5&#45;&gt;Node8 -->
<g id="edge9" class="edge">
<title>Node5&#45;&gt;Node8</title>
<path fill="none" stroke="midnightblue" d="M251.41,-242.5C260.82,-244.63 272.3,-247.23 282.93,-249.63"/>
<polygon fill="midnightblue" stroke="midnightblue" points="282.24,-253.07 292.77,-251.86 283.79,-246.24 282.24,-253.07"/>
</g>
<!-- Node6&#45;&gt;Node3 -->
<g id="edge7" class="edge">
<title>Node6&#45;&gt;Node3</title>
<path fill="none" stroke="midnightblue" d="M346.23,-189.25C357.61,-192.52 370.75,-196.29 382.48,-199.66"/>
<polygon fill="midnightblue" stroke="midnightblue" points="381.77,-203.1 392.35,-202.49 383.7,-196.37 381.77,-203.1"/>
</g>
<!-- Node7 -->
<g id="node7" class="node">
<title>Node7</title>
<g id="a_node7"><a xlink:href="fr_8cuh.html#aa53ac2a9b28c7f128a9ee8e106abcf3c" target="_top" xlink:title="Reduced the value in fr_t to the field modulus.">
<polygon fill="white" stroke="black" points="382,-152.5 382,-171.5 450,-171.5 450,-152.5 382,-152.5"/>
<text text-anchor="middle" x="416" y="-159.5" font-family="Helvetica,sans-Serif" font-size="10.00">fr_reduce4</text>
</a>
</g>
</g>
<!-- Node6&#45;&gt;Node7 -->
<g id="edge8" class="edge">
<title>Node6&#45;&gt;Node7</title>
<path fill="none" stroke="midnightblue" d="M346.23,-175.4C354.22,-173.84 363.08,-172.12 371.72,-170.43"/>
<polygon fill="midnightblue" stroke="midnightblue" points="372.53,-173.84 381.68,-168.49 371.19,-166.97 372.53,-173.84"/>
</g>
<!-- Node9&#45;&gt;Node3 -->
<g id="edge11" class="edge">
<title>Node9&#45;&gt;Node3</title>
<path fill="none" stroke="midnightblue" d="M332.02,-152.64C336.51,-155.63 341.46,-158.94 346,-162 361.53,-172.46 378.96,-184.34 392.41,-193.53"/>
<polygon fill="midnightblue" stroke="midnightblue" points="390.79,-196.66 401.02,-199.42 394.74,-190.88 390.79,-196.66"/>
</g>
<!-- Node9&#45;&gt;Node7 -->
<g id="edge12" class="edge">
<title>Node9&#45;&gt;Node7</title>
<path fill="none" stroke="midnightblue" d="M342.61,-147.89C351.58,-149.64 361.96,-151.66 372.01,-153.62"/>
<polygon fill="midnightblue" stroke="midnightblue" points="371.4,-157.07 381.88,-155.55 372.74,-150.2 371.4,-157.07"/>
</g>
</g>
</svg>
