<?xml version="1.0" encoding="UTF-8" standalone="no"?>
<!DOCTYPE svg PUBLIC "-//W3C//DTD SVG 1.1//EN"
 "http://www.w3.org/Graphics/SVG/1.1/DTD/svg11.dtd">
<!-- Generated by graphviz version 2.43.0 (0)
 -->
<!-- Title: frtest.cuh Pages: 1 -->
<svg width="1152pt" height="84pt"
 viewBox="0.00 0.00 1151.50 84.00" xmlns="http://www.w3.org/2000/svg" xmlns:xlink="http://www.w3.org/1999/xlink">
<g id="graph0" class="graph" transform="scale(1 1) rotate(0) translate(4 80)">
<title>frtest.cuh</title>
<polygon fill="white" stroke="transparent" points="-4,4 -4,-80 1147.5,-80 1147.5,4 -4,4"/>
<!-- Node1 -->
<g id="node1" class="node">
<title>Node1</title>
<g id="a_node1"><a xlink:title=" ">
<polygon fill="#bfbfbf" stroke="black" points="533,-56.5 533,-75.5 596,-75.5 596,-56.5 533,-56.5"/>
<text text-anchor="middle" x="564.5" y="-63.5" font-family="Helvetica,sans-Serif" font-size="10.00">frtest.cuh</text>
</a>
</g>
</g>
<!-- Node2 -->
<g id="node2" class="node">
<title>Node2</title>
<g id="a_node2"><a xlink:href="frtest_8cu.html" target="_top" xlink:title=" ">
<polygon fill="white" stroke="black" points="0,-0.5 0,-19.5 57,-19.5 57,-0.5 0,-0.5"/>
<text text-anchor="middle" x="28.5" y="-7.5" font-family="Helvetica,sans-Serif" font-size="10.00">frtest.cu</text>
</a>
</g>
</g>
<!-- Node1&#45;&gt;Node2 -->
<g id="edge1" class="edge">
<title>Node1&#45;&gt;Node2</title>
<path fill="none" stroke="midnightblue" d="M522.71,-63.24C436.79,-59.17 234.3,-47.31 66.5,-20 63.42,-19.5 60.22,-18.89 57.05,-18.22"/>
<polygon fill="midnightblue" stroke="midnightblue" points="522.69,-66.74 532.84,-63.71 523.01,-59.75 522.69,-66.74"/>
</g>
<!-- Node3 -->
<g id="node3" class="node">
<title>Node3</title>
<g id="a_node3"><a xlink:href="frtest__add_8cu.html" target="_top" xlink:title=" ">
<polygon fill="white" stroke="black" points="75.5,-0.5 75.5,-19.5 155.5,-19.5 155.5,-0.5 75.5,-0.5"/>
<text text-anchor="middle" x="115.5" y="-7.5" font-family="Helvetica,sans-Serif" font-size="10.00">frtest_add.cu</text>
</a>
</g>
</g>
<!-- Node1&#45;&gt;Node3 -->
<g id="edge2" class="edge">
<title>Node1&#45;&gt;Node3</title>
<path fill="none" stroke="midnightblue" d="M522.62,-61.26C449.67,-54.52 294.63,-39.25 164.5,-20 161.59,-19.57 158.59,-19.1 155.57,-18.6"/>
<polygon fill="midnightblue" stroke="midnightblue" points="522.49,-64.76 532.77,-62.19 523.13,-57.79 522.49,-64.76"/>
</g>
<!-- Node4 -->
<g id="node4" class="node">
<title>Node4</title>
<g id="a_node4"><a xlink:href="frtest__addsub_8cu.html" target="_top" xlink:title=" ">
<polygon fill="white" stroke="black" points="173.5,-0.5 173.5,-19.5 271.5,-19.5 271.5,-0.5 173.5,-0.5"/>
<text text-anchor="middle" x="222.5" y="-7.5" font-family="Helvetica,sans-Serif" font-size="10.00">frtest_addsub.cu</text>
</a>
</g>
</g>
<!-- Node1&#45;&gt;Node4 -->
<g id="edge3" class="edge">
<title>Node1&#45;&gt;Node4</title>
<path fill="none" stroke="midnightblue" d="M522.91,-58.43C459.6,-48.44 339.28,-29.44 271.71,-18.77"/>
<polygon fill="midnightblue" stroke="midnightblue" points="522.51,-61.91 532.94,-60.02 523.61,-55 522.51,-61.91"/>
</g>
<!-- Node5 -->
<g id="node5" class="node">
<title>Node5</title>
<g id="a_node5"><a xlink:href="frtest__cmp_8cu.html" target="_top" xlink:title=" ">
<polygon fill="white" stroke="black" points="290,-0.5 290,-19.5 373,-19.5 373,-0.5 290,-0.5"/>
<text text-anchor="middle" x="331.5" y="-7.5" font-family="Helvetica,sans-Serif" font-size="10.00">frtest_cmp.cu</text>
</a>
</g>
</g>
<!-- Node1&#45;&gt;Node5 -->
<g id="edge4" class="edge">
<title>Node1&#45;&gt;Node5</title>
<path fill="none" stroke="midnightblue" d="M522.8,-55.34C478.89,-45.16 410.41,-29.29 368.4,-19.55"/>
<polygon fill="midnightblue" stroke="midnightblue" points="522.06,-58.76 532.59,-57.6 523.64,-51.94 522.06,-58.76"/>
</g>
<!-- Node6 -->
<g id="node6" class="node">
<title>Node6</title>
<g id="a_node6"><a xlink:href="frtest__distributive_8cu.html" target="_top" xlink:title=" ">
<polygon fill="white" stroke="black" points="391.5,-0.5 391.5,-19.5 509.5,-19.5 509.5,-0.5 391.5,-0.5"/>
<text text-anchor="middle" x="450.5" y="-7.5" font-family="Helvetica,sans-Serif" font-size="10.00">frtest_distributive.cu</text>
</a>
</g>
</g>
<!-- Node1&#45;&gt;Node6 -->
<g id="edge5" class="edge">
<title>Node1&#45;&gt;Node6</title>
<path fill="none" stroke="midnightblue" d="M537.26,-52.1C515.96,-42.01 486.96,-28.27 468.48,-19.52"/>
<polygon fill="midnightblue" stroke="midnightblue" points="535.9,-55.33 546.44,-56.44 538.9,-49 535.9,-55.33"/>
</g>
<!-- Node7 -->
<g id="node7" class="node">
<title>Node7</title>
<g id="a_node7"><a xlink:href="frtest__fft_8cu.html" target="_top" xlink:title=" ">
<polygon fill="white" stroke="black" points="528,-0.5 528,-19.5 601,-19.5 601,-0.5 528,-0.5"/>
<text text-anchor="middle" x="564.5" y="-7.5" font-family="Helvetica,sans-Serif" font-size="10.00">frtest_fft.cu</text>
</a>
</g>
</g>
<!-- Node1&#45;&gt;Node7 -->
<g id="edge6" class="edge">
<title>Node1&#45;&gt;Node7</title>
<path fill="none" stroke="midnightblue" d="M564.5,-45.8C564.5,-36.91 564.5,-26.78 564.5,-19.75"/>
<polygon fill="midnightblue" stroke="midnightblue" points="561,-46.08 564.5,-56.08 568,-46.08 561,-46.08"/>
</g>
<!-- Node8 -->
<g id="node8" class="node">
<title>Node8</title>
<g id="a_node8"><a xlink:href="frtest__fibonacci_8cu.html" target="_top" xlink:title=" ">
<polygon fill="white" stroke="black" points="619.5,-0.5 619.5,-19.5 725.5,-19.5 725.5,-0.5 619.5,-0.5"/>
<text text-anchor="middle" x="672.5" y="-7.5" font-family="Helvetica,sans-Serif" font-size="10.00">frtest_fibonacci.cu</text>
</a>
</g>
</g>
<!-- Node1&#45;&gt;Node8 -->
<g id="edge7" class="edge">
<title>Node1&#45;&gt;Node8</title>
<path fill="none" stroke="midnightblue" d="M591.05,-51.73C611.05,-41.73 637.89,-28.31 655.19,-19.65"/>
<polygon fill="midnightblue" stroke="midnightblue" points="589.23,-48.72 581.85,-56.32 592.36,-54.98 589.23,-48.72"/>
</g>
<!-- Node9 -->
<g id="node9" class="node">
<title>Node9</title>
<g id="a_node9"><a xlink:href="frtest__kat_8cu.html" target="_top" xlink:title=" ">
<polygon fill="white" stroke="black" points="744,-0.5 744,-19.5 821,-19.5 821,-0.5 744,-0.5"/>
<text text-anchor="middle" x="782.5" y="-7.5" font-family="Helvetica,sans-Serif" font-size="10.00">frtest_kat.cu</text>
</a>
</g>
</g>
<!-- Node1&#45;&gt;Node9 -->
<g id="edge8" class="edge">
<title>Node1&#45;&gt;Node9</title>
<path fill="none" stroke="midnightblue" d="M605.91,-54.74C647.02,-44.56 709.32,-29.13 747.88,-19.58"/>
<polygon fill="midnightblue" stroke="midnightblue" points="605.06,-51.35 596.2,-57.15 606.75,-58.14 605.06,-51.35"/>
</g>
<!-- Node10 -->
<g id="node10" class="node">
<title>Node10</title>
<g id="a_node10"><a xlink:href="frtest__mul_8cu.html" target="_top" xlink:title=" ">
<polygon fill="white" stroke="black" points="839,-0.5 839,-19.5 920,-19.5 920,-0.5 839,-0.5"/>
<text text-anchor="middle" x="879.5" y="-7.5" font-family="Helvetica,sans-Serif" font-size="10.00">frtest_mul.cu</text>
</a>
</g>
</g>
<!-- Node1&#45;&gt;Node10 -->
<g id="edge9" class="edge">
<title>Node1&#45;&gt;Node10</title>
<path fill="none" stroke="midnightblue" d="M605.97,-58.17C658.33,-49.5 751.15,-34 830.5,-20 833.23,-19.52 836.04,-19.02 838.87,-18.51"/>
<polygon fill="midnightblue" stroke="midnightblue" points="605.35,-54.72 596.05,-59.81 606.49,-61.63 605.35,-54.72"/>
</g>
<!-- Node11 -->
<g id="node11" class="node">
<title>Node11</title>
<g id="a_node11"><a xlink:href="frtest__mulconst_8cu.html" target="_top" xlink:title=" ">
<polygon fill="white" stroke="black" points="938,-0.5 938,-19.5 1045,-19.5 1045,-0.5 938,-0.5"/>
<text text-anchor="middle" x="991.5" y="-7.5" font-family="Helvetica,sans-Serif" font-size="10.00">frtest_mulconst.cu</text>
</a>
</g>
</g>
<!-- Node1&#45;&gt;Node11 -->
<g id="edge10" class="edge">
<title>Node1&#45;&gt;Node11</title>
<path fill="none" stroke="midnightblue" d="M606.55,-60.11C674.51,-52.15 812.67,-35.68 929.5,-20 932.2,-19.64 934.95,-19.26 937.74,-18.88"/>
<polygon fill="midnightblue" stroke="midnightblue" points="605.79,-56.68 596.26,-61.32 606.6,-63.63 605.79,-56.68"/>
</g>
<!-- Node12 -->
<g id="node12" class="node">
<title>Node12</title>
<g id="a_node12"><a xlink:href="frtest__sub_8cu.html" target="_top" xlink:title=" ">
<polygon fill="white" stroke="black" points="1063.5,-0.5 1063.5,-19.5 1143.5,-19.5 1143.5,-0.5 1063.5,-0.5"/>
<text text-anchor="middle" x="1103.5" y="-7.5" font-family="Helvetica,sans-Serif" font-size="10.00">frtest_sub.cu</text>
</a>
</g>
</g>
<!-- Node1&#45;&gt;Node12 -->
<g id="edge11" class="edge">
<title>Node1&#45;&gt;Node12</title>
<path fill="none" stroke="midnightblue" d="M606.14,-62.45C690.83,-56.97 889.17,-42.73 1054.5,-20 1057.41,-19.6 1060.42,-19.15 1063.44,-18.66"/>
<polygon fill="midnightblue" stroke="midnightblue" points="605.9,-58.95 596.14,-63.09 606.34,-65.94 605.9,-58.95"/>
</g>
</g>
</svg>
