<?xml version="1.0" encoding="UTF-8" standalone="no"?>
<!DOCTYPE svg PUBLIC "-//W3C//DTD SVG 1.1//EN"
 "http://www.w3.org/Graphics/SVG/1.1/DTD/svg11.dtd">
<!-- Generated by graphviz version 2.43.0 (0)
 -->
<!-- Title: FrTestFFT Pages: 1 -->
<svg width="368pt" height="104pt"
 viewBox="0.00 0.00 368.00 104.00" xmlns="http://www.w3.org/2000/svg" xmlns:xlink="http://www.w3.org/1999/xlink">
<g id="graph0" class="graph" transform="scale(1 1) rotate(0) translate(4 100)">
<title>FrTestFFT</title>
<polygon fill="white" stroke="transparent" points="-4,4 -4,-100 364,-100 364,4 -4,4"/>
<!-- Node1 -->
<g id="node1" class="node">
<title>Node1</title>
<g id="a_node1"><a xlink:title="Tests fft and inverse fft over Fr using KAT.">
<polygon fill="#bfbfbf" stroke="black" points="0,-38.5 0,-57.5 62,-57.5 62,-38.5 0,-38.5"/>
<text text-anchor="middle" x="31" y="-45.5" font-family="Helvetica,sans-Serif" font-size="10.00">FrTestFFT</text>
</a>
</g>
</g>
<!-- Node2 -->
<g id="node2" class="node">
<title>Node2</title>
<g id="a_node2"><a xlink:href="fr_8cuh.html#abf810ba4f2672a8d319e6cdbfc8ba68e" target="_top" xlink:title="wrapper for fr_fft: FFT for fr_t[512]">
<polygon fill="white" stroke="black" points="98,-57.5 98,-76.5 183,-76.5 183,-57.5 98,-57.5"/>
<text text-anchor="middle" x="140.5" y="-64.5" font-family="Helvetica,sans-Serif" font-size="10.00">fr_fft_wrapper</text>
</a>
</g>
</g>
<!-- Node1&#45;&gt;Node2 -->
<g id="edge1" class="edge">
<title>Node1&#45;&gt;Node2</title>
<path fill="none" stroke="midnightblue" d="M62.23,-53.34C70.26,-54.76 79.17,-56.34 87.99,-57.9"/>
<polygon fill="midnightblue" stroke="midnightblue" points="87.41,-61.35 97.87,-59.64 88.63,-54.45 87.41,-61.35"/>
</g>
<!-- Node7 -->
<g id="node7" class="node">
<title>Node7</title>
<g id="a_node7"><a xlink:href="fr_8cuh.html#ac7091cde352483e51fa09119e9176b35" target="_top" xlink:title="wrapper for fr_ift: inverse FFT for fr_t[512]">
<polygon fill="white" stroke="black" points="98.5,-19.5 98.5,-38.5 182.5,-38.5 182.5,-19.5 98.5,-19.5"/>
<text text-anchor="middle" x="140.5" y="-26.5" font-family="Helvetica,sans-Serif" font-size="10.00">fr_ift_wrapper</text>
</a>
</g>
</g>
<!-- Node1&#45;&gt;Node7 -->
<g id="edge6" class="edge">
<title>Node1&#45;&gt;Node7</title>
<path fill="none" stroke="midnightblue" d="M62.23,-42.66C70.35,-41.22 79.37,-39.63 88.29,-38.05"/>
<polygon fill="midnightblue" stroke="midnightblue" points="89.03,-41.47 98.27,-36.29 87.81,-34.58 89.03,-41.47"/>
</g>
<!-- Node3 -->
<g id="node3" class="node">
<title>Node3</title>
<g id="a_node3"><a xlink:href="fr__fft_8cu.html#aea5631ea87a7bab0cbc4e01740c416f6" target="_top" xlink:title="FFT over Fr.">
<polygon fill="white" stroke="black" points="219,-57.5 219,-76.5 259,-76.5 259,-57.5 219,-57.5"/>
<text text-anchor="middle" x="239" y="-64.5" font-family="Helvetica,sans-Serif" font-size="10.00">fr_fft</text>
</a>
</g>
</g>
<!-- Node2&#45;&gt;Node3 -->
<g id="edge2" class="edge">
<title>Node2&#45;&gt;Node3</title>
<path fill="none" stroke="midnightblue" d="M183.27,-67C191.91,-67 200.83,-67 208.9,-67"/>
<polygon fill="midnightblue" stroke="midnightblue" points="208.93,-70.5 218.93,-67 208.93,-63.5 208.93,-70.5"/>
</g>
<!-- Node4 -->
<g id="node4" class="node">
<title>Node4</title>
<g id="a_node4"><a xlink:href="fr_8cuh.html#a7f0553970ddea3d8c8823910fdea2d5c" target="_top" xlink:title="Computes the sum and the difference of the arguments, storing back into the arguments: (x,...">
<polygon fill="white" stroke="black" points="295,-76.5 295,-95.5 360,-95.5 360,-76.5 295,-76.5"/>
<text text-anchor="middle" x="327.5" y="-83.5" font-family="Helvetica,sans-Serif" font-size="10.00">fr_addsub</text>
</a>
</g>
</g>
<!-- Node3&#45;&gt;Node4 -->
<g id="edge3" class="edge">
<title>Node3&#45;&gt;Node4</title>
<path fill="none" stroke="midnightblue" d="M259.2,-71.22C266.79,-72.88 275.84,-74.87 284.79,-76.84"/>
<polygon fill="midnightblue" stroke="midnightblue" points="284.27,-80.31 294.79,-79.03 285.77,-73.47 284.27,-80.31"/>
</g>
<!-- Node5 -->
<g id="node5" class="node">
<title>Node5</title>
<g id="a_node5"><a xlink:href="fr_8cuh.html#a8abf9d8ad4b633144fcc0c6956d14056" target="_top" xlink:title="Copy from x into z.">
<polygon fill="white" stroke="black" points="304,-38.5 304,-57.5 351,-57.5 351,-38.5 304,-38.5"/>
<text text-anchor="middle" x="327.5" y="-45.5" font-family="Helvetica,sans-Serif" font-size="10.00">fr_cpy</text>
</a>
</g>
</g>
<!-- Node3&#45;&gt;Node5 -->
<g id="edge4" class="edge">
<title>Node3&#45;&gt;Node5</title>
<path fill="none" stroke="midnightblue" d="M259.2,-62.78C269.44,-60.53 282.31,-57.71 294.06,-55.13"/>
<polygon fill="midnightblue" stroke="midnightblue" points="294.97,-58.51 303.99,-52.94 293.47,-51.67 294.97,-58.51"/>
</g>
<!-- Node6 -->
<g id="node6" class="node">
<title>Node6</title>
<g id="a_node6"><a xlink:href="fr_8cuh.html#abaa90fa0475f5ddc32a4aee93de4e33b" target="_top" xlink:title="Multiply two residues module r z and x, stores back into z.">
<polygon fill="white" stroke="black" points="303.5,-0.5 303.5,-19.5 351.5,-19.5 351.5,-0.5 303.5,-0.5"/>
<text text-anchor="middle" x="327.5" y="-7.5" font-family="Helvetica,sans-Serif" font-size="10.00">fr_mul</text>
</a>
</g>
</g>
<!-- Node3&#45;&gt;Node6 -->
<g id="edge5" class="edge">
<title>Node3&#45;&gt;Node6</title>
<path fill="none" stroke="midnightblue" d="M253.4,-57.39C264.44,-49.57 280.57,-38.32 295,-29 296.96,-27.73 299,-26.44 301.07,-25.15"/>
<polygon fill="midnightblue" stroke="midnightblue" points="303.33,-27.87 310.03,-19.67 299.68,-21.9 303.33,-27.87"/>
</g>
<!-- Node8 -->
<g id="node8" class="node">
<title>Node8</title>
<g id="a_node8"><a xlink:href="fr__fft_8cu.html#ae4ccd980840d9d286f91be4f07dcb47a" target="_top" xlink:title="Inverse FFT for fr_t[512].">
<polygon fill="white" stroke="black" points="219.5,-19.5 219.5,-38.5 258.5,-38.5 258.5,-19.5 219.5,-19.5"/>
<text text-anchor="middle" x="239" y="-26.5" font-family="Helvetica,sans-Serif" font-size="10.00">fr_ift</text>
</a>
</g>
</g>
<!-- Node7&#45;&gt;Node8 -->
<g id="edge7" class="edge">
<title>Node7&#45;&gt;Node8</title>
<path fill="none" stroke="midnightblue" d="M182.7,-29C191.71,-29 201.05,-29 209.43,-29"/>
<polygon fill="midnightblue" stroke="midnightblue" points="209.44,-32.5 219.44,-29 209.44,-25.5 209.44,-32.5"/>
</g>
<!-- Node8&#45;&gt;Node4 -->
<g id="edge8" class="edge">
<title>Node8&#45;&gt;Node4</title>
<path fill="none" stroke="midnightblue" d="M253.4,-38.61C264.44,-46.43 280.57,-57.68 295,-67 296.96,-68.27 299,-69.56 301.07,-70.85"/>
<polygon fill="midnightblue" stroke="midnightblue" points="299.68,-74.1 310.03,-76.33 303.33,-68.13 299.68,-74.1"/>
</g>
<!-- Node8&#45;&gt;Node5 -->
<g id="edge9" class="edge">
<title>Node8&#45;&gt;Node5</title>
<path fill="none" stroke="midnightblue" d="M258.77,-33.12C268.99,-35.37 281.94,-38.21 293.76,-40.81"/>
<polygon fill="midnightblue" stroke="midnightblue" points="293.25,-44.28 303.77,-43.01 294.76,-37.44 293.25,-44.28"/>
</g>
<!-- Node8&#45;&gt;Node6 -->
<g id="edge10" class="edge">
<title>Node8&#45;&gt;Node6</title>
<path fill="none" stroke="midnightblue" d="M258.77,-24.88C268.91,-22.65 281.74,-19.83 293.49,-17.25"/>
<polygon fill="midnightblue" stroke="midnightblue" points="294.44,-20.63 303.45,-15.06 292.94,-13.79 294.44,-20.63"/>
</g>
</g>
</svg>
