<?xml version="1.0" encoding="UTF-8" standalone="no"?>
<!DOCTYPE svg PUBLIC "-//W3C//DTD SVG 1.1//EN"
 "http://www.w3.org/Graphics/SVG/1.1/DTD/svg11.dtd">
<!-- Generated by graphviz version 2.43.0 (0)
 -->
<!-- Title: FrTestCommutativeMul Pages: 1 -->
<svg width="498pt" height="165pt"
 viewBox="0.00 0.00 498.00 164.91" xmlns="http://www.w3.org/2000/svg" xmlns:xlink="http://www.w3.org/1999/xlink">
<g id="graph0" class="graph" transform="scale(1 1) rotate(0) translate(4 160.91)">
<title>FrTestCommutativeMul</title>
<polygon fill="white" stroke="transparent" points="-4,4 -4,-160.91 494,-160.91 494,4 -4,4"/>
<!-- Node1 -->
<g id="node1" class="node">
<title>Node1</title>
<g id="a_node1"><a xlink:title="Test of the commutative property of multiplication x*y == y*x.">
<polygon fill="#bfbfbf" stroke="black" points="0,-57.5 0,-76.5 130,-76.5 130,-57.5 0,-57.5"/>
<text text-anchor="middle" x="65" y="-64.5" font-family="Helvetica,sans-Serif" font-size="10.00">FrTestCommutativeMul</text>
</a>
</g>
</g>
<!-- Node2 -->
<g id="node2" class="node">
<title>Node2</title>
<g id="a_node2"><a xlink:href="fr_8cuh.html#a8abf9d8ad4b633144fcc0c6956d14056" target="_top" xlink:title="Copy from x into z.">
<polygon fill="white" stroke="black" points="432.5,-66.5 432.5,-85.5 479.5,-85.5 479.5,-66.5 432.5,-66.5"/>
<text text-anchor="middle" x="456" y="-73.5" font-family="Helvetica,sans-Serif" font-size="10.00">fr_cpy</text>
</a>
</g>
</g>
<!-- Node1&#45;&gt;Node2 -->
<g id="edge1" class="edge">
<title>Node1&#45;&gt;Node2</title>
<path fill="none" stroke="midnightblue" d="M80.51,-76.58C126.61,-105.74 273.29,-188.72 386,-143 410.28,-133.15 430.72,-110.2 442.91,-93.91"/>
<polygon fill="midnightblue" stroke="midnightblue" points="445.83,-95.84 448.8,-85.67 440.14,-91.77 445.83,-95.84"/>
</g>
<!-- Node3 -->
<g id="node3" class="node">
<title>Node3</title>
<g id="a_node3"><a xlink:href="fr_8cuh.html#abaa90fa0475f5ddc32a4aee93de4e33b" target="_top" xlink:title="Multiply two residues module r z and x, stores back into z.">
<polygon fill="white" stroke="black" points="166,-0.5 166,-19.5 214,-19.5 214,-0.5 166,-0.5"/>
<text text-anchor="middle" x="190" y="-7.5" font-family="Helvetica,sans-Serif" font-size="10.00">fr_mul</text>
</a>
</g>
</g>
<!-- Node1&#45;&gt;Node3 -->
<g id="edge2" class="edge">
<title>Node1&#45;&gt;Node3</title>
<path fill="none" stroke="midnightblue" d="M86.59,-57.46C106.45,-48.25 136.75,-34.22 159.24,-23.79"/>
<polygon fill="midnightblue" stroke="midnightblue" points="160.74,-26.95 168.35,-19.57 157.8,-20.6 160.74,-26.95"/>
</g>
<!-- Node4 -->
<g id="node4" class="node">
<title>Node4</title>
<g id="a_node4"><a xlink:href="fr_8cuh.html#a4f11be4124fc653c718d01acc42cf7f2" target="_top" xlink:title="Compares two fr_t residues.">
<polygon fill="white" stroke="black" points="166.5,-76.5 166.5,-95.5 213.5,-95.5 213.5,-76.5 166.5,-76.5"/>
<text text-anchor="middle" x="190" y="-83.5" font-family="Helvetica,sans-Serif" font-size="10.00">fr_neq</text>
</a>
</g>
</g>
<!-- Node1&#45;&gt;Node4 -->
<g id="edge3" class="edge">
<title>Node1&#45;&gt;Node4</title>
<path fill="none" stroke="midnightblue" d="M127.86,-76.56C137.64,-78.07 147.41,-79.58 156.18,-80.93"/>
<polygon fill="midnightblue" stroke="midnightblue" points="155.89,-84.43 166.31,-82.5 156.96,-77.51 155.89,-84.43"/>
</g>
<!-- Node9 -->
<g id="node9" class="node">
<title>Node9</title>
<g id="a_node9"><a xlink:href="fr_8cu.html#a48d3ace037073f6d394152bee7f40b71" target="_top" xlink:title="prints the canonical representation of x to STDOUT.">
<polygon fill="white" stroke="black" points="330.5,-0.5 330.5,-19.5 382.5,-19.5 382.5,-0.5 330.5,-0.5"/>
<text text-anchor="middle" x="356.5" y="-7.5" font-family="Helvetica,sans-Serif" font-size="10.00">fr_print</text>
</a>
</g>
</g>
<!-- Node1&#45;&gt;Node9 -->
<g id="edge10" class="edge">
<title>Node1&#45;&gt;Node9</title>
<path fill="none" stroke="midnightblue" d="M114.46,-57.46C172.58,-46.01 268.63,-27.1 320.18,-16.95"/>
<polygon fill="midnightblue" stroke="midnightblue" points="321.04,-20.35 330.18,-14.99 319.69,-13.48 321.04,-20.35"/>
</g>
<!-- Node5 -->
<g id="node5" class="node">
<title>Node5</title>
<g id="a_node5"><a xlink:href="fr_8cuh.html#a4e45802fc36909ab3c8a71f662689cfa" target="_top" xlink:title="Compares two residues modulo r.">
<polygon fill="white" stroke="black" points="250,-76.5 250,-95.5 291,-95.5 291,-76.5 250,-76.5"/>
<text text-anchor="middle" x="270.5" y="-83.5" font-family="Helvetica,sans-Serif" font-size="10.00">fr_eq</text>
</a>
</g>
</g>
<!-- Node4&#45;&gt;Node5 -->
<g id="edge4" class="edge">
<title>Node4&#45;&gt;Node5</title>
<path fill="none" stroke="midnightblue" d="M213.71,-86C221.82,-86 231.08,-86 239.7,-86"/>
<polygon fill="midnightblue" stroke="midnightblue" points="239.78,-89.5 249.78,-86 239.78,-82.5 239.78,-89.5"/>
</g>
<!-- Node5&#45;&gt;Node2 -->
<g id="edge5" class="edge">
<title>Node5&#45;&gt;Node2</title>
<path fill="none" stroke="midnightblue" d="M291.14,-84.93C322.49,-83.22 384.2,-79.86 422.29,-77.78"/>
<polygon fill="midnightblue" stroke="midnightblue" points="422.57,-81.27 432.37,-77.23 422.19,-74.28 422.57,-81.27"/>
</g>
<!-- Node6 -->
<g id="node6" class="node">
<title>Node6</title>
<g id="a_node6"><a xlink:href="fr_8cuh.html#a78b8df6518ee14cdf2cdc025abf902fa" target="_top" xlink:title="Checks if the residue x modulo f is congruent to zero.">
<polygon fill="white" stroke="black" points="327,-38.5 327,-57.5 386,-57.5 386,-38.5 327,-38.5"/>
<text text-anchor="middle" x="356.5" y="-45.5" font-family="Helvetica,sans-Serif" font-size="10.00">fr_iszero</text>
</a>
</g>
</g>
<!-- Node5&#45;&gt;Node6 -->
<g id="edge6" class="edge">
<title>Node5&#45;&gt;Node6</title>
<path fill="none" stroke="midnightblue" d="M291.41,-76.99C301.39,-72.48 313.7,-66.91 324.85,-61.87"/>
<polygon fill="midnightblue" stroke="midnightblue" points="326.6,-64.92 334.27,-57.61 323.71,-58.54 326.6,-64.92"/>
</g>
<!-- Node8 -->
<g id="node8" class="node">
<title>Node8</title>
<g id="a_node8"><a xlink:href="fr_8cuh.html#a06643f48ada0bf9fa0a1bb1e605def94" target="_top" xlink:title="Calculates the difference of two residues modulo p and stores it into z.">
<polygon fill="white" stroke="black" points="333,-114.5 333,-133.5 380,-133.5 380,-114.5 333,-114.5"/>
<text text-anchor="middle" x="356.5" y="-121.5" font-family="Helvetica,sans-Serif" font-size="10.00">fr_sub</text>
</a>
</g>
</g>
<!-- Node5&#45;&gt;Node8 -->
<g id="edge9" class="edge">
<title>Node5&#45;&gt;Node8</title>
<path fill="none" stroke="midnightblue" d="M291.41,-95.01C301.39,-99.52 313.7,-105.09 324.85,-110.13"/>
<polygon fill="midnightblue" stroke="midnightblue" points="323.71,-113.46 334.27,-114.39 326.6,-107.08 323.71,-113.46"/>
</g>
<!-- Node6&#45;&gt;Node2 -->
<g id="edge7" class="edge">
<title>Node6&#45;&gt;Node2</title>
<path fill="none" stroke="midnightblue" d="M386.23,-56.25C397.61,-59.52 410.75,-63.29 422.48,-66.66"/>
<polygon fill="midnightblue" stroke="midnightblue" points="421.77,-70.1 432.35,-69.49 423.7,-63.37 421.77,-70.1"/>
</g>
<!-- Node7 -->
<g id="node7" class="node">
<title>Node7</title>
<g id="a_node7"><a xlink:href="fr_8cuh.html#aa53ac2a9b28c7f128a9ee8e106abcf3c" target="_top" xlink:title="Reduced the value in fr_t to the field modulus.">
<polygon fill="white" stroke="black" points="422,-19.5 422,-38.5 490,-38.5 490,-19.5 422,-19.5"/>
<text text-anchor="middle" x="456" y="-26.5" font-family="Helvetica,sans-Serif" font-size="10.00">fr_reduce4</text>
</a>
</g>
</g>
<!-- Node6&#45;&gt;Node7 -->
<g id="edge8" class="edge">
<title>Node6&#45;&gt;Node7</title>
<path fill="none" stroke="midnightblue" d="M386.23,-42.4C394.22,-40.84 403.08,-39.12 411.72,-37.43"/>
<polygon fill="midnightblue" stroke="midnightblue" points="412.53,-40.84 421.68,-35.49 411.19,-33.97 412.53,-40.84"/>
</g>
<!-- Node9&#45;&gt;Node2 -->
<g id="edge11" class="edge">
<title>Node9&#45;&gt;Node2</title>
<path fill="none" stroke="midnightblue" d="M372.02,-19.64C376.51,-22.63 381.46,-25.94 386,-29 401.53,-39.46 418.96,-51.34 432.41,-60.53"/>
<polygon fill="midnightblue" stroke="midnightblue" points="430.79,-63.66 441.02,-66.42 434.74,-57.88 430.79,-63.66"/>
</g>
<!-- Node9&#45;&gt;Node7 -->
<g id="edge12" class="edge">
<title>Node9&#45;&gt;Node7</title>
<path fill="none" stroke="midnightblue" d="M382.61,-14.89C391.58,-16.64 401.96,-18.66 412.01,-20.62"/>
<polygon fill="midnightblue" stroke="midnightblue" points="411.4,-24.07 421.88,-22.55 412.74,-17.2 411.4,-24.07"/>
</g>
</g>
</svg>
