<?xml version="1.0" encoding="UTF-8" standalone="no"?>
<!DOCTYPE svg PUBLIC "-//W3C//DTD SVG 1.1//EN"
 "http://www.w3.org/Graphics/SVG/1.1/DTD/svg11.dtd">
<!-- Generated by graphviz version 2.43.0 (0)
 -->
<!-- Title: main Pages: 1 -->
<svg width="634pt" height="808pt"
 viewBox="0.00 0.00 634.00 808.48" xmlns="http://www.w3.org/2000/svg" xmlns:xlink="http://www.w3.org/1999/xlink">
<g id="graph0" class="graph" transform="scale(1 1) rotate(0) translate(4 804.48)">
<title>main</title>
<polygon fill="white" stroke="transparent" points="-4,4 -4,-804.48 630,-804.48 630,4 -4,4"/>
<!-- Node1 -->
<g id="node1" class="node">
<title>Node1</title>
<g id="a_node1"><a xlink:title="Self test of the functions over Fr.">
<polygon fill="#bfbfbf" stroke="black" points="0,-437.5 0,-456.5 41,-456.5 41,-437.5 0,-437.5"/>
<text text-anchor="middle" x="20.5" y="-444.5" font-family="Helvetica,sans-Serif" font-size="10.00">main</text>
</a>
</g>
</g>
<!-- Node2 -->
<g id="node2" class="node">
<title>Node2</title>
<g id="a_node2"><a xlink:href="frtest__distributive_8cu.html#ab7e0e335289f2f94a4755c94def10cc5" target="_top" xlink:title="Check the distributive property of multiplication in Fr (left of addition):">
<polygon fill="white" stroke="black" points="80.5,-722.5 80.5,-741.5 219.5,-741.5 219.5,-722.5 80.5,-722.5"/>
<text text-anchor="middle" x="150" y="-729.5" font-family="Helvetica,sans-Serif" font-size="10.00">FrTestAddDistributiveLeft</text>
</a>
</g>
</g>
<!-- Node1&#45;&gt;Node2 -->
<g id="edge1" class="edge">
<title>Node1&#45;&gt;Node2</title>
<path fill="none" stroke="midnightblue" d="M22.18,-456.63C25.42,-499.76 40.63,-674.67 77,-713 78.25,-714.32 79.59,-715.56 80.99,-716.71"/>
<polygon fill="midnightblue" stroke="midnightblue" points="79.4,-719.85 89.67,-722.44 83.26,-714.01 79.4,-719.85"/>
</g>
<!-- Node3 -->
<g id="node3" class="node">
<title>Node3</title>
<g id="a_node3"><a xlink:href="frtest__distributive_8cu.html#ab6e43a4b4d36b7860df16059e2ca5626" target="_top" xlink:title="Check the distributive property of multiplication in Fr (right of addition):">
<polygon fill="white" stroke="black" points="77,-684.5 77,-703.5 223,-703.5 223,-684.5 77,-684.5"/>
<text text-anchor="middle" x="150" y="-691.5" font-family="Helvetica,sans-Serif" font-size="10.00">FrTestAddDistributiveRight</text>
</a>
</g>
</g>
<!-- Node1&#45;&gt;Node3 -->
<g id="edge2" class="edge">
<title>Node1&#45;&gt;Node3</title>
<path fill="none" stroke="midnightblue" d="M22.53,-456.55C26.94,-495.63 45.4,-642.79 77,-675 78.43,-676.45 79.95,-677.8 81.55,-679.05"/>
<polygon fill="midnightblue" stroke="midnightblue" points="79.83,-682.1 90.15,-684.49 83.57,-676.19 79.83,-682.1"/>
</g>
<!-- Node4 -->
<g id="node4" class="node">
<title>Node4</title>
<g id="a_node4"><a xlink:href="frtest__addsub_8cu.html#a76d9aced54d0cff4e6c5bdc291667839" target="_top" xlink:title="Test for the fr_addsub kernel.">
<polygon fill="white" stroke="black" points="109,-646.5 109,-665.5 191,-665.5 191,-646.5 109,-646.5"/>
<text text-anchor="middle" x="150" y="-653.5" font-family="Helvetica,sans-Serif" font-size="10.00">FrTestAddSub</text>
</a>
</g>
</g>
<!-- Node1&#45;&gt;Node4 -->
<g id="edge3" class="edge">
<title>Node1&#45;&gt;Node4</title>
<path fill="none" stroke="midnightblue" d="M21.24,-456.52C20.93,-487.39 24.32,-585.68 77,-637 83.12,-642.97 90.89,-647.12 99.04,-649.99"/>
<polygon fill="midnightblue" stroke="midnightblue" points="98.12,-653.37 108.7,-652.82 100.08,-646.65 98.12,-653.37"/>
</g>
<!-- Node5 -->
<g id="node5" class="node">
<title>Node5</title>
<g id="a_node5"><a xlink:href="frtest__add_8cu.html#ab406ed03ae14830f43cb31b87b9a3d17" target="_top" xlink:title="Test the associative property of addition.">
<polygon fill="white" stroke="black" points="90,-608.5 90,-627.5 210,-627.5 210,-608.5 90,-608.5"/>
<text text-anchor="middle" x="150" y="-615.5" font-family="Helvetica,sans-Serif" font-size="10.00">FrTestAssociativeAdd</text>
</a>
</g>
</g>
<!-- Node1&#45;&gt;Node5 -->
<g id="edge4" class="edge">
<title>Node1&#45;&gt;Node5</title>
<path fill="none" stroke="midnightblue" d="M22.07,-456.87C24.17,-483.89 33.82,-559.63 77,-599 78.71,-600.56 80.53,-601.99 82.44,-603.31"/>
<polygon fill="midnightblue" stroke="midnightblue" points="80.88,-606.45 91.3,-608.38 84.36,-600.37 80.88,-606.45"/>
</g>
<!-- Node6 -->
<g id="node6" class="node">
<title>Node6</title>
<g id="a_node6"><a xlink:href="frtest__mul_8cu.html#a781f233a3a055d636fc10a6f067bf78b" target="_top" xlink:title="Test of the associative property of multiplication (x*y)*z == x*(y*z)">
<polygon fill="white" stroke="black" points="90.5,-570.5 90.5,-589.5 209.5,-589.5 209.5,-570.5 90.5,-570.5"/>
<text text-anchor="middle" x="150" y="-577.5" font-family="Helvetica,sans-Serif" font-size="10.00">FrTestAssociativeMul</text>
</a>
</g>
</g>
<!-- Node1&#45;&gt;Node6 -->
<g id="edge5" class="edge">
<title>Node1&#45;&gt;Node6</title>
<path fill="none" stroke="midnightblue" d="M23.35,-456.64C28.1,-478.65 42.82,-532.91 77,-561 79.05,-562.69 81.24,-564.23 83.53,-565.63"/>
<polygon fill="midnightblue" stroke="midnightblue" points="82.28,-568.93 92.78,-570.4 85.49,-562.7 82.28,-568.93"/>
</g>
<!-- Node7 -->
<g id="node7" class="node">
<title>Node7</title>
<g id="a_node7"><a xlink:href="frtest__cmp_8cu.html#a871de10e2f93c77672721a62951f876a" target="_top" xlink:title="Test for the comparison function; checks for inconsistencies in the following properties:">
<polygon fill="white" stroke="black" points="116,-494.5 116,-513.5 184,-513.5 184,-494.5 116,-494.5"/>
<text text-anchor="middle" x="150" y="-501.5" font-family="Helvetica,sans-Serif" font-size="10.00">FrTestCmp</text>
</a>
</g>
</g>
<!-- Node1&#45;&gt;Node7 -->
<g id="edge6" class="edge">
<title>Node1&#45;&gt;Node7</title>
<path fill="none" stroke="midnightblue" d="M33.12,-456.73C43.89,-465.29 60.65,-477.52 77,-485 86.07,-489.15 96.22,-492.53 105.97,-495.22"/>
<polygon fill="midnightblue" stroke="midnightblue" points="105.37,-498.68 115.92,-497.78 107.11,-491.9 105.37,-498.68"/>
</g>
<!-- Node14 -->
<g id="node14" class="node">
<title>Node14</title>
<g id="a_node14"><a xlink:href="frtest__add_8cu.html#a6372e698dff3983b1e875cf08c097d97" target="_top" xlink:title="Test the cumulative property of addition.">
<polygon fill="white" stroke="black" points="84.5,-342.5 84.5,-361.5 215.5,-361.5 215.5,-342.5 84.5,-342.5"/>
<text text-anchor="middle" x="150" y="-349.5" font-family="Helvetica,sans-Serif" font-size="10.00">FrTestCommutativeAdd</text>
</a>
</g>
</g>
<!-- Node1&#45;&gt;Node14 -->
<g id="edge16" class="edge">
<title>Node1&#45;&gt;Node14</title>
<path fill="none" stroke="midnightblue" d="M34.66,-437.19C56.73,-420.75 101.36,-387.5 127.86,-367.75"/>
<polygon fill="midnightblue" stroke="midnightblue" points="130.17,-370.4 136.1,-361.61 125.99,-364.78 130.17,-370.4"/>
</g>
<!-- Node17 -->
<g id="node17" class="node">
<title>Node17</title>
<g id="a_node17"><a xlink:href="frtest__mul_8cu.html#aba1ae7a1fb9958d713a549e881a8dcb2" target="_top" xlink:title="Test of the commutative property of multiplication x*y == y*x.">
<polygon fill="white" stroke="black" points="85,-456.5 85,-475.5 215,-475.5 215,-456.5 85,-456.5"/>
<text text-anchor="middle" x="150" y="-463.5" font-family="Helvetica,sans-Serif" font-size="10.00">FrTestCommutativeMul</text>
</a>
</g>
</g>
<!-- Node1&#45;&gt;Node17 -->
<g id="edge23" class="edge">
<title>Node1&#45;&gt;Node17</title>
<path fill="none" stroke="midnightblue" d="M41.14,-449.93C50.57,-451.33 62.52,-453.11 75,-454.97"/>
<polygon fill="midnightblue" stroke="midnightblue" points="74.69,-458.46 85.09,-456.48 75.72,-451.54 74.69,-458.46"/>
</g>
<!-- Node19 -->
<g id="node19" class="node">
<title>Node19</title>
<g id="a_node19"><a xlink:href="frtest_8cuh.html#a4ded3b3b54bb394b4168cb5f92ec72b4" target="_top" xlink:title="Tests fft and inverse fft over Fr using KAT.">
<polygon fill="white" stroke="black" points="119,-532.5 119,-551.5 181,-551.5 181,-532.5 119,-532.5"/>
<text text-anchor="middle" x="150" y="-539.5" font-family="Helvetica,sans-Serif" font-size="10.00">FrTestFFT</text>
</a>
</g>
</g>
<!-- Node1&#45;&gt;Node19 -->
<g id="edge28" class="edge">
<title>Node1&#45;&gt;Node19</title>
<path fill="none" stroke="midnightblue" d="M25.8,-456.57C33.59,-472.81 51.63,-505.68 77,-523 86.4,-529.42 97.85,-533.67 108.83,-536.48"/>
<polygon fill="midnightblue" stroke="midnightblue" points="108.19,-539.93 118.71,-538.69 109.71,-533.09 108.19,-539.93"/>
</g>
<!-- Node25 -->
<g id="node25" class="node">
<title>Node25</title>
<g id="a_node25"><a xlink:href="frtest__fibonacci_8cu.html#ad97d52b82c26e99df17a0809f8c14ffb" target="_top" xlink:title="Test addition and subtraction in Fr using a fibonacci sequence (chain dependency) from 1 to ITERATION...">
<polygon fill="white" stroke="black" points="104.5,-418.5 104.5,-437.5 195.5,-437.5 195.5,-418.5 104.5,-418.5"/>
<text text-anchor="middle" x="150" y="-425.5" font-family="Helvetica,sans-Serif" font-size="10.00">FrTestFibonacci</text>
</a>
</g>
</g>
<!-- Node1&#45;&gt;Node25 -->
<g id="edge39" class="edge">
<title>Node1&#45;&gt;Node25</title>
<path fill="none" stroke="midnightblue" d="M41.14,-444.07C55.41,-441.95 75.47,-438.96 94.42,-436.13"/>
<polygon fill="midnightblue" stroke="midnightblue" points="95.11,-439.57 104.49,-434.63 94.08,-432.65 95.11,-439.57"/>
</g>
<!-- Node28 -->
<g id="node28" class="node">
<title>Node28</title>
<g id="a_node28"><a xlink:href="frtest__kat_8cu.html#a07f15fbd95c26f365caa61c17531fce2" target="_top" xlink:title="tests using KAT for: fr_cpy, fr_reduce4, fr_eq, fr_neq, fr_neg, fr_x2, fr_x3, fr_add,...">
<polygon fill="white" stroke="black" points="118,-247.5 118,-266.5 182,-266.5 182,-247.5 118,-247.5"/>
<text text-anchor="middle" x="150" y="-254.5" font-family="Helvetica,sans-Serif" font-size="10.00">FrTestKAT</text>
</a>
</g>
</g>
<!-- Node1&#45;&gt;Node28 -->
<g id="edge49" class="edge">
<title>Node1&#45;&gt;Node28</title>
<path fill="none" stroke="midnightblue" d="M21.61,-437.2C22.47,-408.07 29.15,-321.25 77,-276 85.34,-268.11 96.56,-263.41 107.66,-260.63"/>
<polygon fill="midnightblue" stroke="midnightblue" points="108.62,-264.01 117.73,-258.59 107.23,-257.15 108.62,-264.01"/>
</g>
<!-- Node29 -->
<g id="node29" class="node">
<title>Node29</title>
<g id="a_node29"><a xlink:href="frtest__mulconst_8cu.html#aa528975311db670a1f658a498220adfa" target="_top" xlink:title="Test multiply by constant on Fr:">
<polygon fill="white" stroke="black" points="104.5,-285.5 104.5,-304.5 195.5,-304.5 195.5,-285.5 104.5,-285.5"/>
<text text-anchor="middle" x="150" y="-292.5" font-family="Helvetica,sans-Serif" font-size="10.00">FrTestMulConst</text>
</a>
</g>
</g>
<!-- Node1&#45;&gt;Node29 -->
<g id="edge50" class="edge">
<title>Node1&#45;&gt;Node29</title>
<path fill="none" stroke="midnightblue" d="M24,-437.24C29.9,-415.9 46.53,-364.47 77,-333 86.87,-322.8 100.07,-314.76 112.48,-308.75"/>
<polygon fill="midnightblue" stroke="midnightblue" points="114.08,-311.87 121.74,-304.55 111.19,-305.49 114.08,-311.87"/>
</g>
<!-- Node35 -->
<g id="node35" class="node">
<title>Node35</title>
<g id="a_node35"><a xlink:href="frtest__sub_8cu.html#a2a6bd849267a975091246edd81663a04" target="_top" xlink:title="Test of subtraction x == y&#45;(y&#45;x)">
<polygon fill="white" stroke="black" points="118.5,-209.5 118.5,-228.5 181.5,-228.5 181.5,-209.5 118.5,-209.5"/>
<text text-anchor="middle" x="150" y="-216.5" font-family="Helvetica,sans-Serif" font-size="10.00">FrTestSub</text>
</a>
</g>
</g>
<!-- Node1&#45;&gt;Node35 -->
<g id="edge60" class="edge">
<title>Node1&#45;&gt;Node35</title>
<path fill="none" stroke="midnightblue" d="M20.94,-437.48C19.56,-404.69 19.62,-295.3 77,-238 85.35,-229.66 96.9,-224.86 108.3,-222.12"/>
<polygon fill="midnightblue" stroke="midnightblue" points="109.04,-225.54 118.2,-220.21 107.72,-218.67 109.04,-225.54"/>
</g>
<!-- Node36 -->
<g id="node36" class="node">
<title>Node36</title>
<g id="a_node36"><a xlink:href="frtest__distributive_8cu.html#a577f2ab6ba920f77e436daef90a0a5ea" target="_top" xlink:title="Check the distributive property of multiplication in Fr (left of subtraction):">
<polygon fill="white" stroke="black" points="81,-171.5 81,-190.5 219,-190.5 219,-171.5 81,-171.5"/>
<text text-anchor="middle" x="150" y="-178.5" font-family="Helvetica,sans-Serif" font-size="10.00">FrTestSubDistributiveLeft</text>
</a>
</g>
</g>
<!-- Node1&#45;&gt;Node36 -->
<g id="edge61" class="edge">
<title>Node1&#45;&gt;Node36</title>
<path fill="none" stroke="midnightblue" d="M22.36,-437.23C26.2,-395.8 43.07,-235.21 77,-200 78.26,-198.69 79.61,-197.46 81.02,-196.32"/>
<polygon fill="midnightblue" stroke="midnightblue" points="83.28,-199.02 89.73,-190.62 79.45,-193.16 83.28,-199.02"/>
</g>
<!-- Node37 -->
<g id="node37" class="node">
<title>Node37</title>
<g id="a_node37"><a xlink:href="frtest__distributive_8cu.html#af0c1a7f9d8d7295d5ffea5e22b025914" target="_top" xlink:title="Check the distributive property of multiplication in Fr (right of subtraction):">
<polygon fill="white" stroke="black" points="77,-133.5 77,-152.5 223,-152.5 223,-133.5 77,-133.5"/>
<text text-anchor="middle" x="150" y="-140.5" font-family="Helvetica,sans-Serif" font-size="10.00">FrTestSubDistributiveRight</text>
</a>
</g>
</g>
<!-- Node1&#45;&gt;Node37 -->
<g id="edge62" class="edge">
<title>Node1&#45;&gt;Node37</title>
<path fill="none" stroke="midnightblue" d="M22.04,-437.3C24.74,-392.18 38.24,-203.39 77,-162 78.25,-160.67 79.57,-159.43 80.97,-158.27"/>
<polygon fill="midnightblue" stroke="midnightblue" points="83.23,-160.97 89.61,-152.51 79.35,-155.14 83.23,-160.97"/>
</g>
<!-- Node38 -->
<g id="node38" class="node">
<title>Node38</title>
<g id="a_node38"><a xlink:href="frtest_8cu.html#a02fd73d861ef2e4aabb38c0c9ff82947" target="_top" xlink:title="initialize test values">
<polygon fill="white" stroke="black" points="134,-57.5 134,-76.5 166,-76.5 166,-57.5 134,-57.5"/>
<text text-anchor="middle" x="150" y="-64.5" font-family="Helvetica,sans-Serif" font-size="10.00">init</text>
</a>
</g>
</g>
<!-- Node1&#45;&gt;Node38 -->
<g id="edge63" class="edge">
<title>Node1&#45;&gt;Node38</title>
<path fill="none" stroke="midnightblue" d="M22.23,-437.33C25.97,-389.62 44.11,-179.41 77,-124 88.36,-104.86 108.74,-89.65 124.93,-79.77"/>
<polygon fill="midnightblue" stroke="midnightblue" points="126.98,-82.62 133.87,-74.58 123.47,-76.57 126.98,-82.62"/>
</g>
<!-- Node8 -->
<g id="node8" class="node">
<title>Node8</title>
<g id="a_node8"><a xlink:href="fr_8cuh.html#a8abf9d8ad4b633144fcc0c6956d14056" target="_top" xlink:title="Copy from x into z.">
<polygon fill="white" stroke="black" points="568.5,-532.5 568.5,-551.5 615.5,-551.5 615.5,-532.5 568.5,-532.5"/>
<text text-anchor="middle" x="592" y="-539.5" font-family="Helvetica,sans-Serif" font-size="10.00">fr_cpy</text>
</a>
</g>
</g>
<!-- Node7&#45;&gt;Node8 -->
<g id="edge7" class="edge">
<title>Node7&#45;&gt;Node8</title>
<path fill="none" stroke="midnightblue" d="M184.07,-505.92C197.62,-508.29 212.55,-513.17 223,-523 260.16,-557.96 217.65,-602.11 259,-632 353.73,-700.48 417.18,-683.72 522,-632 551.88,-617.26 572.4,-582.69 582.89,-560.94"/>
<polygon fill="midnightblue" stroke="midnightblue" points="586.13,-562.25 587.11,-551.7 579.77,-559.34 586.13,-562.25"/>
</g>
<!-- Node9 -->
<g id="node9" class="node">
<title>Node9</title>
<g id="a_node9"><a xlink:href="fr_8cuh.html#a4e45802fc36909ab3c8a71f662689cfa" target="_top" xlink:title="Compares two residues modulo r.">
<polygon fill="white" stroke="black" points="380,-494.5 380,-513.5 421,-513.5 421,-494.5 380,-494.5"/>
<text text-anchor="middle" x="400.5" y="-501.5" font-family="Helvetica,sans-Serif" font-size="10.00">fr_eq</text>
</a>
</g>
</g>
<!-- Node7&#45;&gt;Node9 -->
<g id="edge8" class="edge">
<title>Node7&#45;&gt;Node9</title>
<path fill="none" stroke="midnightblue" d="M184.3,-512.56C222.91,-521.27 288.37,-532.26 344,-523 352.71,-521.55 361.89,-518.9 370.22,-516.03"/>
<polygon fill="midnightblue" stroke="midnightblue" points="371.69,-519.22 379.87,-512.49 369.28,-512.65 371.69,-519.22"/>
</g>
<!-- Node13 -->
<g id="node13" class="node">
<title>Node13</title>
<g id="a_node13"><a xlink:href="fr_8cuh.html#a4f11be4124fc653c718d01acc42cf7f2" target="_top" xlink:title="Compares two fr_t residues.">
<polygon fill="white" stroke="black" points="278,-494.5 278,-513.5 325,-513.5 325,-494.5 278,-494.5"/>
<text text-anchor="middle" x="301.5" y="-501.5" font-family="Helvetica,sans-Serif" font-size="10.00">fr_neq</text>
</a>
</g>
</g>
<!-- Node7&#45;&gt;Node13 -->
<g id="edge14" class="edge">
<title>Node7&#45;&gt;Node13</title>
<path fill="none" stroke="midnightblue" d="M184.18,-504C209.02,-504 242.84,-504 267.61,-504"/>
<polygon fill="midnightblue" stroke="midnightblue" points="267.62,-507.5 277.62,-504 267.62,-500.5 267.62,-507.5"/>
</g>
<!-- Node9&#45;&gt;Node8 -->
<g id="edge9" class="edge">
<title>Node9&#45;&gt;Node8</title>
<path fill="none" stroke="midnightblue" d="M421.01,-511.69C431.53,-515.58 444.82,-520.08 457,-523 491.09,-531.17 530.96,-536.27 558.29,-539.11"/>
<polygon fill="midnightblue" stroke="midnightblue" points="558.17,-542.61 568.47,-540.12 558.86,-535.65 558.17,-542.61"/>
</g>
<!-- Node10 -->
<g id="node10" class="node">
<title>Node10</title>
<g id="a_node10"><a xlink:href="fr_8cuh.html#a78b8df6518ee14cdf2cdc025abf902fa" target="_top" xlink:title="Checks if the residue x modulo f is congruent to zero.">
<polygon fill="white" stroke="black" points="460,-494.5 460,-513.5 519,-513.5 519,-494.5 460,-494.5"/>
<text text-anchor="middle" x="489.5" y="-501.5" font-family="Helvetica,sans-Serif" font-size="10.00">fr_iszero</text>
</a>
</g>
</g>
<!-- Node9&#45;&gt;Node10 -->
<g id="edge10" class="edge">
<title>Node9&#45;&gt;Node10</title>
<path fill="none" stroke="midnightblue" d="M421.24,-504C429.73,-504 439.95,-504 449.83,-504"/>
<polygon fill="midnightblue" stroke="midnightblue" points="449.93,-507.5 459.93,-504 449.93,-500.5 449.93,-507.5"/>
</g>
<!-- Node12 -->
<g id="node12" class="node">
<title>Node12</title>
<g id="a_node12"><a xlink:href="fr_8cuh.html#a06643f48ada0bf9fa0a1bb1e605def94" target="_top" xlink:title="Calculates the difference of two residues modulo p and stores it into z.">
<polygon fill="white" stroke="black" points="466,-456.5 466,-475.5 513,-475.5 513,-456.5 466,-456.5"/>
<text text-anchor="middle" x="489.5" y="-463.5" font-family="Helvetica,sans-Serif" font-size="10.00">fr_sub</text>
</a>
</g>
</g>
<!-- Node9&#45;&gt;Node12 -->
<g id="edge13" class="edge">
<title>Node9&#45;&gt;Node12</title>
<path fill="none" stroke="midnightblue" d="M421.24,-495.38C431.92,-490.71 445.36,-484.84 457.41,-479.58"/>
<polygon fill="midnightblue" stroke="midnightblue" points="458.94,-482.73 466.7,-475.52 456.13,-476.32 458.94,-482.73"/>
</g>
<!-- Node10&#45;&gt;Node8 -->
<g id="edge11" class="edge">
<title>Node10&#45;&gt;Node8</title>
<path fill="none" stroke="midnightblue" d="M515.86,-513.59C528.87,-518.51 544.85,-524.55 558.73,-529.8"/>
<polygon fill="midnightblue" stroke="midnightblue" points="557.8,-533.19 568.39,-533.45 560.28,-526.64 557.8,-533.19"/>
</g>
<!-- Node11 -->
<g id="node11" class="node">
<title>Node11</title>
<g id="a_node11"><a xlink:href="fr_8cuh.html#aa53ac2a9b28c7f128a9ee8e106abcf3c" target="_top" xlink:title="Reduced the value in fr_t to the field modulus.">
<polygon fill="white" stroke="black" points="558,-304.5 558,-323.5 626,-323.5 626,-304.5 558,-304.5"/>
<text text-anchor="middle" x="592" y="-311.5" font-family="Helvetica,sans-Serif" font-size="10.00">fr_reduce4</text>
</a>
</g>
</g>
<!-- Node10&#45;&gt;Node11 -->
<g id="edge12" class="edge">
<title>Node10&#45;&gt;Node11</title>
<path fill="none" stroke="midnightblue" d="M510.98,-494.3C515.01,-491.7 518.93,-488.6 522,-485 561.18,-439.03 580.09,-367.94 587.32,-333.72"/>
<polygon fill="midnightblue" stroke="midnightblue" points="590.81,-334.12 589.34,-323.62 583.95,-332.74 590.81,-334.12"/>
</g>
<!-- Node13&#45;&gt;Node9 -->
<g id="edge15" class="edge">
<title>Node13&#45;&gt;Node9</title>
<path fill="none" stroke="midnightblue" d="M325.49,-504C338.7,-504 355.45,-504 369.67,-504"/>
<polygon fill="midnightblue" stroke="midnightblue" points="369.95,-507.5 379.95,-504 369.95,-500.5 369.95,-507.5"/>
</g>
<!-- Node14&#45;&gt;Node8 -->
<g id="edge18" class="edge">
<title>Node14&#45;&gt;Node8</title>
<path fill="none" stroke="midnightblue" d="M194.91,-342.49C214.43,-338.72 237.76,-334.85 259,-333 379.5,-322.48 432.87,-321.23 522,-403 558.26,-436.27 577.91,-492.83 586.18,-522.51"/>
<polygon fill="midnightblue" stroke="midnightblue" points="582.88,-523.68 588.81,-532.46 589.64,-521.9 582.88,-523.68"/>
</g>
<!-- Node14&#45;&gt;Node13 -->
<g id="edge19" class="edge">
<title>Node14&#45;&gt;Node13</title>
<path fill="none" stroke="midnightblue" d="M165,-361.68C180.07,-372.42 204.38,-390.65 223,-409 248.11,-433.75 273.17,-466.24 287.73,-486.09"/>
<polygon fill="midnightblue" stroke="midnightblue" points="284.95,-488.21 293.65,-494.26 290.61,-484.1 284.95,-488.21"/>
</g>
<!-- Node15 -->
<g id="node15" class="node">
<title>Node15</title>
<g id="a_node15"><a xlink:href="fr_8cuh.html#aaeef506ae3eb09b0586eb48e9c7d77ad" target="_top" xlink:title="Computes the sum of two residues x and z modulo r and stores it in z. Device only function.">
<polygon fill="white" stroke="black" points="278,-266.5 278,-285.5 325,-285.5 325,-266.5 278,-266.5"/>
<text text-anchor="middle" x="301.5" y="-273.5" font-family="Helvetica,sans-Serif" font-size="10.00">fr_add</text>
</a>
</g>
</g>
<!-- Node14&#45;&gt;Node15 -->
<g id="edge17" class="edge">
<title>Node14&#45;&gt;Node15</title>
<path fill="none" stroke="midnightblue" d="M169.93,-342.37C195.88,-329.18 242.68,-305.39 272.63,-290.17"/>
<polygon fill="midnightblue" stroke="midnightblue" points="274.39,-293.2 281.72,-285.55 271.22,-286.96 274.39,-293.2"/>
</g>
<!-- Node16 -->
<g id="node16" class="node">
<title>Node16</title>
<g id="a_node16"><a xlink:href="fr_8cu.html#a48d3ace037073f6d394152bee7f40b71" target="_top" xlink:title="prints the canonical representation of x to STDOUT.">
<polygon fill="white" stroke="black" points="275.5,-342.5 275.5,-361.5 327.5,-361.5 327.5,-342.5 275.5,-342.5"/>
<text text-anchor="middle" x="301.5" y="-349.5" font-family="Helvetica,sans-Serif" font-size="10.00">fr_print</text>
</a>
</g>
</g>
<!-- Node14&#45;&gt;Node16 -->
<g id="edge20" class="edge">
<title>Node14&#45;&gt;Node16</title>
<path fill="none" stroke="midnightblue" d="M215.7,-352C232.72,-352 250.45,-352 265.27,-352"/>
<polygon fill="midnightblue" stroke="midnightblue" points="265.49,-355.5 275.49,-352 265.49,-348.5 265.49,-355.5"/>
</g>
<!-- Node16&#45;&gt;Node8 -->
<g id="edge21" class="edge">
<title>Node16&#45;&gt;Node8</title>
<path fill="none" stroke="midnightblue" d="M327.84,-358.21C371.26,-369.83 461.08,-398.18 522,-447 548.64,-468.35 569.96,-502.42 581.51,-523.44"/>
<polygon fill="midnightblue" stroke="midnightblue" points="578.46,-525.15 586.25,-532.33 584.64,-521.86 578.46,-525.15"/>
</g>
<!-- Node16&#45;&gt;Node11 -->
<g id="edge22" class="edge">
<title>Node16&#45;&gt;Node11</title>
<path fill="none" stroke="midnightblue" d="M321.87,-342.3C350.54,-328.55 406.34,-304.05 457,-295 485.44,-289.92 493.37,-291.13 522,-295 532.34,-296.4 543.33,-298.92 553.42,-301.69"/>
<polygon fill="midnightblue" stroke="midnightblue" points="552.58,-305.09 563.16,-304.5 554.52,-298.36 552.58,-305.09"/>
</g>
<!-- Node17&#45;&gt;Node8 -->
<g id="edge24" class="edge">
<title>Node17&#45;&gt;Node8</title>
<path fill="none" stroke="midnightblue" d="M209.18,-475.66C214.23,-478.13 218.95,-481.19 223,-485 260.16,-519.96 217.65,-564.11 259,-594 306.37,-628.24 466.58,-612.55 522,-594 542.73,-587.06 562.22,-571.17 575.17,-558.77"/>
<polygon fill="midnightblue" stroke="midnightblue" points="577.73,-561.15 582.33,-551.61 572.78,-556.2 577.73,-561.15"/>
</g>
<!-- Node17&#45;&gt;Node13 -->
<g id="edge26" class="edge">
<title>Node17&#45;&gt;Node13</title>
<path fill="none" stroke="midnightblue" d="M188.73,-475.59C213.14,-481.79 244.6,-489.79 267.92,-495.72"/>
<polygon fill="midnightblue" stroke="midnightblue" points="267.14,-499.13 277.69,-498.2 268.86,-492.35 267.14,-499.13"/>
</g>
<!-- Node17&#45;&gt;Node16 -->
<g id="edge27" class="edge">
<title>Node17&#45;&gt;Node16</title>
<path fill="none" stroke="midnightblue" d="M203.4,-456.38C210.29,-453.92 217.02,-450.85 223,-447 238.95,-436.73 270.25,-394.71 287.8,-370.13"/>
<polygon fill="midnightblue" stroke="midnightblue" points="290.87,-371.85 293.8,-361.67 285.16,-367.81 290.87,-371.85"/>
</g>
<!-- Node18 -->
<g id="node18" class="node">
<title>Node18</title>
<g id="a_node18"><a xlink:href="fr_8cuh.html#abaa90fa0475f5ddc32a4aee93de4e33b" target="_top" xlink:title="Multiply two residues module r z and x, stores back into z.">
<polygon fill="white" stroke="black" points="465.5,-684.5 465.5,-703.5 513.5,-703.5 513.5,-684.5 465.5,-684.5"/>
<text text-anchor="middle" x="489.5" y="-691.5" font-family="Helvetica,sans-Serif" font-size="10.00">fr_mul</text>
</a>
</g>
</g>
<!-- Node17&#45;&gt;Node18 -->
<g id="edge25" class="edge">
<title>Node17&#45;&gt;Node18</title>
<path fill="none" stroke="midnightblue" d="M209.85,-475.51C214.7,-478.01 219.19,-481.13 223,-485 270.14,-532.99 212,-583.88 259,-632 311.39,-685.64 405,-694.37 454.94,-694.92"/>
<polygon fill="midnightblue" stroke="midnightblue" points="455.2,-698.42 465.2,-694.92 455.2,-691.42 455.2,-698.42"/>
</g>
<!-- Node20 -->
<g id="node20" class="node">
<title>Node20</title>
<g id="a_node20"><a xlink:href="fr_8cuh.html#abf810ba4f2672a8d319e6cdbfc8ba68e" target="_top" xlink:title="wrapper for fr_fft: FFT for fr_t[512]">
<polygon fill="white" stroke="black" points="259,-722.5 259,-741.5 344,-741.5 344,-722.5 259,-722.5"/>
<text text-anchor="middle" x="301.5" y="-729.5" font-family="Helvetica,sans-Serif" font-size="10.00">fr_fft_wrapper</text>
</a>
</g>
</g>
<!-- Node19&#45;&gt;Node20 -->
<g id="edge29" class="edge">
<title>Node19&#45;&gt;Node20</title>
<path fill="none" stroke="midnightblue" d="M181.17,-543.02C195.63,-545.07 212.13,-549.93 223,-561 270.14,-608.99 218.65,-654.18 259,-708 261.46,-711.28 264.5,-714.18 267.82,-716.74"/>
<polygon fill="midnightblue" stroke="midnightblue" points="266.16,-719.83 276.45,-722.37 269.99,-713.97 266.16,-719.83"/>
</g>
<!-- Node23 -->
<g id="node23" class="node">
<title>Node23</title>
<g id="a_node23"><a xlink:href="fr_8cuh.html#ac7091cde352483e51fa09119e9176b35" target="_top" xlink:title="wrapper for fr_ift: inverse FFT for fr_t[512]">
<polygon fill="white" stroke="black" points="259.5,-760.5 259.5,-779.5 343.5,-779.5 343.5,-760.5 259.5,-760.5"/>
<text text-anchor="middle" x="301.5" y="-767.5" font-family="Helvetica,sans-Serif" font-size="10.00">fr_ift_wrapper</text>
</a>
</g>
</g>
<!-- Node19&#45;&gt;Node23 -->
<g id="edge34" class="edge">
<title>Node19&#45;&gt;Node23</title>
<path fill="none" stroke="midnightblue" d="M181.05,-542.73C195.67,-544.68 212.34,-549.55 223,-561 281.59,-623.89 206.01,-683.33 259,-751 259.95,-752.21 260.99,-753.34 262.1,-754.41"/>
<polygon fill="midnightblue" stroke="midnightblue" points="260.21,-757.36 270.34,-760.47 264.36,-751.72 260.21,-757.36"/>
</g>
<!-- Node21 -->
<g id="node21" class="node">
<title>Node21</title>
<g id="a_node21"><a xlink:href="fr__fft_8cu.html#aea5631ea87a7bab0cbc4e01740c416f6" target="_top" xlink:title="FFT over Fr.">
<polygon fill="white" stroke="black" points="380.5,-722.5 380.5,-741.5 420.5,-741.5 420.5,-722.5 380.5,-722.5"/>
<text text-anchor="middle" x="400.5" y="-729.5" font-family="Helvetica,sans-Serif" font-size="10.00">fr_fft</text>
</a>
</g>
</g>
<!-- Node20&#45;&gt;Node21 -->
<g id="edge30" class="edge">
<title>Node20&#45;&gt;Node21</title>
<path fill="none" stroke="midnightblue" d="M344.2,-732C352.98,-732 362.07,-732 370.28,-732"/>
<polygon fill="midnightblue" stroke="midnightblue" points="370.46,-735.5 380.46,-732 370.46,-728.5 370.46,-735.5"/>
</g>
<!-- Node21&#45;&gt;Node8 -->
<g id="edge32" class="edge">
<title>Node21&#45;&gt;Node8</title>
<path fill="none" stroke="midnightblue" d="M420.9,-734.39C446.81,-736.48 492.83,-736.2 522,-713 569.93,-674.88 584.76,-598.25 589.19,-561.94"/>
<polygon fill="midnightblue" stroke="midnightblue" points="592.71,-561.99 590.29,-551.67 585.75,-561.24 592.71,-561.99"/>
</g>
<!-- Node21&#45;&gt;Node18 -->
<g id="edge33" class="edge">
<title>Node21&#45;&gt;Node18</title>
<path fill="none" stroke="midnightblue" d="M420.81,-723.57C431.47,-718.91 444.98,-713.01 457.12,-707.7"/>
<polygon fill="midnightblue" stroke="midnightblue" points="458.72,-710.83 466.49,-703.62 455.92,-704.41 458.72,-710.83"/>
</g>
<!-- Node22 -->
<g id="node22" class="node">
<title>Node22</title>
<g id="a_node22"><a xlink:href="fr_8cuh.html#a7f0553970ddea3d8c8823910fdea2d5c" target="_top" xlink:title="Computes the sum and the difference of the arguments, storing back into the arguments: (x,...">
<polygon fill="white" stroke="black" points="457,-760.5 457,-779.5 522,-779.5 522,-760.5 457,-760.5"/>
<text text-anchor="middle" x="489.5" y="-767.5" font-family="Helvetica,sans-Serif" font-size="10.00">fr_addsub</text>
</a>
</g>
</g>
<!-- Node21&#45;&gt;Node22 -->
<g id="edge31" class="edge">
<title>Node21&#45;&gt;Node22</title>
<path fill="none" stroke="midnightblue" d="M420.81,-740.43C431.47,-745.09 444.98,-750.99 457.12,-756.3"/>
<polygon fill="midnightblue" stroke="midnightblue" points="455.92,-759.59 466.49,-760.38 458.72,-753.17 455.92,-759.59"/>
</g>
<!-- Node24 -->
<g id="node24" class="node">
<title>Node24</title>
<g id="a_node24"><a xlink:href="fr__fft_8cu.html#ae4ccd980840d9d286f91be4f07dcb47a" target="_top" xlink:title="Inverse FFT for fr_t[512].">
<polygon fill="white" stroke="black" points="381,-760.5 381,-779.5 420,-779.5 420,-760.5 381,-760.5"/>
<text text-anchor="middle" x="400.5" y="-767.5" font-family="Helvetica,sans-Serif" font-size="10.00">fr_ift</text>
</a>
</g>
</g>
<!-- Node23&#45;&gt;Node24 -->
<g id="edge35" class="edge">
<title>Node23&#45;&gt;Node24</title>
<path fill="none" stroke="midnightblue" d="M343.64,-770C352.79,-770 362.29,-770 370.81,-770"/>
<polygon fill="midnightblue" stroke="midnightblue" points="370.98,-773.5 380.98,-770 370.98,-766.5 370.98,-773.5"/>
</g>
<!-- Node24&#45;&gt;Node8 -->
<g id="edge37" class="edge">
<title>Node24&#45;&gt;Node8</title>
<path fill="none" stroke="midnightblue" d="M418.19,-779.69C443.34,-792.87 491.3,-812.3 522,-789 558.92,-760.98 581.42,-615.18 588.54,-561.69"/>
<polygon fill="midnightblue" stroke="midnightblue" points="592.02,-562.13 589.83,-551.76 585.07,-561.23 592.02,-562.13"/>
</g>
<!-- Node24&#45;&gt;Node18 -->
<g id="edge38" class="edge">
<title>Node24&#45;&gt;Node18</title>
<path fill="none" stroke="midnightblue" d="M412.52,-760.37C426.9,-747.81 452.29,-725.63 469.73,-710.4"/>
<polygon fill="midnightblue" stroke="midnightblue" points="472.34,-712.76 477.57,-703.55 467.74,-707.49 472.34,-712.76"/>
</g>
<!-- Node24&#45;&gt;Node22 -->
<g id="edge36" class="edge">
<title>Node24&#45;&gt;Node22</title>
<path fill="none" stroke="midnightblue" d="M420.38,-770C428.08,-770 437.31,-770 446.45,-770"/>
<polygon fill="midnightblue" stroke="midnightblue" points="446.66,-773.5 456.66,-770 446.66,-766.5 446.66,-773.5"/>
</g>
<!-- Node25&#45;&gt;Node8 -->
<g id="edge41" class="edge">
<title>Node25&#45;&gt;Node8</title>
<path fill="none" stroke="midnightblue" d="M195.77,-433.44C205.53,-436.28 215.24,-440.56 223,-447 251.75,-470.88 228.41,-501.53 259,-523 350.76,-587.41 494.34,-565.04 558.33,-550.48"/>
<polygon fill="midnightblue" stroke="midnightblue" points="559.33,-553.84 568.25,-548.13 557.72,-547.03 559.33,-553.84"/>
</g>
<!-- Node25&#45;&gt;Node12 -->
<g id="edge48" class="edge">
<title>Node25&#45;&gt;Node12</title>
<path fill="none" stroke="midnightblue" d="M195.52,-436.78C214.95,-440.36 238.04,-444.29 259,-447 328.78,-456.01 411.08,-461.61 455.71,-464.23"/>
<polygon fill="midnightblue" stroke="midnightblue" points="455.77,-467.74 465.95,-464.82 456.17,-460.75 455.77,-467.74"/>
</g>
<!-- Node25&#45;&gt;Node13 -->
<g id="edge45" class="edge">
<title>Node25&#45;&gt;Node13</title>
<path fill="none" stroke="midnightblue" d="M195.7,-436.2C205.05,-438.89 214.6,-442.41 223,-447 242.05,-457.41 241.5,-467.16 259,-480 263.33,-483.18 268.12,-486.28 272.86,-489.15"/>
<polygon fill="midnightblue" stroke="midnightblue" points="271.37,-492.33 281.78,-494.31 274.88,-486.27 271.37,-492.33"/>
</g>
<!-- Node25&#45;&gt;Node15 -->
<g id="edge40" class="edge">
<title>Node25&#45;&gt;Node15</title>
<path fill="none" stroke="midnightblue" d="M165,-418.32C180.07,-407.58 204.38,-389.35 223,-371 248.11,-346.25 273.17,-313.76 287.73,-293.91"/>
<polygon fill="midnightblue" stroke="midnightblue" points="290.61,-295.9 293.65,-285.74 284.95,-291.79 290.61,-295.9"/>
</g>
<!-- Node25&#45;&gt;Node16 -->
<g id="edge47" class="edge">
<title>Node25&#45;&gt;Node16</title>
<path fill="none" stroke="midnightblue" d="M169.93,-418.37C195.88,-405.18 242.68,-381.39 272.63,-366.17"/>
<polygon fill="midnightblue" stroke="midnightblue" points="274.39,-369.2 281.72,-361.55 271.22,-362.96 274.39,-369.2"/>
</g>
<!-- Node26 -->
<g id="node26" class="node">
<title>Node26</title>
<g id="a_node26"><a xlink:href="fr_8cuh.html#a912c7835f9151e3294434ac6f656f0da" target="_top" xlink:title="Checks if the residue x modulo f is congruent to one.">
<polygon fill="white" stroke="black" points="461.5,-304.5 461.5,-323.5 517.5,-323.5 517.5,-304.5 461.5,-304.5"/>
<text text-anchor="middle" x="489.5" y="-311.5" font-family="Helvetica,sans-Serif" font-size="10.00">fr_isone</text>
</a>
</g>
</g>
<!-- Node25&#45;&gt;Node26 -->
<g id="edge42" class="edge">
<title>Node25&#45;&gt;Node26</title>
<path fill="none" stroke="midnightblue" d="M186.87,-418.43C225.85,-407.79 289.82,-389.65 344,-371 383.41,-357.44 427.89,-339.48 456.96,-327.37"/>
<polygon fill="midnightblue" stroke="midnightblue" points="458.33,-330.6 466.2,-323.51 455.63,-324.14 458.33,-330.6"/>
</g>
<!-- Node27 -->
<g id="node27" class="node">
<title>Node27</title>
<g id="a_node27"><a xlink:href="fr_8cu.html#ab87111e8edb1812fd061c1d12c0ad178" target="_top" xlink:title="Sets the value of z to one.">
<polygon fill="white" stroke="black" points="278,-418.5 278,-437.5 325,-437.5 325,-418.5 278,-418.5"/>
<text text-anchor="middle" x="301.5" y="-425.5" font-family="Helvetica,sans-Serif" font-size="10.00">fr_one</text>
</a>
</g>
</g>
<!-- Node25&#45;&gt;Node27 -->
<g id="edge46" class="edge">
<title>Node25&#45;&gt;Node27</title>
<path fill="none" stroke="midnightblue" d="M195.85,-428C218.96,-428 246.62,-428 267.7,-428"/>
<polygon fill="midnightblue" stroke="midnightblue" points="267.77,-431.5 277.77,-428 267.77,-424.5 267.77,-431.5"/>
</g>
<!-- Node26&#45;&gt;Node8 -->
<g id="edge43" class="edge">
<title>Node26&#45;&gt;Node8</title>
<path fill="none" stroke="midnightblue" d="M506.87,-323.65C512.3,-327.53 517.99,-332.42 522,-338 564.29,-396.87 582.1,-483.56 588.25,-522.18"/>
<polygon fill="midnightblue" stroke="midnightblue" points="584.8,-522.77 589.75,-532.14 591.72,-521.73 584.8,-522.77"/>
</g>
<!-- Node26&#45;&gt;Node11 -->
<g id="edge44" class="edge">
<title>Node26&#45;&gt;Node11</title>
<path fill="none" stroke="midnightblue" d="M517.7,-314C526.84,-314 537.29,-314 547.38,-314"/>
<polygon fill="midnightblue" stroke="midnightblue" points="547.69,-317.5 557.69,-314 547.69,-310.5 547.69,-317.5"/>
</g>
<!-- Node29&#45;&gt;Node8 -->
<g id="edge52" class="edge">
<title>Node29&#45;&gt;Node8</title>
<path fill="none" stroke="midnightblue" d="M193.77,-285.43C203.52,-282.78 213.73,-279.62 223,-276 239.86,-269.43 241.44,-261.35 259,-257 373.64,-228.6 435.94,-214.12 522,-295 587.79,-356.83 592.65,-475.68 591.82,-522.43"/>
<polygon fill="midnightblue" stroke="midnightblue" points="588.32,-522.35 591.54,-532.45 595.32,-522.55 588.32,-522.35"/>
</g>
<!-- Node29&#45;&gt;Node13 -->
<g id="edge53" class="edge">
<title>Node29&#45;&gt;Node13</title>
<path fill="none" stroke="midnightblue" d="M180.81,-304.6C195.36,-310.66 212.04,-319.87 223,-333 257.05,-373.79 235.05,-399.57 259,-447 266.14,-461.14 276.67,-475.55 285.33,-486.34"/>
<polygon fill="midnightblue" stroke="midnightblue" points="282.71,-488.67 291.78,-494.15 288.11,-484.21 282.71,-488.67"/>
</g>
<!-- Node29&#45;&gt;Node15 -->
<g id="edge51" class="edge">
<title>Node29&#45;&gt;Node15</title>
<path fill="none" stroke="midnightblue" d="M195.85,-289.3C218.96,-286.36 246.62,-282.85 267.7,-280.17"/>
<polygon fill="midnightblue" stroke="midnightblue" points="268.29,-283.62 277.77,-278.89 267.41,-276.68 268.29,-283.62"/>
</g>
<!-- Node29&#45;&gt;Node16 -->
<g id="edge54" class="edge">
<title>Node29&#45;&gt;Node16</title>
<path fill="none" stroke="midnightblue" d="M176.02,-304.54C200.6,-313.91 238.31,-328.29 265.78,-338.76"/>
<polygon fill="midnightblue" stroke="midnightblue" points="264.8,-342.14 275.4,-342.43 267.3,-335.6 264.8,-342.14"/>
</g>
<!-- Node30 -->
<g id="node30" class="node">
<title>Node30</title>
<g id="a_node30"><a xlink:href="fr_8cuh.html#a1e404d0dd86d479854d2ad47f49f7f9f" target="_top" xlink:title="Multiply the residue mod r z by 12 with weak reduction.">
<polygon fill="white" stroke="black" points="278,-114.5 278,-133.5 325,-133.5 325,-114.5 278,-114.5"/>
<text text-anchor="middle" x="301.5" y="-121.5" font-family="Helvetica,sans-Serif" font-size="10.00">fr_x12</text>
</a>
</g>
</g>
<!-- Node29&#45;&gt;Node30 -->
<g id="edge55" class="edge">
<title>Node29&#45;&gt;Node30</title>
<path fill="none" stroke="midnightblue" d="M195.52,-290.85C205.64,-287.99 215.57,-283.38 223,-276 266.44,-232.84 219.41,-189.72 259,-143 261.77,-139.74 265.21,-137 268.93,-134.72"/>
<polygon fill="midnightblue" stroke="midnightblue" points="270.55,-137.82 277.89,-130.19 267.39,-131.58 270.55,-137.82"/>
</g>
<!-- Node31 -->
<g id="node31" class="node">
<title>Node31</title>
<g id="a_node31"><a xlink:href="fr_8cuh.html#a4485604279abcb4d54e39d656cb41439" target="_top" xlink:title="Multiply z by 2, and stores in z, with weak reduction.">
<polygon fill="white" stroke="black" points="281,-76.5 281,-95.5 322,-95.5 322,-76.5 281,-76.5"/>
<text text-anchor="middle" x="301.5" y="-83.5" font-family="Helvetica,sans-Serif" font-size="10.00">fr_x2</text>
</a>
</g>
</g>
<!-- Node29&#45;&gt;Node31 -->
<g id="edge56" class="edge">
<title>Node29&#45;&gt;Node31</title>
<path fill="none" stroke="midnightblue" d="M195.82,-291.14C205.93,-288.28 215.78,-283.59 223,-276 276.51,-219.71 210.5,-165.66 259,-105 262.32,-100.85 266.74,-97.57 271.47,-94.99"/>
<polygon fill="midnightblue" stroke="midnightblue" points="273.02,-98.13 280.71,-90.85 270.16,-91.75 273.02,-98.13"/>
</g>
<!-- Node32 -->
<g id="node32" class="node">
<title>Node32</title>
<g id="a_node32"><a xlink:href="fr_8cuh.html#a6a2b0ab376b64fb53b8e27d6c1109c15" target="_top" xlink:title="Multiply z by 3, and stores in z, with weak reduction.">
<polygon fill="white" stroke="black" points="281,-38.5 281,-57.5 322,-57.5 322,-38.5 281,-38.5"/>
<text text-anchor="middle" x="301.5" y="-45.5" font-family="Helvetica,sans-Serif" font-size="10.00">fr_x3</text>
</a>
</g>
</g>
<!-- Node29&#45;&gt;Node32 -->
<g id="edge57" class="edge">
<title>Node29&#45;&gt;Node32</title>
<path fill="none" stroke="midnightblue" d="M195.65,-291.43C205.88,-288.57 215.84,-283.82 223,-276 286.67,-206.5 201.51,-141.69 259,-67 262.24,-62.79 266.63,-59.48 271.34,-56.89"/>
<polygon fill="midnightblue" stroke="midnightblue" points="272.89,-60.03 280.59,-52.75 270.03,-53.65 272.89,-60.03"/>
</g>
<!-- Node33 -->
<g id="node33" class="node">
<title>Node33</title>
<g id="a_node33"><a xlink:href="fr_8cuh.html#a22ed0336bd87e463b99e9414b037a611" target="_top" xlink:title="Multiply z by 4, and stores in z, with weak reduction.">
<polygon fill="white" stroke="black" points="281,-190.5 281,-209.5 322,-209.5 322,-190.5 281,-190.5"/>
<text text-anchor="middle" x="301.5" y="-197.5" font-family="Helvetica,sans-Serif" font-size="10.00">fr_x4</text>
</a>
</g>
</g>
<!-- Node29&#45;&gt;Node33 -->
<g id="edge58" class="edge">
<title>Node29&#45;&gt;Node33</title>
<path fill="none" stroke="midnightblue" d="M195.8,-288.4C205.34,-285.61 214.96,-281.64 223,-276 246.01,-259.86 238.33,-243.05 259,-224 262.88,-220.42 267.38,-217.15 271.96,-214.24"/>
<polygon fill="midnightblue" stroke="midnightblue" points="273.84,-217.2 280.71,-209.13 270.31,-211.15 273.84,-217.2"/>
</g>
<!-- Node34 -->
<g id="node34" class="node">
<title>Node34</title>
<g id="a_node34"><a xlink:href="fr_8cuh.html#a4e17bb02d9a984bd5cbc4b8eb95056f7" target="_top" xlink:title="Multiply z by 8, and stores in z, with weak reduction.">
<polygon fill="white" stroke="black" points="281,-152.5 281,-171.5 322,-171.5 322,-152.5 281,-152.5"/>
<text text-anchor="middle" x="301.5" y="-159.5" font-family="Helvetica,sans-Serif" font-size="10.00">fr_x8</text>
</a>
</g>
</g>
<!-- Node29&#45;&gt;Node34 -->
<g id="edge59" class="edge">
<title>Node29&#45;&gt;Node34</title>
<path fill="none" stroke="midnightblue" d="M195.78,-290.11C205.65,-287.26 215.41,-282.84 223,-276 256.55,-245.78 228.16,-213.98 259,-181 262.47,-177.29 266.81,-174.24 271.36,-171.77"/>
<polygon fill="midnightblue" stroke="midnightblue" points="273.16,-174.79 280.79,-167.44 270.24,-168.43 273.16,-174.79"/>
</g>
<!-- Node39 -->
<g id="node39" class="node">
<title>Node39</title>
<g id="a_node39"><a xlink:href="test_8cu.html#aac77414fbb8e0eda3f63b1297dede600" target="_top" xlink:title="Sets a global variable to true if the STDOUT is a terminal. Needs to be done like so because while a ...">
<polygon fill="white" stroke="black" points="276,-0.5 276,-19.5 327,-19.5 327,-0.5 276,-0.5"/>
<text text-anchor="middle" x="301.5" y="-7.5" font-family="Helvetica,sans-Serif" font-size="10.00">testinit</text>
</a>
</g>
</g>
<!-- Node38&#45;&gt;Node39 -->
<g id="edge64" class="edge">
<title>Node38&#45;&gt;Node39</title>
<path fill="none" stroke="midnightblue" d="M166.16,-61.22C189.47,-52.33 234.72,-35.08 266.23,-23.07"/>
<polygon fill="midnightblue" stroke="midnightblue" points="267.83,-26.2 275.93,-19.37 265.34,-19.66 267.83,-26.2"/>
</g>
</g>
</svg>
