<?xml version="1.0" encoding="UTF-8" standalone="no"?>
<!DOCTYPE svg PUBLIC "-//W3C//DTD SVG 1.1//EN"
 "http://www.w3.org/Graphics/SVG/1.1/DTD/svg11.dtd">
<!-- Generated by graphviz version 2.43.0 (0)
 -->
<!-- Title: frtest_fft.cu Pages: 1 -->
<svg width="280pt" height="196pt"
 viewBox="0.00 0.00 279.50 196.00" xmlns="http://www.w3.org/2000/svg" xmlns:xlink="http://www.w3.org/1999/xlink">
<g id="graph0" class="graph" transform="scale(1 1) rotate(0) translate(4 192)">
<title>frtest_fft.cu</title>
<polygon fill="white" stroke="transparent" points="-4,4 -4,-192 275.5,-192 275.5,4 -4,4"/>
<!-- Node1 -->
<g id="node1" class="node">
<title>Node1</title>
<g id="a_node1"><a xlink:title=" ">
<polygon fill="#bfbfbf" stroke="black" points="60,-168.5 60,-187.5 133,-187.5 133,-168.5 60,-168.5"/>
<text text-anchor="middle" x="96.5" y="-175.5" font-family="Helvetica,sans-Serif" font-size="10.00">frtest_fft.cu</text>
</a>
</g>
</g>
<!-- Node2 -->
<g id="node2" class="node">
<title>Node2</title>
<g id="a_node2"><a xlink:href="fr_8cuh.html" target="_top" xlink:title=" ">
<polygon fill="white" stroke="black" points="14.5,-56.5 14.5,-75.5 58.5,-75.5 58.5,-56.5 14.5,-56.5"/>
<text text-anchor="middle" x="36.5" y="-63.5" font-family="Helvetica,sans-Serif" font-size="10.00">fr.cuh</text>
</a>
</g>
</g>
<!-- Node1&#45;&gt;Node2 -->
<g id="edge1" class="edge">
<title>Node1&#45;&gt;Node2</title>
<path fill="none" stroke="midnightblue" d="M86.31,-168.35C77.03,-159.94 63.57,-146.38 55.5,-132 47.41,-117.58 42.47,-99.39 39.67,-85.92"/>
<polygon fill="midnightblue" stroke="midnightblue" points="43.07,-85.09 37.79,-75.91 36.19,-86.38 43.07,-85.09"/>
</g>
<!-- Node4 -->
<g id="node4" class="node">
<title>Node4</title>
<g id="a_node4"><a xlink:href="frtest_8cuh.html" target="_top" xlink:title=" ">
<polygon fill="white" stroke="black" points="65,-112.5 65,-131.5 128,-131.5 128,-112.5 65,-112.5"/>
<text text-anchor="middle" x="96.5" y="-119.5" font-family="Helvetica,sans-Serif" font-size="10.00">frtest.cuh</text>
</a>
</g>
</g>
<!-- Node1&#45;&gt;Node4 -->
<g id="edge3" class="edge">
<title>Node1&#45;&gt;Node4</title>
<path fill="none" stroke="midnightblue" d="M96.5,-168.08C96.5,-161.01 96.5,-150.86 96.5,-141.99"/>
<polygon fill="midnightblue" stroke="midnightblue" points="100,-141.75 96.5,-131.75 93,-141.75 100,-141.75"/>
</g>
<!-- Node9 -->
<g id="node9" class="node">
<title>Node9</title>
<g id="a_node9"><a xlink:href="fr__fft__testvector_8cu.html" target="_top" xlink:title=" ">
<polygon fill="white" stroke="black" points="146.5,-112.5 146.5,-131.5 254.5,-131.5 254.5,-112.5 146.5,-112.5"/>
<text text-anchor="middle" x="200.5" y="-119.5" font-family="Helvetica,sans-Serif" font-size="10.00">fr_fft_testvector.cu</text>
</a>
</g>
</g>
<!-- Node1&#45;&gt;Node9 -->
<g id="edge10" class="edge">
<title>Node1&#45;&gt;Node9</title>
<path fill="none" stroke="midnightblue" d="M113.21,-168.32C129.81,-159.7 155.5,-146.36 174.72,-136.39"/>
<polygon fill="midnightblue" stroke="midnightblue" points="176.57,-139.37 183.83,-131.65 173.34,-133.16 176.57,-139.37"/>
</g>
<!-- Node3 -->
<g id="node3" class="node">
<title>Node3</title>
<g id="a_node3"><a xlink:title=" ">
<polygon fill="white" stroke="#bfbfbf" points="0,-0.5 0,-19.5 53,-19.5 53,-0.5 0,-0.5"/>
<text text-anchor="middle" x="26.5" y="-7.5" font-family="Helvetica,sans-Serif" font-size="10.00">stdint.h</text>
</a>
</g>
</g>
<!-- Node2&#45;&gt;Node3 -->
<g id="edge2" class="edge">
<title>Node2&#45;&gt;Node3</title>
<path fill="none" stroke="midnightblue" d="M34.85,-56.08C33.52,-48.93 31.62,-38.64 29.96,-29.69"/>
<polygon fill="midnightblue" stroke="midnightblue" points="33.38,-28.95 28.12,-19.75 26.5,-30.22 33.38,-28.95"/>
</g>
<!-- Node4&#45;&gt;Node2 -->
<g id="edge9" class="edge">
<title>Node4&#45;&gt;Node2</title>
<path fill="none" stroke="midnightblue" d="M86.86,-112.32C77.99,-104.34 64.63,-92.31 53.89,-82.65"/>
<polygon fill="midnightblue" stroke="midnightblue" points="56.09,-79.92 46.32,-75.83 51.41,-85.13 56.09,-79.92"/>
</g>
<!-- Node5 -->
<g id="node5" class="node">
<title>Node5</title>
<g id="a_node5"><a xlink:title=" ">
<polygon fill="white" stroke="#bfbfbf" points="71.5,-0.5 71.5,-19.5 121.5,-19.5 121.5,-0.5 71.5,-0.5"/>
<text text-anchor="middle" x="96.5" y="-7.5" font-family="Helvetica,sans-Serif" font-size="10.00">stdio.h</text>
</a>
</g>
</g>
<!-- Node4&#45;&gt;Node5 -->
<g id="edge4" class="edge">
<title>Node4&#45;&gt;Node5</title>
<path fill="none" stroke="midnightblue" d="M96.5,-112.37C96.5,-94.62 96.5,-53.67 96.5,-29.6"/>
<polygon fill="midnightblue" stroke="midnightblue" points="100,-29.59 96.5,-19.59 93,-29.59 100,-29.59"/>
</g>
<!-- Node6 -->
<g id="node6" class="node">
<title>Node6</title>
<g id="a_node6"><a xlink:href="test_8h.html" target="_top" xlink:title=" ">
<polygon fill="white" stroke="black" points="134.5,-56.5 134.5,-75.5 178.5,-75.5 178.5,-56.5 134.5,-56.5"/>
<text text-anchor="middle" x="156.5" y="-63.5" font-family="Helvetica,sans-Serif" font-size="10.00">test.h</text>
</a>
</g>
</g>
<!-- Node4&#45;&gt;Node6 -->
<g id="edge5" class="edge">
<title>Node4&#45;&gt;Node6</title>
<path fill="none" stroke="midnightblue" d="M106.14,-112.32C115.01,-104.34 128.37,-92.31 139.11,-82.65"/>
<polygon fill="midnightblue" stroke="midnightblue" points="141.59,-85.13 146.68,-75.83 136.91,-79.92 141.59,-85.13"/>
</g>
<!-- Node6&#45;&gt;Node5 -->
<g id="edge6" class="edge">
<title>Node6&#45;&gt;Node5</title>
<path fill="none" stroke="midnightblue" d="M146.86,-56.32C137.99,-48.34 124.63,-36.31 113.89,-26.65"/>
<polygon fill="midnightblue" stroke="midnightblue" points="116.09,-23.92 106.32,-19.83 111.41,-29.13 116.09,-23.92"/>
</g>
<!-- Node7 -->
<g id="node7" class="node">
<title>Node7</title>
<g id="a_node7"><a xlink:title=" ">
<polygon fill="white" stroke="#bfbfbf" points="139.5,-0.5 139.5,-19.5 195.5,-19.5 195.5,-0.5 139.5,-0.5"/>
<text text-anchor="middle" x="167.5" y="-7.5" font-family="Helvetica,sans-Serif" font-size="10.00">unistd.h</text>
</a>
</g>
</g>
<!-- Node6&#45;&gt;Node7 -->
<g id="edge7" class="edge">
<title>Node6&#45;&gt;Node7</title>
<path fill="none" stroke="midnightblue" d="M158.32,-56.08C159.77,-48.93 161.87,-38.64 163.69,-29.69"/>
<polygon fill="midnightblue" stroke="midnightblue" points="167.15,-30.25 165.72,-19.75 160.29,-28.85 167.15,-30.25"/>
</g>
<!-- Node8 -->
<g id="node8" class="node">
<title>Node8</title>
<g id="a_node8"><a xlink:title=" ">
<polygon fill="white" stroke="#bfbfbf" points="213.5,-0.5 213.5,-19.5 271.5,-19.5 271.5,-0.5 213.5,-0.5"/>
<text text-anchor="middle" x="242.5" y="-7.5" font-family="Helvetica,sans-Serif" font-size="10.00">memory</text>
</a>
</g>
</g>
<!-- Node6&#45;&gt;Node8 -->
<g id="edge8" class="edge">
<title>Node6&#45;&gt;Node8</title>
<path fill="none" stroke="midnightblue" d="M170.32,-56.32C183.73,-47.9 204.32,-34.97 220.09,-25.07"/>
<polygon fill="midnightblue" stroke="midnightblue" points="222.11,-27.94 228.72,-19.65 218.39,-22.01 222.11,-27.94"/>
</g>
</g>
</svg>
