<?xml version="1.0" encoding="UTF-8" standalone="no"?>
<!DOCTYPE svg PUBLIC "-//W3C//DTD SVG 1.1//EN"
 "http://www.w3.org/Graphics/SVG/1.1/DTD/svg11.dtd">
<!-- Generated by graphviz version 2.43.0 (0)
 -->
<!-- Title: FrTestCommutativeAdd Pages: 1 -->
<svg width="498pt" height="218pt"
 viewBox="0.00 0.00 498.00 218.00" xmlns="http://www.w3.org/2000/svg" xmlns:xlink="http://www.w3.org/1999/xlink">
<g id="graph0" class="graph" transform="scale(1 1) rotate(0) translate(4 214)">
<title>FrTestCommutativeAdd</title>
<polygon fill="white" stroke="transparent" points="-4,4 -4,-214 494,-214 494,4 -4,4"/>
<!-- Node1 -->
<g id="node1" class="node">
<title>Node1</title>
<g id="a_node1"><a xlink:title="Test the cumulative property of addition.">
<polygon fill="#bfbfbf" stroke="black" points="0,-114.5 0,-133.5 131,-133.5 131,-114.5 0,-114.5"/>
<text text-anchor="middle" x="65.5" y="-121.5" font-family="Helvetica,sans-Serif" font-size="10.00">FrTestCommutativeAdd</text>
</a>
</g>
</g>
<!-- Node2 -->
<g id="node2" class="node">
<title>Node2</title>
<g id="a_node2"><a xlink:href="fr_8cuh.html#aaeef506ae3eb09b0586eb48e9c7d77ad" target="_top" xlink:title="Computes the sum of two residues x and z modulo r and stores it in z. Device only function.">
<polygon fill="white" stroke="black" points="167,-190.5 167,-209.5 214,-209.5 214,-190.5 167,-190.5"/>
<text text-anchor="middle" x="190.5" y="-197.5" font-family="Helvetica,sans-Serif" font-size="10.00">fr_add</text>
</a>
</g>
</g>
<!-- Node1&#45;&gt;Node2 -->
<g id="edge1" class="edge">
<title>Node1&#45;&gt;Node2</title>
<path fill="none" stroke="midnightblue" d="M82.08,-133.63C103.06,-146.59 140.6,-169.79 165.28,-185.04"/>
<polygon fill="midnightblue" stroke="midnightblue" points="163.7,-188.17 174.05,-190.45 167.38,-182.22 163.7,-188.17"/>
</g>
<!-- Node3 -->
<g id="node3" class="node">
<title>Node3</title>
<g id="a_node3"><a xlink:href="fr_8cuh.html#a8abf9d8ad4b633144fcc0c6956d14056" target="_top" xlink:title="Copy from x into z.">
<polygon fill="white" stroke="black" points="432.5,-66.5 432.5,-85.5 479.5,-85.5 479.5,-66.5 432.5,-66.5"/>
<text text-anchor="middle" x="456" y="-73.5" font-family="Helvetica,sans-Serif" font-size="10.00">fr_cpy</text>
</a>
</g>
</g>
<!-- Node1&#45;&gt;Node3 -->
<g id="edge2" class="edge">
<title>Node1&#45;&gt;Node3</title>
<path fill="none" stroke="midnightblue" d="M94.73,-133.52C152.09,-151.22 285.33,-183.83 386,-143 410.28,-133.15 430.72,-110.2 442.91,-93.91"/>
<polygon fill="midnightblue" stroke="midnightblue" points="445.83,-95.84 448.8,-85.67 440.14,-91.77 445.83,-95.84"/>
</g>
<!-- Node4 -->
<g id="node4" class="node">
<title>Node4</title>
<g id="a_node4"><a xlink:href="fr_8cuh.html#a4f11be4124fc653c718d01acc42cf7f2" target="_top" xlink:title="Compares two fr_t residues.">
<polygon fill="white" stroke="black" points="167,-95.5 167,-114.5 214,-114.5 214,-95.5 167,-95.5"/>
<text text-anchor="middle" x="190.5" y="-102.5" font-family="Helvetica,sans-Serif" font-size="10.00">fr_neq</text>
</a>
</g>
</g>
<!-- Node1&#45;&gt;Node4 -->
<g id="edge3" class="edge">
<title>Node1&#45;&gt;Node4</title>
<path fill="none" stroke="midnightblue" d="M128.36,-114.44C138.14,-112.93 147.91,-111.42 156.68,-110.07"/>
<polygon fill="midnightblue" stroke="midnightblue" points="157.46,-113.49 166.81,-108.5 156.39,-106.57 157.46,-113.49"/>
</g>
<!-- Node9 -->
<g id="node9" class="node">
<title>Node9</title>
<g id="a_node9"><a xlink:href="fr_8cu.html#a48d3ace037073f6d394152bee7f40b71" target="_top" xlink:title="prints the canonical representation of x to STDOUT.">
<polygon fill="white" stroke="black" points="330.5,-0.5 330.5,-19.5 382.5,-19.5 382.5,-0.5 330.5,-0.5"/>
<text text-anchor="middle" x="356.5" y="-7.5" font-family="Helvetica,sans-Serif" font-size="10.00">fr_print</text>
</a>
</g>
</g>
<!-- Node1&#45;&gt;Node9 -->
<g id="edge10" class="edge">
<title>Node1&#45;&gt;Node9</title>
<path fill="none" stroke="midnightblue" d="M90.64,-114.48C142.07,-94.19 262.53,-46.67 321.61,-23.37"/>
<polygon fill="midnightblue" stroke="midnightblue" points="323.2,-26.5 331.22,-19.58 320.64,-19.99 323.2,-26.5"/>
</g>
<!-- Node5 -->
<g id="node5" class="node">
<title>Node5</title>
<g id="a_node5"><a xlink:href="fr_8cuh.html#a4e45802fc36909ab3c8a71f662689cfa" target="_top" xlink:title="Compares two residues modulo r.">
<polygon fill="white" stroke="black" points="250,-95.5 250,-114.5 291,-114.5 291,-95.5 250,-95.5"/>
<text text-anchor="middle" x="270.5" y="-102.5" font-family="Helvetica,sans-Serif" font-size="10.00">fr_eq</text>
</a>
</g>
</g>
<!-- Node4&#45;&gt;Node5 -->
<g id="edge4" class="edge">
<title>Node4&#45;&gt;Node5</title>
<path fill="none" stroke="midnightblue" d="M214.06,-105C222.12,-105 231.33,-105 239.89,-105"/>
<polygon fill="midnightblue" stroke="midnightblue" points="239.9,-108.5 249.9,-105 239.9,-101.5 239.9,-108.5"/>
</g>
<!-- Node5&#45;&gt;Node3 -->
<g id="edge5" class="edge">
<title>Node5&#45;&gt;Node3</title>
<path fill="none" stroke="midnightblue" d="M291.14,-101.9C322.49,-96.94 384.2,-87.19 422.29,-81.17"/>
<polygon fill="midnightblue" stroke="midnightblue" points="423.04,-84.6 432.37,-79.58 421.94,-77.68 423.04,-84.6"/>
</g>
<!-- Node6 -->
<g id="node6" class="node">
<title>Node6</title>
<g id="a_node6"><a xlink:href="fr_8cuh.html#a78b8df6518ee14cdf2cdc025abf902fa" target="_top" xlink:title="Checks if the residue x modulo f is congruent to zero.">
<polygon fill="white" stroke="black" points="327,-38.5 327,-57.5 386,-57.5 386,-38.5 327,-38.5"/>
<text text-anchor="middle" x="356.5" y="-45.5" font-family="Helvetica,sans-Serif" font-size="10.00">fr_iszero</text>
</a>
</g>
</g>
<!-- Node5&#45;&gt;Node6 -->
<g id="edge6" class="edge">
<title>Node5&#45;&gt;Node6</title>
<path fill="none" stroke="midnightblue" d="M285.75,-95.33C298.62,-86.6 317.78,-73.6 332.76,-63.43"/>
<polygon fill="midnightblue" stroke="midnightblue" points="335.15,-66.04 341.46,-57.53 331.22,-60.25 335.15,-66.04"/>
</g>
<!-- Node8 -->
<g id="node8" class="node">
<title>Node8</title>
<g id="a_node8"><a xlink:href="fr_8cuh.html#a06643f48ada0bf9fa0a1bb1e605def94" target="_top" xlink:title="Calculates the difference of two residues modulo p and stores it into z.">
<polygon fill="white" stroke="black" points="333,-114.5 333,-133.5 380,-133.5 380,-114.5 333,-114.5"/>
<text text-anchor="middle" x="356.5" y="-121.5" font-family="Helvetica,sans-Serif" font-size="10.00">fr_sub</text>
</a>
</g>
</g>
<!-- Node5&#45;&gt;Node8 -->
<g id="edge9" class="edge">
<title>Node5&#45;&gt;Node8</title>
<path fill="none" stroke="midnightblue" d="M291.41,-109.5C300.82,-111.63 312.3,-114.23 322.93,-116.63"/>
<polygon fill="midnightblue" stroke="midnightblue" points="322.24,-120.07 332.77,-118.86 323.79,-113.24 322.24,-120.07"/>
</g>
<!-- Node6&#45;&gt;Node3 -->
<g id="edge7" class="edge">
<title>Node6&#45;&gt;Node3</title>
<path fill="none" stroke="midnightblue" d="M386.23,-56.25C397.61,-59.52 410.75,-63.29 422.48,-66.66"/>
<polygon fill="midnightblue" stroke="midnightblue" points="421.77,-70.1 432.35,-69.49 423.7,-63.37 421.77,-70.1"/>
</g>
<!-- Node7 -->
<g id="node7" class="node">
<title>Node7</title>
<g id="a_node7"><a xlink:href="fr_8cuh.html#aa53ac2a9b28c7f128a9ee8e106abcf3c" target="_top" xlink:title="Reduced the value in fr_t to the field modulus.">
<polygon fill="white" stroke="black" points="422,-19.5 422,-38.5 490,-38.5 490,-19.5 422,-19.5"/>
<text text-anchor="middle" x="456" y="-26.5" font-family="Helvetica,sans-Serif" font-size="10.00">fr_reduce4</text>
</a>
</g>
</g>
<!-- Node6&#45;&gt;Node7 -->
<g id="edge8" class="edge">
<title>Node6&#45;&gt;Node7</title>
<path fill="none" stroke="midnightblue" d="M386.23,-42.4C394.22,-40.84 403.08,-39.12 411.72,-37.43"/>
<polygon fill="midnightblue" stroke="midnightblue" points="412.53,-40.84 421.68,-35.49 411.19,-33.97 412.53,-40.84"/>
</g>
<!-- Node9&#45;&gt;Node3 -->
<g id="edge11" class="edge">
<title>Node9&#45;&gt;Node3</title>
<path fill="none" stroke="midnightblue" d="M372.02,-19.64C376.51,-22.63 381.46,-25.94 386,-29 401.53,-39.46 418.96,-51.34 432.41,-60.53"/>
<polygon fill="midnightblue" stroke="midnightblue" points="430.79,-63.66 441.02,-66.42 434.74,-57.88 430.79,-63.66"/>
</g>
<!-- Node9&#45;&gt;Node7 -->
<g id="edge12" class="edge">
<title>Node9&#45;&gt;Node7</title>
<path fill="none" stroke="midnightblue" d="M382.61,-14.89C391.58,-16.64 401.96,-18.66 412.01,-20.62"/>
<polygon fill="midnightblue" stroke="midnightblue" points="411.4,-24.07 421.88,-22.55 412.74,-17.2 411.4,-24.07"/>
</g>
</g>
</svg>
