<?xml version="1.0" encoding="UTF-8" standalone="no"?>
<!DOCTYPE svg PUBLIC "-//W3C//DTD SVG 1.1//EN"
 "http://www.w3.org/Graphics/SVG/1.1/DTD/svg11.dtd">
<!-- Generated by graphviz version 2.43.0 (0)
 -->
<!-- Title: g1p_mul Pages: 1 -->
<svg width="477pt" height="294pt"
 viewBox="0.00 0.00 477.00 294.00" xmlns="http://www.w3.org/2000/svg" xmlns:xlink="http://www.w3.org/1999/xlink">
<g id="graph0" class="graph" transform="scale(1 1) rotate(0) translate(4 290)">
<title>g1p_mul</title>
<polygon fill="white" stroke="transparent" points="-4,4 -4,-290 473,-290 473,4 -4,4"/>
<!-- Node1 -->
<g id="node1" class="node">
<title>Node1</title>
<g id="a_node1"><a xlink:title="p ← k·p Point multiplication by scalar, in projective coordinates. That result is stored back into p.">
<polygon fill="#bfbfbf" stroke="black" points="0,-152.5 0,-171.5 59,-171.5 59,-152.5 0,-152.5"/>
<text text-anchor="middle" x="29.5" y="-159.5" font-family="Helvetica,sans-Serif" font-size="10.00">g1p_mul</text>
</a>
</g>
</g>
<!-- Node2 -->
<g id="node2" class="node">
<title>Node2</title>
<g id="a_node2"><a xlink:href="fp_8cu.html#a38ff11c3699e6c472a5b310a4d0962ea" target="_top" xlink:title="Sets z to zero.">
<polygon fill="white" stroke="black" points="105,-171.5 105,-190.5 158,-190.5 158,-171.5 105,-171.5"/>
<text text-anchor="middle" x="131.5" y="-178.5" font-family="Helvetica,sans-Serif" font-size="10.00">fp_zero</text>
</a>
</g>
</g>
<!-- Node1&#45;&gt;Node2 -->
<g id="edge1" class="edge">
<title>Node1&#45;&gt;Node2</title>
<path fill="none" stroke="midnightblue" d="M59.16,-167.44C70.32,-169.56 83.22,-172.02 94.96,-174.25"/>
<polygon fill="midnightblue" stroke="midnightblue" points="94.43,-177.71 104.91,-176.14 95.74,-170.83 94.43,-177.71"/>
</g>
<!-- Node3 -->
<g id="node3" class="node">
<title>Node3</title>
<g id="a_node3"><a xlink:href="g1_8cuh.html#ac5e28dd7ae9a2d9f751792ffa5688346" target="_top" xlink:title="Check if the value stored in p is a valid point on the G1 curve.">
<polygon fill="white" stroke="black" points="95,-133.5 95,-152.5 168,-152.5 168,-133.5 95,-133.5"/>
<text text-anchor="middle" x="131.5" y="-140.5" font-family="Helvetica,sans-Serif" font-size="10.00">g1p_isPoint</text>
</a>
</g>
</g>
<!-- Node1&#45;&gt;Node3 -->
<g id="edge2" class="edge">
<title>Node1&#45;&gt;Node3</title>
<path fill="none" stroke="midnightblue" d="M59.16,-156.56C67.12,-155.04 75.97,-153.36 84.66,-151.71"/>
<polygon fill="midnightblue" stroke="midnightblue" points="85.54,-155.1 94.72,-149.8 84.24,-148.23 85.54,-155.1"/>
</g>
<!-- Node4 -->
<g id="node4" class="node">
<title>Node4</title>
<g id="a_node4"><a xlink:href="fp_8cuh.html#a38d4eadff7890b835dceb28d2adb7358" target="_top" xlink:title="Computes the sum of two residues x and y modulo p and stores it in z. Device only function.">
<polygon fill="white" stroke="black" points="209.5,-266.5 209.5,-285.5 259.5,-285.5 259.5,-266.5 209.5,-266.5"/>
<text text-anchor="middle" x="234.5" y="-273.5" font-family="Helvetica,sans-Serif" font-size="10.00">fp_add</text>
</a>
</g>
</g>
<!-- Node3&#45;&gt;Node4 -->
<g id="edge3" class="edge">
<title>Node3&#45;&gt;Node4</title>
<path fill="none" stroke="midnightblue" d="M155.95,-152.52C160.37,-155.11 164.64,-158.25 168,-162 196.73,-194.1 178.47,-217.3 204,-252 206,-254.71 208.37,-257.3 210.88,-259.7"/>
<polygon fill="midnightblue" stroke="midnightblue" points="208.76,-262.48 218.65,-266.28 213.29,-257.15 208.76,-262.48"/>
</g>
<!-- Node5 -->
<g id="node5" class="node">
<title>Node5</title>
<g id="a_node5"><a xlink:href="fp_8cuh.html#aa84fc3bc6fd35779512d8f14938df96d" target="_top" xlink:title="Copy from x into z.">
<polygon fill="white" stroke="black" points="409,-190.5 409,-209.5 458,-209.5 458,-190.5 409,-190.5"/>
<text text-anchor="middle" x="433.5" y="-197.5" font-family="Helvetica,sans-Serif" font-size="10.00">fp_cpy</text>
</a>
</g>
</g>
<!-- Node3&#45;&gt;Node5 -->
<g id="edge4" class="edge">
<title>Node3&#45;&gt;Node5</title>
<path fill="none" stroke="midnightblue" d="M154.7,-152.6C159.4,-155.24 164.11,-158.38 168,-162 189.93,-182.41 177.76,-204.54 204,-219 266.68,-253.55 354.04,-230.19 400.48,-213.23"/>
<polygon fill="midnightblue" stroke="midnightblue" points="401.9,-216.43 410.02,-209.62 399.43,-209.89 401.9,-216.43"/>
</g>
<!-- Node6 -->
<g id="node6" class="node">
<title>Node6</title>
<g id="a_node6"><a xlink:href="fp_8cuh.html#ade1abe61dfb7cbe9b00d78a38dda4bd3" target="_top" xlink:title="Compares two residues modulo p.">
<polygon fill="white" stroke="black" points="212.5,-114.5 212.5,-133.5 256.5,-133.5 256.5,-114.5 212.5,-114.5"/>
<text text-anchor="middle" x="234.5" y="-121.5" font-family="Helvetica,sans-Serif" font-size="10.00">fp_eq</text>
</a>
</g>
</g>
<!-- Node3&#45;&gt;Node6 -->
<g id="edge5" class="edge">
<title>Node3&#45;&gt;Node6</title>
<path fill="none" stroke="midnightblue" d="M168.11,-136.3C179.3,-134.2 191.56,-131.89 202.41,-129.85"/>
<polygon fill="midnightblue" stroke="midnightblue" points="203.12,-133.28 212.3,-127.99 201.83,-126.4 203.12,-133.28"/>
</g>
<!-- Node7 -->
<g id="node7" class="node">
<title>Node7</title>
<g id="a_node7"><a xlink:href="fp_8cuh.html#a45eab81e60385635ab4732360f94ec91" target="_top" xlink:title="Checks if the residue x modulo p is congruent to zero.">
<polygon fill="white" stroke="black" points="301,-152.5 301,-171.5 362,-171.5 362,-152.5 301,-152.5"/>
<text text-anchor="middle" x="331.5" y="-159.5" font-family="Helvetica,sans-Serif" font-size="10.00">fp_iszero</text>
</a>
</g>
</g>
<!-- Node3&#45;&gt;Node7 -->
<g id="edge10" class="edge">
<title>Node3&#45;&gt;Node7</title>
<path fill="none" stroke="midnightblue" d="M168.36,-146.44C202.84,-149.75 254.87,-154.74 290.64,-158.18"/>
<polygon fill="midnightblue" stroke="midnightblue" points="290.44,-161.67 300.73,-159.14 291.11,-154.7 290.44,-161.67"/>
</g>
<!-- Node10 -->
<g id="node10" class="node">
<title>Node10</title>
<g id="a_node10"><a xlink:href="fp_8cuh.html#a9f82a12248e7c53ac9d166e25e083bba" target="_top" xlink:title="Multiplies two Fp residues x and y, stores in z.">
<polygon fill="white" stroke="black" points="209.5,-76.5 209.5,-95.5 259.5,-95.5 259.5,-76.5 209.5,-76.5"/>
<text text-anchor="middle" x="234.5" y="-83.5" font-family="Helvetica,sans-Serif" font-size="10.00">fp_mul</text>
</a>
</g>
</g>
<!-- Node3&#45;&gt;Node10 -->
<g id="edge11" class="edge">
<title>Node3&#45;&gt;Node10</title>
<path fill="none" stroke="midnightblue" d="M149.63,-133.33C165.54,-124.35 189.46,-110.86 207.68,-100.57"/>
<polygon fill="midnightblue" stroke="midnightblue" points="209.63,-103.49 216.62,-95.53 206.19,-97.39 209.63,-103.49"/>
</g>
<!-- Node11 -->
<g id="node11" class="node">
<title>Node11</title>
<g id="a_node11"><a xlink:href="fp_8cuh.html#a74e253977f8412787ed920e5a07de414" target="_top" xlink:title="Computes the square of the residue x modulo p and stores it in z.">
<polygon fill="white" stroke="black" points="211,-38.5 211,-57.5 258,-57.5 258,-38.5 211,-38.5"/>
<text text-anchor="middle" x="234.5" y="-45.5" font-family="Helvetica,sans-Serif" font-size="10.00">fp_sqr</text>
</a>
</g>
</g>
<!-- Node3&#45;&gt;Node11 -->
<g id="edge12" class="edge">
<title>Node3&#45;&gt;Node11</title>
<path fill="none" stroke="midnightblue" d="M140.21,-133.41C152.65,-118.26 178.38,-88.32 204,-67 205.51,-65.74 207.11,-64.5 208.75,-63.29"/>
<polygon fill="midnightblue" stroke="midnightblue" points="210.81,-66.12 217.08,-57.57 206.85,-60.35 210.81,-66.12"/>
</g>
<!-- Node12 -->
<g id="node12" class="node">
<title>Node12</title>
<g id="a_node12"><a xlink:href="fp_8cuh.html#a6fe5404e5c3813ab6944ed160eea3adb" target="_top" xlink:title="Multiplies x by 4 and stores the result into z.">
<polygon fill="white" stroke="black" points="212.5,-0.5 212.5,-19.5 256.5,-19.5 256.5,-0.5 212.5,-0.5"/>
<text text-anchor="middle" x="234.5" y="-7.5" font-family="Helvetica,sans-Serif" font-size="10.00">fp_x4</text>
</a>
</g>
</g>
<!-- Node3&#45;&gt;Node12 -->
<g id="edge13" class="edge">
<title>Node3&#45;&gt;Node12</title>
<path fill="none" stroke="midnightblue" d="M136.7,-133.48C146.24,-112.61 171.32,-62.07 204,-29 205.07,-27.92 206.21,-26.86 207.4,-25.85"/>
<polygon fill="midnightblue" stroke="midnightblue" points="209.76,-28.45 215.7,-19.68 205.59,-22.84 209.76,-28.45"/>
</g>
<!-- Node13 -->
<g id="node13" class="node">
<title>Node13</title>
<g id="a_node13"><a xlink:href="g1p__ispoint_8cu.html#aefda685f50e444161695d95042c312d5" target="_top" xlink:title="Check if the value stored in p is the the/any point at infinity. This implementation uses (0,...">
<polygon fill="white" stroke="black" points="204,-190.5 204,-209.5 265,-209.5 265,-190.5 204,-190.5"/>
<text text-anchor="middle" x="234.5" y="-197.5" font-family="Helvetica,sans-Serif" font-size="10.00">g1p_isInf</text>
</a>
</g>
</g>
<!-- Node3&#45;&gt;Node13 -->
<g id="edge14" class="edge">
<title>Node3&#45;&gt;Node13</title>
<path fill="none" stroke="midnightblue" d="M150.62,-152.55C156.22,-155.53 162.38,-158.87 168,-162 181.54,-169.55 196.51,-178.21 208.71,-185.35"/>
<polygon fill="midnightblue" stroke="midnightblue" points="207.04,-188.43 217.44,-190.48 210.59,-182.39 207.04,-188.43"/>
</g>
<!-- Node6&#45;&gt;Node7 -->
<g id="edge6" class="edge">
<title>Node6&#45;&gt;Node7</title>
<path fill="none" stroke="midnightblue" d="M256.58,-132.43C268.46,-137.18 283.57,-143.23 297.02,-148.61"/>
<polygon fill="midnightblue" stroke="midnightblue" points="295.88,-151.92 306.46,-152.38 298.48,-145.42 295.88,-151.92"/>
</g>
<!-- Node9 -->
<g id="node9" class="node">
<title>Node9</title>
<g id="a_node9"><a xlink:href="fp_8cuh.html#aff96ec3f32ad9c0419911604d5fefe44" target="_top" xlink:title="Calculates the difference of two residues modulo p and stores it into z.">
<polygon fill="white" stroke="black" points="307,-114.5 307,-133.5 356,-133.5 356,-114.5 307,-114.5"/>
<text text-anchor="middle" x="331.5" y="-121.5" font-family="Helvetica,sans-Serif" font-size="10.00">fp_sub</text>
</a>
</g>
</g>
<!-- Node6&#45;&gt;Node9 -->
<g id="edge9" class="edge">
<title>Node6&#45;&gt;Node9</title>
<path fill="none" stroke="midnightblue" d="M256.58,-124C268.32,-124 283.2,-124 296.53,-124"/>
<polygon fill="midnightblue" stroke="midnightblue" points="296.8,-127.5 306.8,-124 296.8,-120.5 296.8,-127.5"/>
</g>
<!-- Node7&#45;&gt;Node5 -->
<g id="edge7" class="edge">
<title>Node7&#45;&gt;Node5</title>
<path fill="none" stroke="midnightblue" d="M357.73,-171.59C370.4,-176.4 385.9,-182.29 399.49,-187.46"/>
<polygon fill="midnightblue" stroke="midnightblue" points="398.4,-190.79 408.99,-191.07 400.89,-184.24 398.4,-190.79"/>
</g>
<!-- Node8 -->
<g id="node8" class="node">
<title>Node8</title>
<g id="a_node8"><a xlink:href="fp_8cuh.html#a89b41553cb5af629dd8ac33b71d03ee1" target="_top" xlink:title="Narrow reduction of a residue modulo p, reducing to the canonical representation.">
<polygon fill="white" stroke="black" points="398,-152.5 398,-171.5 469,-171.5 469,-152.5 398,-152.5"/>
<text text-anchor="middle" x="433.5" y="-159.5" font-family="Helvetica,sans-Serif" font-size="10.00">fp_reduce6</text>
</a>
</g>
</g>
<!-- Node7&#45;&gt;Node8 -->
<g id="edge8" class="edge">
<title>Node7&#45;&gt;Node8</title>
<path fill="none" stroke="midnightblue" d="M362.23,-162C370.17,-162 378.93,-162 387.5,-162"/>
<polygon fill="midnightblue" stroke="midnightblue" points="387.78,-165.5 397.78,-162 387.78,-158.5 387.78,-165.5"/>
</g>
<!-- Node13&#45;&gt;Node7 -->
<g id="edge18" class="edge">
<title>Node13&#45;&gt;Node7</title>
<path fill="none" stroke="midnightblue" d="M259.47,-190.41C270.84,-185.87 284.6,-180.36 296.98,-175.41"/>
<polygon fill="midnightblue" stroke="midnightblue" points="298.55,-178.55 306.54,-171.59 295.95,-172.05 298.55,-178.55"/>
</g>
<!-- Node14 -->
<g id="node14" class="node">
<title>Node14</title>
<g id="a_node14"><a xlink:href="fp_8cuh.html#acf26ba4d56d7ff54adc93a6e1bcaeab1" target="_top" xlink:title="Checks if the residue x modulo p is congruent to one.">
<polygon fill="white" stroke="black" points="302.5,-190.5 302.5,-209.5 360.5,-209.5 360.5,-190.5 302.5,-190.5"/>
<text text-anchor="middle" x="331.5" y="-197.5" font-family="Helvetica,sans-Serif" font-size="10.00">fp_isone</text>
</a>
</g>
</g>
<!-- Node13&#45;&gt;Node14 -->
<g id="edge15" class="edge">
<title>Node13&#45;&gt;Node14</title>
<path fill="none" stroke="midnightblue" d="M265.04,-200C273.57,-200 283.01,-200 292.01,-200"/>
<polygon fill="midnightblue" stroke="midnightblue" points="292.28,-203.5 302.28,-200 292.28,-196.5 292.28,-203.5"/>
</g>
<!-- Node14&#45;&gt;Node5 -->
<g id="edge16" class="edge">
<title>Node14&#45;&gt;Node5</title>
<path fill="none" stroke="midnightblue" d="M360.62,-200C372.54,-200 386.52,-200 398.96,-200"/>
<polygon fill="midnightblue" stroke="midnightblue" points="398.98,-203.5 408.98,-200 398.98,-196.5 398.98,-203.5"/>
</g>
<!-- Node14&#45;&gt;Node8 -->
<g id="edge17" class="edge">
<title>Node14&#45;&gt;Node8</title>
<path fill="none" stroke="midnightblue" d="M357.73,-190.41C369.81,-185.82 384.47,-180.25 397.6,-175.26"/>
<polygon fill="midnightblue" stroke="midnightblue" points="399.17,-178.41 407.27,-171.59 396.68,-171.87 399.17,-178.41"/>
</g>
</g>
</svg>
