<?xml version="1.0" encoding="UTF-8" standalone="no"?>
<!DOCTYPE svg PUBLIC "-//W3C//DTD SVG 1.1//EN"
 "http://www.w3.org/Graphics/SVG/1.1/DTD/svg11.dtd">
<!-- Generated by graphviz version 2.43.0 (0)
 -->
<!-- Title: g1p_dbl Pages: 1 -->
<!--zoomable 577 -->
<svg id="main" version="1.1" xmlns="http://www.w3.org/2000/svg" xmlns:xlink="http://www.w3.org/1999/xlink" xml:space="preserve" onload="init(evt)">
<style type="text/css"><![CDATA[
.edge:hover path { stroke: red; }
.edge:hover polygon { stroke: red; fill: red; }
]]></style>
<script type="text/javascript"><![CDATA[
var edges = document.getElementsByTagName('g');
if (edges && edges.length) {
  for (var i=0;i<edges.length;i++) {
    if (edges[i].id.substr(0,4)=='edge') {
      edges[i].setAttribute('class','edge');
    }
  }
}
]]></script>
        <defs>
                <circle id="rim" cx="0" cy="0" r="7"/>
                <circle id="rim2" cx="0" cy="0" r="3.5"/>
                <g id="zoomPlus">
                        <use xlink:href="#rim" fill="#404040">
                                <set attributeName="fill" to="#808080" begin="zoomplus.mouseover" end="zoomplus.mouseout"/>
                        </use>
                        <path d="M-4,0h8M0,-4v8" fill="none" stroke="white" stroke-width="1.5" pointer-events="none"/>
                </g>
                <g id="zoomMin">
                        <use xlink:href="#rim" fill="#404040">
                                <set attributeName="fill" to="#808080" begin="zoomminus.mouseover" end="zoomminus.mouseout"/>
                        </use>
                        <path d="M-4,0h8" fill="none" stroke="white" stroke-width="1.5" pointer-events="none"/>
                </g>
                <g id="dirArrow">
                        <path fill="none" stroke="white" stroke-width="1.5" d="M0,-3.0v7 M-2.5,-0.5L0,-3.0L2.5,-0.5"/>
                </g>
               <g id="resetDef">
                       <use xlink:href="#rim2" fill="#404040">
                               <set attributeName="fill" to="#808080" begin="reset.mouseover" end="reset.mouseout"/>
                       </use>
               </g>
        </defs>

<script type="text/javascript">
var viewWidth = 473;
var viewHeight = 577;
var sectionId = 'dynsection-5';
</script>
<script xlink:href="svgpan.js"/>
<svg id="graph" class="graph">
<g id="viewport">
<title>g1p_dbl</title>
<polygon fill="white" stroke="transparent" points="-4,4 -4,-573.14 469,-573.14 469,4 -4,4"/>
<!-- Node1 -->
<g id="node1" class="node">
<title>Node1</title>
<g id="a_node1"><a xlink:title="G1 point doubling, with write back: p=2*p.">
<polygon fill="#bfbfbf" stroke="black" points="0,-209.5 0,-228.5 55,-228.5 55,-209.5 0,-209.5"/>
<text text-anchor="middle" x="27.5" y="-216.5" font-family="Helvetica,sans-Serif" font-size="10.00">g1p_dbl</text>
</a>
</g>
</g>
<!-- Node2 -->
<g id="node2" class="node">
<title>Node2</title>
<g id="a_node2"><a xlink:href="fp_8cuh.html#a38d4eadff7890b835dceb28d2adb7358" target="_top" xlink:title="Computes the sum of two residues x and y modulo p and stores it in z. Device only function.">
<polygon fill="white" stroke="black" points="205.5,-532.5 205.5,-551.5 255.5,-551.5 255.5,-532.5 205.5,-532.5"/>
<text text-anchor="middle" x="230.5" y="-539.5" font-family="Helvetica,sans-Serif" font-size="10.00">fp_add</text>
</a>
</g>
</g>
<!-- Node1&#45;&gt;Node2 -->
<g id="edge1" class="edge">
<title>Node1&#45;&gt;Node2</title>
<path fill="none" stroke="midnightblue" d="M30.06,-228.76C35.04,-257.99 52.6,-346.6 91,-409 122.01,-459.39 176.59,-503.84 207.16,-526.36"/>
<polygon fill="midnightblue" stroke="midnightblue" points="205.31,-529.34 215.46,-532.37 209.41,-523.67 205.31,-529.34"/>
</g>
<!-- Node3 -->
<g id="node3" class="node">
<title>Node3</title>
<g id="a_node3"><a xlink:href="fp_8cuh.html#aa84fc3bc6fd35779512d8f14938df96d" target="_top" xlink:title="Copy from x into z.">
<polygon fill="white" stroke="black" points="405,-475.5 405,-494.5 454,-494.5 454,-475.5 405,-475.5"/>
<text text-anchor="middle" x="429.5" y="-482.5" font-family="Helvetica,sans-Serif" font-size="10.00">fp_cpy</text>
</a>
</g>
</g>
<!-- Node1&#45;&gt;Node3 -->
<g id="edge2" class="edge">
<title>Node1&#45;&gt;Node3</title>
<path fill="none" stroke="midnightblue" d="M28.99,-228.61C31.11,-262.95 41.84,-381.84 91,-463 124.75,-518.72 139.17,-537.68 200,-561 276.21,-590.22 369.08,-530.67 408.87,-500.75"/>
<polygon fill="midnightblue" stroke="midnightblue" points="411.17,-503.4 416.96,-494.52 406.9,-497.85 411.17,-503.4"/>
</g>
<!-- Node4 -->
<g id="node4" class="node">
<title>Node4</title>
<g id="a_node4"><a xlink:href="fp_8cuh.html#a9f82a12248e7c53ac9d166e25e083bba" target="_top" xlink:title="Multiplies two Fp residues x and y, stores in z.">
<polygon fill="white" stroke="black" points="205.5,-304.5 205.5,-323.5 255.5,-323.5 255.5,-304.5 205.5,-304.5"/>
<text text-anchor="middle" x="230.5" y="-311.5" font-family="Helvetica,sans-Serif" font-size="10.00">fp_mul</text>
</a>
</g>
</g>
<!-- Node1&#45;&gt;Node4 -->
<g id="edge3" class="edge">
<title>Node1&#45;&gt;Node4</title>
<path fill="none" stroke="midnightblue" d="M36.84,-228.59C48,-240.85 68.95,-261.91 91,-274 124.13,-292.16 166.35,-302.81 195.42,-308.5"/>
<polygon fill="midnightblue" stroke="midnightblue" points="195.02,-311.98 205.49,-310.37 196.3,-305.1 195.02,-311.98"/>
</g>
<!-- Node5 -->
<g id="node5" class="node">
<title>Node5</title>
<g id="a_node5"><a xlink:href="fp_8cuh.html#a74e253977f8412787ed920e5a07de414" target="_top" xlink:title="Computes the square of the residue x modulo p and stores it in z.">
<polygon fill="white" stroke="black" points="207,-266.5 207,-285.5 254,-285.5 254,-266.5 207,-266.5"/>
<text text-anchor="middle" x="230.5" y="-273.5" font-family="Helvetica,sans-Serif" font-size="10.00">fp_sqr</text>
</a>
</g>
</g>
<!-- Node1&#45;&gt;Node5 -->
<g id="edge4" class="edge">
<title>Node1&#45;&gt;Node5</title>
<path fill="none" stroke="midnightblue" d="M43.31,-228.53C55.61,-236.02 73.81,-246.14 91,-252 126.02,-263.94 168.15,-270.16 196.67,-273.24"/>
<polygon fill="midnightblue" stroke="midnightblue" points="196.59,-276.75 206.9,-274.27 197.3,-269.79 196.59,-276.75"/>
</g>
<!-- Node6 -->
<g id="node6" class="node">
<title>Node6</title>
<g id="a_node6"><a xlink:href="fp_8cuh.html#aff96ec3f32ad9c0419911604d5fefe44" target="_top" xlink:title="Calculates the difference of two residues modulo p and stores it into z.">
<polygon fill="white" stroke="black" points="303,-304.5 303,-323.5 352,-323.5 352,-304.5 303,-304.5"/>
<text text-anchor="middle" x="327.5" y="-311.5" font-family="Helvetica,sans-Serif" font-size="10.00">fp_sub</text>
</a>
</g>
</g>
<!-- Node1&#45;&gt;Node6 -->
<g id="edge5" class="edge">
<title>Node1&#45;&gt;Node6</title>
<path fill="none" stroke="midnightblue" d="M55.34,-218.71C100.12,-219.23 191.96,-224.57 261,-257 280.89,-266.34 299.36,-283.52 311.58,-296.59"/>
<polygon fill="midnightblue" stroke="midnightblue" points="309.05,-299 318.34,-304.08 314.25,-294.31 309.05,-299"/>
</g>
<!-- Node7 -->
<g id="node7" class="node">
<title>Node7</title>
<g id="a_node7"><a xlink:href="fp_8cuh.html#a5d44bd034dfdd40057aaf66b13bc8518" target="_top" xlink:title="Multiplies the residue mod p x by 12 and stores the result into z.">
<polygon fill="white" stroke="black" points="102.5,-190.5 102.5,-209.5 152.5,-209.5 152.5,-190.5 102.5,-190.5"/>
<text text-anchor="middle" x="127.5" y="-197.5" font-family="Helvetica,sans-Serif" font-size="10.00">fp_x12</text>
</a>
</g>
</g>
<!-- Node1&#45;&gt;Node7 -->
<g id="edge6" class="edge">
<title>Node1&#45;&gt;Node7</title>
<path fill="none" stroke="midnightblue" d="M55.02,-213.86C66.53,-211.63 80.16,-208.98 92.42,-206.61"/>
<polygon fill="midnightblue" stroke="midnightblue" points="93.16,-210.03 102.31,-204.69 91.83,-203.16 93.16,-210.03"/>
</g>
<!-- Node8 -->
<g id="node8" class="node">
<title>Node8</title>
<g id="a_node8"><a xlink:href="fp_8cuh.html#a55a8ca49fdfdfdaaf7864c4c01917366" target="_top" xlink:title="Multiplies x by 2 and stores the result into z.">
<polygon fill="white" stroke="black" points="105.5,-152.5 105.5,-171.5 149.5,-171.5 149.5,-152.5 105.5,-152.5"/>
<text text-anchor="middle" x="127.5" y="-159.5" font-family="Helvetica,sans-Serif" font-size="10.00">fp_x2</text>
</a>
</g>
</g>
<!-- Node1&#45;&gt;Node8 -->
<g id="edge7" class="edge">
<title>Node1&#45;&gt;Node8</title>
<path fill="none" stroke="midnightblue" d="M43.77,-209.39C56.34,-201.56 74.68,-190.32 91,-181 93.56,-179.54 96.24,-178.04 98.93,-176.56"/>
<polygon fill="midnightblue" stroke="midnightblue" points="100.84,-179.51 107.97,-171.67 97.51,-173.35 100.84,-179.51"/>
</g>
<!-- Node9 -->
<g id="node9" class="node">
<title>Node9</title>
<g id="a_node9"><a xlink:href="fp_8cuh.html#aabd562bd67fa39ed0329294e1784582a" target="_top" xlink:title="Multiplies x by 3 and stores the result into z.">
<polygon fill="white" stroke="black" points="105.5,-114.5 105.5,-133.5 149.5,-133.5 149.5,-114.5 105.5,-114.5"/>
<text text-anchor="middle" x="127.5" y="-121.5" font-family="Helvetica,sans-Serif" font-size="10.00">fp_x3</text>
</a>
</g>
</g>
<!-- Node1&#45;&gt;Node9 -->
<g id="edge8" class="edge">
<title>Node1&#45;&gt;Node9</title>
<path fill="none" stroke="midnightblue" d="M34.78,-209.08C45.04,-193.48 66.7,-162.94 91,-143 92.76,-141.56 94.64,-140.18 96.59,-138.86"/>
<polygon fill="midnightblue" stroke="midnightblue" points="98.61,-141.73 105.36,-133.56 95,-135.74 98.61,-141.73"/>
</g>
<!-- Node10 -->
<g id="node10" class="node">
<title>Node10</title>
<g id="a_node10"><a xlink:href="fp_8cuh.html#a4d3c99f0008c54a2b125b217f33199cb" target="_top" xlink:title="Multiplies x by 8 and stores the result into z.">
<polygon fill="white" stroke="black" points="105.5,-76.5 105.5,-95.5 149.5,-95.5 149.5,-76.5 105.5,-76.5"/>
<text text-anchor="middle" x="127.5" y="-83.5" font-family="Helvetica,sans-Serif" font-size="10.00">fp_x8</text>
</a>
</g>
</g>
<!-- Node1&#45;&gt;Node10 -->
<g id="edge9" class="edge">
<title>Node1&#45;&gt;Node10</title>
<path fill="none" stroke="midnightblue" d="M31.67,-209.26C39.02,-187.96 59.08,-136.6 91,-105 92.65,-103.36 94.48,-101.83 96.4,-100.4"/>
<polygon fill="midnightblue" stroke="midnightblue" points="98.66,-103.11 105.24,-94.81 94.92,-97.2 98.66,-103.11"/>
</g>
<!-- Node11 -->
<g id="node11" class="node">
<title>Node11</title>
<g id="a_node11"><a xlink:href="fp_8cu.html#a38ff11c3699e6c472a5b310a4d0962ea" target="_top" xlink:title="Sets z to zero.">
<polygon fill="white" stroke="black" points="101,-38.5 101,-57.5 154,-57.5 154,-38.5 101,-38.5"/>
<text text-anchor="middle" x="127.5" y="-45.5" font-family="Helvetica,sans-Serif" font-size="10.00">fp_zero</text>
</a>
</g>
</g>
<!-- Node1&#45;&gt;Node11 -->
<g id="edge10" class="edge">
<title>Node1&#45;&gt;Node11</title>
<path fill="none" stroke="midnightblue" d="M30.14,-209.24C34.98,-183.16 51.4,-110.82 91,-67 92.16,-65.72 93.43,-64.5 94.77,-63.36"/>
<polygon fill="midnightblue" stroke="midnightblue" points="96.89,-66.15 103.07,-57.55 92.87,-60.41 96.89,-66.15"/>
</g>
<!-- Node12 -->
<g id="node12" class="node">
<title>Node12</title>
<g id="a_node12"><a xlink:href="g1_8cuh.html#ac5e28dd7ae9a2d9f751792ffa5688346" target="_top" xlink:title="Check if the value stored in p is a valid point on the G1 curve.">
<polygon fill="white" stroke="black" points="91,-380.5 91,-399.5 164,-399.5 164,-380.5 91,-380.5"/>
<text text-anchor="middle" x="127.5" y="-387.5" font-family="Helvetica,sans-Serif" font-size="10.00">g1p_isPoint</text>
</a>
</g>
</g>
<!-- Node1&#45;&gt;Node12 -->
<g id="edge11" class="edge">
<title>Node1&#45;&gt;Node12</title>
<path fill="none" stroke="midnightblue" d="M34.05,-228.68C49.82,-256.19 95.07,-335.17 115.85,-371.41"/>
<polygon fill="midnightblue" stroke="midnightblue" points="113,-373.49 121.01,-380.42 119.08,-370.01 113,-373.49"/>
</g>
<!-- Node19 -->
<g id="node19" class="node">
<title>Node19</title>
<g id="a_node19"><a xlink:href="g1_8cuh.html#acaf95d73b562be4aa45fd6b10b505473" target="_top" xlink:title="Print a standard representation of p, preceded by the user&#45;set string s.">
<polygon fill="white" stroke="black" points="96.5,-0.5 96.5,-19.5 158.5,-19.5 158.5,-0.5 96.5,-0.5"/>
<text text-anchor="middle" x="127.5" y="-7.5" font-family="Helvetica,sans-Serif" font-size="10.00">g1p_print</text>
</a>
</g>
</g>
<!-- Node1&#45;&gt;Node19 -->
<g id="edge28" class="edge">
<title>Node1&#45;&gt;Node19</title>
<path fill="none" stroke="midnightblue" d="M29.21,-209.09C31.86,-178.68 43.65,-85.37 91,-29 91.98,-27.83 93.06,-26.72 94.2,-25.67"/>
<polygon fill="midnightblue" stroke="midnightblue" points="96.5,-28.32 102.5,-19.58 92.36,-22.68 96.5,-28.32"/>
</g>
<!-- Node12&#45;&gt;Node2 -->
<g id="edge12" class="edge">
<title>Node12&#45;&gt;Node2</title>
<path fill="none" stroke="midnightblue" d="M132.43,-399.76C141.78,-422.26 167.09,-478.82 200,-518 202.32,-520.76 205,-523.44 207.77,-525.94"/>
<polygon fill="midnightblue" stroke="midnightblue" points="205.69,-528.77 215.62,-532.46 210.16,-523.38 205.69,-528.77"/>
</g>
<!-- Node12&#45;&gt;Node3 -->
<g id="edge13" class="edge">
<title>Node12&#45;&gt;Node3</title>
<path fill="none" stroke="midnightblue" d="M156.88,-399.59C159.46,-401.15 161.89,-402.94 164,-405 191.89,-432.25 167.26,-463.83 200,-485 259.59,-523.53 347.46,-508.22 395,-495.49"/>
<polygon fill="midnightblue" stroke="midnightblue" points="396.1,-498.82 404.79,-492.75 394.22,-492.08 396.1,-498.82"/>
</g>
<!-- Node12&#45;&gt;Node4 -->
<g id="edge20" class="edge">
<title>Node12&#45;&gt;Node4</title>
<path fill="none" stroke="midnightblue" d="M139.86,-380.35C153.74,-368.71 178.08,-348.74 200,-333 201.81,-331.7 203.7,-330.39 205.62,-329.08"/>
<polygon fill="midnightblue" stroke="midnightblue" points="207.57,-332 213.99,-323.57 203.72,-326.15 207.57,-332"/>
</g>
<!-- Node12&#45;&gt;Node5 -->
<g id="edge21" class="edge">
<title>Node12&#45;&gt;Node5</title>
<path fill="none" stroke="midnightblue" d="M134.06,-380.5C145,-362.35 170.82,-322.12 200,-295 201.26,-293.83 202.6,-292.69 203.98,-291.58"/>
<polygon fill="midnightblue" stroke="midnightblue" points="206.12,-294.36 212.21,-285.69 202.04,-288.67 206.12,-294.36"/>
</g>
<!-- Node13 -->
<g id="node13" class="node">
<title>Node13</title>
<g id="a_node13"><a xlink:href="fp_8cuh.html#ade1abe61dfb7cbe9b00d78a38dda4bd3" target="_top" xlink:title="Compares two residues modulo p.">
<polygon fill="white" stroke="black" points="208.5,-380.5 208.5,-399.5 252.5,-399.5 252.5,-380.5 208.5,-380.5"/>
<text text-anchor="middle" x="230.5" y="-387.5" font-family="Helvetica,sans-Serif" font-size="10.00">fp_eq</text>
</a>
</g>
</g>
<!-- Node12&#45;&gt;Node13 -->
<g id="edge14" class="edge">
<title>Node12&#45;&gt;Node13</title>
<path fill="none" stroke="midnightblue" d="M164.11,-390C175.18,-390 187.31,-390 198.08,-390"/>
<polygon fill="midnightblue" stroke="midnightblue" points="198.3,-393.5 208.3,-390 198.3,-386.5 198.3,-393.5"/>
</g>
<!-- Node14 -->
<g id="node14" class="node">
<title>Node14</title>
<g id="a_node14"><a xlink:href="fp_8cuh.html#a45eab81e60385635ab4732360f94ec91" target="_top" xlink:title="Checks if the residue x modulo p is congruent to zero.">
<polygon fill="white" stroke="black" points="297,-418.5 297,-437.5 358,-437.5 358,-418.5 297,-418.5"/>
<text text-anchor="middle" x="327.5" y="-425.5" font-family="Helvetica,sans-Serif" font-size="10.00">fp_iszero</text>
</a>
</g>
</g>
<!-- Node12&#45;&gt;Node14 -->
<g id="edge19" class="edge">
<title>Node12&#45;&gt;Node14</title>
<path fill="none" stroke="midnightblue" d="M161.42,-399.57C173.49,-402.85 187.3,-406.37 200,-409 228.83,-414.98 261.72,-419.86 286.74,-423.18"/>
<polygon fill="midnightblue" stroke="midnightblue" points="286.57,-426.68 296.94,-424.5 287.48,-419.74 286.57,-426.68"/>
</g>
<!-- Node16 -->
<g id="node16" class="node">
<title>Node16</title>
<g id="a_node16"><a xlink:href="fp_8cuh.html#a6fe5404e5c3813ab6944ed160eea3adb" target="_top" xlink:title="Multiplies x by 4 and stores the result into z.">
<polygon fill="white" stroke="black" points="208.5,-342.5 208.5,-361.5 252.5,-361.5 252.5,-342.5 208.5,-342.5"/>
<text text-anchor="middle" x="230.5" y="-349.5" font-family="Helvetica,sans-Serif" font-size="10.00">fp_x4</text>
</a>
</g>
</g>
<!-- Node12&#45;&gt;Node16 -->
<g id="edge22" class="edge">
<title>Node12&#45;&gt;Node16</title>
<path fill="none" stroke="midnightblue" d="M153.99,-380.41C167.66,-375.27 184.61,-368.89 198.98,-363.48"/>
<polygon fill="midnightblue" stroke="midnightblue" points="200.32,-366.72 208.45,-359.92 197.86,-360.17 200.32,-366.72"/>
</g>
<!-- Node17 -->
<g id="node17" class="node">
<title>Node17</title>
<g id="a_node17"><a xlink:href="g1p__ispoint_8cu.html#aefda685f50e444161695d95042c312d5" target="_top" xlink:title="Check if the value stored in p is the the/any point at infinity. This implementation uses (0,...">
<polygon fill="white" stroke="black" points="200,-456.5 200,-475.5 261,-475.5 261,-456.5 200,-456.5"/>
<text text-anchor="middle" x="230.5" y="-463.5" font-family="Helvetica,sans-Serif" font-size="10.00">g1p_isInf</text>
</a>
</g>
</g>
<!-- Node12&#45;&gt;Node17 -->
<g id="edge23" class="edge">
<title>Node12&#45;&gt;Node17</title>
<path fill="none" stroke="midnightblue" d="M141.29,-399.63C158.29,-412.42 188.53,-435.17 208.8,-450.43"/>
<polygon fill="midnightblue" stroke="midnightblue" points="206.72,-453.24 216.81,-456.45 210.93,-447.64 206.72,-453.24"/>
</g>
<!-- Node13&#45;&gt;Node6 -->
<g id="edge18" class="edge">
<title>Node13&#45;&gt;Node6</title>
<path fill="none" stroke="midnightblue" d="M247.4,-380.35C251.89,-377.47 256.71,-374.22 261,-371 277.81,-358.38 295.74,-342.59 308.59,-330.84"/>
<polygon fill="midnightblue" stroke="midnightblue" points="311.26,-333.13 316.23,-323.77 306.51,-327.99 311.26,-333.13"/>
</g>
<!-- Node13&#45;&gt;Node14 -->
<g id="edge15" class="edge">
<title>Node13&#45;&gt;Node14</title>
<path fill="none" stroke="midnightblue" d="M252.58,-398.43C264.46,-403.18 279.57,-409.23 293.02,-414.61"/>
<polygon fill="midnightblue" stroke="midnightblue" points="291.88,-417.92 302.46,-418.38 294.48,-411.42 291.88,-417.92"/>
</g>
<!-- Node14&#45;&gt;Node3 -->
<g id="edge16" class="edge">
<title>Node14&#45;&gt;Node3</title>
<path fill="none" stroke="midnightblue" d="M345.46,-437.67C361.22,-446.65 384.89,-460.14 402.94,-470.43"/>
<polygon fill="midnightblue" stroke="midnightblue" points="401.37,-473.56 411.79,-475.47 404.83,-467.48 401.37,-473.56"/>
</g>
<!-- Node15 -->
<g id="node15" class="node">
<title>Node15</title>
<g id="a_node15"><a xlink:href="fp_8cuh.html#a89b41553cb5af629dd8ac33b71d03ee1" target="_top" xlink:title="Narrow reduction of a residue modulo p, reducing to the canonical representation.">
<polygon fill="white" stroke="black" points="394,-418.5 394,-437.5 465,-437.5 465,-418.5 394,-418.5"/>
<text text-anchor="middle" x="429.5" y="-425.5" font-family="Helvetica,sans-Serif" font-size="10.00">fp_reduce6</text>
</a>
</g>
</g>
<!-- Node14&#45;&gt;Node15 -->
<g id="edge17" class="edge">
<title>Node14&#45;&gt;Node15</title>
<path fill="none" stroke="midnightblue" d="M358.23,-428C366.17,-428 374.93,-428 383.5,-428"/>
<polygon fill="midnightblue" stroke="midnightblue" points="383.78,-431.5 393.78,-428 383.78,-424.5 383.78,-431.5"/>
</g>
<!-- Node17&#45;&gt;Node14 -->
<g id="edge27" class="edge">
<title>Node17&#45;&gt;Node14</title>
<path fill="none" stroke="midnightblue" d="M255.47,-456.41C266.84,-451.87 280.6,-446.36 292.98,-441.41"/>
<polygon fill="midnightblue" stroke="midnightblue" points="294.55,-444.55 302.54,-437.59 291.95,-438.05 294.55,-444.55"/>
</g>
<!-- Node18 -->
<g id="node18" class="node">
<title>Node18</title>
<g id="a_node18"><a xlink:href="fp_8cuh.html#acf26ba4d56d7ff54adc93a6e1bcaeab1" target="_top" xlink:title="Checks if the residue x modulo p is congruent to one.">
<polygon fill="white" stroke="black" points="298.5,-456.5 298.5,-475.5 356.5,-475.5 356.5,-456.5 298.5,-456.5"/>
<text text-anchor="middle" x="327.5" y="-463.5" font-family="Helvetica,sans-Serif" font-size="10.00">fp_isone</text>
</a>
</g>
</g>
<!-- Node17&#45;&gt;Node18 -->
<g id="edge24" class="edge">
<title>Node17&#45;&gt;Node18</title>
<path fill="none" stroke="midnightblue" d="M261.04,-466C269.57,-466 279.01,-466 288.01,-466"/>
<polygon fill="midnightblue" stroke="midnightblue" points="288.28,-469.5 298.28,-466 288.28,-462.5 288.28,-469.5"/>
</g>
<!-- Node18&#45;&gt;Node3 -->
<g id="edge25" class="edge">
<title>Node18&#45;&gt;Node3</title>
<path fill="none" stroke="midnightblue" d="M356.62,-471.34C368.54,-473.61 382.52,-476.26 394.96,-478.63"/>
<polygon fill="midnightblue" stroke="midnightblue" points="394.5,-482.1 404.98,-480.53 395.81,-475.23 394.5,-482.1"/>
</g>
<!-- Node18&#45;&gt;Node15 -->
<g id="edge26" class="edge">
<title>Node18&#45;&gt;Node15</title>
<path fill="none" stroke="midnightblue" d="M353.73,-456.41C365.81,-451.82 380.47,-446.25 393.6,-441.26"/>
<polygon fill="midnightblue" stroke="midnightblue" points="395.17,-444.41 403.27,-437.59 392.68,-437.87 395.17,-444.41"/>
</g>
</g>
</svg>
        <g id="navigator" transform="translate(0 0)" fill="#404254">
                <rect fill="#f2f5e9" fill-opacity="0.5" stroke="#606060" stroke-width=".5" x="0" y="0" width="60" height="60"/>
                <use id="zoomplus" xlink:href="#zoomPlus" x="17" y="9" onmousedown="handleZoom(evt,'in')"/>
                <use id="zoomminus" xlink:href="#zoomMin" x="42" y="9" onmousedown="handleZoom(evt,'out')"/>
                <use id="reset" xlink:href="#resetDef" x="30" y="36" onmousedown="handleReset()"/>
                <g id="arrowUp" xlink:href="#dirArrow" transform="translate(30 24)" onmousedown="handlePan(0,-1)">
                  <use xlink:href="#rim" fill="#404040">
                        <set attributeName="fill" to="#808080" begin="arrowUp.mouseover" end="arrowUp.mouseout"/>
                  </use>
                  <path fill="none" stroke="white" stroke-width="1.5" d="M0,-3.0v7 M-2.5,-0.5L0,-3.0L2.5,-0.5"/>
                </g>
                <g id="arrowRight" xlink:href="#dirArrow" transform="rotate(90) translate(36 -43)" onmousedown="handlePan(1,0)">
                  <use xlink:href="#rim" fill="#404040">
                        <set attributeName="fill" to="#808080" begin="arrowRight.mouseover" end="arrowRight.mouseout"/>
                  </use>
                  <path fill="none" stroke="white" stroke-width="1.5" d="M0,-3.0v7 M-2.5,-0.5L0,-3.0L2.5,-0.5"/>
                </g>
                <g id="arrowDown" xlink:href="#dirArrow" transform="rotate(180) translate(-30 -48)" onmousedown="handlePan(0,1)">
                  <use xlink:href="#rim" fill="#404040">
                        <set attributeName="fill" to="#808080" begin="arrowDown.mouseover" end="arrowDown.mouseout"/>
                  </use>
                  <path fill="none" stroke="white" stroke-width="1.5" d="M0,-3.0v7 M-2.5,-0.5L0,-3.0L2.5,-0.5"/>
                </g>
                <g id="arrowLeft" xlink:href="#dirArrow" transform="rotate(270) translate(-36 17)" onmousedown="handlePan(-1,0)">
                  <use xlink:href="#rim" fill="#404040">
                        <set attributeName="fill" to="#808080" begin="arrowLeft.mouseover" end="arrowLeft.mouseout"/>
                  </use>
                  <path fill="none" stroke="white" stroke-width="1.5" d="M0,-3.0v7 M-2.5,-0.5L0,-3.0L2.5,-0.5"/>
                </g>
        </g>
        <svg viewBox="0 0 15 15" width="100%" height="30px" preserveAspectRatio="xMaxYMin meet">
         <g id="arrow_out" transform="scale(0.3 0.3)">
          <a xlink:href="g1_8cuh_a738cb164cdffd441d2aa86d5329cd0bc_cgraph_org.svg" target="_base">
           <rect id="button" ry="5" rx="5" y="6" x="6" height="38" width="38"
                fill="#f2f5e9" fill-opacity="0.5" stroke="#606060" stroke-width="1.0"/>
           <path id="arrow"
             d="M 11.500037,31.436501 C 11.940474,20.09759 22.043105,11.32322 32.158766,21.979434 L 37.068811,17.246167 C 37.068811,17.246167 37.088388,32 37.088388,32 L 22.160133,31.978069 C 22.160133,31.978069 26.997745,27.140456 26.997745,27.140456 C 18.528582,18.264221 13.291696,25.230495 11.500037,31.436501 z"
             style="fill:#404040;"/>
          </a>
         </g>
        </svg>
</svg>
