<?xml version="1.0" encoding="UTF-8" standalone="no"?>
<!DOCTYPE svg PUBLIC "-//W3C//DTD SVG 1.1//EN"
 "http://www.w3.org/Graphics/SVG/1.1/DTD/svg11.dtd">
<!-- Generated by graphviz version 2.43.0 (0)
 -->
<!-- Title: g1p_ift Pages: 1 -->
<!--zoomable 485 -->
<svg id="main" version="1.1" xmlns="http://www.w3.org/2000/svg" xmlns:xlink="http://www.w3.org/1999/xlink" xml:space="preserve" onload="init(evt)">
<style type="text/css"><![CDATA[
.edge:hover path { stroke: red; }
.edge:hover polygon { stroke: red; fill: red; }
]]></style>
<script type="text/javascript"><![CDATA[
var edges = document.getElementsByTagName('g');
if (edges && edges.length) {
  for (var i=0;i<edges.length;i++) {
    if (edges[i].id.substr(0,4)=='edge') {
      edges[i].setAttribute('class','edge');
    }
  }
}
]]></script>
        <defs>
                <circle id="rim" cx="0" cy="0" r="7"/>
                <circle id="rim2" cx="0" cy="0" r="3.5"/>
                <g id="zoomPlus">
                        <use xlink:href="#rim" fill="#404040">
                                <set attributeName="fill" to="#808080" begin="zoomplus.mouseover" end="zoomplus.mouseout"/>
                        </use>
                        <path d="M-4,0h8M0,-4v8" fill="none" stroke="white" stroke-width="1.5" pointer-events="none"/>
                </g>
                <g id="zoomMin">
                        <use xlink:href="#rim" fill="#404040">
                                <set attributeName="fill" to="#808080" begin="zoomminus.mouseover" end="zoomminus.mouseout"/>
                        </use>
                        <path d="M-4,0h8" fill="none" stroke="white" stroke-width="1.5" pointer-events="none"/>
                </g>
                <g id="dirArrow">
                        <path fill="none" stroke="white" stroke-width="1.5" d="M0,-3.0v7 M-2.5,-0.5L0,-3.0L2.5,-0.5"/>
                </g>
               <g id="resetDef">
                       <use xlink:href="#rim2" fill="#404040">
                               <set attributeName="fill" to="#808080" begin="reset.mouseover" end="reset.mouseout"/>
                       </use>
               </g>
        </defs>

<script type="text/javascript">
var viewWidth = 593;
var viewHeight = 485;
var sectionId = 'dynsection-15';
</script>
<script xlink:href="svgpan.js"/>
<svg id="graph" class="graph">
<g id="viewport">
<title>g1p_ift</title>
<polygon fill="white" stroke="transparent" points="-4,4 -4,-481.34 589,-481.34 589,4 -4,4"/>
<!-- Node1 -->
<g id="node1" class="node">
<title>Node1</title>
<g id="a_node1"><a xlink:title="Inverse FFT of size 512 over G1 with projective coordinates. Input and output arrays may overlap....">
<polygon fill="#bfbfbf" stroke="black" points="535,-315.84 535,-334.84 585,-334.84 585,-315.84 535,-315.84"/>
<text text-anchor="middle" x="560" y="-322.84" font-family="Helvetica,sans-Serif" font-size="10.00">g1p_ift</text>
</a>
</g>
</g>
<!-- Node2 -->
<g id="node2" class="node">
<title>Node2</title>
<g id="a_node2"><a xlink:href="fk20_8cuh.html#ab86790c4888c05259b0f76570d7cbfc4" target="_top" xlink:title="hext_fft &#45;&gt; h_fft">
<polygon fill="white" stroke="black" points="390,-419.84 390,-438.84 499,-438.84 499,-419.84 390,-419.84"/>
<text text-anchor="middle" x="444.5" y="-426.84" font-family="Helvetica,sans-Serif" font-size="10.00">fk20_hext_fft2h_fft</text>
</a>
</g>
</g>
<!-- Node1&#45;&gt;Node2 -->
<g id="edge1" class="edge">
<title>Node1&#45;&gt;Node2</title>
<path fill="none" stroke="midnightblue" d="M541.14,-341.7C517.16,-363.67 475.36,-401.98 455.95,-419.76"/>
<polygon fill="midnightblue" stroke="midnightblue" points="543.52,-344.27 548.53,-334.93 538.79,-339.11 543.52,-344.27"/>
</g>
<!-- Node7 -->
<g id="node7" class="node">
<title>Node7</title>
<g id="a_node7"><a xlink:href="fk20_8cu.html#a831e7b7d95cdaf1032d1904977b749d9" target="_top" xlink:title="hext_fft &#45;&gt; hext">
<polygon fill="white" stroke="black" points="390,-334.84 390,-353.84 499,-353.84 499,-334.84 390,-334.84"/>
<text text-anchor="middle" x="444.5" y="-341.84" font-family="Helvetica,sans-Serif" font-size="10.00">fk20_hext_fft2hext</text>
</a>
</g>
</g>
<!-- Node1&#45;&gt;Node7 -->
<g id="edge6" class="edge">
<title>Node1&#45;&gt;Node7</title>
<path fill="none" stroke="midnightblue" d="M524.86,-331.05C516.83,-332.4 508.09,-333.86 499.42,-335.31"/>
<polygon fill="midnightblue" stroke="midnightblue" points="525.64,-334.47 534.93,-329.37 524.49,-327.57 525.64,-334.47"/>
</g>
<!-- Node8 -->
<g id="node8" class="node">
<title>Node8</title>
<g id="a_node8"><a xlink:href="fk20test__kat_8cu.html#aa089930801a6a86e41049da9bb54f1c9" target="_top" xlink:title=" ">
<polygon fill="white" stroke="black" points="402,-296.84 402,-315.84 487,-315.84 487,-296.84 402,-296.84"/>
<text text-anchor="middle" x="444.5" y="-303.84" font-family="Helvetica,sans-Serif" font-size="10.00">FK20TimeKAT</text>
</a>
</g>
</g>
<!-- Node1&#45;&gt;Node8 -->
<g id="edge7" class="edge">
<title>Node1&#45;&gt;Node8</title>
<path fill="none" stroke="midnightblue" d="M525.02,-319.65C513.2,-317.67 499.8,-315.43 487.42,-313.35"/>
<polygon fill="midnightblue" stroke="midnightblue" points="524.49,-323.11 534.93,-321.31 525.64,-316.2 524.49,-323.11"/>
</g>
<!-- Node9 -->
<g id="node9" class="node">
<title>Node9</title>
<g id="a_node9"><a xlink:href="g1_8cuh.html#aa99a1625656fd85f384889a39bf8067f" target="_top" xlink:title="wrapper for g1p_ift: inverse FFT for arrays of g1p_t with length 512">
<polygon fill="white" stroke="black" points="397,-210.84 397,-229.84 492,-229.84 492,-210.84 397,-210.84"/>
<text text-anchor="middle" x="444.5" y="-217.84" font-family="Helvetica,sans-Serif" font-size="10.00">g1p_ift_wrapper</text>
</a>
</g>
</g>
<!-- Node1&#45;&gt;Node9 -->
<g id="edge8" class="edge">
<title>Node1&#45;&gt;Node9</title>
<path fill="none" stroke="midnightblue" d="M541.14,-308.81C517.16,-286.63 475.36,-247.96 455.95,-230"/>
<polygon fill="midnightblue" stroke="midnightblue" points="538.81,-311.43 548.53,-315.65 543.56,-306.29 538.81,-311.43"/>
</g>
<!-- Node3 -->
<g id="node3" class="node">
<title>Node3</title>
<g id="a_node3"><a xlink:href="fk20test_8cuh.html#a6e91d377665333877b570b295e6ee017" target="_top" xlink:title="Test for fk20_hext_fft2h_fft: hext_fft &#45;&gt; h_fft.">
<polygon fill="white" stroke="black" points="258,-419.84 258,-438.84 340,-438.84 340,-419.84 258,-419.84"/>
<text text-anchor="middle" x="299" y="-426.84" font-family="Helvetica,sans-Serif" font-size="10.00">hext_fft2h_fft</text>
</a>
</g>
</g>
<!-- Node2&#45;&gt;Node3 -->
<g id="edge2" class="edge">
<title>Node2&#45;&gt;Node3</title>
<path fill="none" stroke="midnightblue" d="M379.54,-429.34C366.18,-429.34 352.45,-429.34 340.24,-429.34"/>
<polygon fill="midnightblue" stroke="midnightblue" points="379.66,-432.84 389.66,-429.34 379.66,-425.84 379.66,-432.84"/>
</g>
<!-- Node6 -->
<g id="node6" class="node">
<title>Node6</title>
<g id="a_node6"><a xlink:href="fk20__512test_8cu.html#adb9f3c1247f7f8e9273f99f4a545b57d" target="_top" xlink:title="Test for hext_fft2h_fft_512: hext_fft &#45;&gt; h_fft.">
<polygon fill="white" stroke="black" points="246.5,-457.84 246.5,-476.84 351.5,-476.84 351.5,-457.84 246.5,-457.84"/>
<text text-anchor="middle" x="299" y="-464.84" font-family="Helvetica,sans-Serif" font-size="10.00">hext_fft2h_fft_512</text>
</a>
</g>
</g>
<!-- Node2&#45;&gt;Node6 -->
<g id="edge5" class="edge">
<title>Node2&#45;&gt;Node6</title>
<path fill="none" stroke="midnightblue" d="M397.53,-441.51C377.68,-446.77 354.81,-452.82 336.2,-457.75"/>
<polygon fill="midnightblue" stroke="midnightblue" points="398.52,-444.87 407.29,-438.93 396.73,-438.1 398.52,-444.87"/>
</g>
<!-- Node4 -->
<g id="node4" class="node">
<title>Node4</title>
<g id="a_node4"><a xlink:href="fk20test_8cuh.html#a320efd4c0fb8e729400941e21ea983aa" target="_top" xlink:title=" ">
<polygon fill="white" stroke="black" points="103.5,-343.84 103.5,-362.84 181.5,-362.84 181.5,-343.84 103.5,-343.84"/>
<text text-anchor="middle" x="142.5" y="-350.84" font-family="Helvetica,sans-Serif" font-size="10.00">FK20TestFFT</text>
</a>
</g>
</g>
<!-- Node3&#45;&gt;Node4 -->
<g id="edge3" class="edge">
<title>Node3&#45;&gt;Node4</title>
<path fill="none" stroke="midnightblue" d="M258.5,-416.36C253.57,-414.47 248.63,-412.44 244,-410.34 212.42,-395.96 177.62,-374.98 158.38,-362.89"/>
<polygon fill="midnightblue" stroke="midnightblue" points="257.32,-419.65 267.92,-419.82 259.74,-413.08 257.32,-419.65"/>
</g>
<!-- Node5 -->
<g id="node5" class="node">
<title>Node5</title>
<g id="a_node5"><a xlink:href="fk20test_8cu.html#ae66f6b31b5ad750f1fe042a706a4e3d4" target="_top" xlink:title=" ">
<polygon fill="white" stroke="black" points="0,-305.84 0,-324.84 41,-324.84 41,-305.84 0,-305.84"/>
<text text-anchor="middle" x="20.5" y="-312.84" font-family="Helvetica,sans-Serif" font-size="10.00">main</text>
</a>
</g>
</g>
<!-- Node4&#45;&gt;Node5 -->
<g id="edge4" class="edge">
<title>Node4&#45;&gt;Node5</title>
<path fill="none" stroke="midnightblue" d="M101.59,-340.7C81.31,-334.28 57.57,-326.76 41.23,-321.59"/>
<polygon fill="midnightblue" stroke="midnightblue" points="100.63,-344.07 111.22,-343.75 102.74,-337.39 100.63,-344.07"/>
</g>
<!-- Node10 -->
<g id="node10" class="node">
<title>Node10</title>
<g id="a_node10"><a xlink:href="fk20_8cuh.html#a428f2dcc8b77723e4def6f684f790ceb" target="_top" xlink:title="polynomial + xext_fft &#45;&gt; h_fft This function is a wrapper for the full FK20 computation,...">
<polygon fill="white" stroke="black" points="253,-77.84 253,-96.84 345,-96.84 345,-77.84 253,-77.84"/>
<text text-anchor="middle" x="299" y="-84.84" font-family="Helvetica,sans-Serif" font-size="10.00">fk20_poly2h_fft</text>
</a>
</g>
</g>
<!-- Node9&#45;&gt;Node10 -->
<g id="edge9" class="edge">
<title>Node9&#45;&gt;Node10</title>
<path fill="none" stroke="midnightblue" d="M432.27,-201.91C417.07,-178.24 387.9,-137.15 354,-111.34 346.25,-105.43 336.81,-100.61 328.01,-96.87"/>
<polygon fill="midnightblue" stroke="midnightblue" points="429.46,-204 437.74,-210.61 435.39,-200.28 429.46,-204"/>
</g>
<!-- Node13 -->
<g id="node13" class="node">
<title>Node13</title>
<g id="a_node13"><a xlink:href="fk20test_8cuh.html#a219d5d803685ea0067dfa4908a620e11" target="_top" xlink:title=" ">
<polygon fill="white" stroke="black" points="273,-229.84 273,-248.84 325,-248.84 325,-229.84 273,-229.84"/>
<text text-anchor="middle" x="299" y="-236.84" font-family="Helvetica,sans-Serif" font-size="10.00">fullTest</text>
</a>
</g>
</g>
<!-- Node9&#45;&gt;Node13 -->
<g id="edge12" class="edge">
<title>Node9&#45;&gt;Node13</title>
<path fill="none" stroke="midnightblue" d="M386.9,-227.83C365.47,-230.67 342.15,-233.76 325.07,-236.02"/>
<polygon fill="midnightblue" stroke="midnightblue" points="387.46,-231.29 396.91,-226.51 386.54,-224.35 387.46,-231.29"/>
</g>
<!-- Node15 -->
<g id="node15" class="node">
<title>Node15</title>
<g id="a_node15"><a xlink:href="fk20__512test_8cu.html#a4de6443d77d1c56d1d49715061ba60db" target="_top" xlink:title="Executes many FK20 computations on a single row, with a check on each step. A computation failure wil...">
<polygon fill="white" stroke="black" points="105,-191.84 105,-210.84 180,-210.84 180,-191.84 105,-191.84"/>
<text text-anchor="middle" x="142.5" y="-198.84" font-family="Helvetica,sans-Serif" font-size="10.00">fullTest_512</text>
</a>
</g>
</g>
<!-- Node9&#45;&gt;Node15 -->
<g id="edge15" class="edge">
<title>Node9&#45;&gt;Node15</title>
<path fill="none" stroke="midnightblue" d="M386.78,-216.75C326.15,-212.91 231.8,-206.93 180.22,-203.66"/>
<polygon fill="midnightblue" stroke="midnightblue" points="386.75,-220.25 396.95,-217.39 387.2,-213.26 386.75,-220.25"/>
</g>
<!-- Node16 -->
<g id="node16" class="node">
<title>Node16</title>
<g id="a_node16"><a xlink:href="fk20__512test_8cu.html#a537be6501bbccff0654c4ca1b2fd83ae" target="_top" xlink:title="Similar to fullTest, but polynomial is has changes done to it. The function checks for false&#45;positive...">
<polygon fill="white" stroke="black" points="77,-115.84 77,-134.84 208,-134.84 208,-115.84 77,-115.84"/>
<text text-anchor="middle" x="142.5" y="-122.84" font-family="Helvetica,sans-Serif" font-size="10.00">fullTestFalseability_512</text>
</a>
</g>
</g>
<!-- Node9&#45;&gt;Node16 -->
<g id="edge17" class="edge">
<title>Node9&#45;&gt;Node16</title>
<path fill="none" stroke="midnightblue" d="M416,-206.19C398.56,-197.61 375.34,-186.89 354,-179.34 299.05,-159.88 233.76,-144.24 190.62,-134.9"/>
<polygon fill="midnightblue" stroke="midnightblue" points="414.54,-209.37 425.05,-210.7 417.66,-203.11 414.54,-209.37"/>
</g>
<!-- Node17 -->
<g id="node17" class="node">
<title>Node17</title>
<g id="a_node17"><a xlink:href="fk20test_8cuh.html#a8d2cfb1e9fc0723c345460c7ad438df1" target="_top" xlink:title=" ">
<polygon fill="white" stroke="black" points="244,-267.84 244,-286.84 354,-286.84 354,-267.84 244,-267.84"/>
<text text-anchor="middle" x="299" y="-274.84" font-family="Helvetica,sans-Serif" font-size="10.00">fullTestFalsifiability</text>
</a>
</g>
</g>
<!-- Node9&#45;&gt;Node17 -->
<g id="edge19" class="edge">
<title>Node9&#45;&gt;Node17</title>
<path fill="none" stroke="midnightblue" d="M412.45,-234.09C395.32,-241.54 373.6,-250.74 354,-258.34 345.66,-261.57 336.51,-264.88 328.15,-267.81"/>
<polygon fill="midnightblue" stroke="midnightblue" points="414.19,-237.15 421.95,-229.94 411.39,-230.74 414.19,-237.15"/>
</g>
<!-- Node18 -->
<g id="node18" class="node">
<title>Node18</title>
<g id="a_node18"><a xlink:href="g1test_8cuh.html#af69268816d41d8e3c477c70066f7bfcf" target="_top" xlink:title="Test for FFT and IFFT of points on the G1 curve. Checks self consistency with the following propertie...">
<polygon fill="white" stroke="black" points="265.5,-39.84 265.5,-58.84 332.5,-58.84 332.5,-39.84 265.5,-39.84"/>
<text text-anchor="middle" x="299" y="-46.84" font-family="Helvetica,sans-Serif" font-size="10.00">G1TestFFT</text>
</a>
</g>
</g>
<!-- Node9&#45;&gt;Node18 -->
<g id="edge21" class="edge">
<title>Node9&#45;&gt;Node18</title>
<path fill="none" stroke="midnightblue" d="M437.11,-201.03C425.56,-168.97 398.19,-104.7 354,-68.34 347.86,-63.29 340.28,-59.54 332.77,-56.77"/>
<polygon fill="midnightblue" stroke="midnightblue" points="433.84,-202.28 440.43,-210.58 440.46,-199.98 433.84,-202.28"/>
</g>
<!-- Node20 -->
<g id="node20" class="node">
<title>Node20</title>
<g id="a_node20"><a xlink:href="fk20test_8cuh.html#a060c821b96d17d587425957709eec75b" target="_top" xlink:title="Test for g1p_ift: h_fft &#45;&gt; h.">
<polygon fill="white" stroke="black" points="274,-305.84 274,-324.84 324,-324.84 324,-305.84 274,-305.84"/>
<text text-anchor="middle" x="299" y="-312.84" font-family="Helvetica,sans-Serif" font-size="10.00">h_fft2h</text>
</a>
</g>
</g>
<!-- Node9&#45;&gt;Node20 -->
<g id="edge23" class="edge">
<title>Node9&#45;&gt;Node20</title>
<path fill="none" stroke="midnightblue" d="M427.06,-237.58C410.12,-254.52 382.26,-280.11 354,-296.34 344.78,-301.63 333.83,-305.82 324.21,-308.9"/>
<polygon fill="midnightblue" stroke="midnightblue" points="429.96,-239.63 434.46,-230.04 424.96,-234.73 429.96,-239.63"/>
</g>
<!-- Node21 -->
<g id="node21" class="node">
<title>Node21</title>
<g id="a_node21"><a xlink:href="fk20__512test_8cu.html#ae55f2f625c11ad82f77b72b3a42c47ca" target="_top" xlink:title="Test for g1p_ift: h_fft &#45;&gt; h.">
<polygon fill="white" stroke="black" points="105.5,-1.84 105.5,-20.84 179.5,-20.84 179.5,-1.84 105.5,-1.84"/>
<text text-anchor="middle" x="142.5" y="-8.84" font-family="Helvetica,sans-Serif" font-size="10.00">h_fft2h_512</text>
</a>
</g>
</g>
<!-- Node9&#45;&gt;Node21 -->
<g id="edge25" class="edge">
<title>Node9&#45;&gt;Node21</title>
<path fill="none" stroke="midnightblue" d="M440.72,-200.73C433.94,-161.01 412.6,-71.32 354,-30.34 302.13,5.94 224.59,1.95 179.52,-4.5"/>
<polygon fill="midnightblue" stroke="midnightblue" points="437.28,-201.4 442.29,-210.74 444.19,-200.31 437.28,-201.4"/>
</g>
<!-- Node22 -->
<g id="node22" class="node">
<title>Node22</title>
<g id="a_node22"><a xlink:href="fk20test_8cuh.html#af23866ba0e5030142bbb04cbcfd4da05" target="_top" xlink:title="Test for g1p_ift: hext_fft &#45;&gt; h.">
<polygon fill="white" stroke="black" points="266,-381.84 266,-400.84 332,-400.84 332,-381.84 266,-381.84"/>
<text text-anchor="middle" x="299" y="-388.84" font-family="Helvetica,sans-Serif" font-size="10.00">hext_fft2h</text>
</a>
</g>
</g>
<!-- Node9&#45;&gt;Node22 -->
<g id="edge27" class="edge">
<title>Node9&#45;&gt;Node22</title>
<path fill="none" stroke="midnightblue" d="M427.34,-237.81C415.9,-250.79 400.75,-269.29 390,-287.34 369,-322.58 383.9,-344.24 354,-372.34 347.92,-378.05 340.01,-382.06 332.13,-384.87"/>
<polygon fill="midnightblue" stroke="midnightblue" points="430.15,-239.92 434.23,-230.14 424.94,-235.24 430.15,-239.92"/>
</g>
<!-- Node23 -->
<g id="node23" class="node">
<title>Node23</title>
<g id="a_node23"><a xlink:href="fk20__512test_8cu.html#a9853234576c41f6afaa313c55cca4a4b" target="_top" xlink:title="Test for g1p_ift: hext_fft &#45;&gt; h.">
<polygon fill="white" stroke="black" points="98,-153.84 98,-172.84 187,-172.84 187,-153.84 98,-153.84"/>
<text text-anchor="middle" x="142.5" y="-160.84" font-family="Helvetica,sans-Serif" font-size="10.00">hext_fft2h_512</text>
</a>
</g>
</g>
<!-- Node9&#45;&gt;Node23 -->
<g id="edge29" class="edge">
<title>Node9&#45;&gt;Node23</title>
<path fill="none" stroke="midnightblue" d="M386.86,-209.58C328.88,-198.56 240,-181.67 187.23,-171.65"/>
<polygon fill="midnightblue" stroke="midnightblue" points="386.48,-213.07 396.95,-211.49 387.78,-206.19 386.48,-213.07"/>
</g>
<!-- Node24 -->
<g id="node24" class="node">
<title>Node24</title>
<g id="a_node24"><a xlink:href="fk20benchmark_8cu.html#a8cd0ecc09d4a9a4c418184789229b4f6" target="_top" xlink:title="Executes a test of FK20 with one block for each row. At the end, compare if the calculated h_fft is t...">
<polygon fill="white" stroke="black" points="258,-343.84 258,-362.84 340,-362.84 340,-343.84 258,-343.84"/>
<text text-anchor="middle" x="299" y="-350.84" font-family="Helvetica,sans-Serif" font-size="10.00">preBenchTest</text>
</a>
</g>
</g>
<!-- Node9&#45;&gt;Node24 -->
<g id="edge31" class="edge">
<title>Node9&#45;&gt;Node24</title>
<path fill="none" stroke="midnightblue" d="M429.04,-238.25C418.21,-251.7 403.09,-270.6 390,-287.34 373.79,-308.06 375.3,-318.88 354,-334.34 348.77,-338.13 342.72,-341.22 336.59,-343.73"/>
<polygon fill="midnightblue" stroke="midnightblue" points="431.91,-240.26 435.46,-230.28 426.46,-235.87 431.91,-240.26"/>
</g>
<!-- Node11 -->
<g id="node11" class="node">
<title>Node11</title>
<g id="a_node11"><a xlink:href="fk20__512test_8cu.html#a30719348d219c529d6b43175cecd8427" target="_top" xlink:title="Test for fk20_poly2h_fft: polynomial &#45;&gt; h_fft.">
<polygon fill="white" stroke="black" points="84.5,-77.84 84.5,-96.84 200.5,-96.84 200.5,-77.84 84.5,-77.84"/>
<text text-anchor="middle" x="142.5" y="-84.84" font-family="Helvetica,sans-Serif" font-size="10.00">fk20_poly2h_fft_512</text>
</a>
</g>
</g>
<!-- Node10&#45;&gt;Node11 -->
<g id="edge10" class="edge">
<title>Node10&#45;&gt;Node11</title>
<path fill="none" stroke="midnightblue" d="M242.71,-87.34C229.09,-87.34 214.48,-87.34 200.77,-87.34"/>
<polygon fill="midnightblue" stroke="midnightblue" points="242.9,-90.84 252.9,-87.34 242.9,-83.84 242.9,-90.84"/>
</g>
<!-- Node12 -->
<g id="node12" class="node">
<title>Node12</title>
<g id="a_node12"><a xlink:href="fk20__512test_8cu.html#a3c04138a5bfe5d72780bb7e82a18e627" target="_top" xlink:title="Executes a many&#45;row tests on FK20. Behavior is similar to fk20test.cu but using many GPU blocks,...">
<polygon fill="white" stroke="black" points="0,-115.84 0,-134.84 41,-134.84 41,-115.84 0,-115.84"/>
<text text-anchor="middle" x="20.5" y="-122.84" font-family="Helvetica,sans-Serif" font-size="10.00">main</text>
</a>
</g>
</g>
<!-- Node11&#45;&gt;Node12 -->
<g id="edge11" class="edge">
<title>Node11&#45;&gt;Node12</title>
<path fill="none" stroke="midnightblue" d="M97.87,-99.91C90.87,-102.01 83.73,-104.2 77,-106.34 65.06,-110.14 51.78,-114.67 41.21,-118.36"/>
<polygon fill="midnightblue" stroke="midnightblue" points="99.35,-103.12 107.94,-96.92 97.36,-96.41 99.35,-103.12"/>
</g>
<!-- Node14 -->
<g id="node14" class="node">
<title>Node14</title>
<g id="a_node14"><a xlink:href="fk20test_8cuh.html#a3f978e98c96e45785d60ed0d96689521" target="_top" xlink:title=" ">
<polygon fill="white" stroke="black" points="101.5,-267.84 101.5,-286.84 183.5,-286.84 183.5,-267.84 101.5,-267.84"/>
<text text-anchor="middle" x="142.5" y="-274.84" font-family="Helvetica,sans-Serif" font-size="10.00">FK20TestPoly</text>
</a>
</g>
</g>
<!-- Node13&#45;&gt;Node14 -->
<g id="edge13" class="edge">
<title>Node13&#45;&gt;Node14</title>
<path fill="none" stroke="midnightblue" d="M263.06,-247.93C239.02,-253.84 207.08,-261.7 182.26,-267.8"/>
<polygon fill="midnightblue" stroke="midnightblue" points="263.96,-251.31 272.83,-245.53 262.29,-244.52 263.96,-251.31"/>
</g>
<!-- Node14&#45;&gt;Node5 -->
<g id="edge14" class="edge">
<title>Node14&#45;&gt;Node5</title>
<path fill="none" stroke="midnightblue" d="M101.59,-289.98C81.31,-296.4 57.57,-303.91 41.23,-309.09"/>
<polygon fill="midnightblue" stroke="midnightblue" points="102.74,-293.28 111.22,-286.93 100.63,-286.61 102.74,-293.28"/>
</g>
<!-- Node15&#45;&gt;Node12 -->
<g id="edge16" class="edge">
<title>Node15&#45;&gt;Node12</title>
<path fill="none" stroke="midnightblue" d="M95.09,-190.82C88.79,-188.5 82.58,-185.7 77,-182.34 56.18,-169.78 37.76,-147.55 28.27,-134.88"/>
<polygon fill="midnightblue" stroke="midnightblue" points="94.39,-194.28 104.98,-194.09 96.59,-187.63 94.39,-194.28"/>
</g>
<!-- Node16&#45;&gt;Node12 -->
<g id="edge18" class="edge">
<title>Node16&#45;&gt;Node12</title>
<path fill="none" stroke="midnightblue" d="M66.91,-125.34C57.43,-125.34 48.46,-125.34 41.05,-125.34"/>
<polygon fill="midnightblue" stroke="midnightblue" points="66.93,-128.84 76.93,-125.34 66.93,-121.84 66.93,-128.84"/>
</g>
<!-- Node17&#45;&gt;Node14 -->
<g id="edge20" class="edge">
<title>Node17&#45;&gt;Node14</title>
<path fill="none" stroke="midnightblue" d="M233.56,-277.34C216.64,-277.34 198.87,-277.34 183.63,-277.34"/>
<polygon fill="midnightblue" stroke="midnightblue" points="233.96,-280.84 243.96,-277.34 233.96,-273.84 233.96,-280.84"/>
</g>
<!-- Node19 -->
<g id="node19" class="node">
<title>Node19</title>
<g id="a_node19"><a xlink:href="g1test_8cu.html#a3c04138a5bfe5d72780bb7e82a18e627" target="_top" xlink:title="Test for points in G1.">
<polygon fill="white" stroke="black" points="122,-39.84 122,-58.84 163,-58.84 163,-39.84 122,-39.84"/>
<text text-anchor="middle" x="142.5" y="-46.84" font-family="Helvetica,sans-Serif" font-size="10.00">main</text>
</a>
</g>
</g>
<!-- Node18&#45;&gt;Node19 -->
<g id="edge22" class="edge">
<title>Node18&#45;&gt;Node19</title>
<path fill="none" stroke="midnightblue" d="M254.98,-49.34C224.85,-49.34 186.02,-49.34 163.04,-49.34"/>
<polygon fill="midnightblue" stroke="midnightblue" points="255.23,-52.84 265.23,-49.34 255.23,-45.84 255.23,-52.84"/>
</g>
<!-- Node20&#45;&gt;Node4 -->
<g id="edge24" class="edge">
<title>Node20&#45;&gt;Node4</title>
<path fill="none" stroke="midnightblue" d="M263.99,-323.7C239.63,-329.69 206.82,-337.76 181.59,-343.97"/>
<polygon fill="midnightblue" stroke="midnightblue" points="264.98,-327.06 273.86,-321.27 263.31,-320.26 264.98,-327.06"/>
</g>
<!-- Node21&#45;&gt;Node12 -->
<g id="edge26" class="edge">
<title>Node21&#45;&gt;Node12</title>
<path fill="none" stroke="midnightblue" d="M95.6,-20.13C88.94,-22.7 82.5,-26.03 77,-30.34 47.67,-53.3 30.82,-96.4 24.46,-115.64"/>
<polygon fill="midnightblue" stroke="midnightblue" points="97.02,-23.34 105.41,-16.87 94.82,-16.7 97.02,-23.34"/>
</g>
<!-- Node22&#45;&gt;Node4 -->
<g id="edge28" class="edge">
<title>Node22&#45;&gt;Node4</title>
<path fill="none" stroke="midnightblue" d="M256.09,-381.03C232.91,-375.33 204.32,-368.3 181.75,-362.75"/>
<polygon fill="midnightblue" stroke="midnightblue" points="255.44,-384.47 265.99,-383.46 257.11,-377.68 255.44,-384.47"/>
</g>
<!-- Node23&#45;&gt;Node12 -->
<g id="edge30" class="edge">
<title>Node23&#45;&gt;Node12</title>
<path fill="none" stroke="midnightblue" d="M97.87,-150.76C90.87,-148.67 83.73,-146.48 77,-144.34 65.06,-140.54 51.78,-136 41.21,-132.32"/>
<polygon fill="midnightblue" stroke="midnightblue" points="97.36,-154.26 107.94,-153.75 99.35,-147.55 97.36,-154.26"/>
</g>
</g>
</svg>
        <g id="navigator" transform="translate(0 0)" fill="#404254">
                <rect fill="#f2f5e9" fill-opacity="0.5" stroke="#606060" stroke-width=".5" x="0" y="0" width="60" height="60"/>
                <use id="zoomplus" xlink:href="#zoomPlus" x="17" y="9" onmousedown="handleZoom(evt,'in')"/>
                <use id="zoomminus" xlink:href="#zoomMin" x="42" y="9" onmousedown="handleZoom(evt,'out')"/>
                <use id="reset" xlink:href="#resetDef" x="30" y="36" onmousedown="handleReset()"/>
                <g id="arrowUp" xlink:href="#dirArrow" transform="translate(30 24)" onmousedown="handlePan(0,-1)">
                  <use xlink:href="#rim" fill="#404040">
                        <set attributeName="fill" to="#808080" begin="arrowUp.mouseover" end="arrowUp.mouseout"/>
                  </use>
                  <path fill="none" stroke="white" stroke-width="1.5" d="M0,-3.0v7 M-2.5,-0.5L0,-3.0L2.5,-0.5"/>
                </g>
                <g id="arrowRight" xlink:href="#dirArrow" transform="rotate(90) translate(36 -43)" onmousedown="handlePan(1,0)">
                  <use xlink:href="#rim" fill="#404040">
                        <set attributeName="fill" to="#808080" begin="arrowRight.mouseover" end="arrowRight.mouseout"/>
                  </use>
                  <path fill="none" stroke="white" stroke-width="1.5" d="M0,-3.0v7 M-2.5,-0.5L0,-3.0L2.5,-0.5"/>
                </g>
                <g id="arrowDown" xlink:href="#dirArrow" transform="rotate(180) translate(-30 -48)" onmousedown="handlePan(0,1)">
                  <use xlink:href="#rim" fill="#404040">
                        <set attributeName="fill" to="#808080" begin="arrowDown.mouseover" end="arrowDown.mouseout"/>
                  </use>
                  <path fill="none" stroke="white" stroke-width="1.5" d="M0,-3.0v7 M-2.5,-0.5L0,-3.0L2.5,-0.5"/>
                </g>
                <g id="arrowLeft" xlink:href="#dirArrow" transform="rotate(270) translate(-36 17)" onmousedown="handlePan(-1,0)">
                  <use xlink:href="#rim" fill="#404040">
                        <set attributeName="fill" to="#808080" begin="arrowLeft.mouseover" end="arrowLeft.mouseout"/>
                  </use>
                  <path fill="none" stroke="white" stroke-width="1.5" d="M0,-3.0v7 M-2.5,-0.5L0,-3.0L2.5,-0.5"/>
                </g>
        </g>
        <svg viewBox="0 0 15 15" width="100%" height="30px" preserveAspectRatio="xMaxYMin meet">
         <g id="arrow_out" transform="scale(0.3 0.3)">
          <a xlink:href="g1_8cuh_a07141ff993bd6fc7da467a63b5c319ca_icgraph_org.svg" target="_base">
           <rect id="button" ry="5" rx="5" y="6" x="6" height="38" width="38"
                fill="#f2f5e9" fill-opacity="0.5" stroke="#606060" stroke-width="1.0"/>
           <path id="arrow"
             d="M 11.500037,31.436501 C 11.940474,20.09759 22.043105,11.32322 32.158766,21.979434 L 37.068811,17.246167 C 37.068811,17.246167 37.088388,32 37.088388,32 L 22.160133,31.978069 C 22.160133,31.978069 26.997745,27.140456 26.997745,27.140456 C 18.528582,18.264221 13.291696,25.230495 11.500037,31.436501 z"
             style="fill:#404040;"/>
          </a>
         </g>
        </svg>
</svg>
