<?xml version="1.0" encoding="UTF-8" standalone="no"?>
<!DOCTYPE svg PUBLIC "-//W3C//DTD SVG 1.1//EN"
 "http://www.w3.org/Graphics/SVG/1.1/DTD/svg11.dtd">
<!-- Generated by graphviz version 2.43.0 (0)
 -->
<!-- Title: g1p_add Pages: 1 -->
<svg width="205pt" height="66pt"
 viewBox="0.00 0.00 205.00 66.00" xmlns="http://www.w3.org/2000/svg" xmlns:xlink="http://www.w3.org/1999/xlink">
<g id="graph0" class="graph" transform="scale(1 1) rotate(0) translate(4 62)">
<title>g1p_add</title>
<polygon fill="white" stroke="transparent" points="-4,4 -4,-62 201,-62 201,4 -4,4"/>
<!-- Node1 -->
<g id="node1" class="node">
<title>Node1</title>
<g id="a_node1"><a xlink:title="Computes the sum of two points q into p, using projective coordinates. and stores in p.">
<polygon fill="#bfbfbf" stroke="black" points="139,-19.5 139,-38.5 197,-38.5 197,-19.5 139,-19.5"/>
<text text-anchor="middle" x="168" y="-26.5" font-family="Helvetica,sans-Serif" font-size="10.00">g1p_add</text>
</a>
</g>
</g>
<!-- Node2 -->
<g id="node2" class="node">
<title>Node2</title>
<g id="a_node2"><a xlink:href="fk20_8cuh.html#a29747b9a4d2253c1fbb59c46dba78aea" target="_top" xlink:title="toeplitz_coefficients_fft + xext_fft &#45;&gt; hext_fft">
<polygon fill="white" stroke="black" points="17.5,-38.5 17.5,-57.5 85.5,-57.5 85.5,-38.5 17.5,-38.5"/>
<text text-anchor="middle" x="51.5" y="-45.5" font-family="Helvetica,sans-Serif" font-size="10.00">fk20_msm</text>
</a>
</g>
</g>
<!-- Node1&#45;&gt;Node2 -->
<g id="edge1" class="edge">
<title>Node1&#45;&gt;Node2</title>
<path fill="none" stroke="midnightblue" d="M129.1,-35.29C115,-37.63 99.13,-40.26 85.51,-42.52"/>
<polygon fill="midnightblue" stroke="midnightblue" points="129.7,-38.74 138.99,-33.65 128.55,-31.83 129.7,-38.74"/>
</g>
<!-- Node3 -->
<g id="node3" class="node">
<title>Node3</title>
<g id="a_node3"><a xlink:href="g1test__fft_8cu.html#a8e16fe8db92c8d570b898f873fac6159" target="_top" xlink:title="Kernel wrapper for device addition.">
<polygon fill="white" stroke="black" points="0,-0.5 0,-19.5 103,-19.5 103,-0.5 0,-0.5"/>
<text text-anchor="middle" x="51.5" y="-7.5" font-family="Helvetica,sans-Serif" font-size="10.00">g1p_add_wrapper</text>
</a>
</g>
</g>
<!-- Node1&#45;&gt;Node3 -->
<g id="edge2" class="edge">
<title>Node1&#45;&gt;Node3</title>
<path fill="none" stroke="midnightblue" d="M128.87,-22.67C120.58,-21.3 111.69,-19.82 103.01,-18.38"/>
<polygon fill="midnightblue" stroke="midnightblue" points="128.55,-26.17 138.99,-24.35 129.7,-19.26 128.55,-26.17"/>
</g>
</g>
</svg>
