<?xml version="1.0" encoding="UTF-8" standalone="no"?>
<!DOCTYPE svg PUBLIC "-//W3C//DTD SVG 1.1//EN"
 "http://www.w3.org/Graphics/SVG/1.1/DTD/svg11.dtd">
<!-- Generated by graphviz version 2.43.0 (0)
 -->
<!-- Title: g1p_print Pages: 1 -->
<svg width="189pt" height="66pt"
 viewBox="0.00 0.00 189.00 66.00" xmlns="http://www.w3.org/2000/svg" xmlns:xlink="http://www.w3.org/1999/xlink">
<g id="graph0" class="graph" transform="scale(1 1) rotate(0) translate(4 62)">
<title>g1p_print</title>
<polygon fill="white" stroke="transparent" points="-4,4 -4,-62 185,-62 185,4 -4,4"/>
<!-- Node1 -->
<g id="node1" class="node">
<title>Node1</title>
<g id="a_node1"><a xlink:title="Print a standard representation of p, preceded by the user&#45;set string s.">
<polygon fill="#bfbfbf" stroke="black" points="119,-19.5 119,-38.5 181,-38.5 181,-19.5 119,-19.5"/>
<text text-anchor="middle" x="150" y="-26.5" font-family="Helvetica,sans-Serif" font-size="10.00">g1p_print</text>
</a>
</g>
</g>
<!-- Node2 -->
<g id="node2" class="node">
<title>Node2</title>
<g id="a_node2"><a xlink:href="g1_8cuh.html#a738cb164cdffd441d2aa86d5329cd0bc" target="_top" xlink:title="G1 point doubling, with write back: p=2*p.">
<polygon fill="white" stroke="black" points="14,-38.5 14,-57.5 69,-57.5 69,-38.5 14,-38.5"/>
<text text-anchor="middle" x="41.5" y="-45.5" font-family="Helvetica,sans-Serif" font-size="10.00">g1p_dbl</text>
</a>
</g>
</g>
<!-- Node1&#45;&gt;Node2 -->
<g id="edge1" class="edge">
<title>Node1&#45;&gt;Node2</title>
<path fill="none" stroke="midnightblue" d="M108.9,-36.15C95.63,-38.52 81.19,-41.1 69.18,-43.24"/>
<polygon fill="midnightblue" stroke="midnightblue" points="109.54,-39.6 118.77,-34.39 108.31,-32.7 109.54,-39.6"/>
</g>
<!-- Node3 -->
<g id="node3" class="node">
<title>Node3</title>
<g id="a_node3"><a xlink:href="fk20test__kat_8cu.html#a037e7452df3229f7ee8a774360c1606e" target="_top" xlink:title=" ">
<polygon fill="white" stroke="black" points="0,-0.5 0,-19.5 83,-19.5 83,-0.5 0,-0.5"/>
<text text-anchor="middle" x="41.5" y="-7.5" font-family="Helvetica,sans-Serif" font-size="10.00">g1p_fft_verify</text>
</a>
</g>
</g>
<!-- Node1&#45;&gt;Node3 -->
<g id="edge2" class="edge">
<title>Node1&#45;&gt;Node3</title>
<path fill="none" stroke="midnightblue" d="M108.82,-21.83C100.42,-20.33 91.56,-18.75 83.15,-17.25"/>
<polygon fill="midnightblue" stroke="midnightblue" points="108.31,-25.3 118.77,-23.61 109.54,-18.4 108.31,-25.3"/>
</g>
</g>
</svg>
