<?xml version="1.0" encoding="UTF-8" standalone="no"?>
<!DOCTYPE svg PUBLIC "-//W3C//DTD SVG 1.1//EN"
 "http://www.w3.org/Graphics/SVG/1.1/DTD/svg11.dtd">
<!-- Generated by graphviz version 2.43.0 (0)
 -->
<!-- Title: g1p_inf Pages: 1 -->
<!--zoomable 218 -->
<svg id="main" version="1.1" xmlns="http://www.w3.org/2000/svg" xmlns:xlink="http://www.w3.org/1999/xlink" xml:space="preserve" onload="init(evt)">
<style type="text/css"><![CDATA[
.edge:hover path { stroke: red; }
.edge:hover polygon { stroke: red; fill: red; }
]]></style>
<script type="text/javascript"><![CDATA[
var edges = document.getElementsByTagName('g');
if (edges && edges.length) {
  for (var i=0;i<edges.length;i++) {
    if (edges[i].id.substr(0,4)=='edge') {
      edges[i].setAttribute('class','edge');
    }
  }
}
]]></script>
        <defs>
                <circle id="rim" cx="0" cy="0" r="7"/>
                <circle id="rim2" cx="0" cy="0" r="3.5"/>
                <g id="zoomPlus">
                        <use xlink:href="#rim" fill="#404040">
                                <set attributeName="fill" to="#808080" begin="zoomplus.mouseover" end="zoomplus.mouseout"/>
                        </use>
                        <path d="M-4,0h8M0,-4v8" fill="none" stroke="white" stroke-width="1.5" pointer-events="none"/>
                </g>
                <g id="zoomMin">
                        <use xlink:href="#rim" fill="#404040">
                                <set attributeName="fill" to="#808080" begin="zoomminus.mouseover" end="zoomminus.mouseout"/>
                        </use>
                        <path d="M-4,0h8" fill="none" stroke="white" stroke-width="1.5" pointer-events="none"/>
                </g>
                <g id="dirArrow">
                        <path fill="none" stroke="white" stroke-width="1.5" d="M0,-3.0v7 M-2.5,-0.5L0,-3.0L2.5,-0.5"/>
                </g>
               <g id="resetDef">
                       <use xlink:href="#rim2" fill="#404040">
                               <set attributeName="fill" to="#808080" begin="reset.mouseover" end="reset.mouseout"/>
                       </use>
               </g>
        </defs>

<script type="text/javascript">
var viewWidth = 573;
var viewHeight = 218;
var sectionId = 'dynsection-18';
</script>
<script xlink:href="svgpan.js"/>
<svg id="graph" class="graph">
<g id="viewport">
<title>g1p_inf</title>
<polygon fill="white" stroke="transparent" points="-4,4 -4,-214 569,-214 569,4 -4,4"/>
<!-- Node1 -->
<g id="node1" class="node">
<title>Node1</title>
<g id="a_node1"><a xlink:title="Set p to the point&#45;at&#45;infinity (0,1,0)">
<polygon fill="#bfbfbf" stroke="black" points="512,-95.5 512,-114.5 565,-114.5 565,-95.5 512,-95.5"/>
<text text-anchor="middle" x="538.5" y="-102.5" font-family="Helvetica,sans-Serif" font-size="10.00">g1p_inf</text>
</a>
</g>
</g>
<!-- Node2 -->
<g id="node2" class="node">
<title>Node2</title>
<g id="a_node2"><a xlink:href="fk20_8cuh.html#aede726a30b3d70092bcf9b53d0b4b977" target="_top" xlink:title="hext &#45;&gt; h Fill upper half of hext with inf, modifying in place.">
<polygon fill="white" stroke="black" points="381,-190.5 381,-209.5 458,-209.5 458,-190.5 381,-190.5"/>
<text text-anchor="middle" x="419.5" y="-197.5" font-family="Helvetica,sans-Serif" font-size="10.00">fk20_hext2h</text>
</a>
</g>
</g>
<!-- Node1&#45;&gt;Node2 -->
<g id="edge1" class="edge">
<title>Node1&#45;&gt;Node2</title>
<path fill="none" stroke="midnightblue" d="M526.98,-123.2C516.2,-140.36 497.95,-165.65 476,-181 470.57,-184.79 464.33,-187.88 458.02,-190.39"/>
<polygon fill="midnightblue" stroke="midnightblue" points="529.99,-124.99 532.17,-114.62 524,-121.36 529.99,-124.99"/>
</g>
<!-- Node3 -->
<g id="node3" class="node">
<title>Node3</title>
<g id="a_node3"><a xlink:href="fk20_8cuh.html#ab86790c4888c05259b0f76570d7cbfc4" target="_top" xlink:title="hext_fft &#45;&gt; h_fft">
<polygon fill="white" stroke="black" points="365,-152.5 365,-171.5 474,-171.5 474,-152.5 365,-152.5"/>
<text text-anchor="middle" x="419.5" y="-159.5" font-family="Helvetica,sans-Serif" font-size="10.00">fk20_hext_fft2h_fft</text>
</a>
</g>
</g>
<!-- Node1&#45;&gt;Node3 -->
<g id="edge2" class="edge">
<title>Node1&#45;&gt;Node3</title>
<path fill="none" stroke="midnightblue" d="M515.38,-120.34C503.97,-127.82 489.61,-136.57 476,-143 468.54,-146.53 460.25,-149.72 452.39,-152.45"/>
<polygon fill="midnightblue" stroke="midnightblue" points="517.47,-123.15 523.84,-114.68 513.58,-117.33 517.47,-123.15"/>
</g>
<!-- Node8 -->
<g id="node8" class="node">
<title>Node8</title>
<g id="a_node8"><a xlink:href="fk20_8cuh.html#a29747b9a4d2253c1fbb59c46dba78aea" target="_top" xlink:title="toeplitz_coefficients_fft + xext_fft &#45;&gt; hext_fft">
<polygon fill="white" stroke="black" points="385.5,-114.5 385.5,-133.5 453.5,-133.5 453.5,-114.5 385.5,-114.5"/>
<text text-anchor="middle" x="419.5" y="-121.5" font-family="Helvetica,sans-Serif" font-size="10.00">fk20_msm</text>
</a>
</g>
</g>
<!-- Node1&#45;&gt;Node8 -->
<g id="edge7" class="edge">
<title>Node1&#45;&gt;Node8</title>
<path fill="none" stroke="midnightblue" d="M501.69,-110.81C486.41,-113.3 468.67,-116.18 453.68,-118.61"/>
<polygon fill="midnightblue" stroke="midnightblue" points="502.51,-114.23 511.82,-109.17 501.39,-107.32 502.51,-114.23"/>
</g>
<!-- Node9 -->
<g id="node9" class="node">
<title>Node9</title>
<g id="a_node9"><a xlink:href="fk20_8cuh.html#a4424c11ff3fd880896859776bc7449f7" target="_top" xlink:title="polynomial + xext_fft &#45;&gt; hext_fft">
<polygon fill="white" stroke="black" points="365.5,-76.5 365.5,-95.5 473.5,-95.5 473.5,-76.5 365.5,-76.5"/>
<text text-anchor="middle" x="419.5" y="-83.5" font-family="Helvetica,sans-Serif" font-size="10.00">fk20_poly2hext_fft</text>
</a>
</g>
</g>
<!-- Node1&#45;&gt;Node9 -->
<g id="edge8" class="edge">
<title>Node1&#45;&gt;Node9</title>
<path fill="none" stroke="midnightblue" d="M501.9,-99.22C493.08,-97.79 483.42,-96.22 473.95,-94.68"/>
<polygon fill="midnightblue" stroke="midnightblue" points="501.39,-102.68 511.82,-100.83 502.51,-95.77 501.39,-102.68"/>
</g>
<!-- Node14 -->
<g id="node14" class="node">
<title>Node14</title>
<g id="a_node14"><a xlink:href="fk20_8cu.html#ad9ea5b299631f609aa1cbfe0af74e1e3" target="_top" xlink:title="setup &#45;&gt; xext_fft">
<polygon fill="white" stroke="black" points="363,-38.5 363,-57.5 476,-57.5 476,-38.5 363,-38.5"/>
<text text-anchor="middle" x="419.5" y="-45.5" font-family="Helvetica,sans-Serif" font-size="10.00">fk20_setup2xext_fft</text>
</a>
</g>
</g>
<!-- Node1&#45;&gt;Node14 -->
<g id="edge14" class="edge">
<title>Node1&#45;&gt;Node14</title>
<path fill="none" stroke="midnightblue" d="M515.38,-89.66C503.97,-82.18 489.61,-73.43 476,-67 468.54,-63.47 460.25,-60.28 452.39,-57.55"/>
<polygon fill="midnightblue" stroke="midnightblue" points="513.58,-92.67 523.84,-95.32 517.47,-86.85 513.58,-92.67"/>
</g>
<!-- Node15 -->
<g id="node15" class="node">
<title>Node15</title>
<g id="a_node15"><a xlink:href="fft_test_8cu.html#a755fe88d1f2e30ac08bc4288de846c54" target="_top" xlink:title=" ">
<polygon fill="white" stroke="black" points="379,-0.5 379,-19.5 460,-19.5 460,-0.5 379,-0.5"/>
<text text-anchor="middle" x="419.5" y="-7.5" font-family="Helvetica,sans-Serif" font-size="10.00">unpackffttest</text>
</a>
</g>
</g>
<!-- Node1&#45;&gt;Node15 -->
<g id="edge15" class="edge">
<title>Node1&#45;&gt;Node15</title>
<path fill="none" stroke="midnightblue" d="M526.98,-86.8C516.2,-69.64 497.95,-44.35 476,-29 470.57,-25.21 464.33,-22.12 458.02,-19.61"/>
<polygon fill="midnightblue" stroke="midnightblue" points="524,-88.64 532.17,-95.38 529.99,-85.01 524,-88.64"/>
</g>
<!-- Node4 -->
<g id="node4" class="node">
<title>Node4</title>
<g id="a_node4"><a xlink:href="fk20test_8cuh.html#a6e91d377665333877b570b295e6ee017" target="_top" xlink:title="Test for fk20_hext_fft2h_fft: hext_fft &#45;&gt; h_fft.">
<polygon fill="white" stroke="black" points="220,-171.5 220,-190.5 302,-190.5 302,-171.5 220,-171.5"/>
<text text-anchor="middle" x="261" y="-178.5" font-family="Helvetica,sans-Serif" font-size="10.00">hext_fft2h_fft</text>
</a>
</g>
</g>
<!-- Node3&#45;&gt;Node4 -->
<g id="edge3" class="edge">
<title>Node3&#45;&gt;Node4</title>
<path fill="none" stroke="midnightblue" d="M354.37,-169.79C336.69,-171.93 318.01,-174.2 302.11,-176.13"/>
<polygon fill="midnightblue" stroke="midnightblue" points="355.14,-173.22 364.64,-168.54 354.29,-166.27 355.14,-173.22"/>
</g>
<!-- Node7 -->
<g id="node7" class="node">
<title>Node7</title>
<g id="a_node7"><a xlink:href="fk20__512test_8cu.html#adb9f3c1247f7f8e9273f99f4a545b57d" target="_top" xlink:title="Test for hext_fft2h_fft_512: hext_fft &#45;&gt; h_fft.">
<polygon fill="white" stroke="black" points="208.5,-133.5 208.5,-152.5 313.5,-152.5 313.5,-133.5 208.5,-133.5"/>
<text text-anchor="middle" x="261" y="-140.5" font-family="Helvetica,sans-Serif" font-size="10.00">hext_fft2h_fft_512</text>
</a>
</g>
</g>
<!-- Node3&#45;&gt;Node7 -->
<g id="edge6" class="edge">
<title>Node3&#45;&gt;Node7</title>
<path fill="none" stroke="midnightblue" d="M354.39,-154.22C340.81,-152.57 326.63,-150.85 313.58,-149.26"/>
<polygon fill="midnightblue" stroke="midnightblue" points="354.29,-157.73 364.64,-155.46 355.14,-150.78 354.29,-157.73"/>
</g>
<!-- Node5 -->
<g id="node5" class="node">
<title>Node5</title>
<g id="a_node5"><a xlink:href="fk20test_8cuh.html#a320efd4c0fb8e729400941e21ea983aa" target="_top" xlink:title=" ">
<polygon fill="white" stroke="black" points="79,-152.5 79,-171.5 157,-171.5 157,-152.5 79,-152.5"/>
<text text-anchor="middle" x="118" y="-159.5" font-family="Helvetica,sans-Serif" font-size="10.00">FK20TestFFT</text>
</a>
</g>
</g>
<!-- Node4&#45;&gt;Node5 -->
<g id="edge4" class="edge">
<title>Node4&#45;&gt;Node5</title>
<path fill="none" stroke="midnightblue" d="M209.99,-174.26C192.63,-171.92 173.44,-169.34 157.19,-167.15"/>
<polygon fill="midnightblue" stroke="midnightblue" points="209.59,-177.74 219.97,-175.61 210.53,-170.8 209.59,-177.74"/>
</g>
<!-- Node6 -->
<g id="node6" class="node">
<title>Node6</title>
<g id="a_node6"><a xlink:href="fk20test_8cu.html#ae66f6b31b5ad750f1fe042a706a4e3d4" target="_top" xlink:title=" ">
<polygon fill="white" stroke="black" points="0,-104.5 0,-123.5 41,-123.5 41,-104.5 0,-104.5"/>
<text text-anchor="middle" x="20.5" y="-111.5" font-family="Helvetica,sans-Serif" font-size="10.00">main</text>
</a>
</g>
</g>
<!-- Node5&#45;&gt;Node6 -->
<g id="edge5" class="edge">
<title>Node5&#45;&gt;Node6</title>
<path fill="none" stroke="midnightblue" d="M88.5,-147.68C72.98,-139.88 54.2,-130.43 40.47,-123.54"/>
<polygon fill="midnightblue" stroke="midnightblue" points="87.17,-150.92 97.67,-152.29 90.31,-144.67 87.17,-150.92"/>
</g>
<!-- Node10 -->
<g id="node10" class="node">
<title>Node10</title>
<g id="a_node10"><a xlink:href="fk20__512test_8cu.html#abbe0cf86817b32d0d441285f9e314799" target="_top" xlink:title="Test for fk20_poly2hext_fft: polynomial &#45;&gt; hext_fft.">
<polygon fill="white" stroke="black" points="195.5,-95.5 195.5,-114.5 326.5,-114.5 326.5,-95.5 195.5,-95.5"/>
<text text-anchor="middle" x="261" y="-102.5" font-family="Helvetica,sans-Serif" font-size="10.00">fk20_poly2hext_fft_512</text>
</a>
</g>
</g>
<!-- Node9&#45;&gt;Node10 -->
<g id="edge9" class="edge">
<title>Node9&#45;&gt;Node10</title>
<path fill="none" stroke="midnightblue" d="M355.03,-93.71C345.64,-94.85 335.95,-96.02 326.54,-97.16"/>
<polygon fill="midnightblue" stroke="midnightblue" points="355.57,-97.17 365.08,-92.49 354.73,-90.22 355.57,-97.17"/>
</g>
<!-- Node12 -->
<g id="node12" class="node">
<title>Node12</title>
<g id="a_node12"><a xlink:href="fk20test_8cuh.html#a63bc14300c47fa5f3a7b3c057ce76338" target="_top" xlink:title="Test for fk20_poly2hext_fft: polynomial &#45;&gt; hext_fft.">
<polygon fill="white" stroke="black" points="195,-57.5 195,-76.5 327,-76.5 327,-57.5 195,-57.5"/>
<text text-anchor="middle" x="261" y="-64.5" font-family="Helvetica,sans-Serif" font-size="10.00">fk20_poly2hext_fft_test</text>
</a>
</g>
</g>
<!-- Node9&#45;&gt;Node12 -->
<g id="edge11" class="edge">
<title>Node9&#45;&gt;Node12</title>
<path fill="none" stroke="midnightblue" d="M354.88,-78.28C345.72,-77.16 336.28,-76.02 327.09,-74.9"/>
<polygon fill="midnightblue" stroke="midnightblue" points="354.73,-81.78 365.08,-79.51 355.57,-74.83 354.73,-81.78"/>
</g>
<!-- Node11 -->
<g id="node11" class="node">
<title>Node11</title>
<g id="a_node11"><a xlink:href="fk20__512test_8cu.html#a3c04138a5bfe5d72780bb7e82a18e627" target="_top" xlink:title="Executes a many&#45;row tests on FK20. Behavior is similar to fk20test.cu but using many GPU blocks,...">
<polygon fill="white" stroke="black" points="97.5,-95.5 97.5,-114.5 138.5,-114.5 138.5,-95.5 97.5,-95.5"/>
<text text-anchor="middle" x="118" y="-102.5" font-family="Helvetica,sans-Serif" font-size="10.00">main</text>
</a>
</g>
</g>
<!-- Node10&#45;&gt;Node11 -->
<g id="edge10" class="edge">
<title>Node10&#45;&gt;Node11</title>
<path fill="none" stroke="midnightblue" d="M185.14,-105C167.93,-105 151.07,-105 138.67,-105"/>
<polygon fill="midnightblue" stroke="midnightblue" points="185.28,-108.5 195.28,-105 185.28,-101.5 185.28,-108.5"/>
</g>
<!-- Node13 -->
<g id="node13" class="node">
<title>Node13</title>
<g id="a_node13"><a xlink:href="fk20test_8cuh.html#a3f978e98c96e45785d60ed0d96689521" target="_top" xlink:title=" ">
<polygon fill="white" stroke="black" points="77,-57.5 77,-76.5 159,-76.5 159,-57.5 77,-57.5"/>
<text text-anchor="middle" x="118" y="-64.5" font-family="Helvetica,sans-Serif" font-size="10.00">FK20TestPoly</text>
</a>
</g>
</g>
<!-- Node12&#45;&gt;Node13 -->
<g id="edge12" class="edge">
<title>Node12&#45;&gt;Node13</title>
<path fill="none" stroke="midnightblue" d="M184.62,-67C175.9,-67 167.29,-67 159.3,-67"/>
<polygon fill="midnightblue" stroke="midnightblue" points="184.87,-70.5 194.87,-67 184.87,-63.5 184.87,-70.5"/>
</g>
<!-- Node13&#45;&gt;Node6 -->
<g id="edge13" class="edge">
<title>Node13&#45;&gt;Node6</title>
<path fill="none" stroke="midnightblue" d="M87.44,-80.94C83.92,-82.63 80.37,-84.35 77,-86 64.69,-92.03 50.94,-98.97 40.2,-104.43"/>
<polygon fill="midnightblue" stroke="midnightblue" points="89.09,-84.04 96.61,-76.57 86.07,-77.72 89.09,-84.04"/>
</g>
<!-- Node16 -->
<g id="node16" class="node">
<title>Node16</title>
<g id="a_node16"><a xlink:href="fft_test_8cu.html#a6021af9a8992140be7de3453b3eea060" target="_top" xlink:title=" ">
<polygon fill="white" stroke="black" points="234.5,-0.5 234.5,-19.5 287.5,-19.5 287.5,-0.5 234.5,-0.5"/>
<text text-anchor="middle" x="261" y="-7.5" font-family="Helvetica,sans-Serif" font-size="10.00">FFTTest</text>
</a>
</g>
</g>
<!-- Node15&#45;&gt;Node16 -->
<g id="edge16" class="edge">
<title>Node15&#45;&gt;Node16</title>
<path fill="none" stroke="midnightblue" d="M368.56,-10C341.61,-10 309.48,-10 287.6,-10"/>
<polygon fill="midnightblue" stroke="midnightblue" points="368.6,-13.5 378.6,-10 368.6,-6.5 368.6,-13.5"/>
</g>
<!-- Node17 -->
<g id="node17" class="node">
<title>Node17</title>
<g id="a_node17"><a xlink:href="fft_test_8cu.html#ae66f6b31b5ad750f1fe042a706a4e3d4" target="_top" xlink:title=" ">
<polygon fill="white" stroke="black" points="97.5,-0.5 97.5,-19.5 138.5,-19.5 138.5,-0.5 97.5,-0.5"/>
<text text-anchor="middle" x="118" y="-7.5" font-family="Helvetica,sans-Serif" font-size="10.00">main</text>
</a>
</g>
</g>
<!-- Node16&#45;&gt;Node17 -->
<g id="edge17" class="edge">
<title>Node16&#45;&gt;Node17</title>
<path fill="none" stroke="midnightblue" d="M224.22,-10C197.16,-10 160.99,-10 138.88,-10"/>
<polygon fill="midnightblue" stroke="midnightblue" points="224.47,-13.5 234.47,-10 224.47,-6.5 224.47,-13.5"/>
</g>
</g>
</svg>
        <g id="navigator" transform="translate(0 0)" fill="#404254">
                <rect fill="#f2f5e9" fill-opacity="0.5" stroke="#606060" stroke-width=".5" x="0" y="0" width="60" height="60"/>
                <use id="zoomplus" xlink:href="#zoomPlus" x="17" y="9" onmousedown="handleZoom(evt,'in')"/>
                <use id="zoomminus" xlink:href="#zoomMin" x="42" y="9" onmousedown="handleZoom(evt,'out')"/>
                <use id="reset" xlink:href="#resetDef" x="30" y="36" onmousedown="handleReset()"/>
                <g id="arrowUp" xlink:href="#dirArrow" transform="translate(30 24)" onmousedown="handlePan(0,-1)">
                  <use xlink:href="#rim" fill="#404040">
                        <set attributeName="fill" to="#808080" begin="arrowUp.mouseover" end="arrowUp.mouseout"/>
                  </use>
                  <path fill="none" stroke="white" stroke-width="1.5" d="M0,-3.0v7 M-2.5,-0.5L0,-3.0L2.5,-0.5"/>
                </g>
                <g id="arrowRight" xlink:href="#dirArrow" transform="rotate(90) translate(36 -43)" onmousedown="handlePan(1,0)">
                  <use xlink:href="#rim" fill="#404040">
                        <set attributeName="fill" to="#808080" begin="arrowRight.mouseover" end="arrowRight.mouseout"/>
                  </use>
                  <path fill="none" stroke="white" stroke-width="1.5" d="M0,-3.0v7 M-2.5,-0.5L0,-3.0L2.5,-0.5"/>
                </g>
                <g id="arrowDown" xlink:href="#dirArrow" transform="rotate(180) translate(-30 -48)" onmousedown="handlePan(0,1)">
                  <use xlink:href="#rim" fill="#404040">
                        <set attributeName="fill" to="#808080" begin="arrowDown.mouseover" end="arrowDown.mouseout"/>
                  </use>
                  <path fill="none" stroke="white" stroke-width="1.5" d="M0,-3.0v7 M-2.5,-0.5L0,-3.0L2.5,-0.5"/>
                </g>
                <g id="arrowLeft" xlink:href="#dirArrow" transform="rotate(270) translate(-36 17)" onmousedown="handlePan(-1,0)">
                  <use xlink:href="#rim" fill="#404040">
                        <set attributeName="fill" to="#808080" begin="arrowLeft.mouseover" end="arrowLeft.mouseout"/>
                  </use>
                  <path fill="none" stroke="white" stroke-width="1.5" d="M0,-3.0v7 M-2.5,-0.5L0,-3.0L2.5,-0.5"/>
                </g>
        </g>
        <svg viewBox="0 0 15 15" width="100%" height="30px" preserveAspectRatio="xMaxYMin meet">
         <g id="arrow_out" transform="scale(0.3 0.3)">
          <a xlink:href="g1_8cuh_a15fe76c5e38260582200a074d6507f2c_icgraph_org.svg" target="_base">
           <rect id="button" ry="5" rx="5" y="6" x="6" height="38" width="38"
                fill="#f2f5e9" fill-opacity="0.5" stroke="#606060" stroke-width="1.0"/>
           <path id="arrow"
             d="M 11.500037,31.436501 C 11.940474,20.09759 22.043105,11.32322 32.158766,21.979434 L 37.068811,17.246167 C 37.068811,17.246167 37.088388,32 37.088388,32 L 22.160133,31.978069 C 22.160133,31.978069 26.997745,27.140456 26.997745,27.140456 C 18.528582,18.264221 13.291696,25.230495 11.500037,31.436501 z"
             style="fill:#404040;"/>
          </a>
         </g>
        </svg>
</svg>
