<?xml version="1.0" encoding="UTF-8" standalone="no"?>
<!DOCTYPE svg PUBLIC "-//W3C//DTD SVG 1.1//EN"
 "http://www.w3.org/Graphics/SVG/1.1/DTD/svg11.dtd">
<!-- Generated by graphviz version 2.43.0 (0)
 -->
<!-- Title: g1.cuh Pages: 1 -->
<svg width="129pt" height="140pt"
 viewBox="0.00 0.00 128.79 140.00" xmlns="http://www.w3.org/2000/svg" xmlns:xlink="http://www.w3.org/1999/xlink">
<g id="graph0" class="graph" transform="scale(1 1) rotate(0) translate(4 136)">
<title>g1.cuh</title>
<polygon fill="white" stroke="transparent" points="-4,4 -4,-136 124.79,-136 124.79,4 -4,4"/>
<!-- Node1 -->
<g id="node1" class="node">
<title>Node1</title>
<g id="a_node1"><a xlink:title=" ">
<polygon fill="#bfbfbf" stroke="black" points="10.29,-112.5 10.29,-131.5 59.29,-131.5 59.29,-112.5 10.29,-112.5"/>
<text text-anchor="middle" x="34.79" y="-119.5" font-family="Helvetica,sans-Serif" font-size="10.00">g1.cuh</text>
</a>
</g>
</g>
<!-- Node2 -->
<g id="node2" class="node">
<title>Node2</title>
<g id="a_node2"><a xlink:title=" ">
<polygon fill="white" stroke="#bfbfbf" points="8.29,-0.5 8.29,-19.5 61.29,-19.5 61.29,-0.5 8.29,-0.5"/>
<text text-anchor="middle" x="34.79" y="-7.5" font-family="Helvetica,sans-Serif" font-size="10.00">stdint.h</text>
</a>
</g>
</g>
<!-- Node1&#45;&gt;Node2 -->
<g id="edge1" class="edge">
<title>Node1&#45;&gt;Node2</title>
<path fill="none" stroke="midnightblue" d="M25.77,-112.34C17.71,-103.93 6.49,-90.36 1.79,-76 -3.9,-58.64 7.32,-40.18 18.19,-27.39"/>
<polygon fill="midnightblue" stroke="midnightblue" points="20.91,-29.61 25.1,-19.87 15.76,-24.87 20.91,-29.61"/>
</g>
<!-- Node3 -->
<g id="node3" class="node">
<title>Node3</title>
<g id="a_node3"><a xlink:href="fp_8cuh.html" target="_top" xlink:title=" ">
<polygon fill="white" stroke="black" points="11.29,-56.5 11.29,-75.5 58.29,-75.5 58.29,-56.5 11.29,-56.5"/>
<text text-anchor="middle" x="34.79" y="-63.5" font-family="Helvetica,sans-Serif" font-size="10.00">fp.cuh</text>
</a>
</g>
</g>
<!-- Node1&#45;&gt;Node3 -->
<g id="edge2" class="edge">
<title>Node1&#45;&gt;Node3</title>
<path fill="none" stroke="midnightblue" d="M34.79,-112.08C34.79,-105.01 34.79,-94.86 34.79,-85.99"/>
<polygon fill="midnightblue" stroke="midnightblue" points="38.29,-85.75 34.79,-75.75 31.29,-85.75 38.29,-85.75"/>
</g>
<!-- Node4 -->
<g id="node4" class="node">
<title>Node4</title>
<g id="a_node4"><a xlink:href="fr_8cuh.html" target="_top" xlink:title=" ">
<polygon fill="white" stroke="black" points="76.79,-56.5 76.79,-75.5 120.79,-75.5 120.79,-56.5 76.79,-56.5"/>
<text text-anchor="middle" x="98.79" y="-63.5" font-family="Helvetica,sans-Serif" font-size="10.00">fr.cuh</text>
</a>
</g>
</g>
<!-- Node1&#45;&gt;Node4 -->
<g id="edge4" class="edge">
<title>Node1&#45;&gt;Node4</title>
<path fill="none" stroke="midnightblue" d="M45.07,-112.32C54.62,-104.26 69.07,-92.08 80.57,-82.37"/>
<polygon fill="midnightblue" stroke="midnightblue" points="82.93,-84.96 88.32,-75.83 78.42,-79.61 82.93,-84.96"/>
</g>
<!-- Node3&#45;&gt;Node2 -->
<g id="edge3" class="edge">
<title>Node3&#45;&gt;Node2</title>
<path fill="none" stroke="midnightblue" d="M34.79,-56.08C34.79,-49.01 34.79,-38.86 34.79,-29.99"/>
<polygon fill="midnightblue" stroke="midnightblue" points="38.29,-29.75 34.79,-19.75 31.29,-29.75 38.29,-29.75"/>
</g>
<!-- Node4&#45;&gt;Node2 -->
<g id="edge5" class="edge">
<title>Node4&#45;&gt;Node2</title>
<path fill="none" stroke="midnightblue" d="M88.5,-56.32C78.95,-48.26 64.51,-36.08 53,-26.37"/>
<polygon fill="midnightblue" stroke="midnightblue" points="55.16,-23.61 45.26,-19.83 50.64,-28.96 55.16,-23.61"/>
</g>
</g>
</svg>
