<?xml version="1.0" encoding="UTF-8" standalone="no"?>
<!DOCTYPE svg PUBLIC "-//W3C//DTD SVG 1.1//EN"
 "http://www.w3.org/Graphics/SVG/1.1/DTD/svg11.dtd">
<!-- Generated by graphviz version 2.43.0 (0)
 -->
<!-- Title: g1p_fft Pages: 1 -->
<svg width="597pt" height="408pt"
 viewBox="0.00 0.00 597.00 408.00" xmlns="http://www.w3.org/2000/svg" xmlns:xlink="http://www.w3.org/1999/xlink">
<g id="graph0" class="graph" transform="scale(1 1) rotate(0) translate(4 404)">
<title>g1p_fft</title>
<polygon fill="white" stroke="transparent" points="-4,4 -4,-404 593,-404 593,4 -4,4"/>
<!-- Node1 -->
<g id="node1" class="node">
<title>Node1</title>
<g id="a_node1"><a xlink:title="FFT of size 512 over G1 with projective coordinates. Input and output arrays may overlap....">
<polygon fill="#bfbfbf" stroke="black" points="539,-190.5 539,-209.5 589,-209.5 589,-190.5 539,-190.5"/>
<text text-anchor="middle" x="564" y="-197.5" font-family="Helvetica,sans-Serif" font-size="10.00">g1p_fft</text>
</a>
</g>
</g>
<!-- Node2 -->
<g id="node2" class="node">
<title>Node2</title>
<g id="a_node2"><a xlink:href="fk20_8cu.html#ae57127876663f7b7e4870baa8e9c601e" target="_top" xlink:title="h &#45;&gt; h_fft">
<polygon fill="white" stroke="black" points="408,-323.5 408,-342.5 485,-342.5 485,-323.5 408,-323.5"/>
<text text-anchor="middle" x="446.5" y="-330.5" font-family="Helvetica,sans-Serif" font-size="10.00">fk20_h2h_fft</text>
</a>
</g>
</g>
<!-- Node1&#45;&gt;Node2 -->
<g id="edge1" class="edge">
<title>Node1&#45;&gt;Node2</title>
<path fill="none" stroke="midnightblue" d="M557.6,-219.71C549.7,-245.01 532.6,-288.66 503,-314 497.82,-318.44 491.55,-321.85 485.11,-324.48"/>
<polygon fill="midnightblue" stroke="midnightblue" points="561.05,-220.38 560.52,-209.8 554.34,-218.41 561.05,-220.38"/>
</g>
<!-- Node3 -->
<g id="node3" class="node">
<title>Node3</title>
<g id="a_node3"><a xlink:href="fk20_8cuh.html#ab86790c4888c05259b0f76570d7cbfc4" target="_top" xlink:title="hext_fft &#45;&gt; h_fft">
<polygon fill="white" stroke="black" points="392,-285.5 392,-304.5 501,-304.5 501,-285.5 392,-285.5"/>
<text text-anchor="middle" x="446.5" y="-292.5" font-family="Helvetica,sans-Serif" font-size="10.00">fk20_hext_fft2h_fft</text>
</a>
</g>
</g>
<!-- Node1&#45;&gt;Node3 -->
<g id="edge2" class="edge">
<title>Node1&#45;&gt;Node3</title>
<path fill="none" stroke="midnightblue" d="M543.25,-216.24C519.08,-236.13 478.93,-269.15 459.19,-285.39"/>
<polygon fill="midnightblue" stroke="midnightblue" points="545.57,-218.86 551.07,-209.81 541.13,-213.46 545.57,-218.86"/>
</g>
<!-- Node8 -->
<g id="node8" class="node">
<title>Node8</title>
<g id="a_node8"><a xlink:href="fk20_8cu.html#ad9ea5b299631f609aa1cbfe0af74e1e3" target="_top" xlink:title="setup &#45;&gt; xext_fft">
<polygon fill="white" stroke="black" points="390,-152.5 390,-171.5 503,-171.5 503,-152.5 390,-152.5"/>
<text text-anchor="middle" x="446.5" y="-159.5" font-family="Helvetica,sans-Serif" font-size="10.00">fk20_setup2xext_fft</text>
</a>
</g>
</g>
<!-- Node1&#45;&gt;Node8 -->
<g id="edge7" class="edge">
<title>Node1&#45;&gt;Node8</title>
<path fill="none" stroke="midnightblue" d="M528.91,-188.78C512.28,-183.31 492.49,-176.8 476.59,-171.57"/>
<polygon fill="midnightblue" stroke="midnightblue" points="528.19,-192.23 538.79,-192.03 530.38,-185.58 528.19,-192.23"/>
</g>
<!-- Node9 -->
<g id="node9" class="node">
<title>Node9</title>
<g id="a_node9"><a xlink:href="fk20test__kat_8cu.html#aa089930801a6a86e41049da9bb54f1c9" target="_top" xlink:title=" ">
<polygon fill="white" stroke="black" points="404,-114.5 404,-133.5 489,-133.5 489,-114.5 404,-114.5"/>
<text text-anchor="middle" x="446.5" y="-121.5" font-family="Helvetica,sans-Serif" font-size="10.00">FK20TimeKAT</text>
</a>
</g>
</g>
<!-- Node1&#45;&gt;Node9 -->
<g id="edge8" class="edge">
<title>Node1&#45;&gt;Node9</title>
<path fill="none" stroke="midnightblue" d="M548.46,-182.64C537.17,-170.12 520.54,-153.63 503,-143 496.82,-139.25 489.79,-136.12 482.87,-133.56"/>
<polygon fill="midnightblue" stroke="midnightblue" points="545.84,-184.96 555.06,-190.19 551.11,-180.36 545.84,-184.96"/>
</g>
<!-- Node10 -->
<g id="node10" class="node">
<title>Node10</title>
<g id="a_node10"><a xlink:href="g1_8cuh.html#a2541358351ce3857143d05acd83cf14f" target="_top" xlink:title="wrapper for g1p_fft: FFT for arrays of g1p_t with length 512">
<polygon fill="white" stroke="black" points="399,-190.5 399,-209.5 494,-209.5 494,-190.5 399,-190.5"/>
<text text-anchor="middle" x="446.5" y="-197.5" font-family="Helvetica,sans-Serif" font-size="10.00">g1p_fft_wrapper</text>
</a>
</g>
</g>
<!-- Node1&#45;&gt;Node10 -->
<g id="edge9" class="edge">
<title>Node1&#45;&gt;Node10</title>
<path fill="none" stroke="midnightblue" d="M528.49,-200C517.68,-200 505.57,-200 494.08,-200"/>
<polygon fill="midnightblue" stroke="midnightblue" points="528.79,-203.5 538.79,-200 528.79,-196.5 528.79,-203.5"/>
</g>
<!-- Node4 -->
<g id="node4" class="node">
<title>Node4</title>
<g id="a_node4"><a xlink:href="fk20test_8cuh.html#a6e91d377665333877b570b295e6ee017" target="_top" xlink:title="Test for fk20_hext_fft2h_fft: hext_fft &#45;&gt; h_fft.">
<polygon fill="white" stroke="black" points="258,-380.5 258,-399.5 340,-399.5 340,-380.5 258,-380.5"/>
<text text-anchor="middle" x="299" y="-387.5" font-family="Helvetica,sans-Serif" font-size="10.00">hext_fft2h_fft</text>
</a>
</g>
</g>
<!-- Node3&#45;&gt;Node4 -->
<g id="edge3" class="edge">
<title>Node3&#45;&gt;Node4</title>
<path fill="none" stroke="midnightblue" d="M397.33,-309.07C394.75,-310.56 392.28,-312.19 390,-314 366.49,-332.58 377.43,-352.33 354,-371 349.18,-374.84 343.53,-377.94 337.73,-380.42"/>
<polygon fill="midnightblue" stroke="midnightblue" points="399.02,-312.14 406.44,-304.57 395.92,-305.86 399.02,-312.14"/>
</g>
<!-- Node7 -->
<g id="node7" class="node">
<title>Node7</title>
<g id="a_node7"><a xlink:href="fk20__512test_8cu.html#adb9f3c1247f7f8e9273f99f4a545b57d" target="_top" xlink:title="Test for hext_fft2h_fft_512: hext_fft &#45;&gt; h_fft.">
<polygon fill="white" stroke="black" points="246.5,-342.5 246.5,-361.5 351.5,-361.5 351.5,-342.5 246.5,-342.5"/>
<text text-anchor="middle" x="299" y="-349.5" font-family="Helvetica,sans-Serif" font-size="10.00">hext_fft2h_fft_512</text>
</a>
</g>
</g>
<!-- Node3&#45;&gt;Node7 -->
<g id="edge6" class="edge">
<title>Node3&#45;&gt;Node7</title>
<path fill="none" stroke="midnightblue" d="M405.14,-307.99C400,-309.89 394.84,-311.91 390,-314 373.39,-321.17 370.58,-325.76 354,-333 346.26,-336.38 337.71,-339.61 329.73,-342.42"/>
<polygon fill="midnightblue" stroke="midnightblue" points="406.68,-311.16 414.93,-304.51 404.34,-304.56 406.68,-311.16"/>
</g>
<!-- Node5 -->
<g id="node5" class="node">
<title>Node5</title>
<g id="a_node5"><a xlink:href="fk20test_8cuh.html#a320efd4c0fb8e729400941e21ea983aa" target="_top" xlink:title=" ">
<polygon fill="white" stroke="black" points="103.5,-304.5 103.5,-323.5 181.5,-323.5 181.5,-304.5 103.5,-304.5"/>
<text text-anchor="middle" x="142.5" y="-311.5" font-family="Helvetica,sans-Serif" font-size="10.00">FK20TestFFT</text>
</a>
</g>
</g>
<!-- Node4&#45;&gt;Node5 -->
<g id="edge4" class="edge">
<title>Node4&#45;&gt;Node5</title>
<path fill="none" stroke="midnightblue" d="M258.5,-377.02C253.57,-375.13 248.63,-373.11 244,-371 212.42,-356.62 177.62,-335.65 158.38,-323.56"/>
<polygon fill="midnightblue" stroke="midnightblue" points="257.32,-380.32 267.92,-380.48 259.74,-373.75 257.32,-380.32"/>
</g>
<!-- Node6 -->
<g id="node6" class="node">
<title>Node6</title>
<g id="a_node6"><a xlink:href="fk20test_8cu.html#ae66f6b31b5ad750f1fe042a706a4e3d4" target="_top" xlink:title=" ">
<polygon fill="white" stroke="black" points="0,-285.5 0,-304.5 41,-304.5 41,-285.5 0,-285.5"/>
<text text-anchor="middle" x="20.5" y="-292.5" font-family="Helvetica,sans-Serif" font-size="10.00">main</text>
</a>
</g>
</g>
<!-- Node5&#45;&gt;Node6 -->
<g id="edge5" class="edge">
<title>Node5&#45;&gt;Node6</title>
<path fill="none" stroke="midnightblue" d="M93.24,-306.36C74.96,-303.46 55.16,-300.33 41,-298.09"/>
<polygon fill="midnightblue" stroke="midnightblue" points="92.78,-309.83 103.2,-307.94 93.87,-302.92 92.78,-309.83"/>
</g>
<!-- Node11 -->
<g id="node11" class="node">
<title>Node11</title>
<g id="a_node11"><a xlink:href="fk20_8cuh.html#a428f2dcc8b77723e4def6f684f790ceb" target="_top" xlink:title="polynomial + xext_fft &#45;&gt; h_fft This function is a wrapper for the full FK20 computation,...">
<polygon fill="white" stroke="black" points="253,-190.5 253,-209.5 345,-209.5 345,-190.5 253,-190.5"/>
<text text-anchor="middle" x="299" y="-197.5" font-family="Helvetica,sans-Serif" font-size="10.00">fk20_poly2h_fft</text>
</a>
</g>
</g>
<!-- Node10&#45;&gt;Node11 -->
<g id="edge10" class="edge">
<title>Node10&#45;&gt;Node11</title>
<path fill="none" stroke="midnightblue" d="M388.42,-200C374.09,-200 358.92,-200 345.26,-200"/>
<polygon fill="midnightblue" stroke="midnightblue" points="388.66,-203.5 398.66,-200 388.66,-196.5 388.66,-203.5"/>
</g>
<!-- Node14 -->
<g id="node14" class="node">
<title>Node14</title>
<g id="a_node14"><a xlink:href="fk20test_8cuh.html#a219d5d803685ea0067dfa4908a620e11" target="_top" xlink:title=" ">
<polygon fill="white" stroke="black" points="273,-266.5 273,-285.5 325,-285.5 325,-266.5 273,-266.5"/>
<text text-anchor="middle" x="299" y="-273.5" font-family="Helvetica,sans-Serif" font-size="10.00">fullTest</text>
</a>
</g>
</g>
<!-- Node10&#45;&gt;Node14 -->
<g id="edge13" class="edge">
<title>Node10&#45;&gt;Node14</title>
<path fill="none" stroke="midnightblue" d="M423.47,-215.64C405.4,-227.99 378.85,-245.06 354,-257 344.86,-261.39 334.43,-265.3 325.19,-268.41"/>
<polygon fill="midnightblue" stroke="midnightblue" points="425.86,-218.24 432.09,-209.67 421.87,-212.49 425.86,-218.24"/>
</g>
<!-- Node16 -->
<g id="node16" class="node">
<title>Node16</title>
<g id="a_node16"><a xlink:href="fk20__512test_8cu.html#a4de6443d77d1c56d1d49715061ba60db" target="_top" xlink:title="Executes many FK20 computations on a single row, with a check on each step. A computation failure wil...">
<polygon fill="white" stroke="black" points="105,-152.5 105,-171.5 180,-171.5 180,-152.5 105,-152.5"/>
<text text-anchor="middle" x="142.5" y="-159.5" font-family="Helvetica,sans-Serif" font-size="10.00">fullTest_512</text>
</a>
</g>
</g>
<!-- Node10&#45;&gt;Node16 -->
<g id="edge16" class="edge">
<title>Node10&#45;&gt;Node16</title>
<path fill="none" stroke="midnightblue" d="M394.81,-188.39C381.58,-185.66 367.3,-182.97 354,-181 293.39,-172 222.28,-166.66 180.16,-164.03"/>
<polygon fill="midnightblue" stroke="midnightblue" points="394.18,-191.84 404.69,-190.48 395.62,-184.99 394.18,-191.84"/>
</g>
<!-- Node17 -->
<g id="node17" class="node">
<title>Node17</title>
<g id="a_node17"><a xlink:href="fk20__512test_8cu.html#a537be6501bbccff0654c4ca1b2fd83ae" target="_top" xlink:title="Similar to fullTest, but polynomial is has changes done to it. The function checks for false&#45;positive...">
<polygon fill="white" stroke="black" points="77,-114.5 77,-133.5 208,-133.5 208,-114.5 77,-114.5"/>
<text text-anchor="middle" x="142.5" y="-121.5" font-family="Helvetica,sans-Serif" font-size="10.00">fullTestFalseability_512</text>
</a>
</g>
</g>
<!-- Node10&#45;&gt;Node17 -->
<g id="edge18" class="edge">
<title>Node10&#45;&gt;Node17</title>
<path fill="none" stroke="midnightblue" d="M406,-187.08C400.59,-185.14 395.13,-183.08 390,-181 373.6,-174.35 370.83,-169.47 354,-164 306.24,-148.47 250.32,-138.19 208.12,-131.95"/>
<polygon fill="midnightblue" stroke="midnightblue" points="405.01,-190.45 415.61,-190.45 407.33,-183.84 405.01,-190.45"/>
</g>
<!-- Node18 -->
<g id="node18" class="node">
<title>Node18</title>
<g id="a_node18"><a xlink:href="fk20test_8cuh.html#a8d2cfb1e9fc0723c345460c7ad438df1" target="_top" xlink:title=" ">
<polygon fill="white" stroke="black" points="244,-228.5 244,-247.5 354,-247.5 354,-228.5 244,-228.5"/>
<text text-anchor="middle" x="299" y="-235.5" font-family="Helvetica,sans-Serif" font-size="10.00">fullTestFalsifiability</text>
</a>
</g>
</g>
<!-- Node10&#45;&gt;Node18 -->
<g id="edge20" class="edge">
<title>Node10&#45;&gt;Node18</title>
<path fill="none" stroke="midnightblue" d="M398.85,-212.18C378.65,-217.46 355.35,-223.54 336.45,-228.48"/>
<polygon fill="midnightblue" stroke="midnightblue" points="399.99,-215.5 408.78,-209.59 398.22,-208.73 399.99,-215.5"/>
</g>
<!-- Node19 -->
<g id="node19" class="node">
<title>Node19</title>
<g id="a_node19"><a xlink:href="g1test_8cuh.html#af69268816d41d8e3c477c70066f7bfcf" target="_top" xlink:title="Test for FFT and IFFT of points on the G1 curve. Checks self consistency with the following propertie...">
<polygon fill="white" stroke="black" points="265.5,-38.5 265.5,-57.5 332.5,-57.5 332.5,-38.5 265.5,-38.5"/>
<text text-anchor="middle" x="299" y="-45.5" font-family="Helvetica,sans-Serif" font-size="10.00">G1TestFFT</text>
</a>
</g>
</g>
<!-- Node10&#45;&gt;Node19 -->
<g id="edge22" class="edge">
<title>Node10&#45;&gt;Node19</title>
<path fill="none" stroke="midnightblue" d="M394.68,-185.07C393.02,-183.82 391.45,-182.47 390,-181 354.12,-144.73 388.24,-109.82 354,-72 348.22,-65.61 340.41,-60.83 332.54,-57.29"/>
<polygon fill="midnightblue" stroke="midnightblue" points="393.23,-188.28 403.59,-190.48 396.86,-182.3 393.23,-188.28"/>
</g>
<!-- Node21 -->
<g id="node21" class="node">
<title>Node21</title>
<g id="a_node21"><a xlink:href="fk20test_8cuh.html#a46da7589b1c0420a0b16d8b3216d7be9" target="_top" xlink:title="Test for g1p_fft: h &#45;&gt; h_fft.">
<polygon fill="white" stroke="black" points="274,-304.5 274,-323.5 324,-323.5 324,-304.5 274,-304.5"/>
<text text-anchor="middle" x="299" y="-311.5" font-family="Helvetica,sans-Serif" font-size="10.00">h2h_fft</text>
</a>
</g>
</g>
<!-- Node10&#45;&gt;Node21 -->
<g id="edge24" class="edge">
<title>Node10&#45;&gt;Node21</title>
<path fill="none" stroke="midnightblue" d="M432.48,-217.93C416.26,-239.07 386.7,-273.98 354,-295 344.97,-300.8 333.95,-305.09 324.22,-308.11"/>
<polygon fill="midnightblue" stroke="midnightblue" points="435.38,-219.89 438.57,-209.79 429.78,-215.69 435.38,-219.89"/>
</g>
<!-- Node22 -->
<g id="node22" class="node">
<title>Node22</title>
<g id="a_node22"><a xlink:href="fk20__512test_8cu.html#a5557a90ff06e60795ad4bae5c7ccc262" target="_top" xlink:title="Test for g1p_fft: h &#45;&gt; h_fft&quot;.">
<polygon fill="white" stroke="black" points="105.5,-76.5 105.5,-95.5 179.5,-95.5 179.5,-76.5 105.5,-76.5"/>
<text text-anchor="middle" x="142.5" y="-83.5" font-family="Helvetica,sans-Serif" font-size="10.00">h2h_fft_512</text>
</a>
</g>
</g>
<!-- Node10&#45;&gt;Node22 -->
<g id="edge26" class="edge">
<title>Node10&#45;&gt;Node22</title>
<path fill="none" stroke="midnightblue" d="M398.46,-186.19C395.5,-184.63 392.65,-182.9 390,-181 368.64,-165.64 376.14,-148.21 354,-134 300.06,-99.38 224.26,-89.59 179.87,-86.91"/>
<polygon fill="midnightblue" stroke="midnightblue" points="397.05,-189.39 407.6,-190.39 399.98,-183.03 397.05,-189.39"/>
</g>
<!-- Node23 -->
<g id="node23" class="node">
<title>Node23</title>
<g id="a_node23"><a xlink:href="fk20benchmark_8cu.html#a8cd0ecc09d4a9a4c418184789229b4f6" target="_top" xlink:title="Executes a test of FK20 with one block for each row. At the end, compare if the calculated h_fft is t...">
<polygon fill="white" stroke="black" points="258,-0.5 258,-19.5 340,-19.5 340,-0.5 258,-0.5"/>
<text text-anchor="middle" x="299" y="-7.5" font-family="Helvetica,sans-Serif" font-size="10.00">preBenchTest</text>
</a>
</g>
</g>
<!-- Node10&#45;&gt;Node23 -->
<g id="edge28" class="edge">
<title>Node10&#45;&gt;Node23</title>
<path fill="none" stroke="midnightblue" d="M393.87,-184.7C392.5,-183.55 391.2,-182.32 390,-181 343.35,-129.58 400.43,-80.62 354,-29 350.15,-24.71 345.27,-21.4 340.02,-18.82"/>
<polygon fill="midnightblue" stroke="midnightblue" points="392.17,-187.77 402.44,-190.36 396.03,-181.93 392.17,-187.77"/>
</g>
<!-- Node12 -->
<g id="node12" class="node">
<title>Node12</title>
<g id="a_node12"><a xlink:href="fk20__512test_8cu.html#a30719348d219c529d6b43175cecd8427" target="_top" xlink:title="Test for fk20_poly2h_fft: polynomial &#45;&gt; h_fft.">
<polygon fill="white" stroke="black" points="84.5,-190.5 84.5,-209.5 200.5,-209.5 200.5,-190.5 84.5,-190.5"/>
<text text-anchor="middle" x="142.5" y="-197.5" font-family="Helvetica,sans-Serif" font-size="10.00">fk20_poly2h_fft_512</text>
</a>
</g>
</g>
<!-- Node11&#45;&gt;Node12 -->
<g id="edge11" class="edge">
<title>Node11&#45;&gt;Node12</title>
<path fill="none" stroke="midnightblue" d="M242.71,-200C229.09,-200 214.48,-200 200.77,-200"/>
<polygon fill="midnightblue" stroke="midnightblue" points="242.9,-203.5 252.9,-200 242.9,-196.5 242.9,-203.5"/>
</g>
<!-- Node13 -->
<g id="node13" class="node">
<title>Node13</title>
<g id="a_node13"><a xlink:href="fk20__512test_8cu.html#a3c04138a5bfe5d72780bb7e82a18e627" target="_top" xlink:title="Executes a many&#45;row tests on FK20. Behavior is similar to fk20test.cu but using many GPU blocks,...">
<polygon fill="white" stroke="black" points="0,-133.5 0,-152.5 41,-152.5 41,-133.5 0,-133.5"/>
<text text-anchor="middle" x="20.5" y="-140.5" font-family="Helvetica,sans-Serif" font-size="10.00">main</text>
</a>
</g>
</g>
<!-- Node12&#45;&gt;Node13 -->
<g id="edge12" class="edge">
<title>Node12&#45;&gt;Node13</title>
<path fill="none" stroke="midnightblue" d="M92.38,-187.3C87.1,-185.42 81.88,-183.32 77,-181 60.76,-173.28 43.97,-161.1 33.17,-152.62"/>
<polygon fill="midnightblue" stroke="midnightblue" points="91.29,-190.63 101.88,-190.46 93.5,-183.99 91.29,-190.63"/>
</g>
<!-- Node15 -->
<g id="node15" class="node">
<title>Node15</title>
<g id="a_node15"><a xlink:href="fk20test_8cuh.html#a3f978e98c96e45785d60ed0d96689521" target="_top" xlink:title=" ">
<polygon fill="white" stroke="black" points="101.5,-266.5 101.5,-285.5 183.5,-285.5 183.5,-266.5 101.5,-266.5"/>
<text text-anchor="middle" x="142.5" y="-273.5" font-family="Helvetica,sans-Serif" font-size="10.00">FK20TestPoly</text>
</a>
</g>
</g>
<!-- Node14&#45;&gt;Node15 -->
<g id="edge14" class="edge">
<title>Node14&#45;&gt;Node15</title>
<path fill="none" stroke="midnightblue" d="M262.6,-276C239.1,-276 208.19,-276 183.75,-276"/>
<polygon fill="midnightblue" stroke="midnightblue" points="262.83,-279.5 272.83,-276 262.83,-272.5 262.83,-279.5"/>
</g>
<!-- Node15&#45;&gt;Node6 -->
<g id="edge15" class="edge">
<title>Node15&#45;&gt;Node6</title>
<path fill="none" stroke="midnightblue" d="M91,-284C73.35,-286.79 54.58,-289.76 41,-291.91"/>
<polygon fill="midnightblue" stroke="midnightblue" points="91.88,-287.4 101.21,-282.38 90.78,-280.49 91.88,-287.4"/>
</g>
<!-- Node16&#45;&gt;Node13 -->
<g id="edge17" class="edge">
<title>Node16&#45;&gt;Node13</title>
<path fill="none" stroke="midnightblue" d="M94.74,-154.6C76.14,-151.65 55.75,-148.42 41.21,-146.12"/>
<polygon fill="midnightblue" stroke="midnightblue" points="94.42,-158.09 104.84,-156.2 95.51,-151.18 94.42,-158.09"/>
</g>
<!-- Node17&#45;&gt;Node13 -->
<g id="edge19" class="edge">
<title>Node17&#45;&gt;Node13</title>
<path fill="none" stroke="midnightblue" d="M71.02,-135.16C60.09,-136.89 49.64,-138.54 41.18,-139.88"/>
<polygon fill="midnightblue" stroke="midnightblue" points="71.82,-138.58 81.15,-133.56 70.72,-131.66 71.82,-138.58"/>
</g>
<!-- Node18&#45;&gt;Node15 -->
<g id="edge21" class="edge">
<title>Node18&#45;&gt;Node15</title>
<path fill="none" stroke="midnightblue" d="M249.05,-250.04C227.46,-255.35 202.46,-261.5 182.21,-266.48"/>
<polygon fill="midnightblue" stroke="midnightblue" points="250.14,-253.38 259.01,-247.59 248.47,-246.58 250.14,-253.38"/>
</g>
<!-- Node20 -->
<g id="node20" class="node">
<title>Node20</title>
<g id="a_node20"><a xlink:href="g1test_8cu.html#a3c04138a5bfe5d72780bb7e82a18e627" target="_top" xlink:title="Test for points in G1.">
<polygon fill="white" stroke="black" points="122,-38.5 122,-57.5 163,-57.5 163,-38.5 122,-38.5"/>
<text text-anchor="middle" x="142.5" y="-45.5" font-family="Helvetica,sans-Serif" font-size="10.00">main</text>
</a>
</g>
</g>
<!-- Node19&#45;&gt;Node20 -->
<g id="edge23" class="edge">
<title>Node19&#45;&gt;Node20</title>
<path fill="none" stroke="midnightblue" d="M254.98,-48C224.85,-48 186.02,-48 163.04,-48"/>
<polygon fill="midnightblue" stroke="midnightblue" points="255.23,-51.5 265.23,-48 255.23,-44.5 255.23,-51.5"/>
</g>
<!-- Node21&#45;&gt;Node5 -->
<g id="edge25" class="edge">
<title>Node21&#45;&gt;Node5</title>
<path fill="none" stroke="midnightblue" d="M263.66,-314C239.34,-314 206.71,-314 181.59,-314"/>
<polygon fill="midnightblue" stroke="midnightblue" points="263.86,-317.5 273.86,-314 263.86,-310.5 263.86,-317.5"/>
</g>
<!-- Node22&#45;&gt;Node13 -->
<g id="edge27" class="edge">
<title>Node22&#45;&gt;Node13</title>
<path fill="none" stroke="midnightblue" d="M95.42,-97.64C89.11,-99.79 82.81,-102.24 77,-105 60.76,-112.72 43.97,-124.9 33.17,-133.38"/>
<polygon fill="midnightblue" stroke="midnightblue" points="96.8,-100.87 105.27,-94.51 94.68,-94.2 96.8,-100.87"/>
</g>
</g>
</svg>
