<?xml version="1.0" encoding="UTF-8" standalone="no"?>
<!DOCTYPE svg PUBLIC "-//W3C//DTD SVG 1.1//EN"
 "http://www.w3.org/Graphics/SVG/1.1/DTD/svg11.dtd">
<!-- Generated by graphviz version 2.43.0 (0)
 -->
<!-- Title: g1p_cpy Pages: 1 -->
<!--zoomable 559 -->
<svg id="main" version="1.1" xmlns="http://www.w3.org/2000/svg" xmlns:xlink="http://www.w3.org/1999/xlink" xml:space="preserve" onload="init(evt)">
<style type="text/css"><![CDATA[
.edge:hover path { stroke: red; }
.edge:hover polygon { stroke: red; fill: red; }
]]></style>
<script type="text/javascript"><![CDATA[
var edges = document.getElementsByTagName('g');
if (edges && edges.length) {
  for (var i=0;i<edges.length;i++) {
    if (edges[i].id.substr(0,4)=='edge') {
      edges[i].setAttribute('class','edge');
    }
  }
}
]]></script>
        <defs>
                <circle id="rim" cx="0" cy="0" r="7"/>
                <circle id="rim2" cx="0" cy="0" r="3.5"/>
                <g id="zoomPlus">
                        <use xlink:href="#rim" fill="#404040">
                                <set attributeName="fill" to="#808080" begin="zoomplus.mouseover" end="zoomplus.mouseout"/>
                        </use>
                        <path d="M-4,0h8M0,-4v8" fill="none" stroke="white" stroke-width="1.5" pointer-events="none"/>
                </g>
                <g id="zoomMin">
                        <use xlink:href="#rim" fill="#404040">
                                <set attributeName="fill" to="#808080" begin="zoomminus.mouseover" end="zoomminus.mouseout"/>
                        </use>
                        <path d="M-4,0h8" fill="none" stroke="white" stroke-width="1.5" pointer-events="none"/>
                </g>
                <g id="dirArrow">
                        <path fill="none" stroke="white" stroke-width="1.5" d="M0,-3.0v7 M-2.5,-0.5L0,-3.0L2.5,-0.5"/>
                </g>
               <g id="resetDef">
                       <use xlink:href="#rim2" fill="#404040">
                               <set attributeName="fill" to="#808080" begin="reset.mouseover" end="reset.mouseout"/>
                       </use>
               </g>
        </defs>

<script type="text/javascript">
var viewWidth = 749;
var viewHeight = 559;
var sectionId = 'dynsection-4';
</script>
<script xlink:href="svgpan.js"/>
<svg id="graph" class="graph">
<g id="viewport">
<title>g1p_cpy</title>
<polygon fill="white" stroke="transparent" points="-4,4 -4,-554.61 745,-554.61 745,4 -4,4"/>
<!-- Node1 -->
<g id="node1" class="node">
<title>Node1</title>
<g id="a_node1"><a xlink:title="Copy from q into p.">
<polygon fill="#bfbfbf" stroke="black" points="684,-304.5 684,-323.5 741,-323.5 741,-304.5 684,-304.5"/>
<text text-anchor="middle" x="712.5" y="-311.5" font-family="Helvetica,sans-Serif" font-size="10.00">g1p_cpy</text>
</a>
</g>
</g>
<!-- Node2 -->
<g id="node2" class="node">
<title>Node2</title>
<g id="a_node2"><a xlink:href="fk20_8cuh.html#a29747b9a4d2253c1fbb59c46dba78aea" target="_top" xlink:title="toeplitz_coefficients_fft + xext_fft &#45;&gt; hext_fft">
<polygon fill="white" stroke="black" points="562.5,-399.5 562.5,-418.5 630.5,-418.5 630.5,-399.5 562.5,-399.5"/>
<text text-anchor="middle" x="596.5" y="-406.5" font-family="Helvetica,sans-Serif" font-size="10.00">fk20_msm</text>
</a>
</g>
</g>
<!-- Node1&#45;&gt;Node2 -->
<g id="edge1" class="edge">
<title>Node1&#45;&gt;Node2</title>
<path fill="none" stroke="midnightblue" d="M698.57,-332.13C686.77,-347.69 668.14,-369.93 648,-385 640.31,-390.76 631.01,-395.65 622.5,-399.49"/>
<polygon fill="midnightblue" stroke="midnightblue" points="701.57,-333.97 704.69,-323.85 695.93,-329.81 701.57,-333.97"/>
</g>
<!-- Node3 -->
<g id="node3" class="node">
<title>Node3</title>
<g id="a_node3"><a xlink:href="fk20_8cu.html#ad9ea5b299631f609aa1cbfe0af74e1e3" target="_top" xlink:title="setup &#45;&gt; xext_fft">
<polygon fill="white" stroke="black" points="396,-418.5 396,-437.5 509,-437.5 509,-418.5 396,-418.5"/>
<text text-anchor="middle" x="452.5" y="-425.5" font-family="Helvetica,sans-Serif" font-size="10.00">fk20_setup2xext_fft</text>
</a>
</g>
</g>
<!-- Node1&#45;&gt;Node3 -->
<g id="edge2" class="edge">
<title>Node1&#45;&gt;Node3</title>
<path fill="none" stroke="midnightblue" d="M688.53,-329.16C676.71,-336.59 661.9,-345.35 648,-352 603.99,-373.06 589.56,-370.12 545,-390 528.48,-397.37 525.61,-401.83 509,-409 501.05,-412.43 492.26,-415.68 484.07,-418.49"/>
<polygon fill="midnightblue" stroke="midnightblue" points="690.76,-331.88 697.3,-323.55 686.99,-325.99 690.76,-331.88"/>
</g>
<!-- Node4 -->
<g id="node4" class="node">
<title>Node4</title>
<g id="a_node4"><a xlink:href="g1test__fft_8cu.html#a8e16fe8db92c8d570b898f873fac6159" target="_top" xlink:title="Kernel wrapper for device addition.">
<polygon fill="white" stroke="black" points="545,-247.5 545,-266.5 648,-266.5 648,-247.5 545,-247.5"/>
<text text-anchor="middle" x="596.5" y="-254.5" font-family="Helvetica,sans-Serif" font-size="10.00">g1p_add_wrapper</text>
</a>
</g>
</g>
<!-- Node1&#45;&gt;Node4 -->
<g id="edge3" class="edge">
<title>Node1&#45;&gt;Node4</title>
<path fill="none" stroke="midnightblue" d="M688.52,-298.88C676.69,-291.46 661.88,-282.7 648,-276 640.91,-272.58 633.04,-269.36 625.66,-266.57"/>
<polygon fill="midnightblue" stroke="midnightblue" points="686.97,-302.05 697.28,-304.48 690.74,-296.15 686.97,-302.05"/>
</g>
<!-- Node5 -->
<g id="node5" class="node">
<title>Node5</title>
<g id="a_node5"><a xlink:href="g1_8cuh.html#a7381959ac0f320fc9e64af9dfef6250b" target="_top" xlink:title="FFT of size 512 over G1 with projective coordinates. Input and output arrays may overlap....">
<polygon fill="white" stroke="black" points="571.5,-323.5 571.5,-342.5 621.5,-342.5 621.5,-323.5 571.5,-323.5"/>
<text text-anchor="middle" x="596.5" y="-330.5" font-family="Helvetica,sans-Serif" font-size="10.00">g1p_fft</text>
</a>
</g>
</g>
<!-- Node1&#45;&gt;Node5 -->
<g id="edge4" class="edge">
<title>Node1&#45;&gt;Node5</title>
<path fill="none" stroke="midnightblue" d="M673.65,-320.31C656.54,-323.16 636.83,-326.45 621.75,-328.96"/>
<polygon fill="midnightblue" stroke="midnightblue" points="674.62,-323.7 683.9,-318.6 673.46,-316.79 674.62,-323.7"/>
</g>
<!-- Node27 -->
<g id="node27" class="node">
<title>Node27</title>
<g id="a_node27"><a xlink:href="fk20test__kat_8cu.html#af4e2901a3856a43df5d0d5b3ab1b9f22" target="_top" xlink:title=" ">
<polygon fill="white" stroke="black" points="559.5,-209.5 559.5,-228.5 633.5,-228.5 633.5,-209.5 559.5,-209.5"/>
<text text-anchor="middle" x="596.5" y="-216.5" font-family="Helvetica,sans-Serif" font-size="10.00">g1p_fft_test</text>
</a>
</g>
</g>
<!-- Node1&#45;&gt;Node27 -->
<g id="edge33" class="edge">
<title>Node1&#45;&gt;Node27</title>
<path fill="none" stroke="midnightblue" d="M700.4,-295.96C689.1,-278.92 670.12,-253.7 648,-238 642.65,-234.2 636.45,-231.06 630.27,-228.5"/>
<polygon fill="midnightblue" stroke="midnightblue" points="697.52,-297.94 705.86,-304.47 703.41,-294.16 697.52,-297.94"/>
</g>
<!-- Node28 -->
<g id="node28" class="node">
<title>Node28</title>
<g id="a_node28"><a xlink:href="g1_8cuh.html#a07141ff993bd6fc7da467a63b5c319ca" target="_top" xlink:title="Inverse FFT of size 512 over G1 with projective coordinates. Input and output arrays may overlap....">
<polygon fill="white" stroke="black" points="571.5,-285.5 571.5,-304.5 621.5,-304.5 621.5,-285.5 571.5,-285.5"/>
<text text-anchor="middle" x="596.5" y="-292.5" font-family="Helvetica,sans-Serif" font-size="10.00">g1p_ift</text>
</a>
</g>
</g>
<!-- Node1&#45;&gt;Node28 -->
<g id="edge34" class="edge">
<title>Node1&#45;&gt;Node28</title>
<path fill="none" stroke="midnightblue" d="M673.65,-307.69C656.54,-304.84 636.83,-301.55 621.75,-299.04"/>
<polygon fill="midnightblue" stroke="midnightblue" points="673.46,-311.21 683.9,-309.4 674.62,-304.3 673.46,-311.21"/>
</g>
<!-- Node5&#45;&gt;Node3 -->
<g id="edge11" class="edge">
<title>Node5&#45;&gt;Node3</title>
<path fill="none" stroke="midnightblue" d="M562,-345.87C555.99,-349 550.05,-352.71 545,-357 523.58,-375.2 531.42,-392.04 509,-409 503.88,-412.87 497.92,-415.99 491.85,-418.49"/>
<polygon fill="midnightblue" stroke="midnightblue" points="563.84,-348.87 571.37,-341.42 560.83,-342.55 563.84,-348.87"/>
</g>
<!-- Node6 -->
<g id="node6" class="node">
<title>Node6</title>
<g id="a_node6"><a xlink:href="fk20_8cu.html#ae57127876663f7b7e4870baa8e9c601e" target="_top" xlink:title="h &#45;&gt; h_fft">
<polygon fill="white" stroke="black" points="414,-380.5 414,-399.5 491,-399.5 491,-380.5 414,-380.5"/>
<text text-anchor="middle" x="452.5" y="-387.5" font-family="Helvetica,sans-Serif" font-size="10.00">fk20_h2h_fft</text>
</a>
</g>
</g>
<!-- Node5&#45;&gt;Node6 -->
<g id="edge5" class="edge">
<title>Node5&#45;&gt;Node6</title>
<path fill="none" stroke="midnightblue" d="M565.89,-346.74C549.3,-354.26 528.16,-363.53 509,-371 500.56,-374.29 491.27,-377.59 482.76,-380.5"/>
<polygon fill="midnightblue" stroke="midnightblue" points="567.44,-349.89 575.08,-342.55 564.53,-343.52 567.44,-349.89"/>
</g>
<!-- Node7 -->
<g id="node7" class="node">
<title>Node7</title>
<g id="a_node7"><a xlink:href="fk20_8cuh.html#ab86790c4888c05259b0f76570d7cbfc4" target="_top" xlink:title="hext_fft &#45;&gt; h_fft">
<polygon fill="white" stroke="black" points="398,-228.5 398,-247.5 507,-247.5 507,-228.5 398,-228.5"/>
<text text-anchor="middle" x="452.5" y="-235.5" font-family="Helvetica,sans-Serif" font-size="10.00">fk20_hext_fft2h_fft</text>
</a>
</g>
</g>
<!-- Node5&#45;&gt;Node7 -->
<g id="edge6" class="edge">
<title>Node5&#45;&gt;Node7</title>
<path fill="none" stroke="midnightblue" d="M562.02,-323.92C555.97,-321.34 550,-318.08 545,-314 521.77,-295.07 532.51,-275.58 509,-257 504.13,-253.15 498.42,-250.05 492.56,-247.57"/>
<polygon fill="midnightblue" stroke="midnightblue" points="560.88,-327.23 571.48,-327.45 563.33,-320.67 560.88,-327.23"/>
</g>
<!-- Node12 -->
<g id="node12" class="node">
<title>Node12</title>
<g id="a_node12"><a xlink:href="fk20test__kat_8cu.html#aa089930801a6a86e41049da9bb54f1c9" target="_top" xlink:title=" ">
<polygon fill="white" stroke="black" points="410,-304.5 410,-323.5 495,-323.5 495,-304.5 410,-304.5"/>
<text text-anchor="middle" x="452.5" y="-311.5" font-family="Helvetica,sans-Serif" font-size="10.00">FK20TimeKAT</text>
</a>
</g>
</g>
<!-- Node5&#45;&gt;Node12 -->
<g id="edge12" class="edge">
<title>Node5&#45;&gt;Node12</title>
<path fill="none" stroke="midnightblue" d="M561.28,-328.42C541.43,-325.77 516.28,-322.4 495.27,-319.59"/>
<polygon fill="midnightblue" stroke="midnightblue" points="561.04,-331.92 571.41,-329.78 561.96,-324.98 561.04,-331.92"/>
</g>
<!-- Node13 -->
<g id="node13" class="node">
<title>Node13</title>
<g id="a_node13"><a xlink:href="g1_8cuh.html#a2541358351ce3857143d05acd83cf14f" target="_top" xlink:title="wrapper for g1p_fft: FFT for arrays of g1p_t with length 512">
<polygon fill="white" stroke="black" points="405,-342.5 405,-361.5 500,-361.5 500,-342.5 405,-342.5"/>
<text text-anchor="middle" x="452.5" y="-349.5" font-family="Helvetica,sans-Serif" font-size="10.00">g1p_fft_wrapper</text>
</a>
</g>
</g>
<!-- Node5&#45;&gt;Node13 -->
<g id="edge13" class="edge">
<title>Node5&#45;&gt;Node13</title>
<path fill="none" stroke="midnightblue" d="M561.46,-337.56C543.09,-340.01 520.15,-343.08 500.15,-345.76"/>
<polygon fill="midnightblue" stroke="midnightblue" points="561.96,-341.02 571.41,-336.22 561.04,-334.08 561.96,-341.02"/>
</g>
<!-- Node8 -->
<g id="node8" class="node">
<title>Node8</title>
<g id="a_node8"><a xlink:href="fk20test_8cuh.html#a6e91d377665333877b570b295e6ee017" target="_top" xlink:title="Test for fk20_hext_fft2h_fft: hext_fft &#45;&gt; h_fft.">
<polygon fill="white" stroke="black" points="253.5,-0.5 253.5,-19.5 335.5,-19.5 335.5,-0.5 253.5,-0.5"/>
<text text-anchor="middle" x="294.5" y="-7.5" font-family="Helvetica,sans-Serif" font-size="10.00">hext_fft2h_fft</text>
</a>
</g>
</g>
<!-- Node7&#45;&gt;Node8 -->
<g id="edge7" class="edge">
<title>Node7&#45;&gt;Node8</title>
<path fill="none" stroke="midnightblue" d="M399.71,-222.7C398.39,-221.55 397.15,-220.32 396,-219 339.71,-154.05 417.69,-92.71 360,-29 353.65,-21.99 344.87,-17.51 335.82,-14.67"/>
<polygon fill="midnightblue" stroke="midnightblue" points="397.77,-225.61 408,-228.37 401.72,-219.83 397.77,-225.61"/>
</g>
<!-- Node11 -->
<g id="node11" class="node">
<title>Node11</title>
<g id="a_node11"><a xlink:href="fk20__512test_8cu.html#adb9f3c1247f7f8e9273f99f4a545b57d" target="_top" xlink:title="Test for hext_fft2h_fft_512: hext_fft &#45;&gt; h_fft.">
<polygon fill="white" stroke="black" points="242,-38.5 242,-57.5 347,-57.5 347,-38.5 242,-38.5"/>
<text text-anchor="middle" x="294.5" y="-45.5" font-family="Helvetica,sans-Serif" font-size="10.00">hext_fft2h_fft_512</text>
</a>
</g>
</g>
<!-- Node7&#45;&gt;Node11 -->
<g id="edge10" class="edge">
<title>Node7&#45;&gt;Node11</title>
<path fill="none" stroke="midnightblue" d="M399.87,-222.7C398.5,-221.55 397.2,-220.32 396,-219 349.35,-167.58 407.75,-117.4 360,-67 356.31,-63.1 351.86,-59.99 347.04,-57.51"/>
<polygon fill="midnightblue" stroke="midnightblue" points="398.17,-225.77 408.44,-228.36 402.03,-219.93 398.17,-225.77"/>
</g>
<!-- Node9 -->
<g id="node9" class="node">
<title>Node9</title>
<g id="a_node9"><a xlink:href="fk20test_8cuh.html#a320efd4c0fb8e729400941e21ea983aa" target="_top" xlink:title=" ">
<polygon fill="white" stroke="black" points="96,-114.5 96,-133.5 174,-133.5 174,-114.5 96,-114.5"/>
<text text-anchor="middle" x="135" y="-121.5" font-family="Helvetica,sans-Serif" font-size="10.00">FK20TestFFT</text>
</a>
</g>
</g>
<!-- Node8&#45;&gt;Node9 -->
<g id="edge8" class="edge">
<title>Node8&#45;&gt;Node9</title>
<path fill="none" stroke="midnightblue" d="M243.49,-21.92C238.44,-23.94 233.51,-26.29 229,-29 190.43,-52.19 156.66,-95.17 142.75,-114.34"/>
<polygon fill="midnightblue" stroke="midnightblue" points="245.05,-25.08 253.28,-18.41 242.68,-18.49 245.05,-25.08"/>
</g>
<!-- Node10 -->
<g id="node10" class="node">
<title>Node10</title>
<g id="a_node10"><a xlink:href="fk20test_8cu.html#ae66f6b31b5ad750f1fe042a706a4e3d4" target="_top" xlink:title=" ">
<polygon fill="white" stroke="black" points="0,-171.5 0,-190.5 41,-190.5 41,-171.5 0,-171.5"/>
<text text-anchor="middle" x="20.5" y="-178.5" font-family="Helvetica,sans-Serif" font-size="10.00">main</text>
</a>
</g>
</g>
<!-- Node9&#45;&gt;Node10 -->
<g id="edge9" class="edge">
<title>Node9&#45;&gt;Node10</title>
<path fill="none" stroke="midnightblue" d="M90.63,-137.03C85.95,-138.86 81.33,-140.85 77,-143 61.1,-150.9 44.52,-162.81 33.67,-171.19"/>
<polygon fill="midnightblue" stroke="midnightblue" points="92.03,-140.25 100.22,-133.53 89.62,-133.67 92.03,-140.25"/>
</g>
<!-- Node14 -->
<g id="node14" class="node">
<title>Node14</title>
<g id="a_node14"><a xlink:href="fk20_8cuh.html#a428f2dcc8b77723e4def6f684f790ceb" target="_top" xlink:title="polynomial + xext_fft &#45;&gt; h_fft This function is a wrapper for the full FK20 computation,...">
<polygon fill="white" stroke="black" points="248.5,-342.5 248.5,-361.5 340.5,-361.5 340.5,-342.5 248.5,-342.5"/>
<text text-anchor="middle" x="294.5" y="-349.5" font-family="Helvetica,sans-Serif" font-size="10.00">fk20_poly2h_fft</text>
</a>
</g>
</g>
<!-- Node13&#45;&gt;Node14 -->
<g id="edge14" class="edge">
<title>Node13&#45;&gt;Node14</title>
<path fill="none" stroke="midnightblue" d="M394.47,-352C376.75,-352 357.46,-352 340.66,-352"/>
<polygon fill="midnightblue" stroke="midnightblue" points="394.69,-355.5 404.69,-352 394.69,-348.5 394.69,-355.5"/>
</g>
<!-- Node17 -->
<g id="node17" class="node">
<title>Node17</title>
<g id="a_node17"><a xlink:href="fk20test_8cuh.html#a219d5d803685ea0067dfa4908a620e11" target="_top" xlink:title=" ">
<polygon fill="white" stroke="black" points="268.5,-228.5 268.5,-247.5 320.5,-247.5 320.5,-228.5 268.5,-228.5"/>
<text text-anchor="middle" x="294.5" y="-235.5" font-family="Helvetica,sans-Serif" font-size="10.00">fullTest</text>
</a>
</g>
</g>
<!-- Node13&#45;&gt;Node17 -->
<g id="edge17" class="edge">
<title>Node13&#45;&gt;Node17</title>
<path fill="none" stroke="midnightblue" d="M401.65,-337.34C399.65,-336.01 397.76,-334.57 396,-333 368.13,-308.1 388.41,-281.29 360,-257 349.09,-247.67 333.77,-242.92 320.8,-240.5"/>
<polygon fill="midnightblue" stroke="midnightblue" points="400.43,-340.66 410.88,-342.42 403.8,-334.53 400.43,-340.66"/>
</g>
<!-- Node19 -->
<g id="node19" class="node">
<title>Node19</title>
<g id="a_node19"><a xlink:href="fk20__512test_8cu.html#a4de6443d77d1c56d1d49715061ba60db" target="_top" xlink:title="Executes many FK20 computations on a single row, with a check on each step. A computation failure wil...">
<polygon fill="white" stroke="black" points="257,-456.5 257,-475.5 332,-475.5 332,-456.5 257,-456.5"/>
<text text-anchor="middle" x="294.5" y="-463.5" font-family="Helvetica,sans-Serif" font-size="10.00">fullTest_512</text>
</a>
</g>
</g>
<!-- Node13&#45;&gt;Node19 -->
<g id="edge20" class="edge">
<title>Node13&#45;&gt;Node19</title>
<path fill="none" stroke="midnightblue" d="M401.65,-366.66C399.65,-367.99 397.76,-369.43 396,-371 368.13,-395.9 388.41,-422.71 360,-447 352.19,-453.68 342.13,-458.01 332.29,-460.82"/>
<polygon fill="midnightblue" stroke="midnightblue" points="403.8,-369.47 410.88,-361.58 400.43,-363.34 403.8,-369.47"/>
</g>
<!-- Node20 -->
<g id="node20" class="node">
<title>Node20</title>
<g id="a_node20"><a xlink:href="fk20__512test_8cu.html#a537be6501bbccff0654c4ca1b2fd83ae" target="_top" xlink:title="Similar to fullTest, but polynomial is has changes done to it. The function checks for false&#45;positive...">
<polygon fill="white" stroke="black" points="229,-418.5 229,-437.5 360,-437.5 360,-418.5 229,-418.5"/>
<text text-anchor="middle" x="294.5" y="-425.5" font-family="Helvetica,sans-Serif" font-size="10.00">fullTestFalseability_512</text>
</a>
</g>
</g>
<!-- Node13&#45;&gt;Node20 -->
<g id="edge22" class="edge">
<title>Node13&#45;&gt;Node20</title>
<path fill="none" stroke="midnightblue" d="M406,-365.5C402.52,-367.15 399.14,-368.98 396,-371 376.43,-383.58 379.84,-396.85 360,-409 353.73,-412.84 346.64,-415.94 339.51,-418.43"/>
<polygon fill="midnightblue" stroke="midnightblue" points="407.54,-368.65 415.39,-361.52 404.81,-362.2 407.54,-368.65"/>
</g>
<!-- Node21 -->
<g id="node21" class="node">
<title>Node21</title>
<g id="a_node21"><a xlink:href="fk20test_8cuh.html#a8d2cfb1e9fc0723c345460c7ad438df1" target="_top" xlink:title=" ">
<polygon fill="white" stroke="black" points="239.5,-266.5 239.5,-285.5 349.5,-285.5 349.5,-266.5 239.5,-266.5"/>
<text text-anchor="middle" x="294.5" y="-273.5" font-family="Helvetica,sans-Serif" font-size="10.00">fullTestFalsifiability</text>
</a>
</g>
</g>
<!-- Node13&#45;&gt;Node21 -->
<g id="edge24" class="edge">
<title>Node13&#45;&gt;Node21</title>
<path fill="none" stroke="midnightblue" d="M406,-338.5C402.52,-336.85 399.14,-335.02 396,-333 376.43,-320.42 379.84,-307.15 360,-295 353.73,-291.16 346.64,-288.06 339.51,-285.57"/>
<polygon fill="midnightblue" stroke="midnightblue" points="404.81,-341.8 415.39,-342.48 407.54,-335.35 404.81,-341.8"/>
</g>
<!-- Node22 -->
<g id="node22" class="node">
<title>Node22</title>
<g id="a_node22"><a xlink:href="g1test_8cuh.html#af69268816d41d8e3c477c70066f7bfcf" target="_top" xlink:title="Test for FFT and IFFT of points on the G1 curve. Checks self consistency with the following propertie...">
<polygon fill="white" stroke="black" points="261,-380.5 261,-399.5 328,-399.5 328,-380.5 261,-380.5"/>
<text text-anchor="middle" x="294.5" y="-387.5" font-family="Helvetica,sans-Serif" font-size="10.00">G1TestFFT</text>
</a>
</g>
</g>
<!-- Node13&#45;&gt;Node22 -->
<g id="edge26" class="edge">
<title>Node13&#45;&gt;Node22</title>
<path fill="none" stroke="midnightblue" d="M402.38,-363.96C378.12,-369.87 349.52,-376.84 328.01,-382.08"/>
<polygon fill="midnightblue" stroke="midnightblue" points="403.25,-367.36 412.13,-361.59 401.59,-360.56 403.25,-367.36"/>
</g>
<!-- Node24 -->
<g id="node24" class="node">
<title>Node24</title>
<g id="a_node24"><a xlink:href="fk20test_8cuh.html#a46da7589b1c0420a0b16d8b3216d7be9" target="_top" xlink:title="Test for g1p_fft: h &#45;&gt; h_fft.">
<polygon fill="white" stroke="black" points="269.5,-494.5 269.5,-513.5 319.5,-513.5 319.5,-494.5 269.5,-494.5"/>
<text text-anchor="middle" x="294.5" y="-501.5" font-family="Helvetica,sans-Serif" font-size="10.00">h2h_fft</text>
</a>
</g>
</g>
<!-- Node13&#45;&gt;Node24 -->
<g id="edge28" class="edge">
<title>Node13&#45;&gt;Node24</title>
<path fill="none" stroke="midnightblue" d="M400.56,-366.98C398.94,-368.21 397.41,-369.55 396,-371 358.88,-409.02 397.93,-447.8 360,-485 349.33,-495.46 333.21,-500.21 319.75,-502.35"/>
<polygon fill="midnightblue" stroke="midnightblue" points="402.59,-369.84 409.26,-361.61 398.92,-363.88 402.59,-369.84"/>
</g>
<!-- Node25 -->
<g id="node25" class="node">
<title>Node25</title>
<g id="a_node25"><a xlink:href="fk20__512test_8cu.html#a5557a90ff06e60795ad4bae5c7ccc262" target="_top" xlink:title="Test for g1p_fft: h &#45;&gt; h_fft&quot;.">
<polygon fill="white" stroke="black" points="98,-513.5 98,-532.5 172,-532.5 172,-513.5 98,-513.5"/>
<text text-anchor="middle" x="135" y="-520.5" font-family="Helvetica,sans-Serif" font-size="10.00">h2h_fft_512</text>
</a>
</g>
</g>
<!-- Node13&#45;&gt;Node25 -->
<g id="edge30" class="edge">
<title>Node13&#45;&gt;Node25</title>
<path fill="none" stroke="midnightblue" d="M399.87,-367.3C398.5,-368.45 397.2,-369.68 396,-371 349.35,-422.42 414.45,-479.94 360,-523 302.65,-568.35 208.73,-547.09 162.88,-532.6"/>
<polygon fill="midnightblue" stroke="midnightblue" points="402.03,-370.07 408.44,-361.64 398.17,-364.23 402.03,-370.07"/>
</g>
<!-- Node26 -->
<g id="node26" class="node">
<title>Node26</title>
<g id="a_node26"><a xlink:href="fk20benchmark_8cu.html#a8cd0ecc09d4a9a4c418184789229b4f6" target="_top" xlink:title="Executes a test of FK20 with one block for each row. At the end, compare if the calculated h_fft is t...">
<polygon fill="white" stroke="black" points="253.5,-304.5 253.5,-323.5 335.5,-323.5 335.5,-304.5 253.5,-304.5"/>
<text text-anchor="middle" x="294.5" y="-311.5" font-family="Helvetica,sans-Serif" font-size="10.00">preBenchTest</text>
</a>
</g>
</g>
<!-- Node13&#45;&gt;Node26 -->
<g id="edge32" class="edge">
<title>Node13&#45;&gt;Node26</title>
<path fill="none" stroke="midnightblue" d="M402.37,-340.03C380.51,-334.71 355.12,-328.52 334.58,-323.52"/>
<polygon fill="midnightblue" stroke="midnightblue" points="401.59,-343.44 412.13,-342.41 403.25,-336.64 401.59,-343.44"/>
</g>
<!-- Node15 -->
<g id="node15" class="node">
<title>Node15</title>
<g id="a_node15"><a xlink:href="fk20__512test_8cu.html#a30719348d219c529d6b43175cecd8427" target="_top" xlink:title="Test for fk20_poly2h_fft: polynomial &#45;&gt; h_fft.">
<polygon fill="white" stroke="black" points="77,-342.5 77,-361.5 193,-361.5 193,-342.5 77,-342.5"/>
<text text-anchor="middle" x="135" y="-349.5" font-family="Helvetica,sans-Serif" font-size="10.00">fk20_poly2h_fft_512</text>
</a>
</g>
</g>
<!-- Node14&#45;&gt;Node15 -->
<g id="edge15" class="edge">
<title>Node14&#45;&gt;Node15</title>
<path fill="none" stroke="midnightblue" d="M238.03,-352C223.51,-352 207.83,-352 193.22,-352"/>
<polygon fill="midnightblue" stroke="midnightblue" points="238.37,-355.5 248.37,-352 238.37,-348.5 238.37,-355.5"/>
</g>
<!-- Node16 -->
<g id="node16" class="node">
<title>Node16</title>
<g id="a_node16"><a xlink:href="fk20__512test_8cu.html#a3c04138a5bfe5d72780bb7e82a18e627" target="_top" xlink:title="Executes a many&#45;row tests on FK20. Behavior is similar to fk20test.cu but using many GPU blocks,...">
<polygon fill="white" stroke="black" points="0,-380.5 0,-399.5 41,-399.5 41,-380.5 0,-380.5"/>
<text text-anchor="middle" x="20.5" y="-387.5" font-family="Helvetica,sans-Serif" font-size="10.00">main</text>
</a>
</g>
</g>
<!-- Node15&#45;&gt;Node16 -->
<g id="edge16" class="edge">
<title>Node15&#45;&gt;Node16</title>
<path fill="none" stroke="midnightblue" d="M95.67,-364.73C89.43,-366.82 83.03,-368.96 77,-371 65.04,-375.04 51.64,-379.63 41.01,-383.28"/>
<polygon fill="midnightblue" stroke="midnightblue" points="96.9,-368.01 105.28,-361.52 94.69,-361.37 96.9,-368.01"/>
</g>
<!-- Node18 -->
<g id="node18" class="node">
<title>Node18</title>
<g id="a_node18"><a xlink:href="fk20test_8cuh.html#a3f978e98c96e45785d60ed0d96689521" target="_top" xlink:title=" ">
<polygon fill="white" stroke="black" points="94,-228.5 94,-247.5 176,-247.5 176,-228.5 94,-228.5"/>
<text text-anchor="middle" x="135" y="-235.5" font-family="Helvetica,sans-Serif" font-size="10.00">FK20TestPoly</text>
</a>
</g>
</g>
<!-- Node17&#45;&gt;Node18 -->
<g id="edge18" class="edge">
<title>Node17&#45;&gt;Node18</title>
<path fill="none" stroke="midnightblue" d="M257.99,-238C233.73,-238 201.53,-238 176.3,-238"/>
<polygon fill="midnightblue" stroke="midnightblue" points="258.19,-241.5 268.19,-238 258.19,-234.5 258.19,-241.5"/>
</g>
<!-- Node18&#45;&gt;Node10 -->
<g id="edge19" class="edge">
<title>Node18&#45;&gt;Node10</title>
<path fill="none" stroke="midnightblue" d="M90.63,-224.97C85.95,-223.14 81.33,-221.15 77,-219 61.1,-211.1 44.52,-199.19 33.67,-190.81"/>
<polygon fill="midnightblue" stroke="midnightblue" points="89.62,-228.33 100.22,-228.47 92.03,-221.75 89.62,-228.33"/>
</g>
<!-- Node19&#45;&gt;Node16 -->
<g id="edge21" class="edge">
<title>Node19&#45;&gt;Node16</title>
<path fill="none" stroke="midnightblue" d="M246.8,-464.37C201.77,-461.4 132.47,-453.1 77,-430 59.46,-422.69 42.16,-408.9 31.66,-399.57"/>
<polygon fill="midnightblue" stroke="midnightblue" points="246.67,-467.87 256.86,-464.97 247.09,-460.88 246.67,-467.87"/>
</g>
<!-- Node20&#45;&gt;Node16 -->
<g id="edge23" class="edge">
<title>Node20&#45;&gt;Node16</title>
<path fill="none" stroke="midnightblue" d="M218.8,-425.9C176.77,-423.61 123.55,-418.86 77,-409 64.84,-406.43 51.67,-401.99 41.21,-398.05"/>
<polygon fill="midnightblue" stroke="midnightblue" points="218.79,-429.41 228.95,-426.42 219.14,-422.42 218.79,-429.41"/>
</g>
<!-- Node21&#45;&gt;Node18 -->
<g id="edge25" class="edge">
<title>Node21&#45;&gt;Node18</title>
<path fill="none" stroke="midnightblue" d="M243.9,-264.03C221.82,-258.71 196.2,-252.52 175.46,-247.52"/>
<polygon fill="midnightblue" stroke="midnightblue" points="243.21,-267.47 253.76,-266.41 244.86,-260.66 243.21,-267.47"/>
</g>
<!-- Node23 -->
<g id="node23" class="node">
<title>Node23</title>
<g id="a_node23"><a xlink:href="g1test_8cu.html#a3c04138a5bfe5d72780bb7e82a18e627" target="_top" xlink:title="Test for points in G1.">
<polygon fill="white" stroke="black" points="114.5,-380.5 114.5,-399.5 155.5,-399.5 155.5,-380.5 114.5,-380.5"/>
<text text-anchor="middle" x="135" y="-387.5" font-family="Helvetica,sans-Serif" font-size="10.00">main</text>
</a>
</g>
</g>
<!-- Node22&#45;&gt;Node23 -->
<g id="edge27" class="edge">
<title>Node22&#45;&gt;Node23</title>
<path fill="none" stroke="midnightblue" d="M250.76,-390C219.79,-390 179.35,-390 155.67,-390"/>
<polygon fill="midnightblue" stroke="midnightblue" points="250.87,-393.5 260.87,-390 250.87,-386.5 250.87,-393.5"/>
</g>
<!-- Node24&#45;&gt;Node9 -->
<g id="edge29" class="edge">
<title>Node24&#45;&gt;Node9</title>
<path fill="none" stroke="midnightblue" d="M259.26,-501.45C248.02,-498.86 236.49,-494 229,-485 131.17,-367.57 288.74,-262.14 193,-143 188.16,-136.98 181.36,-132.86 174.13,-130.03"/>
<polygon fill="midnightblue" stroke="midnightblue" points="258.93,-504.94 269.38,-503.24 260.15,-498.05 258.93,-504.94"/>
</g>
<!-- Node25&#45;&gt;Node16 -->
<g id="edge31" class="edge">
<title>Node25&#45;&gt;Node16</title>
<path fill="none" stroke="midnightblue" d="M109.64,-507.64C98.87,-500.13 86.52,-490.46 77,-480 53.52,-454.21 34.32,-417.13 25.98,-399.72"/>
<polygon fill="midnightblue" stroke="midnightblue" points="107.97,-510.74 118.22,-513.42 111.88,-504.93 107.97,-510.74"/>
</g>
<!-- Node28&#45;&gt;Node7 -->
<g id="edge35" class="edge">
<title>Node28&#45;&gt;Node7</title>
<path fill="none" stroke="midnightblue" d="M561.96,-283.06C556.25,-280.83 550.42,-278.44 545,-276 528.5,-268.58 525.61,-264.17 509,-257 501.05,-253.57 492.26,-250.32 484.07,-247.51"/>
<polygon fill="midnightblue" stroke="midnightblue" points="560.77,-286.35 571.36,-286.62 563.25,-279.8 560.77,-286.35"/>
</g>
<!-- Node28&#45;&gt;Node12 -->
<g id="edge37" class="edge">
<title>Node28&#45;&gt;Node12</title>
<path fill="none" stroke="midnightblue" d="M561.28,-299.58C541.43,-302.23 516.28,-305.6 495.27,-308.41"/>
<polygon fill="midnightblue" stroke="midnightblue" points="561.96,-303.02 571.41,-298.22 561.04,-296.08 561.96,-303.02"/>
</g>
<!-- Node29 -->
<g id="node29" class="node">
<title>Node29</title>
<g id="a_node29"><a xlink:href="fk20_8cu.html#a831e7b7d95cdaf1032d1904977b749d9" target="_top" xlink:title="hext_fft &#45;&gt; hext">
<polygon fill="white" stroke="black" points="398,-190.5 398,-209.5 507,-209.5 507,-190.5 398,-190.5"/>
<text text-anchor="middle" x="452.5" y="-197.5" font-family="Helvetica,sans-Serif" font-size="10.00">fk20_hext_fft2hext</text>
</a>
</g>
</g>
<!-- Node28&#45;&gt;Node29 -->
<g id="edge36" class="edge">
<title>Node28&#45;&gt;Node29</title>
<path fill="none" stroke="midnightblue" d="M562.02,-285.92C555.97,-283.34 550,-280.08 545,-276 521.77,-257.07 532.51,-237.58 509,-219 504.13,-215.15 498.42,-212.05 492.56,-209.57"/>
<polygon fill="midnightblue" stroke="midnightblue" points="560.88,-289.23 571.48,-289.45 563.33,-282.67 560.88,-289.23"/>
</g>
<!-- Node30 -->
<g id="node30" class="node">
<title>Node30</title>
<g id="a_node30"><a xlink:href="g1_8cuh.html#aa99a1625656fd85f384889a39bf8067f" target="_top" xlink:title="wrapper for g1p_ift: inverse FFT for arrays of g1p_t with length 512">
<polygon fill="white" stroke="black" points="405,-266.5 405,-285.5 500,-285.5 500,-266.5 405,-266.5"/>
<text text-anchor="middle" x="452.5" y="-273.5" font-family="Helvetica,sans-Serif" font-size="10.00">g1p_ift_wrapper</text>
</a>
</g>
</g>
<!-- Node28&#45;&gt;Node30 -->
<g id="edge38" class="edge">
<title>Node28&#45;&gt;Node30</title>
<path fill="none" stroke="midnightblue" d="M561.46,-290.44C543.09,-287.99 520.15,-284.92 500.15,-282.24"/>
<polygon fill="midnightblue" stroke="midnightblue" points="561.04,-293.92 571.41,-291.78 561.96,-286.98 561.04,-293.92"/>
</g>
<!-- Node30&#45;&gt;Node14 -->
<g id="edge39" class="edge">
<title>Node30&#45;&gt;Node14</title>
<path fill="none" stroke="midnightblue" d="M406,-289.5C402.52,-291.15 399.14,-292.98 396,-295 376.43,-307.58 379.84,-320.85 360,-333 353.73,-336.84 346.64,-339.94 339.51,-342.43"/>
<polygon fill="midnightblue" stroke="midnightblue" points="407.54,-292.65 415.39,-285.52 404.81,-286.2 407.54,-292.65"/>
</g>
<!-- Node30&#45;&gt;Node17 -->
<g id="edge40" class="edge">
<title>Node30&#45;&gt;Node17</title>
<path fill="none" stroke="midnightblue" d="M402.41,-264.04C375.27,-257.43 342.69,-249.49 320.68,-244.13"/>
<polygon fill="midnightblue" stroke="midnightblue" points="401.59,-267.44 412.13,-266.41 403.25,-260.64 401.59,-267.44"/>
</g>
<!-- Node30&#45;&gt;Node19 -->
<g id="edge41" class="edge">
<title>Node30&#45;&gt;Node19</title>
<path fill="none" stroke="midnightblue" d="M399.87,-291.3C398.5,-292.45 397.2,-293.68 396,-295 349.35,-346.42 407.75,-396.6 360,-447 352.69,-454.71 342.43,-459.34 332.24,-462.11"/>
<polygon fill="midnightblue" stroke="midnightblue" points="402.03,-294.07 408.44,-285.64 398.17,-288.23 402.03,-294.07"/>
</g>
<!-- Node30&#45;&gt;Node20 -->
<g id="edge42" class="edge">
<title>Node30&#45;&gt;Node20</title>
<path fill="none" stroke="midnightblue" d="M400.56,-290.98C398.94,-292.21 397.41,-293.55 396,-295 358.88,-333.02 397.93,-371.8 360,-409 356.08,-412.84 351.43,-415.91 346.44,-418.37"/>
<polygon fill="midnightblue" stroke="midnightblue" points="402.59,-293.84 409.26,-285.61 398.92,-287.88 402.59,-293.84"/>
</g>
<!-- Node30&#45;&gt;Node21 -->
<g id="edge43" class="edge">
<title>Node30&#45;&gt;Node21</title>
<path fill="none" stroke="midnightblue" d="M394.3,-276C379.72,-276 364.09,-276 349.67,-276"/>
<polygon fill="midnightblue" stroke="midnightblue" points="394.69,-279.5 404.69,-276 394.69,-272.5 394.69,-279.5"/>
</g>
<!-- Node30&#45;&gt;Node22 -->
<g id="edge44" class="edge">
<title>Node30&#45;&gt;Node22</title>
<path fill="none" stroke="midnightblue" d="M401.65,-290.66C399.65,-291.99 397.76,-293.43 396,-295 368.13,-319.9 388.41,-346.71 360,-371 351.13,-378.59 339.35,-383.15 328.28,-385.88"/>
<polygon fill="midnightblue" stroke="midnightblue" points="403.8,-293.47 410.88,-285.58 400.43,-287.34 403.8,-293.47"/>
</g>
<!-- Node30&#45;&gt;Node26 -->
<g id="edge53" class="edge">
<title>Node30&#45;&gt;Node26</title>
<path fill="none" stroke="midnightblue" d="M402.37,-287.97C380.51,-293.29 355.12,-299.48 334.58,-304.48"/>
<polygon fill="midnightblue" stroke="midnightblue" points="403.25,-291.36 412.13,-285.59 401.59,-284.56 403.25,-291.36"/>
</g>
<!-- Node31 -->
<g id="node31" class="node">
<title>Node31</title>
<g id="a_node31"><a xlink:href="fk20test_8cuh.html#a060c821b96d17d587425957709eec75b" target="_top" xlink:title="Test for g1p_ift: h_fft &#45;&gt; h.">
<polygon fill="white" stroke="black" points="269.5,-114.5 269.5,-133.5 319.5,-133.5 319.5,-114.5 269.5,-114.5"/>
<text text-anchor="middle" x="294.5" y="-121.5" font-family="Helvetica,sans-Serif" font-size="10.00">h_fft2h</text>
</a>
</g>
</g>
<!-- Node30&#45;&gt;Node31 -->
<g id="edge45" class="edge">
<title>Node30&#45;&gt;Node31</title>
<path fill="none" stroke="midnightblue" d="M400.68,-261.07C399.02,-259.82 397.45,-258.47 396,-257 360.12,-220.73 395.4,-184.74 360,-148 349.39,-136.99 333.26,-130.99 319.79,-127.74"/>
<polygon fill="midnightblue" stroke="midnightblue" points="399.23,-264.28 409.59,-266.48 402.86,-258.3 399.23,-264.28"/>
</g>
<!-- Node32 -->
<g id="node32" class="node">
<title>Node32</title>
<g id="a_node32"><a xlink:href="fk20__512test_8cu.html#ae55f2f625c11ad82f77b72b3a42c47ca" target="_top" xlink:title="Test for g1p_ift: h_fft &#45;&gt; h.">
<polygon fill="white" stroke="black" points="98,-152.5 98,-171.5 172,-171.5 172,-152.5 98,-152.5"/>
<text text-anchor="middle" x="135" y="-159.5" font-family="Helvetica,sans-Serif" font-size="10.00">h_fft2h_512</text>
</a>
</g>
</g>
<!-- Node30&#45;&gt;Node32 -->
<g id="edge47" class="edge">
<title>Node30&#45;&gt;Node32</title>
<path fill="none" stroke="midnightblue" d="M402.43,-261.68C400.16,-260.26 398,-258.71 396,-257 370,-234.79 388.19,-208.36 360,-189 303.5,-150.19 219.57,-151.82 172.12,-156.74"/>
<polygon fill="midnightblue" stroke="midnightblue" points="401.12,-264.95 411.6,-266.5 404.37,-258.75 401.12,-264.95"/>
</g>
<!-- Node33 -->
<g id="node33" class="node">
<title>Node33</title>
<g id="a_node33"><a xlink:href="fk20test_8cuh.html#af23866ba0e5030142bbb04cbcfd4da05" target="_top" xlink:title="Test for g1p_ift: hext_fft &#45;&gt; h.">
<polygon fill="white" stroke="black" points="261.5,-76.5 261.5,-95.5 327.5,-95.5 327.5,-76.5 261.5,-76.5"/>
<text text-anchor="middle" x="294.5" y="-83.5" font-family="Helvetica,sans-Serif" font-size="10.00">hext_fft2h</text>
</a>
</g>
</g>
<!-- Node30&#45;&gt;Node33 -->
<g id="edge49" class="edge">
<title>Node30&#45;&gt;Node33</title>
<path fill="none" stroke="midnightblue" d="M399.87,-260.7C398.5,-259.55 397.2,-258.32 396,-257 349.35,-205.58 407.75,-155.4 360,-105 351.57,-96.1 339.2,-91.31 327.55,-88.75"/>
<polygon fill="midnightblue" stroke="midnightblue" points="398.17,-263.77 408.44,-266.36 402.03,-257.93 398.17,-263.77"/>
</g>
<!-- Node34 -->
<g id="node34" class="node">
<title>Node34</title>
<g id="a_node34"><a xlink:href="fk20__512test_8cu.html#a9853234576c41f6afaa313c55cca4a4b" target="_top" xlink:title="Test for g1p_ift: hext_fft &#45;&gt; h.">
<polygon fill="white" stroke="black" points="90.5,-190.5 90.5,-209.5 179.5,-209.5 179.5,-190.5 90.5,-190.5"/>
<text text-anchor="middle" x="135" y="-197.5" font-family="Helvetica,sans-Serif" font-size="10.00">hext_fft2h_512</text>
</a>
</g>
</g>
<!-- Node30&#45;&gt;Node34 -->
<g id="edge51" class="edge">
<title>Node30&#45;&gt;Node34</title>
<path fill="none" stroke="midnightblue" d="M406,-262.5C402.52,-260.85 399.14,-259.02 396,-257 376.43,-244.42 380.96,-229.09 360,-219 302.32,-191.24 226.62,-191.25 179.65,-194.84"/>
<polygon fill="midnightblue" stroke="midnightblue" points="404.81,-265.8 415.39,-266.48 407.54,-259.35 404.81,-265.8"/>
</g>
<!-- Node31&#45;&gt;Node9 -->
<g id="edge46" class="edge">
<title>Node31&#45;&gt;Node9</title>
<path fill="none" stroke="midnightblue" d="M259.08,-124C233.99,-124 200,-124 174.1,-124"/>
<polygon fill="midnightblue" stroke="midnightblue" points="259.24,-127.5 269.24,-124 259.24,-120.5 259.24,-127.5"/>
</g>
<!-- Node32&#45;&gt;Node16 -->
<g id="edge48" class="edge">
<title>Node32&#45;&gt;Node16</title>
<path fill="none" stroke="midnightblue" d="M88.58,-172.27C84.28,-174.61 80.31,-177.48 77,-181 21.73,-239.82 20.15,-347.26 21.06,-380.16"/>
<polygon fill="midnightblue" stroke="midnightblue" points="90.03,-175.46 97.73,-168.18 87.17,-169.07 90.03,-175.46"/>
</g>
<!-- Node33&#45;&gt;Node9 -->
<g id="edge50" class="edge">
<title>Node33&#45;&gt;Node9</title>
<path fill="none" stroke="midnightblue" d="M251.33,-96.17C227.28,-101.98 197.37,-109.19 174.04,-114.82"/>
<polygon fill="midnightblue" stroke="midnightblue" points="252.35,-99.53 261.25,-93.78 250.71,-92.72 252.35,-99.53"/>
</g>
<!-- Node34&#45;&gt;Node16 -->
<g id="edge52" class="edge">
<title>Node34&#45;&gt;Node16</title>
<path fill="none" stroke="midnightblue" d="M81.61,-214.99C79.98,-216.22 78.43,-217.56 77,-219 30.62,-265.75 22.99,-351.6 21.74,-380.34"/>
<polygon fill="midnightblue" stroke="midnightblue" points="83.67,-217.83 90.38,-209.63 80.02,-211.86 83.67,-217.83"/>
</g>
</g>
</svg>
        <g id="navigator" transform="translate(0 0)" fill="#404254">
                <rect fill="#f2f5e9" fill-opacity="0.5" stroke="#606060" stroke-width=".5" x="0" y="0" width="60" height="60"/>
                <use id="zoomplus" xlink:href="#zoomPlus" x="17" y="9" onmousedown="handleZoom(evt,'in')"/>
                <use id="zoomminus" xlink:href="#zoomMin" x="42" y="9" onmousedown="handleZoom(evt,'out')"/>
                <use id="reset" xlink:href="#resetDef" x="30" y="36" onmousedown="handleReset()"/>
                <g id="arrowUp" xlink:href="#dirArrow" transform="translate(30 24)" onmousedown="handlePan(0,-1)">
                  <use xlink:href="#rim" fill="#404040">
                        <set attributeName="fill" to="#808080" begin="arrowUp.mouseover" end="arrowUp.mouseout"/>
                  </use>
                  <path fill="none" stroke="white" stroke-width="1.5" d="M0,-3.0v7 M-2.5,-0.5L0,-3.0L2.5,-0.5"/>
                </g>
                <g id="arrowRight" xlink:href="#dirArrow" transform="rotate(90) translate(36 -43)" onmousedown="handlePan(1,0)">
                  <use xlink:href="#rim" fill="#404040">
                        <set attributeName="fill" to="#808080" begin="arrowRight.mouseover" end="arrowRight.mouseout"/>
                  </use>
                  <path fill="none" stroke="white" stroke-width="1.5" d="M0,-3.0v7 M-2.5,-0.5L0,-3.0L2.5,-0.5"/>
                </g>
                <g id="arrowDown" xlink:href="#dirArrow" transform="rotate(180) translate(-30 -48)" onmousedown="handlePan(0,1)">
                  <use xlink:href="#rim" fill="#404040">
                        <set attributeName="fill" to="#808080" begin="arrowDown.mouseover" end="arrowDown.mouseout"/>
                  </use>
                  <path fill="none" stroke="white" stroke-width="1.5" d="M0,-3.0v7 M-2.5,-0.5L0,-3.0L2.5,-0.5"/>
                </g>
                <g id="arrowLeft" xlink:href="#dirArrow" transform="rotate(270) translate(-36 17)" onmousedown="handlePan(-1,0)">
                  <use xlink:href="#rim" fill="#404040">
                        <set attributeName="fill" to="#808080" begin="arrowLeft.mouseover" end="arrowLeft.mouseout"/>
                  </use>
                  <path fill="none" stroke="white" stroke-width="1.5" d="M0,-3.0v7 M-2.5,-0.5L0,-3.0L2.5,-0.5"/>
                </g>
        </g>
        <svg viewBox="0 0 15 15" width="100%" height="30px" preserveAspectRatio="xMaxYMin meet">
         <g id="arrow_out" transform="scale(0.3 0.3)">
          <a xlink:href="g1_8cuh_a9d6fd1daf56b90adb23fc5ac3705d6fb_icgraph_org.svg" target="_base">
           <rect id="button" ry="5" rx="5" y="6" x="6" height="38" width="38"
                fill="#f2f5e9" fill-opacity="0.5" stroke="#606060" stroke-width="1.0"/>
           <path id="arrow"
             d="M 11.500037,31.436501 C 11.940474,20.09759 22.043105,11.32322 32.158766,21.979434 L 37.068811,17.246167 C 37.068811,17.246167 37.088388,32 37.088388,32 L 22.160133,31.978069 C 22.160133,31.978069 26.997745,27.140456 26.997745,27.140456 C 18.528582,18.264221 13.291696,25.230495 11.500037,31.436501 z"
             style="fill:#404040;"/>
          </a>
         </g>
        </svg>
</svg>
