<?xml version="1.0" encoding="UTF-8" standalone="no"?>
<!DOCTYPE svg PUBLIC "-//W3C//DTD SVG 1.1//EN"
 "http://www.w3.org/Graphics/SVG/1.1/DTD/svg11.dtd">
<!-- Generated by graphviz version 2.43.0 (0)
 -->
<!-- Title: g1p_isInf Pages: 1 -->
<svg width="273pt" height="66pt"
 viewBox="0.00 0.00 273.00 66.00" xmlns="http://www.w3.org/2000/svg" xmlns:xlink="http://www.w3.org/1999/xlink">
<g id="graph0" class="graph" transform="scale(1 1) rotate(0) translate(4 62)">
<title>g1p_isInf</title>
<polygon fill="white" stroke="transparent" points="-4,4 -4,-62 269,-62 269,4 -4,4"/>
<!-- Node1 -->
<g id="node1" class="node">
<title>Node1</title>
<g id="a_node1"><a xlink:title="Check if the value stored in p is the the/any point at infinity. This implementation uses (0,...">
<polygon fill="#bfbfbf" stroke="black" points="0,-19.5 0,-38.5 61,-38.5 61,-19.5 0,-19.5"/>
<text text-anchor="middle" x="30.5" y="-26.5" font-family="Helvetica,sans-Serif" font-size="10.00">g1p_isInf</text>
</a>
</g>
</g>
<!-- Node2 -->
<g id="node2" class="node">
<title>Node2</title>
<g id="a_node2"><a xlink:href="fp_8cuh.html#acf26ba4d56d7ff54adc93a6e1bcaeab1" target="_top" xlink:title="Checks if the residue x modulo p is congruent to one.">
<polygon fill="white" stroke="black" points="98.5,-38.5 98.5,-57.5 156.5,-57.5 156.5,-38.5 98.5,-38.5"/>
<text text-anchor="middle" x="127.5" y="-45.5" font-family="Helvetica,sans-Serif" font-size="10.00">fp_isone</text>
</a>
</g>
</g>
<!-- Node1&#45;&gt;Node2 -->
<g id="edge1" class="edge">
<title>Node1&#45;&gt;Node2</title>
<path fill="none" stroke="midnightblue" d="M61.04,-34.91C69.67,-36.63 79.22,-38.54 88.3,-40.36"/>
<polygon fill="midnightblue" stroke="midnightblue" points="87.79,-43.83 98.28,-42.36 89.16,-36.96 87.79,-43.83"/>
</g>
<!-- Node5 -->
<g id="node5" class="node">
<title>Node5</title>
<g id="a_node5"><a xlink:href="fp_8cuh.html#a45eab81e60385635ab4732360f94ec91" target="_top" xlink:title="Checks if the residue x modulo p is congruent to zero.">
<polygon fill="white" stroke="black" points="97,-0.5 97,-19.5 158,-19.5 158,-0.5 97,-0.5"/>
<text text-anchor="middle" x="127.5" y="-7.5" font-family="Helvetica,sans-Serif" font-size="10.00">fp_iszero</text>
</a>
</g>
</g>
<!-- Node1&#45;&gt;Node5 -->
<g id="edge4" class="edge">
<title>Node1&#45;&gt;Node5</title>
<path fill="none" stroke="midnightblue" d="M61.04,-23.09C69.26,-21.45 78.32,-19.64 87.02,-17.9"/>
<polygon fill="midnightblue" stroke="midnightblue" points="87.86,-21.3 96.98,-15.9 86.49,-14.43 87.86,-21.3"/>
</g>
<!-- Node3 -->
<g id="node3" class="node">
<title>Node3</title>
<g id="a_node3"><a xlink:href="fp_8cuh.html#aa84fc3bc6fd35779512d8f14938df96d" target="_top" xlink:title="Copy from x into z.">
<polygon fill="white" stroke="black" points="205,-38.5 205,-57.5 254,-57.5 254,-38.5 205,-38.5"/>
<text text-anchor="middle" x="229.5" y="-45.5" font-family="Helvetica,sans-Serif" font-size="10.00">fp_cpy</text>
</a>
</g>
</g>
<!-- Node2&#45;&gt;Node3 -->
<g id="edge2" class="edge">
<title>Node2&#45;&gt;Node3</title>
<path fill="none" stroke="midnightblue" d="M156.62,-48C168.54,-48 182.52,-48 194.96,-48"/>
<polygon fill="midnightblue" stroke="midnightblue" points="194.98,-51.5 204.98,-48 194.98,-44.5 194.98,-51.5"/>
</g>
<!-- Node4 -->
<g id="node4" class="node">
<title>Node4</title>
<g id="a_node4"><a xlink:href="fp_8cuh.html#a89b41553cb5af629dd8ac33b71d03ee1" target="_top" xlink:title="Narrow reduction of a residue modulo p, reducing to the canonical representation.">
<polygon fill="white" stroke="black" points="194,-0.5 194,-19.5 265,-19.5 265,-0.5 194,-0.5"/>
<text text-anchor="middle" x="229.5" y="-7.5" font-family="Helvetica,sans-Serif" font-size="10.00">fp_reduce6</text>
</a>
</g>
</g>
<!-- Node2&#45;&gt;Node4 -->
<g id="edge3" class="edge">
<title>Node2&#45;&gt;Node4</title>
<path fill="none" stroke="midnightblue" d="M153.73,-38.41C165.81,-33.82 180.47,-28.25 193.6,-23.26"/>
<polygon fill="midnightblue" stroke="midnightblue" points="195.17,-26.41 203.27,-19.59 192.68,-19.87 195.17,-26.41"/>
</g>
<!-- Node5&#45;&gt;Node3 -->
<g id="edge5" class="edge">
<title>Node5&#45;&gt;Node3</title>
<path fill="none" stroke="midnightblue" d="M153.73,-19.59C166.4,-24.4 181.9,-30.29 195.49,-35.46"/>
<polygon fill="midnightblue" stroke="midnightblue" points="194.4,-38.79 204.99,-39.07 196.89,-32.24 194.4,-38.79"/>
</g>
<!-- Node5&#45;&gt;Node4 -->
<g id="edge6" class="edge">
<title>Node5&#45;&gt;Node4</title>
<path fill="none" stroke="midnightblue" d="M158.23,-10C166.17,-10 174.93,-10 183.5,-10"/>
<polygon fill="midnightblue" stroke="midnightblue" points="183.78,-13.5 193.78,-10 183.78,-6.5 183.78,-13.5"/>
</g>
</g>
</svg>
