<?xml version="1.0" encoding="UTF-8" standalone="no"?>
<!DOCTYPE svg PUBLIC "-//W3C//DTD SVG 1.1//EN"
 "http://www.w3.org/Graphics/SVG/1.1/DTD/svg11.dtd">
<!-- Generated by graphviz version 2.43.0 (0)
 -->
<!-- Title: g1p_isInf Pages: 1 -->
<!--zoomable 559 -->
<svg id="main" version="1.1" xmlns="http://www.w3.org/2000/svg" xmlns:xlink="http://www.w3.org/1999/xlink" xml:space="preserve" onload="init(evt)">
<style type="text/css"><![CDATA[
.edge:hover path { stroke: red; }
.edge:hover polygon { stroke: red; fill: red; }
]]></style>
<script type="text/javascript"><![CDATA[
var edges = document.getElementsByTagName('g');
if (edges && edges.length) {
  for (var i=0;i<edges.length;i++) {
    if (edges[i].id.substr(0,4)=='edge') {
      edges[i].setAttribute('class','edge');
    }
  }
}
]]></script>
        <defs>
                <circle id="rim" cx="0" cy="0" r="7"/>
                <circle id="rim2" cx="0" cy="0" r="3.5"/>
                <g id="zoomPlus">
                        <use xlink:href="#rim" fill="#404040">
                                <set attributeName="fill" to="#808080" begin="zoomplus.mouseover" end="zoomplus.mouseout"/>
                        </use>
                        <path d="M-4,0h8M0,-4v8" fill="none" stroke="white" stroke-width="1.5" pointer-events="none"/>
                </g>
                <g id="zoomMin">
                        <use xlink:href="#rim" fill="#404040">
                                <set attributeName="fill" to="#808080" begin="zoomminus.mouseover" end="zoomminus.mouseout"/>
                        </use>
                        <path d="M-4,0h8" fill="none" stroke="white" stroke-width="1.5" pointer-events="none"/>
                </g>
                <g id="dirArrow">
                        <path fill="none" stroke="white" stroke-width="1.5" d="M0,-3.0v7 M-2.5,-0.5L0,-3.0L2.5,-0.5"/>
                </g>
               <g id="resetDef">
                       <use xlink:href="#rim2" fill="#404040">
                               <set attributeName="fill" to="#808080" begin="reset.mouseover" end="reset.mouseout"/>
                       </use>
               </g>
        </defs>

<script type="text/javascript">
var viewWidth = 952;
var viewHeight = 559;
var sectionId = 'dynsection-20';
</script>
<script xlink:href="svgpan.js"/>
<svg id="graph" class="graph">
<g id="viewport">
<title>g1p_isInf</title>
<polygon fill="white" stroke="transparent" points="-4,4 -4,-554.61 948,-554.61 948,4 -4,4"/>
<!-- Node1 -->
<g id="node1" class="node">
<title>Node1</title>
<g id="a_node1"><a xlink:title="Check if the value stored in p is the the/any point at infinity. This implementation uses (0,...">
<polygon fill="#bfbfbf" stroke="black" points="883,-323.5 883,-342.5 944,-342.5 944,-323.5 883,-323.5"/>
<text text-anchor="middle" x="913.5" y="-330.5" font-family="Helvetica,sans-Serif" font-size="10.00">g1p_isInf</text>
</a>
</g>
</g>
<!-- Node2 -->
<g id="node2" class="node">
<title>Node2</title>
<g id="a_node2"><a xlink:href="g1_8cuh.html#ac5e28dd7ae9a2d9f751792ffa5688346" target="_top" xlink:title="Check if the value stored in p is a valid point on the G1 curve.">
<polygon fill="white" stroke="black" points="774,-323.5 774,-342.5 847,-342.5 847,-323.5 774,-323.5"/>
<text text-anchor="middle" x="810.5" y="-330.5" font-family="Helvetica,sans-Serif" font-size="10.00">g1p_isPoint</text>
</a>
</g>
</g>
<!-- Node1&#45;&gt;Node2 -->
<g id="edge1" class="edge">
<title>Node1&#45;&gt;Node2</title>
<path fill="none" stroke="midnightblue" d="M872.71,-333C864.26,-333 855.39,-333 847.11,-333"/>
<polygon fill="midnightblue" stroke="midnightblue" points="872.74,-336.5 882.74,-333 872.74,-329.5 872.74,-336.5"/>
</g>
<!-- Node3 -->
<g id="node3" class="node">
<title>Node3</title>
<g id="a_node3"><a xlink:href="g1_8cuh.html#a738cb164cdffd441d2aa86d5329cd0bc" target="_top" xlink:title="G1 point doubling, with write back: p=2*p.">
<polygon fill="white" stroke="black" points="669,-361.5 669,-380.5 724,-380.5 724,-361.5 669,-361.5"/>
<text text-anchor="middle" x="696.5" y="-368.5" font-family="Helvetica,sans-Serif" font-size="10.00">g1p_dbl</text>
</a>
</g>
</g>
<!-- Node2&#45;&gt;Node3 -->
<g id="edge2" class="edge">
<title>Node2&#45;&gt;Node3</title>
<path fill="none" stroke="midnightblue" d="M771.4,-345.93C755.88,-351.19 738.32,-357.15 724.21,-361.94"/>
<polygon fill="midnightblue" stroke="midnightblue" points="772.89,-349.12 781.24,-342.59 770.64,-342.49 772.89,-349.12"/>
</g>
<!-- Node4 -->
<g id="node4" class="node">
<title>Node4</title>
<g id="a_node4"><a xlink:href="fk20test__kat_8cu.html#a037e7452df3229f7ee8a774360c1606e" target="_top" xlink:title=" ">
<polygon fill="white" stroke="black" points="655,-323.5 655,-342.5 738,-342.5 738,-323.5 655,-323.5"/>
<text text-anchor="middle" x="696.5" y="-330.5" font-family="Helvetica,sans-Serif" font-size="10.00">g1p_fft_verify</text>
</a>
</g>
</g>
<!-- Node2&#45;&gt;Node4 -->
<g id="edge3" class="edge">
<title>Node2&#45;&gt;Node4</title>
<path fill="none" stroke="midnightblue" d="M763.72,-333C755.32,-333 746.6,-333 738.36,-333"/>
<polygon fill="midnightblue" stroke="midnightblue" points="763.75,-336.5 773.75,-333 763.75,-329.5 763.75,-336.5"/>
</g>
<!-- Node5 -->
<g id="node5" class="node">
<title>Node5</title>
<g id="a_node5"><a xlink:href="g1_8cuh.html#a98781687d03d5e738745dcb61e0fc1f8" target="_top" xlink:title="p ← k·p Point multiplication by scalar, in projective coordinates. That result is stored back into p.">
<polygon fill="white" stroke="black" points="667,-285.5 667,-304.5 726,-304.5 726,-285.5 667,-285.5"/>
<text text-anchor="middle" x="696.5" y="-292.5" font-family="Helvetica,sans-Serif" font-size="10.00">g1p_mul</text>
</a>
</g>
</g>
<!-- Node2&#45;&gt;Node5 -->
<g id="edge4" class="edge">
<title>Node2&#45;&gt;Node5</title>
<path fill="none" stroke="midnightblue" d="M771.7,-320.17C756.67,-315.08 739.68,-309.31 725.75,-304.59"/>
<polygon fill="midnightblue" stroke="midnightblue" points="770.64,-323.51 781.24,-323.41 772.89,-316.88 770.64,-323.51"/>
</g>
<!-- Node6 -->
<g id="node6" class="node">
<title>Node6</title>
<g id="a_node6"><a xlink:href="fk20_8cuh.html#a29747b9a4d2253c1fbb59c46dba78aea" target="_top" xlink:title="toeplitz_coefficients_fft + xext_fft &#45;&gt; hext_fft">
<polygon fill="white" stroke="black" points="548,-342.5 548,-361.5 616,-361.5 616,-342.5 548,-342.5"/>
<text text-anchor="middle" x="582" y="-349.5" font-family="Helvetica,sans-Serif" font-size="10.00">fk20_msm</text>
</a>
</g>
</g>
<!-- Node5&#45;&gt;Node6 -->
<g id="edge5" class="edge">
<title>Node5&#45;&gt;Node6</title>
<path fill="none" stroke="midnightblue" d="M665.31,-308.97C661.82,-310.64 658.32,-312.34 655,-314 654.32,-314.34 622.43,-331.18 601.32,-342.33"/>
<polygon fill="midnightblue" stroke="midnightblue" points="666.85,-312.12 674.39,-304.67 663.85,-305.79 666.85,-312.12"/>
</g>
<!-- Node7 -->
<g id="node7" class="node">
<title>Node7</title>
<g id="a_node7"><a xlink:href="g1_8cuh.html#a7381959ac0f320fc9e64af9dfef6250b" target="_top" xlink:title="FFT of size 512 over G1 with projective coordinates. Input and output arrays may overlap....">
<polygon fill="white" stroke="black" points="557,-304.5 557,-323.5 607,-323.5 607,-304.5 557,-304.5"/>
<text text-anchor="middle" x="582" y="-311.5" font-family="Helvetica,sans-Serif" font-size="10.00">g1p_fft</text>
</a>
</g>
</g>
<!-- Node5&#45;&gt;Node7 -->
<g id="edge6" class="edge">
<title>Node5&#45;&gt;Node7</title>
<path fill="none" stroke="midnightblue" d="M656.88,-301.52C640.35,-304.31 621.56,-307.49 607.06,-309.94"/>
<polygon fill="midnightblue" stroke="midnightblue" points="657.54,-304.96 666.82,-299.84 656.38,-298.06 657.54,-304.96"/>
</g>
<!-- Node30 -->
<g id="node30" class="node">
<title>Node30</title>
<g id="a_node30"><a xlink:href="fk20test__kat_8cu.html#af4e2901a3856a43df5d0d5b3ab1b9f22" target="_top" xlink:title=" ">
<polygon fill="white" stroke="black" points="545,-228.5 545,-247.5 619,-247.5 619,-228.5 545,-228.5"/>
<text text-anchor="middle" x="582" y="-235.5" font-family="Helvetica,sans-Serif" font-size="10.00">g1p_fft_test</text>
</a>
</g>
</g>
<!-- Node5&#45;&gt;Node30 -->
<g id="edge35" class="edge">
<title>Node5&#45;&gt;Node30</title>
<path fill="none" stroke="midnightblue" d="M667.52,-280.82C647.05,-270.45 619.84,-256.67 601.89,-247.57"/>
<polygon fill="midnightblue" stroke="midnightblue" points="666.17,-284.06 676.67,-285.46 669.33,-277.82 666.17,-284.06"/>
</g>
<!-- Node31 -->
<g id="node31" class="node">
<title>Node31</title>
<g id="a_node31"><a xlink:href="g1_8cuh.html#a07141ff993bd6fc7da467a63b5c319ca" target="_top" xlink:title="Inverse FFT of size 512 over G1 with projective coordinates. Input and output arrays may overlap....">
<polygon fill="white" stroke="black" points="557,-266.5 557,-285.5 607,-285.5 607,-266.5 557,-266.5"/>
<text text-anchor="middle" x="582" y="-273.5" font-family="Helvetica,sans-Serif" font-size="10.00">g1p_ift</text>
</a>
</g>
</g>
<!-- Node5&#45;&gt;Node31 -->
<g id="edge36" class="edge">
<title>Node5&#45;&gt;Node31</title>
<path fill="none" stroke="midnightblue" d="M656.88,-288.48C640.35,-285.69 621.56,-282.51 607.06,-280.06"/>
<polygon fill="midnightblue" stroke="midnightblue" points="656.38,-291.94 666.82,-290.16 657.54,-285.04 656.38,-291.94"/>
</g>
<!-- Node8 -->
<g id="node8" class="node">
<title>Node8</title>
<g id="a_node8"><a xlink:href="fk20_8cu.html#ae57127876663f7b7e4870baa8e9c601e" target="_top" xlink:title="h &#45;&gt; h_fft">
<polygon fill="white" stroke="black" points="414,-380.5 414,-399.5 491,-399.5 491,-380.5 414,-380.5"/>
<text text-anchor="middle" x="452.5" y="-387.5" font-family="Helvetica,sans-Serif" font-size="10.00">fk20_h2h_fft</text>
</a>
</g>
</g>
<!-- Node7&#45;&gt;Node8 -->
<g id="edge7" class="edge">
<title>Node7&#45;&gt;Node8</title>
<path fill="none" stroke="midnightblue" d="M551.4,-328.59C549.18,-329.99 547.02,-331.47 545,-333 526.47,-347.06 528.57,-358.42 509,-371 503.09,-374.8 496.33,-377.93 489.61,-380.48"/>
<polygon fill="midnightblue" stroke="midnightblue" points="553.21,-331.58 560.11,-323.55 549.7,-325.53 553.21,-331.58"/>
</g>
<!-- Node9 -->
<g id="node9" class="node">
<title>Node9</title>
<g id="a_node9"><a xlink:href="fk20_8cuh.html#ab86790c4888c05259b0f76570d7cbfc4" target="_top" xlink:title="hext_fft &#45;&gt; h_fft">
<polygon fill="white" stroke="black" points="398,-228.5 398,-247.5 507,-247.5 507,-228.5 398,-228.5"/>
<text text-anchor="middle" x="452.5" y="-235.5" font-family="Helvetica,sans-Serif" font-size="10.00">fk20_hext_fft2h_fft</text>
</a>
</g>
</g>
<!-- Node7&#45;&gt;Node9 -->
<g id="edge8" class="edge">
<title>Node7&#45;&gt;Node9</title>
<path fill="none" stroke="midnightblue" d="M551.4,-299.41C549.18,-298.01 547.02,-296.53 545,-295 526.47,-280.94 528.57,-269.58 509,-257 503.09,-253.2 496.33,-250.07 489.61,-247.52"/>
<polygon fill="midnightblue" stroke="midnightblue" points="549.7,-302.47 560.11,-304.45 553.21,-296.42 549.7,-302.47"/>
</g>
<!-- Node14 -->
<g id="node14" class="node">
<title>Node14</title>
<g id="a_node14"><a xlink:href="fk20_8cu.html#ad9ea5b299631f609aa1cbfe0af74e1e3" target="_top" xlink:title="setup &#45;&gt; xext_fft">
<polygon fill="white" stroke="black" points="396,-418.5 396,-437.5 509,-437.5 509,-418.5 396,-418.5"/>
<text text-anchor="middle" x="452.5" y="-425.5" font-family="Helvetica,sans-Serif" font-size="10.00">fk20_setup2xext_fft</text>
</a>
</g>
</g>
<!-- Node7&#45;&gt;Node14 -->
<g id="edge13" class="edge">
<title>Node7&#45;&gt;Node14</title>
<path fill="none" stroke="midnightblue" d="M548.91,-329.41C547.52,-330.54 546.21,-331.74 545,-333 519.15,-359.99 536.87,-384.1 509,-409 504.67,-412.87 499.52,-415.95 494.12,-418.42"/>
<polygon fill="midnightblue" stroke="midnightblue" points="551.09,-332.16 557.4,-323.64 547.16,-326.37 551.09,-332.16"/>
</g>
<!-- Node15 -->
<g id="node15" class="node">
<title>Node15</title>
<g id="a_node15"><a xlink:href="fk20test__kat_8cu.html#aa089930801a6a86e41049da9bb54f1c9" target="_top" xlink:title=" ">
<polygon fill="white" stroke="black" points="410,-304.5 410,-323.5 495,-323.5 495,-304.5 410,-304.5"/>
<text text-anchor="middle" x="452.5" y="-311.5" font-family="Helvetica,sans-Serif" font-size="10.00">FK20TimeKAT</text>
</a>
</g>
</g>
<!-- Node7&#45;&gt;Node15 -->
<g id="edge14" class="edge">
<title>Node7&#45;&gt;Node15</title>
<path fill="none" stroke="midnightblue" d="M546.31,-314C530.47,-314 511.59,-314 495.01,-314"/>
<polygon fill="midnightblue" stroke="midnightblue" points="546.72,-317.5 556.72,-314 546.72,-310.5 546.72,-317.5"/>
</g>
<!-- Node16 -->
<g id="node16" class="node">
<title>Node16</title>
<g id="a_node16"><a xlink:href="g1_8cuh.html#a2541358351ce3857143d05acd83cf14f" target="_top" xlink:title="wrapper for g1p_fft: FFT for arrays of g1p_t with length 512">
<polygon fill="white" stroke="black" points="405,-342.5 405,-361.5 500,-361.5 500,-342.5 405,-342.5"/>
<text text-anchor="middle" x="452.5" y="-349.5" font-family="Helvetica,sans-Serif" font-size="10.00">g1p_fft_wrapper</text>
</a>
</g>
</g>
<!-- Node7&#45;&gt;Node16 -->
<g id="edge15" class="edge">
<title>Node7&#45;&gt;Node16</title>
<path fill="none" stroke="midnightblue" d="M546.92,-324.16C527.82,-329.85 504.15,-336.91 485.41,-342.49"/>
<polygon fill="midnightblue" stroke="midnightblue" points="548.13,-327.45 556.72,-321.24 546.13,-320.74 548.13,-327.45"/>
</g>
<!-- Node10 -->
<g id="node10" class="node">
<title>Node10</title>
<g id="a_node10"><a xlink:href="fk20test_8cuh.html#a6e91d377665333877b570b295e6ee017" target="_top" xlink:title="Test for fk20_hext_fft2h_fft: hext_fft &#45;&gt; h_fft.">
<polygon fill="white" stroke="black" points="253.5,-0.5 253.5,-19.5 335.5,-19.5 335.5,-0.5 253.5,-0.5"/>
<text text-anchor="middle" x="294.5" y="-7.5" font-family="Helvetica,sans-Serif" font-size="10.00">hext_fft2h_fft</text>
</a>
</g>
</g>
<!-- Node9&#45;&gt;Node10 -->
<g id="edge9" class="edge">
<title>Node9&#45;&gt;Node10</title>
<path fill="none" stroke="midnightblue" d="M399.71,-222.7C398.39,-221.55 397.15,-220.32 396,-219 339.71,-154.05 417.69,-92.71 360,-29 353.65,-21.99 344.87,-17.51 335.82,-14.67"/>
<polygon fill="midnightblue" stroke="midnightblue" points="397.77,-225.61 408,-228.37 401.72,-219.83 397.77,-225.61"/>
</g>
<!-- Node13 -->
<g id="node13" class="node">
<title>Node13</title>
<g id="a_node13"><a xlink:href="fk20__512test_8cu.html#adb9f3c1247f7f8e9273f99f4a545b57d" target="_top" xlink:title="Test for hext_fft2h_fft_512: hext_fft &#45;&gt; h_fft.">
<polygon fill="white" stroke="black" points="242,-38.5 242,-57.5 347,-57.5 347,-38.5 242,-38.5"/>
<text text-anchor="middle" x="294.5" y="-45.5" font-family="Helvetica,sans-Serif" font-size="10.00">hext_fft2h_fft_512</text>
</a>
</g>
</g>
<!-- Node9&#45;&gt;Node13 -->
<g id="edge12" class="edge">
<title>Node9&#45;&gt;Node13</title>
<path fill="none" stroke="midnightblue" d="M399.87,-222.7C398.5,-221.55 397.2,-220.32 396,-219 349.35,-167.58 407.75,-117.4 360,-67 356.31,-63.1 351.86,-59.99 347.04,-57.51"/>
<polygon fill="midnightblue" stroke="midnightblue" points="398.17,-225.77 408.44,-228.36 402.03,-219.93 398.17,-225.77"/>
</g>
<!-- Node11 -->
<g id="node11" class="node">
<title>Node11</title>
<g id="a_node11"><a xlink:href="fk20test_8cuh.html#a320efd4c0fb8e729400941e21ea983aa" target="_top" xlink:title=" ">
<polygon fill="white" stroke="black" points="96,-114.5 96,-133.5 174,-133.5 174,-114.5 96,-114.5"/>
<text text-anchor="middle" x="135" y="-121.5" font-family="Helvetica,sans-Serif" font-size="10.00">FK20TestFFT</text>
</a>
</g>
</g>
<!-- Node10&#45;&gt;Node11 -->
<g id="edge10" class="edge">
<title>Node10&#45;&gt;Node11</title>
<path fill="none" stroke="midnightblue" d="M243.49,-21.92C238.44,-23.94 233.51,-26.29 229,-29 190.43,-52.19 156.66,-95.17 142.75,-114.34"/>
<polygon fill="midnightblue" stroke="midnightblue" points="245.05,-25.08 253.28,-18.41 242.68,-18.49 245.05,-25.08"/>
</g>
<!-- Node12 -->
<g id="node12" class="node">
<title>Node12</title>
<g id="a_node12"><a xlink:href="fk20test_8cu.html#ae66f6b31b5ad750f1fe042a706a4e3d4" target="_top" xlink:title=" ">
<polygon fill="white" stroke="black" points="0,-171.5 0,-190.5 41,-190.5 41,-171.5 0,-171.5"/>
<text text-anchor="middle" x="20.5" y="-178.5" font-family="Helvetica,sans-Serif" font-size="10.00">main</text>
</a>
</g>
</g>
<!-- Node11&#45;&gt;Node12 -->
<g id="edge11" class="edge">
<title>Node11&#45;&gt;Node12</title>
<path fill="none" stroke="midnightblue" d="M90.63,-137.03C85.95,-138.86 81.33,-140.85 77,-143 61.1,-150.9 44.52,-162.81 33.67,-171.19"/>
<polygon fill="midnightblue" stroke="midnightblue" points="92.03,-140.25 100.22,-133.53 89.62,-133.67 92.03,-140.25"/>
</g>
<!-- Node17 -->
<g id="node17" class="node">
<title>Node17</title>
<g id="a_node17"><a xlink:href="fk20_8cuh.html#a428f2dcc8b77723e4def6f684f790ceb" target="_top" xlink:title="polynomial + xext_fft &#45;&gt; h_fft This function is a wrapper for the full FK20 computation,...">
<polygon fill="white" stroke="black" points="248.5,-380.5 248.5,-399.5 340.5,-399.5 340.5,-380.5 248.5,-380.5"/>
<text text-anchor="middle" x="294.5" y="-387.5" font-family="Helvetica,sans-Serif" font-size="10.00">fk20_poly2h_fft</text>
</a>
</g>
</g>
<!-- Node16&#45;&gt;Node17 -->
<g id="edge16" class="edge">
<title>Node16&#45;&gt;Node17</title>
<path fill="none" stroke="midnightblue" d="M402.37,-363.97C380.51,-369.29 355.12,-375.48 334.58,-380.48"/>
<polygon fill="midnightblue" stroke="midnightblue" points="403.25,-367.36 412.13,-361.59 401.59,-360.56 403.25,-367.36"/>
</g>
<!-- Node20 -->
<g id="node20" class="node">
<title>Node20</title>
<g id="a_node20"><a xlink:href="fk20test_8cuh.html#a219d5d803685ea0067dfa4908a620e11" target="_top" xlink:title=" ">
<polygon fill="white" stroke="black" points="268.5,-266.5 268.5,-285.5 320.5,-285.5 320.5,-266.5 268.5,-266.5"/>
<text text-anchor="middle" x="294.5" y="-273.5" font-family="Helvetica,sans-Serif" font-size="10.00">fullTest</text>
</a>
</g>
</g>
<!-- Node16&#45;&gt;Node20 -->
<g id="edge19" class="edge">
<title>Node16&#45;&gt;Node20</title>
<path fill="none" stroke="midnightblue" d="M406,-338.5C402.52,-336.85 399.14,-335.02 396,-333 376.43,-320.42 379.84,-307.15 360,-295 348.05,-287.68 333.13,-283.05 320.65,-280.2"/>
<polygon fill="midnightblue" stroke="midnightblue" points="404.81,-341.8 415.39,-342.48 407.54,-335.35 404.81,-341.8"/>
</g>
<!-- Node22 -->
<g id="node22" class="node">
<title>Node22</title>
<g id="a_node22"><a xlink:href="fk20__512test_8cu.html#a4de6443d77d1c56d1d49715061ba60db" target="_top" xlink:title="Executes many FK20 computations on a single row, with a check on each step. A computation failure wil...">
<polygon fill="white" stroke="black" points="257,-342.5 257,-361.5 332,-361.5 332,-342.5 257,-342.5"/>
<text text-anchor="middle" x="294.5" y="-349.5" font-family="Helvetica,sans-Serif" font-size="10.00">fullTest_512</text>
</a>
</g>
</g>
<!-- Node16&#45;&gt;Node22 -->
<g id="edge22" class="edge">
<title>Node16&#45;&gt;Node22</title>
<path fill="none" stroke="midnightblue" d="M394.65,-352C373.79,-352 350.73,-352 332.11,-352"/>
<polygon fill="midnightblue" stroke="midnightblue" points="394.69,-355.5 404.69,-352 394.69,-348.5 394.69,-355.5"/>
</g>
<!-- Node23 -->
<g id="node23" class="node">
<title>Node23</title>
<g id="a_node23"><a xlink:href="fk20__512test_8cu.html#a537be6501bbccff0654c4ca1b2fd83ae" target="_top" xlink:title="Similar to fullTest, but polynomial is has changes done to it. The function checks for false&#45;positive...">
<polygon fill="white" stroke="black" points="229,-456.5 229,-475.5 360,-475.5 360,-456.5 229,-456.5"/>
<text text-anchor="middle" x="294.5" y="-463.5" font-family="Helvetica,sans-Serif" font-size="10.00">fullTestFalseability_512</text>
</a>
</g>
</g>
<!-- Node16&#45;&gt;Node23 -->
<g id="edge24" class="edge">
<title>Node16&#45;&gt;Node23</title>
<path fill="none" stroke="midnightblue" d="M401.65,-366.66C399.65,-367.99 397.76,-369.43 396,-371 368.13,-395.9 388.41,-422.71 360,-447 355.48,-450.87 350.19,-453.95 344.64,-456.41"/>
<polygon fill="midnightblue" stroke="midnightblue" points="403.8,-369.47 410.88,-361.58 400.43,-363.34 403.8,-369.47"/>
</g>
<!-- Node24 -->
<g id="node24" class="node">
<title>Node24</title>
<g id="a_node24"><a xlink:href="fk20test_8cuh.html#a8d2cfb1e9fc0723c345460c7ad438df1" target="_top" xlink:title=" ">
<polygon fill="white" stroke="black" points="239.5,-228.5 239.5,-247.5 349.5,-247.5 349.5,-228.5 239.5,-228.5"/>
<text text-anchor="middle" x="294.5" y="-235.5" font-family="Helvetica,sans-Serif" font-size="10.00">fullTestFalsifiability</text>
</a>
</g>
</g>
<!-- Node16&#45;&gt;Node24 -->
<g id="edge26" class="edge">
<title>Node16&#45;&gt;Node24</title>
<path fill="none" stroke="midnightblue" d="M401.65,-337.34C399.65,-336.01 397.76,-334.57 396,-333 368.13,-308.1 388.41,-281.29 360,-257 355.48,-253.13 350.19,-250.05 344.64,-247.59"/>
<polygon fill="midnightblue" stroke="midnightblue" points="400.43,-340.66 410.88,-342.42 403.8,-334.53 400.43,-340.66"/>
</g>
<!-- Node25 -->
<g id="node25" class="node">
<title>Node25</title>
<g id="a_node25"><a xlink:href="g1test_8cuh.html#af69268816d41d8e3c477c70066f7bfcf" target="_top" xlink:title="Test for FFT and IFFT of points on the G1 curve. Checks self consistency with the following propertie...">
<polygon fill="white" stroke="black" points="261,-418.5 261,-437.5 328,-437.5 328,-418.5 261,-418.5"/>
<text text-anchor="middle" x="294.5" y="-425.5" font-family="Helvetica,sans-Serif" font-size="10.00">G1TestFFT</text>
</a>
</g>
</g>
<!-- Node16&#45;&gt;Node25 -->
<g id="edge28" class="edge">
<title>Node16&#45;&gt;Node25</title>
<path fill="none" stroke="midnightblue" d="M406,-365.5C402.52,-367.15 399.14,-368.98 396,-371 376.43,-383.58 379.84,-396.85 360,-409 350.34,-414.91 338.74,-419.07 328.06,-421.96"/>
<polygon fill="midnightblue" stroke="midnightblue" points="407.54,-368.65 415.39,-361.52 404.81,-362.2 407.54,-368.65"/>
</g>
<!-- Node27 -->
<g id="node27" class="node">
<title>Node27</title>
<g id="a_node27"><a xlink:href="fk20test_8cuh.html#a46da7589b1c0420a0b16d8b3216d7be9" target="_top" xlink:title="Test for g1p_fft: h &#45;&gt; h_fft.">
<polygon fill="white" stroke="black" points="269.5,-494.5 269.5,-513.5 319.5,-513.5 319.5,-494.5 269.5,-494.5"/>
<text text-anchor="middle" x="294.5" y="-501.5" font-family="Helvetica,sans-Serif" font-size="10.00">h2h_fft</text>
</a>
</g>
</g>
<!-- Node16&#45;&gt;Node27 -->
<g id="edge30" class="edge">
<title>Node16&#45;&gt;Node27</title>
<path fill="none" stroke="midnightblue" d="M400.56,-366.98C398.94,-368.21 397.41,-369.55 396,-371 358.88,-409.02 397.93,-447.8 360,-485 349.33,-495.46 333.21,-500.21 319.75,-502.35"/>
<polygon fill="midnightblue" stroke="midnightblue" points="402.59,-369.84 409.26,-361.61 398.92,-363.88 402.59,-369.84"/>
</g>
<!-- Node28 -->
<g id="node28" class="node">
<title>Node28</title>
<g id="a_node28"><a xlink:href="fk20__512test_8cu.html#a5557a90ff06e60795ad4bae5c7ccc262" target="_top" xlink:title="Test for g1p_fft: h &#45;&gt; h_fft&quot;.">
<polygon fill="white" stroke="black" points="98,-513.5 98,-532.5 172,-532.5 172,-513.5 98,-513.5"/>
<text text-anchor="middle" x="135" y="-520.5" font-family="Helvetica,sans-Serif" font-size="10.00">h2h_fft_512</text>
</a>
</g>
</g>
<!-- Node16&#45;&gt;Node28 -->
<g id="edge32" class="edge">
<title>Node16&#45;&gt;Node28</title>
<path fill="none" stroke="midnightblue" d="M399.87,-367.3C398.5,-368.45 397.2,-369.68 396,-371 349.35,-422.42 414.45,-479.94 360,-523 302.65,-568.35 208.73,-547.09 162.88,-532.6"/>
<polygon fill="midnightblue" stroke="midnightblue" points="402.03,-370.07 408.44,-361.64 398.17,-364.23 402.03,-370.07"/>
</g>
<!-- Node29 -->
<g id="node29" class="node">
<title>Node29</title>
<g id="a_node29"><a xlink:href="fk20benchmark_8cu.html#a8cd0ecc09d4a9a4c418184789229b4f6" target="_top" xlink:title="Executes a test of FK20 with one block for each row. At the end, compare if the calculated h_fft is t...">
<polygon fill="white" stroke="black" points="253.5,-304.5 253.5,-323.5 335.5,-323.5 335.5,-304.5 253.5,-304.5"/>
<text text-anchor="middle" x="294.5" y="-311.5" font-family="Helvetica,sans-Serif" font-size="10.00">preBenchTest</text>
</a>
</g>
</g>
<!-- Node16&#45;&gt;Node29 -->
<g id="edge34" class="edge">
<title>Node16&#45;&gt;Node29</title>
<path fill="none" stroke="midnightblue" d="M402.37,-340.03C380.51,-334.71 355.12,-328.52 334.58,-323.52"/>
<polygon fill="midnightblue" stroke="midnightblue" points="401.59,-343.44 412.13,-342.41 403.25,-336.64 401.59,-343.44"/>
</g>
<!-- Node18 -->
<g id="node18" class="node">
<title>Node18</title>
<g id="a_node18"><a xlink:href="fk20__512test_8cu.html#a30719348d219c529d6b43175cecd8427" target="_top" xlink:title="Test for fk20_poly2h_fft: polynomial &#45;&gt; h_fft.">
<polygon fill="white" stroke="black" points="77,-380.5 77,-399.5 193,-399.5 193,-380.5 77,-380.5"/>
<text text-anchor="middle" x="135" y="-387.5" font-family="Helvetica,sans-Serif" font-size="10.00">fk20_poly2h_fft_512</text>
</a>
</g>
</g>
<!-- Node17&#45;&gt;Node18 -->
<g id="edge17" class="edge">
<title>Node17&#45;&gt;Node18</title>
<path fill="none" stroke="midnightblue" d="M238.03,-390C223.51,-390 207.83,-390 193.22,-390"/>
<polygon fill="midnightblue" stroke="midnightblue" points="238.37,-393.5 248.37,-390 238.37,-386.5 238.37,-393.5"/>
</g>
<!-- Node19 -->
<g id="node19" class="node">
<title>Node19</title>
<g id="a_node19"><a xlink:href="fk20__512test_8cu.html#a3c04138a5bfe5d72780bb7e82a18e627" target="_top" xlink:title="Executes a many&#45;row tests on FK20. Behavior is similar to fk20test.cu but using many GPU blocks,...">
<polygon fill="white" stroke="black" points="0,-361.5 0,-380.5 41,-380.5 41,-361.5 0,-361.5"/>
<text text-anchor="middle" x="20.5" y="-368.5" font-family="Helvetica,sans-Serif" font-size="10.00">main</text>
</a>
</g>
</g>
<!-- Node18&#45;&gt;Node19 -->
<g id="edge18" class="edge">
<title>Node18&#45;&gt;Node19</title>
<path fill="none" stroke="midnightblue" d="M67.4,-378.75C57.88,-377.14 48.77,-375.61 41.22,-374.33"/>
<polygon fill="midnightblue" stroke="midnightblue" points="66.98,-382.23 77.42,-380.44 68.14,-375.33 66.98,-382.23"/>
</g>
<!-- Node21 -->
<g id="node21" class="node">
<title>Node21</title>
<g id="a_node21"><a xlink:href="fk20test_8cuh.html#a3f978e98c96e45785d60ed0d96689521" target="_top" xlink:title=" ">
<polygon fill="white" stroke="black" points="94,-228.5 94,-247.5 176,-247.5 176,-228.5 94,-228.5"/>
<text text-anchor="middle" x="135" y="-235.5" font-family="Helvetica,sans-Serif" font-size="10.00">FK20TestPoly</text>
</a>
</g>
</g>
<!-- Node20&#45;&gt;Node21 -->
<g id="edge20" class="edge">
<title>Node20&#45;&gt;Node21</title>
<path fill="none" stroke="midnightblue" d="M258.21,-267.49C233.63,-261.55 200.82,-253.64 175.39,-247.5"/>
<polygon fill="midnightblue" stroke="midnightblue" points="257.65,-270.95 268.19,-269.89 259.29,-264.15 257.65,-270.95"/>
</g>
<!-- Node21&#45;&gt;Node12 -->
<g id="edge21" class="edge">
<title>Node21&#45;&gt;Node12</title>
<path fill="none" stroke="midnightblue" d="M90.63,-224.97C85.95,-223.14 81.33,-221.15 77,-219 61.1,-211.1 44.52,-199.19 33.67,-190.81"/>
<polygon fill="midnightblue" stroke="midnightblue" points="89.62,-228.33 100.22,-228.47 92.03,-221.75 89.62,-228.33"/>
</g>
<!-- Node22&#45;&gt;Node19 -->
<g id="edge23" class="edge">
<title>Node22&#45;&gt;Node19</title>
<path fill="none" stroke="midnightblue" d="M246.77,-355.26C186.3,-359.49 83.68,-366.66 41.01,-369.64"/>
<polygon fill="midnightblue" stroke="midnightblue" points="247.09,-358.75 256.82,-354.56 246.6,-351.77 247.09,-358.75"/>
</g>
<!-- Node23&#45;&gt;Node19 -->
<g id="edge25" class="edge">
<title>Node23&#45;&gt;Node19</title>
<path fill="none" stroke="midnightblue" d="M218.71,-474.25C174.78,-475.62 119.68,-471.09 77,-447 49.97,-431.74 32.49,-397.27 25.27,-380.51"/>
<polygon fill="midnightblue" stroke="midnightblue" points="218.92,-477.74 228.76,-473.82 218.63,-470.75 218.92,-477.74"/>
</g>
<!-- Node24&#45;&gt;Node21 -->
<g id="edge27" class="edge">
<title>Node24&#45;&gt;Node21</title>
<path fill="none" stroke="midnightblue" d="M228.96,-238C211.17,-238 192.37,-238 176.37,-238"/>
<polygon fill="midnightblue" stroke="midnightblue" points="229.3,-241.5 239.3,-238 229.3,-234.5 229.3,-241.5"/>
</g>
<!-- Node26 -->
<g id="node26" class="node">
<title>Node26</title>
<g id="a_node26"><a xlink:href="g1test_8cu.html#a3c04138a5bfe5d72780bb7e82a18e627" target="_top" xlink:title="Test for points in G1.">
<polygon fill="white" stroke="black" points="114.5,-418.5 114.5,-437.5 155.5,-437.5 155.5,-418.5 114.5,-418.5"/>
<text text-anchor="middle" x="135" y="-425.5" font-family="Helvetica,sans-Serif" font-size="10.00">main</text>
</a>
</g>
</g>
<!-- Node25&#45;&gt;Node26 -->
<g id="edge29" class="edge">
<title>Node25&#45;&gt;Node26</title>
<path fill="none" stroke="midnightblue" d="M250.76,-428C219.79,-428 179.35,-428 155.67,-428"/>
<polygon fill="midnightblue" stroke="midnightblue" points="250.87,-431.5 260.87,-428 250.87,-424.5 250.87,-431.5"/>
</g>
<!-- Node27&#45;&gt;Node11 -->
<g id="edge31" class="edge">
<title>Node27&#45;&gt;Node11</title>
<path fill="none" stroke="midnightblue" d="M259.26,-501.45C248.02,-498.86 236.49,-494 229,-485 131.17,-367.57 288.74,-262.14 193,-143 188.16,-136.98 181.36,-132.86 174.13,-130.03"/>
<polygon fill="midnightblue" stroke="midnightblue" points="258.93,-504.94 269.38,-503.24 260.15,-498.05 258.93,-504.94"/>
</g>
<!-- Node28&#45;&gt;Node19 -->
<g id="edge33" class="edge">
<title>Node28&#45;&gt;Node19</title>
<path fill="none" stroke="midnightblue" d="M108.79,-507.69C98.05,-500.28 85.96,-490.69 77,-480 50.12,-447.94 31.75,-400.68 24.7,-380.59"/>
<polygon fill="midnightblue" stroke="midnightblue" points="107.13,-510.78 117.4,-513.36 110.98,-504.94 107.13,-510.78"/>
</g>
<!-- Node31&#45;&gt;Node9 -->
<g id="edge37" class="edge">
<title>Node31&#45;&gt;Node9</title>
<path fill="none" stroke="midnightblue" d="M546.92,-265.84C527.82,-260.15 504.15,-253.09 485.41,-247.51"/>
<polygon fill="midnightblue" stroke="midnightblue" points="546.13,-269.26 556.72,-268.76 548.13,-262.55 546.13,-269.26"/>
</g>
<!-- Node31&#45;&gt;Node15 -->
<g id="edge39" class="edge">
<title>Node31&#45;&gt;Node15</title>
<path fill="none" stroke="midnightblue" d="M546.92,-286.16C527.82,-291.85 504.15,-298.91 485.41,-304.49"/>
<polygon fill="midnightblue" stroke="midnightblue" points="548.13,-289.45 556.72,-283.24 546.13,-282.74 548.13,-289.45"/>
</g>
<!-- Node32 -->
<g id="node32" class="node">
<title>Node32</title>
<g id="a_node32"><a xlink:href="fk20_8cu.html#a831e7b7d95cdaf1032d1904977b749d9" target="_top" xlink:title="hext_fft &#45;&gt; hext">
<polygon fill="white" stroke="black" points="398,-190.5 398,-209.5 507,-209.5 507,-190.5 398,-190.5"/>
<text text-anchor="middle" x="452.5" y="-197.5" font-family="Helvetica,sans-Serif" font-size="10.00">fk20_hext_fft2hext</text>
</a>
</g>
</g>
<!-- Node31&#45;&gt;Node32 -->
<g id="edge38" class="edge">
<title>Node31&#45;&gt;Node32</title>
<path fill="none" stroke="midnightblue" d="M551.4,-261.41C549.18,-260.01 547.02,-258.53 545,-257 526.47,-242.94 528.57,-231.58 509,-219 503.09,-215.2 496.33,-212.07 489.61,-209.52"/>
<polygon fill="midnightblue" stroke="midnightblue" points="549.7,-264.47 560.11,-266.45 553.21,-258.42 549.7,-264.47"/>
</g>
<!-- Node33 -->
<g id="node33" class="node">
<title>Node33</title>
<g id="a_node33"><a xlink:href="g1_8cuh.html#aa99a1625656fd85f384889a39bf8067f" target="_top" xlink:title="wrapper for g1p_ift: inverse FFT for arrays of g1p_t with length 512">
<polygon fill="white" stroke="black" points="405,-266.5 405,-285.5 500,-285.5 500,-266.5 405,-266.5"/>
<text text-anchor="middle" x="452.5" y="-273.5" font-family="Helvetica,sans-Serif" font-size="10.00">g1p_ift_wrapper</text>
</a>
</g>
</g>
<!-- Node31&#45;&gt;Node33 -->
<g id="edge40" class="edge">
<title>Node31&#45;&gt;Node33</title>
<path fill="none" stroke="midnightblue" d="M546.38,-276C532.14,-276 515.44,-276 500.15,-276"/>
<polygon fill="midnightblue" stroke="midnightblue" points="546.72,-279.5 556.72,-276 546.72,-272.5 546.72,-279.5"/>
</g>
<!-- Node33&#45;&gt;Node17 -->
<g id="edge41" class="edge">
<title>Node33&#45;&gt;Node17</title>
<path fill="none" stroke="midnightblue" d="M401.65,-290.66C399.65,-291.99 397.76,-293.43 396,-295 368.13,-319.9 388.41,-346.71 360,-371 354.41,-375.78 347.67,-379.36 340.67,-382.04"/>
<polygon fill="midnightblue" stroke="midnightblue" points="403.8,-293.47 410.88,-285.58 400.43,-287.34 403.8,-293.47"/>
</g>
<!-- Node33&#45;&gt;Node20 -->
<g id="edge42" class="edge">
<title>Node33&#45;&gt;Node20</title>
<path fill="none" stroke="midnightblue" d="M394.41,-276C369.01,-276 340.41,-276 320.53,-276"/>
<polygon fill="midnightblue" stroke="midnightblue" points="394.69,-279.5 404.69,-276 394.69,-272.5 394.69,-279.5"/>
</g>
<!-- Node33&#45;&gt;Node22 -->
<g id="edge43" class="edge">
<title>Node33&#45;&gt;Node22</title>
<path fill="none" stroke="midnightblue" d="M406,-289.5C402.52,-291.15 399.14,-292.98 396,-295 376.43,-307.58 379.84,-320.85 360,-333 351.54,-338.18 341.58,-342.02 332.06,-344.83"/>
<polygon fill="midnightblue" stroke="midnightblue" points="407.54,-292.65 415.39,-285.52 404.81,-286.2 407.54,-292.65"/>
</g>
<!-- Node33&#45;&gt;Node23 -->
<g id="edge44" class="edge">
<title>Node33&#45;&gt;Node23</title>
<path fill="none" stroke="midnightblue" d="M399.87,-291.3C398.5,-292.45 397.2,-293.68 396,-295 349.35,-346.42 407.75,-396.6 360,-447 356.31,-450.9 351.86,-454.01 347.04,-456.49"/>
<polygon fill="midnightblue" stroke="midnightblue" points="402.03,-294.07 408.44,-285.64 398.17,-288.23 402.03,-294.07"/>
</g>
<!-- Node33&#45;&gt;Node24 -->
<g id="edge45" class="edge">
<title>Node33&#45;&gt;Node24</title>
<path fill="none" stroke="midnightblue" d="M402.37,-264.03C380.51,-258.71 355.12,-252.52 334.58,-247.52"/>
<polygon fill="midnightblue" stroke="midnightblue" points="401.59,-267.44 412.13,-266.41 403.25,-260.64 401.59,-267.44"/>
</g>
<!-- Node33&#45;&gt;Node25 -->
<g id="edge46" class="edge">
<title>Node33&#45;&gt;Node25</title>
<path fill="none" stroke="midnightblue" d="M400.56,-290.98C398.94,-292.21 397.41,-293.55 396,-295 358.88,-333.02 397.93,-371.8 360,-409 351.5,-417.34 339.53,-422.05 328.21,-424.7"/>
<polygon fill="midnightblue" stroke="midnightblue" points="402.59,-293.84 409.26,-285.61 398.92,-287.88 402.59,-293.84"/>
</g>
<!-- Node33&#45;&gt;Node29 -->
<g id="edge55" class="edge">
<title>Node33&#45;&gt;Node29</title>
<path fill="none" stroke="midnightblue" d="M402.37,-287.97C380.51,-293.29 355.12,-299.48 334.58,-304.48"/>
<polygon fill="midnightblue" stroke="midnightblue" points="403.25,-291.36 412.13,-285.59 401.59,-284.56 403.25,-291.36"/>
</g>
<!-- Node34 -->
<g id="node34" class="node">
<title>Node34</title>
<g id="a_node34"><a xlink:href="fk20test_8cuh.html#a060c821b96d17d587425957709eec75b" target="_top" xlink:title="Test for g1p_ift: h_fft &#45;&gt; h.">
<polygon fill="white" stroke="black" points="269.5,-114.5 269.5,-133.5 319.5,-133.5 319.5,-114.5 269.5,-114.5"/>
<text text-anchor="middle" x="294.5" y="-121.5" font-family="Helvetica,sans-Serif" font-size="10.00">h_fft2h</text>
</a>
</g>
</g>
<!-- Node33&#45;&gt;Node34 -->
<g id="edge47" class="edge">
<title>Node33&#45;&gt;Node34</title>
<path fill="none" stroke="midnightblue" d="M400.68,-261.07C399.02,-259.82 397.45,-258.47 396,-257 360.12,-220.73 395.4,-184.74 360,-148 349.39,-136.99 333.26,-130.99 319.79,-127.74"/>
<polygon fill="midnightblue" stroke="midnightblue" points="399.23,-264.28 409.59,-266.48 402.86,-258.3 399.23,-264.28"/>
</g>
<!-- Node35 -->
<g id="node35" class="node">
<title>Node35</title>
<g id="a_node35"><a xlink:href="fk20__512test_8cu.html#ae55f2f625c11ad82f77b72b3a42c47ca" target="_top" xlink:title="Test for g1p_ift: h_fft &#45;&gt; h.">
<polygon fill="white" stroke="black" points="98,-190.5 98,-209.5 172,-209.5 172,-190.5 98,-190.5"/>
<text text-anchor="middle" x="135" y="-197.5" font-family="Helvetica,sans-Serif" font-size="10.00">h_fft2h_512</text>
</a>
</g>
</g>
<!-- Node33&#45;&gt;Node35 -->
<g id="edge49" class="edge">
<title>Node33&#45;&gt;Node35</title>
<path fill="none" stroke="midnightblue" d="M406,-262.5C402.52,-260.85 399.14,-259.02 396,-257 376.43,-244.42 380.96,-229.09 360,-219 299.16,-189.72 218.25,-191.34 172.18,-195.46"/>
<polygon fill="midnightblue" stroke="midnightblue" points="404.81,-265.8 415.39,-266.48 407.54,-259.35 404.81,-265.8"/>
</g>
<!-- Node36 -->
<g id="node36" class="node">
<title>Node36</title>
<g id="a_node36"><a xlink:href="fk20test_8cuh.html#af23866ba0e5030142bbb04cbcfd4da05" target="_top" xlink:title="Test for g1p_ift: hext_fft &#45;&gt; h.">
<polygon fill="white" stroke="black" points="261.5,-76.5 261.5,-95.5 327.5,-95.5 327.5,-76.5 261.5,-76.5"/>
<text text-anchor="middle" x="294.5" y="-83.5" font-family="Helvetica,sans-Serif" font-size="10.00">hext_fft2h</text>
</a>
</g>
</g>
<!-- Node33&#45;&gt;Node36 -->
<g id="edge51" class="edge">
<title>Node33&#45;&gt;Node36</title>
<path fill="none" stroke="midnightblue" d="M399.87,-260.7C398.5,-259.55 397.2,-258.32 396,-257 349.35,-205.58 407.75,-155.4 360,-105 351.57,-96.1 339.2,-91.31 327.55,-88.75"/>
<polygon fill="midnightblue" stroke="midnightblue" points="398.17,-263.77 408.44,-266.36 402.03,-257.93 398.17,-263.77"/>
</g>
<!-- Node37 -->
<g id="node37" class="node">
<title>Node37</title>
<g id="a_node37"><a xlink:href="fk20__512test_8cu.html#a9853234576c41f6afaa313c55cca4a4b" target="_top" xlink:title="Test for g1p_ift: hext_fft &#45;&gt; h.">
<polygon fill="white" stroke="black" points="90.5,-152.5 90.5,-171.5 179.5,-171.5 179.5,-152.5 90.5,-152.5"/>
<text text-anchor="middle" x="135" y="-159.5" font-family="Helvetica,sans-Serif" font-size="10.00">hext_fft2h_512</text>
</a>
</g>
</g>
<!-- Node33&#45;&gt;Node37 -->
<g id="edge53" class="edge">
<title>Node33&#45;&gt;Node37</title>
<path fill="none" stroke="midnightblue" d="M402.43,-261.68C400.16,-260.26 398,-258.71 396,-257 370,-234.79 388.19,-208.36 360,-189 306.41,-152.18 228.13,-151.76 179.72,-156.01"/>
<polygon fill="midnightblue" stroke="midnightblue" points="401.12,-264.95 411.6,-266.5 404.37,-258.75 401.12,-264.95"/>
</g>
<!-- Node34&#45;&gt;Node11 -->
<g id="edge48" class="edge">
<title>Node34&#45;&gt;Node11</title>
<path fill="none" stroke="midnightblue" d="M259.08,-124C233.99,-124 200,-124 174.1,-124"/>
<polygon fill="midnightblue" stroke="midnightblue" points="259.24,-127.5 269.24,-124 259.24,-120.5 259.24,-127.5"/>
</g>
<!-- Node35&#45;&gt;Node19 -->
<g id="edge50" class="edge">
<title>Node35&#45;&gt;Node19</title>
<path fill="none" stroke="midnightblue" d="M88.39,-210.85C84.22,-213.08 80.33,-215.76 77,-219 35.1,-259.73 24.65,-334.62 22.2,-361.27"/>
<polygon fill="midnightblue" stroke="midnightblue" points="90.09,-213.92 97.82,-206.67 87.26,-207.52 90.09,-213.92"/>
</g>
<!-- Node36&#45;&gt;Node11 -->
<g id="edge52" class="edge">
<title>Node36&#45;&gt;Node11</title>
<path fill="none" stroke="midnightblue" d="M251.33,-96.17C227.28,-101.98 197.37,-109.19 174.04,-114.82"/>
<polygon fill="midnightblue" stroke="midnightblue" points="252.35,-99.53 261.25,-93.78 250.71,-92.72 252.35,-99.53"/>
</g>
<!-- Node37&#45;&gt;Node19 -->
<g id="edge54" class="edge">
<title>Node37&#45;&gt;Node19</title>
<path fill="none" stroke="midnightblue" d="M81.55,-176.93C79.94,-178.18 78.41,-179.53 77,-181 26.22,-233.72 21.52,-330.24 21.37,-361.18"/>
<polygon fill="midnightblue" stroke="midnightblue" points="83.62,-179.77 90.27,-171.52 79.93,-173.83 83.62,-179.77"/>
</g>
</g>
</svg>
        <g id="navigator" transform="translate(0 0)" fill="#404254">
                <rect fill="#f2f5e9" fill-opacity="0.5" stroke="#606060" stroke-width=".5" x="0" y="0" width="60" height="60"/>
                <use id="zoomplus" xlink:href="#zoomPlus" x="17" y="9" onmousedown="handleZoom(evt,'in')"/>
                <use id="zoomminus" xlink:href="#zoomMin" x="42" y="9" onmousedown="handleZoom(evt,'out')"/>
                <use id="reset" xlink:href="#resetDef" x="30" y="36" onmousedown="handleReset()"/>
                <g id="arrowUp" xlink:href="#dirArrow" transform="translate(30 24)" onmousedown="handlePan(0,-1)">
                  <use xlink:href="#rim" fill="#404040">
                        <set attributeName="fill" to="#808080" begin="arrowUp.mouseover" end="arrowUp.mouseout"/>
                  </use>
                  <path fill="none" stroke="white" stroke-width="1.5" d="M0,-3.0v7 M-2.5,-0.5L0,-3.0L2.5,-0.5"/>
                </g>
                <g id="arrowRight" xlink:href="#dirArrow" transform="rotate(90) translate(36 -43)" onmousedown="handlePan(1,0)">
                  <use xlink:href="#rim" fill="#404040">
                        <set attributeName="fill" to="#808080" begin="arrowRight.mouseover" end="arrowRight.mouseout"/>
                  </use>
                  <path fill="none" stroke="white" stroke-width="1.5" d="M0,-3.0v7 M-2.5,-0.5L0,-3.0L2.5,-0.5"/>
                </g>
                <g id="arrowDown" xlink:href="#dirArrow" transform="rotate(180) translate(-30 -48)" onmousedown="handlePan(0,1)">
                  <use xlink:href="#rim" fill="#404040">
                        <set attributeName="fill" to="#808080" begin="arrowDown.mouseover" end="arrowDown.mouseout"/>
                  </use>
                  <path fill="none" stroke="white" stroke-width="1.5" d="M0,-3.0v7 M-2.5,-0.5L0,-3.0L2.5,-0.5"/>
                </g>
                <g id="arrowLeft" xlink:href="#dirArrow" transform="rotate(270) translate(-36 17)" onmousedown="handlePan(-1,0)">
                  <use xlink:href="#rim" fill="#404040">
                        <set attributeName="fill" to="#808080" begin="arrowLeft.mouseover" end="arrowLeft.mouseout"/>
                  </use>
                  <path fill="none" stroke="white" stroke-width="1.5" d="M0,-3.0v7 M-2.5,-0.5L0,-3.0L2.5,-0.5"/>
                </g>
        </g>
        <svg viewBox="0 0 15 15" width="100%" height="30px" preserveAspectRatio="xMaxYMin meet">
         <g id="arrow_out" transform="scale(0.3 0.3)">
          <a xlink:href="g1_8cuh_aefda685f50e444161695d95042c312d5_icgraph_org.svg" target="_base">
           <rect id="button" ry="5" rx="5" y="6" x="6" height="38" width="38"
                fill="#f2f5e9" fill-opacity="0.5" stroke="#606060" stroke-width="1.0"/>
           <path id="arrow"
             d="M 11.500037,31.436501 C 11.940474,20.09759 22.043105,11.32322 32.158766,21.979434 L 37.068811,17.246167 C 37.068811,17.246167 37.088388,32 37.088388,32 L 22.160133,31.978069 C 22.160133,31.978069 26.997745,27.140456 26.997745,27.140456 C 18.528582,18.264221 13.291696,25.230495 11.500037,31.436501 z"
             style="fill:#404040;"/>
          </a>
         </g>
        </svg>
</svg>
