<?xml version="1.0" encoding="UTF-8" standalone="no"?>
<!DOCTYPE svg PUBLIC "-//W3C//DTD SVG 1.1//EN"
 "http://www.w3.org/Graphics/SVG/1.1/DTD/svg11.dtd">
<!-- Generated by graphviz version 2.43.0 (0)
 -->
<!-- Title: g1.cuh Pages: 1 -->
<!--zoomable 151 -->
<svg id="main" version="1.1" xmlns="http://www.w3.org/2000/svg" xmlns:xlink="http://www.w3.org/1999/xlink" xml:space="preserve" onload="init(evt)">
<style type="text/css"><![CDATA[
.edge:hover path { stroke: red; }
.edge:hover polygon { stroke: red; fill: red; }
]]></style>
<script type="text/javascript"><![CDATA[
var edges = document.getElementsByTagName('g');
if (edges && edges.length) {
  for (var i=0;i<edges.length;i++) {
    if (edges[i].id.substr(0,4)=='edge') {
      edges[i].setAttribute('class','edge');
    }
  }
}
]]></script>
        <defs>
                <circle id="rim" cx="0" cy="0" r="7"/>
                <circle id="rim2" cx="0" cy="0" r="3.5"/>
                <g id="zoomPlus">
                        <use xlink:href="#rim" fill="#404040">
                                <set attributeName="fill" to="#808080" begin="zoomplus.mouseover" end="zoomplus.mouseout"/>
                        </use>
                        <path d="M-4,0h8M0,-4v8" fill="none" stroke="white" stroke-width="1.5" pointer-events="none"/>
                </g>
                <g id="zoomMin">
                        <use xlink:href="#rim" fill="#404040">
                                <set attributeName="fill" to="#808080" begin="zoomminus.mouseover" end="zoomminus.mouseout"/>
                        </use>
                        <path d="M-4,0h8" fill="none" stroke="white" stroke-width="1.5" pointer-events="none"/>
                </g>
                <g id="dirArrow">
                        <path fill="none" stroke="white" stroke-width="1.5" d="M0,-3.0v7 M-2.5,-0.5L0,-3.0L2.5,-0.5"/>
                </g>
               <g id="resetDef">
                       <use xlink:href="#rim2" fill="#404040">
                               <set attributeName="fill" to="#808080" begin="reset.mouseover" end="reset.mouseout"/>
                       </use>
               </g>
        </defs>

<script type="text/javascript">
var viewWidth = 2981;
var viewHeight = 151;
var sectionId = 'dynsection-1';
</script>
<script xlink:href="svgpan.js"/>
<svg id="graph" class="graph">
<g id="viewport">
<title>g1.cuh</title>
<polygon fill="white" stroke="transparent" points="-4,4 -4,-147 2976.5,-147 2976.5,4 -4,4"/>
<!-- Node1 -->
<g id="node1" class="node">
<title>Node1</title>
<g id="a_node1"><a xlink:title=" ">
<polygon fill="#bfbfbf" stroke="black" points="1467,-123.5 1467,-142.5 1516,-142.5 1516,-123.5 1467,-123.5"/>
<text text-anchor="middle" x="1491.5" y="-130.5" font-family="Helvetica,sans-Serif" font-size="10.00">g1.cuh</text>
</a>
</g>
</g>
<!-- Node2 -->
<g id="node2" class="node">
<title>Node2</title>
<g id="a_node2"><a xlink:href="fft_test_8cu.html" target="_top" xlink:title=" ">
<polygon fill="white" stroke="black" points="0,-6 0,-25 61,-25 61,-6 0,-6"/>
<text text-anchor="middle" x="30.5" y="-13" font-family="Helvetica,sans-Serif" font-size="10.00">fftTest.cu</text>
</a>
</g>
</g>
<!-- Node1&#45;&gt;Node2 -->
<g id="edge1" class="edge">
<title>Node1&#45;&gt;Node2</title>
<path fill="none" stroke="midnightblue" d="M1456.72,-131.8C1283.27,-130.63 510.63,-123.43 273.5,-87 190.14,-74.19 95.13,-40.94 52.84,-25.11"/>
<polygon fill="midnightblue" stroke="midnightblue" points="1456.8,-135.3 1466.82,-131.86 1456.84,-128.3 1456.8,-135.3"/>
</g>
<!-- Node3 -->
<g id="node3" class="node">
<title>Node3</title>
<g id="a_node3"><a xlink:href="fk20_8cu.html" target="_top" xlink:title=" ">
<polygon fill="white" stroke="black" points="79,-6 79,-25 132,-25 132,-6 79,-6"/>
<text text-anchor="middle" x="105.5" y="-13" font-family="Helvetica,sans-Serif" font-size="10.00">fk20.cu</text>
</a>
</g>
</g>
<!-- Node1&#45;&gt;Node3 -->
<g id="edge2" class="edge">
<title>Node1&#45;&gt;Node3</title>
<path fill="none" stroke="midnightblue" d="M1456.59,-131.32C1294.97,-128.07 618.43,-113.11 408.5,-87 287.75,-71.98 256.77,-66.89 140.5,-31 135.22,-29.37 129.64,-27.25 124.52,-25.13"/>
<polygon fill="midnightblue" stroke="midnightblue" points="1456.83,-134.83 1466.9,-131.53 1456.97,-127.83 1456.83,-134.83"/>
</g>
<!-- Node4 -->
<g id="node4" class="node">
<title>Node4</title>
<g id="a_node4"><a xlink:href="fk20_8cuh.html" target="_top" xlink:title=" ">
<polygon fill="white" stroke="black" points="1056,-67.5 1056,-86.5 1115,-86.5 1115,-67.5 1056,-67.5"/>
<text text-anchor="middle" x="1085.5" y="-74.5" font-family="Helvetica,sans-Serif" font-size="10.00">fk20.cuh</text>
</a>
</g>
</g>
<!-- Node1&#45;&gt;Node4 -->
<g id="edge3" class="edge">
<title>Node1&#45;&gt;Node4</title>
<path fill="none" stroke="midnightblue" d="M1456.78,-128.6C1392.14,-122.06 1249.08,-106.63 1129.5,-87 1124.88,-86.24 1120.01,-85.35 1115.26,-84.42"/>
<polygon fill="midnightblue" stroke="midnightblue" points="1456.53,-132.09 1466.82,-129.6 1457.22,-125.12 1456.53,-132.09"/>
</g>
<!-- Node5 -->
<g id="node5" class="node">
<title>Node5</title>
<g id="a_node5"><a xlink:href="fk20__512test_8cu.html" target="_top" xlink:title=" ">
<polygon fill="white" stroke="black" points="150,-6 150,-25 245,-25 245,-6 150,-6"/>
<text text-anchor="middle" x="197.5" y="-13" font-family="Helvetica,sans-Serif" font-size="10.00">fk20_512test.cu</text>
</a>
</g>
</g>
<!-- Node1&#45;&gt;Node5 -->
<g id="edge23" class="edge">
<title>Node1&#45;&gt;Node5</title>
<path fill="none" stroke="midnightblue" d="M1456.84,-132.25C1331.8,-132.75 892.4,-131.07 533.5,-87 420.21,-73.09 288.4,-40.54 229.17,-25.02"/>
<polygon fill="midnightblue" stroke="midnightblue" points="1456.98,-135.75 1466.96,-132.2 1456.94,-128.75 1456.98,-135.75"/>
</g>
<!-- Node6 -->
<g id="node6" class="node">
<title>Node6</title>
<g id="a_node6"><a xlink:href="fk20__hext__fft2h__fft_8cu.html" target="_top" xlink:title=" ">
<polygon fill="white" stroke="black" points="263,-6 263,-25 386,-25 386,-6 263,-6"/>
<text text-anchor="middle" x="324.5" y="-13" font-family="Helvetica,sans-Serif" font-size="10.00">fk20_hext_fft2h_fft.cu</text>
</a>
</g>
</g>
<!-- Node1&#45;&gt;Node6 -->
<g id="edge24" class="edge">
<title>Node1&#45;&gt;Node6</title>
<path fill="none" stroke="midnightblue" d="M1456.66,-132.2C1340.63,-132.42 956.92,-129.65 643.5,-87 536.16,-72.39 411.42,-40.34 354.99,-25"/>
<polygon fill="midnightblue" stroke="midnightblue" points="1456.74,-135.7 1466.73,-132.17 1456.72,-128.7 1456.74,-135.7"/>
</g>
<!-- Node7 -->
<g id="node7" class="node">
<title>Node7</title>
<g id="a_node7"><a xlink:href="fk20__msm_8cu.html" target="_top" xlink:title=" ">
<polygon fill="white" stroke="black" points="404,-6 404,-25 487,-25 487,-6 404,-6"/>
<text text-anchor="middle" x="445.5" y="-13" font-family="Helvetica,sans-Serif" font-size="10.00">fk20_msm.cu</text>
</a>
</g>
</g>
<!-- Node1&#45;&gt;Node7 -->
<g id="edge25" class="edge">
<title>Node1&#45;&gt;Node7</title>
<path fill="none" stroke="midnightblue" d="M1456.89,-131.62C1352.1,-130.08 1029.26,-122.57 764.5,-87 643.47,-70.74 614.01,-60.47 495.5,-31 488.31,-29.21 480.59,-27.08 473.43,-25.01"/>
<polygon fill="midnightblue" stroke="midnightblue" points="1456.85,-135.12 1466.9,-131.75 1456.95,-128.12 1456.85,-135.12"/>
</g>
<!-- Node8 -->
<g id="node8" class="node">
<title>Node8</title>
<g id="a_node8"><a xlink:href="fk20__poly2h__fft_8cu.html" target="_top" xlink:title=" ">
<polygon fill="white" stroke="black" points="505,-6 505,-25 612,-25 612,-6 505,-6"/>
<text text-anchor="middle" x="558.5" y="-13" font-family="Helvetica,sans-Serif" font-size="10.00">fk20_poly2h_fft.cu</text>
</a>
</g>
</g>
<!-- Node1&#45;&gt;Node8 -->
<g id="edge26" class="edge">
<title>Node1&#45;&gt;Node8</title>
<path fill="none" stroke="midnightblue" d="M1456.76,-131.26C1362.37,-128.87 1093.45,-119.5 872.5,-87 767.48,-71.55 645.38,-40.2 589.41,-25.06"/>
<polygon fill="midnightblue" stroke="midnightblue" points="1456.8,-134.76 1466.88,-131.51 1456.97,-127.77 1456.8,-134.76"/>
</g>
<!-- Node9 -->
<g id="node9" class="node">
<title>Node9</title>
<g id="a_node9"><a xlink:href="fk20__poly2hext__fft_8cu.html" target="_top" xlink:title=" ">
<polygon fill="white" stroke="black" points="630.5,-6 630.5,-25 752.5,-25 752.5,-6 630.5,-6"/>
<text text-anchor="middle" x="691.5" y="-13" font-family="Helvetica,sans-Serif" font-size="10.00">fk20_poly2hext_fft.cu</text>
</a>
</g>
</g>
<!-- Node1&#45;&gt;Node9 -->
<g id="edge27" class="edge">
<title>Node1&#45;&gt;Node9</title>
<path fill="none" stroke="midnightblue" d="M1456.77,-130.97C1372.51,-128.05 1150.76,-117.82 968.5,-87 875.54,-71.28 767.98,-40.06 718.7,-25.01"/>
<polygon fill="midnightblue" stroke="midnightblue" points="1456.7,-134.47 1466.81,-131.31 1456.94,-127.47 1456.7,-134.47"/>
</g>
<!-- Node10 -->
<g id="node10" class="node">
<title>Node10</title>
<g id="a_node10"><a xlink:href="fk20__poly2toeplitz__coefficients_8cu.html" target="_top" xlink:title=" ">
<polygon fill="white" stroke="black" points="771,-0.5 771,-30.5 878,-30.5 878,-0.5 771,-0.5"/>
<text text-anchor="start" x="779" y="-18.5" font-family="Helvetica,sans-Serif" font-size="10.00">fk20_poly2toeplitz</text>
<text text-anchor="middle" x="824.5" y="-7.5" font-family="Helvetica,sans-Serif" font-size="10.00">_coefficients.cu</text>
</a>
</g>
</g>
<!-- Node1&#45;&gt;Node10 -->
<g id="edge28" class="edge">
<title>Node1&#45;&gt;Node10</title>
<path fill="none" stroke="midnightblue" d="M1456.25,-130.91C1380.5,-128.02 1196.88,-118.13 1046.5,-87 979.58,-73.15 904.27,-46.86 860.8,-30.59"/>
<polygon fill="midnightblue" stroke="midnightblue" points="1456.5,-134.42 1466.62,-131.28 1456.76,-127.42 1456.5,-134.42"/>
</g>
<!-- Node12 -->
<g id="node12" class="node">
<title>Node12</title>
<g id="a_node12"><a xlink:href="fk20benchmark_8cu.html" target="_top" xlink:title=" ">
<polygon fill="white" stroke="black" points="1239,-6 1239,-25 1346,-25 1346,-6 1239,-6"/>
<text text-anchor="middle" x="1292.5" y="-13" font-family="Helvetica,sans-Serif" font-size="10.00">fk20benchmark.cu</text>
</a>
</g>
</g>
<!-- Node1&#45;&gt;Node12 -->
<g id="edge30" class="edge">
<title>Node1&#45;&gt;Node12</title>
<path fill="none" stroke="midnightblue" d="M1456.63,-131.71C1389.28,-130.32 1245.21,-123.11 1214.5,-87 1193.33,-62.11 1239.9,-37.56 1269.83,-25.04"/>
<polygon fill="midnightblue" stroke="midnightblue" points="1456.69,-135.21 1466.75,-131.88 1456.81,-128.21 1456.69,-135.21"/>
</g>
<!-- Node13 -->
<g id="node13" class="node">
<title>Node13</title>
<g id="a_node13"><a xlink:href="fk20test_8cu.html" target="_top" xlink:title=" ">
<polygon fill="white" stroke="black" points="1364,-6 1364,-25 1435,-25 1435,-6 1364,-6"/>
<text text-anchor="middle" x="1399.5" y="-13" font-family="Helvetica,sans-Serif" font-size="10.00">fk20test.cu</text>
</a>
</g>
</g>
<!-- Node1&#45;&gt;Node13 -->
<g id="edge31" class="edge">
<title>Node1&#45;&gt;Node13</title>
<path fill="none" stroke="midnightblue" d="M1456.62,-131.19C1393.29,-128.89 1263.34,-120.16 1235.5,-87 1180.83,-21.89 1181.86,-84.92 1354.5,-31 1360.61,-29.09 1367.18,-27 1373.35,-25.01"/>
<polygon fill="midnightblue" stroke="midnightblue" points="1456.8,-134.69 1466.91,-131.52 1457.03,-127.7 1456.8,-134.69"/>
</g>
<!-- Node14 -->
<g id="node14" class="node">
<title>Node14</title>
<g id="a_node14"><a xlink:href="fk20test__fft_8cu.html" target="_top" xlink:title=" ">
<polygon fill="white" stroke="black" points="1453,-6 1453,-25 1540,-25 1540,-6 1453,-6"/>
<text text-anchor="middle" x="1496.5" y="-13" font-family="Helvetica,sans-Serif" font-size="10.00">fk20test_fft.cu</text>
</a>
</g>
</g>
<!-- Node1&#45;&gt;Node14 -->
<g id="edge32" class="edge">
<title>Node1&#45;&gt;Node14</title>
<path fill="none" stroke="midnightblue" d="M1456.79,-130.97C1395.09,-128.34 1270.28,-119.07 1243.5,-87 1237.8,-80.18 1237.8,-73.82 1243.5,-67 1272.47,-32.35 1399.46,-40.97 1443.5,-31 1451.22,-29.25 1459.51,-27.11 1467.18,-25.02"/>
<polygon fill="midnightblue" stroke="midnightblue" points="1456.7,-134.47 1466.83,-131.37 1456.98,-127.48 1456.7,-134.47"/>
</g>
<!-- Node15 -->
<g id="node15" class="node">
<title>Node15</title>
<g id="a_node15"><a xlink:href="fk20test__fft__rand_8cu.html" target="_top" xlink:title=" ">
<polygon fill="white" stroke="black" points="1558.5,-6 1558.5,-25 1672.5,-25 1672.5,-6 1558.5,-6"/>
<text text-anchor="middle" x="1615.5" y="-13" font-family="Helvetica,sans-Serif" font-size="10.00">fk20test_fft_rand.cu</text>
</a>
</g>
</g>
<!-- Node1&#45;&gt;Node15 -->
<g id="edge33" class="edge">
<title>Node1&#45;&gt;Node15</title>
<path fill="none" stroke="midnightblue" d="M1456.22,-132.26C1384.35,-131.65 1231.8,-123.85 1281.5,-67 1320.9,-21.93 1489.53,-41.34 1548.5,-31 1558.35,-29.27 1568.95,-27.12 1578.74,-25"/>
<polygon fill="midnightblue" stroke="midnightblue" points="1456.6,-135.76 1466.61,-132.3 1456.62,-128.76 1456.6,-135.76"/>
</g>
<!-- Node16 -->
<g id="node16" class="node">
<title>Node16</title>
<g id="a_node16"><a xlink:href="fk20test__kat_8cu.html" target="_top" xlink:title=" ">
<polygon fill="white" stroke="black" points="1690.5,-6 1690.5,-25 1782.5,-25 1782.5,-6 1690.5,-6"/>
<text text-anchor="middle" x="1736.5" y="-13" font-family="Helvetica,sans-Serif" font-size="10.00">fk20test_kat.cu</text>
</a>
</g>
</g>
<!-- Node1&#45;&gt;Node16 -->
<g id="edge34" class="edge">
<title>Node1&#45;&gt;Node16</title>
<path fill="none" stroke="midnightblue" d="M1456.81,-130.36C1395.56,-126.26 1278.38,-112.41 1319.5,-67 1373.76,-7.07 1601.94,-45.35 1681.5,-31 1690.05,-29.46 1699.22,-27.26 1707.58,-25.04"/>
<polygon fill="midnightblue" stroke="midnightblue" points="1456.65,-133.85 1466.84,-130.97 1457.08,-126.87 1456.65,-133.85"/>
</g>
<!-- Node17 -->
<g id="node17" class="node">
<title>Node17</title>
<g id="a_node17"><a xlink:href="fk20test__poly_8cu.html" target="_top" xlink:title=" ">
<polygon fill="white" stroke="black" points="1800.5,-6 1800.5,-25 1896.5,-25 1896.5,-6 1800.5,-6"/>
<text text-anchor="middle" x="1848.5" y="-13" font-family="Helvetica,sans-Serif" font-size="10.00">fk20test_poly.cu</text>
</a>
</g>
</g>
<!-- Node1&#45;&gt;Node17 -->
<g id="edge35" class="edge">
<title>Node1&#45;&gt;Node17</title>
<path fill="none" stroke="midnightblue" d="M1456.82,-127.59C1407.27,-119.97 1325.54,-101.72 1357.5,-67 1390.27,-31.4 1743.78,-38.99 1791.5,-31 1800.46,-29.5 1810.08,-27.29 1818.82,-25.04"/>
<polygon fill="midnightblue" stroke="midnightblue" points="1456.45,-131.07 1466.85,-129.06 1457.46,-124.15 1456.45,-131.07"/>
</g>
<!-- Node18 -->
<g id="node18" class="node">
<title>Node18</title>
<g id="a_node18"><a xlink:href="fk20test__poly2toeplitz__coefficients_8cu.html" target="_top" xlink:title=" ">
<polygon fill="white" stroke="black" points="1914.5,-0.5 1914.5,-30.5 2040.5,-30.5 2040.5,-0.5 1914.5,-0.5"/>
<text text-anchor="start" x="1922.5" y="-18.5" font-family="Helvetica,sans-Serif" font-size="10.00">fk20test_poly2toeplitz</text>
<text text-anchor="middle" x="1977.5" y="-7.5" font-family="Helvetica,sans-Serif" font-size="10.00">_coefficients.cu</text>
</a>
</g>
</g>
<!-- Node1&#45;&gt;Node18 -->
<g id="edge36" class="edge">
<title>Node1&#45;&gt;Node18</title>
<path fill="none" stroke="midnightblue" d="M1457.22,-123.04C1421.1,-112.05 1372.42,-91.77 1395.5,-67 1434.23,-25.44 1849.21,-38.62 1905.5,-31 1908.41,-30.61 1911.37,-30.17 1914.36,-29.69"/>
<polygon fill="midnightblue" stroke="midnightblue" points="1456.42,-126.46 1467,-125.9 1458.38,-119.74 1456.42,-126.46"/>
</g>
<!-- Node21 -->
<g id="node21" class="node">
<title>Node21</title>
<g id="a_node21"><a xlink:href="g1p__fft_8cu.html" target="_top" xlink:title=" ">
<polygon fill="white" stroke="black" points="2059,-6 2059,-25 2124,-25 2124,-6 2059,-6"/>
<text text-anchor="middle" x="2091.5" y="-13" font-family="Helvetica,sans-Serif" font-size="10.00">g1p_fft.cu</text>
</a>
</g>
</g>
<!-- Node1&#45;&gt;Node21 -->
<g id="edge43" class="edge">
<title>Node1&#45;&gt;Node21</title>
<path fill="none" stroke="midnightblue" d="M1463.71,-118.83C1439.71,-105.77 1411.38,-85.14 1428.5,-67 1475.94,-16.73 1981.7,-44.4 2049.5,-31 2056.46,-29.62 2063.84,-27.36 2070.45,-25.03"/>
<polygon fill="midnightblue" stroke="midnightblue" points="1462.1,-121.94 1472.59,-123.45 1465.33,-115.73 1462.1,-121.94"/>
</g>
<!-- Node22 -->
<g id="node22" class="node">
<title>Node22</title>
<g id="a_node22"><a xlink:href="fk20__testvector_8cu.html" target="_top" xlink:title=" ">
<polygon fill="white" stroke="black" points="1438,-67.5 1438,-86.5 1545,-86.5 1545,-67.5 1438,-67.5"/>
<text text-anchor="middle" x="1491.5" y="-74.5" font-family="Helvetica,sans-Serif" font-size="10.00">fk20_testvector.cu</text>
</a>
</g>
</g>
<!-- Node1&#45;&gt;Node22 -->
<g id="edge29" class="edge">
<title>Node1&#45;&gt;Node22</title>
<path fill="none" stroke="midnightblue" d="M1491.5,-112.8C1491.5,-103.91 1491.5,-93.78 1491.5,-86.75"/>
<polygon fill="midnightblue" stroke="midnightblue" points="1488,-113.08 1491.5,-123.08 1495,-113.08 1488,-113.08"/>
</g>
<!-- Node23 -->
<g id="node23" class="node">
<title>Node23</title>
<g id="a_node23"><a xlink:href="g1a_8cu.html" target="_top" xlink:title=" ">
<polygon fill="white" stroke="black" points="1563,-67.5 1563,-86.5 1612,-86.5 1612,-67.5 1563,-67.5"/>
<text text-anchor="middle" x="1587.5" y="-74.5" font-family="Helvetica,sans-Serif" font-size="10.00">g1a.cu</text>
</a>
</g>
</g>
<!-- Node1&#45;&gt;Node23 -->
<g id="edge37" class="edge">
<title>Node1&#45;&gt;Node23</title>
<path fill="none" stroke="midnightblue" d="M1516.07,-118.18C1533.74,-108.24 1557.01,-95.15 1572.11,-86.65"/>
<polygon fill="midnightblue" stroke="midnightblue" points="1513.92,-115.37 1506.92,-123.32 1517.36,-121.47 1513.92,-115.37"/>
</g>
<!-- Node24 -->
<g id="node24" class="node">
<title>Node24</title>
<g id="a_node24"><a xlink:href="g1p_8cu.html" target="_top" xlink:title=" ">
<polygon fill="white" stroke="black" points="1630,-67.5 1630,-86.5 1679,-86.5 1679,-67.5 1630,-67.5"/>
<text text-anchor="middle" x="1654.5" y="-74.5" font-family="Helvetica,sans-Serif" font-size="10.00">g1p.cu</text>
</a>
</g>
</g>
<!-- Node1&#45;&gt;Node24 -->
<g id="edge38" class="edge">
<title>Node1&#45;&gt;Node24</title>
<path fill="none" stroke="midnightblue" d="M1525.83,-120.63C1556.95,-110.32 1602.07,-95.37 1629.78,-86.19"/>
<polygon fill="midnightblue" stroke="midnightblue" points="1524.65,-117.33 1516.26,-123.8 1526.85,-123.98 1524.65,-117.33"/>
</g>
<!-- Node25 -->
<g id="node25" class="node">
<title>Node25</title>
<g id="a_node25"><a xlink:href="g1p__add_8cu.html" target="_top" xlink:title=" ">
<polygon fill="white" stroke="black" points="1697.5,-67.5 1697.5,-86.5 1769.5,-86.5 1769.5,-67.5 1697.5,-67.5"/>
<text text-anchor="middle" x="1733.5" y="-74.5" font-family="Helvetica,sans-Serif" font-size="10.00">g1p_add.cu</text>
</a>
</g>
</g>
<!-- Node1&#45;&gt;Node25 -->
<g id="edge39" class="edge">
<title>Node1&#45;&gt;Node25</title>
<path fill="none" stroke="midnightblue" d="M1525.99,-124.3C1571.39,-114.17 1650.85,-96.44 1697.15,-86.11"/>
<polygon fill="midnightblue" stroke="midnightblue" points="1525.03,-120.93 1516.04,-126.53 1526.56,-127.76 1525.03,-120.93"/>
</g>
<!-- Node26 -->
<g id="node26" class="node">
<title>Node26</title>
<g id="a_node26"><a xlink:href="g1p__addsub_8cu.html" target="_top" xlink:title=" ">
<polygon fill="white" stroke="black" points="1788,-67.5 1788,-86.5 1877,-86.5 1877,-67.5 1788,-67.5"/>
<text text-anchor="middle" x="1832.5" y="-74.5" font-family="Helvetica,sans-Serif" font-size="10.00">g1p_addsub.cu</text>
</a>
</g>
</g>
<!-- Node1&#45;&gt;Node26 -->
<g id="edge40" class="edge">
<title>Node1&#45;&gt;Node26</title>
<path fill="none" stroke="midnightblue" d="M1526.14,-126.68C1580.1,-118.36 1687.48,-101.72 1778.5,-87 1781.5,-86.51 1784.6,-86.01 1787.72,-85.5"/>
<polygon fill="midnightblue" stroke="midnightblue" points="1525.43,-123.25 1516.08,-128.23 1526.5,-130.16 1525.43,-123.25"/>
</g>
<!-- Node27 -->
<g id="node27" class="node">
<title>Node27</title>
<g id="a_node27"><a xlink:href="g1p__compare_8cu.html" target="_top" xlink:title=" ">
<polygon fill="white" stroke="black" points="1895,-67.5 1895,-86.5 1992,-86.5 1992,-67.5 1895,-67.5"/>
<text text-anchor="middle" x="1943.5" y="-74.5" font-family="Helvetica,sans-Serif" font-size="10.00">g1p_compare.cu</text>
</a>
</g>
</g>
<!-- Node1&#45;&gt;Node27 -->
<g id="edge41" class="edge">
<title>Node1&#45;&gt;Node27</title>
<path fill="none" stroke="midnightblue" d="M1526.73,-128.46C1595.7,-121.41 1753.38,-104.79 1885.5,-87 1888.53,-86.59 1891.65,-86.16 1894.79,-85.7"/>
<polygon fill="midnightblue" stroke="midnightblue" points="1526.03,-125.01 1516.44,-129.5 1526.74,-131.97 1526.03,-125.01"/>
</g>
<!-- Node28 -->
<g id="node28" class="node">
<title>Node28</title>
<g id="a_node28"><a xlink:href="g1p__dbl_8cu.html" target="_top" xlink:title=" ">
<polygon fill="white" stroke="black" points="2010,-67.5 2010,-86.5 2079,-86.5 2079,-67.5 2010,-67.5"/>
<text text-anchor="middle" x="2044.5" y="-74.5" font-family="Helvetica,sans-Serif" font-size="10.00">g1p_dbl.cu</text>
</a>
</g>
</g>
<!-- Node1&#45;&gt;Node28 -->
<g id="edge42" class="edge">
<title>Node1&#45;&gt;Node28</title>
<path fill="none" stroke="midnightblue" d="M1526.34,-130.29C1608.99,-125.93 1823.27,-112.88 2000.5,-87 2003.59,-86.55 2006.78,-86.02 2009.98,-85.45"/>
<polygon fill="midnightblue" stroke="midnightblue" points="1526.05,-126.8 1516.25,-130.81 1526.41,-133.79 1526.05,-126.8"/>
</g>
<!-- Node29 -->
<g id="node29" class="node">
<title>Node29</title>
<g id="a_node29"><a xlink:href="g1p__ispoint_8cu.html" target="_top" xlink:title=" ">
<polygon fill="white" stroke="black" points="2097,-67.5 2097,-86.5 2184,-86.5 2184,-67.5 2097,-67.5"/>
<text text-anchor="middle" x="2140.5" y="-74.5" font-family="Helvetica,sans-Serif" font-size="10.00">g1p_ispoint.cu</text>
</a>
</g>
</g>
<!-- Node1&#45;&gt;Node29 -->
<g id="edge44" class="edge">
<title>Node1&#45;&gt;Node29</title>
<path fill="none" stroke="midnightblue" d="M1526.42,-130.5C1618.47,-126.29 1875.23,-112.98 2087.5,-87 2090.56,-86.63 2093.71,-86.2 2096.87,-85.74"/>
<polygon fill="midnightblue" stroke="midnightblue" points="1526.11,-127.01 1516.28,-130.95 1526.42,-134 1526.11,-127.01"/>
</g>
<!-- Node30 -->
<g id="node30" class="node">
<title>Node30</title>
<g id="a_node30"><a xlink:href="g1p__mul_8cu.html" target="_top" xlink:title=" ">
<polygon fill="white" stroke="black" points="2202,-67.5 2202,-86.5 2275,-86.5 2275,-67.5 2202,-67.5"/>
<text text-anchor="middle" x="2238.5" y="-74.5" font-family="Helvetica,sans-Serif" font-size="10.00">g1p_mul.cu</text>
</a>
</g>
</g>
<!-- Node1&#45;&gt;Node30 -->
<g id="edge45" class="edge">
<title>Node1&#45;&gt;Node30</title>
<path fill="none" stroke="midnightblue" d="M1526.22,-131.36C1628.61,-129.12 1938.15,-119.91 2192.5,-87 2195.57,-86.6 2198.74,-86.13 2201.91,-85.6"/>
<polygon fill="midnightblue" stroke="midnightblue" points="1526.06,-127.86 1516.13,-131.57 1526.21,-134.86 1526.06,-127.86"/>
</g>
<!-- Node31 -->
<g id="node31" class="node">
<title>Node31</title>
<g id="a_node31"><a xlink:href="g1p__neg_8cu.html" target="_top" xlink:title=" ">
<polygon fill="white" stroke="black" points="2293.5,-67.5 2293.5,-86.5 2365.5,-86.5 2365.5,-67.5 2293.5,-67.5"/>
<text text-anchor="middle" x="2329.5" y="-74.5" font-family="Helvetica,sans-Serif" font-size="10.00">g1p_neg.cu</text>
</a>
</g>
</g>
<!-- Node1&#45;&gt;Node31 -->
<g id="edge46" class="edge">
<title>Node1&#45;&gt;Node31</title>
<path fill="none" stroke="midnightblue" d="M1526.53,-131.71C1637.74,-130.43 1992.56,-123.55 2283.5,-87 2286.73,-86.59 2290.07,-86.1 2293.42,-85.54"/>
<polygon fill="midnightblue" stroke="midnightblue" points="1526.21,-128.21 1516.25,-131.82 1526.28,-135.21 1526.21,-128.21"/>
</g>
<!-- Node32 -->
<g id="node32" class="node">
<title>Node32</title>
<g id="a_node32"><a xlink:href="g1p__scale_8cu.html" target="_top" xlink:title=" ">
<polygon fill="white" stroke="black" points="2383.5,-67.5 2383.5,-86.5 2463.5,-86.5 2463.5,-67.5 2383.5,-67.5"/>
<text text-anchor="middle" x="2423.5" y="-74.5" font-family="Helvetica,sans-Serif" font-size="10.00">g1p_scale.cu</text>
</a>
</g>
</g>
<!-- Node1&#45;&gt;Node32 -->
<g id="edge47" class="edge">
<title>Node1&#45;&gt;Node32</title>
<path fill="none" stroke="midnightblue" d="M1526.5,-131.86C1645.65,-131.02 2046.28,-125.34 2374.5,-87 2377.42,-86.66 2380.43,-86.25 2383.45,-85.8"/>
<polygon fill="midnightblue" stroke="midnightblue" points="1526.16,-128.36 1516.18,-131.92 1526.2,-135.36 1526.16,-128.36"/>
</g>
<!-- Node33 -->
<g id="node33" class="node">
<title>Node33</title>
<g id="a_node33"><a xlink:href="g1p__sub_8cu.html" target="_top" xlink:title=" ">
<polygon fill="white" stroke="black" points="2482,-67.5 2482,-86.5 2553,-86.5 2553,-67.5 2482,-67.5"/>
<text text-anchor="middle" x="2517.5" y="-74.5" font-family="Helvetica,sans-Serif" font-size="10.00">g1p_sub.cu</text>
</a>
</g>
</g>
<!-- Node1&#45;&gt;Node33 -->
<g id="edge48" class="edge">
<title>Node1&#45;&gt;Node33</title>
<path fill="none" stroke="midnightblue" d="M1526.57,-132.31C1654.03,-133.01 2104.57,-131.97 2472.5,-87 2475.51,-86.63 2478.61,-86.18 2481.72,-85.66"/>
<polygon fill="midnightblue" stroke="midnightblue" points="1526.28,-128.8 1516.26,-132.24 1526.23,-135.8 1526.28,-128.8"/>
</g>
<!-- Node34 -->
<g id="node34" class="node">
<title>Node34</title>
<g id="a_node34"><a xlink:href="g1test_8cu.html" target="_top" xlink:title=" ">
<polygon fill="white" stroke="black" points="2486.5,-6 2486.5,-25 2548.5,-25 2548.5,-6 2486.5,-6"/>
<text text-anchor="middle" x="2517.5" y="-13" font-family="Helvetica,sans-Serif" font-size="10.00">g1test.cu</text>
</a>
</g>
</g>
<!-- Node1&#45;&gt;Node34 -->
<g id="edge49" class="edge">
<title>Node1&#45;&gt;Node34</title>
<path fill="none" stroke="midnightblue" d="M1526.44,-131.87C1706.73,-131.05 2524.87,-125.2 2561.5,-87 2580.07,-67.63 2548.43,-39.19 2529.74,-25.09"/>
<polygon fill="midnightblue" stroke="midnightblue" points="1526.19,-128.37 1516.2,-131.92 1526.22,-135.37 1526.19,-128.37"/>
</g>
<!-- Node35 -->
<g id="node35" class="node">
<title>Node35</title>
<g id="a_node35"><a xlink:href="g1test_8cuh.html" target="_top" xlink:title=" ">
<polygon fill="white" stroke="black" points="2685.5,-67.5 2685.5,-86.5 2753.5,-86.5 2753.5,-67.5 2685.5,-67.5"/>
<text text-anchor="middle" x="2719.5" y="-74.5" font-family="Helvetica,sans-Serif" font-size="10.00">g1test.cuh</text>
</a>
</g>
</g>
<!-- Node1&#45;&gt;Node35 -->
<g id="edge50" class="edge">
<title>Node1&#45;&gt;Node35</title>
<path fill="none" stroke="midnightblue" d="M1526.49,-131.36C1696.91,-128.15 2441.13,-112.85 2671.5,-87 2675.97,-86.5 2680.64,-85.82 2685.24,-85.06"/>
<polygon fill="midnightblue" stroke="midnightblue" points="1526.26,-127.87 1516.33,-131.55 1526.39,-134.86 1526.26,-127.87"/>
</g>
<!-- Node36 -->
<g id="node36" class="node">
<title>Node36</title>
<g id="a_node36"><a xlink:href="g1test__dbl_8cu.html" target="_top" xlink:title=" ">
<polygon fill="white" stroke="black" points="2566.5,-6 2566.5,-25 2648.5,-25 2648.5,-6 2566.5,-6"/>
<text text-anchor="middle" x="2607.5" y="-13" font-family="Helvetica,sans-Serif" font-size="10.00">g1test_dbl.cu</text>
</a>
</g>
</g>
<!-- Node1&#45;&gt;Node36 -->
<g id="edge56" class="edge">
<title>Node1&#45;&gt;Node36</title>
<path fill="none" stroke="midnightblue" d="M1526.18,-131.61C1706.93,-129.45 2534.42,-117.87 2578.5,-87 2599.1,-72.57 2605.09,-40.73 2606.82,-25.27"/>
<polygon fill="midnightblue" stroke="midnightblue" points="1526.12,-128.11 1516.16,-131.73 1526.2,-135.11 1526.12,-128.11"/>
</g>
<!-- Node37 -->
<g id="node37" class="node">
<title>Node37</title>
<g id="a_node37"><a xlink:href="g1test__fft_8cu.html" target="_top" xlink:title=" ">
<polygon fill="white" stroke="black" points="2667,-6 2667,-25 2744,-25 2744,-6 2667,-6"/>
<text text-anchor="middle" x="2705.5" y="-13" font-family="Helvetica,sans-Serif" font-size="10.00">g1test_fft.cu</text>
</a>
</g>
</g>
<!-- Node1&#45;&gt;Node37 -->
<g id="edge57" class="edge">
<title>Node1&#45;&gt;Node37</title>
<path fill="none" stroke="midnightblue" d="M1526.14,-131.71C1702.5,-130.11 2496.4,-121.03 2600.5,-87 2640.57,-73.9 2679.6,-40.79 2696.61,-25.06"/>
<polygon fill="midnightblue" stroke="midnightblue" points="1526.08,-128.21 1516.11,-131.8 1526.14,-135.21 1526.08,-128.21"/>
</g>
<!-- Node38 -->
<g id="node38" class="node">
<title>Node38</title>
<g id="a_node38"><a xlink:href="g1test__fibonacci_8cu.html" target="_top" xlink:title=" ">
<polygon fill="white" stroke="black" points="2762.5,-6 2762.5,-25 2872.5,-25 2872.5,-6 2762.5,-6"/>
<text text-anchor="middle" x="2817.5" y="-13" font-family="Helvetica,sans-Serif" font-size="10.00">g1test_fibonacci.cu</text>
</a>
</g>
</g>
<!-- Node1&#45;&gt;Node38 -->
<g id="edge58" class="edge">
<title>Node1&#45;&gt;Node38</title>
<path fill="none" stroke="midnightblue" d="M1526.37,-131.6C1724.92,-129.19 2705.95,-115.86 2762.5,-87 2788.91,-73.52 2806.53,-40.91 2813.77,-25.22"/>
<polygon fill="midnightblue" stroke="midnightblue" points="1526.17,-128.1 1516.22,-131.72 1526.26,-135.1 1526.17,-128.1"/>
</g>
<!-- Node39 -->
<g id="node39" class="node">
<title>Node39</title>
<g id="a_node39"><a xlink:href="g1test__kat_8cu.html" target="_top" xlink:title=" ">
<polygon fill="white" stroke="black" points="2890.5,-6 2890.5,-25 2972.5,-25 2972.5,-6 2890.5,-6"/>
<text text-anchor="middle" x="2931.5" y="-13" font-family="Helvetica,sans-Serif" font-size="10.00">g1test_kat.cu</text>
</a>
</g>
</g>
<!-- Node1&#45;&gt;Node39 -->
<g id="edge59" class="edge">
<title>Node1&#45;&gt;Node39</title>
<path fill="none" stroke="midnightblue" d="M1526.22,-131.67C1720.06,-129.74 2664.06,-118.73 2789.5,-87 2840.73,-74.04 2894.99,-40.86 2918.92,-25.09"/>
<polygon fill="midnightblue" stroke="midnightblue" points="1526.01,-128.18 1516.05,-131.77 1526.08,-135.18 1526.01,-128.18"/>
</g>
<!-- Node4&#45;&gt;Node2 -->
<g id="edge4" class="edge">
<title>Node4&#45;&gt;Node2</title>
<path fill="none" stroke="midnightblue" d="M1045.85,-75.89C882.51,-75.17 261.26,-69.89 69.5,-31 62.99,-29.68 56.12,-27.43 49.99,-25.1"/>
<polygon fill="midnightblue" stroke="midnightblue" points="1045.93,-79.39 1055.94,-75.93 1045.96,-72.39 1045.93,-79.39"/>
</g>
<!-- Node4&#45;&gt;Node3 -->
<g id="edge5" class="edge">
<title>Node4&#45;&gt;Node3</title>
<path fill="none" stroke="midnightblue" d="M1045.56,-75.92C888.98,-75.34 316.96,-70.49 140.5,-31 134.6,-29.68 128.41,-27.43 122.92,-25.1"/>
<polygon fill="midnightblue" stroke="midnightblue" points="1045.67,-79.42 1055.69,-75.96 1045.7,-72.42 1045.67,-79.42"/>
</g>
<!-- Node4&#45;&gt;Node5 -->
<g id="edge6" class="edge">
<title>Node4&#45;&gt;Node5</title>
<path fill="none" stroke="midnightblue" d="M1045.59,-76.65C925.2,-78 555.31,-77.76 253.5,-31 244.47,-29.6 234.78,-27.36 226.05,-25.06"/>
<polygon fill="midnightblue" stroke="midnightblue" points="1045.85,-80.14 1055.8,-76.52 1045.76,-73.14 1045.85,-80.14"/>
</g>
<!-- Node4&#45;&gt;Node6 -->
<g id="edge7" class="edge">
<title>Node4&#45;&gt;Node6</title>
<path fill="none" stroke="midnightblue" d="M1045.44,-75.34C938.99,-73.16 640.4,-64.31 394.5,-31 383.55,-29.52 371.76,-27.31 361.03,-25.07"/>
<polygon fill="midnightblue" stroke="midnightblue" points="1045.65,-78.84 1055.72,-75.54 1045.79,-71.84 1045.65,-78.84"/>
</g>
<!-- Node4&#45;&gt;Node7 -->
<g id="edge8" class="edge">
<title>Node4&#45;&gt;Node7</title>
<path fill="none" stroke="midnightblue" d="M1045.66,-75.78C950,-74.65 700.1,-68.06 495.5,-31 487.5,-29.55 478.94,-27.33 471.21,-25.05"/>
<polygon fill="midnightblue" stroke="midnightblue" points="1045.72,-79.28 1055.76,-75.89 1045.8,-72.28 1045.72,-79.28"/>
</g>
<!-- Node4&#45;&gt;Node8 -->
<g id="edge9" class="edge">
<title>Node4&#45;&gt;Node8</title>
<path fill="none" stroke="midnightblue" d="M1045.55,-73.87C964.94,-69.2 777.26,-56.37 621.5,-31 611.86,-29.43 601.5,-27.25 592.02,-25.06"/>
<polygon fill="midnightblue" stroke="midnightblue" points="1045.56,-77.38 1055.74,-74.45 1045.96,-70.39 1045.56,-77.38"/>
</g>
<!-- Node4&#45;&gt;Node9 -->
<g id="edge10" class="edge">
<title>Node4&#45;&gt;Node9</title>
<path fill="none" stroke="midnightblue" d="M1045.91,-71.36C984.73,-64 863.6,-48.64 761.5,-31 751.35,-29.25 740.42,-27.1 730.29,-25.01"/>
<polygon fill="midnightblue" stroke="midnightblue" points="1045.57,-74.84 1055.91,-72.56 1046.4,-67.89 1045.57,-74.84"/>
</g>
<!-- Node4&#45;&gt;Node10 -->
<g id="edge11" class="edge">
<title>Node4&#45;&gt;Node10</title>
<path fill="none" stroke="midnightblue" d="M1046.1,-67.08C1006.13,-58.02 942.51,-43.58 887.5,-31 884.44,-30.3 881.29,-29.58 878.11,-28.85"/>
<polygon fill="midnightblue" stroke="midnightblue" points="1045.45,-70.52 1055.97,-69.32 1046.99,-63.69 1045.45,-70.52"/>
</g>
<!-- Node11 -->
<g id="node11" class="node">
<title>Node11</title>
<g id="a_node11"><a xlink:href="fk20__poly2toeplitz__coefficients__fft_8cu.html" target="_top" xlink:title=" ">
<polygon fill="white" stroke="black" points="896.5,-0.5 896.5,-30.5 1004.5,-30.5 1004.5,-0.5 896.5,-0.5"/>
<text text-anchor="start" x="904.5" y="-18.5" font-family="Helvetica,sans-Serif" font-size="10.00">fk20_poly2toeplitz</text>
<text text-anchor="middle" x="950.5" y="-7.5" font-family="Helvetica,sans-Serif" font-size="10.00">_coefficients_fft.cu</text>
</a>
</g>
</g>
<!-- Node4&#45;&gt;Node11 -->
<g id="edge12" class="edge">
<title>Node4&#45;&gt;Node11</title>
<path fill="none" stroke="midnightblue" d="M1056.75,-63.33C1034.91,-53.7 1004.88,-40.47 982.32,-30.52"/>
<polygon fill="midnightblue" stroke="midnightblue" points="1055.6,-66.64 1066.16,-67.48 1058.42,-60.24 1055.6,-66.64"/>
</g>
<!-- Node4&#45;&gt;Node12 -->
<g id="edge13" class="edge">
<title>Node4&#45;&gt;Node12</title>
<path fill="none" stroke="midnightblue" d="M1124.9,-64.68C1165.12,-53.11 1226.65,-35.43 1262.9,-25.01"/>
<polygon fill="midnightblue" stroke="midnightblue" points="1123.8,-61.35 1115.16,-67.48 1125.74,-68.08 1123.8,-61.35"/>
</g>
<!-- Node4&#45;&gt;Node13 -->
<g id="edge14" class="edge">
<title>Node4&#45;&gt;Node13</title>
<path fill="none" stroke="midnightblue" d="M1125.21,-71.2C1178.02,-64.4 1274.06,-50.58 1354.5,-31 1361.2,-29.37 1368.35,-27.25 1374.93,-25.13"/>
<polygon fill="midnightblue" stroke="midnightblue" points="1124.72,-67.74 1115.24,-72.47 1125.6,-74.68 1124.72,-67.74"/>
</g>
<!-- Node4&#45;&gt;Node14 -->
<g id="edge15" class="edge">
<title>Node4&#45;&gt;Node14</title>
<path fill="none" stroke="midnightblue" d="M1125.48,-72.84C1191.95,-67.17 1329.19,-53.7 1443.5,-31 1451.64,-29.38 1460.37,-27.19 1468.35,-25"/>
<polygon fill="midnightblue" stroke="midnightblue" points="1125.11,-69.36 1115.43,-73.68 1125.69,-76.34 1125.11,-69.36"/>
</g>
<!-- Node4&#45;&gt;Node15 -->
<g id="edge16" class="edge">
<title>Node4&#45;&gt;Node15</title>
<path fill="none" stroke="midnightblue" d="M1125.34,-73.69C1205.72,-68.7 1392.91,-55.31 1548.5,-31 1558.73,-29.4 1569.74,-27.21 1579.83,-25.02"/>
<polygon fill="midnightblue" stroke="midnightblue" points="1124.94,-70.21 1115.17,-74.32 1125.37,-77.2 1124.94,-70.21"/>
</g>
<!-- Node4&#45;&gt;Node16 -->
<g id="edge17" class="edge">
<title>Node4&#45;&gt;Node16</title>
<path fill="none" stroke="midnightblue" d="M1125.2,-73.95C1240.47,-67.85 1573.83,-49.1 1681.5,-31 1690.26,-29.53 1699.66,-27.3 1708.17,-25.02"/>
<polygon fill="midnightblue" stroke="midnightblue" points="1124.85,-70.46 1115.05,-74.48 1125.22,-77.45 1124.85,-70.46"/>
</g>
<!-- Node4&#45;&gt;Node17 -->
<g id="edge18" class="edge">
<title>Node4&#45;&gt;Node17</title>
<path fill="none" stroke="midnightblue" d="M1125.38,-74.43C1254.69,-69.2 1661.55,-51.49 1791.5,-31 1800.68,-29.55 1810.53,-27.3 1819.43,-25"/>
<polygon fill="midnightblue" stroke="midnightblue" points="1124.99,-70.95 1115.14,-74.84 1125.28,-77.94 1124.99,-70.95"/>
</g>
<!-- Node4&#45;&gt;Node18 -->
<g id="edge19" class="edge">
<title>Node4&#45;&gt;Node18</title>
<path fill="none" stroke="midnightblue" d="M1125.02,-74.59C1267.08,-69.39 1751.65,-50.61 1905.5,-31 1908.41,-30.63 1911.38,-30.21 1914.37,-29.75"/>
<polygon fill="midnightblue" stroke="midnightblue" points="1124.87,-71.09 1115,-74.95 1125.12,-78.09 1124.87,-71.09"/>
</g>
<!-- Node19 -->
<g id="node19" class="node">
<title>Node19</title>
<g id="a_node19"><a xlink:href="fk20test__poly2toeplitz__coefficients__fft_8cu.html" target="_top" xlink:title=" ">
<polygon fill="white" stroke="black" points="1022.5,-0.5 1022.5,-30.5 1148.5,-30.5 1148.5,-0.5 1022.5,-0.5"/>
<text text-anchor="start" x="1030.5" y="-18.5" font-family="Helvetica,sans-Serif" font-size="10.00">fk20test_poly2toeplitz</text>
<text text-anchor="middle" x="1085.5" y="-7.5" font-family="Helvetica,sans-Serif" font-size="10.00">_coefficients_fft.cu</text>
</a>
</g>
</g>
<!-- Node4&#45;&gt;Node19 -->
<g id="edge20" class="edge">
<title>Node4&#45;&gt;Node19</title>
<path fill="none" stroke="midnightblue" d="M1085.5,-57.23C1085.5,-48.59 1085.5,-38.5 1085.5,-30.52"/>
<polygon fill="midnightblue" stroke="midnightblue" points="1082,-57.48 1085.5,-67.48 1089,-57.48 1082,-57.48"/>
</g>
<!-- Node20 -->
<g id="node20" class="node">
<title>Node20</title>
<g id="a_node20"><a xlink:href="fr__fft_8cu.html" target="_top" xlink:title=" ">
<polygon fill="white" stroke="black" points="1166.5,-6 1166.5,-25 1220.5,-25 1220.5,-6 1166.5,-6"/>
<text text-anchor="middle" x="1193.5" y="-13" font-family="Helvetica,sans-Serif" font-size="10.00">fr_fft.cu</text>
</a>
</g>
</g>
<!-- Node4&#45;&gt;Node20 -->
<g id="edge21" class="edge">
<title>Node4&#45;&gt;Node20</title>
<path fill="none" stroke="midnightblue" d="M1109.9,-62.56C1130.8,-51.04 1160.26,-34.81 1178.05,-25.01"/>
<polygon fill="midnightblue" stroke="midnightblue" points="1108.04,-59.58 1100.97,-67.48 1111.42,-65.72 1108.04,-59.58"/>
</g>
<!-- Node4&#45;&gt;Node21 -->
<g id="edge22" class="edge">
<title>Node4&#45;&gt;Node21</title>
<path fill="none" stroke="midnightblue" d="M1125.23,-74.82C1295.35,-69.65 1957.84,-48.58 2049.5,-31 2056.47,-29.66 2063.85,-27.41 2070.46,-25.08"/>
<polygon fill="midnightblue" stroke="midnightblue" points="1125.09,-71.32 1115.2,-75.12 1125.3,-78.31 1125.09,-71.32"/>
</g>
<!-- Node35&#45;&gt;Node34 -->
<g id="edge51" class="edge">
<title>Node35&#45;&gt;Node34</title>
<path fill="none" stroke="midnightblue" d="M2676.04,-64.9C2643.27,-56.29 2597.31,-43.72 2557.5,-31 2551.87,-29.2 2545.85,-27.11 2540.24,-25.09"/>
<polygon fill="midnightblue" stroke="midnightblue" points="2675.21,-68.3 2685.77,-67.44 2676.98,-61.53 2675.21,-68.3"/>
</g>
<!-- Node35&#45;&gt;Node36 -->
<g id="edge52" class="edge">
<title>Node35&#45;&gt;Node36</title>
<path fill="none" stroke="midnightblue" d="M2694.49,-62.71C2672.8,-51.19 2642.05,-34.86 2623.52,-25.01"/>
<polygon fill="midnightblue" stroke="midnightblue" points="2692.98,-65.87 2703.45,-67.48 2696.26,-59.69 2692.98,-65.87"/>
</g>
<!-- Node35&#45;&gt;Node37 -->
<g id="edge53" class="edge">
<title>Node35&#45;&gt;Node37</title>
<path fill="none" stroke="midnightblue" d="M2715.18,-57.66C2712.62,-46.77 2709.5,-33.49 2707.5,-25.01"/>
<polygon fill="midnightblue" stroke="midnightblue" points="2711.8,-58.54 2717.49,-67.48 2718.61,-56.94 2711.8,-58.54"/>
</g>
<!-- Node35&#45;&gt;Node38 -->
<g id="edge54" class="edge">
<title>Node35&#45;&gt;Node38</title>
<path fill="none" stroke="midnightblue" d="M2742.16,-62.24C2761.09,-50.75 2787.49,-34.72 2803.49,-25.01"/>
<polygon fill="midnightblue" stroke="midnightblue" points="2740.27,-59.29 2733.54,-67.48 2743.91,-65.28 2740.27,-59.29"/>
</g>
<!-- Node35&#45;&gt;Node39 -->
<g id="edge55" class="edge">
<title>Node35&#45;&gt;Node39</title>
<path fill="none" stroke="midnightblue" d="M2760.27,-64.81C2793.05,-55.78 2840.27,-42.7 2881.5,-31 2888.19,-29.1 2895.39,-27.03 2902.17,-25.07"/>
<polygon fill="midnightblue" stroke="midnightblue" points="2759.3,-61.45 2750.59,-67.48 2761.16,-68.2 2759.3,-61.45"/>
</g>
</g>
</svg>
        <g id="navigator" transform="translate(0 0)" fill="#404254">
                <rect fill="#f2f5e9" fill-opacity="0.5" stroke="#606060" stroke-width=".5" x="0" y="0" width="60" height="60"/>
                <use id="zoomplus" xlink:href="#zoomPlus" x="17" y="9" onmousedown="handleZoom(evt,'in')"/>
                <use id="zoomminus" xlink:href="#zoomMin" x="42" y="9" onmousedown="handleZoom(evt,'out')"/>
                <use id="reset" xlink:href="#resetDef" x="30" y="36" onmousedown="handleReset()"/>
                <g id="arrowUp" xlink:href="#dirArrow" transform="translate(30 24)" onmousedown="handlePan(0,-1)">
                  <use xlink:href="#rim" fill="#404040">
                        <set attributeName="fill" to="#808080" begin="arrowUp.mouseover" end="arrowUp.mouseout"/>
                  </use>
                  <path fill="none" stroke="white" stroke-width="1.5" d="M0,-3.0v7 M-2.5,-0.5L0,-3.0L2.5,-0.5"/>
                </g>
                <g id="arrowRight" xlink:href="#dirArrow" transform="rotate(90) translate(36 -43)" onmousedown="handlePan(1,0)">
                  <use xlink:href="#rim" fill="#404040">
                        <set attributeName="fill" to="#808080" begin="arrowRight.mouseover" end="arrowRight.mouseout"/>
                  </use>
                  <path fill="none" stroke="white" stroke-width="1.5" d="M0,-3.0v7 M-2.5,-0.5L0,-3.0L2.5,-0.5"/>
                </g>
                <g id="arrowDown" xlink:href="#dirArrow" transform="rotate(180) translate(-30 -48)" onmousedown="handlePan(0,1)">
                  <use xlink:href="#rim" fill="#404040">
                        <set attributeName="fill" to="#808080" begin="arrowDown.mouseover" end="arrowDown.mouseout"/>
                  </use>
                  <path fill="none" stroke="white" stroke-width="1.5" d="M0,-3.0v7 M-2.5,-0.5L0,-3.0L2.5,-0.5"/>
                </g>
                <g id="arrowLeft" xlink:href="#dirArrow" transform="rotate(270) translate(-36 17)" onmousedown="handlePan(-1,0)">
                  <use xlink:href="#rim" fill="#404040">
                        <set attributeName="fill" to="#808080" begin="arrowLeft.mouseover" end="arrowLeft.mouseout"/>
                  </use>
                  <path fill="none" stroke="white" stroke-width="1.5" d="M0,-3.0v7 M-2.5,-0.5L0,-3.0L2.5,-0.5"/>
                </g>
        </g>
        <svg viewBox="0 0 15 15" width="100%" height="30px" preserveAspectRatio="xMaxYMin meet">
         <g id="arrow_out" transform="scale(0.3 0.3)">
          <a xlink:href="g1_8cuh__dep__incl_org.svg" target="_base">
           <rect id="button" ry="5" rx="5" y="6" x="6" height="38" width="38"
                fill="#f2f5e9" fill-opacity="0.5" stroke="#606060" stroke-width="1.0"/>
           <path id="arrow"
             d="M 11.500037,31.436501 C 11.940474,20.09759 22.043105,11.32322 32.158766,21.979434 L 37.068811,17.246167 C 37.068811,17.246167 37.088388,32 37.088388,32 L 22.160133,31.978069 C 22.160133,31.978069 26.997745,27.140456 26.997745,27.140456 C 18.528582,18.264221 13.291696,25.230495 11.500037,31.436501 z"
             style="fill:#404040;"/>
          </a>
         </g>
        </svg>
</svg>
