<?xml version="1.0" encoding="UTF-8" standalone="no"?>
<!DOCTYPE svg PUBLIC "-//W3C//DTD SVG 1.1//EN"
 "http://www.w3.org/Graphics/SVG/1.1/DTD/svg11.dtd">
<!-- Generated by graphviz version 2.43.0 (0)
 -->
<!-- Title: g1p_ift_wrapper Pages: 1 -->
<!--zoomable 294 -->
<svg id="main" version="1.1" xmlns="http://www.w3.org/2000/svg" xmlns:xlink="http://www.w3.org/1999/xlink" xml:space="preserve" onload="init(evt)">
<style type="text/css"><![CDATA[
.edge:hover path { stroke: red; }
.edge:hover polygon { stroke: red; fill: red; }
]]></style>
<script type="text/javascript"><![CDATA[
var edges = document.getElementsByTagName('g');
if (edges && edges.length) {
  for (var i=0;i<edges.length;i++) {
    if (edges[i].id.substr(0,4)=='edge') {
      edges[i].setAttribute('class','edge');
    }
  }
}
]]></script>
        <defs>
                <circle id="rim" cx="0" cy="0" r="7"/>
                <circle id="rim2" cx="0" cy="0" r="3.5"/>
                <g id="zoomPlus">
                        <use xlink:href="#rim" fill="#404040">
                                <set attributeName="fill" to="#808080" begin="zoomplus.mouseover" end="zoomplus.mouseout"/>
                        </use>
                        <path d="M-4,0h8M0,-4v8" fill="none" stroke="white" stroke-width="1.5" pointer-events="none"/>
                </g>
                <g id="zoomMin">
                        <use xlink:href="#rim" fill="#404040">
                                <set attributeName="fill" to="#808080" begin="zoomminus.mouseover" end="zoomminus.mouseout"/>
                        </use>
                        <path d="M-4,0h8" fill="none" stroke="white" stroke-width="1.5" pointer-events="none"/>
                </g>
                <g id="dirArrow">
                        <path fill="none" stroke="white" stroke-width="1.5" d="M0,-3.0v7 M-2.5,-0.5L0,-3.0L2.5,-0.5"/>
                </g>
               <g id="resetDef">
                       <use xlink:href="#rim2" fill="#404040">
                               <set attributeName="fill" to="#808080" begin="reset.mouseover" end="reset.mouseout"/>
                       </use>
               </g>
        </defs>

<script type="text/javascript">
var viewWidth = 710;
var viewHeight = 294;
var sectionId = 'dynsection-16';
</script>
<script xlink:href="svgpan.js"/>
<svg id="graph" class="graph">
<g id="viewport">
<title>g1p_ift_wrapper</title>
<polygon fill="white" stroke="transparent" points="-4,4 -4,-290 706,-290 706,4 -4,4"/>
<!-- Node1 -->
<g id="node1" class="node">
<title>Node1</title>
<g id="a_node1"><a xlink:title="wrapper for g1p_ift: inverse FFT for arrays of g1p_t with length 512">
<polygon fill="#bfbfbf" stroke="black" points="0,-190.5 0,-209.5 95,-209.5 95,-190.5 0,-190.5"/>
<text text-anchor="middle" x="47.5" y="-197.5" font-family="Helvetica,sans-Serif" font-size="10.00">g1p_ift_wrapper</text>
</a>
</g>
</g>
<!-- Node2 -->
<g id="node2" class="node">
<title>Node2</title>
<g id="a_node2"><a xlink:href="g1p__fft_8cu.html#a07141ff993bd6fc7da467a63b5c319ca" target="_top" xlink:title="Inverse FFT of size 512 over G1 with projective coordinates. Input and output arrays may overlap....">
<polygon fill="white" stroke="black" points="131,-190.5 131,-209.5 181,-209.5 181,-190.5 131,-190.5"/>
<text text-anchor="middle" x="156" y="-197.5" font-family="Helvetica,sans-Serif" font-size="10.00">g1p_ift</text>
</a>
</g>
</g>
<!-- Node1&#45;&gt;Node2 -->
<g id="edge1" class="edge">
<title>Node1&#45;&gt;Node2</title>
<path fill="none" stroke="midnightblue" d="M95.21,-200C103.76,-200 112.54,-200 120.65,-200"/>
<polygon fill="midnightblue" stroke="midnightblue" points="120.84,-203.5 130.84,-200 120.84,-196.5 120.84,-203.5"/>
</g>
<!-- Node3 -->
<g id="node3" class="node">
<title>Node3</title>
<g id="a_node3"><a xlink:href="g1_8cuh.html#a0f32bdb263c5864d6fd46a567e9e1f96" target="_top" xlink:title="Stores the sum and difference of p and q into p and q. Projective p and q, p,q ← p+q,...">
<polygon fill="white" stroke="black" points="217,-228.5 217,-247.5 292,-247.5 292,-228.5 217,-228.5"/>
<text text-anchor="middle" x="254.5" y="-235.5" font-family="Helvetica,sans-Serif" font-size="10.00">g1p_addsub</text>
</a>
</g>
</g>
<!-- Node2&#45;&gt;Node3 -->
<g id="edge2" class="edge">
<title>Node2&#45;&gt;Node3</title>
<path fill="none" stroke="midnightblue" d="M181.35,-209.59C193.01,-214.18 207.16,-219.75 219.82,-224.74"/>
<polygon fill="midnightblue" stroke="midnightblue" points="218.57,-228.01 229.16,-228.41 221.13,-221.49 218.57,-228.01"/>
</g>
<!-- Node4 -->
<g id="node4" class="node">
<title>Node4</title>
<g id="a_node4"><a xlink:href="g1_8cuh.html#a9d6fd1daf56b90adb23fc5ac3705d6fb" target="_top" xlink:title="Copy from q into p.">
<polygon fill="white" stroke="black" points="226,-190.5 226,-209.5 283,-209.5 283,-190.5 226,-190.5"/>
<text text-anchor="middle" x="254.5" y="-197.5" font-family="Helvetica,sans-Serif" font-size="10.00">g1p_cpy</text>
</a>
</g>
</g>
<!-- Node2&#45;&gt;Node4 -->
<g id="edge3" class="edge">
<title>Node2&#45;&gt;Node4</title>
<path fill="none" stroke="midnightblue" d="M181.35,-200C191.7,-200 204,-200 215.5,-200"/>
<polygon fill="midnightblue" stroke="midnightblue" points="215.74,-203.5 225.74,-200 215.74,-196.5 215.74,-203.5"/>
</g>
<!-- Node5 -->
<g id="node5" class="node">
<title>Node5</title>
<g id="a_node5"><a xlink:href="g1_8cuh.html#a98781687d03d5e738745dcb61e0fc1f8" target="_top" xlink:title="p ← k·p Point multiplication by scalar, in projective coordinates. That result is stored back into p.">
<polygon fill="white" stroke="black" points="225,-152.5 225,-171.5 284,-171.5 284,-152.5 225,-152.5"/>
<text text-anchor="middle" x="254.5" y="-159.5" font-family="Helvetica,sans-Serif" font-size="10.00">g1p_mul</text>
</a>
</g>
</g>
<!-- Node2&#45;&gt;Node5 -->
<g id="edge4" class="edge">
<title>Node2&#45;&gt;Node5</title>
<path fill="none" stroke="midnightblue" d="M181.35,-190.41C193.01,-185.82 207.16,-180.25 219.82,-175.26"/>
<polygon fill="midnightblue" stroke="midnightblue" points="221.13,-178.51 229.16,-171.59 218.57,-171.99 221.13,-178.51"/>
</g>
<!-- Node6 -->
<g id="node6" class="node">
<title>Node6</title>
<g id="a_node6"><a xlink:href="fp_8cu.html#a38ff11c3699e6c472a5b310a4d0962ea" target="_top" xlink:title="Sets z to zero.">
<polygon fill="white" stroke="black" points="338,-171.5 338,-190.5 391,-190.5 391,-171.5 338,-171.5"/>
<text text-anchor="middle" x="364.5" y="-178.5" font-family="Helvetica,sans-Serif" font-size="10.00">fp_zero</text>
</a>
</g>
</g>
<!-- Node5&#45;&gt;Node6 -->
<g id="edge5" class="edge">
<title>Node5&#45;&gt;Node6</title>
<path fill="none" stroke="midnightblue" d="M284.16,-167.04C297.53,-169.39 313.59,-172.22 327.75,-174.71"/>
<polygon fill="midnightblue" stroke="midnightblue" points="327.21,-178.17 337.66,-176.45 328.42,-171.28 327.21,-178.17"/>
</g>
<!-- Node7 -->
<g id="node7" class="node">
<title>Node7</title>
<g id="a_node7"><a xlink:href="g1_8cuh.html#ac5e28dd7ae9a2d9f751792ffa5688346" target="_top" xlink:title="Check if the value stored in p is a valid point on the G1 curve.">
<polygon fill="white" stroke="black" points="328,-133.5 328,-152.5 401,-152.5 401,-133.5 328,-133.5"/>
<text text-anchor="middle" x="364.5" y="-140.5" font-family="Helvetica,sans-Serif" font-size="10.00">g1p_isPoint</text>
</a>
</g>
</g>
<!-- Node5&#45;&gt;Node7 -->
<g id="edge6" class="edge">
<title>Node5&#45;&gt;Node7</title>
<path fill="none" stroke="midnightblue" d="M284.16,-156.96C294.5,-155.14 306.45,-153.04 317.88,-151.03"/>
<polygon fill="midnightblue" stroke="midnightblue" points="318.5,-154.47 327.74,-149.29 317.29,-147.58 318.5,-154.47"/>
</g>
<!-- Node8 -->
<g id="node8" class="node">
<title>Node8</title>
<g id="a_node8"><a xlink:href="fp_8cuh.html#a38d4eadff7890b835dceb28d2adb7358" target="_top" xlink:title="Computes the sum of two residues x and y modulo p and stores it in z. Device only function.">
<polygon fill="white" stroke="black" points="442.5,-266.5 442.5,-285.5 492.5,-285.5 492.5,-266.5 442.5,-266.5"/>
<text text-anchor="middle" x="467.5" y="-273.5" font-family="Helvetica,sans-Serif" font-size="10.00">fp_add</text>
</a>
</g>
</g>
<!-- Node7&#45;&gt;Node8 -->
<g id="edge7" class="edge">
<title>Node7&#45;&gt;Node8</title>
<path fill="none" stroke="midnightblue" d="M388.95,-152.52C393.37,-155.11 397.64,-158.25 401,-162 429.73,-194.1 411.47,-217.3 437,-252 439,-254.71 441.37,-257.3 443.88,-259.7"/>
<polygon fill="midnightblue" stroke="midnightblue" points="441.76,-262.48 451.65,-266.28 446.29,-257.15 441.76,-262.48"/>
</g>
<!-- Node9 -->
<g id="node9" class="node">
<title>Node9</title>
<g id="a_node9"><a xlink:href="fp_8cuh.html#aa84fc3bc6fd35779512d8f14938df96d" target="_top" xlink:title="Copy from x into z.">
<polygon fill="white" stroke="black" points="642,-190.5 642,-209.5 691,-209.5 691,-190.5 642,-190.5"/>
<text text-anchor="middle" x="666.5" y="-197.5" font-family="Helvetica,sans-Serif" font-size="10.00">fp_cpy</text>
</a>
</g>
</g>
<!-- Node7&#45;&gt;Node9 -->
<g id="edge8" class="edge">
<title>Node7&#45;&gt;Node9</title>
<path fill="none" stroke="midnightblue" d="M387.7,-152.6C392.4,-155.24 397.11,-158.38 401,-162 422.93,-182.41 410.76,-204.54 437,-219 499.68,-253.55 587.04,-230.19 633.48,-213.23"/>
<polygon fill="midnightblue" stroke="midnightblue" points="634.9,-216.43 643.02,-209.62 632.43,-209.89 634.9,-216.43"/>
</g>
<!-- Node10 -->
<g id="node10" class="node">
<title>Node10</title>
<g id="a_node10"><a xlink:href="fp_8cuh.html#ade1abe61dfb7cbe9b00d78a38dda4bd3" target="_top" xlink:title="Compares two residues modulo p.">
<polygon fill="white" stroke="black" points="445.5,-114.5 445.5,-133.5 489.5,-133.5 489.5,-114.5 445.5,-114.5"/>
<text text-anchor="middle" x="467.5" y="-121.5" font-family="Helvetica,sans-Serif" font-size="10.00">fp_eq</text>
</a>
</g>
</g>
<!-- Node7&#45;&gt;Node10 -->
<g id="edge9" class="edge">
<title>Node7&#45;&gt;Node10</title>
<path fill="none" stroke="midnightblue" d="M401.11,-136.3C412.3,-134.2 424.56,-131.89 435.41,-129.85"/>
<polygon fill="midnightblue" stroke="midnightblue" points="436.12,-133.28 445.3,-127.99 434.83,-126.4 436.12,-133.28"/>
</g>
<!-- Node11 -->
<g id="node11" class="node">
<title>Node11</title>
<g id="a_node11"><a xlink:href="fp_8cuh.html#a45eab81e60385635ab4732360f94ec91" target="_top" xlink:title="Checks if the residue x modulo p is congruent to zero.">
<polygon fill="white" stroke="black" points="534,-152.5 534,-171.5 595,-171.5 595,-152.5 534,-152.5"/>
<text text-anchor="middle" x="564.5" y="-159.5" font-family="Helvetica,sans-Serif" font-size="10.00">fp_iszero</text>
</a>
</g>
</g>
<!-- Node7&#45;&gt;Node11 -->
<g id="edge14" class="edge">
<title>Node7&#45;&gt;Node11</title>
<path fill="none" stroke="midnightblue" d="M401.36,-146.44C435.84,-149.75 487.87,-154.74 523.64,-158.18"/>
<polygon fill="midnightblue" stroke="midnightblue" points="523.44,-161.67 533.73,-159.14 524.11,-154.7 523.44,-161.67"/>
</g>
<!-- Node14 -->
<g id="node14" class="node">
<title>Node14</title>
<g id="a_node14"><a xlink:href="fp_8cuh.html#a9f82a12248e7c53ac9d166e25e083bba" target="_top" xlink:title="Multiplies two Fp residues x and y, stores in z.">
<polygon fill="white" stroke="black" points="442.5,-76.5 442.5,-95.5 492.5,-95.5 492.5,-76.5 442.5,-76.5"/>
<text text-anchor="middle" x="467.5" y="-83.5" font-family="Helvetica,sans-Serif" font-size="10.00">fp_mul</text>
</a>
</g>
</g>
<!-- Node7&#45;&gt;Node14 -->
<g id="edge15" class="edge">
<title>Node7&#45;&gt;Node14</title>
<path fill="none" stroke="midnightblue" d="M382.63,-133.33C398.54,-124.35 422.46,-110.86 440.68,-100.57"/>
<polygon fill="midnightblue" stroke="midnightblue" points="442.63,-103.49 449.62,-95.53 439.19,-97.39 442.63,-103.49"/>
</g>
<!-- Node15 -->
<g id="node15" class="node">
<title>Node15</title>
<g id="a_node15"><a xlink:href="fp_8cuh.html#a74e253977f8412787ed920e5a07de414" target="_top" xlink:title="Computes the square of the residue x modulo p and stores it in z.">
<polygon fill="white" stroke="black" points="444,-38.5 444,-57.5 491,-57.5 491,-38.5 444,-38.5"/>
<text text-anchor="middle" x="467.5" y="-45.5" font-family="Helvetica,sans-Serif" font-size="10.00">fp_sqr</text>
</a>
</g>
</g>
<!-- Node7&#45;&gt;Node15 -->
<g id="edge16" class="edge">
<title>Node7&#45;&gt;Node15</title>
<path fill="none" stroke="midnightblue" d="M373.21,-133.41C385.65,-118.26 411.38,-88.32 437,-67 438.51,-65.74 440.11,-64.5 441.75,-63.29"/>
<polygon fill="midnightblue" stroke="midnightblue" points="443.81,-66.12 450.08,-57.57 439.85,-60.35 443.81,-66.12"/>
</g>
<!-- Node16 -->
<g id="node16" class="node">
<title>Node16</title>
<g id="a_node16"><a xlink:href="fp_8cuh.html#a6fe5404e5c3813ab6944ed160eea3adb" target="_top" xlink:title="Multiplies x by 4 and stores the result into z.">
<polygon fill="white" stroke="black" points="445.5,-0.5 445.5,-19.5 489.5,-19.5 489.5,-0.5 445.5,-0.5"/>
<text text-anchor="middle" x="467.5" y="-7.5" font-family="Helvetica,sans-Serif" font-size="10.00">fp_x4</text>
</a>
</g>
</g>
<!-- Node7&#45;&gt;Node16 -->
<g id="edge17" class="edge">
<title>Node7&#45;&gt;Node16</title>
<path fill="none" stroke="midnightblue" d="M369.7,-133.48C379.24,-112.61 404.32,-62.07 437,-29 438.07,-27.92 439.21,-26.86 440.4,-25.85"/>
<polygon fill="midnightblue" stroke="midnightblue" points="442.76,-28.45 448.7,-19.68 438.59,-22.84 442.76,-28.45"/>
</g>
<!-- Node17 -->
<g id="node17" class="node">
<title>Node17</title>
<g id="a_node17"><a xlink:href="g1p__ispoint_8cu.html#aefda685f50e444161695d95042c312d5" target="_top" xlink:title="Check if the value stored in p is the the/any point at infinity. This implementation uses (0,...">
<polygon fill="white" stroke="black" points="437,-190.5 437,-209.5 498,-209.5 498,-190.5 437,-190.5"/>
<text text-anchor="middle" x="467.5" y="-197.5" font-family="Helvetica,sans-Serif" font-size="10.00">g1p_isInf</text>
</a>
</g>
</g>
<!-- Node7&#45;&gt;Node17 -->
<g id="edge18" class="edge">
<title>Node7&#45;&gt;Node17</title>
<path fill="none" stroke="midnightblue" d="M383.62,-152.55C389.22,-155.53 395.38,-158.87 401,-162 414.54,-169.55 429.51,-178.21 441.71,-185.35"/>
<polygon fill="midnightblue" stroke="midnightblue" points="440.04,-188.43 450.44,-190.48 443.59,-182.39 440.04,-188.43"/>
</g>
<!-- Node10&#45;&gt;Node11 -->
<g id="edge10" class="edge">
<title>Node10&#45;&gt;Node11</title>
<path fill="none" stroke="midnightblue" d="M489.58,-132.43C501.46,-137.18 516.57,-143.23 530.02,-148.61"/>
<polygon fill="midnightblue" stroke="midnightblue" points="528.88,-151.92 539.46,-152.38 531.48,-145.42 528.88,-151.92"/>
</g>
<!-- Node13 -->
<g id="node13" class="node">
<title>Node13</title>
<g id="a_node13"><a xlink:href="fp_8cuh.html#aff96ec3f32ad9c0419911604d5fefe44" target="_top" xlink:title="Calculates the difference of two residues modulo p and stores it into z.">
<polygon fill="white" stroke="black" points="540,-114.5 540,-133.5 589,-133.5 589,-114.5 540,-114.5"/>
<text text-anchor="middle" x="564.5" y="-121.5" font-family="Helvetica,sans-Serif" font-size="10.00">fp_sub</text>
</a>
</g>
</g>
<!-- Node10&#45;&gt;Node13 -->
<g id="edge13" class="edge">
<title>Node10&#45;&gt;Node13</title>
<path fill="none" stroke="midnightblue" d="M489.58,-124C501.32,-124 516.2,-124 529.53,-124"/>
<polygon fill="midnightblue" stroke="midnightblue" points="529.8,-127.5 539.8,-124 529.8,-120.5 529.8,-127.5"/>
</g>
<!-- Node11&#45;&gt;Node9 -->
<g id="edge11" class="edge">
<title>Node11&#45;&gt;Node9</title>
<path fill="none" stroke="midnightblue" d="M590.73,-171.59C603.4,-176.4 618.9,-182.29 632.49,-187.46"/>
<polygon fill="midnightblue" stroke="midnightblue" points="631.4,-190.79 641.99,-191.07 633.89,-184.24 631.4,-190.79"/>
</g>
<!-- Node12 -->
<g id="node12" class="node">
<title>Node12</title>
<g id="a_node12"><a xlink:href="fp_8cuh.html#a89b41553cb5af629dd8ac33b71d03ee1" target="_top" xlink:title="Narrow reduction of a residue modulo p, reducing to the canonical representation.">
<polygon fill="white" stroke="black" points="631,-152.5 631,-171.5 702,-171.5 702,-152.5 631,-152.5"/>
<text text-anchor="middle" x="666.5" y="-159.5" font-family="Helvetica,sans-Serif" font-size="10.00">fp_reduce6</text>
</a>
</g>
</g>
<!-- Node11&#45;&gt;Node12 -->
<g id="edge12" class="edge">
<title>Node11&#45;&gt;Node12</title>
<path fill="none" stroke="midnightblue" d="M595.23,-162C603.17,-162 611.93,-162 620.5,-162"/>
<polygon fill="midnightblue" stroke="midnightblue" points="620.78,-165.5 630.78,-162 620.78,-158.5 620.78,-165.5"/>
</g>
<!-- Node17&#45;&gt;Node11 -->
<g id="edge22" class="edge">
<title>Node17&#45;&gt;Node11</title>
<path fill="none" stroke="midnightblue" d="M492.47,-190.41C503.84,-185.87 517.6,-180.36 529.98,-175.41"/>
<polygon fill="midnightblue" stroke="midnightblue" points="531.55,-178.55 539.54,-171.59 528.95,-172.05 531.55,-178.55"/>
</g>
<!-- Node18 -->
<g id="node18" class="node">
<title>Node18</title>
<g id="a_node18"><a xlink:href="fp_8cuh.html#acf26ba4d56d7ff54adc93a6e1bcaeab1" target="_top" xlink:title="Checks if the residue x modulo p is congruent to one.">
<polygon fill="white" stroke="black" points="535.5,-190.5 535.5,-209.5 593.5,-209.5 593.5,-190.5 535.5,-190.5"/>
<text text-anchor="middle" x="564.5" y="-197.5" font-family="Helvetica,sans-Serif" font-size="10.00">fp_isone</text>
</a>
</g>
</g>
<!-- Node17&#45;&gt;Node18 -->
<g id="edge19" class="edge">
<title>Node17&#45;&gt;Node18</title>
<path fill="none" stroke="midnightblue" d="M498.04,-200C506.57,-200 516.01,-200 525.01,-200"/>
<polygon fill="midnightblue" stroke="midnightblue" points="525.28,-203.5 535.28,-200 525.28,-196.5 525.28,-203.5"/>
</g>
<!-- Node18&#45;&gt;Node9 -->
<g id="edge20" class="edge">
<title>Node18&#45;&gt;Node9</title>
<path fill="none" stroke="midnightblue" d="M593.62,-200C605.54,-200 619.52,-200 631.96,-200"/>
<polygon fill="midnightblue" stroke="midnightblue" points="631.98,-203.5 641.98,-200 631.98,-196.5 631.98,-203.5"/>
</g>
<!-- Node18&#45;&gt;Node12 -->
<g id="edge21" class="edge">
<title>Node18&#45;&gt;Node12</title>
<path fill="none" stroke="midnightblue" d="M590.73,-190.41C602.81,-185.82 617.47,-180.25 630.6,-175.26"/>
<polygon fill="midnightblue" stroke="midnightblue" points="632.17,-178.41 640.27,-171.59 629.68,-171.87 632.17,-178.41"/>
</g>
</g>
</svg>
        <g id="navigator" transform="translate(0 0)" fill="#404254">
                <rect fill="#f2f5e9" fill-opacity="0.5" stroke="#606060" stroke-width=".5" x="0" y="0" width="60" height="60"/>
                <use id="zoomplus" xlink:href="#zoomPlus" x="17" y="9" onmousedown="handleZoom(evt,'in')"/>
                <use id="zoomminus" xlink:href="#zoomMin" x="42" y="9" onmousedown="handleZoom(evt,'out')"/>
                <use id="reset" xlink:href="#resetDef" x="30" y="36" onmousedown="handleReset()"/>
                <g id="arrowUp" xlink:href="#dirArrow" transform="translate(30 24)" onmousedown="handlePan(0,-1)">
                  <use xlink:href="#rim" fill="#404040">
                        <set attributeName="fill" to="#808080" begin="arrowUp.mouseover" end="arrowUp.mouseout"/>
                  </use>
                  <path fill="none" stroke="white" stroke-width="1.5" d="M0,-3.0v7 M-2.5,-0.5L0,-3.0L2.5,-0.5"/>
                </g>
                <g id="arrowRight" xlink:href="#dirArrow" transform="rotate(90) translate(36 -43)" onmousedown="handlePan(1,0)">
                  <use xlink:href="#rim" fill="#404040">
                        <set attributeName="fill" to="#808080" begin="arrowRight.mouseover" end="arrowRight.mouseout"/>
                  </use>
                  <path fill="none" stroke="white" stroke-width="1.5" d="M0,-3.0v7 M-2.5,-0.5L0,-3.0L2.5,-0.5"/>
                </g>
                <g id="arrowDown" xlink:href="#dirArrow" transform="rotate(180) translate(-30 -48)" onmousedown="handlePan(0,1)">
                  <use xlink:href="#rim" fill="#404040">
                        <set attributeName="fill" to="#808080" begin="arrowDown.mouseover" end="arrowDown.mouseout"/>
                  </use>
                  <path fill="none" stroke="white" stroke-width="1.5" d="M0,-3.0v7 M-2.5,-0.5L0,-3.0L2.5,-0.5"/>
                </g>
                <g id="arrowLeft" xlink:href="#dirArrow" transform="rotate(270) translate(-36 17)" onmousedown="handlePan(-1,0)">
                  <use xlink:href="#rim" fill="#404040">
                        <set attributeName="fill" to="#808080" begin="arrowLeft.mouseover" end="arrowLeft.mouseout"/>
                  </use>
                  <path fill="none" stroke="white" stroke-width="1.5" d="M0,-3.0v7 M-2.5,-0.5L0,-3.0L2.5,-0.5"/>
                </g>
        </g>
        <svg viewBox="0 0 15 15" width="100%" height="30px" preserveAspectRatio="xMaxYMin meet">
         <g id="arrow_out" transform="scale(0.3 0.3)">
          <a xlink:href="g1_8cuh_aa99a1625656fd85f384889a39bf8067f_cgraph_org.svg" target="_base">
           <rect id="button" ry="5" rx="5" y="6" x="6" height="38" width="38"
                fill="#f2f5e9" fill-opacity="0.5" stroke="#606060" stroke-width="1.0"/>
           <path id="arrow"
             d="M 11.500037,31.436501 C 11.940474,20.09759 22.043105,11.32322 32.158766,21.979434 L 37.068811,17.246167 C 37.068811,17.246167 37.088388,32 37.088388,32 L 22.160133,31.978069 C 22.160133,31.978069 26.997745,27.140456 26.997745,27.140456 C 18.528582,18.264221 13.291696,25.230495 11.500037,31.436501 z"
             style="fill:#404040;"/>
          </a>
         </g>
        </svg>
</svg>
