<?xml version="1.0" encoding="UTF-8" standalone="no"?>
<!DOCTYPE svg PUBLIC "-//W3C//DTD SVG 1.1//EN"
 "http://www.w3.org/Graphics/SVG/1.1/DTD/svg11.dtd">
<!-- Generated by graphviz version 2.43.0 (0)
 -->
<!-- Title: g1p_isPoint Pages: 1 -->
<svg width="382pt" height="294pt"
 viewBox="0.00 0.00 382.00 294.00" xmlns="http://www.w3.org/2000/svg" xmlns:xlink="http://www.w3.org/1999/xlink">
<g id="graph0" class="graph" transform="scale(1 1) rotate(0) translate(4 290)">
<title>g1p_isPoint</title>
<polygon fill="white" stroke="transparent" points="-4,4 -4,-290 378,-290 378,4 -4,4"/>
<!-- Node1 -->
<g id="node1" class="node">
<title>Node1</title>
<g id="a_node1"><a xlink:title="Check if the value stored in p is a valid point on the G1 curve.">
<polygon fill="#bfbfbf" stroke="black" points="0,-133.5 0,-152.5 73,-152.5 73,-133.5 0,-133.5"/>
<text text-anchor="middle" x="36.5" y="-140.5" font-family="Helvetica,sans-Serif" font-size="10.00">g1p_isPoint</text>
</a>
</g>
</g>
<!-- Node2 -->
<g id="node2" class="node">
<title>Node2</title>
<g id="a_node2"><a xlink:href="fp_8cuh.html#a38d4eadff7890b835dceb28d2adb7358" target="_top" xlink:title="Computes the sum of two residues x and y modulo p and stores it in z. Device only function.">
<polygon fill="white" stroke="black" points="114.5,-266.5 114.5,-285.5 164.5,-285.5 164.5,-266.5 114.5,-266.5"/>
<text text-anchor="middle" x="139.5" y="-273.5" font-family="Helvetica,sans-Serif" font-size="10.00">fp_add</text>
</a>
</g>
</g>
<!-- Node1&#45;&gt;Node2 -->
<g id="edge1" class="edge">
<title>Node1&#45;&gt;Node2</title>
<path fill="none" stroke="midnightblue" d="M42.54,-152.73C53.16,-172.67 79.28,-219.07 109,-252 111.42,-254.68 114.15,-257.31 116.95,-259.79"/>
<polygon fill="midnightblue" stroke="midnightblue" points="114.88,-262.62 124.81,-266.29 119.34,-257.22 114.88,-262.62"/>
</g>
<!-- Node3 -->
<g id="node3" class="node">
<title>Node3</title>
<g id="a_node3"><a xlink:href="fp_8cuh.html#aa84fc3bc6fd35779512d8f14938df96d" target="_top" xlink:title="Copy from x into z.">
<polygon fill="white" stroke="black" points="314,-190.5 314,-209.5 363,-209.5 363,-190.5 314,-190.5"/>
<text text-anchor="middle" x="338.5" y="-197.5" font-family="Helvetica,sans-Serif" font-size="10.00">fp_cpy</text>
</a>
</g>
</g>
<!-- Node1&#45;&gt;Node3 -->
<g id="edge2" class="edge">
<title>Node1&#45;&gt;Node3</title>
<path fill="none" stroke="midnightblue" d="M42.84,-152.56C53.07,-169.72 77.24,-205.27 109,-219 173.71,-246.97 258.25,-227.15 304.21,-212.27"/>
<polygon fill="midnightblue" stroke="midnightblue" points="305.58,-215.5 313.95,-209 303.36,-208.87 305.58,-215.5"/>
</g>
<!-- Node4 -->
<g id="node4" class="node">
<title>Node4</title>
<g id="a_node4"><a xlink:href="fp_8cuh.html#ade1abe61dfb7cbe9b00d78a38dda4bd3" target="_top" xlink:title="Compares two residues modulo p.">
<polygon fill="white" stroke="black" points="117.5,-114.5 117.5,-133.5 161.5,-133.5 161.5,-114.5 117.5,-114.5"/>
<text text-anchor="middle" x="139.5" y="-121.5" font-family="Helvetica,sans-Serif" font-size="10.00">fp_eq</text>
</a>
</g>
</g>
<!-- Node1&#45;&gt;Node4 -->
<g id="edge3" class="edge">
<title>Node1&#45;&gt;Node4</title>
<path fill="none" stroke="midnightblue" d="M73.11,-136.3C84.3,-134.2 96.56,-131.89 107.41,-129.85"/>
<polygon fill="midnightblue" stroke="midnightblue" points="108.12,-133.28 117.3,-127.99 106.83,-126.4 108.12,-133.28"/>
</g>
<!-- Node5 -->
<g id="node5" class="node">
<title>Node5</title>
<g id="a_node5"><a xlink:href="fp_8cuh.html#a45eab81e60385635ab4732360f94ec91" target="_top" xlink:title="Checks if the residue x modulo p is congruent to zero.">
<polygon fill="white" stroke="black" points="206,-152.5 206,-171.5 267,-171.5 267,-152.5 206,-152.5"/>
<text text-anchor="middle" x="236.5" y="-159.5" font-family="Helvetica,sans-Serif" font-size="10.00">fp_iszero</text>
</a>
</g>
</g>
<!-- Node1&#45;&gt;Node5 -->
<g id="edge8" class="edge">
<title>Node1&#45;&gt;Node5</title>
<path fill="none" stroke="midnightblue" d="M73.36,-146.44C107.84,-149.75 159.87,-154.74 195.64,-158.18"/>
<polygon fill="midnightblue" stroke="midnightblue" points="195.44,-161.67 205.73,-159.14 196.11,-154.7 195.44,-161.67"/>
</g>
<!-- Node8 -->
<g id="node8" class="node">
<title>Node8</title>
<g id="a_node8"><a xlink:href="fp_8cuh.html#a9f82a12248e7c53ac9d166e25e083bba" target="_top" xlink:title="Multiplies two Fp residues x and y, stores in z.">
<polygon fill="white" stroke="black" points="114.5,-76.5 114.5,-95.5 164.5,-95.5 164.5,-76.5 114.5,-76.5"/>
<text text-anchor="middle" x="139.5" y="-83.5" font-family="Helvetica,sans-Serif" font-size="10.00">fp_mul</text>
</a>
</g>
</g>
<!-- Node1&#45;&gt;Node8 -->
<g id="edge9" class="edge">
<title>Node1&#45;&gt;Node8</title>
<path fill="none" stroke="midnightblue" d="M54.63,-133.33C70.54,-124.35 94.46,-110.86 112.68,-100.57"/>
<polygon fill="midnightblue" stroke="midnightblue" points="114.63,-103.49 121.62,-95.53 111.19,-97.39 114.63,-103.49"/>
</g>
<!-- Node9 -->
<g id="node9" class="node">
<title>Node9</title>
<g id="a_node9"><a xlink:href="fp_8cuh.html#a74e253977f8412787ed920e5a07de414" target="_top" xlink:title="Computes the square of the residue x modulo p and stores it in z.">
<polygon fill="white" stroke="black" points="116,-38.5 116,-57.5 163,-57.5 163,-38.5 116,-38.5"/>
<text text-anchor="middle" x="139.5" y="-45.5" font-family="Helvetica,sans-Serif" font-size="10.00">fp_sqr</text>
</a>
</g>
</g>
<!-- Node1&#45;&gt;Node9 -->
<g id="edge10" class="edge">
<title>Node1&#45;&gt;Node9</title>
<path fill="none" stroke="midnightblue" d="M45.21,-133.41C57.65,-118.26 83.38,-88.32 109,-67 110.51,-65.74 112.11,-64.5 113.75,-63.29"/>
<polygon fill="midnightblue" stroke="midnightblue" points="115.81,-66.12 122.08,-57.57 111.85,-60.35 115.81,-66.12"/>
</g>
<!-- Node10 -->
<g id="node10" class="node">
<title>Node10</title>
<g id="a_node10"><a xlink:href="fp_8cuh.html#a6fe5404e5c3813ab6944ed160eea3adb" target="_top" xlink:title="Multiplies x by 4 and stores the result into z.">
<polygon fill="white" stroke="black" points="117.5,-0.5 117.5,-19.5 161.5,-19.5 161.5,-0.5 117.5,-0.5"/>
<text text-anchor="middle" x="139.5" y="-7.5" font-family="Helvetica,sans-Serif" font-size="10.00">fp_x4</text>
</a>
</g>
</g>
<!-- Node1&#45;&gt;Node10 -->
<g id="edge11" class="edge">
<title>Node1&#45;&gt;Node10</title>
<path fill="none" stroke="midnightblue" d="M41.7,-133.48C51.24,-112.61 76.32,-62.07 109,-29 110.07,-27.92 111.21,-26.86 112.4,-25.85"/>
<polygon fill="midnightblue" stroke="midnightblue" points="114.76,-28.45 120.7,-19.68 110.59,-22.84 114.76,-28.45"/>
</g>
<!-- Node11 -->
<g id="node11" class="node">
<title>Node11</title>
<g id="a_node11"><a xlink:href="g1p__ispoint_8cu.html#aefda685f50e444161695d95042c312d5" target="_top" xlink:title="Check if the value stored in p is the the/any point at infinity. This implementation uses (0,...">
<polygon fill="white" stroke="black" points="109,-190.5 109,-209.5 170,-209.5 170,-190.5 109,-190.5"/>
<text text-anchor="middle" x="139.5" y="-197.5" font-family="Helvetica,sans-Serif" font-size="10.00">g1p_isInf</text>
</a>
</g>
</g>
<!-- Node1&#45;&gt;Node11 -->
<g id="edge12" class="edge">
<title>Node1&#45;&gt;Node11</title>
<path fill="none" stroke="midnightblue" d="M54.63,-152.67C70.54,-161.65 94.46,-175.14 112.68,-185.43"/>
<polygon fill="midnightblue" stroke="midnightblue" points="111.19,-188.61 121.62,-190.47 114.63,-182.51 111.19,-188.61"/>
</g>
<!-- Node4&#45;&gt;Node5 -->
<g id="edge4" class="edge">
<title>Node4&#45;&gt;Node5</title>
<path fill="none" stroke="midnightblue" d="M161.58,-132.43C173.46,-137.18 188.57,-143.23 202.02,-148.61"/>
<polygon fill="midnightblue" stroke="midnightblue" points="200.88,-151.92 211.46,-152.38 203.48,-145.42 200.88,-151.92"/>
</g>
<!-- Node7 -->
<g id="node7" class="node">
<title>Node7</title>
<g id="a_node7"><a xlink:href="fp_8cuh.html#aff96ec3f32ad9c0419911604d5fefe44" target="_top" xlink:title="Calculates the difference of two residues modulo p and stores it into z.">
<polygon fill="white" stroke="black" points="212,-114.5 212,-133.5 261,-133.5 261,-114.5 212,-114.5"/>
<text text-anchor="middle" x="236.5" y="-121.5" font-family="Helvetica,sans-Serif" font-size="10.00">fp_sub</text>
</a>
</g>
</g>
<!-- Node4&#45;&gt;Node7 -->
<g id="edge7" class="edge">
<title>Node4&#45;&gt;Node7</title>
<path fill="none" stroke="midnightblue" d="M161.58,-124C173.32,-124 188.2,-124 201.53,-124"/>
<polygon fill="midnightblue" stroke="midnightblue" points="201.8,-127.5 211.8,-124 201.8,-120.5 201.8,-127.5"/>
</g>
<!-- Node5&#45;&gt;Node3 -->
<g id="edge5" class="edge">
<title>Node5&#45;&gt;Node3</title>
<path fill="none" stroke="midnightblue" d="M262.73,-171.59C275.4,-176.4 290.9,-182.29 304.49,-187.46"/>
<polygon fill="midnightblue" stroke="midnightblue" points="303.4,-190.79 313.99,-191.07 305.89,-184.24 303.4,-190.79"/>
</g>
<!-- Node6 -->
<g id="node6" class="node">
<title>Node6</title>
<g id="a_node6"><a xlink:href="fp_8cuh.html#a89b41553cb5af629dd8ac33b71d03ee1" target="_top" xlink:title="Narrow reduction of a residue modulo p, reducing to the canonical representation.">
<polygon fill="white" stroke="black" points="303,-152.5 303,-171.5 374,-171.5 374,-152.5 303,-152.5"/>
<text text-anchor="middle" x="338.5" y="-159.5" font-family="Helvetica,sans-Serif" font-size="10.00">fp_reduce6</text>
</a>
</g>
</g>
<!-- Node5&#45;&gt;Node6 -->
<g id="edge6" class="edge">
<title>Node5&#45;&gt;Node6</title>
<path fill="none" stroke="midnightblue" d="M267.23,-162C275.17,-162 283.93,-162 292.5,-162"/>
<polygon fill="midnightblue" stroke="midnightblue" points="292.78,-165.5 302.78,-162 292.78,-158.5 292.78,-165.5"/>
</g>
<!-- Node11&#45;&gt;Node5 -->
<g id="edge16" class="edge">
<title>Node11&#45;&gt;Node5</title>
<path fill="none" stroke="midnightblue" d="M164.47,-190.41C175.84,-185.87 189.6,-180.36 201.98,-175.41"/>
<polygon fill="midnightblue" stroke="midnightblue" points="203.55,-178.55 211.54,-171.59 200.95,-172.05 203.55,-178.55"/>
</g>
<!-- Node12 -->
<g id="node12" class="node">
<title>Node12</title>
<g id="a_node12"><a xlink:href="fp_8cuh.html#acf26ba4d56d7ff54adc93a6e1bcaeab1" target="_top" xlink:title="Checks if the residue x modulo p is congruent to one.">
<polygon fill="white" stroke="black" points="207.5,-190.5 207.5,-209.5 265.5,-209.5 265.5,-190.5 207.5,-190.5"/>
<text text-anchor="middle" x="236.5" y="-197.5" font-family="Helvetica,sans-Serif" font-size="10.00">fp_isone</text>
</a>
</g>
</g>
<!-- Node11&#45;&gt;Node12 -->
<g id="edge13" class="edge">
<title>Node11&#45;&gt;Node12</title>
<path fill="none" stroke="midnightblue" d="M170.04,-200C178.57,-200 188.01,-200 197.01,-200"/>
<polygon fill="midnightblue" stroke="midnightblue" points="197.28,-203.5 207.28,-200 197.28,-196.5 197.28,-203.5"/>
</g>
<!-- Node12&#45;&gt;Node3 -->
<g id="edge14" class="edge">
<title>Node12&#45;&gt;Node3</title>
<path fill="none" stroke="midnightblue" d="M265.62,-200C277.54,-200 291.52,-200 303.96,-200"/>
<polygon fill="midnightblue" stroke="midnightblue" points="303.98,-203.5 313.98,-200 303.98,-196.5 303.98,-203.5"/>
</g>
<!-- Node12&#45;&gt;Node6 -->
<g id="edge15" class="edge">
<title>Node12&#45;&gt;Node6</title>
<path fill="none" stroke="midnightblue" d="M262.73,-190.41C274.81,-185.82 289.47,-180.25 302.6,-175.26"/>
<polygon fill="midnightblue" stroke="midnightblue" points="304.17,-178.41 312.27,-171.59 301.68,-171.87 304.17,-178.41"/>
</g>
</g>
</svg>
