<?xml version="1.0" encoding="UTF-8" standalone="no"?>
<!DOCTYPE svg PUBLIC "-//W3C//DTD SVG 1.1//EN"
 "http://www.w3.org/Graphics/SVG/1.1/DTD/svg11.dtd">
<!-- Generated by graphviz version 2.43.0 (0)
 -->
<!-- Title: g1p_dbl.cu Pages: 1 -->
<!--zoomable 196 -->
<svg id="main" version="1.1" xmlns="http://www.w3.org/2000/svg" xmlns:xlink="http://www.w3.org/1999/xlink" xml:space="preserve" onload="init(evt)">
<style type="text/css"><![CDATA[
.edge:hover path { stroke: red; }
.edge:hover polygon { stroke: red; fill: red; }
]]></style>
<script type="text/javascript"><![CDATA[
var edges = document.getElementsByTagName('g');
if (edges && edges.length) {
  for (var i=0;i<edges.length;i++) {
    if (edges[i].id.substr(0,4)=='edge') {
      edges[i].setAttribute('class','edge');
    }
  }
}
]]></script>
        <defs>
                <circle id="rim" cx="0" cy="0" r="7"/>
                <circle id="rim2" cx="0" cy="0" r="3.5"/>
                <g id="zoomPlus">
                        <use xlink:href="#rim" fill="#404040">
                                <set attributeName="fill" to="#808080" begin="zoomplus.mouseover" end="zoomplus.mouseout"/>
                        </use>
                        <path d="M-4,0h8M0,-4v8" fill="none" stroke="white" stroke-width="1.5" pointer-events="none"/>
                </g>
                <g id="zoomMin">
                        <use xlink:href="#rim" fill="#404040">
                                <set attributeName="fill" to="#808080" begin="zoomminus.mouseover" end="zoomminus.mouseout"/>
                        </use>
                        <path d="M-4,0h8" fill="none" stroke="white" stroke-width="1.5" pointer-events="none"/>
                </g>
                <g id="dirArrow">
                        <path fill="none" stroke="white" stroke-width="1.5" d="M0,-3.0v7 M-2.5,-0.5L0,-3.0L2.5,-0.5"/>
                </g>
               <g id="resetDef">
                       <use xlink:href="#rim2" fill="#404040">
                               <set attributeName="fill" to="#808080" begin="reset.mouseover" end="reset.mouseout"/>
                       </use>
               </g>
        </defs>

<script type="text/javascript">
var viewWidth = 910;
var viewHeight = 196;
var sectionId = 'dynsection-0';
</script>
<script xlink:href="svgpan.js"/>
<svg id="graph" class="graph">
<g id="viewport">
<title>g1p_dbl.cu</title>
<polygon fill="white" stroke="transparent" points="-4,4 -4,-192 906.46,-192 906.46,4 -4,4"/>
<!-- Node1 -->
<g id="node1" class="node">
<title>Node1</title>
<g id="a_node1"><a xlink:title=" ">
<polygon fill="#bfbfbf" stroke="black" points="368.46,-168.5 368.46,-187.5 437.46,-187.5 437.46,-168.5 368.46,-168.5"/>
<text text-anchor="middle" x="402.96" y="-175.5" font-family="Helvetica,sans-Serif" font-size="10.00">g1p_dbl.cu</text>
</a>
</g>
</g>
<!-- Node2 -->
<g id="node2" class="node">
<title>Node2</title>
<g id="a_node2"><a xlink:href="g1_8cuh.html" target="_top" xlink:title=" ">
<polygon fill="white" stroke="black" points="13.46,-112.5 13.46,-131.5 62.46,-131.5 62.46,-112.5 13.46,-112.5"/>
<text text-anchor="middle" x="37.96" y="-119.5" font-family="Helvetica,sans-Serif" font-size="10.00">g1.cuh</text>
</a>
</g>
</g>
<!-- Node1&#45;&gt;Node2 -->
<g id="edge1" class="edge">
<title>Node1&#45;&gt;Node2</title>
<path fill="none" stroke="midnightblue" d="M368.41,-173.02C309.18,-166.02 184.5,-150.46 79.96,-132 77.61,-131.58 75.18,-131.13 72.74,-130.66"/>
<polygon fill="midnightblue" stroke="midnightblue" points="73.27,-127.19 62.78,-128.63 71.88,-134.05 73.27,-127.19"/>
</g>
<!-- Node4 -->
<g id="node4" class="node">
<title>Node4</title>
<g id="a_node4"><a xlink:href="fp_8cuh.html" target="_top" xlink:title=" ">
<polygon fill="white" stroke="black" points="73.46,-56.5 73.46,-75.5 120.46,-75.5 120.46,-56.5 73.46,-56.5"/>
<text text-anchor="middle" x="96.96" y="-63.5" font-family="Helvetica,sans-Serif" font-size="10.00">fp.cuh</text>
</a>
</g>
</g>
<!-- Node1&#45;&gt;Node4 -->
<g id="edge7" class="edge">
<title>Node1&#45;&gt;Node4</title>
<path fill="none" stroke="midnightblue" d="M368.44,-176.29C299.83,-174.17 149.73,-165.69 112.96,-132 100.26,-120.36 96.9,-100.41 96.33,-85.68"/>
<polygon fill="midnightblue" stroke="midnightblue" points="99.83,-85.64 96.32,-75.65 92.83,-85.65 99.83,-85.64"/>
</g>
<!-- Node6 -->
<g id="node6" class="node">
<title>Node6</title>
<g id="a_node6"><a xlink:href="fp__x2_8cuh.html" target="_top" xlink:title=" ">
<polygon fill="white" stroke="black" points="121.96,-112.5 121.96,-131.5 185.96,-131.5 185.96,-112.5 121.96,-112.5"/>
<text text-anchor="middle" x="153.96" y="-119.5" font-family="Helvetica,sans-Serif" font-size="10.00">fp_x2.cuh</text>
</a>
</g>
</g>
<!-- Node1&#45;&gt;Node6 -->
<g id="edge8" class="edge">
<title>Node1&#45;&gt;Node6</title>
<path fill="none" stroke="midnightblue" d="M368.36,-169.55C329.01,-161.07 262.57,-146.72 196.01,-132.22"/>
<polygon fill="midnightblue" stroke="midnightblue" points="196.7,-128.79 186.19,-130.08 195.21,-135.63 196.7,-128.79"/>
</g>
<!-- Node7 -->
<g id="node7" class="node">
<title>Node7</title>
<g id="a_node7"><a xlink:href="fp__x3_8cuh.html" target="_top" xlink:title=" ">
<polygon fill="white" stroke="black" points="203.96,-112.5 203.96,-131.5 267.96,-131.5 267.96,-112.5 203.96,-112.5"/>
<text text-anchor="middle" x="235.96" y="-119.5" font-family="Helvetica,sans-Serif" font-size="10.00">fp_x3.cuh</text>
</a>
</g>
</g>
<!-- Node1&#45;&gt;Node7 -->
<g id="edge9" class="edge">
<title>Node1&#45;&gt;Node7</title>
<path fill="none" stroke="midnightblue" d="M376.5,-168.44C348.28,-159.32 303.42,-144.81 271.99,-134.65"/>
<polygon fill="midnightblue" stroke="midnightblue" points="272.89,-131.26 262.3,-131.52 270.74,-137.92 272.89,-131.26"/>
</g>
<!-- Node8 -->
<g id="node8" class="node">
<title>Node8</title>
<g id="a_node8"><a xlink:href="fp__x8_8cuh.html" target="_top" xlink:title=" ">
<polygon fill="white" stroke="black" points="285.96,-112.5 285.96,-131.5 349.96,-131.5 349.96,-112.5 285.96,-112.5"/>
<text text-anchor="middle" x="317.96" y="-119.5" font-family="Helvetica,sans-Serif" font-size="10.00">fp_x8.cuh</text>
</a>
</g>
</g>
<!-- Node1&#45;&gt;Node8 -->
<g id="edge10" class="edge">
<title>Node1&#45;&gt;Node8</title>
<path fill="none" stroke="midnightblue" d="M389.3,-168.32C376.04,-159.9 355.69,-146.97 340.11,-137.07"/>
<polygon fill="midnightblue" stroke="midnightblue" points="341.9,-134.06 331.58,-131.65 338.15,-139.97 341.9,-134.06"/>
</g>
<!-- Node9 -->
<g id="node9" class="node">
<title>Node9</title>
<g id="a_node9"><a xlink:href="fp__x12_8cuh.html" target="_top" xlink:title=" ">
<polygon fill="white" stroke="black" points="367.96,-112.5 367.96,-131.5 437.96,-131.5 437.96,-112.5 367.96,-112.5"/>
<text text-anchor="middle" x="402.96" y="-119.5" font-family="Helvetica,sans-Serif" font-size="10.00">fp_x12.cuh</text>
</a>
</g>
</g>
<!-- Node1&#45;&gt;Node9 -->
<g id="edge11" class="edge">
<title>Node1&#45;&gt;Node9</title>
<path fill="none" stroke="midnightblue" d="M402.96,-168.08C402.96,-161.01 402.96,-150.86 402.96,-141.99"/>
<polygon fill="midnightblue" stroke="midnightblue" points="406.46,-141.75 402.96,-131.75 399.46,-141.75 406.46,-141.75"/>
</g>
<!-- Node10 -->
<g id="node10" class="node">
<title>Node10</title>
<g id="a_node10"><a xlink:href="fp__add_8cuh.html" target="_top" xlink:title=" ">
<polygon fill="white" stroke="black" points="455.96,-112.5 455.96,-131.5 525.96,-131.5 525.96,-112.5 455.96,-112.5"/>
<text text-anchor="middle" x="490.96" y="-119.5" font-family="Helvetica,sans-Serif" font-size="10.00">fp_add.cuh</text>
</a>
</g>
</g>
<!-- Node1&#45;&gt;Node10 -->
<g id="edge12" class="edge">
<title>Node1&#45;&gt;Node10</title>
<path fill="none" stroke="midnightblue" d="M417.1,-168.32C430.83,-159.9 451.9,-146.97 468.02,-137.07"/>
<polygon fill="midnightblue" stroke="midnightblue" points="470.16,-139.87 476.86,-131.65 466.5,-133.9 470.16,-139.87"/>
</g>
<!-- Node11 -->
<g id="node11" class="node">
<title>Node11</title>
<g id="a_node11"><a xlink:href="fp__sub_8cuh.html" target="_top" xlink:title=" ">
<polygon fill="white" stroke="black" points="544.46,-112.5 544.46,-131.5 613.46,-131.5 613.46,-112.5 544.46,-112.5"/>
<text text-anchor="middle" x="578.96" y="-119.5" font-family="Helvetica,sans-Serif" font-size="10.00">fp_sub.cuh</text>
</a>
</g>
</g>
<!-- Node1&#45;&gt;Node11 -->
<g id="edge13" class="edge">
<title>Node1&#45;&gt;Node11</title>
<path fill="none" stroke="midnightblue" d="M430.85,-168.44C460.71,-159.28 508.27,-144.69 541.42,-134.52"/>
<polygon fill="midnightblue" stroke="midnightblue" points="542.67,-137.8 551.2,-131.52 540.62,-131.1 542.67,-137.8"/>
</g>
<!-- Node12 -->
<g id="node12" class="node">
<title>Node12</title>
<g id="a_node12"><a xlink:href="fp__sqr_8cuh.html" target="_top" xlink:title=" ">
<polygon fill="white" stroke="black" points="631.96,-112.5 631.96,-131.5 697.96,-131.5 697.96,-112.5 631.96,-112.5"/>
<text text-anchor="middle" x="664.96" y="-119.5" font-family="Helvetica,sans-Serif" font-size="10.00">fp_sqr.cuh</text>
</a>
</g>
</g>
<!-- Node1&#45;&gt;Node12 -->
<g id="edge14" class="edge">
<title>Node1&#45;&gt;Node12</title>
<path fill="none" stroke="midnightblue" d="M437.66,-170.01C479.08,-161.64 550.71,-147.09 621.91,-132.21"/>
<polygon fill="midnightblue" stroke="midnightblue" points="622.88,-135.58 631.95,-130.1 621.45,-128.73 622.88,-135.58"/>
</g>
<!-- Node13 -->
<g id="node13" class="node">
<title>Node13</title>
<g id="a_node13"><a xlink:href="fp__mul_8cuh.html" target="_top" xlink:title=" ">
<polygon fill="white" stroke="black" points="716.46,-112.5 716.46,-131.5 787.46,-131.5 787.46,-112.5 716.46,-112.5"/>
<text text-anchor="middle" x="751.96" y="-119.5" font-family="Helvetica,sans-Serif" font-size="10.00">fp_mul.cuh</text>
</a>
</g>
</g>
<!-- Node1&#45;&gt;Node13 -->
<g id="edge15" class="edge">
<title>Node1&#45;&gt;Node13</title>
<path fill="none" stroke="midnightblue" d="M437.7,-172.44C492.49,-165.12 602.56,-149.9 706.13,-132.07"/>
<polygon fill="midnightblue" stroke="midnightblue" points="706.87,-135.49 716.13,-130.34 705.68,-128.6 706.87,-135.49"/>
</g>
<!-- Node14 -->
<g id="node14" class="node">
<title>Node14</title>
<g id="a_node14"><a xlink:href="fp__reduce12_8cuh.html" target="_top" xlink:title=" ">
<polygon fill="white" stroke="black" points="805.46,-112.5 805.46,-131.5 902.46,-131.5 902.46,-112.5 805.46,-112.5"/>
<text text-anchor="middle" x="853.96" y="-119.5" font-family="Helvetica,sans-Serif" font-size="10.00">fp_reduce12.cuh</text>
</a>
</g>
</g>
<!-- Node1&#45;&gt;Node14 -->
<g id="edge16" class="edge">
<title>Node1&#45;&gt;Node14</title>
<path fill="none" stroke="midnightblue" d="M437.54,-173.55C504.57,-166.77 657.07,-150.79 795.24,-132.19"/>
<polygon fill="midnightblue" stroke="midnightblue" points="795.72,-135.66 805.16,-130.85 794.78,-128.72 795.72,-135.66"/>
</g>
<!-- Node3 -->
<g id="node3" class="node">
<title>Node3</title>
<g id="a_node3"><a xlink:title=" ">
<polygon fill="white" stroke="#bfbfbf" points="6.46,-0.5 6.46,-19.5 59.46,-19.5 59.46,-0.5 6.46,-0.5"/>
<text text-anchor="middle" x="32.96" y="-7.5" font-family="Helvetica,sans-Serif" font-size="10.00">stdint.h</text>
</a>
</g>
</g>
<!-- Node2&#45;&gt;Node3 -->
<g id="edge2" class="edge">
<title>Node2&#45;&gt;Node3</title>
<path fill="none" stroke="midnightblue" d="M27.8,-112.19C19.05,-103.87 7.06,-90.54 1.96,-76 -4.08,-58.77 6.85,-40.05 17.36,-27.15"/>
<polygon fill="midnightblue" stroke="midnightblue" points="20.05,-29.4 24.03,-19.58 14.79,-24.77 20.05,-29.4"/>
</g>
<!-- Node2&#45;&gt;Node4 -->
<g id="edge3" class="edge">
<title>Node2&#45;&gt;Node4</title>
<path fill="none" stroke="midnightblue" d="M47.44,-112.32C56.16,-104.34 69.3,-92.31 79.86,-82.65"/>
<polygon fill="midnightblue" stroke="midnightblue" points="82.29,-85.17 87.31,-75.83 77.57,-80 82.29,-85.17"/>
</g>
<!-- Node5 -->
<g id="node5" class="node">
<title>Node5</title>
<g id="a_node5"><a xlink:href="fr_8cuh.html" target="_top" xlink:title=" ">
<polygon fill="white" stroke="black" points="10.96,-56.5 10.96,-75.5 54.96,-75.5 54.96,-56.5 10.96,-56.5"/>
<text text-anchor="middle" x="32.96" y="-63.5" font-family="Helvetica,sans-Serif" font-size="10.00">fr.cuh</text>
</a>
</g>
</g>
<!-- Node2&#45;&gt;Node5 -->
<g id="edge5" class="edge">
<title>Node2&#45;&gt;Node5</title>
<path fill="none" stroke="midnightblue" d="M37.13,-112.08C36.48,-105.01 35.54,-94.86 34.72,-85.99"/>
<polygon fill="midnightblue" stroke="midnightblue" points="38.18,-85.39 33.77,-75.75 31.21,-86.03 38.18,-85.39"/>
</g>
<!-- Node4&#45;&gt;Node3 -->
<g id="edge4" class="edge">
<title>Node4&#45;&gt;Node3</title>
<path fill="none" stroke="midnightblue" d="M86.68,-56.32C77.12,-48.26 62.68,-36.08 51.18,-26.37"/>
<polygon fill="midnightblue" stroke="midnightblue" points="53.33,-23.61 43.43,-19.83 48.82,-28.96 53.33,-23.61"/>
</g>
<!-- Node5&#45;&gt;Node3 -->
<g id="edge6" class="edge">
<title>Node5&#45;&gt;Node3</title>
<path fill="none" stroke="midnightblue" d="M32.96,-56.08C32.96,-49.01 32.96,-38.86 32.96,-29.99"/>
<polygon fill="midnightblue" stroke="midnightblue" points="36.46,-29.75 32.96,-19.75 29.46,-29.75 36.46,-29.75"/>
</g>
</g>
</svg>
        <g id="navigator" transform="translate(0 0)" fill="#404254">
                <rect fill="#f2f5e9" fill-opacity="0.5" stroke="#606060" stroke-width=".5" x="0" y="0" width="60" height="60"/>
                <use id="zoomplus" xlink:href="#zoomPlus" x="17" y="9" onmousedown="handleZoom(evt,'in')"/>
                <use id="zoomminus" xlink:href="#zoomMin" x="42" y="9" onmousedown="handleZoom(evt,'out')"/>
                <use id="reset" xlink:href="#resetDef" x="30" y="36" onmousedown="handleReset()"/>
                <g id="arrowUp" xlink:href="#dirArrow" transform="translate(30 24)" onmousedown="handlePan(0,-1)">
                  <use xlink:href="#rim" fill="#404040">
                        <set attributeName="fill" to="#808080" begin="arrowUp.mouseover" end="arrowUp.mouseout"/>
                  </use>
                  <path fill="none" stroke="white" stroke-width="1.5" d="M0,-3.0v7 M-2.5,-0.5L0,-3.0L2.5,-0.5"/>
                </g>
                <g id="arrowRight" xlink:href="#dirArrow" transform="rotate(90) translate(36 -43)" onmousedown="handlePan(1,0)">
                  <use xlink:href="#rim" fill="#404040">
                        <set attributeName="fill" to="#808080" begin="arrowRight.mouseover" end="arrowRight.mouseout"/>
                  </use>
                  <path fill="none" stroke="white" stroke-width="1.5" d="M0,-3.0v7 M-2.5,-0.5L0,-3.0L2.5,-0.5"/>
                </g>
                <g id="arrowDown" xlink:href="#dirArrow" transform="rotate(180) translate(-30 -48)" onmousedown="handlePan(0,1)">
                  <use xlink:href="#rim" fill="#404040">
                        <set attributeName="fill" to="#808080" begin="arrowDown.mouseover" end="arrowDown.mouseout"/>
                  </use>
                  <path fill="none" stroke="white" stroke-width="1.5" d="M0,-3.0v7 M-2.5,-0.5L0,-3.0L2.5,-0.5"/>
                </g>
                <g id="arrowLeft" xlink:href="#dirArrow" transform="rotate(270) translate(-36 17)" onmousedown="handlePan(-1,0)">
                  <use xlink:href="#rim" fill="#404040">
                        <set attributeName="fill" to="#808080" begin="arrowLeft.mouseover" end="arrowLeft.mouseout"/>
                  </use>
                  <path fill="none" stroke="white" stroke-width="1.5" d="M0,-3.0v7 M-2.5,-0.5L0,-3.0L2.5,-0.5"/>
                </g>
        </g>
        <svg viewBox="0 0 15 15" width="100%" height="30px" preserveAspectRatio="xMaxYMin meet">
         <g id="arrow_out" transform="scale(0.3 0.3)">
          <a xlink:href="g1p__dbl_8cu__incl_org.svg" target="_base">
           <rect id="button" ry="5" rx="5" y="6" x="6" height="38" width="38"
                fill="#f2f5e9" fill-opacity="0.5" stroke="#606060" stroke-width="1.0"/>
           <path id="arrow"
             d="M 11.500037,31.436501 C 11.940474,20.09759 22.043105,11.32322 32.158766,21.979434 L 37.068811,17.246167 C 37.068811,17.246167 37.088388,32 37.088388,32 L 22.160133,31.978069 C 22.160133,31.978069 26.997745,27.140456 26.997745,27.140456 C 18.528582,18.264221 13.291696,25.230495 11.500037,31.436501 z"
             style="fill:#404040;"/>
          </a>
         </g>
        </svg>
</svg>
