<?xml version="1.0" encoding="UTF-8" standalone="no"?>
<!DOCTYPE svg PUBLIC "-//W3C//DTD SVG 1.1//EN"
 "http://www.w3.org/Graphics/SVG/1.1/DTD/svg11.dtd">
<!-- Generated by graphviz version 2.43.0 (0)
 -->
<!-- Title: g1p_neg Pages: 1 -->
<svg width="280pt" height="85pt"
 viewBox="0.00 0.00 280.00 85.00" xmlns="http://www.w3.org/2000/svg" xmlns:xlink="http://www.w3.org/1999/xlink">
<g id="graph0" class="graph" transform="scale(1 1) rotate(0) translate(4 81)">
<title>g1p_neg</title>
<polygon fill="white" stroke="transparent" points="-4,4 -4,-81 276,-81 276,4 -4,4"/>
<!-- Node1 -->
<g id="node1" class="node">
<title>Node1</title>
<g id="a_node1"><a xlink:title="Computes the negative of the point p. Due to negation map automorphism on Elliptic Curves in Weierstr...">
<polygon fill="#bfbfbf" stroke="black" points="0,-38.5 0,-57.5 58,-57.5 58,-38.5 0,-38.5"/>
<text text-anchor="middle" x="29" y="-45.5" font-family="Helvetica,sans-Serif" font-size="10.00">g1p_neg</text>
</a>
</g>
</g>
<!-- Node2 -->
<g id="node2" class="node">
<title>Node2</title>
<g id="a_node2"><a xlink:href="fp_8cuh.html#a0f6ea769bc2df8dd7c4a0b55ae8aefcf" target="_top" xlink:title="Compute an additive inverse of a residue x modulo p. Stores in z. Subtracts x from the highest multip...">
<polygon fill="white" stroke="black" points="104.5,-57.5 104.5,-76.5 154.5,-76.5 154.5,-57.5 104.5,-57.5"/>
<text text-anchor="middle" x="129.5" y="-64.5" font-family="Helvetica,sans-Serif" font-size="10.00">fp_neg</text>
</a>
</g>
</g>
<!-- Node1&#45;&gt;Node2 -->
<g id="edge1" class="edge">
<title>Node1&#45;&gt;Node2</title>
<path fill="none" stroke="midnightblue" d="M58.23,-53.44C69.48,-55.62 82.54,-58.13 94.33,-60.41"/>
<polygon fill="midnightblue" stroke="midnightblue" points="93.8,-63.87 104.28,-62.33 95.12,-57 93.8,-63.87"/>
</g>
<!-- Node3 -->
<g id="node3" class="node">
<title>Node3</title>
<g id="a_node3"><a xlink:href="fp_8cuh.html#a95f5bc7750873645f34f0302cfb5d393" target="_top" xlink:title="Check if the reduced input x is different from zero.">
<polygon fill="white" stroke="black" points="94,-19.5 94,-38.5 165,-38.5 165,-19.5 94,-19.5"/>
<text text-anchor="middle" x="129.5" y="-26.5" font-family="Helvetica,sans-Serif" font-size="10.00">fp_nonzero</text>
</a>
</g>
</g>
<!-- Node1&#45;&gt;Node3 -->
<g id="edge2" class="edge">
<title>Node1&#45;&gt;Node3</title>
<path fill="none" stroke="midnightblue" d="M58.23,-42.56C66.23,-41.01 75.16,-39.29 83.88,-37.61"/>
<polygon fill="midnightblue" stroke="midnightblue" points="84.81,-40.99 93.97,-35.66 83.49,-34.12 84.81,-40.99"/>
</g>
<!-- Node4 -->
<g id="node4" class="node">
<title>Node4</title>
<g id="a_node4"><a xlink:href="fp_8cuh.html#aa84fc3bc6fd35779512d8f14938df96d" target="_top" xlink:title="Copy from x into z.">
<polygon fill="white" stroke="black" points="212,-38.5 212,-57.5 261,-57.5 261,-38.5 212,-38.5"/>
<text text-anchor="middle" x="236.5" y="-45.5" font-family="Helvetica,sans-Serif" font-size="10.00">fp_cpy</text>
</a>
</g>
</g>
<!-- Node3&#45;&gt;Node4 -->
<g id="edge3" class="edge">
<title>Node3&#45;&gt;Node4</title>
<path fill="none" stroke="midnightblue" d="M165.17,-35.27C177,-37.41 190.2,-39.8 201.94,-41.93"/>
<polygon fill="midnightblue" stroke="midnightblue" points="201.34,-45.38 211.81,-43.71 202.59,-38.49 201.34,-45.38"/>
</g>
<!-- Node5 -->
<g id="node5" class="node">
<title>Node5</title>
<g id="a_node5"><a xlink:href="fp_8cuh.html#a89b41553cb5af629dd8ac33b71d03ee1" target="_top" xlink:title="Narrow reduction of a residue modulo p, reducing to the canonical representation.">
<polygon fill="white" stroke="black" points="201,-0.5 201,-19.5 272,-19.5 272,-0.5 201,-0.5"/>
<text text-anchor="middle" x="236.5" y="-7.5" font-family="Helvetica,sans-Serif" font-size="10.00">fp_reduce6</text>
</a>
</g>
</g>
<!-- Node3&#45;&gt;Node5 -->
<g id="edge4" class="edge">
<title>Node3&#45;&gt;Node5</title>
<path fill="none" stroke="midnightblue" d="M165.17,-22.73C173.42,-21.23 182.32,-19.62 190.94,-18.06"/>
<polygon fill="midnightblue" stroke="midnightblue" points="191.65,-21.49 200.86,-16.27 190.4,-14.6 191.65,-21.49"/>
</g>
</g>
</svg>
