<?xml version="1.0" encoding="UTF-8" standalone="no"?>
<!DOCTYPE svg PUBLIC "-//W3C//DTD SVG 1.1//EN"
 "http://www.w3.org/Graphics/SVG/1.1/DTD/svg11.dtd">
<!-- Generated by graphviz version 2.43.0 (0)
 -->
<!-- Title: g1p_add.cu Pages: 1 -->
<svg width="715pt" height="196pt"
 viewBox="0.00 0.00 714.50 196.00" xmlns="http://www.w3.org/2000/svg" xmlns:xlink="http://www.w3.org/1999/xlink">
<g id="graph0" class="graph" transform="scale(1 1) rotate(0) translate(4 192)">
<title>g1p_add.cu</title>
<polygon fill="white" stroke="transparent" points="-4,4 -4,-192 710.5,-192 710.5,4 -4,4"/>
<!-- Node1 -->
<g id="node1" class="node">
<title>Node1</title>
<g id="a_node1"><a xlink:title=" ">
<polygon fill="#bfbfbf" stroke="black" points="262,-168.5 262,-187.5 334,-187.5 334,-168.5 262,-168.5"/>
<text text-anchor="middle" x="298" y="-175.5" font-family="Helvetica,sans-Serif" font-size="10.00">g1p_add.cu</text>
</a>
</g>
</g>
<!-- Node2 -->
<g id="node2" class="node">
<title>Node2</title>
<g id="a_node2"><a xlink:title=" ">
<polygon fill="white" stroke="#bfbfbf" points="0,-112.5 0,-131.5 50,-131.5 50,-112.5 0,-112.5"/>
<text text-anchor="middle" x="25" y="-119.5" font-family="Helvetica,sans-Serif" font-size="10.00">stdio.h</text>
</a>
</g>
</g>
<!-- Node1&#45;&gt;Node2 -->
<g id="edge1" class="edge">
<title>Node1&#45;&gt;Node2</title>
<path fill="none" stroke="midnightblue" d="M261.84,-170.47C215.79,-162.06 133.82,-146.76 64,-132 62.74,-131.73 61.45,-131.46 60.16,-131.18"/>
<polygon fill="midnightblue" stroke="midnightblue" points="60.67,-127.7 50.15,-128.95 59.14,-134.54 60.67,-127.7"/>
</g>
<!-- Node3 -->
<g id="node3" class="node">
<title>Node3</title>
<g id="a_node3"><a xlink:href="fp_8cuh.html" target="_top" xlink:title=" ">
<polygon fill="white" stroke="black" points="54.5,-56.5 54.5,-75.5 101.5,-75.5 101.5,-56.5 54.5,-56.5"/>
<text text-anchor="middle" x="78" y="-63.5" font-family="Helvetica,sans-Serif" font-size="10.00">fp.cuh</text>
</a>
</g>
</g>
<!-- Node1&#45;&gt;Node3 -->
<g id="edge2" class="edge">
<title>Node1&#45;&gt;Node3</title>
<path fill="none" stroke="midnightblue" d="M261.58,-173.28C210.31,-167.32 120.48,-154.02 97,-132 84.41,-120.2 80.01,-100.56 78.55,-85.96"/>
<polygon fill="midnightblue" stroke="midnightblue" points="82.02,-85.33 77.91,-75.57 75.03,-85.76 82.02,-85.33"/>
</g>
<!-- Node5 -->
<g id="node5" class="node">
<title>Node5</title>
<g id="a_node5"><a xlink:href="g1_8cuh.html" target="_top" xlink:title=" ">
<polygon fill="white" stroke="black" points="106.5,-112.5 106.5,-131.5 155.5,-131.5 155.5,-112.5 106.5,-112.5"/>
<text text-anchor="middle" x="131" y="-119.5" font-family="Helvetica,sans-Serif" font-size="10.00">g1.cuh</text>
</a>
</g>
</g>
<!-- Node1&#45;&gt;Node5 -->
<g id="edge4" class="edge">
<title>Node1&#45;&gt;Node5</title>
<path fill="none" stroke="midnightblue" d="M271.54,-168.44C242.82,-159.16 196.87,-144.3 165.38,-134.12"/>
<polygon fill="midnightblue" stroke="midnightblue" points="166.3,-130.73 155.7,-130.99 164.14,-137.4 166.3,-130.73"/>
</g>
<!-- Node7 -->
<g id="node7" class="node">
<title>Node7</title>
<g id="a_node7"><a xlink:href="fp__add_8cuh.html" target="_top" xlink:title=" ">
<polygon fill="white" stroke="black" points="174,-112.5 174,-131.5 244,-131.5 244,-112.5 174,-112.5"/>
<text text-anchor="middle" x="209" y="-119.5" font-family="Helvetica,sans-Serif" font-size="10.00">fp_add.cuh</text>
</a>
</g>
</g>
<!-- Node1&#45;&gt;Node7 -->
<g id="edge9" class="edge">
<title>Node1&#45;&gt;Node7</title>
<path fill="none" stroke="midnightblue" d="M283.7,-168.32C269.82,-159.9 248.51,-146.97 232.2,-137.07"/>
<polygon fill="midnightblue" stroke="midnightblue" points="233.63,-133.85 223.26,-131.65 230,-139.83 233.63,-133.85"/>
</g>
<!-- Node8 -->
<g id="node8" class="node">
<title>Node8</title>
<g id="a_node8"><a xlink:href="fp__mul_8cuh.html" target="_top" xlink:title=" ">
<polygon fill="white" stroke="black" points="262.5,-112.5 262.5,-131.5 333.5,-131.5 333.5,-112.5 262.5,-112.5"/>
<text text-anchor="middle" x="298" y="-119.5" font-family="Helvetica,sans-Serif" font-size="10.00">fp_mul.cuh</text>
</a>
</g>
</g>
<!-- Node1&#45;&gt;Node8 -->
<g id="edge10" class="edge">
<title>Node1&#45;&gt;Node8</title>
<path fill="none" stroke="midnightblue" d="M298,-168.08C298,-161.01 298,-150.86 298,-141.99"/>
<polygon fill="midnightblue" stroke="midnightblue" points="301.5,-141.75 298,-131.75 294.5,-141.75 301.5,-141.75"/>
</g>
<!-- Node9 -->
<g id="node9" class="node">
<title>Node9</title>
<g id="a_node9"><a xlink:href="fp__sub_8cuh.html" target="_top" xlink:title=" ">
<polygon fill="white" stroke="black" points="351.5,-112.5 351.5,-131.5 420.5,-131.5 420.5,-112.5 351.5,-112.5"/>
<text text-anchor="middle" x="386" y="-119.5" font-family="Helvetica,sans-Serif" font-size="10.00">fp_sub.cuh</text>
</a>
</g>
</g>
<!-- Node1&#45;&gt;Node9 -->
<g id="edge11" class="edge">
<title>Node1&#45;&gt;Node9</title>
<path fill="none" stroke="midnightblue" d="M312.14,-168.32C325.87,-159.9 346.94,-146.97 363.06,-137.07"/>
<polygon fill="midnightblue" stroke="midnightblue" points="365.2,-139.87 371.9,-131.65 361.54,-133.9 365.2,-139.87"/>
</g>
<!-- Node10 -->
<g id="node10" class="node">
<title>Node10</title>
<g id="a_node10"><a xlink:href="fp__x3_8cuh.html" target="_top" xlink:title=" ">
<polygon fill="white" stroke="black" points="439,-112.5 439,-131.5 503,-131.5 503,-112.5 439,-112.5"/>
<text text-anchor="middle" x="471" y="-119.5" font-family="Helvetica,sans-Serif" font-size="10.00">fp_x3.cuh</text>
</a>
</g>
</g>
<!-- Node1&#45;&gt;Node10 -->
<g id="edge12" class="edge">
<title>Node1&#45;&gt;Node10</title>
<path fill="none" stroke="midnightblue" d="M325.41,-168.44C354.77,-159.28 401.52,-144.69 434.1,-134.52"/>
<polygon fill="midnightblue" stroke="midnightblue" points="435.21,-137.84 443.72,-131.52 433.13,-131.16 435.21,-137.84"/>
</g>
<!-- Node11 -->
<g id="node11" class="node">
<title>Node11</title>
<g id="a_node11"><a xlink:href="fp__x12_8cuh.html" target="_top" xlink:title=" ">
<polygon fill="white" stroke="black" points="521,-112.5 521,-131.5 591,-131.5 591,-112.5 521,-112.5"/>
<text text-anchor="middle" x="556" y="-119.5" font-family="Helvetica,sans-Serif" font-size="10.00">fp_x12.cuh</text>
</a>
</g>
</g>
<!-- Node1&#45;&gt;Node11 -->
<g id="edge13" class="edge">
<title>Node1&#45;&gt;Node11</title>
<path fill="none" stroke="midnightblue" d="M334.15,-169.43C380.46,-159.74 460.76,-142.93 510.99,-132.42"/>
<polygon fill="midnightblue" stroke="midnightblue" points="511.85,-135.82 520.93,-130.34 510.42,-128.96 511.85,-135.82"/>
</g>
<!-- Node12 -->
<g id="node12" class="node">
<title>Node12</title>
<g id="a_node12"><a xlink:href="fp__reduce12_8cuh.html" target="_top" xlink:title=" ">
<polygon fill="white" stroke="black" points="609.5,-112.5 609.5,-131.5 706.5,-131.5 706.5,-112.5 609.5,-112.5"/>
<text text-anchor="middle" x="658" y="-119.5" font-family="Helvetica,sans-Serif" font-size="10.00">fp_reduce12.cuh</text>
</a>
</g>
</g>
<!-- Node1&#45;&gt;Node12 -->
<g id="edge14" class="edge">
<title>Node1&#45;&gt;Node12</title>
<path fill="none" stroke="midnightblue" d="M334.27,-171.67C389.15,-163.58 496.86,-147.66 599.08,-132.13"/>
<polygon fill="midnightblue" stroke="midnightblue" points="599.91,-135.55 609.27,-130.58 598.86,-128.63 599.91,-135.55"/>
</g>
<!-- Node4 -->
<g id="node4" class="node">
<title>Node4</title>
<g id="a_node4"><a xlink:title=" ">
<polygon fill="white" stroke="#bfbfbf" points="103.5,-0.5 103.5,-19.5 156.5,-19.5 156.5,-0.5 103.5,-0.5"/>
<text text-anchor="middle" x="130" y="-7.5" font-family="Helvetica,sans-Serif" font-size="10.00">stdint.h</text>
</a>
</g>
</g>
<!-- Node3&#45;&gt;Node4 -->
<g id="edge3" class="edge">
<title>Node3&#45;&gt;Node4</title>
<path fill="none" stroke="midnightblue" d="M86.59,-56.08C94.16,-48.22 105.38,-36.57 114.51,-27.08"/>
<polygon fill="midnightblue" stroke="midnightblue" points="117.16,-29.38 121.57,-19.75 112.12,-24.53 117.16,-29.38"/>
</g>
<!-- Node5&#45;&gt;Node3 -->
<g id="edge6" class="edge">
<title>Node5&#45;&gt;Node3</title>
<path fill="none" stroke="midnightblue" d="M122.25,-112.08C114.53,-104.22 103.1,-92.57 93.78,-83.08"/>
<polygon fill="midnightblue" stroke="midnightblue" points="96.09,-80.44 86.59,-75.75 91.1,-85.34 96.09,-80.44"/>
</g>
<!-- Node5&#45;&gt;Node4 -->
<g id="edge5" class="edge">
<title>Node5&#45;&gt;Node4</title>
<path fill="none" stroke="midnightblue" d="M130.92,-112.37C130.76,-94.62 130.39,-53.67 130.17,-29.6"/>
<polygon fill="midnightblue" stroke="midnightblue" points="133.67,-29.56 130.08,-19.59 126.67,-29.62 133.67,-29.56"/>
</g>
<!-- Node6 -->
<g id="node6" class="node">
<title>Node6</title>
<g id="a_node6"><a xlink:href="fr_8cuh.html" target="_top" xlink:title=" ">
<polygon fill="white" stroke="black" points="158,-56.5 158,-75.5 202,-75.5 202,-56.5 158,-56.5"/>
<text text-anchor="middle" x="180" y="-63.5" font-family="Helvetica,sans-Serif" font-size="10.00">fr.cuh</text>
</a>
</g>
</g>
<!-- Node5&#45;&gt;Node6 -->
<g id="edge7" class="edge">
<title>Node5&#45;&gt;Node6</title>
<path fill="none" stroke="midnightblue" d="M139.09,-112.08C146.16,-104.3 156.59,-92.8 165.15,-83.37"/>
<polygon fill="midnightblue" stroke="midnightblue" points="167.93,-85.51 172.06,-75.75 162.75,-80.8 167.93,-85.51"/>
</g>
<!-- Node6&#45;&gt;Node4 -->
<g id="edge8" class="edge">
<title>Node6&#45;&gt;Node4</title>
<path fill="none" stroke="midnightblue" d="M171.74,-56.08C164.54,-48.3 153.89,-36.8 145.15,-27.37"/>
<polygon fill="midnightblue" stroke="midnightblue" points="147.47,-24.71 138.1,-19.75 142.33,-29.47 147.47,-24.71"/>
</g>
</g>
</svg>
