<?xml version="1.0" encoding="UTF-8" standalone="no"?>
<!DOCTYPE svg PUBLIC "-//W3C//DTD SVG 1.1//EN"
 "http://www.w3.org/Graphics/SVG/1.1/DTD/svg11.dtd">
<!-- Generated by graphviz version 2.43.0 (0)
 -->
<!-- Title: g1p_mul.cu Pages: 1 -->
<svg width="211pt" height="196pt"
 viewBox="0.00 0.00 211.00 196.00" xmlns="http://www.w3.org/2000/svg" xmlns:xlink="http://www.w3.org/1999/xlink">
<g id="graph0" class="graph" transform="scale(1 1) rotate(0) translate(4 192)">
<title>g1p_mul.cu</title>
<polygon fill="white" stroke="transparent" points="-4,4 -4,-192 207,-192 207,4 -4,4"/>
<!-- Node1 -->
<g id="node1" class="node">
<title>Node1</title>
<g id="a_node1"><a xlink:title=" ">
<polygon fill="#bfbfbf" stroke="black" points="67.5,-168.5 67.5,-187.5 140.5,-187.5 140.5,-168.5 67.5,-168.5"/>
<text text-anchor="middle" x="104" y="-175.5" font-family="Helvetica,sans-Serif" font-size="10.00">g1p_mul.cu</text>
</a>
</g>
</g>
<!-- Node2 -->
<g id="node2" class="node">
<title>Node2</title>
<g id="a_node2"><a xlink:title=" ">
<polygon fill="white" stroke="#bfbfbf" points="0,-112.5 0,-131.5 50,-131.5 50,-112.5 0,-112.5"/>
<text text-anchor="middle" x="25" y="-119.5" font-family="Helvetica,sans-Serif" font-size="10.00">stdio.h</text>
</a>
</g>
</g>
<!-- Node1&#45;&gt;Node2 -->
<g id="edge1" class="edge">
<title>Node1&#45;&gt;Node2</title>
<path fill="none" stroke="midnightblue" d="M91.31,-168.32C79.1,-159.98 60.42,-147.21 46,-137.35"/>
<polygon fill="midnightblue" stroke="midnightblue" points="47.89,-134.41 37.66,-131.65 43.94,-140.19 47.89,-134.41"/>
</g>
<!-- Node3 -->
<g id="node3" class="node">
<title>Node3</title>
<g id="a_node3"><a xlink:href="fp_8cuh.html" target="_top" xlink:title=" ">
<polygon fill="white" stroke="black" points="55.5,-56.5 55.5,-75.5 102.5,-75.5 102.5,-56.5 55.5,-56.5"/>
<text text-anchor="middle" x="79" y="-63.5" font-family="Helvetica,sans-Serif" font-size="10.00">fp.cuh</text>
</a>
</g>
</g>
<!-- Node1&#45;&gt;Node3 -->
<g id="edge2" class="edge">
<title>Node1&#45;&gt;Node3</title>
<path fill="none" stroke="midnightblue" d="M102.04,-168.37C98,-150.62 88.7,-109.67 83.23,-85.6"/>
<polygon fill="midnightblue" stroke="midnightblue" points="86.58,-84.57 80.95,-75.59 79.76,-86.12 86.58,-84.57"/>
</g>
<!-- Node5 -->
<g id="node5" class="node">
<title>Node5</title>
<g id="a_node5"><a xlink:href="fr_8cuh.html" target="_top" xlink:title=" ">
<polygon fill="white" stroke="black" points="159,-56.5 159,-75.5 203,-75.5 203,-56.5 159,-56.5"/>
<text text-anchor="middle" x="181" y="-63.5" font-family="Helvetica,sans-Serif" font-size="10.00">fr.cuh</text>
</a>
</g>
</g>
<!-- Node1&#45;&gt;Node5 -->
<g id="edge4" class="edge">
<title>Node1&#45;&gt;Node5</title>
<path fill="none" stroke="midnightblue" d="M121.01,-168.43C134.63,-160.71 153.18,-148.1 164,-132 173.25,-118.23 177.47,-99.71 179.39,-85.96"/>
<polygon fill="midnightblue" stroke="midnightblue" points="182.9,-86.06 180.53,-75.74 175.94,-85.29 182.9,-86.06"/>
</g>
<!-- Node6 -->
<g id="node6" class="node">
<title>Node6</title>
<g id="a_node6"><a xlink:href="g1_8cuh.html" target="_top" xlink:title=" ">
<polygon fill="white" stroke="black" points="106.5,-112.5 106.5,-131.5 155.5,-131.5 155.5,-112.5 106.5,-112.5"/>
<text text-anchor="middle" x="131" y="-119.5" font-family="Helvetica,sans-Serif" font-size="10.00">g1.cuh</text>
</a>
</g>
</g>
<!-- Node1&#45;&gt;Node6 -->
<g id="edge6" class="edge">
<title>Node1&#45;&gt;Node6</title>
<path fill="none" stroke="midnightblue" d="M108.46,-168.08C112.15,-160.69 117.52,-149.95 122.09,-140.81"/>
<polygon fill="midnightblue" stroke="midnightblue" points="125.28,-142.26 126.62,-131.75 119.02,-139.13 125.28,-142.26"/>
</g>
<!-- Node4 -->
<g id="node4" class="node">
<title>Node4</title>
<g id="a_node4"><a xlink:title=" ">
<polygon fill="white" stroke="#bfbfbf" points="104.5,-0.5 104.5,-19.5 157.5,-19.5 157.5,-0.5 104.5,-0.5"/>
<text text-anchor="middle" x="131" y="-7.5" font-family="Helvetica,sans-Serif" font-size="10.00">stdint.h</text>
</a>
</g>
</g>
<!-- Node3&#45;&gt;Node4 -->
<g id="edge3" class="edge">
<title>Node3&#45;&gt;Node4</title>
<path fill="none" stroke="midnightblue" d="M87.59,-56.08C95.16,-48.22 106.38,-36.57 115.51,-27.08"/>
<polygon fill="midnightblue" stroke="midnightblue" points="118.16,-29.38 122.57,-19.75 113.12,-24.53 118.16,-29.38"/>
</g>
<!-- Node5&#45;&gt;Node4 -->
<g id="edge5" class="edge">
<title>Node5&#45;&gt;Node4</title>
<path fill="none" stroke="midnightblue" d="M172.74,-56.08C165.54,-48.3 154.89,-36.8 146.15,-27.37"/>
<polygon fill="midnightblue" stroke="midnightblue" points="148.47,-24.71 139.1,-19.75 143.33,-29.47 148.47,-24.71"/>
</g>
<!-- Node6&#45;&gt;Node3 -->
<g id="edge8" class="edge">
<title>Node6&#45;&gt;Node3</title>
<path fill="none" stroke="midnightblue" d="M122.41,-112.08C114.84,-104.22 103.62,-92.57 94.49,-83.08"/>
<polygon fill="midnightblue" stroke="midnightblue" points="96.88,-80.53 87.43,-75.75 91.84,-85.38 96.88,-80.53"/>
</g>
<!-- Node6&#45;&gt;Node4 -->
<g id="edge7" class="edge">
<title>Node6&#45;&gt;Node4</title>
<path fill="none" stroke="midnightblue" d="M131,-112.37C131,-94.62 131,-53.67 131,-29.6"/>
<polygon fill="midnightblue" stroke="midnightblue" points="134.5,-29.59 131,-19.59 127.5,-29.59 134.5,-29.59"/>
</g>
<!-- Node6&#45;&gt;Node5 -->
<g id="edge9" class="edge">
<title>Node6&#45;&gt;Node5</title>
<path fill="none" stroke="midnightblue" d="M139.26,-112.08C146.46,-104.3 157.11,-92.8 165.85,-83.37"/>
<polygon fill="midnightblue" stroke="midnightblue" points="168.67,-85.47 172.9,-75.75 163.53,-80.71 168.67,-85.47"/>
</g>
</g>
</svg>
