<?xml version="1.0" encoding="UTF-8" standalone="no"?>
<!DOCTYPE svg PUBLIC "-//W3C//DTD SVG 1.1//EN"
 "http://www.w3.org/Graphics/SVG/1.1/DTD/svg11.dtd">
<!-- Generated by graphviz version 2.43.0 (0)
 -->
<!-- Title: g1p_fft_wrapper Pages: 1 -->
<svg width="493pt" height="332pt"
 viewBox="0.00 0.00 493.00 332.00" xmlns="http://www.w3.org/2000/svg" xmlns:xlink="http://www.w3.org/1999/xlink">
<g id="graph0" class="graph" transform="scale(1 1) rotate(0) translate(4 328)">
<title>g1p_fft_wrapper</title>
<polygon fill="white" stroke="transparent" points="-4,4 -4,-328 489,-328 489,4 -4,4"/>
<!-- Node1 -->
<g id="node1" class="node">
<title>Node1</title>
<g id="a_node1"><a xlink:title="wrapper for g1p_fft: FFT for arrays of g1p_t with length 512">
<polygon fill="#bfbfbf" stroke="black" points="390,-152.5 390,-171.5 485,-171.5 485,-152.5 390,-152.5"/>
<text text-anchor="middle" x="437.5" y="-159.5" font-family="Helvetica,sans-Serif" font-size="10.00">g1p_fft_wrapper</text>
</a>
</g>
</g>
<!-- Node2 -->
<g id="node2" class="node">
<title>Node2</title>
<g id="a_node2"><a xlink:href="fk20_8cuh.html#a428f2dcc8b77723e4def6f684f790ceb" target="_top" xlink:title="polynomial + xext_fft &#45;&gt; h_fft This function is a wrapper for the full FK20 computation,...">
<polygon fill="white" stroke="black" points="253,-190.5 253,-209.5 345,-209.5 345,-190.5 253,-190.5"/>
<text text-anchor="middle" x="299" y="-197.5" font-family="Helvetica,sans-Serif" font-size="10.00">fk20_poly2h_fft</text>
</a>
</g>
</g>
<!-- Node1&#45;&gt;Node2 -->
<g id="edge1" class="edge">
<title>Node1&#45;&gt;Node2</title>
<path fill="none" stroke="midnightblue" d="M392.25,-174.32C373.5,-179.54 351.97,-185.53 334.43,-190.41"/>
<polygon fill="midnightblue" stroke="midnightblue" points="393.36,-177.64 402.06,-171.59 391.48,-170.9 393.36,-177.64"/>
</g>
<!-- Node5 -->
<g id="node5" class="node">
<title>Node5</title>
<g id="a_node5"><a xlink:href="fk20test_8cuh.html#a219d5d803685ea0067dfa4908a620e11" target="_top" xlink:title=" ">
<polygon fill="white" stroke="black" points="273,-76.5 273,-95.5 325,-95.5 325,-76.5 273,-76.5"/>
<text text-anchor="middle" x="299" y="-83.5" font-family="Helvetica,sans-Serif" font-size="10.00">fullTest</text>
</a>
</g>
</g>
<!-- Node1&#45;&gt;Node5 -->
<g id="edge4" class="edge">
<title>Node1&#45;&gt;Node5</title>
<path fill="none" stroke="midnightblue" d="M416.71,-146.07C400.56,-133.65 376.77,-116.61 354,-105 344.88,-100.35 334.36,-96.37 325.04,-93.27"/>
<polygon fill="midnightblue" stroke="midnightblue" points="414.8,-149.03 424.84,-152.44 419.12,-143.52 414.8,-149.03"/>
</g>
<!-- Node8 -->
<g id="node8" class="node">
<title>Node8</title>
<g id="a_node8"><a xlink:href="fk20__512test_8cu.html#a4de6443d77d1c56d1d49715061ba60db" target="_top" xlink:title="Executes many FK20 computations on a single row, with a check on each step. A computation failure wil...">
<polygon fill="white" stroke="black" points="105,-304.5 105,-323.5 180,-323.5 180,-304.5 105,-304.5"/>
<text text-anchor="middle" x="142.5" y="-311.5" font-family="Helvetica,sans-Serif" font-size="10.00">fullTest_512</text>
</a>
</g>
</g>
<!-- Node1&#45;&gt;Node8 -->
<g id="edge7" class="edge">
<title>Node1&#45;&gt;Node8</title>
<path fill="none" stroke="midnightblue" d="M427.67,-180.85C415.02,-205.67 389.3,-248.76 354,-271 300.19,-304.9 224.69,-312.72 180.25,-314.16"/>
<polygon fill="midnightblue" stroke="midnightblue" points="430.88,-182.25 432.15,-171.73 424.6,-179.17 430.88,-182.25"/>
</g>
<!-- Node9 -->
<g id="node9" class="node">
<title>Node9</title>
<g id="a_node9"><a xlink:href="fk20__512test_8cu.html#a537be6501bbccff0654c4ca1b2fd83ae" target="_top" xlink:title="Similar to fullTest, but polynomial is has changes done to it. The function checks for false&#45;positive...">
<polygon fill="white" stroke="black" points="77,-266.5 77,-285.5 208,-285.5 208,-266.5 77,-266.5"/>
<text text-anchor="middle" x="142.5" y="-273.5" font-family="Helvetica,sans-Serif" font-size="10.00">fullTestFalseability_512</text>
</a>
</g>
</g>
<!-- Node1&#45;&gt;Node9 -->
<g id="edge9" class="edge">
<title>Node1&#45;&gt;Node9</title>
<path fill="none" stroke="midnightblue" d="M423.82,-179.83C409.27,-198.81 383.57,-228.13 354,-243 308.72,-265.76 251.62,-273.61 208.32,-275.99"/>
<polygon fill="midnightblue" stroke="midnightblue" points="426.72,-181.8 429.87,-171.68 421.1,-177.63 426.72,-181.8"/>
</g>
<!-- Node10 -->
<g id="node10" class="node">
<title>Node10</title>
<g id="a_node10"><a xlink:href="fk20test_8cuh.html#a8d2cfb1e9fc0723c345460c7ad438df1" target="_top" xlink:title=" ">
<polygon fill="white" stroke="black" points="244,-114.5 244,-133.5 354,-133.5 354,-114.5 244,-114.5"/>
<text text-anchor="middle" x="299" y="-121.5" font-family="Helvetica,sans-Serif" font-size="10.00">fullTestFalsifiability</text>
</a>
</g>
</g>
<!-- Node1&#45;&gt;Node10 -->
<g id="edge11" class="edge">
<title>Node1&#45;&gt;Node10</title>
<path fill="none" stroke="midnightblue" d="M392.25,-149.68C373.5,-144.46 351.97,-138.47 334.43,-133.59"/>
<polygon fill="midnightblue" stroke="midnightblue" points="391.48,-153.1 402.06,-152.41 393.36,-146.36 391.48,-153.1"/>
</g>
<!-- Node11 -->
<g id="node11" class="node">
<title>Node11</title>
<g id="a_node11"><a xlink:href="g1test_8cuh.html#af69268816d41d8e3c477c70066f7bfcf" target="_top" xlink:title="Test for FFT and IFFT of points on the G1 curve. Checks self consistency with the following propertie...">
<polygon fill="white" stroke="black" points="265.5,-152.5 265.5,-171.5 332.5,-171.5 332.5,-152.5 265.5,-152.5"/>
<text text-anchor="middle" x="299" y="-159.5" font-family="Helvetica,sans-Serif" font-size="10.00">G1TestFFT</text>
</a>
</g>
</g>
<!-- Node1&#45;&gt;Node11 -->
<g id="edge13" class="edge">
<title>Node1&#45;&gt;Node11</title>
<path fill="none" stroke="midnightblue" d="M379.55,-162C363.54,-162 346.68,-162 332.62,-162"/>
<polygon fill="midnightblue" stroke="midnightblue" points="379.91,-165.5 389.91,-162 379.91,-158.5 379.91,-165.5"/>
</g>
<!-- Node13 -->
<g id="node13" class="node">
<title>Node13</title>
<g id="a_node13"><a xlink:href="fk20test_8cuh.html#a46da7589b1c0420a0b16d8b3216d7be9" target="_top" xlink:title="Test for g1p_fft: h &#45;&gt; h_fft.">
<polygon fill="white" stroke="black" points="274,-38.5 274,-57.5 324,-57.5 324,-38.5 274,-38.5"/>
<text text-anchor="middle" x="299" y="-45.5" font-family="Helvetica,sans-Serif" font-size="10.00">h2h_fft</text>
</a>
</g>
</g>
<!-- Node1&#45;&gt;Node13 -->
<g id="edge15" class="edge">
<title>Node1&#45;&gt;Node13</title>
<path fill="none" stroke="midnightblue" d="M425.19,-144.06C410.97,-122.86 384.69,-87.86 354,-67 345.04,-60.91 333.92,-56.56 324.11,-53.58"/>
<polygon fill="midnightblue" stroke="midnightblue" points="422.28,-146.01 430.68,-152.47 428.14,-142.18 422.28,-146.01"/>
</g>
<!-- Node15 -->
<g id="node15" class="node">
<title>Node15</title>
<g id="a_node15"><a xlink:href="fk20__512test_8cu.html#a5557a90ff06e60795ad4bae5c7ccc262" target="_top" xlink:title="Test for g1p_fft: h &#45;&gt; h_fft&quot;.">
<polygon fill="white" stroke="black" points="105.5,-228.5 105.5,-247.5 179.5,-247.5 179.5,-228.5 105.5,-228.5"/>
<text text-anchor="middle" x="142.5" y="-235.5" font-family="Helvetica,sans-Serif" font-size="10.00">h2h_fft_512</text>
</a>
</g>
</g>
<!-- Node1&#45;&gt;Node15 -->
<g id="edge18" class="edge">
<title>Node1&#45;&gt;Node15</title>
<path fill="none" stroke="midnightblue" d="M418.47,-178.6C402.72,-192.02 378.59,-210.1 354,-219 295.69,-240.11 222.63,-241.63 179.71,-240.22"/>
<polygon fill="midnightblue" stroke="midnightblue" points="421.11,-180.94 426.31,-171.71 416.48,-175.69 421.11,-180.94"/>
</g>
<!-- Node16 -->
<g id="node16" class="node">
<title>Node16</title>
<g id="a_node16"><a xlink:href="fk20benchmark_8cu.html#a8cd0ecc09d4a9a4c418184789229b4f6" target="_top" xlink:title="Executes a test of FK20 with one block for each row. At the end, compare if the calculated h_fft is t...">
<polygon fill="white" stroke="black" points="258,-0.5 258,-19.5 340,-19.5 340,-0.5 258,-0.5"/>
<text text-anchor="middle" x="299" y="-7.5" font-family="Helvetica,sans-Serif" font-size="10.00">preBenchTest</text>
</a>
</g>
</g>
<!-- Node1&#45;&gt;Node16 -->
<g id="edge20" class="edge">
<title>Node1&#45;&gt;Node16</title>
<path fill="none" stroke="midnightblue" d="M429.43,-142.75C417.92,-114 392.5,-59.94 354,-29 349.2,-25.14 343.55,-22.04 337.76,-19.55"/>
<polygon fill="midnightblue" stroke="midnightblue" points="426.29,-144.35 433.15,-152.42 432.82,-141.83 426.29,-144.35"/>
</g>
<!-- Node3 -->
<g id="node3" class="node">
<title>Node3</title>
<g id="a_node3"><a xlink:href="fk20__512test_8cu.html#a30719348d219c529d6b43175cecd8427" target="_top" xlink:title="Test for fk20_poly2h_fft: polynomial &#45;&gt; h_fft.">
<polygon fill="white" stroke="black" points="84.5,-190.5 84.5,-209.5 200.5,-209.5 200.5,-190.5 84.5,-190.5"/>
<text text-anchor="middle" x="142.5" y="-197.5" font-family="Helvetica,sans-Serif" font-size="10.00">fk20_poly2h_fft_512</text>
</a>
</g>
</g>
<!-- Node2&#45;&gt;Node3 -->
<g id="edge2" class="edge">
<title>Node2&#45;&gt;Node3</title>
<path fill="none" stroke="midnightblue" d="M242.71,-200C229.09,-200 214.48,-200 200.77,-200"/>
<polygon fill="midnightblue" stroke="midnightblue" points="242.9,-203.5 252.9,-200 242.9,-196.5 242.9,-203.5"/>
</g>
<!-- Node4 -->
<g id="node4" class="node">
<title>Node4</title>
<g id="a_node4"><a xlink:href="fk20__512test_8cu.html#a3c04138a5bfe5d72780bb7e82a18e627" target="_top" xlink:title="Executes a many&#45;row tests on FK20. Behavior is similar to fk20test.cu but using many GPU blocks,...">
<polygon fill="white" stroke="black" points="0,-247.5 0,-266.5 41,-266.5 41,-247.5 0,-247.5"/>
<text text-anchor="middle" x="20.5" y="-254.5" font-family="Helvetica,sans-Serif" font-size="10.00">main</text>
</a>
</g>
</g>
<!-- Node3&#45;&gt;Node4 -->
<g id="edge3" class="edge">
<title>Node3&#45;&gt;Node4</title>
<path fill="none" stroke="midnightblue" d="M92.38,-212.7C87.1,-214.58 81.88,-216.68 77,-219 60.76,-226.72 43.97,-238.9 33.17,-247.38"/>
<polygon fill="midnightblue" stroke="midnightblue" points="93.5,-216.01 101.88,-209.54 91.29,-209.37 93.5,-216.01"/>
</g>
<!-- Node6 -->
<g id="node6" class="node">
<title>Node6</title>
<g id="a_node6"><a xlink:href="fk20test_8cuh.html#a3f978e98c96e45785d60ed0d96689521" target="_top" xlink:title=" ">
<polygon fill="white" stroke="black" points="101.5,-76.5 101.5,-95.5 183.5,-95.5 183.5,-76.5 101.5,-76.5"/>
<text text-anchor="middle" x="142.5" y="-83.5" font-family="Helvetica,sans-Serif" font-size="10.00">FK20TestPoly</text>
</a>
</g>
</g>
<!-- Node5&#45;&gt;Node6 -->
<g id="edge5" class="edge">
<title>Node5&#45;&gt;Node6</title>
<path fill="none" stroke="midnightblue" d="M262.6,-86C239.1,-86 208.19,-86 183.75,-86"/>
<polygon fill="midnightblue" stroke="midnightblue" points="262.83,-89.5 272.83,-86 262.83,-82.5 262.83,-89.5"/>
</g>
<!-- Node7 -->
<g id="node7" class="node">
<title>Node7</title>
<g id="a_node7"><a xlink:href="fk20test_8cu.html#ae66f6b31b5ad750f1fe042a706a4e3d4" target="_top" xlink:title=" ">
<polygon fill="white" stroke="black" points="0,-57.5 0,-76.5 41,-76.5 41,-57.5 0,-57.5"/>
<text text-anchor="middle" x="20.5" y="-64.5" font-family="Helvetica,sans-Serif" font-size="10.00">main</text>
</a>
</g>
</g>
<!-- Node6&#45;&gt;Node7 -->
<g id="edge6" class="edge">
<title>Node6&#45;&gt;Node7</title>
<path fill="none" stroke="midnightblue" d="M91,-78C73.35,-75.21 54.58,-72.24 41,-70.09"/>
<polygon fill="midnightblue" stroke="midnightblue" points="90.78,-81.51 101.21,-79.62 91.88,-74.6 90.78,-81.51"/>
</g>
<!-- Node8&#45;&gt;Node4 -->
<g id="edge8" class="edge">
<title>Node8&#45;&gt;Node4</title>
<path fill="none" stroke="midnightblue" d="M95.2,-302.29C88.96,-300.16 82.74,-297.73 77,-295 60.76,-287.28 43.97,-275.1 33.17,-266.62"/>
<polygon fill="midnightblue" stroke="midnightblue" points="94.34,-305.69 104.93,-305.39 96.47,-299.02 94.34,-305.69"/>
</g>
<!-- Node9&#45;&gt;Node4 -->
<g id="edge10" class="edge">
<title>Node9&#45;&gt;Node4</title>
<path fill="none" stroke="midnightblue" d="M71.02,-264.84C60.09,-263.11 49.64,-261.46 41.18,-260.12"/>
<polygon fill="midnightblue" stroke="midnightblue" points="70.72,-268.34 81.15,-266.44 71.82,-261.42 70.72,-268.34"/>
</g>
<!-- Node10&#45;&gt;Node6 -->
<g id="edge12" class="edge">
<title>Node10&#45;&gt;Node6</title>
<path fill="none" stroke="midnightblue" d="M249.05,-111.96C227.46,-106.65 202.46,-100.5 182.21,-95.52"/>
<polygon fill="midnightblue" stroke="midnightblue" points="248.47,-115.42 259.01,-114.41 250.14,-108.62 248.47,-115.42"/>
</g>
<!-- Node12 -->
<g id="node12" class="node">
<title>Node12</title>
<g id="a_node12"><a xlink:href="g1test_8cu.html#a3c04138a5bfe5d72780bb7e82a18e627" target="_top" xlink:title="Test for points in G1.">
<polygon fill="white" stroke="black" points="122,-152.5 122,-171.5 163,-171.5 163,-152.5 122,-152.5"/>
<text text-anchor="middle" x="142.5" y="-159.5" font-family="Helvetica,sans-Serif" font-size="10.00">main</text>
</a>
</g>
</g>
<!-- Node11&#45;&gt;Node12 -->
<g id="edge14" class="edge">
<title>Node11&#45;&gt;Node12</title>
<path fill="none" stroke="midnightblue" d="M254.98,-162C224.85,-162 186.02,-162 163.04,-162"/>
<polygon fill="midnightblue" stroke="midnightblue" points="255.23,-165.5 265.23,-162 255.23,-158.5 255.23,-165.5"/>
</g>
<!-- Node14 -->
<g id="node14" class="node">
<title>Node14</title>
<g id="a_node14"><a xlink:href="fk20test_8cuh.html#a320efd4c0fb8e729400941e21ea983aa" target="_top" xlink:title=" ">
<polygon fill="white" stroke="black" points="103.5,-38.5 103.5,-57.5 181.5,-57.5 181.5,-38.5 103.5,-38.5"/>
<text text-anchor="middle" x="142.5" y="-45.5" font-family="Helvetica,sans-Serif" font-size="10.00">FK20TestFFT</text>
</a>
</g>
</g>
<!-- Node13&#45;&gt;Node14 -->
<g id="edge16" class="edge">
<title>Node13&#45;&gt;Node14</title>
<path fill="none" stroke="midnightblue" d="M263.66,-48C239.34,-48 206.71,-48 181.59,-48"/>
<polygon fill="midnightblue" stroke="midnightblue" points="263.86,-51.5 273.86,-48 263.86,-44.5 263.86,-51.5"/>
</g>
<!-- Node14&#45;&gt;Node7 -->
<g id="edge17" class="edge">
<title>Node14&#45;&gt;Node7</title>
<path fill="none" stroke="midnightblue" d="M93.24,-55.64C74.96,-58.54 55.16,-61.67 41,-63.91"/>
<polygon fill="midnightblue" stroke="midnightblue" points="93.87,-59.08 103.2,-54.06 92.78,-52.17 93.87,-59.08"/>
</g>
<!-- Node15&#45;&gt;Node4 -->
<g id="edge19" class="edge">
<title>Node15&#45;&gt;Node4</title>
<path fill="none" stroke="midnightblue" d="M95.56,-245.27C76.68,-248.26 55.84,-251.56 41.09,-253.9"/>
<polygon fill="midnightblue" stroke="midnightblue" points="96.17,-248.72 105.5,-243.7 95.07,-241.81 96.17,-248.72"/>
</g>
</g>
</svg>
