<?xml version="1.0" encoding="UTF-8" standalone="no"?>
<!DOCTYPE svg PUBLIC "-//W3C//DTD SVG 1.1//EN"
 "http://www.w3.org/Graphics/SVG/1.1/DTD/svg11.dtd">
<!-- Generated by graphviz version 2.43.0 (0)
 -->
<!-- Title: g1p.cu Pages: 1 -->
<svg width="210pt" height="196pt"
 viewBox="0.00 0.00 210.00 196.00" xmlns="http://www.w3.org/2000/svg" xmlns:xlink="http://www.w3.org/1999/xlink">
<g id="graph0" class="graph" transform="scale(1 1) rotate(0) translate(4 192)">
<title>g1p.cu</title>
<polygon fill="white" stroke="transparent" points="-4,4 -4,-192 206,-192 206,4 -4,4"/>
<!-- Node1 -->
<g id="node1" class="node">
<title>Node1</title>
<g id="a_node1"><a xlink:title=" ">
<polygon fill="#bfbfbf" stroke="black" points="53.5,-168.5 53.5,-187.5 102.5,-187.5 102.5,-168.5 53.5,-168.5"/>
<text text-anchor="middle" x="78" y="-175.5" font-family="Helvetica,sans-Serif" font-size="10.00">g1p.cu</text>
</a>
</g>
</g>
<!-- Node2 -->
<g id="node2" class="node">
<title>Node2</title>
<g id="a_node2"><a xlink:title=" ">
<polygon fill="white" stroke="#bfbfbf" points="0,-112.5 0,-131.5 50,-131.5 50,-112.5 0,-112.5"/>
<text text-anchor="middle" x="25" y="-119.5" font-family="Helvetica,sans-Serif" font-size="10.00">stdio.h</text>
</a>
</g>
</g>
<!-- Node1&#45;&gt;Node2 -->
<g id="edge1" class="edge">
<title>Node1&#45;&gt;Node2</title>
<path fill="none" stroke="midnightblue" d="M69.25,-168.08C61.53,-160.22 50.1,-148.57 40.78,-139.08"/>
<polygon fill="midnightblue" stroke="midnightblue" points="43.09,-136.44 33.59,-131.75 38.1,-141.34 43.09,-136.44"/>
</g>
<!-- Node3 -->
<g id="node3" class="node">
<title>Node3</title>
<g id="a_node3"><a xlink:href="fp_8cuh.html" target="_top" xlink:title=" ">
<polygon fill="white" stroke="black" points="54.5,-56.5 54.5,-75.5 101.5,-75.5 101.5,-56.5 54.5,-56.5"/>
<text text-anchor="middle" x="78" y="-63.5" font-family="Helvetica,sans-Serif" font-size="10.00">fp.cuh</text>
</a>
</g>
</g>
<!-- Node1&#45;&gt;Node3 -->
<g id="edge2" class="edge">
<title>Node1&#45;&gt;Node3</title>
<path fill="none" stroke="midnightblue" d="M78,-168.37C78,-150.62 78,-109.67 78,-85.6"/>
<polygon fill="midnightblue" stroke="midnightblue" points="81.5,-85.59 78,-75.59 74.5,-85.59 81.5,-85.59"/>
</g>
<!-- Node5 -->
<g id="node5" class="node">
<title>Node5</title>
<g id="a_node5"><a xlink:href="g1_8cuh.html" target="_top" xlink:title=" ">
<polygon fill="white" stroke="black" points="106.5,-112.5 106.5,-131.5 155.5,-131.5 155.5,-112.5 106.5,-112.5"/>
<text text-anchor="middle" x="131" y="-119.5" font-family="Helvetica,sans-Serif" font-size="10.00">g1.cuh</text>
</a>
</g>
</g>
<!-- Node1&#45;&gt;Node5 -->
<g id="edge4" class="edge">
<title>Node1&#45;&gt;Node5</title>
<path fill="none" stroke="midnightblue" d="M86.75,-168.08C94.47,-160.22 105.9,-148.57 115.22,-139.08"/>
<polygon fill="midnightblue" stroke="midnightblue" points="117.9,-141.34 122.41,-131.75 112.91,-136.44 117.9,-141.34"/>
</g>
<!-- Node4 -->
<g id="node4" class="node">
<title>Node4</title>
<g id="a_node4"><a xlink:title=" ">
<polygon fill="white" stroke="#bfbfbf" points="103.5,-0.5 103.5,-19.5 156.5,-19.5 156.5,-0.5 103.5,-0.5"/>
<text text-anchor="middle" x="130" y="-7.5" font-family="Helvetica,sans-Serif" font-size="10.00">stdint.h</text>
</a>
</g>
</g>
<!-- Node3&#45;&gt;Node4 -->
<g id="edge3" class="edge">
<title>Node3&#45;&gt;Node4</title>
<path fill="none" stroke="midnightblue" d="M86.59,-56.08C94.16,-48.22 105.38,-36.57 114.51,-27.08"/>
<polygon fill="midnightblue" stroke="midnightblue" points="117.16,-29.38 121.57,-19.75 112.12,-24.53 117.16,-29.38"/>
</g>
<!-- Node5&#45;&gt;Node3 -->
<g id="edge6" class="edge">
<title>Node5&#45;&gt;Node3</title>
<path fill="none" stroke="midnightblue" d="M122.25,-112.08C114.53,-104.22 103.1,-92.57 93.78,-83.08"/>
<polygon fill="midnightblue" stroke="midnightblue" points="96.09,-80.44 86.59,-75.75 91.1,-85.34 96.09,-80.44"/>
</g>
<!-- Node5&#45;&gt;Node4 -->
<g id="edge5" class="edge">
<title>Node5&#45;&gt;Node4</title>
<path fill="none" stroke="midnightblue" d="M130.92,-112.37C130.76,-94.62 130.39,-53.67 130.17,-29.6"/>
<polygon fill="midnightblue" stroke="midnightblue" points="133.67,-29.56 130.08,-19.59 126.67,-29.62 133.67,-29.56"/>
</g>
<!-- Node6 -->
<g id="node6" class="node">
<title>Node6</title>
<g id="a_node6"><a xlink:href="fr_8cuh.html" target="_top" xlink:title=" ">
<polygon fill="white" stroke="black" points="158,-56.5 158,-75.5 202,-75.5 202,-56.5 158,-56.5"/>
<text text-anchor="middle" x="180" y="-63.5" font-family="Helvetica,sans-Serif" font-size="10.00">fr.cuh</text>
</a>
</g>
</g>
<!-- Node5&#45;&gt;Node6 -->
<g id="edge7" class="edge">
<title>Node5&#45;&gt;Node6</title>
<path fill="none" stroke="midnightblue" d="M139.09,-112.08C146.16,-104.3 156.59,-92.8 165.15,-83.37"/>
<polygon fill="midnightblue" stroke="midnightblue" points="167.93,-85.51 172.06,-75.75 162.75,-80.8 167.93,-85.51"/>
</g>
<!-- Node6&#45;&gt;Node4 -->
<g id="edge8" class="edge">
<title>Node6&#45;&gt;Node4</title>
<path fill="none" stroke="midnightblue" d="M171.74,-56.08C164.54,-48.3 153.89,-36.8 145.15,-27.37"/>
<polygon fill="midnightblue" stroke="midnightblue" points="147.47,-24.71 138.1,-19.75 142.33,-29.47 147.47,-24.71"/>
</g>
</g>
</svg>
