<?xml version="1.0" encoding="UTF-8" standalone="no"?>
<!DOCTYPE svg PUBLIC "-//W3C//DTD SVG 1.1//EN"
 "http://www.w3.org/Graphics/SVG/1.1/DTD/svg11.dtd">
<!-- Generated by graphviz version 2.43.0 (0)
 -->
<!-- Title: g1p_ift_wrapper Pages: 1 -->
<svg width="493pt" height="408pt"
 viewBox="0.00 0.00 493.00 408.00" xmlns="http://www.w3.org/2000/svg" xmlns:xlink="http://www.w3.org/1999/xlink">
<g id="graph0" class="graph" transform="scale(1 1) rotate(0) translate(4 404)">
<title>g1p_ift_wrapper</title>
<polygon fill="white" stroke="transparent" points="-4,4 -4,-404 489,-404 489,4 -4,4"/>
<!-- Node1 -->
<g id="node1" class="node">
<title>Node1</title>
<g id="a_node1"><a xlink:title="wrapper for g1p_ift: inverse FFT for arrays of g1p_t with length 512">
<polygon fill="#bfbfbf" stroke="black" points="390,-190.5 390,-209.5 485,-209.5 485,-190.5 390,-190.5"/>
<text text-anchor="middle" x="437.5" y="-197.5" font-family="Helvetica,sans-Serif" font-size="10.00">g1p_ift_wrapper</text>
</a>
</g>
</g>
<!-- Node2 -->
<g id="node2" class="node">
<title>Node2</title>
<g id="a_node2"><a xlink:href="fk20_8cuh.html#a428f2dcc8b77723e4def6f684f790ceb" target="_top" xlink:title="polynomial + xext_fft &#45;&gt; h_fft This function is a wrapper for the full FK20 computation,...">
<polygon fill="white" stroke="black" points="253,-190.5 253,-209.5 345,-209.5 345,-190.5 253,-190.5"/>
<text text-anchor="middle" x="299" y="-197.5" font-family="Helvetica,sans-Serif" font-size="10.00">fk20_poly2h_fft</text>
</a>
</g>
</g>
<!-- Node1&#45;&gt;Node2 -->
<g id="edge1" class="edge">
<title>Node1&#45;&gt;Node2</title>
<path fill="none" stroke="midnightblue" d="M379.61,-200C368.22,-200 356.4,-200 345.46,-200"/>
<polygon fill="midnightblue" stroke="midnightblue" points="379.91,-203.5 389.91,-200 379.91,-196.5 379.91,-203.5"/>
</g>
<!-- Node5 -->
<g id="node5" class="node">
<title>Node5</title>
<g id="a_node5"><a xlink:href="fk20test_8cuh.html#a219d5d803685ea0067dfa4908a620e11" target="_top" xlink:title=" ">
<polygon fill="white" stroke="black" points="273,-342.5 273,-361.5 325,-361.5 325,-342.5 273,-342.5"/>
<text text-anchor="middle" x="299" y="-349.5" font-family="Helvetica,sans-Serif" font-size="10.00">fullTest</text>
</a>
</g>
</g>
<!-- Node1&#45;&gt;Node5 -->
<g id="edge4" class="edge">
<title>Node1&#45;&gt;Node5</title>
<path fill="none" stroke="midnightblue" d="M429.43,-219.25C417.92,-248 392.5,-302.06 354,-333 345.71,-339.66 334.92,-344.07 325.16,-346.95"/>
<polygon fill="midnightblue" stroke="midnightblue" points="432.82,-220.17 433.15,-209.58 426.29,-217.65 432.82,-220.17"/>
</g>
<!-- Node8 -->
<g id="node8" class="node">
<title>Node8</title>
<g id="a_node8"><a xlink:href="fk20__512test_8cu.html#a4de6443d77d1c56d1d49715061ba60db" target="_top" xlink:title="Executes many FK20 computations on a single row, with a check on each step. A computation failure wil...">
<polygon fill="white" stroke="black" points="105,-76.5 105,-95.5 180,-95.5 180,-76.5 105,-76.5"/>
<text text-anchor="middle" x="142.5" y="-83.5" font-family="Helvetica,sans-Serif" font-size="10.00">fullTest_512</text>
</a>
</g>
</g>
<!-- Node1&#45;&gt;Node8 -->
<g id="edge7" class="edge">
<title>Node1&#45;&gt;Node8</title>
<path fill="none" stroke="midnightblue" d="M424.12,-182.23C409.66,-162.99 383.89,-133.06 354,-118 298.04,-89.81 223.9,-84.92 180.19,-84.84"/>
<polygon fill="midnightblue" stroke="midnightblue" points="421.39,-184.43 430.1,-190.46 427.05,-180.31 421.39,-184.43"/>
</g>
<!-- Node9 -->
<g id="node9" class="node">
<title>Node9</title>
<g id="a_node9"><a xlink:href="fk20__512test_8cu.html#a537be6501bbccff0654c4ca1b2fd83ae" target="_top" xlink:title="Similar to fullTest, but polynomial is has changes done to it. The function checks for false&#45;positive...">
<polygon fill="white" stroke="black" points="77,-38.5 77,-57.5 208,-57.5 208,-38.5 77,-38.5"/>
<text text-anchor="middle" x="142.5" y="-45.5" font-family="Helvetica,sans-Serif" font-size="10.00">fullTestFalseability_512</text>
</a>
</g>
</g>
<!-- Node1&#45;&gt;Node9 -->
<g id="edge9" class="edge">
<title>Node1&#45;&gt;Node9</title>
<path fill="none" stroke="midnightblue" d="M428.63,-180.92C416.68,-154.52 391.32,-107.45 354,-84 310.52,-56.68 252.47,-48.38 208.35,-46.52"/>
<polygon fill="midnightblue" stroke="midnightblue" points="425.48,-182.46 432.68,-190.24 431.9,-179.67 425.48,-182.46"/>
</g>
<!-- Node10 -->
<g id="node10" class="node">
<title>Node10</title>
<g id="a_node10"><a xlink:href="fk20test_8cuh.html#a8d2cfb1e9fc0723c345460c7ad438df1" target="_top" xlink:title=" ">
<polygon fill="white" stroke="black" points="244,-380.5 244,-399.5 354,-399.5 354,-380.5 244,-380.5"/>
<text text-anchor="middle" x="299" y="-387.5" font-family="Helvetica,sans-Serif" font-size="10.00">fullTestFalsifiability</text>
</a>
</g>
</g>
<!-- Node1&#45;&gt;Node10 -->
<g id="edge11" class="edge">
<title>Node1&#45;&gt;Node10</title>
<path fill="none" stroke="midnightblue" d="M432.24,-219.69C423.61,-254.97 400.77,-329.16 354,-371 349.7,-374.84 344.58,-377.92 339.23,-380.38"/>
<polygon fill="midnightblue" stroke="midnightblue" points="435.71,-220.23 434.55,-209.7 428.89,-218.65 435.71,-220.23"/>
</g>
<!-- Node11 -->
<g id="node11" class="node">
<title>Node11</title>
<g id="a_node11"><a xlink:href="g1test_8cuh.html#af69268816d41d8e3c477c70066f7bfcf" target="_top" xlink:title="Test for FFT and IFFT of points on the G1 curve. Checks self consistency with the following propertie...">
<polygon fill="white" stroke="black" points="265.5,-152.5 265.5,-171.5 332.5,-171.5 332.5,-152.5 265.5,-152.5"/>
<text text-anchor="middle" x="299" y="-159.5" font-family="Helvetica,sans-Serif" font-size="10.00">G1TestFFT</text>
</a>
</g>
</g>
<!-- Node1&#45;&gt;Node11 -->
<g id="edge13" class="edge">
<title>Node1&#45;&gt;Node11</title>
<path fill="none" stroke="midnightblue" d="M392.21,-187.67C372.79,-182.26 350.4,-176.03 332.55,-171.06"/>
<polygon fill="midnightblue" stroke="midnightblue" points="391.48,-191.1 402.06,-190.41 393.36,-184.36 391.48,-191.1"/>
</g>
<!-- Node13 -->
<g id="node13" class="node">
<title>Node13</title>
<g id="a_node13"><a xlink:href="fk20test_8cuh.html#a060c821b96d17d587425957709eec75b" target="_top" xlink:title="Test for g1p_ift: h_fft &#45;&gt; h.">
<polygon fill="white" stroke="black" points="274,-266.5 274,-285.5 324,-285.5 324,-266.5 274,-266.5"/>
<text text-anchor="middle" x="299" y="-273.5" font-family="Helvetica,sans-Serif" font-size="10.00">h_fft2h</text>
</a>
</g>
</g>
<!-- Node1&#45;&gt;Node13 -->
<g id="edge15" class="edge">
<title>Node1&#45;&gt;Node13</title>
<path fill="none" stroke="midnightblue" d="M414.23,-215.27C397.92,-226.14 375.05,-240.77 354,-252 344.23,-257.22 333.09,-262.3 323.48,-266.44"/>
<polygon fill="midnightblue" stroke="midnightblue" points="416.22,-218.15 422.56,-209.66 412.31,-212.34 416.22,-218.15"/>
</g>
<!-- Node15 -->
<g id="node15" class="node">
<title>Node15</title>
<g id="a_node15"><a xlink:href="fk20__512test_8cu.html#ae55f2f625c11ad82f77b72b3a42c47ca" target="_top" xlink:title="Test for g1p_ift: h_fft &#45;&gt; h.">
<polygon fill="white" stroke="black" points="105.5,-114.5 105.5,-133.5 179.5,-133.5 179.5,-114.5 105.5,-114.5"/>
<text text-anchor="middle" x="142.5" y="-121.5" font-family="Helvetica,sans-Serif" font-size="10.00">h_fft2h_512</text>
</a>
</g>
</g>
<!-- Node1&#45;&gt;Node15 -->
<g id="edge18" class="edge">
<title>Node1&#45;&gt;Node15</title>
<path fill="none" stroke="midnightblue" d="M418.47,-183.4C402.72,-169.98 378.59,-151.9 354,-143 295.69,-121.89 222.63,-120.37 179.71,-121.78"/>
<polygon fill="midnightblue" stroke="midnightblue" points="416.48,-186.31 426.31,-190.29 421.11,-181.06 416.48,-186.31"/>
</g>
<!-- Node16 -->
<g id="node16" class="node">
<title>Node16</title>
<g id="a_node16"><a xlink:href="fk20test_8cuh.html#af23866ba0e5030142bbb04cbcfd4da05" target="_top" xlink:title="Test for g1p_ift: hext_fft &#45;&gt; h.">
<polygon fill="white" stroke="black" points="266,-304.5 266,-323.5 332,-323.5 332,-304.5 266,-304.5"/>
<text text-anchor="middle" x="299" y="-311.5" font-family="Helvetica,sans-Serif" font-size="10.00">hext_fft2h</text>
</a>
</g>
</g>
<!-- Node1&#45;&gt;Node16 -->
<g id="edge20" class="edge">
<title>Node1&#45;&gt;Node16</title>
<path fill="none" stroke="midnightblue" d="M425.19,-217.94C410.97,-239.14 384.69,-274.14 354,-295 347.42,-299.47 339.69,-303 332.15,-305.74"/>
<polygon fill="midnightblue" stroke="midnightblue" points="428.14,-219.82 430.68,-209.53 422.28,-215.99 428.14,-219.82"/>
</g>
<!-- Node17 -->
<g id="node17" class="node">
<title>Node17</title>
<g id="a_node17"><a xlink:href="fk20__512test_8cu.html#a9853234576c41f6afaa313c55cca4a4b" target="_top" xlink:title="Test for g1p_ift: hext_fft &#45;&gt; h.">
<polygon fill="white" stroke="black" points="98,-228.5 98,-247.5 187,-247.5 187,-228.5 98,-228.5"/>
<text text-anchor="middle" x="142.5" y="-235.5" font-family="Helvetica,sans-Serif" font-size="10.00">hext_fft2h_512</text>
</a>
</g>
</g>
<!-- Node1&#45;&gt;Node17 -->
<g id="edge22" class="edge">
<title>Node1&#45;&gt;Node17</title>
<path fill="none" stroke="midnightblue" d="M389.79,-211.92C378.16,-214.57 365.67,-217.14 354,-219 296.75,-228.13 229.98,-233.23 187.26,-235.79"/>
<polygon fill="midnightblue" stroke="midnightblue" points="390.81,-215.28 399.75,-209.59 389.21,-208.46 390.81,-215.28"/>
</g>
<!-- Node18 -->
<g id="node18" class="node">
<title>Node18</title>
<g id="a_node18"><a xlink:href="fk20benchmark_8cu.html#a8cd0ecc09d4a9a4c418184789229b4f6" target="_top" xlink:title="Executes a test of FK20 with one block for each row. At the end, compare if the calculated h_fft is t...">
<polygon fill="white" stroke="black" points="258,-0.5 258,-19.5 340,-19.5 340,-0.5 258,-0.5"/>
<text text-anchor="middle" x="299" y="-7.5" font-family="Helvetica,sans-Serif" font-size="10.00">preBenchTest</text>
</a>
</g>
</g>
<!-- Node1&#45;&gt;Node18 -->
<g id="edge24" class="edge">
<title>Node1&#45;&gt;Node18</title>
<path fill="none" stroke="midnightblue" d="M431.48,-180.31C421.88,-146.26 397.85,-76 354,-34 347.63,-27.9 339.44,-23.19 331.38,-19.62"/>
<polygon fill="midnightblue" stroke="midnightblue" points="428.21,-181.63 434.19,-190.38 434.97,-179.81 428.21,-181.63"/>
</g>
<!-- Node3 -->
<g id="node3" class="node">
<title>Node3</title>
<g id="a_node3"><a xlink:href="fk20__512test_8cu.html#a30719348d219c529d6b43175cecd8427" target="_top" xlink:title="Test for fk20_poly2h_fft: polynomial &#45;&gt; h_fft.">
<polygon fill="white" stroke="black" points="84.5,-190.5 84.5,-209.5 200.5,-209.5 200.5,-190.5 84.5,-190.5"/>
<text text-anchor="middle" x="142.5" y="-197.5" font-family="Helvetica,sans-Serif" font-size="10.00">fk20_poly2h_fft_512</text>
</a>
</g>
</g>
<!-- Node2&#45;&gt;Node3 -->
<g id="edge2" class="edge">
<title>Node2&#45;&gt;Node3</title>
<path fill="none" stroke="midnightblue" d="M242.71,-200C229.09,-200 214.48,-200 200.77,-200"/>
<polygon fill="midnightblue" stroke="midnightblue" points="242.9,-203.5 252.9,-200 242.9,-196.5 242.9,-203.5"/>
</g>
<!-- Node4 -->
<g id="node4" class="node">
<title>Node4</title>
<g id="a_node4"><a xlink:href="fk20__512test_8cu.html#a3c04138a5bfe5d72780bb7e82a18e627" target="_top" xlink:title="Executes a many&#45;row tests on FK20. Behavior is similar to fk20test.cu but using many GPU blocks,...">
<polygon fill="white" stroke="black" points="0,-114.5 0,-133.5 41,-133.5 41,-114.5 0,-114.5"/>
<text text-anchor="middle" x="20.5" y="-121.5" font-family="Helvetica,sans-Serif" font-size="10.00">main</text>
</a>
</g>
</g>
<!-- Node3&#45;&gt;Node4 -->
<g id="edge3" class="edge">
<title>Node3&#45;&gt;Node4</title>
<path fill="none" stroke="midnightblue" d="M88.44,-186.83C84.46,-185.11 80.6,-183.17 77,-181 56.18,-168.45 37.76,-146.21 28.27,-133.54"/>
<polygon fill="midnightblue" stroke="midnightblue" points="87.29,-190.13 97.87,-190.48 89.81,-183.61 87.29,-190.13"/>
</g>
<!-- Node6 -->
<g id="node6" class="node">
<title>Node6</title>
<g id="a_node6"><a xlink:href="fk20test_8cuh.html#a3f978e98c96e45785d60ed0d96689521" target="_top" xlink:title=" ">
<polygon fill="white" stroke="black" points="101.5,-342.5 101.5,-361.5 183.5,-361.5 183.5,-342.5 101.5,-342.5"/>
<text text-anchor="middle" x="142.5" y="-349.5" font-family="Helvetica,sans-Serif" font-size="10.00">FK20TestPoly</text>
</a>
</g>
</g>
<!-- Node5&#45;&gt;Node6 -->
<g id="edge5" class="edge">
<title>Node5&#45;&gt;Node6</title>
<path fill="none" stroke="midnightblue" d="M262.6,-352C239.1,-352 208.19,-352 183.75,-352"/>
<polygon fill="midnightblue" stroke="midnightblue" points="262.83,-355.5 272.83,-352 262.83,-348.5 262.83,-355.5"/>
</g>
<!-- Node7 -->
<g id="node7" class="node">
<title>Node7</title>
<g id="a_node7"><a xlink:href="fk20test_8cu.html#ae66f6b31b5ad750f1fe042a706a4e3d4" target="_top" xlink:title=" ">
<polygon fill="white" stroke="black" points="0,-323.5 0,-342.5 41,-342.5 41,-323.5 0,-323.5"/>
<text text-anchor="middle" x="20.5" y="-330.5" font-family="Helvetica,sans-Serif" font-size="10.00">main</text>
</a>
</g>
</g>
<!-- Node6&#45;&gt;Node7 -->
<g id="edge6" class="edge">
<title>Node6&#45;&gt;Node7</title>
<path fill="none" stroke="midnightblue" d="M91,-344C73.35,-341.21 54.58,-338.24 41,-336.09"/>
<polygon fill="midnightblue" stroke="midnightblue" points="90.78,-347.51 101.21,-345.62 91.88,-340.6 90.78,-347.51"/>
</g>
<!-- Node8&#45;&gt;Node4 -->
<g id="edge8" class="edge">
<title>Node8&#45;&gt;Node4</title>
<path fill="none" stroke="midnightblue" d="M97.87,-98.57C90.87,-100.67 83.73,-102.86 77,-105 65.06,-108.8 51.78,-113.33 41.21,-117.02"/>
<polygon fill="midnightblue" stroke="midnightblue" points="99.35,-101.79 107.94,-95.59 97.36,-95.07 99.35,-101.79"/>
</g>
<!-- Node9&#45;&gt;Node4 -->
<g id="edge10" class="edge">
<title>Node9&#45;&gt;Node4</title>
<path fill="none" stroke="midnightblue" d="M88.44,-61.17C84.46,-62.89 80.6,-64.83 77,-67 56.18,-79.55 37.76,-101.79 28.27,-114.46"/>
<polygon fill="midnightblue" stroke="midnightblue" points="89.81,-64.39 97.87,-57.52 87.29,-57.87 89.81,-64.39"/>
</g>
<!-- Node10&#45;&gt;Node6 -->
<g id="edge12" class="edge">
<title>Node10&#45;&gt;Node6</title>
<path fill="none" stroke="midnightblue" d="M249.05,-377.96C227.46,-372.65 202.46,-366.5 182.21,-361.52"/>
<polygon fill="midnightblue" stroke="midnightblue" points="248.47,-381.42 259.01,-380.41 250.14,-374.62 248.47,-381.42"/>
</g>
<!-- Node12 -->
<g id="node12" class="node">
<title>Node12</title>
<g id="a_node12"><a xlink:href="g1test_8cu.html#a3c04138a5bfe5d72780bb7e82a18e627" target="_top" xlink:title="Test for points in G1.">
<polygon fill="white" stroke="black" points="122,-152.5 122,-171.5 163,-171.5 163,-152.5 122,-152.5"/>
<text text-anchor="middle" x="142.5" y="-159.5" font-family="Helvetica,sans-Serif" font-size="10.00">main</text>
</a>
</g>
</g>
<!-- Node11&#45;&gt;Node12 -->
<g id="edge14" class="edge">
<title>Node11&#45;&gt;Node12</title>
<path fill="none" stroke="midnightblue" d="M254.98,-162C224.85,-162 186.02,-162 163.04,-162"/>
<polygon fill="midnightblue" stroke="midnightblue" points="255.23,-165.5 265.23,-162 255.23,-158.5 255.23,-165.5"/>
</g>
<!-- Node14 -->
<g id="node14" class="node">
<title>Node14</title>
<g id="a_node14"><a xlink:href="fk20test_8cuh.html#a320efd4c0fb8e729400941e21ea983aa" target="_top" xlink:title=" ">
<polygon fill="white" stroke="black" points="103.5,-304.5 103.5,-323.5 181.5,-323.5 181.5,-304.5 103.5,-304.5"/>
<text text-anchor="middle" x="142.5" y="-311.5" font-family="Helvetica,sans-Serif" font-size="10.00">FK20TestFFT</text>
</a>
</g>
</g>
<!-- Node13&#45;&gt;Node14 -->
<g id="edge16" class="edge">
<title>Node13&#45;&gt;Node14</title>
<path fill="none" stroke="midnightblue" d="M263.99,-284.37C239.63,-290.36 206.82,-298.43 181.59,-304.63"/>
<polygon fill="midnightblue" stroke="midnightblue" points="264.98,-287.72 273.86,-281.94 263.31,-280.93 264.98,-287.72"/>
</g>
<!-- Node14&#45;&gt;Node7 -->
<g id="edge17" class="edge">
<title>Node14&#45;&gt;Node7</title>
<path fill="none" stroke="midnightblue" d="M93.24,-321.64C74.96,-324.54 55.16,-327.67 41,-329.91"/>
<polygon fill="midnightblue" stroke="midnightblue" points="93.87,-325.08 103.2,-320.06 92.78,-318.17 93.87,-325.08"/>
</g>
<!-- Node15&#45;&gt;Node4 -->
<g id="edge19" class="edge">
<title>Node15&#45;&gt;Node4</title>
<path fill="none" stroke="midnightblue" d="M95.3,-124C76.49,-124 55.77,-124 41.09,-124"/>
<polygon fill="midnightblue" stroke="midnightblue" points="95.5,-127.5 105.5,-124 95.5,-120.5 95.5,-127.5"/>
</g>
<!-- Node16&#45;&gt;Node14 -->
<g id="edge21" class="edge">
<title>Node16&#45;&gt;Node14</title>
<path fill="none" stroke="midnightblue" d="M255.78,-314C232.65,-314 204.22,-314 181.75,-314"/>
<polygon fill="midnightblue" stroke="midnightblue" points="255.99,-317.5 265.99,-314 255.99,-310.5 255.99,-317.5"/>
</g>
<!-- Node17&#45;&gt;Node4 -->
<g id="edge23" class="edge">
<title>Node17&#45;&gt;Node4</title>
<path fill="none" stroke="midnightblue" d="M88.16,-225.94C84.19,-223.97 80.41,-221.67 77,-219 47.67,-196.04 30.82,-152.94 24.46,-133.7"/>
<polygon fill="midnightblue" stroke="midnightblue" points="87.1,-229.3 97.68,-229.99 89.84,-222.85 87.1,-229.3"/>
</g>
</g>
</svg>
