<?xml version="1.0" encoding="UTF-8" standalone="no"?>
<!DOCTYPE svg PUBLIC "-//W3C//DTD SVG 1.1//EN"
 "http://www.w3.org/Graphics/SVG/1.1/DTD/svg11.dtd">
<!-- Generated by graphviz version 2.43.0 (0)
 -->
<!-- Title: g1p_neg.cu Pages: 1 -->
<svg width="156pt" height="196pt"
 viewBox="0.00 0.00 155.50 196.00" xmlns="http://www.w3.org/2000/svg" xmlns:xlink="http://www.w3.org/1999/xlink">
<g id="graph0" class="graph" transform="scale(1 1) rotate(0) translate(4 192)">
<title>g1p_neg.cu</title>
<polygon fill="white" stroke="transparent" points="-4,4 -4,-192 151.5,-192 151.5,4 -4,4"/>
<!-- Node1 -->
<g id="node1" class="node">
<title>Node1</title>
<g id="a_node1"><a xlink:title=" ">
<polygon fill="#bfbfbf" stroke="black" points="13.5,-168.5 13.5,-187.5 85.5,-187.5 85.5,-168.5 13.5,-168.5"/>
<text text-anchor="middle" x="49.5" y="-175.5" font-family="Helvetica,sans-Serif" font-size="10.00">g1p_neg.cu</text>
</a>
</g>
</g>
<!-- Node2 -->
<g id="node2" class="node">
<title>Node2</title>
<g id="a_node2"><a xlink:href="fp_8cuh.html" target="_top" xlink:title=" ">
<polygon fill="white" stroke="black" points="0,-56.5 0,-75.5 47,-75.5 47,-56.5 0,-56.5"/>
<text text-anchor="middle" x="23.5" y="-63.5" font-family="Helvetica,sans-Serif" font-size="10.00">fp.cuh</text>
</a>
</g>
</g>
<!-- Node1&#45;&gt;Node2 -->
<g id="edge1" class="edge">
<title>Node1&#45;&gt;Node2</title>
<path fill="none" stroke="midnightblue" d="M47.46,-168.37C43.26,-150.62 33.58,-109.67 27.9,-85.6"/>
<polygon fill="midnightblue" stroke="midnightblue" points="31.24,-84.52 25.53,-75.59 24.42,-86.13 31.24,-84.52"/>
</g>
<!-- Node4 -->
<g id="node4" class="node">
<title>Node4</title>
<g id="a_node4"><a xlink:href="g1_8cuh.html" target="_top" xlink:title=" ">
<polygon fill="white" stroke="black" points="52,-112.5 52,-131.5 101,-131.5 101,-112.5 52,-112.5"/>
<text text-anchor="middle" x="76.5" y="-119.5" font-family="Helvetica,sans-Serif" font-size="10.00">g1.cuh</text>
</a>
</g>
</g>
<!-- Node1&#45;&gt;Node4 -->
<g id="edge3" class="edge">
<title>Node1&#45;&gt;Node4</title>
<path fill="none" stroke="midnightblue" d="M53.96,-168.08C57.65,-160.69 63.02,-149.95 67.59,-140.81"/>
<polygon fill="midnightblue" stroke="midnightblue" points="70.78,-142.26 72.12,-131.75 64.52,-139.13 70.78,-142.26"/>
</g>
<!-- Node3 -->
<g id="node3" class="node">
<title>Node3</title>
<g id="a_node3"><a xlink:title=" ">
<polygon fill="white" stroke="#bfbfbf" points="49,-0.5 49,-19.5 102,-19.5 102,-0.5 49,-0.5"/>
<text text-anchor="middle" x="75.5" y="-7.5" font-family="Helvetica,sans-Serif" font-size="10.00">stdint.h</text>
</a>
</g>
</g>
<!-- Node2&#45;&gt;Node3 -->
<g id="edge2" class="edge">
<title>Node2&#45;&gt;Node3</title>
<path fill="none" stroke="midnightblue" d="M32.09,-56.08C39.66,-48.22 50.88,-36.57 60.01,-27.08"/>
<polygon fill="midnightblue" stroke="midnightblue" points="62.66,-29.38 67.07,-19.75 57.62,-24.53 62.66,-29.38"/>
</g>
<!-- Node4&#45;&gt;Node2 -->
<g id="edge5" class="edge">
<title>Node4&#45;&gt;Node2</title>
<path fill="none" stroke="midnightblue" d="M67.75,-112.08C60.03,-104.22 48.6,-92.57 39.28,-83.08"/>
<polygon fill="midnightblue" stroke="midnightblue" points="41.59,-80.44 32.09,-75.75 36.6,-85.34 41.59,-80.44"/>
</g>
<!-- Node4&#45;&gt;Node3 -->
<g id="edge4" class="edge">
<title>Node4&#45;&gt;Node3</title>
<path fill="none" stroke="midnightblue" d="M76.42,-112.37C76.26,-94.62 75.89,-53.67 75.67,-29.6"/>
<polygon fill="midnightblue" stroke="midnightblue" points="79.17,-29.56 75.58,-19.59 72.17,-29.62 79.17,-29.56"/>
</g>
<!-- Node5 -->
<g id="node5" class="node">
<title>Node5</title>
<g id="a_node5"><a xlink:href="fr_8cuh.html" target="_top" xlink:title=" ">
<polygon fill="white" stroke="black" points="103.5,-56.5 103.5,-75.5 147.5,-75.5 147.5,-56.5 103.5,-56.5"/>
<text text-anchor="middle" x="125.5" y="-63.5" font-family="Helvetica,sans-Serif" font-size="10.00">fr.cuh</text>
</a>
</g>
</g>
<!-- Node4&#45;&gt;Node5 -->
<g id="edge6" class="edge">
<title>Node4&#45;&gt;Node5</title>
<path fill="none" stroke="midnightblue" d="M84.59,-112.08C91.66,-104.3 102.09,-92.8 110.65,-83.37"/>
<polygon fill="midnightblue" stroke="midnightblue" points="113.43,-85.51 117.56,-75.75 108.25,-80.8 113.43,-85.51"/>
</g>
<!-- Node5&#45;&gt;Node3 -->
<g id="edge7" class="edge">
<title>Node5&#45;&gt;Node3</title>
<path fill="none" stroke="midnightblue" d="M117.24,-56.08C110.04,-48.3 99.39,-36.8 90.65,-27.37"/>
<polygon fill="midnightblue" stroke="midnightblue" points="92.97,-24.71 83.6,-19.75 87.83,-29.47 92.97,-24.71"/>
</g>
</g>
</svg>
