<?xml version="1.0" encoding="UTF-8" standalone="no"?>
<!DOCTYPE svg PUBLIC "-//W3C//DTD SVG 1.1//EN"
 "http://www.w3.org/Graphics/SVG/1.1/DTD/svg11.dtd">
<!-- Generated by graphviz version 2.43.0 (0)
 -->
<!-- Title: g1p_fft.cu Pages: 1 -->
<svg width="182pt" height="252pt"
 viewBox="0.00 0.00 181.69 252.00" xmlns="http://www.w3.org/2000/svg" xmlns:xlink="http://www.w3.org/1999/xlink">
<g id="graph0" class="graph" transform="scale(1 1) rotate(0) translate(4 248)">
<title>g1p_fft.cu</title>
<polygon fill="white" stroke="transparent" points="-4,4 -4,-248 177.69,-248 177.69,4 -4,4"/>
<!-- Node1 -->
<g id="node1" class="node">
<title>Node1</title>
<g id="a_node1"><a xlink:title=" ">
<polygon fill="#bfbfbf" stroke="black" points="45.5,-224.5 45.5,-243.5 110.5,-243.5 110.5,-224.5 45.5,-224.5"/>
<text text-anchor="middle" x="78" y="-231.5" font-family="Helvetica,sans-Serif" font-size="10.00">g1p_fft.cu</text>
</a>
</g>
</g>
<!-- Node2 -->
<g id="node2" class="node">
<title>Node2</title>
<g id="a_node2"><a xlink:title=" ">
<polygon fill="white" stroke="#bfbfbf" points="0,-168.5 0,-187.5 50,-187.5 50,-168.5 0,-168.5"/>
<text text-anchor="middle" x="25" y="-175.5" font-family="Helvetica,sans-Serif" font-size="10.00">stdio.h</text>
</a>
</g>
</g>
<!-- Node1&#45;&gt;Node2 -->
<g id="edge1" class="edge">
<title>Node1&#45;&gt;Node2</title>
<path fill="none" stroke="midnightblue" d="M69.25,-224.08C61.53,-216.22 50.1,-204.57 40.78,-195.08"/>
<polygon fill="midnightblue" stroke="midnightblue" points="43.09,-192.44 33.59,-187.75 38.1,-197.34 43.09,-192.44"/>
</g>
<!-- Node3 -->
<g id="node3" class="node">
<title>Node3</title>
<g id="a_node3"><a xlink:href="g1_8cuh.html" target="_top" xlink:title=" ">
<polygon fill="white" stroke="black" points="53.5,-112.5 53.5,-131.5 102.5,-131.5 102.5,-112.5 53.5,-112.5"/>
<text text-anchor="middle" x="78" y="-119.5" font-family="Helvetica,sans-Serif" font-size="10.00">g1.cuh</text>
</a>
</g>
</g>
<!-- Node1&#45;&gt;Node3 -->
<g id="edge2" class="edge">
<title>Node1&#45;&gt;Node3</title>
<path fill="none" stroke="midnightblue" d="M78,-224.37C78,-206.62 78,-165.67 78,-141.6"/>
<polygon fill="midnightblue" stroke="midnightblue" points="81.5,-141.59 78,-131.59 74.5,-141.59 81.5,-141.59"/>
</g>
<!-- Node7 -->
<g id="node7" class="node">
<title>Node7</title>
<g id="a_node7"><a xlink:href="fk20_8cuh.html" target="_top" xlink:title=" ">
<polygon fill="white" stroke="black" points="106.5,-168.5 106.5,-187.5 165.5,-187.5 165.5,-168.5 106.5,-168.5"/>
<text text-anchor="middle" x="136" y="-175.5" font-family="Helvetica,sans-Serif" font-size="10.00">fk20.cuh</text>
</a>
</g>
</g>
<!-- Node1&#45;&gt;Node7 -->
<g id="edge8" class="edge">
<title>Node1&#45;&gt;Node7</title>
<path fill="none" stroke="midnightblue" d="M87.32,-224.32C95.89,-216.34 108.81,-204.31 119.19,-194.65"/>
<polygon fill="midnightblue" stroke="midnightblue" points="121.58,-197.21 126.51,-187.83 116.81,-192.09 121.58,-197.21"/>
</g>
<!-- Node4 -->
<g id="node4" class="node">
<title>Node4</title>
<g id="a_node4"><a xlink:title=" ">
<polygon fill="white" stroke="#bfbfbf" points="77.5,-0.5 77.5,-19.5 130.5,-19.5 130.5,-0.5 77.5,-0.5"/>
<text text-anchor="middle" x="104" y="-7.5" font-family="Helvetica,sans-Serif" font-size="10.00">stdint.h</text>
</a>
</g>
</g>
<!-- Node3&#45;&gt;Node4 -->
<g id="edge3" class="edge">
<title>Node3&#45;&gt;Node4</title>
<path fill="none" stroke="midnightblue" d="M66.32,-112.35C51.23,-100.07 28.13,-76.75 39,-56 46.28,-42.11 60.01,-31.65 72.98,-24.33"/>
<polygon fill="midnightblue" stroke="midnightblue" points="74.93,-27.27 82.19,-19.55 71.7,-21.05 74.93,-27.27"/>
</g>
<!-- Node5 -->
<g id="node5" class="node">
<title>Node5</title>
<g id="a_node5"><a xlink:href="fp_8cuh.html" target="_top" xlink:title=" ">
<polygon fill="white" stroke="black" points="48.5,-56.5 48.5,-75.5 95.5,-75.5 95.5,-56.5 48.5,-56.5"/>
<text text-anchor="middle" x="72" y="-63.5" font-family="Helvetica,sans-Serif" font-size="10.00">fp.cuh</text>
</a>
</g>
</g>
<!-- Node3&#45;&gt;Node5 -->
<g id="edge4" class="edge">
<title>Node3&#45;&gt;Node5</title>
<path fill="none" stroke="midnightblue" d="M77.01,-112.08C76.21,-104.93 75.07,-94.64 74.08,-85.69"/>
<polygon fill="midnightblue" stroke="midnightblue" points="77.56,-85.3 72.97,-75.75 70.6,-86.08 77.56,-85.3"/>
</g>
<!-- Node6 -->
<g id="node6" class="node">
<title>Node6</title>
<g id="a_node6"><a xlink:href="fr_8cuh.html" target="_top" xlink:title=" ">
<polygon fill="white" stroke="black" points="114,-56.5 114,-75.5 158,-75.5 158,-56.5 114,-56.5"/>
<text text-anchor="middle" x="136" y="-63.5" font-family="Helvetica,sans-Serif" font-size="10.00">fr.cuh</text>
</a>
</g>
</g>
<!-- Node3&#45;&gt;Node6 -->
<g id="edge6" class="edge">
<title>Node3&#45;&gt;Node6</title>
<path fill="none" stroke="midnightblue" d="M87.32,-112.32C95.89,-104.34 108.81,-92.31 119.19,-82.65"/>
<polygon fill="midnightblue" stroke="midnightblue" points="121.58,-85.21 126.51,-75.83 116.81,-80.09 121.58,-85.21"/>
</g>
<!-- Node5&#45;&gt;Node4 -->
<g id="edge5" class="edge">
<title>Node5&#45;&gt;Node4</title>
<path fill="none" stroke="midnightblue" d="M77.28,-56.08C81.71,-48.61 88.16,-37.72 93.62,-28.52"/>
<polygon fill="midnightblue" stroke="midnightblue" points="96.73,-30.14 98.81,-19.75 90.71,-26.57 96.73,-30.14"/>
</g>
<!-- Node6&#45;&gt;Node4 -->
<g id="edge7" class="edge">
<title>Node6&#45;&gt;Node4</title>
<path fill="none" stroke="midnightblue" d="M130.72,-56.08C126.29,-48.61 119.84,-37.72 114.38,-28.52"/>
<polygon fill="midnightblue" stroke="midnightblue" points="117.29,-26.57 109.19,-19.75 111.27,-30.14 117.29,-26.57"/>
</g>
<!-- Node7&#45;&gt;Node3 -->
<g id="edge11" class="edge">
<title>Node7&#45;&gt;Node3</title>
<path fill="none" stroke="midnightblue" d="M126.68,-168.32C118.11,-160.34 105.19,-148.31 94.81,-138.65"/>
<polygon fill="midnightblue" stroke="midnightblue" points="97.19,-136.09 87.49,-131.83 92.42,-141.21 97.19,-136.09"/>
</g>
<!-- Node7&#45;&gt;Node4 -->
<g id="edge9" class="edge">
<title>Node7&#45;&gt;Node4</title>
<path fill="none" stroke="midnightblue" d="M142.23,-168.32C156.15,-147.77 187.04,-94.95 167,-56 159.92,-42.25 146.48,-31.77 133.82,-24.39"/>
<polygon fill="midnightblue" stroke="midnightblue" points="135.31,-21.22 124.85,-19.57 132,-27.39 135.31,-21.22"/>
</g>
<!-- Node7&#45;&gt;Node6 -->
<g id="edge10" class="edge">
<title>Node7&#45;&gt;Node6</title>
<path fill="none" stroke="midnightblue" d="M136,-168.37C136,-150.62 136,-109.67 136,-85.6"/>
<polygon fill="midnightblue" stroke="midnightblue" points="139.5,-85.59 136,-75.59 132.5,-85.59 139.5,-85.59"/>
</g>
</g>
</svg>
