<?xml version="1.0" encoding="UTF-8" standalone="no"?>
<!DOCTYPE svg PUBLIC "-//W3C//DTD SVG 1.1//EN"
 "http://www.w3.org/Graphics/SVG/1.1/DTD/svg11.dtd">
<!-- Generated by graphviz version 2.43.0 (0)
 -->
<!-- Title: test_fft.generateAllTest Pages: 1 -->
<svg width="615pt" height="154pt"
 viewBox="0.00 0.00 615.00 153.50" xmlns="http://www.w3.org/2000/svg" xmlns:xlink="http://www.w3.org/1999/xlink">
<g id="graph0" class="graph" transform="scale(1 1) rotate(0) translate(4 149.5)">
<title>test_fft.generateAllTest</title>
<polygon fill="white" stroke="transparent" points="-4,4 -4,-149.5 611,-149.5 611,4 -4,4"/>
<!-- Node1 -->
<g id="node1" class="node">
<title>Node1</title>
<g id="a_node1"><a xlink:title=" ">
<polygon fill="#bfbfbf" stroke="black" points="0,-69 0,-88 130,-88 130,-69 0,-69"/>
<text text-anchor="middle" x="65" y="-76" font-family="Helvetica,sans-Serif" font-size="10.00">test_fft.generateAllTest</text>
</a>
</g>
</g>
<!-- Node2 -->
<g id="node2" class="node">
<title>Node2</title>
<g id="a_node2"><a xlink:href="namespacetest__fft.html#a036b954add8c93f6975ebaf6a8aaafc5" target="_top" xlink:title=" ">
<polygon fill="white" stroke="black" points="172.5,-126 172.5,-145 289.5,-145 289.5,-126 172.5,-126"/>
<text text-anchor="middle" x="231" y="-133" font-family="Helvetica,sans-Serif" font-size="10.00">test_fft.generateTest</text>
</a>
</g>
</g>
<!-- Node1&#45;&gt;Node2 -->
<g id="edge1" class="edge">
<title>Node1&#45;&gt;Node2</title>
<path fill="none" stroke="midnightblue" d="M89.66,-88.06C109.81,-96.07 139.61,-107.58 166,-116.5 172.49,-118.69 179.4,-120.89 186.18,-122.96"/>
<polygon fill="midnightblue" stroke="midnightblue" points="185.39,-126.38 195.97,-125.91 187.41,-119.68 185.39,-126.38"/>
</g>
<!-- Node3 -->
<g id="node3" class="node">
<title>Node3</title>
<g id="a_node3"><a xlink:href="namespacetest__fft.html#a500f71b9abdef413c47bf0150ad6ec24" target="_top" xlink:title=" ">
<polygon fill="white" stroke="black" points="166,-88 166,-107 296,-107 296,-88 166,-88"/>
<text text-anchor="middle" x="231" y="-95" font-family="Helvetica,sans-Serif" font-size="10.00">test_fft.genRandonPoly</text>
</a>
</g>
</g>
<!-- Node1&#45;&gt;Node3 -->
<g id="edge2" class="edge">
<title>Node1&#45;&gt;Node3</title>
<path fill="none" stroke="midnightblue" d="M130.35,-85.95C138.73,-86.93 147.37,-87.93 155.9,-88.92"/>
<polygon fill="midnightblue" stroke="midnightblue" points="155.5,-92.39 165.84,-90.07 156.31,-85.44 155.5,-92.39"/>
</g>
<!-- Node4 -->
<g id="node4" class="node">
<title>Node4</title>
<g id="a_node4"><a xlink:href="namespacetest__fft.html#a3120a884d7f9b48da4e9f63ed32d3965" target="_top" xlink:title=" ">
<polygon fill="white" stroke="black" points="505,-28 505,-47 607,-47 607,-28 505,-28"/>
<text text-anchor="middle" x="556" y="-35" font-family="Helvetica,sans-Serif" font-size="10.00">test_fft.pointToInt</text>
</a>
</g>
</g>
<!-- Node1&#45;&gt;Node4 -->
<g id="edge3" class="edge">
<title>Node1&#45;&gt;Node4</title>
<path fill="none" stroke="midnightblue" d="M130.18,-73.12C225.21,-65.15 402.07,-50.32 494.77,-42.55"/>
<polygon fill="midnightblue" stroke="midnightblue" points="495.16,-46.03 504.84,-41.71 494.58,-39.05 495.16,-46.03"/>
</g>
<!-- Node5 -->
<g id="node5" class="node">
<title>Node5</title>
<g id="a_node5"><a xlink:href="namespacetest__fft.html#af33a37bfd8d7cd7d274a37babcaa4d25" target="_top" xlink:title=" ">
<polygon fill="white" stroke="black" points="177,-0.5 177,-30.5 285,-30.5 285,-0.5 177,-0.5"/>
<text text-anchor="start" x="185" y="-18.5" font-family="Helvetica,sans-Serif" font-size="10.00">test_fft.stringfyFFT</text>
<text text-anchor="middle" x="231" y="-7.5" font-family="Helvetica,sans-Serif" font-size="10.00">_Trace</text>
</a>
</g>
</g>
<!-- Node1&#45;&gt;Node5 -->
<g id="edge4" class="edge">
<title>Node1&#45;&gt;Node5</title>
<path fill="none" stroke="midnightblue" d="M90.91,-68.93C114.84,-59.74 151.66,-45.6 181.4,-34.17"/>
<polygon fill="midnightblue" stroke="midnightblue" points="182.7,-37.42 190.78,-30.57 180.19,-30.88 182.7,-37.42"/>
</g>
<!-- Node6 -->
<g id="node6" class="node">
<title>Node6</title>
<g id="a_node6"><a xlink:href="namespacetest__fft.html#ae86df066f3d221910f265ebf0ca78928" target="_top" xlink:title=" ">
<polygon fill="white" stroke="black" points="332,-9 332,-28 469,-28 469,-9 332,-9"/>
<text text-anchor="middle" x="400.5" y="-16" font-family="Helvetica,sans-Serif" font-size="10.00">test_fft.pointToHexString</text>
</a>
</g>
</g>
<!-- Node5&#45;&gt;Node6 -->
<g id="edge5" class="edge">
<title>Node5&#45;&gt;Node6</title>
<path fill="none" stroke="midnightblue" d="M285.46,-16.46C296.98,-16.66 309.38,-16.89 321.61,-17.11"/>
<polygon fill="midnightblue" stroke="midnightblue" points="321.77,-20.61 331.83,-17.29 321.89,-13.61 321.77,-20.61"/>
</g>
<!-- Node6&#45;&gt;Node4 -->
<g id="edge6" class="edge">
<title>Node6&#45;&gt;Node4</title>
<path fill="none" stroke="midnightblue" d="M469.27,-26.89C477.72,-27.93 486.32,-29 494.65,-30.03"/>
<polygon fill="midnightblue" stroke="midnightblue" points="494.29,-33.51 504.65,-31.27 495.15,-26.57 494.29,-33.51"/>
</g>
</g>
</svg>
