<?xml version="1.0" encoding="UTF-8" standalone="no"?>
<!DOCTYPE svg PUBLIC "-//W3C//DTD SVG 1.1//EN"
 "http://www.w3.org/Graphics/SVG/1.1/DTD/svg11.dtd">
<!-- Generated by graphviz version 2.43.0 (0)
 -->
<!-- Title: test_fft.pointToInt Pages: 1 -->
<svg width="593pt" height="56pt"
 viewBox="0.00 0.00 593.00 55.50" xmlns="http://www.w3.org/2000/svg" xmlns:xlink="http://www.w3.org/1999/xlink">
<g id="graph0" class="graph" transform="scale(1 1) rotate(0) translate(4 51.5)">
<title>test_fft.pointToInt</title>
<polygon fill="white" stroke="transparent" points="-4,4 -4,-51.5 589,-51.5 589,4 -4,4"/>
<!-- Node1 -->
<g id="node1" class="node">
<title>Node1</title>
<g id="a_node1"><a xlink:title=" ">
<polygon fill="#bfbfbf" stroke="black" points="483,-28 483,-47 585,-47 585,-28 483,-28"/>
<text text-anchor="middle" x="534" y="-35" font-family="Helvetica,sans-Serif" font-size="10.00">test_fft.pointToInt</text>
</a>
</g>
</g>
<!-- Node2 -->
<g id="node2" class="node">
<title>Node2</title>
<g id="a_node2"><a xlink:href="namespacetest__fft.html#a9e3e61598158d72ac6b5afec6fdd5441" target="_top" xlink:title=" ">
<polygon fill="white" stroke="black" points="0,-28 0,-47 130,-47 130,-28 0,-28"/>
<text text-anchor="middle" x="65" y="-35" font-family="Helvetica,sans-Serif" font-size="10.00">test_fft.generateAllTest</text>
</a>
</g>
</g>
<!-- Node1&#45;&gt;Node2 -->
<g id="edge1" class="edge">
<title>Node1&#45;&gt;Node2</title>
<path fill="none" stroke="midnightblue" d="M472.5,-38.4C399.75,-39.35 273.94,-40.58 166,-39.5 154.37,-39.38 141.97,-39.19 130.01,-38.97"/>
<polygon fill="midnightblue" stroke="midnightblue" points="472.89,-41.9 482.84,-38.26 472.79,-34.9 472.89,-41.9"/>
</g>
<!-- Node3 -->
<g id="node3" class="node">
<title>Node3</title>
<g id="a_node3"><a xlink:href="namespacetest__fft.html#ae86df066f3d221910f265ebf0ca78928" target="_top" xlink:title=" ">
<polygon fill="white" stroke="black" points="310,-9 310,-28 447,-28 447,-9 310,-9"/>
<text text-anchor="middle" x="378.5" y="-16" font-family="Helvetica,sans-Serif" font-size="10.00">test_fft.pointToHexString</text>
</a>
</g>
</g>
<!-- Node1&#45;&gt;Node3 -->
<g id="edge2" class="edge">
<title>Node1&#45;&gt;Node3</title>
<path fill="none" stroke="midnightblue" d="M472.69,-30.03C464.31,-29 455.67,-27.93 447.17,-26.88"/>
<polygon fill="midnightblue" stroke="midnightblue" points="472.38,-33.52 482.74,-31.28 473.24,-26.58 472.38,-33.52"/>
</g>
<!-- Node4 -->
<g id="node4" class="node">
<title>Node4</title>
<g id="a_node4"><a xlink:href="namespacetest__fft.html#af33a37bfd8d7cd7d274a37babcaa4d25" target="_top" xlink:title=" ">
<polygon fill="white" stroke="black" points="166,-0.5 166,-30.5 274,-30.5 274,-0.5 166,-0.5"/>
<text text-anchor="start" x="174" y="-18.5" font-family="Helvetica,sans-Serif" font-size="10.00">test_fft.stringfyFFT</text>
<text text-anchor="middle" x="220" y="-7.5" font-family="Helvetica,sans-Serif" font-size="10.00">_Trace</text>
</a>
</g>
</g>
<!-- Node3&#45;&gt;Node4 -->
<g id="edge3" class="edge">
<title>Node3&#45;&gt;Node4</title>
<path fill="none" stroke="midnightblue" d="M299.68,-17.01C291.06,-16.84 282.43,-16.68 274.22,-16.52"/>
<polygon fill="midnightblue" stroke="midnightblue" points="299.7,-20.51 309.77,-17.2 299.84,-13.51 299.7,-20.51"/>
</g>
<!-- Node4&#45;&gt;Node2 -->
<g id="edge4" class="edge">
<title>Node4&#45;&gt;Node2</title>
<path fill="none" stroke="midnightblue" d="M156,-24.56C147.43,-25.79 138.64,-27.06 130.06,-28.29"/>
<polygon fill="midnightblue" stroke="midnightblue" points="156.52,-28.02 165.92,-23.13 155.52,-21.09 156.52,-28.02"/>
</g>
</g>
</svg>
