<?xml version="1.0" encoding="UTF-8" standalone="no"?>
<!DOCTYPE svg PUBLIC "-//W3C//DTD SVG 1.1//EN"
 "http://www.w3.org/Graphics/SVG/1.1/DTD/svg11.dtd">
<!-- Generated by graphviz version 2.43.0 (0)
 -->
<!-- Title: test_fft.stringfyFFT_Trace Pages: 1 -->
<svg width="427pt" height="39pt"
 viewBox="0.00 0.00 427.00 39.00" xmlns="http://www.w3.org/2000/svg" xmlns:xlink="http://www.w3.org/1999/xlink">
<g id="graph0" class="graph" transform="scale(1 1) rotate(0) translate(4 35)">
<title>test_fft.stringfyFFT_Trace</title>
<polygon fill="white" stroke="transparent" points="-4,4 -4,-35 423,-35 423,4 -4,4"/>
<!-- Node1 -->
<g id="node1" class="node">
<title>Node1</title>
<g id="a_node1"><a xlink:title=" ">
<polygon fill="#bfbfbf" stroke="black" points="0,-0.5 0,-30.5 108,-30.5 108,-0.5 0,-0.5"/>
<text text-anchor="start" x="8" y="-18.5" font-family="Helvetica,sans-Serif" font-size="10.00">test_fft.stringfyFFT</text>
<text text-anchor="middle" x="54" y="-7.5" font-family="Helvetica,sans-Serif" font-size="10.00">_Trace</text>
</a>
</g>
</g>
<!-- Node2 -->
<g id="node2" class="node">
<title>Node2</title>
<g id="a_node2"><a xlink:href="namespacetest__fft.html#ae86df066f3d221910f265ebf0ca78928" target="_top" xlink:title=" ">
<polygon fill="white" stroke="black" points="144,-6 144,-25 281,-25 281,-6 144,-6"/>
<text text-anchor="middle" x="212.5" y="-13" font-family="Helvetica,sans-Serif" font-size="10.00">test_fft.pointToHexString</text>
</a>
</g>
</g>
<!-- Node1&#45;&gt;Node2 -->
<g id="edge1" class="edge">
<title>Node1&#45;&gt;Node2</title>
<path fill="none" stroke="midnightblue" d="M108.42,-15.5C116.63,-15.5 125.25,-15.5 133.85,-15.5"/>
<polygon fill="midnightblue" stroke="midnightblue" points="133.93,-19 143.93,-15.5 133.93,-12 133.93,-19"/>
</g>
<!-- Node3 -->
<g id="node3" class="node">
<title>Node3</title>
<g id="a_node3"><a xlink:href="namespacetest__fft.html#a3120a884d7f9b48da4e9f63ed32d3965" target="_top" xlink:title=" ">
<polygon fill="white" stroke="black" points="317,-6 317,-25 419,-25 419,-6 317,-6"/>
<text text-anchor="middle" x="368" y="-13" font-family="Helvetica,sans-Serif" font-size="10.00">test_fft.pointToInt</text>
</a>
</g>
</g>
<!-- Node2&#45;&gt;Node3 -->
<g id="edge2" class="edge">
<title>Node2&#45;&gt;Node3</title>
<path fill="none" stroke="midnightblue" d="M281.27,-15.5C289.63,-15.5 298.13,-15.5 306.38,-15.5"/>
<polygon fill="midnightblue" stroke="midnightblue" points="306.65,-19 316.65,-15.5 306.65,-12 306.65,-19"/>
</g>
</g>
</svg>
