<?xml version="1.0" encoding="UTF-8" standalone="no"?>
<!DOCTYPE svg PUBLIC "-//W3C//DTD SVG 1.1//EN"
 "http://www.w3.org/Graphics/SVG/1.1/DTD/svg11.dtd">
<!-- Generated by graphviz version 2.43.0 (0)
 -->
<!-- Title: test_fft.pointToHexString Pages: 1 -->
<svg width="455pt" height="39pt"
 viewBox="0.00 0.00 455.00 39.00" xmlns="http://www.w3.org/2000/svg" xmlns:xlink="http://www.w3.org/1999/xlink">
<g id="graph0" class="graph" transform="scale(1 1) rotate(0) translate(4 35)">
<title>test_fft.pointToHexString</title>
<polygon fill="white" stroke="transparent" points="-4,4 -4,-35 451,-35 451,4 -4,4"/>
<!-- Node1 -->
<g id="node1" class="node">
<title>Node1</title>
<g id="a_node1"><a xlink:title=" ">
<polygon fill="#bfbfbf" stroke="black" points="310,-6 310,-25 447,-25 447,-6 310,-6"/>
<text text-anchor="middle" x="378.5" y="-13" font-family="Helvetica,sans-Serif" font-size="10.00">test_fft.pointToHexString</text>
</a>
</g>
</g>
<!-- Node2 -->
<g id="node2" class="node">
<title>Node2</title>
<g id="a_node2"><a xlink:href="namespacetest__fft.html#af33a37bfd8d7cd7d274a37babcaa4d25" target="_top" xlink:title=" ">
<polygon fill="white" stroke="black" points="166,-0.5 166,-30.5 274,-30.5 274,-0.5 166,-0.5"/>
<text text-anchor="start" x="174" y="-18.5" font-family="Helvetica,sans-Serif" font-size="10.00">test_fft.stringfyFFT</text>
<text text-anchor="middle" x="220" y="-7.5" font-family="Helvetica,sans-Serif" font-size="10.00">_Trace</text>
</a>
</g>
</g>
<!-- Node1&#45;&gt;Node2 -->
<g id="edge1" class="edge">
<title>Node1&#45;&gt;Node2</title>
<path fill="none" stroke="midnightblue" d="M299.68,-15.5C291.06,-15.5 282.43,-15.5 274.22,-15.5"/>
<polygon fill="midnightblue" stroke="midnightblue" points="299.77,-19 309.77,-15.5 299.77,-12 299.77,-19"/>
</g>
<!-- Node3 -->
<g id="node3" class="node">
<title>Node3</title>
<g id="a_node3"><a xlink:href="namespacetest__fft.html#a9e3e61598158d72ac6b5afec6fdd5441" target="_top" xlink:title=" ">
<polygon fill="white" stroke="black" points="0,-6 0,-25 130,-25 130,-6 0,-6"/>
<text text-anchor="middle" x="65" y="-13" font-family="Helvetica,sans-Serif" font-size="10.00">test_fft.generateAllTest</text>
</a>
</g>
</g>
<!-- Node2&#45;&gt;Node3 -->
<g id="edge2" class="edge">
<title>Node2&#45;&gt;Node3</title>
<path fill="none" stroke="midnightblue" d="M155.72,-15.5C147.24,-15.5 138.54,-15.5 130.06,-15.5"/>
<polygon fill="midnightblue" stroke="midnightblue" points="155.92,-19 165.92,-15.5 155.92,-12 155.92,-19"/>
</g>
</g>
</svg>
